<?xml version="1.0" encoding="utf-8"?>
<!-- Generator: Adobe Illustrator 22.1.0, SVG Export Plug-In . SVG Version: 6.00 Build 0)  -->
<svg version="1.1" id="Layer_1" xmlns="http://www.w3.org/2000/svg" xmlns:xlink="http://www.w3.org/1999/xlink" x="0px" y="0px"
	 viewBox="0 0 230 250" style="enable-background:new 0 0 230 250;" xml:space="preserve">
<style type="text/css">
	.st0{fill:#FFFFFF;}
	.st1{fill:#232323;}
</style>
<g>
	<g>
		<path class="st0" d="M66.9,204.6c-3,0-5.5-2.5-5.5-5.5c0-2.5-2-4.5-4.5-4.5c-2.5,0-4.5,2-4.5,4.5c0,3-2.5,5.5-5.5,5.5
			c-3,0-5.5-2.5-5.5-5.5c0-2.5-2-4.5-4.5-4.5c-2.5,0-4.5,2-4.5,4.5c0,3-2.5,5.5-5.5,5.5c-3,0-5.5-2.5-5.5-5.5c0-2.5-2-4.5-4.5-4.5
			c-2.5,0-4.5,2-4.5,4.5c0,3-2.5,5.5-5.5,5.5c-3,0-5.5-2.5-5.5-5.5V74c0-40,33.8-72.5,75.4-72.5s75.4,32.4,75.4,72.5v125.1
			c0,3-2.5,5.5-5.5,5.5c-3,0-5.5-2.5-5.5-5.5c0-2.5-2-4.5-4.5-4.5c-2.5,0-4.5,2-4.5,4.5c0,3-2.5,5.5-5.5,5.5c-3,0-5.5-2.5-5.5-5.5
			c0-2.5-2-4.5-4.5-4.5c-2.5,0-4.5,2-4.5,4.5c0,3-2.5,5.5-5.5,5.5c-3,0-5.5-2.5-5.5-5.5c0-2.5-2-4.5-4.5-4.5c-2.5,0-4.5,2-4.5,4.5
			c0,3-2.5,5.5-5.5,5.5c-3,0-5.5-2.5-5.5-5.5c0-2.5-2-4.5-4.5-4.5c-2.5,0-4.5,2-4.5,4.5C71.9,205.1,66.9,204.6,66.9,204.6z"/>
		<path class="st1" d="M67.3,206.1c-0.2,0-0.3,0-0.4,0c-3.8,0-6.9-3.2-6.9-7c0-1.7-1.3-3-3-3c-1.7,0-3,1.3-3,3c0,3.9-3.1,7-7,7
			c-3.9,0-7-3.1-7-7c0-1.7-1.3-3-3-3c-1.7,0-3,1.3-3,3c0,3.9-3.1,7-7,7s-7-3.1-7-7c0-1.7-1.3-3-3-3s-3,1.3-3,3c0,3.9-3.1,7-7,7
			s-7-3.1-7-7V74C0,33.2,34.5,0,76.9,0s76.9,33.2,76.9,74v125.1c0,3.9-3.1,7-7,7s-7-3.1-7-7c0-1.7-1.3-3-3-3c-1.7,0-3,1.3-3,3
			c0,3.9-3.1,7-7,7c-3.9,0-7-3.1-7-7c0-1.7-1.3-3-3-3c-1.7,0-3,1.3-3,3c0,3.9-3.1,7-7,7c-3.9,0-7-3.1-7-7c0-1.7-1.3-3-3-3
			c-1.7,0-3,1.3-3,3c0,3.9-3.1,7-7,7c-3.9,0-7-3.1-7-7c0-1.7-1.3-3-3-3c-1.7,0-3,1.3-3,3l0,0.1c-0.2,2.4-1.1,4.2-2.5,5.5
			C69.9,205.9,68.1,206.1,67.3,206.1z M67.1,203.1c0,0,1.4,0.1,2.4-0.8c0.8-0.7,1.3-1.8,1.4-3.3c0-3.3,2.7-5.9,6-5.9
			c3.3,0,6,2.7,6,6c0,2.2,1.8,4,4,4c2.2,0,4-1.8,4-4c0-3.3,2.7-6,6-6c3.3,0,6,2.7,6,6c0,2.2,1.8,4,4,4c2.2,0,4-1.8,4-4
			c0-3.3,2.7-6,6-6c3.3,0,6,2.7,6,6c0,2.2,1.8,4,4,4c2.2,0,4-1.8,4-4c0-3.3,2.7-6,6-6s6,2.7,6,6c0,2.2,1.8,4,4,4s4-1.8,4-4V74
			c0-39.1-33.2-71-73.9-71S3,34.8,3,74v125.1c0,2.2,1.8,4,4,4s4-1.8,4-4c0-3.3,2.7-6,6-6s6,2.7,6,6c0,2.2,1.8,4,4,4s4-1.8,4-4
			c0-3.3,2.7-6,6-6c3.3,0,6,2.7,6,6c0,2.2,1.8,4,4,4c2.2,0,4-1.8,4-4c0-3.3,2.7-6,6-6c3.3,0,6,2.7,6,6c0,2.2,1.8,4,4,4L67.1,203.1
			L67.1,203.1z"/>
	</g>
	<path class="st1" d="M50,91.5l3.1-3.1c0.6-0.5,0.6-1.4,0-2c-0.5-0.5-1.4-0.5-1.9,0L48,89.6l-3.2-3.1c-0.5-0.5-1.4-0.5-2,0
		c-0.5,0.5-0.5,1.4,0,2l3.1,3.1l-3.1,3.1c-0.5,0.5-0.5,1.4,0,2c0.3,0.3,0.6,0.4,1,0.4s0.7-0.1,1-0.4l3.2-3.1l3.1,3.1
		c0.3,0.3,0.6,0.4,1,0.4c0.3,0,0.7-0.1,1-0.4c0.6-0.5,0.6-1.4,0-2L50,91.5z M93.3,122.8H60.6c-0.8,0-1.4,0.6-1.4,1.4
		c0,0.8,0.6,1.4,1.4,1.4h32.7c0.8,0,1.4-0.6,1.4-1.4C94.7,123.4,94,122.8,93.3,122.8z M107.8,91.5l3.1-3.1c0.5-0.5,0.5-1.4,0-2
		c-0.6-0.5-1.4-0.5-2,0l-3.1,3.1l-3.1-3.1c-0.6-0.5-1.4-0.5-2,0c-0.6,0.5-0.6,1.4,0,2l3.1,3.1l-3.1,3.1c-0.6,0.5-0.6,1.4,0,2
		c0.3,0.3,0.6,0.4,1,0.4c0.4,0,0.7-0.1,1-0.4l3.1-3.1l3.1,3.1c0.3,0.3,0.6,0.4,1,0.4c0.4,0,0.7-0.1,1-0.4c0.5-0.5,0.5-1.4,0-2
		L107.8,91.5z M50,91.5l3.1-3.1c0.6-0.5,0.6-1.4,0-2c-0.5-0.5-1.4-0.5-1.9,0L48,89.6l-3.2-3.1c-0.5-0.5-1.4-0.5-2,0
		c-0.5,0.5-0.5,1.4,0,2l3.1,3.1l-3.1,3.1c-0.5,0.5-0.5,1.4,0,2c0.3,0.3,0.6,0.4,1,0.4s0.7-0.1,1-0.4l3.2-3.1l3.1,3.1
		c0.3,0.3,0.6,0.4,1,0.4c0.3,0,0.7-0.1,1-0.4c0.6-0.5,0.6-1.4,0-2L50,91.5z M93.3,122.8H60.6c-0.8,0-1.4,0.6-1.4,1.4
		c0,0.8,0.6,1.4,1.4,1.4h32.7c0.8,0,1.4-0.6,1.4-1.4C94.7,123.4,94,122.8,93.3,122.8z M107.8,91.5l3.1-3.1c0.5-0.5,0.5-1.4,0-2
		c-0.6-0.5-1.4-0.5-2,0l-3.1,3.1l-3.1-3.1c-0.6-0.5-1.4-0.5-2,0c-0.6,0.5-0.6,1.4,0,2l3.1,3.1l-3.1,3.1c-0.6,0.5-0.6,1.4,0,2
		c0.3,0.3,0.6,0.4,1,0.4c0.4,0,0.7-0.1,1-0.4l3.1-3.1l3.1,3.1c0.3,0.3,0.6,0.4,1,0.4c0.4,0,0.7-0.1,1-0.4c0.5-0.5,0.5-1.4,0-2
		L107.8,91.5z M50,91.5l3.1-3.1c0.6-0.5,0.6-1.4,0-2c-0.5-0.5-1.4-0.5-1.9,0L48,89.6l-3.2-3.1c-0.5-0.5-1.4-0.5-2,0
		c-0.5,0.5-0.5,1.4,0,2l3.1,3.1l-3.1,3.1c-0.5,0.5-0.5,1.4,0,2c0.3,0.3,0.6,0.4,1,0.4s0.7-0.1,1-0.4l3.2-3.1l3.1,3.1
		c0.3,0.3,0.6,0.4,1,0.4c0.3,0,0.7-0.1,1-0.4c0.6-0.5,0.6-1.4,0-2L50,91.5z M107.8,91.5l3.1-3.1c0.5-0.5,0.5-1.4,0-2
		c-0.6-0.5-1.4-0.5-2,0l-3.1,3.1l-3.1-3.1c-0.6-0.5-1.4-0.5-2,0c-0.6,0.5-0.6,1.4,0,2l3.1,3.1l-3.1,3.1c-0.6,0.5-0.6,1.4,0,2
		c0.3,0.3,0.6,0.4,1,0.4c0.4,0,0.7-0.1,1-0.4l3.1-3.1l3.1,3.1c0.3,0.3,0.6,0.4,1,0.4c0.4,0,0.7-0.1,1-0.4c0.5-0.5,0.5-1.4,0-2
		L107.8,91.5z M93.3,122.8H60.6c-0.8,0-1.4,0.6-1.4,1.4c0,0.8,0.6,1.4,1.4,1.4h32.7c0.8,0,1.4-0.6,1.4-1.4
		C94.7,123.4,94,122.8,93.3,122.8z"/>
	<path class="st1" d="M228.3,238.4l-29-33.5c9.2-9.8,14.9-23.1,14.9-37.6c0-30.3-24.6-55-54.9-55c-30.3,0-54.9,24.7-54.9,55
		c0,30.3,24.6,55,54.9,55c10.7,0,20.7-3.1,29.2-8.5l29.3,33.8c1.4,1.6,3.3,2.4,5.3,2.4c1.6,0,3.3-0.6,4.6-1.7
		C230.5,245.7,230.8,241.3,228.3,238.4z M185.1,210c-7.6,4.6-16.4,7.3-25.9,7.3c-27.5,0-49.9-22.4-49.9-50c0-27.6,22.4-50,49.9-50
		c27.5,0,49.9,22.4,49.9,50c0,13-5,24.9-13.2,33.8C192.8,204.5,189.1,207.5,185.1,210z"/>
	<g>
		<path class="st0" d="M155.5,117.4v87.4c0,3.4-2.7,6.1-6.1,6.1c-3.3,0-6.1-2.7-6.1-6.1c0-2.7-2.2-5-5-5c-2.7,0-5,2.2-5,5
			c0,1.6-0.6,3.1-1.7,4.2c-0.5-0.3-0.9-0.6-1.4-1c-0.9-0.7-1.8-1.3-2.7-2.1c-0.6-0.5-1.2-1-1.8-1.5c-1.6-1.4-3.1-2.9-4.5-4.5
			c-1.5-1.7-2.8-3.5-4-5.3c-0.3-0.5-0.7-1-1-1.5c-4.5-7.5-7.2-16.4-7.2-25.8c0-24.7,18-45.3,41.5-49.3c0.5-0.1,1-0.2,1.5-0.2
			c0.5-0.1,1-0.1,1.5-0.2h0C154.4,117.5,155,117.5,155.5,117.4z"/>
		<path class="st1" d="M155.5,117.4c-0.5,0-1.1,0.1-1.6,0.2h0v87.3c0,2.4-2,4.4-4.4,4.4c-2.4,0-4.4-2-4.4-4.4c0-3.7-3-6.6-6.6-6.6
			c-3.6,0-6.6,3-6.6,6.6c0,1.3-0.5,2.4-1.4,3.2c0.5,0.3,0.9,0.6,1.4,1c0.5,0.3,0.9,0.6,1.4,0.9c1.2-1.4,1.9-3.1,1.9-5
			c0-1.8,1.5-3.3,3.3-3.3c1.8,0,3.3,1.5,3.3,3.3c0,4.3,3.5,7.7,7.7,7.7c4.3,0,7.7-3.5,7.7-7.7v-87.5
			C156.6,117.4,156,117.4,155.5,117.4z"/>
	</g>
</g>
</svg>
