<?xml version="1.0" encoding="utf-8"?>
<!-- Generator: Adobe Illustrator 22.1.0, SVG Export Plug-In . SVG Version: 6.00 Build 0)  -->
<svg version="1.1" id="Layer_1" xmlns="http://www.w3.org/2000/svg" xmlns:xlink="http://www.w3.org/1999/xlink" x="0px" y="0px"
	 viewBox="0 0 210 258" style="enable-background:new 0 0 210 258;" xml:space="preserve">
<style type="text/css">
	.st0{fill:#FFFFFF;}
	.st1{fill:#232323;}
	.st2{fill:none;stroke:#232323;stroke-miterlimit:10;}
	.st3{fill:#851E3E;}
	.st4{fill:#A63E5D;}
</style>
<g>
	<g>
		<path class="st0" d="M61.3,97.1c-1.9,0-3.5-1.6-3.5-3.5V62.7c0-1.9,1.6-3.5,3.5-3.5h141c1.9,0,3.5,1.6,3.5,3.5v30.9
			c0,1.9-1.6,3.5-3.5,3.5H61.3z"/>
		<path class="st1" d="M202.3,60.1c1.4,0,2.5,1.1,2.5,2.5v30.9c0,1.4-1.1,2.5-2.5,2.5h-141c-1.4,0-2.5-1.1-2.5-2.5V62.7
			c0-1.4,1.1-2.5,2.5-2.5H202.3 M202.3,58.1h-141c-2.5,0-4.5,2-4.5,4.5v30.9c0,2.5,2,4.5,4.5,4.5h141c2.5,0,4.5-2,4.5-4.5V62.7
			C206.8,60.2,204.8,58.1,202.3,58.1L202.3,58.1z"/>
	</g>
	<path class="st1" d="M76.5,73.8c2.4,0,4.3,1.9,4.3,4.3s-1.9,4.3-4.3,4.3s-4.3-1.9-4.3-4.3S74.1,73.8,76.5,73.8 M76.5,71.8
		c-3.5,0-6.3,2.8-6.3,6.3s2.8,6.3,6.3,6.3s6.3-2.8,6.3-6.3S79.9,71.8,76.5,71.8L76.5,71.8z"/>
	<path class="st2" d="M190.6,69.3h2.8V87h-2.8V69.3z"/>
	<path class="st2" d="M180.9,69.3h2.8V87h-2.8V69.3z"/>
	<path class="st2" d="M171.2,69.3h2.8V87h-2.8V69.3z"/>
	<path class="st2" d="M161.4,69.3h2.8V87h-2.8V69.3z"/>
	<g>
		<path class="st0" d="M5.1,59.1c-1.9,0-3.4-1.5-3.5-3.3L1,27.6c0-0.9,0.3-1.8,1-2.4c0.6-0.7,1.5-1,2.4-1.1c0,0,140.5-3,140.5-3
			c1.9,0,3.5,1.5,3.5,3.3l0.6,28.1c0,0.9-0.3,1.8-1,2.4c-0.6,0.7-1.5,1-2.4,1.1L5.1,59.1z"/>
		<path class="st1" d="M145,22.1c1.3,0,2.4,1.1,2.5,2.4l0.6,28.1c0,0.6-0.2,1.2-0.7,1.7c-0.5,0.5-1.1,0.7-1.7,0.8l-140.5,3l-0.1,0
			c-1.3,0-2.4-1.1-2.5-2.4L2,27.6c0-0.6,0.2-1.2,0.7-1.7c0.5-0.5,1.1-0.7,1.7-0.8L145,22.1L145,22.1 M145,20.1
			C144.9,20.1,144.9,20.1,145,20.1l-140.6,3c-2.5,0.1-4.4,2.1-4.4,4.5l0.6,28.1c0.1,2.4,2,4.3,4.5,4.3c0,0,0.1,0,0.1,0l140.5-3
			c2.5-0.1,4.4-2.1,4.4-4.5l-0.6-28.1C149.4,22.1,147.4,20.1,145,20.1L145,20.1z"/>
	</g>
	<path class="st1" d="M19.5,37c2.3,0,4.3,1.9,4.3,4.2c0,1.2-0.4,2.2-1.2,3.1c-0.8,0.8-1.9,1.3-3,1.3l-0.1,0c-2.3,0-4.3-1.9-4.3-4.2
		c0-1.2,0.4-2.2,1.2-3.1C17.2,37.5,18.3,37,19.5,37L19.5,37 M19.5,35c0,0-0.1,0-0.1,0c-3.5,0.1-6.3,3-6.2,6.4
		c0.1,3.4,2.9,6.2,6.3,6.2c0,0,0.1,0,0.1,0c3.5-0.1,6.3-3,6.2-6.4C25.8,37.8,22.9,35,19.5,35L19.5,35z"/>
	<path class="st2" d="M133.8,30l2.8-0.1l0.4,17.7l-2.8,0.1L133.8,30z"/>
	<path class="st2" d="M124.1,30.2l2.8-0.1l0.4,17.7l-2.8,0.1L124.1,30.2z"/>
	<path class="st2" d="M114.3,30.4l2.8-0.1l0.4,17.7l-2.8,0.1L114.3,30.4z"/>
	<path class="st2" d="M104.6,30.7l2.8-0.1l0.4,17.7l-2.8,0.1L104.6,30.7z"/>
	<g>
		<path class="st0" d="M53.7,137.1c-1.9,0-3.5-1.6-3.5-3.5v-30.9c0-1.9,1.6-3.5,3.5-3.5h141c1.9,0,3.5,1.6,3.5,3.5v30.9
			c0,1.9-1.6,3.5-3.5,3.5H53.7z"/>
		<path class="st1" d="M194.7,100.1c1.4,0,2.5,1.1,2.5,2.5v30.9c0,1.4-1.1,2.5-2.5,2.5h-141c-1.4,0-2.5-1.1-2.5-2.5v-30.9
			c0-1.4,1.1-2.5,2.5-2.5H194.7 M194.7,98.1h-141c-2.5,0-4.5,2-4.5,4.5v30.9c0,2.5,2,4.5,4.5,4.5h141c2.5,0,4.5-2,4.5-4.5v-30.9
			C199.2,100.1,197.2,98.1,194.7,98.1L194.7,98.1z"/>
	</g>
	<path class="st1" d="M75,118.1c0,3.5-2.8,6.3-6.3,6.3s-6.3-2.8-6.3-6.3c0-3.5,2.8-6.3,6.3-6.3S75,114.6,75,118.1z"/>
	<path class="st1" d="M183.2,109.3h2.8v17.7h-2.8V109.3z"/>
	<path class="st1" d="M173.5,109.3h2.8v17.7h-2.8V109.3z"/>
	<path class="st1" d="M163.7,109.3h2.8v17.7h-2.8V109.3z"/>
	<path class="st1" d="M154,109.3h2.8v17.7H154V109.3z"/>
	<g>
		<path class="st0" d="M59.8,177.1c-1.9,0-3.5-1.6-3.5-3.5v-30.9c0-1.9,1.6-3.5,3.5-3.5h141c1.9,0,3.5,1.6,3.5,3.5v30.9
			c0,1.9-1.6,3.5-3.5,3.5H59.8z"/>
		<path class="st1" d="M200.8,140.1c1.4,0,2.5,1.1,2.5,2.5v30.9c0,1.4-1.1,2.5-2.5,2.5h-141c-1.4,0-2.5-1.1-2.5-2.5v-30.9
			c0-1.4,1.1-2.5,2.5-2.5H200.8 M200.8,138.1h-141c-2.5,0-4.5,2-4.5,4.5v30.9c0,2.5,2,4.5,4.5,4.5h141c2.5,0,4.5-2,4.5-4.5v-30.9
			C205.3,140.1,203.3,138.1,200.8,138.1L200.8,138.1z"/>
	</g>
	<path class="st1" d="M74.8,153.8c2.4,0,4.3,1.9,4.3,4.3c0,2.4-1.9,4.3-4.3,4.3c-2.4,0-4.3-1.9-4.3-4.3
		C70.5,155.7,72.4,153.8,74.8,153.8 M74.8,151.8c-3.5,0-6.3,2.8-6.3,6.3s2.8,6.3,6.3,6.3s6.3-2.8,6.3-6.3S78.3,151.8,74.8,151.8
		L74.8,151.8z"/>
	<path class="st2" d="M189.3,149.2h2.8v17.7h-2.8V149.2z"/>
	<path class="st2" d="M179.5,149.2h2.8v17.7h-2.8V149.2z"/>
	<path class="st2" d="M169.8,149.2h2.8v17.7h-2.8V149.2z"/>
	<path class="st2" d="M160,149.2h2.8v17.7H160V149.2z"/>
	<g>
		<path class="st0" d="M53.5,217c-1.9,0-3.5-1.6-3.5-3.5v-30.9c0-1.9,1.6-3.5,3.5-3.5h141c1.9,0,3.5,1.6,3.5,3.5v30.9
			c0,1.9-1.6,3.5-3.5,3.5H53.5z"/>
		<path class="st1" d="M194.5,180.1c1.4,0,2.5,1.1,2.5,2.5v30.9c0,1.4-1.1,2.5-2.5,2.5h-141c-1.4,0-2.5-1.1-2.5-2.5v-30.9
			c0-1.4,1.1-2.5,2.5-2.5H194.5 M194.5,178.1h-141c-2.5,0-4.5,2-4.5,4.5v30.9c0,2.5,2,4.5,4.5,4.5h141c2.5,0,4.5-2,4.5-4.5v-30.9
			C199,180.1,197,178.1,194.5,178.1L194.5,178.1z"/>
	</g>
	<path class="st1" d="M74.8,198c0,3.5-2.8,6.3-6.3,6.3s-6.3-2.8-6.3-6.3c0-3.5,2.8-6.3,6.3-6.3S74.8,194.6,74.8,198z"/>
	<path class="st1" d="M183,189.2h2.8v17.7H183V189.2z"/>
	<path class="st1" d="M173.2,189.2h2.8v17.7h-2.8V189.2z"/>
	<path class="st1" d="M163.5,189.2h2.8v17.7h-2.8V189.2z"/>
	<path class="st1" d="M153.7,189.2h2.8v17.7h-2.8V189.2z"/>
	<g>
		<path class="st0" d="M53.5,257c-1.9,0-3.5-1.6-3.5-3.5v-30.9c0-1.9,1.6-3.5,3.5-3.5h141c1.9,0,3.5,1.6,3.5,3.5v30.9
			c0,1.9-1.6,3.5-3.5,3.5H53.5z"/>
		<path class="st1" d="M194.5,220c1.4,0,2.5,1.1,2.5,2.5v30.9c0,1.4-1.1,2.5-2.5,2.5h-141c-1.4,0-2.5-1.1-2.5-2.5v-30.9
			c0-1.4,1.1-2.5,2.5-2.5H194.5 M194.5,218h-141c-2.5,0-4.5,2-4.5,4.5v30.9c0,2.5,2,4.5,4.5,4.5h141c2.5,0,4.5-2,4.5-4.5v-30.9
			C199,220.1,197,218,194.5,218L194.5,218z"/>
	</g>
	<path class="st1" d="M74.8,238c0,3.5-2.8,6.3-6.3,6.3s-6.3-2.8-6.3-6.3s2.8-6.3,6.3-6.3S74.8,234.5,74.8,238z"/>
	<path class="st1" d="M183,229.2h2.8v17.7H183V229.2z"/>
	<path class="st1" d="M173.2,229.2h2.8v17.7h-2.8V229.2z"/>
	<path class="st1" d="M163.5,229.2h2.8v17.7h-2.8V229.2z"/>
	<path class="st1" d="M153.7,229.2h2.8v17.7h-2.8V229.2z"/>
	<g>
		<path class="st3" d="M159.3,25c0,8.3-6.7,15-15,15c-8.3,0-15-6.7-15-15c0-0.3,0-0.6,0-0.9c0.2-8.5,4.4-10.6,4.6-10.7
			c0.2-0.1,0.5-0.1,0.8,0c0.2,0.1,0.4,0.4,0.4,0.6c0,0.1,0.8,5.1,4.2,5.9c0-2.2,0.1-5.5,0.9-8.4c1.1-4.2,4.1-8.7,7.8-11.3
			c0.3-0.2,0.6-0.2,0.9-0.1c0.3,0.1,0.5,0.4,0.5,0.7c0,3.9,2,6.5,4.2,9.6c2.5,3.3,5.2,7,5.7,13l0,0.4
			C159.2,24.2,159.3,24.6,159.3,25z"/>
		<path class="st4" d="M152.6,31.6c0,4.6-3.8,8.4-8.4,8.4c-4.6,0-8.4-3.8-8.4-8.4c0-0.2,0-0.3,0-0.5c0.1-4.8,2.5-5.9,2.6-6
			c0.1-0.1,0.3-0.1,0.4,0c0.1,0.1,0.2,0.2,0.2,0.3c0,0,0.4,2.9,2.3,3.3c0-1.2,0.1-3.1,0.5-4.7c0.6-2.4,2.3-4.8,4.4-6.3
			c0.1-0.1,0.3-0.1,0.5,0c0.2,0.1,0.3,0.2,0.3,0.4c0,2.2,1.1,3.6,2.4,5.4c1.4,1.8,2.9,3.9,3.2,7.3l0,0.2
			C152.6,31.1,152.6,31.4,152.6,31.6z"/>
	</g>
	<g>
		<path class="st3" d="M40.5,151.9l0-0.4c0.5-6,3.2-9.7,5.7-13c2.3-3.1,4.2-5.7,4.2-9.6c0-0.3,0.2-0.6,0.5-0.7
			c0.3-0.1,0.6-0.1,0.9,0.1c3.7,2.6,6.8,7.1,7.8,11.3c0.7,2.9,0.8,6.3,0.9,8.4c3.4-0.7,4.2-5.8,4.2-5.9c0-0.3,0.2-0.5,0.4-0.6
			c0.2-0.1,0.5-0.1,0.8,0c0.2,0.1,4.4,2.2,4.6,10.7c0,0.3,0,0.6,0,0.9c0,8.3-6.7,15-15,15c-8.3,0-15-6.7-15-15
			C40.4,152.7,40.4,152.3,40.5,151.9z"/>
		<path class="st4" d="M47.1,159l0-0.2c0.3-3.3,1.8-5.4,3.2-7.3c1.3-1.7,2.4-3.2,2.4-5.4c0-0.2,0.1-0.3,0.3-0.4
			c0.2-0.1,0.3-0.1,0.5,0c2.1,1.5,3.8,4,4.4,6.3c0.4,1.6,0.5,3.5,0.5,4.7c1.9-0.4,2.3-3.2,2.3-3.3c0-0.1,0.1-0.3,0.2-0.3
			c0.1-0.1,0.3-0.1,0.4,0c0.1,0,2.4,1.2,2.6,6c0,0.2,0,0.3,0,0.5c0,4.6-3.8,8.4-8.4,8.4c-4.6,0-8.4-3.8-8.4-8.4
			C47,159.5,47,159.2,47.1,159z"/>
	</g>
	<g>
		<path class="st3" d="M188,67.2l0-0.3c0.3-4.5,2.4-7.3,4.2-9.7c1.7-2.3,3.1-4.3,3.1-7.2c0-0.2,0.1-0.4,0.3-0.6
			c0.2-0.1,0.4-0.1,0.6,0c2.7,2,5,5.3,5.7,8.5c0.5,2.2,0.6,4.7,0.6,6.3c2.5-0.5,3.1-4.4,3.1-4.4c0-0.2,0.1-0.4,0.3-0.5
			c0.2-0.1,0.4-0.1,0.6,0c0.1,0.1,3.2,1.7,3.4,8c0,0.2,0,0.4,0,0.6c0,6.2-4.9,11.2-11,11.2c-6.1,0-11-5-11-11.2
			C188,67.8,188,67.5,188,67.2z"/>
		<path class="st4" d="M192.9,72.5l0-0.2c0.2-2.5,1.3-4.1,2.3-5.4c0.9-1.3,1.7-2.4,1.7-4c0-0.1,0.1-0.3,0.2-0.3
			c0.1-0.1,0.3-0.1,0.4,0c1.5,1.1,2.8,3,3.2,4.7c0.3,1.2,0.3,2.6,0.4,3.5c1.4-0.3,1.7-2.4,1.7-2.5c0-0.1,0.1-0.2,0.2-0.3
			c0.1-0.1,0.2-0.1,0.3,0c0.1,0,1.8,0.9,1.9,4.5c0,0.1,0,0.2,0,0.4c0,3.5-2.8,6.3-6.2,6.3c-3.4,0-6.2-2.8-6.2-6.3
			C192.8,72.9,192.9,72.7,192.9,72.5z"/>
	</g>
</g>
</svg>
