<?xml version="1.0" encoding="utf-8"?>
<!-- Generator: Adobe Illustrator 22.1.0, SVG Export Plug-In . SVG Version: 6.00 Build 0)  -->
<svg version="1.1" id="Layer_1" xmlns="http://www.w3.org/2000/svg" xmlns:xlink="http://www.w3.org/1999/xlink" x="0px" y="0px"
	 viewBox="0 0 20 20" style="enable-background:new 0 0 20 20;" xml:space="preserve">
<g>
	<path d="M10,0C4.5,0,0,4.5,0,10s4.5,10,10,10s10-4.5,10-10S15.5,0,10,0z M10,18c-4.4,0-8-3.6-8-8c0-4.4,3.6-8,8-8c4.4,0,8,3.6,8,8
		C18,14.4,14.4,18,10,18z M11,7.3v8.4c0,0.6-0.4,1-1,1c-0.6,0-1-0.4-1-1V7.3c0-0.5,0.4-1,1-1S11,6.7,11,7.3z M10,3.3
		c-0.5,0-1,0.4-1,1c0,0.6,0.4,1,1,1s1-0.4,1-1C11,3.7,10.5,3.3,10,3.3z"/>
</g>
</svg>
