<?xml version="1.0" encoding="utf-8"?>
<!-- Generator: Adobe Illustrator 22.1.0, SVG Export Plug-In . SVG Version: 6.00 Build 0)  -->
<svg version="1.1" id="Layer_1" xmlns="http://www.w3.org/2000/svg" xmlns:xlink="http://www.w3.org/1999/xlink" x="0px" y="0px"
	 viewBox="0 0 350 350" style="enable-background:new 0 0 350 350;" xml:space="preserve">
<style type="text/css">
	.st0{fill:none;}
	.st1{fill:#08203F;}
	.st2{opacity:0.5;fill:#2F2445;enable-background:new    ;}
	.st3{fill:#E5E5E5;}
	.st4{fill:#FFFFFF;}
	.st5{fill:#194173;}
	.st6{fill:#2F2445;}
</style>
<g id="accessibility-feature" transform="translate(0.002)">
	<path class="st0" d="M0,0h350v350H0V0z"/>
	<g id="Layer_2_1_" transform="translate(-0.002 0)">
		<g id="Layer_4">
			<g id="_6">
				<path class="st1" d="M203.5,17.7l-10,24.7c0,0-0.9,20.1-2,26.8c-0.5,3.4-2.4,5.1-4.3,5.8s-3.9,0.1-4.7-1.2
					c-1.5-2.6-0.9-7.3-1.1-16.5c-0.1-2.8,0.1-5.7,0.5-8.5c0.2-1.9,0.6-3.8,1.2-5.7C186.9,33.9,203.5,17.3,203.5,17.7z"/>
				<path class="st1" d="M203.5,17.7l-10,24.7c0,0-0.9,20.1-2,26.8c-0.5,3.4-2.4,5.1-4.3,5.8c-3.8-8.2-5.6-17.1-5.3-26.1
					c0.2-1.9,0.6-3.8,1.2-5.7C186.9,33.9,203.5,17.3,203.5,17.7z"/>
				<path class="st1" d="M217.9,35.6c0,0-3.6,3.3-6.5,6.5c-1.5,1.5-2.8,3.1-3.8,4.9c-1.1,2.8-1.5,2.5-1.4,8.7
					c0.1,2.9,0.3,5.4,0.5,7.7c0.3,2.2,0.3,4.5-0.1,6.7c-0.3,1.4-1.7,2.2-3.3,2.3c-0.3,0-0.6,0-0.9,0c-2.3,0-4.4-1.4-5.3-3.6
					c-1.5-4.6-2.9-17.8-2.9-18.7s7.5-11.2,7.5-11.2l8.5-4.1L217.9,35.6z"/>
				<path class="st2" d="M206.7,70.1c-0.3,1.4-1.7,2.2-3.3,2.3c0-0.1,0-0.1,0-0.2c-0.3-3.7,1.9-7,3.4-8.8
					C207.1,65.6,207,67.9,206.7,70.1z"/>
				<path class="st1" d="M217.9,35.6c0,0-3.6,3.3-6.5,6.5c-1.9-0.1-3.8,0.2-5.7,0.9c0,0-4.7,8.4-6.2,9.9c0,0,2.3,12.6,2.9,19.6
					c-2.3,0-4.4-1.5-5.3-3.6c-1.5-4.6-2.9-17.8-2.9-18.7s7.5-11.2,7.5-11.2l8.5-4.1L217.9,35.6z"/>
				<path class="st0" d="M216.4,41c-0.7-0.7-1.4-1.3-2.2-1.9c-0.9-0.7-1.6-1.2-1.6-1.2s-6.9,1.3-8.9,3.4l5.3-1
					C211.6,39.9,214.1,40.2,216.4,41L216.4,41z"/>
				<path class="st3" d="M51.5,200.8L51.5,200.8c0.3,1.5,1.7,2.5,3.2,2.2c0,0,0,0,0,0l176.1-31.6c1.5-0.3,2.5-1.7,2.2-3.2
					c-0.3-1.5-1.7-2.5-3.2-2.2L53.7,197.6C52.3,197.9,51.3,199.3,51.5,200.8z M225,123.7c-0.3-1.5-1.7-2.5-3.2-2.2L45.8,153.1
					c-1.5,0.2-2.5,1.7-2.3,3.2c0.2,1.5,1.7,2.5,3.2,2.3c0,0,0.1,0,0.1,0l176.1-31.7C224.3,126.6,225.3,125.2,225,123.7z
					 M225.8,143.7L49.8,175.4c-1.5,0.3-2.4,1.8-2.1,3.3c0.3,1.4,1.6,2.3,3,2.1l176-31.7c1.5-0.3,2.4-1.8,2-3.3
					C228.5,144.5,227.2,143.6,225.8,143.7L225.8,143.7z M55.5,223.1c0.3,1.5,1.7,2.5,3.2,2.2l176.1-31.7c1.5-0.2,2.6-1.6,2.4-3.1
					c-0.2-1.5-1.6-2.6-3.1-2.4c-0.1,0-0.2,0-0.3,0.1L57.8,219.9C56.3,220.1,55.3,221.6,55.5,223.1z M75,334.4
					c0.3,1.5,1.7,2.5,3.2,2.2l176.1-31.7c1.5-0.2,2.6-1.5,2.4-3.1c-0.2-1.5-1.5-2.6-3.1-2.4c-0.1,0-0.2,0-0.3,0.1L77.2,331.2
					C75.7,331.5,74.7,332.9,75,334.4z M71,312.1c0.3,1.5,1.7,2.5,3.2,2.2c0,0,0,0,0,0l176.1-31.6c1.5-0.3,2.5-1.7,2.2-3.2l0,0
					c-0.3-1.5-1.7-2.5-3.2-2.2c0,0,0,0,0,0L73.2,308.9C71.7,309.2,70.7,310.6,71,312.1C71,312.1,71,312.1,71,312.1z M59.5,245.3
					c0.3,1.5,1.7,2.5,3.2,2.2c0,0,0,0,0,0l176.1-31.7c1.5-0.3,2.5-1.7,2.2-3.2c0,0,0,0,0,0l0,0c-0.3-1.5-1.7-2.5-3.2-2.2
					c0,0,0,0,0,0L61.7,242.1C60.3,242.4,59.3,243.8,59.5,245.3C59.5,245.3,59.5,245.3,59.5,245.3z M63,267.7
					c0.3,1.5,1.7,2.5,3.2,2.2c0,0,0,0,0,0l176.1-31.7c1.5-0.2,2.6-1.6,2.4-3.1s-1.6-2.6-3.1-2.4c-0.1,0-0.2,0-0.3,0.1L65.3,264.5
					C63.8,264.7,62.8,266.2,63,267.7C63,267.7,63,267.7,63,267.7z M213,57c-0.3-1.5-1.7-2.5-3.2-2.2l-12.2,2.2l-11.2,2l-83,14.9
					c-1.5,0.2-2.5,1.7-2.3,3.2c0.2,1.5,1.7,2.5,3.2,2.3c0,0,0.1,0,0.1,0l83.5-15l10.5-1.9l12.4-2.2C212.3,59.9,213.3,58.5,213,57
					L213,57z M67,289.9c0.3,1.5,1.7,2.5,3.2,2.2l176-31.7c1.5-0.4,2.4-1.8,2-3.3c-0.3-1.4-1.6-2.3-3-2.1L69.2,286.7
					C67.7,287,66.7,288.4,67,289.9z M105.2,99.3c0.3,1.5,1.7,2.5,3.2,2.2c0,0,0,0,0,0l106.4-19.1c1.5-0.3,2.5-1.7,2.2-3.2
					c-0.1-0.7-0.6-1.4-1.2-1.8c-3.8,3.3-7.2,5.3-9.2,4.4c-1.2-0.6-2-1.8-2.2-3.1l-97,17.5C105.9,96.4,104.9,97.8,105.2,99.3
					C105.2,99.3,105.2,99.3,105.2,99.3L105.2,99.3z M112.4,123.8l106.4-19.1c1.5-0.3,2.5-1.7,2.2-3.2c-0.3-1.5-1.7-2.5-3.2-2.2
					l-106.4,19.1c-1.5,0.2-2.6,1.5-2.4,3.1s1.5,2.6,3.1,2.4C112.1,123.8,112.2,123.8,112.4,123.8L112.4,123.8z M46.2,135.7l37.6-6.8
					c3.4-0.6,5.7-3.9,5-7.3l-6.7-37.6c-0.6-3.4-3.9-5.7-7.3-5.1l-37.6,6.8c-3.4,0.6-5.7,3.8-5.1,7.2c0,0,0,0,0,0l6.7,37.6
					C39.6,134,42.8,136.3,46.2,135.7L46.2,135.7z"/>
				<path id="Path_893" class="st4" d="M270.1,301.1L227.7,64.7c-0.3,0.3-0.5,0.6-0.8,0.9c-3.4,4.2-7.1,8.2-11.1,11.8
					c1.3,0.8,1.6,2.5,0.8,3.8c-0.4,0.6-1.1,1.1-1.8,1.2l-106.4,19.2c-1.5,0.2-2.9-0.9-3-2.4c-0.2-1.4,0.7-2.7,2.1-3l97-17.4
					c-0.6-4.1,0.3-8.2,2.6-11.7c0.3-0.4,0.5-0.7,0.9-1c3.5-3.5,10.3-12.5,11.6-17.6c0.1-0.2,0.1-0.5,0.2-0.7c0-0.2,0.1-0.4,0.1-0.6
					c0-0.6-0.1-1.2-0.3-1.8c-0.6-1.6-1.6-3.1-2.9-4.3c-2.3-0.9-4.9-1.1-7.3-0.7l-5.3,1l-17.5,3.1L28.5,72.8
					c-7.6,1.4-12.6,8.6-11.2,16.2c0,0,0,0,0,0L62,338.5c1.4,7.6,8.6,12.6,16.2,11.3c0,0,0,0,0,0l180.7-32.4
					C266.4,316,271.5,308.8,270.1,301.1C270.1,301.2,270.1,301.2,270.1,301.1L270.1,301.1z M111.4,118.4l106.4-19.1
					c1.5-0.3,2.9,0.7,3.2,2.2c0.3,1.5-0.7,2.9-2.2,3.2l-106.4,19.1c-1.5,0.4-3-0.5-3.3-2c-0.4-1.5,0.5-3,2-3.3
					C111.2,118.4,111.3,118.4,111.4,118.4L111.4,118.4z M103.4,73.9l83-14.9l11.2-2l12.2-2.2c1.5-0.4,3,0.5,3.3,2
					c0.4,1.5-0.5,3-2,3.3c-0.1,0-0.2,0.1-0.4,0.1l-12.4,2.2l-10.5,1.9l-83.5,15c-1.5,0.3-2.9-0.7-3.2-2.2
					C100.9,75.6,101.9,74.2,103.4,73.9C103.4,73.9,103.4,73.9,103.4,73.9L103.4,73.9z M38.9,130.6l-6.7-37.6c-0.6-3.4,1.6-6.6,5-7.3
					c0,0,0,0,0,0L74.9,79c3.4-0.6,6.6,1.7,7.3,5.1l6.7,37.6c0.6,3.4-1.7,6.6-5,7.3l-37.6,6.8C42.8,136.3,39.6,134,38.9,130.6
					L38.9,130.6z M43.6,156.3c-0.3-1.5,0.7-2.9,2.2-3.2l176.1-31.6c1.5-0.4,3,0.5,3.3,2c0.4,1.5-0.5,3-2,3.3c-0.1,0-0.2,0.1-0.4,0.1
					L46.7,158.5C45.2,158.8,43.8,157.8,43.6,156.3L43.6,156.3z M47.6,178.6c-0.3-1.5,0.7-2.9,2.2-3.2c0,0,0,0,0,0l176.1-31.6
					c1.5-0.2,2.9,0.9,3,2.4c0.2,1.4-0.7,2.7-2.1,3l-176,31.6C49.2,181.1,47.8,180.1,47.6,178.6C47.6,178.6,47.6,178.6,47.6,178.6
					L47.6,178.6z M51.5,200.8L51.5,200.8c-0.3-1.5,0.7-2.9,2.2-3.2L229.8,166c1.5-0.3,2.9,0.7,3.2,2.2c0.3,1.5-0.7,2.9-2.2,3.2
					L54.7,203C53.2,203.3,51.8,202.3,51.5,200.8C51.5,200.8,51.5,200.8,51.5,200.8L51.5,200.8z M55.5,223.1
					c-0.3-1.5,0.7-2.9,2.2-3.2l176.1-31.6c1.5-0.4,3,0.5,3.3,2c0.4,1.5-0.5,3-2,3.3c-0.1,0-0.2,0.1-0.4,0.1L58.7,225.3
					C57.2,225.6,55.8,224.6,55.5,223.1L55.5,223.1z M59.5,245.3c-0.3-1.5,0.7-2.9,2.2-3.2c0,0,0,0,0,0l176.1-31.6
					c1.5-0.3,2.9,0.7,3.2,2.2c0,0,0,0,0,0l0,0c0.3,1.5-0.7,2.9-2.2,3.2c0,0,0,0,0,0L62.7,247.6C61.2,247.8,59.8,246.8,59.5,245.3
					C59.5,245.3,59.5,245.3,59.5,245.3L59.5,245.3z M63,267.6c-0.3-1.5,0.7-2.9,2.2-3.2c0,0,0,0,0,0l176.1-31.6c1.5-0.4,3,0.5,3.3,2
					c0.4,1.5-0.5,3-2,3.3c-0.1,0-0.2,0.1-0.4,0.1L66.2,269.9C64.7,270.1,63.3,269.2,63,267.6C63,267.7,63,267.7,63,267.6L63,267.6z
					 M67,289.9c-0.3-1.5,0.7-2.9,2.2-3.2l176.1-31.6c1.5-0.2,2.9,0.9,3,2.4c0.2,1.4-0.7,2.7-2.1,3l-176,31.6
					C68.7,292.4,67.3,291.4,67,289.9L67,289.9z M71,312.1c-0.3-1.5,0.7-2.9,2.2-3.2c0,0,0,0,0,0l176.1-31.6c1.5-0.3,2.9,0.7,3.2,2.2
					s-0.7,2.9-2.2,3.2l-176,31.6C72.8,314.7,71.3,313.7,71,312.1C71,312.2,71,312.2,71,312.1L71,312.1z M254.2,305L78.2,336.6
					c-1.5,0.4-3-0.4-3.4-1.9c-0.4-1.5,0.4-3,1.9-3.4c0.2,0,0.3-0.1,0.5-0.1l176.1-31.6c1.5-0.4,3,0.5,3.3,2c0.4,1.5-0.5,3-2,3.3
					C254.5,305,254.4,305,254.2,305L254.2,305z"/>
				<path class="st5" d="M270.3,0.2c-9.3-0.8-23.6,1.6-37.8,6.5s-28.2,8.7-30.7,11.2c-1.3,1.5-2.4,3.1-3.4,4.8l0,0
					c-3.9,6-9.6,15.9-12.2,21.8l17.5-3.1c2-2,8.9-3.4,8.9-3.4s0.7,0.4,1.6,1.2c0.8,0.6,1.5,1.2,2.2,1.9c1.3,1.2,2.3,2.7,2.9,4.3
					l1.4-1.7l2.9-3.5c-0.4,1.6-1,3.2-1.8,4.6c-0.7,1.3-1.5,2.5-2.4,3.7c-1.3,5.1-8.1,14.1-11.6,17.6c-0.3,0.3-0.6,0.6-0.9,1
					c-2.2,3.5-3.1,7.6-2.6,11.7c0.1,1.3,1,2.5,2.2,3.1c2.1,0.9,5.5-1.2,9.2-4.4c4-3.6,7.7-7.6,11.1-11.8c0.2-0.3,0.5-0.6,0.8-0.9
					c7.7-8.5,30.3-20.4,35-34.5c0,0,2.2-3.3,7.7-3.8c-1.8,0.7-3.3,1.8-4.6,3.3c2.1,0.3,4,1,5.8,2.1c0.8,0.5,2,1.2,3.4,2.2
					c4.5-9.6,13.1-21.7,16.4-26.2C282.8,4,274.3,0.5,270.3,0.2z"/>
				<path class="st1" d="M291.3,7.8c-3.3,4.5-11.9,16.6-16.4,26.2c1.5,1,3.2,2.3,5.1,3.7l13.4-28.9C292.8,8.5,292,8.2,291.3,7.8z"/>
				<path class="st1" d="M291.3,7.8c-3.3,4.5-11.9,16.6-16.4,26.2c1.5,1,3.2,2.3,5.1,3.7l13.4-28.9C292.8,8.5,292,8.2,291.3,7.8z"/>
				<path class="st1" d="M220.8,43.7l-1.4,1.7c0.2,0.6,0.3,1.2,0.3,1.8c0,0.2,0,0.4-0.1,0.6c0,0.2-0.1,0.5-0.2,0.7
					c0.9-1.2,1.8-2.4,2.5-3.7c0.8-1.4,1.4-3,1.8-4.6L220.8,43.7z"/>
				<path class="st1" d="M220.8,43.7l-1.4,1.7c0.2,0.6,0.3,1.2,0.3,1.8c0,0.2,0,0.4-0.1,0.6c0,0.2-0.1,0.5-0.2,0.7
					c0.9-1.2,1.8-2.4,2.5-3.7c0.8-1.4,1.4-3,1.8-4.6L220.8,43.7z"/>
				<path class="st6" d="M270.3,26.5c-5.4,0.5-7.7,3.8-7.7,3.8c0.9-0.6,2-0.7,3.1-0.5C266.9,28.3,268.5,27.2,270.3,26.5z"/>
				<path class="st1" d="M270.3,26.5c-5.4,0.5-7.7,3.8-7.7,3.8c0.9-0.6,2-0.7,3.1-0.5C266.9,28.3,268.5,27.2,270.3,26.5z"/>
				<path class="st4" d="M295.8,3.9l-2.3,4.9l-13.4,28.9l-4.2,9.1l8.1,5.3l3.8-8.6l13.8-30.9l1.9-4.2L295.8,3.9z"/>
				<path class="st3" d="M304.4,6.3l-1,2.1l-1.9,4.2l-13.8,30.9l-3.8,8.5l-1.8,4.1l5.8,3.7c-0.1-0.4-0.1-0.7-0.1-1.1
					c0-2.7,2.2-4.9,4.9-4.8c2.7,0,4.9,2.2,4.8,4.9c0,2.3-1.6,4.2-3.8,4.7l5.3,3.4c-0.2-0.5-0.3-1.1-0.3-1.7c0-2.7,2.2-4.9,4.9-4.8
					c2.7,0,4.9,2.2,4.8,4.9c0,2.5-2,4.6-4.5,4.8l6.2,3.9L333,23.4L304.4,6.3z"/>
				<path class="st1" d="M292.7,54c-2.7,0-4.9,2.2-4.9,4.9c0,0,0,0,0,0c0,0.4,0,0.7,0.1,1.1c0.5,2.2,2.5,3.8,4.7,3.8
					c0.4,0,0.7,0,1.1-0.1c2.6-0.6,4.3-3.2,3.7-5.8C296.9,55.7,295,54.1,292.7,54L292.7,54z"/>
				<path class="st1" d="M303.6,60.5c-2.7,0-4.9,2.2-4.9,4.9c0,0,0,0,0,0c0,0.6,0.1,1.2,0.3,1.7c0.7,1.9,2.5,3.2,4.6,3.2h0.4
					c2.7-0.2,4.7-2.6,4.5-5.3C308.2,62.5,306.1,60.6,303.6,60.5L303.6,60.5z"/>
			</g>
			<path class="st5" d="M74.5,97.7c1.2-0.2,2.3,0.6,2.5,1.8s-0.6,2.3-1.8,2.5c-1.2,0.2-2.3-0.6-2.5-1.8C72.5,99,73.3,97.9,74.5,97.7
				C74.5,97.7,74.5,97.7,74.5,97.7z"/>
			<path class="st5" d="M44.2,103c1.2-0.2,2.3,0.6,2.5,1.8c0.2,1.2-0.6,2.3-1.8,2.5s-2.3-0.6-2.5-1.8c-0.1-0.6,0-1.1,0.4-1.6
				C43.1,103.4,43.6,103.1,44.2,103z"/>
			<path class="st5" d="M62.2,116.8c-2.9,0.5-5.5-0.2-6.3-1.7c-0.2-0.3,0-0.7,0.4-0.9c0.3-0.1,0.7,0,0.9,0.3
				c0.4,0.8,2.3,1.4,4.8,0.9c2.5-0.4,4.1-1.6,4.3-2.6c0-0.4,0.4-0.6,0.8-0.6c0.4,0,0.6,0.4,0.6,0.8
				C67.3,114.8,65.1,116.3,62.2,116.8z"/>
		</g>
	</g>
</g>
</svg>
