<?xml version="1.0" encoding="utf-8"?>
<!-- Generator: Adobe Illustrator 22.1.0, SVG Export Plug-In . SVG Version: 6.00 Build 0)  -->
<svg version="1.1" id="Layer_1" xmlns="http://www.w3.org/2000/svg" xmlns:xlink="http://www.w3.org/1999/xlink" x="0px" y="0px"
	 viewBox="0 0 316 350" style="enable-background:new 0 0 316 350;" xml:space="preserve">
<style type="text/css">
	.st0{fill:#2F2445;}
	.st1{opacity:0.5;fill:#2F2445;enable-background:new    ;}
	.st2{fill:none;}
	.st3{fill:#E5E5E5;}
	.st4{fill:#463B5B;}
	.st5{fill:#C9C9C9;}
</style>
<g>
	<path class="st0" d="M186.5,17.7l-10,24.7c0,0-0.9,20.1-2,26.8c-0.5,3.4-2.4,5.1-4.3,5.8s-3.9,0.1-4.7-1.2
		c-1.5-2.6-0.9-7.3-1.1-16.5c-0.1-2.8,0.1-5.7,0.5-8.5c0.2-1.9,0.6-3.8,1.2-5.7C169.9,33.9,186.5,17.3,186.5,17.7z"/>
	<path class="st1" d="M186.5,17.7l-10,24.7c0,0-0.9,20.1-2,26.8c-0.5,3.4-2.4,5.1-4.3,5.8c-3.8-8.2-5.6-17.1-5.3-26.1
		c0.2-1.9,0.6-3.8,1.2-5.7C169.9,33.9,186.5,17.3,186.5,17.7z"/>
	<path class="st0" d="M200.9,35.6c0,0-3.6,3.3-6.5,6.5c-1.5,1.5-2.8,3.1-3.8,4.9c-1.1,2.8-1.5,2.5-1.4,8.7c0.1,2.9,0.3,5.4,0.5,7.7
		c0.3,2.2,0.3,4.5-0.1,6.7c-0.3,1.4-1.7,2.2-3.3,2.3c-0.3,0-0.6,0-0.9,0c-2.3,0-4.4-1.4-5.3-3.6c-1.5-4.6-2.9-17.8-2.9-18.7
		s7.5-11.2,7.5-11.2l8.5-4.1L200.9,35.6z"/>
	<path class="st1" d="M189.7,70.1c-0.3,1.4-1.7,2.2-3.3,2.3c0-0.1,0-0.1,0-0.2c-0.3-3.7,1.9-7,3.4-8.8
		C190.1,65.6,190,67.9,189.7,70.1z"/>
	<path class="st1" d="M200.9,35.6c0,0-3.6,3.3-6.5,6.5c-1.9-0.1-3.8,0.2-5.7,0.9c0,0-4.7,8.4-6.2,9.9c0,0,2.3,12.6,2.9,19.6
		c-2.3,0-4.4-1.5-5.3-3.6c-1.5-4.6-2.9-17.8-2.9-18.7s7.5-11.2,7.5-11.2l8.5-4.1L200.9,35.6z"/>
	<path class="st2" d="M199.4,41c-0.7-0.7-1.4-1.3-2.2-1.9c-0.9-0.7-1.6-1.2-1.6-1.2s-6.9,1.3-8.9,3.4l5.3-1
		C194.6,39.9,197.1,40.2,199.4,41L199.4,41z"/>
	<path id="Path_893" class="st3" d="M253.1,301.1L210.7,64.7c-0.3,0.3-0.5,0.6-0.8,0.9c-3.4,4.2-7.1,8.2-11.1,11.8
		c1.3,0.8,1.6,2.5,0.8,3.8c-0.4,0.6-1.1,1.1-1.8,1.2L91.4,101.5c-1.5,0.2-2.9-0.9-3-2.4c-0.2-1.4,0.7-2.7,2.1-3l97-17.4
		c-0.6-4.1,0.3-8.2,2.6-11.7c0.3-0.4,0.5-0.7,0.9-1c3.5-3.5,10.3-12.5,11.6-17.6c0.1-0.2,0.1-0.5,0.2-0.7c0-0.2,0.1-0.4,0.1-0.6
		c0-0.6-0.1-1.2-0.3-1.8c-0.6-1.6-1.6-3.1-2.9-4.3c-2.3-0.9-4.9-1.1-7.3-0.7l-5.3,1l-17.5,3.1L11.5,72.8C3.9,74.2-1.1,81.4,0.2,89
		c0,0,0,0,0,0L45,338.5c1.4,7.6,8.6,12.6,16.2,11.3c0,0,0,0,0,0l180.7-32.4C249.4,316,254.5,308.8,253.1,301.1
		C253.1,301.2,253.1,301.2,253.1,301.1L253.1,301.1z M94.4,118.4l106.4-19.1c1.5-0.3,2.9,0.7,3.2,2.2c0.3,1.5-0.7,2.9-2.2,3.2
		L95.4,123.8c-1.5,0.4-3-0.5-3.3-2c-0.4-1.5,0.5-3,2-3.3C94.2,118.4,94.3,118.4,94.4,118.4L94.4,118.4z M86.4,73.9l83-14.9l11.2-2
		l12.2-2.2c1.5-0.4,3,0.5,3.3,2c0.4,1.5-0.5,3-2,3.3c-0.1,0-0.2,0.1-0.4,0.1l-12.4,2.2l-10.5,1.9l-83.5,15c-1.5,0.3-2.9-0.7-3.2-2.2
		C83.9,75.6,84.9,74.2,86.4,73.9C86.4,73.9,86.4,73.9,86.4,73.9L86.4,73.9z M21.9,130.6l-6.7-37.6c-0.6-3.4,1.6-6.6,5-7.3
		c0,0,0,0,0,0L57.9,79c3.4-0.6,6.6,1.7,7.3,5.1l6.7,37.6c0.6,3.4-1.7,6.6-5,7.3l-37.6,6.8C25.8,136.3,22.6,134,21.9,130.6
		L21.9,130.6z M26.6,156.3c-0.3-1.5,0.7-2.9,2.2-3.2l176.1-31.6c1.5-0.4,3,0.5,3.3,2c0.4,1.5-0.5,3-2,3.3c-0.1,0-0.2,0.1-0.4,0.1
		L29.7,158.5C28.2,158.8,26.8,157.8,26.6,156.3L26.6,156.3z M30.6,178.6c-0.3-1.5,0.7-2.9,2.2-3.2c0,0,0,0,0,0l176.1-31.6
		c1.5-0.2,2.9,0.9,3,2.4c0.2,1.4-0.7,2.7-2.1,3l-176,31.6C32.2,181.1,30.8,180.1,30.6,178.6C30.6,178.6,30.6,178.6,30.6,178.6
		L30.6,178.6z M34.5,200.8L34.5,200.8c-0.3-1.5,0.7-2.9,2.2-3.2L212.8,166c1.5-0.3,2.9,0.7,3.2,2.2c0.3,1.5-0.7,2.9-2.2,3.2
		L37.7,203C36.2,203.3,34.8,202.3,34.5,200.8C34.5,200.8,34.5,200.8,34.5,200.8L34.5,200.8z M38.5,223.1c-0.3-1.5,0.7-2.9,2.2-3.2
		l176.1-31.6c1.5-0.4,3,0.5,3.3,2c0.4,1.5-0.5,3-2,3.3c-0.1,0-0.2,0.1-0.4,0.1L41.7,225.3C40.2,225.6,38.8,224.6,38.5,223.1
		L38.5,223.1z M42.5,245.3c-0.3-1.5,0.7-2.9,2.2-3.2c0,0,0,0,0,0l176.1-31.6c1.5-0.3,2.9,0.7,3.2,2.2c0,0,0,0,0,0l0,0
		c0.3,1.5-0.7,2.9-2.2,3.2c0,0,0,0,0,0L45.7,247.6C44.2,247.8,42.8,246.8,42.5,245.3C42.5,245.3,42.5,245.3,42.5,245.3L42.5,245.3z
		 M46,267.6c-0.3-1.5,0.7-2.9,2.2-3.2c0,0,0,0,0,0l176.1-31.6c1.5-0.4,3,0.5,3.3,2c0.4,1.5-0.5,3-2,3.3c-0.1,0-0.2,0.1-0.4,0.1
		L49.2,269.9C47.7,270.1,46.3,269.2,46,267.6C46,267.7,46,267.7,46,267.6L46,267.6z M50,289.9c-0.3-1.5,0.7-2.9,2.2-3.2l176.1-31.6
		c1.5-0.2,2.9,0.9,3,2.4c0.2,1.4-0.7,2.7-2.1,3l-176,31.6C51.7,292.4,50.3,291.4,50,289.9L50,289.9z M54,312.1
		c-0.3-1.5,0.7-2.9,2.2-3.2c0,0,0,0,0,0l176.1-31.6c1.5-0.3,2.9,0.7,3.2,2.2s-0.7,2.9-2.2,3.2l-176,31.6
		C55.8,314.7,54.3,313.7,54,312.1C54,312.2,54,312.2,54,312.1L54,312.1z M237.2,305L61.2,336.6c-1.5,0.4-3-0.4-3.4-1.9
		c-0.4-1.5,0.4-3,1.9-3.4c0.2,0,0.3-0.1,0.5-0.1l176.1-31.6c1.5-0.4,3,0.5,3.3,2c0.4,1.5-0.5,3-2,3.3C237.5,305,237.4,305,237.2,305
		L237.2,305z"/>
	<path class="st0" d="M253.3,0.2c-9.3-0.8-23.6,1.6-37.8,6.5s-28.2,8.7-30.7,11.2c-1.3,1.5-2.4,3.1-3.4,4.8l0,0
		c-3.9,6-9.6,15.9-12.2,21.8l17.5-3.1c2-2,8.9-3.4,8.9-3.4s0.7,0.4,1.6,1.2c0.8,0.6,1.5,1.2,2.2,1.9c1.3,1.2,2.3,2.7,2.9,4.3
		l1.4-1.7l2.9-3.5c-0.4,1.6-1,3.2-1.8,4.6c-0.7,1.3-1.5,2.5-2.4,3.7c-1.3,5.1-8.1,14.1-11.6,17.6c-0.3,0.3-0.6,0.6-0.9,1
		c-2.2,3.5-3.1,7.6-2.6,11.7c0.1,1.3,1,2.5,2.2,3.1c2.1,0.9,5.5-1.2,9.2-4.4c4-3.6,7.7-7.6,11.1-11.8c0.2-0.3,0.5-0.6,0.8-0.9
		c7.7-8.5,30.3-20.4,35-34.5c0,0,2.2-3.3,7.7-3.8c-1.8,0.7-3.3,1.8-4.6,3.3c2.1,0.3,4,1,5.8,2.1c0.8,0.5,2,1.2,3.4,2.2
		c4.5-9.6,13.1-21.7,16.4-26.2C265.8,4,257.3,0.5,253.3,0.2z"/>
	<path class="st4" d="M34.5,200.8L34.5,200.8c0.3,1.5,1.7,2.5,3.2,2.2c0,0,0,0,0,0l176.1-31.6c1.5-0.3,2.5-1.7,2.2-3.2
		c-0.3-1.5-1.7-2.5-3.2-2.2L36.7,197.6C35.3,197.9,34.3,199.3,34.5,200.8z M208,123.7c-0.3-1.5-1.7-2.5-3.2-2.2L28.8,153.1
		c-1.5,0.2-2.5,1.7-2.3,3.2c0.2,1.5,1.7,2.5,3.2,2.3c0,0,0.1,0,0.1,0l176.1-31.7C207.3,126.6,208.3,125.2,208,123.7z M208.8,143.7
		L32.8,175.4c-1.5,0.3-2.4,1.8-2.1,3.3c0.3,1.4,1.6,2.3,3,2.1l176-31.7c1.5-0.3,2.4-1.8,2-3.3C211.5,144.5,210.2,143.6,208.8,143.7
		L208.8,143.7z M38.5,223.1c0.3,1.5,1.7,2.5,3.2,2.2l176.1-31.7c1.5-0.2,2.6-1.6,2.4-3.1c-0.2-1.5-1.6-2.6-3.1-2.4
		c-0.1,0-0.2,0-0.3,0.1L40.8,219.9C39.3,220.1,38.3,221.6,38.5,223.1z M58,334.4c0.3,1.5,1.7,2.5,3.2,2.2l176.1-31.7
		c1.5-0.2,2.6-1.5,2.4-3.1c-0.2-1.5-1.5-2.6-3.1-2.4c-0.1,0-0.2,0-0.3,0.1L60.2,331.2C58.7,331.5,57.7,332.9,58,334.4z M54,312.1
		c0.3,1.5,1.7,2.5,3.2,2.2c0,0,0,0,0,0l176.1-31.6c1.5-0.3,2.5-1.7,2.2-3.2l0,0c-0.3-1.5-1.7-2.5-3.2-2.2c0,0,0,0,0,0L56.2,308.9
		C54.7,309.2,53.7,310.6,54,312.1C54,312.1,54,312.1,54,312.1z M42.5,245.3c0.3,1.5,1.7,2.5,3.2,2.2c0,0,0,0,0,0l176.1-31.7
		c1.5-0.3,2.5-1.7,2.2-3.2c0,0,0,0,0,0l0,0c-0.3-1.5-1.7-2.5-3.2-2.2c0,0,0,0,0,0L44.7,242.1C43.3,242.4,42.3,243.8,42.5,245.3
		C42.5,245.3,42.5,245.3,42.5,245.3z M46,267.7c0.3,1.5,1.7,2.5,3.2,2.2c0,0,0,0,0,0l176.1-31.7c1.5-0.2,2.6-1.6,2.4-3.1
		s-1.6-2.6-3.1-2.4c-0.1,0-0.2,0-0.3,0.1L48.3,264.5C46.8,264.7,45.8,266.2,46,267.7C46,267.7,46,267.7,46,267.7z M50,289.9
		c0.3,1.5,1.7,2.5,3.2,2.2l176-31.7c1.5-0.4,2.4-1.8,2-3.3c-0.3-1.4-1.6-2.3-3-2.1L52.2,286.7C50.7,287,49.7,288.4,50,289.9z
		 M88.2,99.3c0.3,1.5,1.7,2.5,3.2,2.2c0,0,0,0,0,0l106.4-19.1c1.5-0.3,2.5-1.7,2.2-3.2c-0.1-0.7-0.6-1.4-1.2-1.8
		c-3.8,3.3-7.2,5.3-9.2,4.4c-1.2-0.6-2-1.8-2.2-3.1l-97,17.5C88.9,96.4,87.9,97.8,88.2,99.3C88.2,99.3,88.2,99.3,88.2,99.3
		L88.2,99.3z M95.4,123.8l106.4-19.1c1.5-0.3,2.5-1.7,2.2-3.2c-0.3-1.5-1.7-2.5-3.2-2.2L94.4,118.4c-1.5,0.2-2.6,1.5-2.4,3.1
		s1.5,2.6,3.1,2.4C95.1,123.8,95.2,123.8,95.4,123.8L95.4,123.8z M29.2,135.7l37.6-6.8c3.4-0.6,5.7-3.9,5-7.3l-6.7-37.6
		c-0.6-3.4-3.9-5.7-7.3-5.1l-37.6,6.8c-3.4,0.6-5.7,3.8-5.1,7.2c0,0,0,0,0,0l6.7,37.6C22.6,134,25.8,136.3,29.2,135.7L29.2,135.7z
		 M196,57c-0.3-1.5-1.7-2.5-3.2-2.2l-12.2,2.2l-11.2,2l-83,14.9c-1.5,0.2-2.5,1.7-2.3,3.2c0.2,1.5,1.7,2.5,3.2,2.3c0,0,0.1,0,0.1,0
		l83.5-15l10.5-1.9l12.4-2.2C195.3,59.9,196.3,58.5,196,57L196,57z"/>
	<path class="st0" d="M274.3,7.8c-3.3,4.5-11.9,16.6-16.4,26.2c1.5,1,3.2,2.3,5.1,3.7l13.4-28.9C275.8,8.5,275,8.2,274.3,7.8z"/>
	<path class="st1" d="M274.3,7.8c-3.3,4.5-11.9,16.6-16.4,26.2c1.5,1,3.2,2.3,5.1,3.7l13.4-28.9C275.8,8.5,275,8.2,274.3,7.8z"/>
	<path class="st0" d="M203.8,43.7l-1.4,1.7c0.2,0.6,0.3,1.2,0.3,1.8c0,0.2,0,0.4-0.1,0.6c0,0.2-0.1,0.5-0.2,0.7
		c0.9-1.2,1.8-2.4,2.5-3.7c0.8-1.4,1.4-3,1.8-4.6L203.8,43.7z"/>
	<path class="st1" d="M203.8,43.7l-1.4,1.7c0.2,0.6,0.3,1.2,0.3,1.8c0,0.2,0,0.4-0.1,0.6c0,0.2-0.1,0.5-0.2,0.7
		c0.9-1.2,1.8-2.4,2.5-3.7c0.8-1.4,1.4-3,1.8-4.6L203.8,43.7z"/>
	<path class="st0" d="M253.3,26.5c-5.4,0.5-7.7,3.8-7.7,3.8c0.9-0.6,2-0.7,3.1-0.5C249.9,28.3,251.5,27.2,253.3,26.5z"/>
	<path class="st1" d="M253.3,26.5c-5.4,0.5-7.7,3.8-7.7,3.8c0.9-0.6,2-0.7,3.1-0.5C249.9,28.3,251.5,27.2,253.3,26.5z"/>
	<path class="st3" d="M278.8,3.9l-2.3,4.9l-13.4,28.9l-4.2,9.1l8.1,5.3l3.8-8.6l13.8-30.9l1.9-4.2L278.8,3.9z"/>
	<path class="st5" d="M287.4,6.3l-1,2.1l-1.9,4.2l-13.8,30.9l-3.8,8.5l-1.8,4.1l5.8,3.7c-0.1-0.4-0.1-0.7-0.1-1.1
		c0-2.7,2.2-4.9,4.9-4.8c2.7,0,4.9,2.2,4.8,4.9c0,2.3-1.6,4.2-3.8,4.7l5.3,3.4c-0.2-0.5-0.3-1.1-0.3-1.7c0-2.7,2.2-4.9,4.9-4.8
		c2.7,0,4.9,2.2,4.8,4.9c0,2.5-2,4.6-4.5,4.8l6.2,3.9L316,23.4L287.4,6.3z"/>
	<path class="st0" d="M275.7,54c-2.7,0-4.9,2.2-4.9,4.9c0,0,0,0,0,0c0,0.4,0,0.7,0.1,1.1c0.5,2.2,2.5,3.8,4.7,3.8
		c0.4,0,0.7,0,1.1-0.1c2.6-0.6,4.3-3.2,3.7-5.8C279.9,55.7,278,54.1,275.7,54L275.7,54z M286.6,60.5c-2.7,0-4.9,2.2-4.9,4.9
		c0,0,0,0,0,0c0,0.6,0.1,1.2,0.3,1.7c0.7,1.9,2.5,3.2,4.6,3.2h0.4c2.7-0.2,4.7-2.6,4.5-5.3C291.2,62.5,289.1,60.6,286.6,60.5
		L286.6,60.5z"/>
	<path class="st5" d="M57.5,97.7c1.2-0.2,2.3,0.6,2.5,1.8s-0.6,2.3-1.8,2.5c-1.2,0.2-2.3-0.6-2.5-1.8C55.5,99,56.3,97.9,57.5,97.7
		C57.5,97.7,57.5,97.7,57.5,97.7z M27.2,103c1.2-0.2,2.3,0.6,2.5,1.8c0.2,1.2-0.6,2.3-1.8,2.5s-2.3-0.6-2.5-1.8
		c-0.1-0.6,0-1.1,0.4-1.6C26.1,103.4,26.6,103.1,27.2,103z M45.2,116.8c-2.9,0.5-5.5-0.2-6.3-1.7c-0.2-0.3,0-0.7,0.4-0.9
		c0.3-0.1,0.7,0,0.9,0.3c0.4,0.8,2.3,1.4,4.8,0.9s4.1-1.6,4.3-2.6c0-0.4,0.4-0.6,0.8-0.6c0.4,0,0.6,0.4,0.6,0.8
		C50.3,114.8,48.1,116.3,45.2,116.8z"/>
</g>
</svg>
