<?xml version="1.0" encoding="utf-8"?>
<!-- Generator: Adobe Illustrator 22.1.0, SVG Export Plug-In . SVG Version: 6.00 Build 0)  -->
<svg version="1.1" id="Layer_1" xmlns="http://www.w3.org/2000/svg" xmlns:xlink="http://www.w3.org/1999/xlink" x="0px" y="0px"
	 viewBox="0 0 350 350" style="enable-background:new 0 0 350 350;" xml:space="preserve">
<style type="text/css">
	.st0{fill:none;}
	.st1{fill:#08203F;}
	.st2{fill:#FFFFFF;}
	.st3{fill:#E5E5E5;}
	.st4{fill:#0B2B53;}
	.st5{fill:#194173;}
</style>
<g id="_2._Accountability" transform="translate(0 -0.06)">
	<path class="st0" d="M0,0.1h350v350H0V0.1z"/>
	<g id="_4">
		<path class="st1" d="M50,327.8V47.1c0-12.3,10-22.3,22.4-22.3h205.2c12.3,0,22.4,10,22.4,22.3v280.7c0,12.3-10,22.3-22.4,22.3
			H72.4C60,350.1,50,340.1,50,327.8z"/>
		<path class="st2" d="M76.3,34.8h197.4c9,0,16.3,7.3,16.3,16.3v272.7c0,9-7.3,16.3-16.3,16.3H76.3c-9,0-16.3-7.3-16.3-16.3V51.1
			C59.9,42.1,67.2,34.8,76.3,34.8z"/>
		<path class="st3" d="M86.7,89.4V74.2c0-1.7,1.4-3.1,3.1-3.1c0,0,0,0,0,0H105c1.7,0,3.1,1.4,3.1,3.1l0,0v15.2
			c0,1.7-1.4,3.1-3.1,3.1c0,0,0,0,0,0H89.9C88.1,92.5,86.7,91.1,86.7,89.4L86.7,89.4z M257,79H116c-1.8,0-3.2-1.5-3.2-3.2l0,0
			c0-1.8,1.4-3.2,3.2-3.2h141c1.8,0,3.2,1.4,3.2,3.2l0,0C260.2,77.6,258.7,79,257,79z M189.3,87.8L189.3,87.8c0-1.8-1.4-3.2-3.2-3.2
			c0,0,0,0,0,0H116c-1.8,0-3.2,1.4-3.2,3.2c0,0,0,0,0,0l0,0c0,1.8,1.4,3.2,3.2,3.2l0,0h70.1C187.9,90.9,189.3,89.5,189.3,87.8
			L189.3,87.8z"/>
		<path class="st3" d="M86.7,141.8v-15.2c0-1.7,1.4-3.1,3.1-3.1H105c1.7,0,3.1,1.4,3.1,3.1v15.2c0,1.7-1.4,3.1-3.1,3.1H89.9
			C88.1,144.9,86.7,143.5,86.7,141.8z M257,131.4H116c-1.8,0-3.2-1.4-3.2-3.2l0,0l0,0c0-1.8,1.4-3.2,3.2-3.2c0,0,0,0,0,0h141
			c1.8,0,3.2,1.4,3.2,3.2l0,0C260.2,130,258.7,131.4,257,131.4z M189.3,140.2L189.3,140.2c0-1.8-1.4-3.2-3.2-3.2H116
			c-1.8,0-3.2,1.5-3.2,3.2l0,0c0,1.8,1.4,3.2,3.2,3.2l0,0h70.1C187.9,143.4,189.3,141.9,189.3,140.2L189.3,140.2z"/>
		<path class="st3" d="M85.8,194.2V179c0-1.7,1.4-3.1,3.1-3.1l0,0h15.2c1.7,0,3.1,1.4,3.1,3.1l0,0v15.2c0,1.7-1.4,3.1-3.1,3.1l0,0
			H88.9C87.1,197.3,85.8,195.9,85.8,194.2L85.8,194.2z M261.9,183.8h-141c-1.8,0-3.2-1.4-3.2-3.2l0,0l0,0c0-1.8,1.4-3.2,3.2-3.2h141
			c1.8,0,3.2,1.5,3.2,3.2l0,0C265.1,182.4,263.7,183.8,261.9,183.8L261.9,183.8z M194.3,192.6L194.3,192.6c0-1.8-1.4-3.2-3.2-3.2
			c0,0,0,0,0,0h-70.1c-1.8,0-3.2,1.4-3.2,3.2l0,0l0,0c0,1.8,1.4,3.2,3.2,3.2h70.1C192.8,195.8,194.2,194.3,194.3,192.6L194.3,192.6z
			"/>
		<path class="st3" d="M86.1,246.5v-15.2c0-1.7,1.4-3.1,3.1-3.1c0,0,0,0,0,0h15.2c1.7,0,3.1,1.4,3.1,3.1c0,0,0,0,0,0v15.2
			c0,1.7-1.4,3.1-3.1,3.1H89.2C87.5,249.7,86.1,248.3,86.1,246.5z M262.2,236.2h-141c-1.8,0-3.2-1.5-3.2-3.2l0,0
			c0-1.8,1.4-3.2,3.2-3.2c0,0,0,0,0,0h141c1.8,0,3.2,1.4,3.2,3.2l0,0C265.4,234.8,264,236.2,262.2,236.2
			C262.2,236.2,262.2,236.2,262.2,236.2z M194.5,245L194.5,245c0-1.8-1.4-3.2-3.2-3.2l0,0h-70.1c-1.8,0-3.2,1.4-3.2,3.2l0,0l0,0
			c0,1.8,1.4,3.2,3.2,3.2c0,0,0,0,0,0h70.1C193.1,248.2,194.5,246.8,194.5,245C194.5,245,194.5,245,194.5,245z"/>
		<path class="st3" d="M88.3,295.3v-15.2c0-1.7,1.4-3.1,3.1-3.1h15.2c1.7,0,3.1,1.4,3.1,3.1v15.2c0,1.7-1.4,3.1-3.1,3.1H91.4
			C89.7,298.4,88.3,297,88.3,295.3z M258.5,284.9h-141c-1.8,0-3.2-1.4-3.2-3.2l0,0l0,0c0-1.8,1.4-3.2,3.2-3.2c0,0,0,0,0,0h141
			c1.8,0,3.2,1.4,3.2,3.2l0,0l0,0C261.7,283.5,260.3,284.9,258.5,284.9z M190.9,293.6L190.9,293.6c0-1.8-1.4-3.2-3.2-3.2h-70.1
			c-1.8,0-3.2,1.5-3.2,3.2l0,0c0,1.8,1.4,3.2,3.2,3.2l0,0h70.1C189.4,296.9,190.9,295.4,190.9,293.6L190.9,293.6z"/>
		<path id="Path_818" class="st4" d="M227.6,11.2h-41.4c0-6.2-5-11.2-11.2-11.2c-6.2,0-11.2,5-11.2,11.2h-41.4
			c-4.3,0-7.7,3.5-7.7,7.7V41c0,4.3,3.5,7.7,7.7,7.7h105.1c4.3,0,7.7-3.5,7.7-7.7V19C235.3,14.7,231.8,11.2,227.6,11.2L227.6,11.2z
			 M175,16.4c-2.8,0-5.1-2.3-5.1-5.1c0-2.8,2.3-5.1,5.1-5.1c2.8,0,5.1,2.3,5.1,5.1c0,1.4-0.5,2.7-1.5,3.6
			C177.7,15.9,176.4,16.4,175,16.4z"/>
		<path class="st2" d="M194.7,21.1c1.7,0,3,1.3,3,3s-1.3,3-3,3s-3-1.3-3-3S193,21.1,194.7,21.1z"/>
		<path class="st2" d="M155.3,21.1c1.7,0,3,1.3,3,3s-1.3,3-3,3c-1.7,0-3-1.3-3-3S153.6,21.1,155.3,21.1z"/>
		<path class="st2" d="M175,38.9c-4.1,0-7.5-1.5-8.1-3.8c-0.1-0.5,0.2-1,0.7-1.1c0.5-0.1,0.9,0.1,1.1,0.6c0.4,1.2,2.9,2.4,6.3,2.4
			s6-1.3,6.3-2.4c0.2-0.5,0.7-0.7,1.2-0.6c0.5,0.1,0.8,0.7,0.6,1.2c0,0,0,0,0,0C182.5,37.4,179.1,38.9,175,38.9z"/>
		<path id="Path_822" class="st5" d="M174.3,164.8l16.3,23.2l-66.9,47l-16.3-23.1L174.3,164.8z M210.8,160.4l-4.3-6.1
			c-3-4.3-9.5-5.4-14.3-2.5l-11.3,8l16.3,23.1l11.8-8.3C213,171.9,214.5,165.7,210.8,160.4z M90.9,240.3c-0.4,0.9-0.3,1.7,0.9,1.8
			l24.8-1.6l-16.3-23.2L90.9,240.3z"/>
		<path class="st5" d="M98.3,88.7c-0.7,0-1.3-0.2-1.8-0.7l-6.7-7.1c-0.9-1-0.9-2.6,0.1-3.5c1-0.9,2.5-0.9,3.5,0.1l5,5.3L114,68.6
			c1-0.9,2.6-0.8,3.5,0.2c0.9,1,0.8,2.6-0.2,3.5L100,88C99.5,88.5,98.9,88.7,98.3,88.7z"/>
		<path class="st5" d="M98.3,141.1c-0.7,0-1.3-0.3-1.8-0.8l-6.7-7.1c-0.9-1-0.9-2.6,0.1-3.5c1-0.9,2.6-0.9,3.5,0.1c0,0,0,0,0,0
			l5,5.3L114,121c1-1,2.5-1,3.5,0s1,2.5,0,3.5c0,0-0.1,0.1-0.2,0.1L100,140.4C99.5,140.8,98.9,141.1,98.3,141.1L98.3,141.1z"/>
		<path class="st5" d="M98.3,192.9c-0.7,0-1.3-0.3-1.8-0.8l-6.7-7.1c-0.9-1-0.9-2.6,0.1-3.5c1-0.9,2.6-0.9,3.5,0.1c0,0,0,0,0,0
			l5,5.3l15.6-14.1c1-0.9,2.6-0.8,3.5,0.2c0.9,1,0.8,2.6-0.2,3.5l0,0L100,192.2C99.5,192.7,98.9,192.9,98.3,192.9z"/>
	</g>
</g>
</svg>
