<?xml version="1.0" encoding="utf-8"?>
<!-- Generator: Adobe Illustrator 22.1.0, SVG Export Plug-In . SVG Version: 6.00 Build 0)  -->
<svg version="1.1" id="Layer_1" xmlns="http://www.w3.org/2000/svg" xmlns:xlink="http://www.w3.org/1999/xlink" x="0px" y="0px"
	 viewBox="0 0 250 350" style="enable-background:new 0 0 250 350;" xml:space="preserve">
<style type="text/css">
	.st0{fill:#2F2445;}
	.st1{fill:#E5E5E5;}
	.st2{fill:#C9C9C9;}
</style>
<g>
	<path class="st0" d="M0,327.7V47c0-12.3,10-22.3,22.4-22.3h205.2c12.3,0,22.4,10,22.4,22.3v280.7c0,12.3-10,22.3-22.4,22.3H22.4
		C10,350,0,340,0,327.7z"/>
	<path class="st1" d="M26.3,34.7h197.4c9,0,16.3,7.3,16.3,16.3v272.7c0,9-7.3,16.3-16.3,16.3H26.3c-9,0-16.3-7.3-16.3-16.3V51
		C9.9,42,17.2,34.7,26.3,34.7z"/>
	<path class="st2" d="M36.7,89.3V74.2c0-1.7,1.4-3.1,3.1-3.1c0,0,0,0,0,0H55c1.7,0,3.1,1.4,3.1,3.1l0,0v15.2c0,1.7-1.4,3.1-3.1,3.1
		c0,0,0,0,0,0H39.9C38.1,92.5,36.7,91.1,36.7,89.3L36.7,89.3z M207,78.9H66c-1.8,0-3.2-1.5-3.2-3.2l0,0c0-1.8,1.4-3.2,3.2-3.2h141
		c1.8,0,3.2,1.4,3.2,3.2l0,0C210.2,77.5,208.7,78.9,207,78.9z M139.3,87.7L139.3,87.7c0-1.8-1.4-3.2-3.2-3.2c0,0,0,0,0,0H66
		c-1.8,0-3.2,1.4-3.2,3.2c0,0,0,0,0,0l0,0c0,1.8,1.4,3.2,3.2,3.2l0,0h70.1C137.9,90.9,139.3,89.5,139.3,87.7L139.3,87.7z
		 M36.7,141.7v-15.2c0-1.7,1.4-3.1,3.1-3.1H55c1.7,0,3.1,1.4,3.1,3.1v15.2c0,1.7-1.4,3.1-3.1,3.1H39.9
		C38.1,144.8,36.7,143.4,36.7,141.7z M207,131.3H66c-1.8,0-3.2-1.4-3.2-3.2l0,0l0,0c0-1.8,1.4-3.2,3.2-3.2c0,0,0,0,0,0h141
		c1.8,0,3.2,1.4,3.2,3.2l0,0C210.2,129.9,208.7,131.3,207,131.3z M139.3,140.1L139.3,140.1c0-1.8-1.4-3.2-3.2-3.2H66
		c-1.8,0-3.2,1.5-3.2,3.2l0,0c0,1.8,1.4,3.2,3.2,3.2l0,0h70.1C137.9,143.3,139.3,141.9,139.3,140.1L139.3,140.1z M35.8,194.1v-15.2
		c0-1.7,1.4-3.1,3.1-3.1l0,0H54c1.7,0,3.1,1.4,3.1,3.1l0,0v15.2c0,1.7-1.4,3.1-3.1,3.1l0,0H38.9C37.1,197.2,35.8,195.8,35.8,194.1
		L35.8,194.1z M211.9,183.8h-141c-1.8,0-3.2-1.4-3.2-3.2l0,0l0,0c0-1.8,1.4-3.2,3.2-3.2h141c1.8,0,3.2,1.5,3.2,3.2l0,0
		C215.1,182.3,213.7,183.8,211.9,183.8L211.9,183.8z M144.3,192.5L144.3,192.5c0-1.8-1.4-3.2-3.2-3.2c0,0,0,0,0,0H70.9
		c-1.8,0-3.2,1.4-3.2,3.2l0,0l0,0c0,1.8,1.4,3.2,3.2,3.2h70.1C142.8,195.7,144.2,194.3,144.3,192.5L144.3,192.5z M36.1,246.5v-15.2
		c0-1.7,1.4-3.1,3.1-3.1c0,0,0,0,0,0h15.2c1.7,0,3.1,1.4,3.1,3.1c0,0,0,0,0,0v15.2c0,1.7-1.4,3.1-3.1,3.1H39.2
		C37.5,249.6,36.1,248.2,36.1,246.5z M212.2,236.2h-141c-1.8,0-3.2-1.5-3.2-3.2l0,0c0-1.8,1.4-3.2,3.2-3.2c0,0,0,0,0,0h141
		c1.8,0,3.2,1.4,3.2,3.2l0,0C215.4,234.7,214,236.2,212.2,236.2C212.2,236.2,212.2,236.2,212.2,236.2z M144.5,244.9L144.5,244.9
		c0-1.8-1.4-3.2-3.2-3.2l0,0H71.2c-1.8,0-3.2,1.4-3.2,3.2l0,0l0,0c0,1.8,1.4,3.2,3.2,3.2c0,0,0,0,0,0h70.1
		C143.1,248.1,144.5,246.7,144.5,244.9C144.5,244.9,144.5,244.9,144.5,244.9z M38.3,295.2V280c0-1.7,1.4-3.1,3.1-3.1h15.2
		c1.7,0,3.1,1.4,3.1,3.1v15.2c0,1.7-1.4,3.1-3.1,3.1H41.4C39.7,298.3,38.3,296.9,38.3,295.2z M208.5,284.9h-141
		c-1.8,0-3.2-1.4-3.2-3.2l0,0l0,0c0-1.8,1.4-3.2,3.2-3.2c0,0,0,0,0,0h141c1.8,0,3.2,1.4,3.2,3.2l0,0l0,0
		C211.7,283.4,210.3,284.9,208.5,284.9z M140.9,293.6L140.9,293.6c0-1.8-1.4-3.2-3.2-3.2H67.5c-1.8,0-3.2,1.5-3.2,3.2l0,0
		c0,1.8,1.4,3.2,3.2,3.2l0,0h70.1C139.4,296.8,140.9,295.4,140.9,293.6L140.9,293.6z"/>
	<path id="Path_818" class="st0" d="M177.5,11.2h-41.4C136.1,5,131.1,0,125,0c-6.2,0-11.2,5-11.2,11.2H72.4c-4.3,0-7.7,3.5-7.7,7.7
		V41c0,4.3,3.5,7.7,7.7,7.7h105.1c4.3,0,7.7-3.5,7.7-7.7V18.9C185.3,14.6,181.8,11.2,177.5,11.2L177.5,11.2z M125,16.3
		c-2.8,0-5.1-2.3-5.1-5.1c0-2.8,2.3-5.1,5.1-5.1c2.8,0,5.1,2.3,5.1,5.1c0,1.4-0.5,2.7-1.5,3.6C127.6,15.8,126.3,16.3,125,16.3z"/>
	<path class="st2" d="M144.7,21c1.7,0,3,1.3,3,3s-1.3,3-3,3s-3-1.3-3-3S143,21,144.7,21z M105.3,21c1.7,0,3,1.3,3,3s-1.3,3-3,3
		c-1.7,0-3-1.3-3-3S103.6,21,105.3,21z M125,38.9c-4.1,0-7.5-1.5-8.1-3.8c-0.1-0.5,0.2-1,0.7-1.1c0.5-0.1,0.9,0.1,1.1,0.6
		c0.3,1.2,2.9,2.4,6.3,2.4s6-1.3,6.3-2.4c0.2-0.5,0.7-0.7,1.2-0.6c0.5,0.1,0.8,0.7,0.6,1.2c0,0,0,0,0,0
		C132.5,37.3,129.1,38.9,125,38.9z"/>
	<path id="Path_822" class="st0" d="M124.3,164.8l16.3,23.2l-66.9,47l-16.3-23.1L124.3,164.8z M160.8,160.4l-4.3-6.1
		c-3-4.3-9.5-5.4-14.3-2.5l-11.3,8l16.3,23.1l11.8-8.3C163,171.8,164.5,165.6,160.8,160.4z M40.9,240.2c-0.4,0.9-0.3,1.7,0.9,1.8
		l24.8-1.6l-16.3-23.2L40.9,240.2z"/>
	<path class="st0" d="M48.3,88.6c-0.7,0-1.3-0.2-1.8-0.7l-6.7-7.1c-0.9-1-0.9-2.6,0.1-3.5c1-0.9,2.5-0.9,3.5,0.1l5,5.3L64,68.5
		c1-0.9,2.6-0.8,3.5,0.2c0.9,1,0.8,2.6-0.2,3.5L50,88C49.5,88.4,48.9,88.6,48.3,88.6z"/>
	<path class="st0" d="M48.3,141c-0.7,0-1.3-0.3-1.8-0.8l-6.7-7.1c-0.9-1-0.9-2.6,0.1-3.5c1-0.9,2.6-0.9,3.5,0.1c0,0,0,0,0,0l5,5.3
		L64,120.9c1-1,2.5-1,3.5,0s1,2.5,0,3.5c0,0-0.1,0.1-0.2,0.1L50,140.4C49.5,140.8,48.9,141,48.3,141L48.3,141z"/>
	<path class="st0" d="M48.3,192.8c-0.7,0-1.3-0.3-1.8-0.8l-6.7-7.1c-0.9-1-0.9-2.6,0.1-3.5c1-0.9,2.6-0.9,3.5,0.1c0,0,0,0,0,0l5,5.3
		L64,172.7c1-0.9,2.6-0.8,3.5,0.2c0.9,1,0.8,2.6-0.2,3.5l0,0L50,192.2C49.5,192.6,48.9,192.8,48.3,192.8z"/>
</g>
</svg>
