<?xml version="1.0" encoding="utf-8"?>
<!-- Generator: Adobe Illustrator 22.1.0, SVG Export Plug-In . SVG Version: 6.00 Build 0)  -->
<svg version="1.1" id="Layer_1" xmlns="http://www.w3.org/2000/svg" xmlns:xlink="http://www.w3.org/1999/xlink" x="0px" y="0px"
	 viewBox="0 0 20 20" style="enable-background:new 0 0 20 20;" xml:space="preserve">
<g>
	<path d="M16,9h-3.2c-0.4-1.2-1.5-2-2.8-2S7.6,7.8,7.2,9H4C3.7,9,2,8.9,2,7V6c0-1.8,1.5-2,2-2h10.2c0.4,1.2,1.5,2,2.8,2
		c1.7,0,3-1.3,3-3s-1.3-3-3-3c-1.3,0-2.4,0.8-2.8,2H4C2.4,2,0,3.1,0,6v1c0,2.9,2.4,4,4,4h3.2c0.4,1.2,1.5,2,2.8,2s2.4-0.8,2.8-2H16
		c0.3,0,2,0.1,2,2v1c0,1.8-1.5,2-2,2H5.8c-0.4-1.2-1.5-2-2.8-2c-1.7,0-3,1.3-3,3s1.3,3,3,3c1.3,0,2.4-0.8,2.8-2H16c1.6,0,4-1.1,4-4
		v-1C20,10.1,17.6,9,16,9 M17,2c0.6,0,1,0.4,1,1s-0.4,1-1,1s-1-0.4-1-1S16.4,2,17,2 M3,18c-0.6,0-1-0.4-1-1s0.4-1,1-1s1,0.4,1,1
		S3.6,18,3,18z"/>
</g>
</svg>
