<?xml version="1.0" encoding="utf-8"?>
<!-- Generator: Adobe Illustrator 22.1.0, SVG Export Plug-In . SVG Version: 6.00 Build 0)  -->
<svg version="1.1" id="Layer_1" xmlns="http://www.w3.org/2000/svg" xmlns:xlink="http://www.w3.org/1999/xlink" x="0px" y="0px"
	 viewBox="0 0 24 24" style="enable-background:new 0 0 24 24;" xml:space="preserve">
<style type="text/css">
	.st0{fill:none;}
</style>
<g>
	<path class="st0" d="M0,0h24v24H0V0z"/>
	<path d="M23.6,18.5L20.6,7c-0.1-0.5-0.5-1-0.9-1.2c-0.5-0.3-1-0.3-1.5-0.2l-2.3,0.6c0.4-0.6,0.5-1.3,0.5-2c0-1.3-0.6-2.6-1.8-3.4
		c-2-1.3-4.6-0.9-5.9,1L8.7,1.9L1.4,12.2c-1.8,2.6-1.2,6.2,1.4,8c0,0,0,0,0.1,0.1c1,0.7,2.1,1,3.3,1c0.6,0,1.2-0.1,1.8-0.3l0.4,1.5
		c0.1,0.5,0.5,1,0.9,1.2c0.3,0.2,0.7,0.3,1,0.3c0.2,0,0.3,0,0.5-0.1l11.4-3C23.3,20.7,23.9,19.6,23.6,18.5z M3.8,18.7
		c-1.1-0.8-1.7-2-1.7-3.2c0-0.8,0.2-1.6,0.7-2.2l7.2-10.3l0.1-0.1c0.5-0.7,1.3-1.1,2-1.1c0.5,0,1,0.1,1.4,0.4c0.7,0.5,1,1.2,1,2
		c0,0.5-0.1,1-0.4,1.4l-0.1,0.1l-0.9,1.2l-2.8,0.7c0.1-0.1,0.1-0.3,0.1-0.4c0-0.3-0.1-0.6-0.3-0.7C10,6.4,9.9,6.4,9.7,6.4
		c-0.3,0-0.6,0.1-0.8,0.4L7.8,8.3l-1,0.3C5.7,8.9,5,10,5.3,11.1l0.2,0.6L3.8,14c-0.1,0.1-0.1,0.1-0.1,0.2c-0.8,1.2-0.4,2.8,0.8,3.6
		c0.8,0.6,1.8,0.6,2.7,0.2l0.3,1.2C6.3,19.5,4.9,19.4,3.8,18.7z M6.6,16.2c-0.2,0.1-0.4,0.2-0.6,0.2c-0.2,0-0.3,0-0.5-0.1
		c-0.2-0.2-0.4-0.5-0.4-0.8c0-0.2,0-0.3,0.1-0.5l0.8-1.1L6.6,16.2z M7.7,14.7l-0.6-2.3l2.1-3L12,8.7L7.7,14.7z M21.8,19.6l-11.4,3
		c-0.2,0-0.3,0-0.5-0.1c-0.1-0.1-0.2-0.2-0.3-0.4l-0.5-1.8l-0.5-1.9l-0.4-1.5L14.7,8l1.7-0.5L18.5,7c0,0,0.1,0,0.1,0h0
		c0,0,0.1,0,0.1,0C18.8,7,18.9,7,19,7c0.1,0.1,0.2,0.2,0.3,0.4l3,11.4C22.4,19.2,22.2,19.5,21.8,19.6z"/>
</g>
</svg>
