<?xml version="1.0" encoding="utf-8"?>
<!-- Generator: Adobe Illustrator 22.1.0, SVG Export Plug-In . SVG Version: 6.00 Build 0)  -->
<svg version="1.1" id="Layer_1" xmlns="http://www.w3.org/2000/svg" xmlns:xlink="http://www.w3.org/1999/xlink" x="0px" y="0px"
	 viewBox="0 0 120 120" style="enable-background:new 0 0 120 120;" xml:space="preserve">

<g>
	<path fill="none" d="M120,120H0V0h120V120z"/>
	<g>
		<path fill="#194173" d="M1.5,114h5.9L7,115.4c-0.6,2.1-1.1,3.1-1.5,3.1l0,0c-4.1-0.3-4-3.7-4-4.1V114z"/>
		<path fill="#194173" d="M16,40.7L1.5,92.5l0-87c0-2.2,1.8-4,4.1-4h35.5c0.8,0,1.6,0.4,2.1,1.1l9.2,13h50.2c2.2,0,4,1.8,4.1,4l0,17.4
			H21C18.7,37,16.7,38.5,16,40.7z"/>
		<path fill="#0B2B53" d="M23.1,47.6L7.4,114H1.5l0-21.5L16,40.7c0.7-2.2,2.7-3.7,5-3.7h85.6v6.1c0,1.4-1.2,2.6-2.6,2.6H25.3l-0.2,0.1
			c-0.8,0.1-1.5,0.6-1.8,1.4l-0.1,0.3L23.1,47.6L23.1,47.6z"/>
		<path fill="#08203F" d="M41.1,3c0.3,0,0.7,0.2,0.9,0.5l8.8,12.4l0.9,1.3h1.5h49.4c1.4,0,2.5,1.1,2.6,2.5l0,23.5
			c0,0.6-0.5,1.1-1.1,1.1H25.5h-0.4l-0.4,0.1c-1.3,0.2-2.4,1.1-2.9,2.3l-0.3,0.6v0.3l-16,67.5v0.1c-0.1,0.5-0.4,1.3-0.6,1.9
			C3.6,116.8,3,116,3,114.6l0,0v-0.1L3,5.7C3,4.1,4.2,3,5.6,3H41.1 M41.1,0H5.6C2.5,0,0,2.5,0,5.5l0,108.8c0,0-0.2,5.2,5.4,5.7h0.1
			c1.7,0,2.4-2.5,2.9-4.2l16.2-67.9c0,0,0,0,0-0.1c0.1-0.3,0.4-0.5,0.8-0.5h0.1H104c2.3,0,4.1-1.8,4.1-4.1l0-23.6
			c0-3.1-2.5-5.5-5.6-5.5H53.2L44.4,1.7C43.6,0.7,42.4,0,41.1,0L41.1,0z"/>
		<g>
			<path fill="#E5E5E5" d="M5.2,118.4c-1.2,0-2.2-0.5-2.9-1.4c-0.7-0.8-1-1.8-0.8-2.9l20.4-67c0.5-1.6,1.9-2.7,3.6-2.7h89.4
				c1.5,0,3.2,1,3.6,3.7l-20.3,67.6c-0.5,1.6-1.9,2.6-3.6,2.6H5.2V118.4z"/>
			<path fill="#08203F" d="M114.9,46c1,0,1.8,0.8,2,2.1l-20.2,67.3v0.1v0.1c-0.3,0.9-1.1,1.5-2.1,1.5H5.2c-0.7,0-1.3-0.3-1.7-0.8l0,0
				l0,0c-0.4-0.4-0.5-1-0.5-1.5L23.3,48v-0.1v-0.1c0.3-1,1.1-1.6,2.1-1.6h89.5 M114.9,43H25.5c-2.3,0-4.3,1.5-5,3.7L0.1,113.8
				c-0.3,1.5,0.1,3,1.1,4.2c1,1.3,2.5,2,4.1,2h89.4c2.3,0,4.3-1.4,5-3.6l20.3-68C119.7,44.7,117.3,43,114.9,43L114.9,43z"/>
		</g>
		<path fill="#08203F" d="M84.4,73.3c1.7,0,3.1,1.3,3.1,3.1s-1.3,3.1-3.1,3.1s-3.1-1.3-3.1-3.1S82.6,73.3,84.4,73.3L84.4,73.3z
			 M41.1,73.3c1.7,0,3.1,1.3,3.1,3.1s-1.3,3.1-3.1,3.1c-1.8,0-3.1-1.3-3.1-3.1c0-0.8,0.2-1.7,0.8-2C39.5,73.5,40.3,73.3,41.1,73.3z
			 M71,95.6L71,95.6c0.1,0.6-0.1,1.1-0.7,1.2c-0.5,0.1-1.1-0.1-1.2-0.7c-0.5-1.2-3-2.5-6.4-2.5c-3.6,0-6.1,1.3-6.4,2.5l0,0
			c-0.1,0.6-0.7,0.7-1.2,0.6c-0.6-0.1-0.7-0.7-0.6-1.2c0.7-2.1,4.2-3.8,8.3-3.8C66.9,91.8,70.5,93.4,71,95.6z"/>
	</g>
</g>
</svg>
