<?xml version="1.0" encoding="utf-8"?>
<!-- Generator: Adobe Illustrator 22.1.0, SVG Export Plug-In . SVG Version: 6.00 Build 0)  -->
<svg version="1.1" id="Layer_1" xmlns="http://www.w3.org/2000/svg" xmlns:xlink="http://www.w3.org/1999/xlink" x="0px" y="0px"
	 viewBox="0 0 250 250" style="enable-background:new 0 0 250 250;" xml:space="preserve">
<style type="text/css">
	.st0{fill:none;}
	.st1{opacity:0.5;fill:#C7C7C7;enable-background:new    ;}
	.st2{fill:#717075;}
	.st3{fill:#E5E7E8;}
	.st4{fill:#918D8F;}
	.st5{fill:#525254;}
	.st6{fill:#CBCBCB;}
	.st7{fill:#F2F2F2;}
	.st8{fill:#512DA8;}
	.st9{fill:#311B92;}
	.st10{fill:#F9F9F9;}
	.st11{fill:#8559DA;}
	.st12{fill:#5D5D61;}
	.st13{fill:#515154;}
</style>
<g>
	<path class="st0" d="M0,0h250v250H0V0z"/>
	<path class="st1" d="M47.8,40.7c28.3-24.3,91.9-47.4,137.8-39c65,12,66.5,80,44.7,110.4c-26.1,36.6-63.2,27.4-81.5,44.9
		c-18.1,17.3-20.5,93.9-70.1,93c-42.8-0.7-65.3-44.6-70.4-84.7C2.1,114.8,18.5,65.8,47.8,40.7z"/>
	<g>
		<path class="st2" d="M220,35v137.2c-21.5,5.3-56,8.8-95,8.8s-73.5-3.5-95-8.8V35H220z"/>
		<path class="st3" d="M220,164.2V215h-80.7v-42.1C172.4,172.1,201.2,168.9,220,164.2z"/>
		<path class="st4" d="M139.3,172.9V215H30v-50.8c21.5,5.3,56,8.8,95,8.8C129.8,173,134.6,173,139.3,172.9z"/>
		<path class="st4" d="M163.3,194.7h40v5h-40V194.7z"/>
		<path class="st5" d="M164.9,196.3h37v1.9h-37V196.3z"/>
		<path class="st4" d="M163.3,180.9h40v5h-40V180.9z"/>
		<path class="st5" d="M164.9,182.5h37v1.9h-37V182.5z"/>
		<path class="st6" d="M41.9,188.2h85.6v10.1H41.9V188.2z"/>
		<path class="st5" d="M45.1,191.4h79.1v3.8H45.1V191.4z"/>
		<path class="st7" d="M160.5,197.2c0,1.7-1.3,3-3,3s-3-1.3-3-3s1.3-3,3-3S160.5,195.6,160.5,197.2z"/>
		<path class="st8" d="M159.8,197.2c0,1.3-1,2.3-2.3,2.3s-2.3-1-2.3-2.3s1-2.3,2.3-2.3S159.8,195.9,159.8,197.2z"/>
		<path class="st7" d="M160.5,183.4c0,1.7-1.3,3-3,3s-3-1.3-3-3s1.3-3,3-3S160.5,181.8,160.5,183.4z"/>
		<path class="st4" d="M159.8,183.4c0,1.3-1,2.3-2.3,2.3s-2.3-1-2.3-2.3s1-2.3,2.3-2.3S159.8,182.1,159.8,183.4z"/>
		<path class="st9" d="M165.4,197.2h35.8v12.3c0,1.7-1.3,3-3,3h-29.8c-1.7,0-3-1.3-3-3V197.2z"/>
		<path class="st8" d="M165.4,197.2h35.8v11c0,1.7-1.3,3-3,3h-29.8c-1.7,0-3-1.3-3-3V197.2z"/>
		<path class="st10" d="M174.2,203.2h3.9v4.8h-3.9V203.2z"/>
		<path class="st10" d="M174.2,197.6h3.9v4.8h-3.9V197.6z"/>
		<path class="st3" d="M190.8,201.7c2.9,0,5.2,0.9,5.2,1.9c0,1.1-2.3,1.9-5.2,1.9s-5.2-0.9-5.2-1.9
			C185.6,202.6,187.9,201.7,190.8,201.7z"/>
		<path class="st11" d="M190.8,204.1c2.9,0,5.2,0.9,5.2,1.9c0,1.1-2.3,1.9-5.2,1.9s-5.2-0.9-5.2-1.9
			C185.6,204.9,187.9,204.1,190.8,204.1z"/>
		<path class="st12" d="M51,156.2v-99c0-2.5,2-4.5,4.5-4.5h139c2.5,0,4.5,2,4.5,4.5v99c0,2.5-2,4.5-4.5,4.5h-139
			C53,160.7,51,158.7,51,156.2z"/>
		<path class="st5" d="M55,152.5V60.8c0-2.3,1.9-4.2,4.2-4.2h131.7c2.3,0,4.2,1.9,4.2,4.2v91.7c0,2.3-1.9,4.2-4.2,4.2H59.2
			C56.9,156.7,55,154.8,55,152.5z"/>
		<path class="st3" d="M58,152.2v-91c0-0.8,0.7-1.5,1.5-1.5h131c0.8,0,1.5,0.7,1.5,1.5v91c0,0.8-0.7,1.5-1.5,1.5h-131
			C58.7,153.7,58,153,58,152.2z"/>
		<path class="st5" d="M45.1,102.2h-8.8c-0.7,0-1.4-0.6-1.4-1.4v-5.5c0-0.7,0.6-1.4,1.4-1.4h8.8c0.7,0,1.4,0.6,1.4,1.4v5.5
			C46.5,101.6,45.9,102.2,45.1,102.2z"/>
		<path class="st7" d="M44.5,100.8H37c-0.7,0-1.4-0.6-1.4-1.4v-6c0-0.7,0.6-1.4,1.4-1.4h7.5c0.7,0,1.4,0.6,1.4,1.4v6
			C45.9,100.2,45.3,100.8,44.5,100.8z"/>
		<path class="st13" d="M46.5,97.2h5l4.9,0.8v1l-5-0.8h-5L46.5,97.2L46.5,97.2z"/>
		<path class="st4" d="M46.5,96.4h5l4.9,0.8v1l-5-0.8h-5L46.5,96.4L46.5,96.4z"/>
		<path class="st5" d="M45.1,118h-8.8c-0.7,0-1.4-0.6-1.4-1.4v-5.5c0-0.7,0.6-1.4,1.4-1.4h8.8c0.7,0,1.4,0.6,1.4,1.4v5.5
			C46.5,117.4,45.9,118,45.1,118z"/>
		<path class="st7" d="M44.5,116.6H37c-0.7,0-1.4-0.6-1.4-1.4v-6c0-0.7,0.6-1.4,1.4-1.4h7.5c0.7,0,1.4,0.6,1.4,1.4v6
			C45.9,116,45.3,116.6,44.5,116.6z"/>
		<path class="st13" d="M46.5,113h5l4.9,0.8v1l-5-0.8h-5L46.5,113L46.5,113z"/>
		<path class="st4" d="M46.5,112.2h5l4.9,0.8v1l-5-0.8h-5L46.5,112.2L46.5,112.2z"/>
		<path class="st5" d="M45.1,133.8h-8.8c-0.7,0-1.4-0.6-1.4-1.4V127c0-0.7,0.6-1.4,1.4-1.4h8.8c0.7,0,1.4,0.6,1.4,1.4v5.5
			C46.5,133.2,45.9,133.8,45.1,133.8z"/>
		<path class="st7" d="M44.5,132.4H37c-0.7,0-1.4-0.6-1.4-1.4v-6c0-0.7,0.6-1.4,1.4-1.4h7.5c0.7,0,1.4,0.6,1.4,1.4v6
			C45.9,131.8,45.3,132.4,44.5,132.4z"/>
		<path class="st13" d="M46.5,128.8h5l4.9,0.8v1l-5-0.8h-5L46.5,128.8L46.5,128.8z"/>
		<path class="st4" d="M46.5,128.1h5l4.9,0.8v1l-5-0.8h-5L46.5,128.1L46.5,128.1z"/>
		<path class="st5" d="M45.1,149.7h-8.8c-0.7,0-1.4-0.6-1.4-1.4v-5.5c0-0.7,0.6-1.4,1.4-1.4h8.8c0.7,0,1.4,0.6,1.4,1.4v5.5
			C46.5,149.1,45.9,149.7,45.1,149.7z"/>
		<path class="st7" d="M44.5,148.3H37c-0.7,0-1.4-0.6-1.4-1.4v-6c0-0.7,0.6-1.4,1.4-1.4h7.5c0.7,0,1.4,0.6,1.4,1.4v6
			C45.9,147.7,45.3,148.3,44.5,148.3z"/>
		<path class="st13" d="M46.5,144.7h5l4.9,0.8v1l-5-0.8h-5L46.5,144.7L46.5,144.7z"/>
		<path class="st4" d="M46.5,143.9h5l4.9,0.8v1l-5-0.8h-5L46.5,143.9L46.5,143.9z"/>
		<path class="st5" d="M204.7,94h8.8c0.7,0,1.4,0.6,1.4,1.4v5.5c0,0.7-0.6,1.4-1.4,1.4h-8.8c-0.7,0-1.4-0.6-1.4-1.4v-5.5
			C203.3,94.6,203.9,94,204.7,94z"/>
		<path class="st11" d="M205.3,92h7.5c0.7,0,1.4,0.6,1.4,1.4v6c0,0.7-0.6,1.4-1.4,1.4h-7.5c-0.7,0-1.4-0.6-1.4-1.4v-6
			C203.9,92.6,204.5,92,205.3,92z"/>
		<path class="st13" d="M203.3,98.2h-5l-5,0.8v-1l4.9-0.8h5v1H203.3z"/>
		<path class="st4" d="M203.3,97.4h-5l-5,0.8v-1l4.9-0.8h5v1H203.3z"/>
		<path class="st5" d="M204.7,109.8h8.8c0.7,0,1.4,0.6,1.4,1.4v5.5c0,0.7-0.6,1.4-1.4,1.4h-8.8c-0.7,0-1.4-0.6-1.4-1.4v-5.5
			C203.3,110.4,203.9,109.8,204.7,109.8z"/>
		<path class="st11" d="M205.3,107.8h7.5c0.7,0,1.4,0.6,1.4,1.4v6c0,0.7-0.6,1.4-1.4,1.4h-7.5c-0.7,0-1.4-0.6-1.4-1.4v-6
			C203.9,108.5,204.5,107.8,205.3,107.8z"/>
		<path class="st13" d="M203.3,114h-5l-5,0.8v-1l4.9-0.8h5v1H203.3z"/>
		<path class="st4" d="M203.3,113.3h-5l-5,0.8v-1l4.9-0.8h5v1H203.3z"/>
		<path class="st5" d="M204.7,125.6h8.8c0.7,0,1.4,0.6,1.4,1.4v5.5c0,0.7-0.6,1.4-1.4,1.4h-8.8c-0.7,0-1.4-0.6-1.4-1.4V127
			C203.3,126.2,203.9,125.6,204.7,125.6z"/>
		<path class="st7" d="M205.3,123.7h7.5c0.7,0,1.4,0.6,1.4,1.4v6c0,0.7-0.6,1.4-1.4,1.4h-7.5c-0.7,0-1.4-0.6-1.4-1.4v-6
			C203.9,124.3,204.5,123.7,205.3,123.7z"/>
		<path class="st13" d="M203.3,129.8h-5l-5,0.8v-1l4.9-0.8h5v1H203.3z"/>
		<path class="st4" d="M203.3,129.1h-5l-5,0.8v-1l4.9-0.8h5v1H203.3z"/>
		<path class="st5" d="M204.7,141.5h8.8c0.7,0,1.4,0.6,1.4,1.4v5.5c0,0.7-0.6,1.4-1.4,1.4h-8.8c-0.7,0-1.4-0.6-1.4-1.4v-5.5
			C203.3,142.1,203.9,141.5,204.7,141.5z"/>
		<path class="st7" d="M205.3,139.5h7.5c0.7,0,1.4,0.6,1.4,1.4v6c0,0.7-0.6,1.4-1.4,1.4h-7.5c-0.7,0-1.4-0.6-1.4-1.4v-6
			C203.9,140.1,204.5,139.5,205.3,139.5z"/>
		<path class="st13" d="M203.3,145.7h-5l-5,0.8v-1l4.9-0.8h5v1H203.3z"/>
		<path class="st4" d="M203.3,144.9h-5l-5,0.8v-1l4.9-0.8h5v1H203.3z"/>
	</g>
	<g>
		<g>
			<path d="M79.3,99.6c-0.6,0-1.1,0-1.5-0.1s-0.8-0.1-1.1-0.3c-0.6-0.2-1.1-0.6-1.3-1.1l0,0c-0.1-0.3-0.2-0.5-0.2-0.8
				c0-0.1,0-0.3,0-0.4c0-0.2,0.1-0.3,0.1-0.5c0-0.1,0.1-0.2,0.1-0.2c0-0.1,0.1-0.1,0.1-0.2s0.1-0.1,0.1-0.2s0.1-0.1,0.1-0.2l0.8,0.7
				c0,0.1-0.1,0.2-0.2,0.3c-0.1,0.1-0.1,0.2-0.2,0.4c0,0.1-0.1,0.3-0.1,0.4s0,0.2,0,0.3c0.1,0.1,0.2,0.2,0.4,0.3s0.4,0.2,0.7,0.3
				c0.3,0.1,0.6,0.1,0.9,0.2c0.3,0,0.7,0.1,1.1,0.1c0.2,0,0.4,0,0.6,0s0.4,0,0.6-0.1c0.2,0,0.4,0,0.6-0.1c0.2,0,0.4-0.1,0.5-0.1
				c0.2,0,0.3-0.1,0.4-0.1s0.2-0.1,0.3-0.1h-0.4c-0.2,0-0.3,0-0.5,0S80.9,98,80.8,98s-0.3-0.1-0.4-0.2s-0.2-0.2-0.3-0.3
				c-0.1-0.1-0.1-0.2-0.2-0.4c-0.1-0.2-0.1-0.3-0.1-0.6c0-0.1,0-0.2,0-0.3c0-0.2,0.1-0.4,0.2-0.6s0.2-0.4,0.3-0.5l0,0
				c0.1-0.2,0.3-0.3,0.5-0.4s0.4-0.1,0.6-0.1s0.4,0.1,0.6,0.2s0.4,0.2,0.5,0.4c0.1,0.1,0.2,0.3,0.3,0.5s0.2,0.4,0.2,0.6
				c0.1,0.2,0.1,0.4,0.2,0.6c0,0.2,0.1,0.4,0.1,0.6c0,0.1,0,0.1,0,0.2s0,0.1,0,0.2c0,0.3-0.1,0.5-0.2,0.7s-0.3,0.4-0.5,0.5
				s-0.4,0.3-0.7,0.4c-0.3,0.1-0.5,0.2-0.8,0.2s-0.6,0.1-0.9,0.1C79.8,99.6,79.6,99.6,79.3,99.6z M82.3,93.1L81.4,94l-0.8-0.8
				l0.8-0.8L82.3,93.1z M81.4,95.6c-0.1,0-0.1,0-0.2,0s-0.1,0.1-0.2,0.1c-0.1,0.1-0.1,0.1-0.2,0.2s-0.1,0.2-0.1,0.3s0,0.2,0,0.3
				s0,0.2,0.1,0.3l0.1,0.1c0.1,0,0.1,0,0.2,0.1s0.2,0,0.2,0c0.1,0,0.2,0,0.2,0c0.1,0,0.2,0,0.4,0s0.2,0,0.3,0c0-0.1-0.1-0.2-0.1-0.4
				c0-0.2-0.1-0.3-0.2-0.5c-0.1-0.1-0.2-0.3-0.3-0.4C81.7,95.7,81.5,95.6,81.4,95.6z"/>
			<path d="M87.1,99.6L87.1,99.6c-0.2,0-0.2,0-0.3,0s-0.1,0-0.2-0.1c-0.1,0-0.1-0.1-0.2-0.1c0,0.4-0.1,0.7-0.3,1.1
				c-0.2,0.3-0.4,0.6-0.7,0.9c-0.3,0.3-0.6,0.6-0.9,0.8c-0.3,0.2-0.7,0.5-1.1,0.6l-0.5-1c0.2-0.1,0.4-0.2,0.6-0.3
				c0.2-0.1,0.4-0.3,0.6-0.4s0.4-0.3,0.5-0.4c0.2-0.2,0.3-0.3,0.4-0.5s0.2-0.3,0.3-0.5s0.1-0.4,0.1-0.5c0,0,0,0,0-0.1c0,0,0,0,0-0.1
				l0,0c0-0.2-0.1-0.3-0.1-0.5s-0.1-0.3-0.2-0.5s-0.1-0.3-0.2-0.4s-0.1-0.3-0.1-0.4l1-0.4c0.1,0.3,0.2,0.6,0.3,0.8
				c0.1,0.2,0.2,0.4,0.3,0.5s0.2,0.2,0.3,0.3c0.1,0.1,0.2,0.1,0.4,0.1l0,0c0.1,0,0.2,0,0.2,0s0.1,0.1,0.2,0.1
				c0.1,0.1,0.1,0.1,0.1,0.2s0,0.1,0,0.2s0,0.2,0,0.2c0,0.1-0.1,0.1-0.1,0.2s-0.1,0.1-0.2,0.1C87.2,99.6,87.1,99.6,87.1,99.6z"/>
			<path d="M86.5,99.1c0-0.1,0-0.2,0-0.2c0-0.1,0.1-0.1,0.1-0.2c0.1-0.1,0.1-0.1,0.2-0.1s0.1,0,0.2,0l0,0c0.3,0,0.5,0,0.6-0.1l0,0
				c0.1,0,0.1-0.1,0.2-0.1c0,0,0.1-0.1,0.1-0.2c0.1-0.1,0.2-0.3,0.2-0.5c0.1-0.2,0.1-0.4,0.2-0.6l0,0c0-0.1,0.1-0.2,0.1-0.3
				c0-0.1,0.1-0.2,0.1-0.3l1,0.3c0,0.1-0.1,0.1-0.1,0.2s0,0.1-0.1,0.2c0,0.1,0,0.1,0,0.2s0,0.1,0,0.2s0,0.2,0.1,0.3s0.1,0.2,0.1,0.3
				c0.1-0.1,0.1-0.2,0.2-0.3c0.1-0.1,0.2-0.3,0.3-0.4s0.2-0.3,0.3-0.4c0.1-0.1,0.2-0.3,0.4-0.4c0.3-0.3,0.6-0.5,0.9-0.6
				c0.3-0.2,0.6-0.3,1-0.3c0.2,0,0.3,0,0.5,0c0.3,0,0.6,0.1,0.8,0.2s0.5,0.3,0.7,0.5l0,0c0.2,0.2,0.3,0.4,0.4,0.6s0.1,0.5,0.1,0.7
				c0,0.4-0.2,0.7-0.4,1h0.7c0.1,0,0.2,0,0.2,0c0.1,0,0.1,0.1,0.2,0.1c0.1,0.1,0.1,0.1,0.1,0.2s0,0.1,0,0.2s0,0.2,0,0.2
				c0,0.1-0.1,0.1-0.1,0.2s-0.1,0.1-0.2,0.1s-0.1,0-0.2,0h-1.1c-0.3,0-0.6,0-0.8,0c-0.2,0-0.4-0.1-0.5-0.1c-0.3,0.1-0.6,0.1-0.9,0.2
				c-0.3,0-0.6,0-0.9,0c-0.2,0-0.4,0-0.6,0s-0.3,0-0.4,0c0,0,0,0-0.1,0l0,0c-0.1,0-0.3,0-0.4-0.1c-0.1,0-0.2-0.1-0.3-0.1l0,0
				c-0.1-0.1-0.3-0.1-0.4-0.2s-0.2-0.2-0.3-0.3l0,0l0,0c-0.1,0.1-0.2,0.2-0.3,0.3c-0.1,0.1-0.2,0.1-0.3,0.2l0,0
				c-0.3,0.1-0.7,0.2-1.2,0.2c-0.1,0-0.2,0-0.2,0c-0.1,0-0.1-0.1-0.2-0.1s-0.1-0.1-0.1-0.2C86.5,99.2,86.5,99.2,86.5,99.1z
				 M91.4,97.4c-0.1,0.1-0.2,0.2-0.3,0.3c-0.1,0.1-0.2,0.2-0.3,0.3c-0.1,0.1-0.1,0.2-0.2,0.3c-0.1,0.1-0.1,0.2-0.2,0.3
				c0.2,0,0.5,0,0.7,0.1s0.5,0,0.8,0s0.5-0.1,0.8-0.1c0.2-0.1,0.5-0.1,0.7-0.2s0.4-0.2,0.5-0.3s0.2-0.3,0.2-0.5
				c0-0.1-0.1-0.3-0.2-0.4s-0.2-0.2-0.3-0.3c-0.1-0.1-0.3-0.1-0.4-0.1s-0.3,0-0.4,0s-0.2,0-0.4,0.1S92.1,97,92,97c0,0-0.2,0-0.3,0.1
				C91.6,97.2,91.5,97.3,91.4,97.4z"/>
			<path d="M94.9,99.1c0-0.1,0-0.1,0-0.2s0.1-0.1,0.1-0.2s0.1-0.1,0.2-0.1s0.1,0,0.2,0c0.2,0,0.4,0,0.6-0.1s0.3-0.2,0.4-0.3
				c0.1-0.1,0.2-0.3,0.3-0.4c0.1-0.2,0.2-0.3,0.3-0.5c0.1-0.2,0.2-0.3,0.2-0.5c0.1-0.2,0.2-0.3,0.3-0.4c0.1-0.2,0.3-0.3,0.5-0.4
				s0.4-0.1,0.6-0.1s0.5,0,0.7,0.1s0.4,0.2,0.5,0.4c0.1,0.1,0.2,0.3,0.3,0.5c0.1,0.2,0.1,0.4,0.1,0.6l0,0c0,0.1,0,0.2,0,0.4
				c0,0.1,0,0.3,0,0.4s-0.1,0.3-0.1,0.4c-0.1,0.2-0.2,0.4-0.4,0.6s-0.3,0.3-0.5,0.3c-0.1,0-0.1,0-0.2,0s-0.1,0-0.2,0s-0.3,0-0.4,0
				s-0.3-0.1-0.4-0.1s-0.1-0.1-0.2-0.1s-0.2-0.1-0.2-0.1c-0.1,0-0.2-0.1-0.2-0.1c-0.1,0-0.1-0.1-0.2-0.1c-0.1,0.1-0.2,0.2-0.4,0.3
				c-0.1,0.1-0.3,0.2-0.4,0.2s-0.3,0.1-0.4,0.1s-0.3,0-0.5,0c-0.1,0-0.2,0-0.2,0c-0.1,0-0.1-0.1-0.2-0.1c0-0.1-0.1-0.1-0.1-0.2
				C94.9,99.2,94.9,99.2,94.9,99.1z M97.7,98c0.1,0.1,0.2,0.1,0.3,0.2c0.1,0.1,0.2,0.1,0.4,0.2c0.1,0,0.2,0.1,0.3,0.1
				c0.1,0,0.2,0,0.2,0H99c0,0,0.1,0,0.1-0.1s0.1-0.1,0.1-0.1c0-0.1,0-0.1,0.1-0.2c0-0.1,0-0.1,0-0.2c0,0,0-0.1,0-0.2s0-0.1-0.1-0.2
				c0-0.1-0.1-0.2-0.1-0.2c0-0.1-0.1-0.1-0.2-0.2s-0.1-0.1-0.2-0.2c-0.1,0-0.2-0.1-0.3-0.1c-0.1,0-0.2,0.1-0.2,0.2s-0.2,0.3-0.3,0.6
				L97.7,98z"/>
			<path d="M102.8,96.8c0.1,0.3,0.2,0.6,0.3,0.8c0,0.1,0.1,0.2,0.1,0.4c0,0.1,0.1,0.3,0.1,0.4s0,0.3,0.1,0.4s0,0.3,0,0.4
				c0,0.3,0,0.5-0.1,0.8c-0.1,0.2-0.2,0.5-0.3,0.7c-0.1,0.2-0.3,0.4-0.5,0.7c-0.2,0.2-0.4,0.4-0.6,0.6s-0.5,0.4-0.7,0.5
				c-0.3,0.2-0.5,0.3-0.8,0.4l-0.5-1c0.2-0.1,0.4-0.2,0.6-0.3c0.2-0.1,0.4-0.3,0.6-0.4s0.3-0.3,0.5-0.4c0.2-0.2,0.3-0.3,0.4-0.5
				s0.2-0.3,0.3-0.5c0.1-0.2,0.1-0.3,0.1-0.5s0-0.3-0.1-0.5c0-0.2-0.1-0.4-0.1-0.5c-0.1-0.2-0.1-0.4-0.2-0.5
				c-0.1-0.2-0.1-0.3-0.1-0.4L102.8,96.8z"/>
			<path d="M106.2,99.6c-0.3,0-0.6,0-0.9-0.1c-0.2-0.1-0.4-0.2-0.6-0.4c-0.1-0.1-0.2-0.2-0.2-0.3s-0.1-0.2-0.1-0.4
				c0-0.1,0-0.2,0-0.3c0-0.1,0-0.2,0-0.3c0-0.1,0-0.2,0-0.5c0-0.2,0-0.5,0-0.8c0-0.2,0-0.4,0-0.6s0-0.4,0-0.6s0-0.4,0-0.6
				s0-0.4,0-0.6s0-0.4,0-0.6s0-0.3-0.1-0.5l1.1-0.3c0,0.2,0.1,0.4,0.1,0.6s0,0.5,0.1,0.8s0,0.5,0,0.8s0,0.5,0,0.8c0,0.1,0,0.2,0,0.2
				c0,0.1,0,0.2,0,0.3c0,0.1,0,0.2,0,0.2c0,0.1,0,0.1,0,0.2s0,0.2,0,0.3c0,0.1,0,0.2,0,0.3c0,0.1,0,0.2,0,0.3c0,0.1,0,0.2,0,0.3
				c0,0.1,0,0.2,0,0.3c0,0.1,0,0.2,0.1,0.2c0.1,0.1,0.3,0.2,0.6,0.2l0,0c0.1,0,0.1,0,0.2,0s0.1,0.1,0.2,0.1c0.1,0.1,0.1,0.1,0.1,0.2
				s0,0.1,0,0.2s0,0.2,0,0.2c0,0.1-0.1,0.1-0.1,0.2s-0.1,0.1-0.2,0.1C106.4,99.6,106.3,99.6,106.2,99.6z"/>
			<path d="M105.6,99.1c0-0.1,0-0.2,0-0.2c0-0.1,0.1-0.1,0.1-0.2s0.1-0.1,0.2-0.1s0.1,0,0.2,0h0.1c0.4,0,0.8-0.1,1-0.2
				c0.2-0.2,0.3-0.4,0.3-0.7c0-0.1,0-0.2,0-0.2c0-0.1,0-0.1-0.1-0.2c0-0.1,0-0.2-0.1-0.3c0-0.1-0.1-0.2-0.1-0.3l1.1-0.3
				c0.1,0.2,0.1,0.4,0.1,0.6s0.1,0.5,0.1,0.7c0,0.1,0,0.2,0,0.3s0,0.2,0.1,0.3s0.1,0.2,0.2,0.2c0.1,0.1,0.2,0.1,0.3,0.1
				c0.1,0,0.1,0,0.2,0s0.1,0.1,0.2,0.1c0.1,0.1,0.1,0.1,0.1,0.2s0,0.1,0,0.2s0,0.2,0,0.2c0,0.1-0.1,0.1-0.1,0.2s-0.1,0.1-0.2,0.1
				s-0.1,0-0.2,0c-0.3,0-0.5,0-0.7-0.1s-0.4-0.2-0.5-0.4c-0.4,0.3-1,0.5-1.8,0.5H106c-0.1,0-0.2,0-0.2,0s-0.1-0.1-0.2-0.1
				c0,0-0.1-0.1-0.1-0.2C105.7,99.2,105.6,99.2,105.6,99.1z M108.7,101.1l-0.8,0.8l-0.8-0.8l0.8-0.8L108.7,101.1z"/>
			<path d="M108.8,99.1c0-0.1,0-0.2,0-0.2c0-0.1,0.1-0.1,0.1-0.2s0.1-0.1,0.2-0.1s0.1,0,0.2,0l0,0h1.4c0.1,0,0.2,0,0.3-0.1
				s0.2-0.1,0.3-0.2c0.1-0.1,0.2-0.1,0.2-0.2s0.1-0.2,0.1-0.3c0-0.2,0-0.3-0.1-0.5c0-0.2-0.1-0.3-0.2-0.5s-0.2-0.3-0.3-0.5
				c-0.1-0.2-0.3-0.3-0.4-0.5s-0.3-0.3-0.4-0.4s-0.3-0.3-0.4-0.4l0.1-1.2l3.8-1.6l0.4,1l-3.3,1.3c0.2,0.2,0.4,0.4,0.6,0.6
				s0.3,0.4,0.5,0.6c0.1,0.2,0.3,0.4,0.4,0.6s0.2,0.4,0.3,0.6l0,0c0.1,0.1,0.1,0.3,0.2,0.4s0.2,0.3,0.2,0.4l0,0
				c0.1,0.1,0.2,0.2,0.3,0.4c0.1,0.1,0.2,0.2,0.3,0.3c0.1,0.1,0.2,0.1,0.3,0.2s0.3,0.1,0.4,0.1l0,0h0.2c0.1,0,0.2,0,0.2,0
				c0.1,0,0.1,0.1,0.2,0.1c0,0.1,0.1,0.1,0.1,0.2s0,0.1,0,0.2s0,0.2,0,0.2c0,0.1-0.1,0.1-0.1,0.2c0,0-0.1,0.1-0.2,0.1s-0.1,0-0.2,0
				l0,0c-0.2,0-0.4,0-0.6,0s-0.3-0.1-0.5-0.1c-0.2-0.1-0.4-0.2-0.5-0.3c-0.2-0.1-0.3-0.3-0.4-0.4c-0.1,0.1-0.2,0.2-0.3,0.4
				c-0.1,0.1-0.2,0.2-0.3,0.2c-0.1,0.1-0.2,0.1-0.4,0.1s-0.2,0.1-0.4,0.1c-0.1,0-0.3,0-0.4,0h-1.4c-0.1,0-0.1,0-0.2,0
				s-0.1-0.1-0.2-0.1s-0.1-0.1-0.1-0.2C108.8,99.2,108.8,99.2,108.8,99.1z"/>
			<path d="M113.6,99.1c0-0.1,0-0.2,0-0.2c0-0.1,0.1-0.1,0.1-0.2s0.1-0.1,0.2-0.1s0.1,0,0.2,0h0.5h0.2c0.1,0,0.3,0,0.5,0
				s0.3,0,0.5-0.1c0.1,0,0.3-0.1,0.4-0.1c0.1-0.1,0.2-0.1,0.3-0.2c0-0.1,0.1-0.1,0.1-0.3c0-0.1,0-0.2,0-0.4s-0.1-0.3-0.1-0.4
				s-0.1-0.3-0.2-0.4s-0.1-0.3-0.2-0.4S116,96.1,116,96l1-0.5c0.1,0.1,0.2,0.3,0.2,0.5c0.1,0.2,0.1,0.4,0.2,0.6s0.1,0.4,0.1,0.6
				s0.1,0.4,0.1,0.5c0,0.3,0,0.5-0.1,0.8s-0.3,0.5-0.5,0.6c-0.2,0.2-0.4,0.3-0.7,0.4c-0.1,0-0.2,0-0.3,0.1c-0.1,0-0.3,0-0.4,0
				s-0.3,0-0.4,0s-0.2,0-0.3,0h-0.6l0,0c-0.1,0-0.2,0-0.2,0c-0.1,0-0.1-0.1-0.2-0.1s-0.1-0.1-0.1-0.2
				C113.6,99.2,113.6,99.2,113.6,99.1z M116,101l-0.7,0.7l-0.7-0.7l0.7-0.7L116,101z M117.6,101l-0.7,0.7l-0.7-0.7l0.7-0.7
				L117.6,101z"/>
			<path d="M119.9,98.1c-0.1,0.1-0.2,0.3-0.2,0.4c-0.1,0.1-0.1,0.3-0.2,0.5c0,0.2-0.1,0.5-0.1,0.8c0,0.2,0,0.3,0.1,0.5
				c0.1,0.1,0.1,0.3,0.2,0.4s0.2,0.2,0.3,0.3c0.1,0.1,0.2,0.1,0.3,0.2c0.1,0.1,0.2,0.1,0.4,0.1c0.1,0,0.2,0,0.3,0c0,0,0,0,0.1,0
				c0,0,0,0,0.1,0c0.2,0,0.4,0,0.6-0.1s0.4-0.2,0.6-0.3c0.2-0.1,0.3-0.3,0.5-0.6s0.2-0.5,0.2-0.8c0-0.2,0-0.5,0-0.8s0-0.6,0-1
				c0-0.3,0-0.7,0-1.1s0-0.7-0.1-1.1c0-0.8-0.1-1.7-0.1-2.6l1.1-0.2c0,0.9,0.1,1.8,0.1,2.7c0,0.4,0,0.7,0,1.1s0,0.8,0,1.1
				c0,0.4,0,0.7,0,1s0,0.6,0,0.8c0,0.4,0,0.7-0.1,1s-0.2,0.5-0.4,0.8c-0.2,0.2-0.3,0.4-0.5,0.5c-0.2,0.2-0.4,0.3-0.6,0.4
				s-0.4,0.2-0.7,0.2s-0.4,0.1-0.6,0.1h-0.1H121c-0.2,0-0.4,0-0.6-0.1s-0.4-0.1-0.6-0.2s-0.4-0.2-0.5-0.3c-0.2-0.1-0.3-0.3-0.5-0.5
				s-0.2-0.4-0.3-0.6c-0.1-0.2-0.1-0.5-0.1-0.8c0-0.4,0-0.7,0.1-1s0.1-0.5,0.2-0.7s0.2-0.4,0.3-0.5L119.9,98.1z"/>
			<path d="M125,101.6c0.4-0.1,0.8-0.2,1.2-0.3s0.6-0.3,0.9-0.5s0.5-0.4,0.6-0.6s0.3-0.4,0.3-0.6c-0.1,0-0.1,0-0.2,0s-0.2,0-0.2,0
				h-0.2c0,0-0.1,0-0.2,0c-0.3,0-0.6-0.1-0.9-0.2s-0.5-0.3-0.6-0.5c-0.1-0.1-0.2-0.3-0.2-0.5s-0.1-0.4-0.1-0.5s0-0.3,0-0.4
				c0-0.2,0.1-0.3,0.1-0.4c0.1-0.1,0.1-0.3,0.2-0.4s0.1-0.2,0.2-0.3c0.2-0.2,0.3-0.4,0.5-0.5s0.4-0.2,0.6-0.2c0.4,0,0.9,0.2,1.2,0.6
				c0.1,0.1,0.3,0.3,0.4,0.5c0.1,0.2,0.2,0.4,0.3,0.6s0.1,0.4,0.2,0.7s0.1,0.5,0.1,0.7c0,0.1,0,0.1,0,0.2s0,0.1,0,0.2
				c-0.1,0.5-0.2,0.9-0.4,1.3s-0.5,0.7-0.8,1s-0.7,0.5-1.2,0.7c-0.4,0.2-0.9,0.3-1.4,0.4L125,101.6z M127,96.8c-0.1,0-0.2,0-0.2,0.1
				c-0.1,0.1-0.2,0.1-0.2,0.2s-0.1,0.2-0.2,0.3c0,0.1-0.1,0.2-0.1,0.4c0,0.1,0,0.2,0.1,0.3c0.1,0.1,0.1,0.1,0.2,0.2
				c0.1,0,0.2,0.1,0.3,0.1c0.1,0,0.2,0,0.3,0.1c0.1,0,0.1,0,0.2,0s0.1,0,0.2,0s0.2,0,0.2,0s0.1,0,0.2,0c0-0.2,0-0.3-0.1-0.5
				c0-0.1-0.1-0.3-0.2-0.4s-0.1-0.2-0.2-0.3c-0.1-0.1-0.1-0.2-0.2-0.3l0,0c0-0.1-0.1-0.1-0.2-0.2S127,96.8,127,96.8z"/>
			<path d="M131,92.7c0.1,1.1,0.2,2.1,0.2,3.1c0,1.5,0,2.8-0.1,3.7l-1.1,0.2c0.1-1.3,0.1-2.5,0.1-3.4c0-1.2-0.1-2.2-0.2-3.2
				L131,92.7z"/>
			<path d="M135.2,99.6h-0.1c-0.1,0-0.1,0-0.2,0c-0.1,0-0.1,0-0.2-0.1c-0.1,0-0.1-0.1-0.2-0.1c0,0.4-0.1,0.7-0.3,1.1
				c-0.2,0.3-0.4,0.6-0.7,0.9s-0.6,0.6-0.9,0.8c-0.3,0.2-0.7,0.5-1.1,0.6l-0.5-1c0.2-0.1,0.4-0.2,0.6-0.3c0.2-0.1,0.4-0.3,0.6-0.4
				s0.4-0.3,0.5-0.4c0.2-0.2,0.3-0.3,0.4-0.5c0.1-0.2,0.2-0.3,0.3-0.5s0.1-0.4,0.1-0.5c0,0,0,0,0-0.1c0,0,0,0,0-0.1l0,0
				c0-0.2-0.1-0.3-0.1-0.5s-0.1-0.3-0.2-0.5c-0.1-0.2-0.1-0.3-0.2-0.4c-0.1-0.1-0.1-0.3-0.1-0.4l1-0.4c0.1,0.3,0.2,0.6,0.3,0.8
				c0.1,0.2,0.2,0.4,0.3,0.5s0.2,0.2,0.3,0.3c0.1,0.1,0.2,0.1,0.4,0.1l0,0c0.1,0,0.2,0,0.2,0s0.1,0.1,0.2,0.1
				c0.1,0.1,0.1,0.1,0.1,0.2s0,0.1,0,0.2s0,0.2,0,0.2c0,0.1-0.1,0.1-0.1,0.2s-0.1,0.1-0.2,0.1C135.3,99.6,135.3,99.6,135.2,99.6z
				 M134.1,95l-0.8,0.8l-0.8-0.8l0.8-0.8L134.1,95z"/>
			<path d="M134.6,99.1c0-0.1,0-0.1,0-0.2s0.1-0.1,0.1-0.2s0.1-0.1,0.2-0.1c0.1,0,0.1,0,0.2,0c0.2,0,0.4,0,0.6-0.1
				c0.2-0.1,0.3-0.2,0.4-0.3c0.1-0.1,0.2-0.3,0.3-0.4c0.1-0.2,0.2-0.3,0.3-0.5s0.2-0.3,0.2-0.5c0.1-0.2,0.2-0.3,0.3-0.4
				c0.1-0.2,0.3-0.3,0.5-0.4s0.4-0.1,0.6-0.1c0.2,0,0.5,0,0.7,0.1s0.4,0.2,0.5,0.4c0.1,0.1,0.2,0.3,0.3,0.5s0.1,0.4,0.1,0.6l0,0
				c0,0.1,0,0.2,0,0.4c0,0.1,0,0.3,0,0.4s-0.1,0.3-0.1,0.4c-0.1,0.2-0.2,0.4-0.4,0.6s-0.3,0.3-0.5,0.3c-0.1,0-0.1,0-0.2,0
				c-0.1,0-0.1,0-0.2,0c-0.1,0-0.3,0-0.4,0c-0.1,0-0.3-0.1-0.4-0.1c-0.1,0-0.1-0.1-0.2-0.1c-0.1,0-0.2-0.1-0.2-0.1
				c-0.1,0-0.2-0.1-0.2-0.1c-0.1,0-0.1-0.1-0.2-0.1c-0.1,0.1-0.2,0.2-0.4,0.3c-0.1,0.1-0.3,0.2-0.4,0.2s-0.3,0.1-0.4,0.1
				c-0.1,0-0.3,0-0.5,0c-0.1,0-0.2,0-0.2,0c-0.1,0-0.1-0.1-0.2-0.1c0-0.1-0.1-0.1-0.1-0.2C134.6,99.2,134.6,99.2,134.6,99.1z
				 M137.5,98c0.1,0.1,0.2,0.1,0.3,0.2s0.2,0.1,0.4,0.2c0.1,0,0.2,0.1,0.3,0.1s0.2,0,0.2,0h0.1c0,0,0.1,0,0.1-0.1s0.1-0.1,0.1-0.1
				c0-0.1,0-0.1,0.1-0.2c0-0.1,0-0.1,0-0.2c0,0,0-0.1,0-0.2s0-0.1-0.1-0.2c0-0.1-0.1-0.2-0.1-0.2c0-0.1-0.1-0.1-0.2-0.2
				c-0.1-0.1-0.1-0.1-0.2-0.2c-0.1,0-0.2-0.1-0.3-0.1S138,96.9,138,97s-0.2,0.3-0.3,0.6L137.5,98z"/>
			<path d="M142.5,96.8c0.1,0.3,0.2,0.6,0.3,0.8c0,0.1,0.1,0.2,0.1,0.4c0,0.1,0.1,0.3,0.1,0.4s0,0.3,0.1,0.4s0,0.3,0,0.4
				c0,0.3,0,0.5-0.1,0.8c-0.1,0.2-0.2,0.5-0.3,0.7s-0.3,0.4-0.5,0.7c-0.2,0.2-0.4,0.4-0.6,0.6c-0.2,0.2-0.5,0.4-0.7,0.5
				c-0.3,0.2-0.5,0.3-0.8,0.4l-0.5-1c0.2-0.1,0.4-0.2,0.6-0.3c0.2-0.1,0.4-0.3,0.6-0.4c0.2-0.1,0.3-0.3,0.5-0.4
				c0.2-0.2,0.3-0.3,0.4-0.5c0.1-0.2,0.2-0.3,0.3-0.5s0.1-0.3,0.1-0.5s0-0.3-0.1-0.5c0-0.2-0.1-0.4-0.1-0.5
				c-0.1-0.2-0.1-0.4-0.2-0.5c-0.1-0.2-0.1-0.3-0.1-0.4L142.5,96.8z"/>
			<path d="M149.2,95.8c0.3-0.1,0.5-0.1,0.8,0c0.3,0,0.5,0.1,0.8,0.2l-0.4,1c-0.2-0.1-0.3-0.1-0.5-0.1s-0.3,0-0.5,0
				c-0.1,0-0.2,0-0.3,0.1s-0.2,0.1-0.3,0.2s-0.2,0.2-0.3,0.3c-0.1,0.1-0.2,0.2-0.3,0.3c-0.1,0.1-0.1,0.2-0.2,0.3
				c0,0.1-0.1,0.2-0.1,0.3c0,0.1,0,0.1,0,0.2l0,0c0,0.1,0.1,0.1,0.1,0.2s0.2,0.1,0.3,0.1s0.2,0.1,0.3,0.1s0.2,0.1,0.3,0.1
				c0.2,0,0.3,0.1,0.5,0.1c0.2,0.1,0.3,0.1,0.5,0.2c0.1,0.1,0.2,0.2,0.3,0.4c0.1,0.1,0.1,0.3,0.1,0.6c0,0.1,0,0.2,0,0.3
				c-0.1,0.3-0.2,0.6-0.4,0.8c-0.2,0.3-0.5,0.5-0.9,0.6l0,0c-0.3,0.2-0.7,0.3-1.1,0.4c-0.4,0.1-0.9,0.1-1.4,0.1
				c-0.6,0-1.1-0.1-1.5-0.2c-0.4-0.2-0.8-0.4-1.1-0.7c-0.1-0.2-0.2-0.3-0.3-0.5s-0.2-0.4-0.2-0.5c0-0.2-0.1-0.4-0.1-0.6s0-0.4,0-0.6
				s0.1-0.4,0.1-0.6s0.1-0.4,0.1-0.6s0.1-0.4,0.1-0.5c0-0.2,0.1-0.3,0.1-0.4s0.1-0.2,0.1-0.3c0-0.1,0-0.1,0-0.1l1,0.4
				c-0.1,0.2-0.1,0.4-0.2,0.6c-0.1,0.2-0.1,0.4-0.2,0.6c0,0.2-0.1,0.4-0.1,0.6s-0.1,0.4-0.1,0.6c0,0.1,0,0.2,0,0.3
				c0,0.1,0,0.2,0.1,0.3c0,0.1,0.1,0.2,0.1,0.3c0.1,0.1,0.1,0.2,0.2,0.3c0.2,0.2,0.4,0.3,0.7,0.4s0.6,0.1,1,0.1s0.7,0,1.1-0.1
				c0.3-0.1,0.6-0.1,0.9-0.2c0.2-0.1,0.4-0.2,0.6-0.3s0.2-0.3,0.2-0.4c0,0,0-0.1-0.1-0.1s-0.1,0-0.2-0.1c-0.1,0-0.2,0-0.3-0.1
				c-0.1,0-0.2,0-0.3-0.1c-0.2-0.1-0.5-0.1-0.7-0.2s-0.4-0.2-0.5-0.3c-0.2-0.1-0.3-0.3-0.4-0.5s-0.1-0.4-0.1-0.7
				c0-0.3,0.1-0.6,0.2-0.9c0.1-0.3,0.3-0.6,0.5-0.8c0.2-0.2,0.4-0.5,0.7-0.6C148.6,96,148.9,95.8,149.2,95.8z"/>
			<path d="M153.9,96.8c0.1,0.3,0.2,0.6,0.3,0.8c0,0.1,0.1,0.2,0.1,0.4c0,0.1,0.1,0.3,0.1,0.4s0,0.3,0.1,0.4s0,0.3,0,0.4
				c0,0.3,0,0.5-0.1,0.8c-0.1,0.2-0.2,0.5-0.3,0.7s-0.3,0.4-0.5,0.7c-0.2,0.2-0.4,0.4-0.6,0.6c-0.2,0.2-0.5,0.4-0.7,0.5
				c-0.3,0.2-0.5,0.3-0.8,0.4l-0.5-1c0.2-0.1,0.4-0.2,0.6-0.3c0.2-0.1,0.4-0.3,0.6-0.4c0.2-0.1,0.3-0.3,0.5-0.4
				c0.2-0.2,0.3-0.3,0.4-0.5c0.1-0.2,0.2-0.3,0.3-0.5s0.1-0.3,0.1-0.5s0-0.3-0.1-0.5c0-0.2-0.1-0.4-0.1-0.5
				c-0.1-0.2-0.1-0.4-0.2-0.5c-0.1-0.2-0.1-0.3-0.1-0.4L153.9,96.8z M154.1,94.9l-0.8,0.8l-0.8-0.8l0.8-0.8L154.1,94.9z"/>
			<path d="M157.4,99.6c-0.3,0-0.6,0-0.9-0.1c-0.2-0.1-0.4-0.2-0.6-0.4c-0.1-0.1-0.2-0.2-0.2-0.3s-0.1-0.2-0.1-0.4
				c0-0.1,0-0.2,0-0.3c0-0.1,0-0.2,0-0.3c0-0.1,0-0.2,0-0.5c0-0.2,0-0.5,0-0.8c0-0.2,0-0.4,0-0.6s0-0.4,0-0.6s0-0.4,0-0.6
				s0-0.4,0-0.6s0-0.4,0-0.6s0-0.3-0.1-0.5l1.1-0.3c0,0.2,0.1,0.4,0.1,0.6s0,0.5,0.1,0.8s0,0.5,0,0.8s0,0.5,0,0.8c0,0.1,0,0.2,0,0.2
				c0,0.1,0,0.2,0,0.3c0,0.1,0,0.2,0,0.2c0,0.1,0,0.1,0,0.2s0,0.2,0,0.3c0,0.1,0,0.2,0,0.3c0,0.1,0,0.2,0,0.3c0,0.1,0,0.2,0,0.3
				c0,0.1,0,0.2,0,0.3c0,0.1,0,0.2,0.1,0.2c0.1,0.1,0.3,0.2,0.6,0.2l0,0c0.1,0,0.1,0,0.2,0c0.1,0,0.1,0.1,0.2,0.1
				c0.1,0.1,0.1,0.1,0.1,0.2s0,0.1,0,0.2s0,0.2,0,0.2c0,0.1-0.1,0.1-0.1,0.2s-0.1,0.1-0.2,0.1C157.5,99.6,157.5,99.6,157.4,99.6z"/>
			<path d="M156.9,99.1c0-0.1,0-0.1,0-0.2s0.1-0.1,0.1-0.2s0.1-0.1,0.2-0.1c0.1,0,0.1-0.1,0.2-0.1c0.2,0,0.3,0,0.5-0.1
				c0.1-0.1,0.3-0.2,0.4-0.3c0.1-0.1,0.2-0.2,0.3-0.4c0.1-0.1,0.1-0.3,0.2-0.5c0.1-0.2,0.1-0.3,0.1-0.5s0.1-0.3,0.1-0.4l1.1,0.2
				c0,0.1-0.1,0.2-0.1,0.3c0,0.1-0.1,0.3-0.1,0.4s-0.1,0.3-0.1,0.4s0,0.3,0,0.4s0,0.2,0.1,0.3c0.1,0.1,0.1,0.1,0.3,0.1
				c0.1,0,0.2,0,0.4-0.1c0.1-0.1,0.2-0.2,0.3-0.3c0.1-0.1,0.2-0.3,0.2-0.4c0.1-0.2,0.1-0.3,0.2-0.5c0-0.2,0.1-0.3,0.1-0.5
				s0.1-0.3,0.1-0.4l1,0.2c0,0.1,0,0.2,0,0.3c0,0.1,0,0.2-0.1,0.3c0,0.1,0,0.2-0.1,0.3c0,0.1,0,0.2,0,0.4c0,0.1,0,0.2,0,0.3
				s0.1,0.2,0.1,0.2c0,0.1,0.1,0.1,0.2,0.2c0.1,0,0.2,0.1,0.3,0.1c0.2,0,0.4-0.1,0.5-0.2s0.2-0.3,0.2-0.5s0-0.3-0.1-0.5
				s-0.1-0.4-0.2-0.5s-0.1-0.3-0.2-0.5c-0.1-0.2-0.1-0.3-0.2-0.4l0.9-0.5c0,0,0,0.1,0.1,0.2s0.1,0.2,0.1,0.3c0,0.1,0.1,0.3,0.2,0.4
				c0.1,0.2,0.1,0.3,0.1,0.5s0.1,0.3,0.1,0.5s0,0.4,0,0.5c0,0.3,0,0.5-0.1,0.7s-0.2,0.4-0.4,0.6s-0.4,0.3-0.6,0.4
				c-0.2,0.1-0.5,0.1-0.8,0.1c-0.1,0-0.3,0-0.4-0.1s-0.2-0.1-0.3-0.2s-0.2-0.1-0.3-0.2s-0.1-0.2-0.2-0.3c-0.1,0.1-0.1,0.2-0.2,0.3
				s-0.2,0.2-0.3,0.2c-0.1,0.1-0.2,0.1-0.3,0.1s-0.3,0.1-0.4,0.1c-0.1,0-0.3,0-0.4,0c-0.1,0-0.2-0.1-0.3-0.1
				c-0.1-0.1-0.2-0.1-0.3-0.2s-0.1-0.2-0.2-0.3c-0.1,0.1-0.1,0.2-0.2,0.2c-0.1,0.1-0.2,0.1-0.3,0.2s-0.2,0.1-0.4,0.1
				c-0.1,0-0.3,0.1-0.5,0.1h-0.1c-0.1,0-0.1,0-0.2,0c-0.1,0-0.1-0.1-0.2-0.1c0-0.1-0.1-0.1-0.1-0.2
				C156.9,99.2,156.9,99.2,156.9,99.1z"/>
			<path d="M166.1,98.1c-0.1,0.1-0.2,0.3-0.2,0.4c-0.1,0.1-0.1,0.3-0.2,0.5c0,0.2-0.1,0.5-0.1,0.8c0,0.2,0,0.3,0.1,0.5
				c0.1,0.1,0.1,0.3,0.2,0.4c0.1,0.1,0.2,0.2,0.3,0.3c0.1,0.1,0.2,0.1,0.3,0.2s0.2,0.1,0.4,0.1c0.1,0,0.2,0,0.3,0c0,0,0,0,0.1,0
				c0,0,0,0,0.1,0c0.2,0,0.4,0,0.6-0.1c0.2-0.1,0.4-0.2,0.6-0.3c0.2-0.1,0.3-0.3,0.5-0.6s0.2-0.5,0.2-0.8c0-0.2,0-0.5,0-0.8
				s0-0.6,0-1c0-0.3,0-0.7,0-1.1s0-0.7-0.1-1.1c0-0.8-0.1-1.7-0.1-2.6l1.1-0.2c0,0.9,0.1,1.8,0.1,2.7c0,0.4,0,0.7,0,1.1s0,0.8,0,1.1
				c0,0.4,0,0.7,0,1s0,0.6,0,0.8c0,0.4,0,0.7-0.1,1s-0.2,0.5-0.4,0.8c-0.2,0.2-0.3,0.4-0.5,0.5c-0.2,0.2-0.4,0.3-0.6,0.4
				c-0.2,0.1-0.4,0.2-0.7,0.2s-0.4,0.1-0.6,0.1h-0.1h-0.1c-0.2,0-0.4,0-0.6-0.1s-0.4-0.1-0.6-0.2s-0.4-0.2-0.5-0.3
				c-0.2-0.1-0.3-0.3-0.5-0.5s-0.2-0.4-0.3-0.6s-0.1-0.5-0.1-0.8c0-0.4,0-0.7,0.1-1s0.1-0.5,0.2-0.7c0.1-0.2,0.2-0.4,0.3-0.5
				L166.1,98.1z"/>
			<path d="M173.7,99.6c-0.3,0-0.6,0-0.9-0.1c-0.2-0.1-0.4-0.2-0.6-0.4c-0.1-0.1-0.2-0.2-0.2-0.3s-0.1-0.2-0.1-0.4
				c0-0.1,0-0.2,0-0.3c0-0.1,0-0.2,0-0.3c0-0.1,0-0.2,0-0.5c0-0.2,0-0.5,0-0.8c0-0.2,0-0.4,0-0.6s0-0.4,0-0.6s0-0.4,0-0.6
				s0-0.4,0-0.6s0-0.4,0-0.6s0-0.3-0.1-0.5l1.1-0.3c0,0.2,0.1,0.4,0.1,0.6s0,0.5,0.1,0.8s0,0.5,0,0.8s0,0.5,0,0.8c0,0.1,0,0.2,0,0.2
				c0,0.1,0,0.2,0,0.3c0,0.1,0,0.2,0,0.2c0,0.1,0,0.1,0,0.2s0,0.2,0,0.3c0,0.1,0,0.2,0,0.3c0,0.1,0,0.2,0,0.3c0,0.1,0,0.2,0,0.3
				c0,0.1,0,0.2,0,0.3c0,0.1,0,0.2,0.1,0.2c0.1,0.1,0.3,0.2,0.6,0.2l0,0c0.1,0,0.1,0,0.2,0c0.1,0,0.1,0.1,0.2,0.1
				c0.1,0.1,0.1,0.1,0.1,0.2s0,0.1,0,0.2s0,0.2,0,0.2c0,0.1-0.1,0.1-0.1,0.2s-0.1,0.1-0.2,0.1C173.8,99.6,173.7,99.6,173.7,99.6z"/>
			<path d="M178.6,98.5c0.1,0,0.1,0,0.2,0c0.1,0,0.1,0.1,0.2,0.1c0.1,0.1,0.1,0.1,0.1,0.2s0,0.1,0,0.2s0,0.2,0,0.2
				c0,0.1-0.1,0.1-0.1,0.2c-0.1,0-0.1,0.1-0.2,0.1c-0.1,0-0.1,0-0.2,0c-0.2,0-0.5,0-0.7,0s-0.4,0-0.6-0.1c-0.2,0-0.4-0.1-0.6-0.2
				c-0.2-0.1-0.3-0.2-0.5-0.3c-0.2,0.1-0.3,0.2-0.6,0.3c-0.2,0.1-0.4,0.1-0.7,0.2c-0.2,0-0.5,0.1-0.7,0.1s-0.5,0-0.7,0
				c-0.1,0-0.1,0-0.2,0s-0.1-0.1-0.2-0.1c-0.1,0-0.1-0.1-0.1-0.2s0-0.1,0-0.2s0-0.2,0-0.2c0-0.1,0.1-0.1,0.1-0.2s0.1-0.1,0.2-0.1
				s0.1,0,0.2,0c0.1,0,0.3,0,0.4,0s0.3,0,0.4,0c0.1,0,0.3,0,0.4-0.1c0.1,0,0.2-0.1,0.4-0.1c-0.1-0.1-0.2-0.2-0.3-0.3
				c-0.1-0.1-0.2-0.2-0.3-0.3c-0.1-0.1-0.2-0.2-0.3-0.3c-0.1-0.1-0.2-0.2-0.4-0.3l0.1-0.9c0.2-0.1,0.3-0.3,0.5-0.4s0.3-0.2,0.5-0.2
				c0.2-0.1,0.3-0.1,0.5-0.1s0.3-0.1,0.4-0.1c0.1,0,0.3,0,0.4,0s0.3,0,0.4,0s0.3,0,0.4,0.1c0.1,0,0.3,0.1,0.4,0.1
				c0.2,0.1,0.3,0.2,0.4,0.2s0.2,0.2,0.2,0.3c0.1,0.1,0.1,0.2,0.1,0.3c0,0.1,0,0.2,0,0.2c0,0.1,0,0.3-0.1,0.4
				c-0.1,0.2-0.1,0.3-0.2,0.5c-0.1,0.2-0.2,0.3-0.3,0.5s-0.3,0.3-0.4,0.4c0.2,0,0.4,0.1,0.6,0.1C178.2,98.5,178.4,98.5,178.6,98.5z
				 M175.1,96.6c0.1,0.1,0.2,0.2,0.3,0.4c0.1,0.1,0.2,0.2,0.3,0.3c0.1,0.1,0.2,0.2,0.3,0.3s0.2,0.2,0.2,0.2c0.1-0.1,0.2-0.2,0.3-0.3
				c0.1-0.1,0.2-0.2,0.4-0.3s0.2-0.2,0.3-0.4c0.1-0.1,0.1-0.2,0.2-0.3c-0.1,0-0.1-0.1-0.2-0.1c-0.1,0-0.2-0.1-0.3-0.1
				s-0.2,0-0.3-0.1c-0.1,0-0.2,0-0.3,0s-0.2,0-0.3,0s-0.2,0-0.3,0.1c-0.1,0-0.2,0.1-0.3,0.1C175.2,96.6,175.1,96.6,175.1,96.6z"/>
			<path d="M178,99.1c0-0.1,0-0.2,0-0.2c0-0.1,0.1-0.1,0.1-0.2s0.1-0.1,0.2-0.1c0.1,0,0.1,0,0.2,0c0.3,0,0.6,0,0.8,0
				c0.3,0,0.5-0.1,0.8-0.1c0.2,0,0.4-0.1,0.6-0.1s0.3-0.1,0.4-0.1h-0.4c-0.2,0-0.3,0-0.5,0s-0.3-0.1-0.4-0.1
				c-0.1-0.1-0.3-0.1-0.4-0.2s-0.2-0.2-0.3-0.3c-0.1-0.1-0.1-0.2-0.2-0.4c-0.1-0.2-0.1-0.3-0.1-0.6c0-0.1,0-0.2,0-0.3
				c0-0.2,0.1-0.4,0.2-0.6c0.1-0.2,0.2-0.4,0.3-0.5l0,0c0.1-0.2,0.3-0.3,0.5-0.4s0.4-0.1,0.6-0.1c0.2,0,0.4,0.1,0.6,0.2
				c0.2,0.1,0.4,0.2,0.5,0.4c0.1,0.1,0.2,0.3,0.3,0.5s0.2,0.4,0.2,0.6c0.1,0.2,0.1,0.4,0.2,0.6c0,0.2,0.1,0.4,0.1,0.6
				c0,0.1,0,0.1,0,0.2s0,0.1,0,0.2c0,0.3-0.1,0.5-0.2,0.7c-0.1,0.2-0.3,0.4-0.4,0.5s-0.4,0.3-0.6,0.4s-0.5,0.2-0.7,0.2
				s-0.5,0.1-0.8,0.1s-0.6,0-0.9,0h-0.1c-0.1,0-0.2,0-0.2,0s-0.1-0.1-0.2-0.1s-0.1-0.1-0.1-0.2C178.1,99.2,178,99.2,178,99.1z
				 M181.2,93.1l-0.8,0.8l-0.8-0.8l0.8-0.8L181.2,93.1z M180.5,95.6c-0.1,0-0.1,0-0.2,0c-0.1,0-0.1,0.1-0.2,0.1s-0.1,0.1-0.2,0.2
				c-0.1,0.1-0.1,0.2-0.1,0.3s0,0.2,0,0.3c0,0.1,0,0.2,0.1,0.3l0.1,0.1c0.1,0,0.1,0,0.2,0.1s0.2,0,0.2,0c0.1,0,0.2,0,0.2,0
				c0.1,0,0.2,0,0.4,0s0.2,0,0.3,0c0-0.1-0.1-0.2-0.1-0.4c0-0.2-0.1-0.3-0.2-0.5c-0.1-0.1-0.2-0.3-0.3-0.4
				C180.7,95.7,180.6,95.6,180.5,95.6z"/>
		</g>
		<g>
			<path d="M77.9,114.1c-0.6,0-1.1,0-1.5-0.1s-0.8-0.1-1.1-0.3c-0.6-0.2-1.1-0.6-1.3-1.1l0,0c-0.1-0.3-0.2-0.5-0.2-0.8
				c0-0.1,0-0.3,0-0.4c0-0.2,0.1-0.3,0.1-0.5c0-0.1,0.1-0.2,0.1-0.2c0-0.1,0.1-0.1,0.1-0.2s0.1-0.1,0.1-0.2s0.1-0.1,0.1-0.2l0.8,0.7
				c0,0.1-0.1,0.2-0.2,0.3c-0.1,0.1-0.1,0.2-0.2,0.4c0,0.1-0.1,0.3-0.1,0.4s0,0.2,0,0.3c0.1,0.1,0.2,0.2,0.4,0.3s0.4,0.2,0.7,0.3
				c0.3,0.1,0.6,0.1,0.9,0.2c0.3,0,0.7,0.1,1.1,0.1c0.2,0,0.4,0,0.6,0s0.4,0,0.6-0.1c0.2,0,0.4,0,0.6-0.1c0.2,0,0.4-0.1,0.5-0.1
				c0.2,0,0.3-0.1,0.4-0.1s0.2-0.1,0.3-0.1h-0.4c-0.2,0-0.3,0-0.5,0s-0.3-0.1-0.4-0.1s-0.3-0.1-0.4-0.2s-0.2-0.2-0.3-0.3
				c-0.1-0.1-0.1-0.2-0.2-0.4c-0.1-0.2-0.1-0.3-0.1-0.6c0-0.1,0-0.2,0-0.3c0-0.2,0.1-0.4,0.2-0.6s0.2-0.4,0.3-0.5l0,0
				c0.1-0.2,0.3-0.3,0.5-0.4s0.4-0.1,0.6-0.1s0.4,0.1,0.6,0.2s0.4,0.2,0.5,0.4c0.1,0.1,0.2,0.3,0.3,0.5s0.2,0.4,0.2,0.6
				c0.1,0.2,0.1,0.4,0.2,0.6c0,0.2,0.1,0.4,0.1,0.6c0,0.1,0,0.1,0,0.2s0,0.1,0,0.2c0,0.3-0.1,0.5-0.2,0.7s-0.3,0.4-0.5,0.5
				s-0.4,0.3-0.7,0.4c-0.3,0.1-0.5,0.2-0.8,0.2s-0.6,0.1-0.9,0.1C78.5,114.1,78.2,114.1,77.9,114.1z M80.9,107.6l-0.8,0.8l-0.8-0.8
				l0.8-0.8L80.9,107.6z M80.1,110c-0.1,0-0.1,0-0.2,0s-0.1,0.1-0.2,0.1c-0.1,0.1-0.1,0.1-0.2,0.2s-0.1,0.2-0.1,0.3s0,0.2,0,0.3
				s0,0.2,0.1,0.3l0.1,0.1c0.1,0,0.1,0,0.2,0.1s0.2,0,0.2,0c0.1,0,0.2,0,0.2,0c0.1,0,0.2,0,0.4,0s0.2,0,0.3,0c0-0.1-0.1-0.2-0.1-0.4
				c0-0.2-0.1-0.3-0.2-0.5c-0.1-0.1-0.2-0.3-0.3-0.4C80.3,110.1,80.2,110.1,80.1,110z"/>
			<path d="M85.7,114.1L85.7,114.1c-0.2,0-0.2,0-0.3,0s-0.1,0-0.2-0.1c-0.1,0-0.1-0.1-0.2-0.1c0,0.4-0.1,0.7-0.3,1.1
				c-0.2,0.3-0.4,0.6-0.7,0.9c-0.3,0.3-0.6,0.6-0.9,0.8c-0.3,0.2-0.7,0.5-1.1,0.6l-0.5-1c0.2-0.1,0.4-0.2,0.6-0.3
				c0.2-0.1,0.4-0.3,0.6-0.4s0.4-0.3,0.5-0.4c0.2-0.2,0.3-0.3,0.4-0.5s0.2-0.3,0.3-0.5s0.1-0.4,0.1-0.5c0,0,0,0,0-0.1c0,0,0,0,0-0.1
				l0,0c0-0.2-0.1-0.3-0.1-0.5s-0.1-0.3-0.2-0.5s-0.1-0.3-0.2-0.4s-0.1-0.3-0.1-0.4l1-0.4c0.1,0.3,0.2,0.6,0.3,0.8
				c0.1,0.2,0.2,0.4,0.3,0.5s0.2,0.2,0.3,0.3c0.1,0.1,0.2,0.1,0.4,0.1l0,0c0.1,0,0.2,0,0.2,0s0.1,0.1,0.2,0.1
				c0.1,0.1,0.1,0.1,0.1,0.2s0,0.1,0,0.2s0,0.2,0,0.2c0,0.1-0.1,0.1-0.1,0.2S86,114,86,114C85.9,114.1,85.8,114.1,85.7,114.1z"/>
			<path d="M85.1,113.5c0-0.1,0-0.2,0-0.2c0-0.1,0.1-0.1,0.1-0.2c0.1-0.1,0.1-0.1,0.2-0.1s0.1,0,0.2,0l0,0c0.3,0,0.5,0,0.6-0.1l0,0
				c0.1,0,0.1-0.1,0.2-0.1c0,0,0.1-0.1,0.1-0.2c0.1-0.1,0.2-0.3,0.2-0.5c0.1-0.2,0.1-0.4,0.2-0.6l0,0c0-0.1,0.1-0.2,0.1-0.3
				c0-0.1,0.1-0.2,0.1-0.3l1,0.3c0,0.1-0.1,0.1-0.1,0.2s0,0.1-0.1,0.2c0,0.1,0,0.1,0,0.2s0,0.1,0,0.2s0,0.2,0.1,0.3s0.1,0.2,0.1,0.3
				c0.1-0.1,0.1-0.2,0.2-0.3c0.1-0.1,0.2-0.3,0.3-0.4s0.2-0.3,0.3-0.4c0.1-0.1,0.2-0.3,0.4-0.4c0.3-0.3,0.6-0.5,0.9-0.6
				c0.3-0.2,0.6-0.3,1-0.3c0.2,0,0.3,0,0.5,0c0.3,0,0.6,0.1,0.8,0.2s0.5,0.3,0.7,0.5l0,0c0.2,0.2,0.3,0.4,0.4,0.6s0.1,0.5,0.1,0.7
				c0,0.4-0.2,0.7-0.4,1H94c0.1,0,0.2,0,0.2,0c0.1,0,0.1,0.1,0.2,0.1c0.1,0.1,0.1,0.1,0.1,0.2s0,0.1,0,0.2s0,0.2,0,0.2
				c0,0.1-0.1,0.1-0.1,0.2s-0.1,0.1-0.2,0.1s-0.1,0-0.2,0h-1.1c-0.3,0-0.6,0-0.8,0c-0.2,0-0.4-0.1-0.5-0.1c-0.3,0.1-0.6,0.1-0.9,0.2
				c-0.3,0-0.6,0-0.9,0c-0.2,0-0.4,0-0.6,0s-0.3,0-0.4,0c0,0,0,0-0.1,0l0,0c-0.1,0-0.3,0-0.4-0.1c-0.1,0-0.2-0.1-0.3-0.1l0,0
				c-0.1-0.1-0.3-0.1-0.4-0.2s-0.2-0.2-0.3-0.3l0,0l0,0c-0.1,0.1-0.2,0.2-0.3,0.3c-0.1,0.1-0.2,0.1-0.3,0.2l0,0
				c-0.3,0.1-0.7,0.2-1.2,0.2c-0.1,0-0.2,0-0.2,0c-0.1,0-0.1-0.1-0.2-0.1S85,114.1,85,114C85.2,113.7,85.1,113.6,85.1,113.5z
				 M90.1,111.8c-0.1,0.1-0.2,0.2-0.3,0.3c-0.1,0.1-0.2,0.2-0.3,0.3c-0.1,0.1-0.1,0.2-0.2,0.3c-0.1,0.1-0.1,0.2-0.2,0.3
				c0.2,0,0.5,0,0.7,0.1s0.5,0,0.8,0s0.5-0.1,0.8-0.1c0.2-0.1,0.5-0.1,0.7-0.2s0.4-0.2,0.5-0.3s0.2-0.3,0.2-0.5
				c0-0.1-0.1-0.3-0.2-0.4s-0.2-0.2-0.3-0.3c-0.1-0.1-0.3-0.1-0.4-0.1s-0.3,0-0.4,0s-0.2,0-0.4,0.1s-0.3,0.1-0.4,0.1
				c-0.1,0.1-0.3,0.1-0.4,0.2C90.3,111.6,90.2,111.7,90.1,111.8z"/>
			<path d="M93.5,113.5c0-0.1,0-0.1,0-0.2s0.1-0.1,0.1-0.2s0.1-0.1,0.2-0.1s0.1,0,0.2,0c0.2,0,0.4,0,0.6-0.1s0.3-0.2,0.4-0.3
				c0.1-0.1,0.2-0.3,0.3-0.4c0.1-0.2,0.2-0.3,0.3-0.5c0.1-0.2,0.2-0.3,0.2-0.5c0.1-0.2,0.2-0.3,0.3-0.4c0.1-0.2,0.3-0.3,0.5-0.4
				s0.4-0.1,0.6-0.1s0.5,0,0.7,0.1s0.4,0.2,0.5,0.4c0.1,0.1,0.2,0.3,0.3,0.5c0.1,0.2,0.1,0.4,0.1,0.6l0,0c0,0.1,0,0.2,0,0.4
				c0,0.1,0,0.3,0,0.4s-0.1,0.3-0.1,0.4c-0.1,0.2-0.2,0.4-0.4,0.6S98,114,97.8,114c-0.1,0-0.1,0-0.2,0s-0.1,0-0.2,0s-0.3,0-0.4,0
				s-0.3-0.1-0.4-0.1s-0.1-0.1-0.2-0.1s-0.2-0.1-0.2-0.1c-0.1,0-0.2-0.1-0.2-0.1c-0.1,0-0.1-0.1-0.2-0.1c-0.1,0.1-0.2,0.2-0.4,0.3
				c-0.1,0.1-0.3,0.2-0.4,0.2s-0.3,0.1-0.4,0.1s-0.3,0-0.5,0c-0.1,0-0.2,0-0.2,0c-0.1,0-0.1-0.1-0.2-0.1c0-0.1-0.1-0.1-0.1-0.2
				C93.6,113.7,93.5,113.6,93.5,113.5z M96.4,112.5c0.1,0.1,0.2,0.1,0.3,0.2c0.1,0.1,0.2,0.1,0.4,0.2c0.1,0,0.2,0.1,0.3,0.1
				c0.1,0,0.2,0,0.2,0h0.1c0,0,0.1,0,0.1-0.1s0.1-0.1,0.1-0.1c0-0.1,0-0.1,0.1-0.2c0-0.1,0-0.1,0-0.2c0,0,0-0.1,0-0.2s0-0.1-0.1-0.2
				c0-0.1-0.1-0.2-0.1-0.2c0-0.1-0.1-0.1-0.2-0.2s-0.1-0.1-0.2-0.2c-0.1,0-0.2-0.1-0.3-0.1c-0.1,0-0.2,0.1-0.2,0.2s-0.2,0.3-0.3,0.6
				L96.4,112.5z"/>
			<path d="M101.4,111.2c0.1,0.3,0.2,0.6,0.3,0.8c0,0.1,0.1,0.2,0.1,0.4c0,0.1,0.1,0.3,0.1,0.4s0,0.3,0.1,0.4s0,0.3,0,0.4
				c0,0.3,0,0.5-0.1,0.8c-0.1,0.2-0.2,0.5-0.3,0.7c-0.1,0.2-0.3,0.4-0.5,0.7c-0.2,0.2-0.4,0.4-0.6,0.6s-0.5,0.4-0.7,0.5
				c-0.3,0.2-0.5,0.3-0.8,0.4l-0.5-1c0.2-0.1,0.4-0.2,0.6-0.3c0.2-0.1,0.4-0.3,0.6-0.4s0.3-0.3,0.5-0.4c0.2-0.2,0.3-0.3,0.4-0.5
				s0.2-0.3,0.3-0.5c0.1-0.2,0.1-0.3,0.1-0.5s0-0.3-0.1-0.5c0-0.2-0.1-0.4-0.1-0.5c-0.1-0.2-0.1-0.4-0.2-0.5
				c-0.1-0.2-0.1-0.3-0.1-0.4L101.4,111.2z"/>
			<path d="M104.9,114.1c-0.3,0-0.6,0-0.9-0.1c-0.2-0.1-0.4-0.2-0.6-0.4c-0.1-0.1-0.2-0.2-0.2-0.3s-0.1-0.2-0.1-0.4
				c0-0.1,0-0.2,0-0.3c0-0.1,0-0.2,0-0.3c0-0.1,0-0.2,0-0.5c0-0.2,0-0.5,0-0.8c0-0.2,0-0.4,0-0.6s0-0.4,0-0.6s0-0.4,0-0.6
				s0-0.4,0-0.6s0-0.4,0-0.6s0-0.3-0.1-0.5l1.1-0.3c0,0.2,0.1,0.4,0.1,0.6s0,0.5,0.1,0.8s0,0.5,0,0.8s0,0.5,0,0.8c0,0.1,0,0.2,0,0.2
				c0,0.1,0,0.2,0,0.3c0,0.1,0,0.2,0,0.2c0,0.1,0,0.1,0,0.2s0,0.2,0,0.3c0,0.1,0,0.2,0,0.3c0,0.1,0,0.2,0,0.3c0,0.1,0,0.2,0,0.3
				c0,0.1,0,0.2,0,0.3c0,0.1,0,0.2,0.1,0.2c0.1,0.1,0.3,0.2,0.6,0.2l0,0c0.1,0,0.1,0,0.2,0s0.1,0.1,0.2,0.1c0.1,0.1,0.1,0.1,0.1,0.2
				s0,0.1,0,0.2s0,0.2,0,0.2c0,0.1-0.1,0.1-0.1,0.2s-0.1,0.1-0.2,0.1C105,114.1,105,114.1,104.9,114.1z"/>
			<path d="M104.3,113.5c0-0.1,0-0.2,0-0.2c0-0.1,0.1-0.1,0.1-0.2s0.1-0.1,0.2-0.1s0.1,0,0.2,0h0.1c0.4,0,0.8-0.1,1-0.2
				c0.2-0.2,0.3-0.4,0.3-0.7c0-0.1,0-0.2,0-0.2c0-0.1,0-0.1-0.1-0.2c0-0.1,0-0.2-0.1-0.3c0-0.1-0.1-0.2-0.1-0.3l1.1-0.3
				c0.1,0.2,0.1,0.4,0.1,0.6s0.1,0.5,0.1,0.7c0,0.1,0,0.2,0,0.3s0,0.2,0.1,0.3s0.1,0.2,0.2,0.2c0.1,0.1,0.2,0.1,0.3,0.1
				c0.1,0,0.1,0,0.2,0s0.1,0.1,0.2,0.1c0.1,0.1,0.1,0.1,0.1,0.2s0,0.1,0,0.2s0,0.2,0,0.2c0,0.1-0.1,0.1-0.1,0.2s-0.1,0.1-0.2,0.1
				s-0.1,0-0.2,0c-0.3,0-0.5,0-0.7-0.1s-0.4-0.2-0.5-0.4c-0.4,0.3-1,0.5-1.8,0.5h-0.1c-0.1,0-0.2,0-0.2,0s-0.1-0.1-0.2-0.1
				c0,0-0.1-0.1-0.1-0.2C104.3,113.7,104.3,113.6,104.3,113.5z M107.4,115.5l-0.8,0.8l-0.8-0.8l0.8-0.8L107.4,115.5z"/>
			<path d="M107.4,113.5c0-0.1,0-0.2,0-0.2c0-0.1,0.1-0.1,0.1-0.2s0.1-0.1,0.2-0.1s0.1,0,0.2,0l0,0h1.4c0.1,0,0.2,0,0.3-0.1
				s0.2-0.1,0.3-0.2c0.1-0.1,0.2-0.1,0.2-0.2s0.1-0.2,0.1-0.3c0-0.2,0-0.3-0.1-0.5c0-0.2-0.1-0.3-0.2-0.5s-0.2-0.3-0.3-0.5
				c-0.1-0.2-0.3-0.3-0.4-0.5s-0.3-0.3-0.4-0.4s-0.3-0.3-0.4-0.4l0.1-1.2l3.8-1.6l0.4,1l-3.3,1.3c0.2,0.2,0.4,0.4,0.6,0.6
				s0.3,0.4,0.5,0.6c0.1,0.2,0.3,0.4,0.4,0.6s0.2,0.4,0.3,0.6l0,0c0.1,0.1,0.1,0.3,0.2,0.4s0.2,0.3,0.2,0.4l0,0
				c0.1,0.1,0.2,0.2,0.3,0.4c0.1,0.1,0.2,0.2,0.3,0.3c0.1,0.1,0.2,0.1,0.3,0.2s0.3,0.1,0.4,0.1l0,0h0.2c0.1,0,0.2,0,0.2,0
				c0.1,0,0.1,0.1,0.2,0.1c0,0.1,0.1,0.1,0.1,0.2s0,0.1,0,0.2s0,0.2,0,0.2c0,0.1-0.1,0.1-0.1,0.2c0,0-0.1,0.1-0.2,0.1s-0.1,0-0.2,0
				l0,0c-0.2,0-0.4,0-0.6,0s-0.3-0.1-0.5-0.1c-0.2-0.1-0.4-0.2-0.5-0.3c-0.2-0.1-0.3-0.3-0.4-0.4c-0.1,0.1-0.2,0.2-0.3,0.4
				c-0.1,0.1-0.2,0.2-0.3,0.2c-0.1,0.1-0.2,0.1-0.4,0.1s-0.2,0.1-0.4,0.1c-0.1,0-0.3,0-0.4,0H108c-0.1,0-0.1,0-0.2,0
				s-0.1-0.1-0.2-0.1s-0.1-0.1-0.1-0.2C107.5,113.7,107.4,113.6,107.4,113.5z"/>
			<path d="M112.3,113.5c0-0.1,0-0.2,0-0.2c0-0.1,0.1-0.1,0.1-0.2s0.1-0.1,0.2-0.1s0.1,0,0.2,0h0.5h0.2c0.1,0,0.3,0,0.5,0
				s0.3,0,0.5-0.1c0.1,0,0.3-0.1,0.4-0.1c0.1-0.1,0.2-0.1,0.3-0.2c0-0.1,0.1-0.1,0.1-0.3c0-0.1,0-0.2,0-0.4s-0.1-0.3-0.1-0.4
				s-0.1-0.3-0.2-0.4s-0.1-0.3-0.2-0.4s-0.1-0.2-0.1-0.3l1-0.5c0.1,0.1,0.2,0.3,0.2,0.5c0.1,0.2,0.1,0.4,0.2,0.6s0.1,0.4,0.1,0.6
				s0.1,0.4,0.1,0.5c0,0.3,0,0.5-0.1,0.8s-0.3,0.5-0.5,0.6c-0.2,0.2-0.4,0.3-0.7,0.4c-0.1,0-0.2,0-0.3,0.1c-0.1,0-0.3,0-0.4,0
				s-0.3,0-0.4,0s-0.2,0-0.3,0H113l0,0c-0.1,0-0.2,0-0.2,0c-0.1,0-0.1-0.1-0.2-0.1s-0.1-0.1-0.1-0.2
				C112.3,113.7,112.3,113.6,112.3,113.5z M114.6,115.4l-0.7,0.7l-0.7-0.7l0.7-0.7L114.6,115.4z M116.3,115.4l-0.7,0.7l-0.7-0.7
				l0.7-0.7L116.3,115.4z"/>
			<path d="M117.4,117.3l-0.2-4.2V113c0-0.1,0-0.2,0-0.2s0.1-0.2,0.1-0.3c0.1-0.1,0.1-0.2,0.2-0.3c0,0,0.1-0.1,0.2-0.1
				s0.1-0.1,0.2-0.1s0.2,0,0.2,0h0.2c0-0.1,0.1-0.2,0.1-0.4c0.1-0.1,0.1-0.3,0.2-0.4s0.2-0.2,0.2-0.3c0.1-0.1,0.2-0.2,0.2-0.3
				c0.3-0.3,0.7-0.5,1.1-0.5c0.3,0,0.5,0.1,0.7,0.2s0.4,0.3,0.5,0.5c0.2,0.3,0.4,0.7,0.4,1.2v0.1v0.1c0,0.2,0,0.3,0,0.5
				s-0.1,0.3-0.1,0.5l0,0c-0.1,0.2-0.2,0.4-0.4,0.6c-0.1,0.1-0.3,0.2-0.5,0.3c-0.1,0-0.2,0-0.3,0c-0.1,0-0.3-0.1-0.4-0.1
				c-0.2,0-0.3-0.1-0.5-0.2s-0.4-0.1-0.5-0.2c-0.2-0.1-0.3-0.1-0.5-0.2s-0.3-0.1-0.4-0.1l0.2,3.9L117.4,117.3z M119.6,111.9
				c0,0.1-0.1,0.1-0.1,0.2s-0.1,0.1-0.1,0.2c0.1,0,0.2,0.1,0.3,0.1s0.3,0.1,0.4,0.2s0.3,0.1,0.4,0.1s0.3,0.1,0.4,0.1
				c0,0,0-0.1,0.1-0.1c0-0.1,0-0.1,0-0.2s0-0.1,0-0.2s0-0.1,0-0.2s0-0.2-0.1-0.4c0-0.1-0.1-0.2-0.2-0.3s-0.1-0.1-0.2-0.2
				c-0.1,0-0.2-0.1-0.3-0.1h-0.1c-0.1,0-0.1,0.1-0.2,0.1s-0.1,0.1-0.2,0.2C119.7,111.7,119.6,111.8,119.6,111.9z"/>
			<path d="M122.4,116c0.4-0.1,0.8-0.2,1.2-0.3s0.6-0.3,0.9-0.5s0.5-0.4,0.6-0.6s0.3-0.4,0.3-0.6c-0.1,0-0.1,0-0.2,0s-0.2,0-0.2,0
				h-0.2c0,0-0.1,0-0.2,0c-0.3,0-0.6-0.1-0.9-0.2s-0.5-0.3-0.6-0.5c-0.1-0.1-0.2-0.3-0.2-0.5s-0.1-0.4-0.1-0.5s0-0.3,0-0.4
				c0-0.2,0.1-0.3,0.1-0.4c0.1-0.1,0.1-0.3,0.2-0.4s0.1-0.2,0.2-0.3c0.2-0.2,0.3-0.4,0.5-0.5s0.4-0.2,0.6-0.2c0.4,0,0.9,0.2,1.2,0.6
				c0.1,0.1,0.3,0.3,0.4,0.5s0.2,0.4,0.3,0.6c0.1,0.2,0.1,0.4,0.2,0.7s0.1,0.5,0.1,0.7c0,0.1,0,0.1,0,0.2s0,0.1,0,0.2
				c-0.1,0.5-0.2,0.9-0.4,1.3c-0.2,0.4-0.5,0.7-0.8,1s-0.7,0.5-1.2,0.7c-0.4,0.2-0.9,0.3-1.4,0.4L122.4,116z M124.4,111.2
				c-0.1,0-0.2,0-0.2,0.1c-0.1,0.1-0.2,0.1-0.2,0.2s-0.1,0.2-0.2,0.3c0,0.1-0.1,0.2-0.1,0.4c0,0.1,0,0.2,0.1,0.3
				c0.1,0.1,0.1,0.1,0.2,0.2c0.1,0,0.2,0.1,0.3,0.1c0.1,0,0.2,0,0.3,0.1c0.1,0,0.1,0,0.2,0s0.1,0,0.2,0s0.2,0,0.2,0s0.1,0,0.2,0
				c0-0.2,0-0.3-0.1-0.5c0-0.1-0.1-0.3-0.2-0.4s-0.1-0.2-0.2-0.3c-0.1-0.1-0.1-0.2-0.2-0.3l0,0c0-0.1-0.1-0.1-0.2-0.2
				S124.5,111.2,124.4,111.2z"/>
			<path d="M127.5,112.4c0.1,0.1,0.2,0.1,0.4,0.2s0.3,0.1,0.5,0.2s0.3,0.1,0.5,0.1s0.3,0.1,0.4,0.1c0.1,0,0.2,0,0.3,0s0.2,0,0.4-0.1
				c0.1,0,0.2-0.1,0.3-0.2s0.1-0.2,0.1-0.3c0-0.1,0-0.3-0.1-0.4s-0.2-0.3-0.3-0.5s-0.2-0.3-0.4-0.5c-0.1-0.2-0.3-0.3-0.5-0.5
				c-0.2-0.1-0.3-0.3-0.5-0.4s-0.3-0.2-0.5-0.3l0.6-1c0.3,0.2,0.5,0.4,0.8,0.6s0.5,0.5,0.7,0.7s0.4,0.5,0.6,0.8
				c0.2,0.3,0.3,0.6,0.3,0.9c0.1,0.3,0.1,0.6,0,0.9s-0.2,0.5-0.4,0.7s-0.4,0.3-0.7,0.5c-0.3,0.1-0.6,0.1-1,0.1c-0.2,0-0.4,0-0.6-0.1
				c-0.2,0-0.4-0.1-0.6-0.1c-0.2-0.1-0.4-0.1-0.5-0.2c-0.2-0.1-0.3-0.2-0.5-0.3L127.5,112.4z"/>
			<path d="M135.2,114.1h-0.1c-0.1,0-0.1,0-0.2,0c-0.1,0-0.1,0-0.2-0.1c-0.1,0-0.1-0.1-0.2-0.1c0,0.4-0.1,0.7-0.3,1.1
				c-0.2,0.3-0.4,0.6-0.7,0.9s-0.6,0.6-0.9,0.8c-0.3,0.2-0.7,0.5-1.1,0.6l-0.5-1c0.2-0.1,0.4-0.2,0.6-0.3c0.2-0.1,0.4-0.3,0.6-0.4
				s0.4-0.3,0.5-0.4c0.2-0.2,0.3-0.3,0.4-0.5c0.1-0.2,0.2-0.3,0.3-0.5s0.1-0.4,0.1-0.5c0,0,0,0,0-0.1c0,0,0,0,0-0.1l0,0
				c0-0.2-0.1-0.3-0.1-0.5s-0.1-0.3-0.2-0.5c-0.1-0.2-0.1-0.3-0.2-0.4c-0.1-0.1-0.1-0.3-0.1-0.4l1-0.4c0.1,0.3,0.2,0.6,0.3,0.8
				c0.1,0.2,0.2,0.4,0.3,0.5s0.2,0.2,0.3,0.3c0.1,0.1,0.2,0.1,0.4,0.1l0,0c0.1,0,0.2,0,0.2,0s0.1,0.1,0.2,0.1
				c0.1,0.1,0.1,0.1,0.1,0.2s0,0.1,0,0.2s0,0.2,0,0.2c0,0.1-0.1,0.1-0.1,0.2s-0.1,0.1-0.2,0.1C135.3,114.1,135.3,114.1,135.2,114.1z
				 M134.1,109.4l-0.8,0.8l-0.8-0.8l0.8-0.8L134.1,109.4z"/>
			<path d="M134.6,113.5c0-0.1,0-0.1,0-0.2s0.1-0.1,0.1-0.2s0.1-0.1,0.2-0.1c0.1,0,0.1,0,0.2,0c0.2,0,0.4,0,0.6-0.1
				c0.2-0.1,0.3-0.2,0.4-0.3c0.1-0.1,0.2-0.3,0.3-0.4c0.1-0.2,0.2-0.3,0.3-0.5s0.2-0.3,0.2-0.5c0.1-0.2,0.2-0.3,0.3-0.4
				c0.1-0.2,0.3-0.3,0.5-0.4s0.4-0.1,0.6-0.1c0.2,0,0.5,0,0.7,0.1s0.4,0.2,0.5,0.4c0.1,0.1,0.2,0.3,0.3,0.5s0.1,0.4,0.1,0.6l0,0
				c0,0.1,0,0.2,0,0.4c0,0.1,0,0.3,0,0.4s-0.1,0.3-0.1,0.4c-0.1,0.2-0.2,0.4-0.4,0.6s-0.3,0.3-0.5,0.3c-0.1,0-0.1,0-0.2,0
				c-0.1,0-0.1,0-0.2,0c-0.1,0-0.3,0-0.4,0c-0.1,0-0.3-0.1-0.4-0.1c-0.1,0-0.1-0.1-0.2-0.1c-0.1,0-0.2-0.1-0.2-0.1
				c-0.1,0-0.2-0.1-0.2-0.1c-0.1,0-0.1-0.1-0.2-0.1c-0.1,0.1-0.2,0.2-0.4,0.3c-0.1,0.1-0.3,0.2-0.4,0.2s-0.3,0.1-0.4,0.1
				c-0.1,0-0.3,0-0.5,0c-0.1,0-0.2,0-0.2,0c-0.1,0-0.1-0.1-0.2-0.1c0-0.1-0.1-0.1-0.1-0.2C134.6,113.7,134.6,113.6,134.6,113.5z
				 M137.5,112.5c0.1,0.1,0.2,0.1,0.3,0.2s0.2,0.1,0.4,0.2c0.1,0,0.2,0.1,0.3,0.1s0.2,0,0.2,0h0.1c0,0,0.1,0,0.1-0.1
				s0.1-0.1,0.1-0.1c0-0.1,0-0.1,0.1-0.2c0-0.1,0-0.1,0-0.2c0,0,0-0.1,0-0.2s0-0.1-0.1-0.2c0-0.1-0.1-0.2-0.1-0.2
				c0-0.1-0.1-0.1-0.2-0.2c-0.1-0.1-0.1-0.1-0.2-0.2c-0.1,0-0.2-0.1-0.3-0.1s-0.2,0.1-0.2,0.2s-0.2,0.3-0.3,0.6L137.5,112.5z"/>
			<path d="M142.5,111.2c0.1,0.3,0.2,0.6,0.3,0.8c0,0.1,0.1,0.2,0.1,0.4c0,0.1,0.1,0.3,0.1,0.4s0,0.3,0.1,0.4s0,0.3,0,0.4
				c0,0.3,0,0.5-0.1,0.8c-0.1,0.2-0.2,0.5-0.3,0.7s-0.3,0.4-0.5,0.7c-0.2,0.2-0.4,0.4-0.6,0.6c-0.2,0.2-0.5,0.4-0.7,0.5
				c-0.3,0.2-0.5,0.3-0.8,0.4l-0.5-1c0.2-0.1,0.4-0.2,0.6-0.3c0.2-0.1,0.4-0.3,0.6-0.4c0.2-0.1,0.3-0.3,0.5-0.4
				c0.2-0.2,0.3-0.3,0.4-0.5c0.1-0.2,0.2-0.3,0.3-0.5s0.1-0.3,0.1-0.5s0-0.3-0.1-0.5c0-0.2-0.1-0.4-0.1-0.5
				c-0.1-0.2-0.1-0.4-0.2-0.5c-0.1-0.2-0.1-0.3-0.1-0.4L142.5,111.2z"/>
			<path d="M149.2,110.2c0.3-0.1,0.5-0.1,0.8,0c0.3,0,0.5,0.1,0.8,0.2l-0.4,1c-0.2-0.1-0.3-0.1-0.5-0.1s-0.3,0-0.5,0
				c-0.1,0-0.2,0-0.3,0.1s-0.2,0.1-0.3,0.2s-0.2,0.2-0.3,0.3c-0.1,0.1-0.2,0.2-0.3,0.3c-0.1,0.1-0.1,0.2-0.2,0.3
				c0,0.1-0.1,0.2-0.1,0.3c0,0.1,0,0.1,0,0.2l0,0c0,0.1,0.1,0.1,0.1,0.2s0.2,0.1,0.3,0.1s0.2,0.1,0.3,0.1s0.2,0.1,0.3,0.1
				c0.2,0,0.3,0.1,0.5,0.1c0.2,0.1,0.3,0.1,0.5,0.2c0.1,0.1,0.2,0.2,0.3,0.4c0.1,0.1,0.1,0.3,0.1,0.6c0,0.1,0,0.2,0,0.3
				c-0.1,0.3-0.2,0.6-0.4,0.8c-0.2,0.3-0.5,0.5-0.9,0.6l0,0c-0.3,0.2-0.7,0.3-1.1,0.4c-0.4,0.1-0.9,0.1-1.4,0.1
				c-0.6,0-1.1-0.1-1.5-0.2c-0.4-0.2-0.8-0.4-1.1-0.7c-0.1-0.2-0.2-0.3-0.3-0.5s-0.2-0.4-0.2-0.5c0-0.2-0.1-0.4-0.1-0.6s0-0.4,0-0.6
				s0.1-0.4,0.1-0.6s0.1-0.4,0.1-0.6s0.1-0.4,0.1-0.5c0-0.2,0.1-0.3,0.1-0.4s0.1-0.2,0.1-0.3c0-0.1,0-0.1,0-0.1l1,0.4
				c-0.1,0.2-0.1,0.4-0.2,0.6c-0.1,0.2-0.1,0.4-0.2,0.6c0,0.2-0.1,0.4-0.1,0.6s-0.1,0.4-0.1,0.6c0,0.1,0,0.2,0,0.3
				c0,0.1,0,0.2,0.1,0.3c0,0.1,0.1,0.2,0.1,0.3c0.1,0.1,0.1,0.2,0.2,0.3c0.2,0.2,0.4,0.3,0.7,0.4s0.6,0.1,1,0.1s0.7,0,1.1-0.1
				c0.3-0.1,0.6-0.1,0.9-0.2c0.2-0.1,0.4-0.2,0.6-0.3s0.2-0.3,0.2-0.4c0,0,0-0.1-0.1-0.1s-0.1,0-0.2-0.1c-0.1,0-0.2,0-0.3-0.1
				c-0.1,0-0.2,0-0.3-0.1c-0.2-0.1-0.5-0.1-0.7-0.2s-0.4-0.2-0.5-0.3c-0.2-0.1-0.3-0.3-0.4-0.5s-0.1-0.4-0.1-0.7
				c0-0.3,0.1-0.6,0.2-0.9c0.1-0.3,0.3-0.6,0.5-0.8c0.2-0.2,0.4-0.5,0.7-0.6C148.6,110.4,148.9,110.3,149.2,110.2z"/>
			<path d="M153.9,111.2c0.1,0.3,0.2,0.6,0.3,0.8c0,0.1,0.1,0.2,0.1,0.4c0,0.1,0.1,0.3,0.1,0.4s0,0.3,0.1,0.4s0,0.3,0,0.4
				c0,0.3,0,0.5-0.1,0.8c-0.1,0.2-0.2,0.5-0.3,0.7s-0.3,0.4-0.5,0.7c-0.2,0.2-0.4,0.4-0.6,0.6c-0.2,0.2-0.5,0.4-0.7,0.5
				c-0.3,0.2-0.5,0.3-0.8,0.4l-0.5-1c0.2-0.1,0.4-0.2,0.6-0.3c0.2-0.1,0.4-0.3,0.6-0.4c0.2-0.1,0.3-0.3,0.5-0.4
				c0.2-0.2,0.3-0.3,0.4-0.5c0.1-0.2,0.2-0.3,0.3-0.5s0.1-0.3,0.1-0.5s0-0.3-0.1-0.5c0-0.2-0.1-0.4-0.1-0.5
				c-0.1-0.2-0.1-0.4-0.2-0.5c-0.1-0.2-0.1-0.3-0.1-0.4L153.9,111.2z M154.1,109.4l-0.8,0.8l-0.8-0.8l0.8-0.8L154.1,109.4z"/>
			<path d="M157.4,114.1c-0.3,0-0.6,0-0.9-0.1c-0.2-0.1-0.4-0.2-0.6-0.4c-0.1-0.1-0.2-0.2-0.2-0.3s-0.1-0.2-0.1-0.4
				c0-0.1,0-0.2,0-0.3c0-0.1,0-0.2,0-0.3c0-0.1,0-0.2,0-0.5c0-0.2,0-0.5,0-0.8c0-0.2,0-0.4,0-0.6s0-0.4,0-0.6s0-0.4,0-0.6
				s0-0.4,0-0.6s0-0.4,0-0.6s0-0.3-0.1-0.5l1.1-0.3c0,0.2,0.1,0.4,0.1,0.6s0,0.5,0.1,0.8s0,0.5,0,0.8s0,0.5,0,0.8c0,0.1,0,0.2,0,0.2
				c0,0.1,0,0.2,0,0.3c0,0.1,0,0.2,0,0.2c0,0.1,0,0.1,0,0.2s0,0.2,0,0.3c0,0.1,0,0.2,0,0.3c0,0.1,0,0.2,0,0.3c0,0.1,0,0.2,0,0.3
				c0,0.1,0,0.2,0,0.3c0,0.1,0,0.2,0.1,0.2c0.1,0.1,0.3,0.2,0.6,0.2l0,0c0.1,0,0.1,0,0.2,0c0.1,0,0.1,0.1,0.2,0.1
				c0.1,0.1,0.1,0.1,0.1,0.2s0,0.1,0,0.2s0,0.2,0,0.2c0,0.1-0.1,0.1-0.1,0.2s-0.1,0.1-0.2,0.1C157.5,114.1,157.5,114.1,157.4,114.1z
				"/>
			<path d="M156.9,113.5c0-0.1,0-0.1,0-0.2s0.1-0.1,0.1-0.2s0.1-0.1,0.2-0.1c0.1,0,0.1-0.1,0.2-0.1c0.2,0,0.3,0,0.5-0.1
				c0.1-0.1,0.3-0.2,0.4-0.3c0.1-0.1,0.2-0.2,0.3-0.4c0.1-0.1,0.1-0.3,0.2-0.5c0.1-0.2,0.1-0.3,0.1-0.5s0.1-0.3,0.1-0.4l1.1,0.2
				c0,0.1-0.1,0.2-0.1,0.3c0,0.1-0.1,0.3-0.1,0.4s-0.1,0.3-0.1,0.4s0,0.3,0,0.4s0,0.2,0.1,0.3c0.1,0.1,0.1,0.1,0.3,0.1
				c0.1,0,0.2,0,0.4-0.1c0.1-0.1,0.2-0.2,0.3-0.3c0.1-0.1,0.2-0.3,0.2-0.4c0.1-0.2,0.1-0.3,0.2-0.5c0-0.2,0.1-0.3,0.1-0.5
				s0.1-0.3,0.1-0.4l1,0.2c0,0.1,0,0.2,0,0.3c0,0.1,0,0.2-0.1,0.3c0,0.1,0,0.2-0.1,0.3c0,0.1,0,0.2,0,0.4c0,0.1,0,0.2,0,0.3
				s0.1,0.2,0.1,0.2c0,0.1,0.1,0.1,0.2,0.2c0.1,0,0.2,0.1,0.3,0.1c0.2,0,0.4-0.1,0.5-0.2s0.2-0.3,0.2-0.5s0-0.3-0.1-0.5
				s-0.1-0.4-0.2-0.5s-0.1-0.3-0.2-0.5c-0.1-0.2-0.1-0.3-0.2-0.4l0.9-0.5c0,0,0,0.1,0.1,0.2s0.1,0.2,0.1,0.3c0,0.1,0.1,0.3,0.2,0.4
				c0.1,0.2,0.1,0.3,0.1,0.5s0.1,0.3,0.1,0.5s0,0.4,0,0.5c0,0.3,0,0.5-0.1,0.7s-0.2,0.4-0.4,0.6s-0.4,0.3-0.6,0.4
				c-0.2,0.1-0.5,0.1-0.8,0.1c-0.1,0-0.3,0-0.4-0.1s-0.2-0.1-0.3-0.2s-0.2-0.1-0.3-0.2s-0.1-0.2-0.2-0.3c-0.1,0.1-0.1,0.2-0.2,0.3
				s-0.2,0.2-0.3,0.2c-0.1,0.1-0.2,0.1-0.3,0.1s-0.3,0.1-0.4,0.1c-0.1,0-0.3,0-0.4,0c-0.1,0-0.2-0.1-0.3-0.1
				c-0.1-0.1-0.2-0.1-0.3-0.2s-0.1-0.2-0.2-0.3c-0.1,0.1-0.1,0.2-0.2,0.2c-0.1,0.1-0.2,0.1-0.3,0.2s-0.2,0.1-0.4,0.1
				c-0.1,0-0.3,0.1-0.5,0.1h-0.1c-0.1,0-0.1,0-0.2,0c-0.1,0-0.1-0.1-0.2-0.1c0-0.1-0.1-0.1-0.1-0.2
				C156.9,113.7,156.9,113.6,156.9,113.5z"/>
			<path d="M166.1,112.6c-0.1,0.1-0.2,0.3-0.2,0.4c-0.1,0.1-0.1,0.3-0.2,0.5c0,0.2-0.1,0.5-0.1,0.8c0,0.2,0,0.3,0.1,0.5
				c0.1,0.1,0.1,0.3,0.2,0.4c0.1,0.1,0.2,0.2,0.3,0.3c0.1,0.1,0.2,0.1,0.3,0.2s0.2,0.1,0.4,0.1c0.1,0,0.2,0,0.3,0c0,0,0,0,0.1,0
				c0,0,0,0,0.1,0c0.2,0,0.4,0,0.6-0.1c0.2-0.1,0.4-0.2,0.6-0.3c0.2-0.1,0.3-0.3,0.5-0.6s0.2-0.5,0.2-0.8c0-0.2,0-0.5,0-0.8
				s0-0.6,0-1c0-0.3,0-0.7,0-1.1s0-0.7-0.1-1.1c0-0.8-0.1-1.7-0.1-2.6l1.1-0.2c0,0.9,0.1,1.8,0.1,2.7c0,0.4,0,0.7,0,1.1s0,0.8,0,1.1
				c0,0.4,0,0.7,0,1s0,0.6,0,0.8c0,0.4,0,0.7-0.1,1s-0.2,0.5-0.4,0.8c-0.2,0.2-0.3,0.4-0.5,0.5c-0.2,0.2-0.4,0.3-0.6,0.4
				c-0.2,0.1-0.4,0.2-0.7,0.2s-0.4,0.1-0.6,0.1h-0.1h-0.1c-0.2,0-0.4,0-0.6-0.1s-0.4-0.1-0.6-0.2s-0.4-0.2-0.5-0.3
				c-0.2-0.1-0.3-0.3-0.5-0.5s-0.2-0.4-0.3-0.6s-0.1-0.5-0.1-0.8c0-0.4,0-0.7,0.1-1s0.1-0.5,0.2-0.7c0.1-0.2,0.2-0.4,0.3-0.5
				L166.1,112.6z"/>
			<path d="M173.7,114.1c-0.3,0-0.6,0-0.9-0.1c-0.2-0.1-0.4-0.2-0.6-0.4c-0.1-0.1-0.2-0.2-0.2-0.3s-0.1-0.2-0.1-0.4
				c0-0.1,0-0.2,0-0.3c0-0.1,0-0.2,0-0.3c0-0.1,0-0.2,0-0.5c0-0.2,0-0.5,0-0.8c0-0.2,0-0.4,0-0.6s0-0.4,0-0.6s0-0.4,0-0.6
				s0-0.4,0-0.6s0-0.4,0-0.6s0-0.3-0.1-0.5l1.1-0.3c0,0.2,0.1,0.4,0.1,0.6s0,0.5,0.1,0.8s0,0.5,0,0.8s0,0.5,0,0.8c0,0.1,0,0.2,0,0.2
				c0,0.1,0,0.2,0,0.3c0,0.1,0,0.2,0,0.2c0,0.1,0,0.1,0,0.2s0,0.2,0,0.3c0,0.1,0,0.2,0,0.3c0,0.1,0,0.2,0,0.3c0,0.1,0,0.2,0,0.3
				c0,0.1,0,0.2,0,0.3c0,0.1,0,0.2,0.1,0.2c0.1,0.1,0.3,0.2,0.6,0.2l0,0c0.1,0,0.1,0,0.2,0c0.1,0,0.1,0.1,0.2,0.1
				c0.1,0.1,0.1,0.1,0.1,0.2s0,0.1,0,0.2s0,0.2,0,0.2c0,0.1-0.1,0.1-0.1,0.2s-0.1,0.1-0.2,0.1C173.8,114.1,173.7,114.1,173.7,114.1z
				"/>
			<path d="M178.6,113c0.1,0,0.1,0,0.2,0c0.1,0,0.1,0.1,0.2,0.1c0.1,0.1,0.1,0.1,0.1,0.2s0,0.1,0,0.2s0,0.2,0,0.2
				c0,0.1-0.1,0.1-0.1,0.2c-0.1,0-0.1,0.1-0.2,0.1c-0.1,0-0.1,0-0.2,0c-0.2,0-0.5,0-0.7,0s-0.4,0-0.6-0.1c-0.2,0-0.4-0.1-0.6-0.2
				c-0.2-0.1-0.3-0.2-0.5-0.3c-0.2,0.1-0.3,0.2-0.6,0.3c-0.2,0.1-0.4,0.1-0.7,0.2c-0.2,0-0.5,0.1-0.7,0.1s-0.5,0-0.7,0
				c-0.1,0-0.1,0-0.2,0s-0.1-0.1-0.2-0.1c-0.1,0-0.1-0.1-0.1-0.2s0-0.1,0-0.2s0-0.2,0-0.2c0-0.1,0.1-0.1,0.1-0.2s0.1-0.1,0.2-0.1
				s0.1,0,0.2,0c0.1,0,0.3,0,0.4,0s0.3,0,0.4,0c0.1,0,0.3,0,0.4-0.1c0.1,0,0.2-0.1,0.4-0.1c-0.1-0.1-0.2-0.2-0.3-0.3
				c-0.1-0.1-0.2-0.2-0.3-0.3c-0.1-0.1-0.2-0.2-0.3-0.3c-0.1-0.1-0.2-0.2-0.4-0.3l0.1-0.9c0.2-0.1,0.3-0.3,0.5-0.4s0.3-0.2,0.5-0.2
				c0.2-0.1,0.3-0.1,0.5-0.1s0.3-0.1,0.4-0.1c0.1,0,0.3,0,0.4,0s0.3,0,0.4,0s0.3,0,0.4,0.1c0.1,0,0.3,0.1,0.4,0.1
				c0.2,0.1,0.3,0.2,0.4,0.2s0.2,0.2,0.2,0.3c0.1,0.1,0.1,0.2,0.1,0.3c0,0.1,0,0.2,0,0.2c0,0.1,0,0.3-0.1,0.4
				c-0.1,0.2-0.1,0.3-0.2,0.5c-0.1,0.2-0.2,0.3-0.3,0.5s-0.3,0.3-0.4,0.4c0.2,0,0.4,0.1,0.6,0.1C178.2,112.9,178.4,113,178.6,113z
				 M175.1,111.1c0.1,0.1,0.2,0.2,0.3,0.4c0.1,0.1,0.2,0.2,0.3,0.3c0.1,0.1,0.2,0.2,0.3,0.3s0.2,0.2,0.2,0.2
				c0.1-0.1,0.2-0.2,0.3-0.3c0.1-0.1,0.2-0.2,0.4-0.3s0.2-0.2,0.3-0.4c0.1-0.1,0.1-0.2,0.2-0.3c-0.1,0-0.1-0.1-0.2-0.1
				c-0.1,0-0.2-0.1-0.3-0.1s-0.2,0-0.3-0.1c-0.1,0-0.2,0-0.3,0s-0.2,0-0.3,0s-0.2,0-0.3,0.1c-0.1,0-0.2,0.1-0.3,0.1
				C175.2,111,175.1,111,175.1,111.1z"/>
			<path d="M178,113.5c0-0.1,0-0.2,0-0.2c0-0.1,0.1-0.1,0.1-0.2s0.1-0.1,0.2-0.1c0.1,0,0.1,0,0.2,0c0.3,0,0.6,0,0.8,0
				c0.3,0,0.5-0.1,0.8-0.1c0.2,0,0.4-0.1,0.6-0.1s0.3-0.1,0.4-0.1h-0.4c-0.2,0-0.3,0-0.5,0s-0.3-0.1-0.4-0.1
				c-0.1-0.1-0.3-0.1-0.4-0.2s-0.2-0.2-0.3-0.3c-0.1-0.1-0.1-0.2-0.2-0.4c-0.1-0.2-0.1-0.3-0.1-0.6c0-0.1,0-0.2,0-0.3
				c0-0.2,0.1-0.4,0.2-0.6c0.1-0.2,0.2-0.4,0.3-0.5l0,0c0.1-0.2,0.3-0.3,0.5-0.4s0.4-0.1,0.6-0.1c0.2,0,0.4,0.1,0.6,0.2
				c0.2,0.1,0.4,0.2,0.5,0.4c0.1,0.1,0.2,0.3,0.3,0.5s0.2,0.4,0.2,0.6c0.1,0.2,0.1,0.4,0.2,0.6c0,0.2,0.1,0.4,0.1,0.6
				c0,0.1,0,0.1,0,0.2s0,0.1,0,0.2c0,0.3-0.1,0.5-0.2,0.7c-0.1,0.2-0.3,0.4-0.4,0.5s-0.4,0.3-0.6,0.4s-0.5,0.2-0.7,0.2
				s-0.5,0.1-0.8,0.1s-0.6,0-0.9,0h-0.1c-0.1,0-0.2,0-0.2,0s-0.1-0.1-0.2-0.1s-0.1-0.1-0.1-0.2C178.1,113.7,178,113.6,178,113.5z
				 M181.2,107.6l-0.8,0.8l-0.8-0.8l0.8-0.8L181.2,107.6z M180.5,110c-0.1,0-0.1,0-0.2,0c-0.1,0-0.1,0.1-0.2,0.1s-0.1,0.1-0.2,0.2
				c-0.1,0.1-0.1,0.2-0.1,0.3s0,0.2,0,0.3c0,0.1,0,0.2,0.1,0.3l0.1,0.1c0.1,0,0.1,0,0.2,0.1s0.2,0,0.2,0c0.1,0,0.2,0,0.2,0
				c0.1,0,0.2,0,0.4,0s0.2,0,0.3,0c0-0.1-0.1-0.2-0.1-0.4c0-0.2-0.1-0.3-0.2-0.5c-0.1-0.1-0.2-0.3-0.3-0.4
				C180.7,110.1,180.6,110.1,180.5,110z"/>
		</g>
	</g>
</g>
</svg>
