<?xml version="1.0" encoding="utf-8"?>
<!-- Generator: Adobe Illustrator 22.1.0, SVG Export Plug-In . SVG Version: 6.00 Build 0)  -->
<svg version="1.1" id="Layer_1" xmlns="http://www.w3.org/2000/svg" xmlns:xlink="http://www.w3.org/1999/xlink" x="0px" y="0px"
	 viewBox="0 0 120 120" style="enable-background:new 0 0 120 120;" xml:space="preserve">
<g>
	<g>
		<path style="fill:#194173;" d="M92.8,59.3l-0.5-0.6l-0.5-0.5l-5.5-6.5l-7.3,8.7l-1.2,1.4l-0.3,0.4l-3.7,4.4l-1.3-1.7l0,0L71.9,64L56.6,44
			L35.2,70.5h67.3L92.8,59.3z M92.8,59.3l-0.5-0.6l-0.5-0.5l-5.5-6.5l-7.3,8.7l-1.2,1.4l-0.3,0.4l-3.7,4.4l-1.3-1.7l0,0L71.9,64
			L56.6,44L35.2,70.5h67.3L92.8,59.3z M92.8,59.3l-0.5-0.6l-0.5-0.5l-5.5-6.5l-7.3,8.7l-1.2,1.4l-0.3,0.4l-3.7,4.4l-1.3-1.7l0,0
			L71.9,64L56.6,44L35.2,70.5h67.3L92.8,59.3z M92.8,59.3l-0.5-0.6l-0.5-0.5l-5.5-6.5l-7.3,8.7l-1.2,1.4l-0.3,0.4l-3.7,4.4l-1.3-1.7
			l0,0L71.9,64L56.6,44L35.2,70.5h67.3L92.8,59.3z M92.8,59.3l-0.5-0.6l-0.5-0.5l-5.5-6.5l-7.3,8.7l-1.2,1.4l-0.3,0.4l-3.7,4.4
			l-1.3-1.7l0,0L71.9,64L56.6,44L35.2,70.5h67.3L92.8,59.3z M92.8,59.3l-0.5-0.6l-0.5-0.5l-5.5-6.5l-7.3,8.7l-1.2,1.4l-0.3,0.4
			l-3.7,4.4l-1.3-1.7l0,0L71.9,64L56.6,44L35.2,70.5h67.3L92.8,59.3z M92.8,59.3l-0.5-0.6l-0.5-0.5l-5.5-6.5l-7.3,8.7l-1.2,1.4
			l-0.3,0.4l-3.7,4.4l-1.3-1.7l0,0L71.9,64L56.6,44L35.2,70.5h67.3L92.8,59.3z M92.8,59.3l-0.5-0.6l-0.5-0.5l-5.5-6.5l-7.3,8.7
			l-1.2,1.4l-0.3,0.4l-3.7,4.4l-1.3-1.7l0,0L71.9,64L56.6,44L35.2,70.5h67.3L92.8,59.3z M92.8,59.3l-0.5-0.6l-0.5-0.5l-5.5-6.5
			l-7.3,8.7l-1.2,1.4l-0.3,0.4l-3.7,4.4l-1.3-1.7l0,0L71.9,64L56.6,44L35.2,70.5h67.3L92.8,59.3z M109,17.6H82.2
			c-1.2,0-2.4-0.6-3-1.8L71.5,3.3c-0.6-1.2-1.8-1.8-3-1.8H28.6c-4.8,0-8.9,4.2-9.5,8.9v68.9c0,5.4,4.2,9.5,9.5,9.5H109
			c5.4,0,9.5-4.2,9.5-9.5V26.5C118.5,21.1,114.3,17,109,17.6z M110.2,76.9c0,1.8-1.2,3-3,3H31c-1.8,0-3-1.2-3-3V12.8
			c0-1.2,1.2-3,3-3h32.1c1.2,0,2.4,0.6,3,1.8l7.7,12.5c0.6,1.2,1.8,1.8,3,1.2h30.4c1.8,0,3,1.2,3,3V76.9z M92.3,58.7l-0.5-0.5
			l-5.5-6.5l-7.3,8.7l-1.2,1.4l-0.3,0.4l-3.7,4.4l-1.3-1.7l0,0L71.9,64L56.6,44L35.2,70.5h67.3l-9.6-11.3L92.3,58.7z M92.8,59.3
			l-0.5-0.6l-0.5-0.5l-5.5-6.5l-7.3,8.7l-1.2,1.4l-0.3,0.4l-3.7,4.4l-1.3-1.7l0,0L71.9,64L56.6,44L35.2,70.5h67.3L92.8,59.3z
			 M92.8,59.3l-0.5-0.6l-0.5-0.5l-5.5-6.5l-7.3,8.7l-1.2,1.4l-0.3,0.4l-3.7,4.4l-1.3-1.7l0,0L71.9,64L56.6,44L35.2,70.5h67.3
			L92.8,59.3z M92.8,59.3l-0.5-0.6l-0.5-0.5l-5.5-6.5l-7.3,8.7l-1.2,1.4l-0.3,0.4l-3.7,4.4l-1.3-1.7l0,0L71.9,64L56.6,44L35.2,70.5
			h67.3L92.8,59.3z M92.8,59.3l-0.5-0.6l-0.5-0.5l-5.5-6.5l-7.3,8.7l-1.2,1.4l-0.3,0.4l-3.7,4.4l-1.3-1.7l0,0L71.9,64L56.6,44
			L35.2,70.5h67.3L92.8,59.3z M92.8,59.3l-0.5-0.6l-0.5-0.5l-5.5-6.5l-7.3,8.7l-1.2,1.4l-0.3,0.4l-3.7,4.4l-1.3-1.7l0,0L71.9,64
			L56.6,44L35.2,70.5h67.3L92.8,59.3z M92.8,59.3l-0.5-0.6l-0.5-0.5l-5.5-6.5l-7.3,8.7l-1.2,1.4l-0.3,0.4l-3.7,4.4l-1.3-1.7l0,0
			L71.9,64L56.6,44L35.2,70.5h67.3L92.8,59.3z M92.8,59.3l-0.5-0.6l-0.5-0.5l-5.5-6.5l-7.3,8.7l-1.2,1.4l-0.3,0.4l-3.7,4.4l-1.3-1.7
			l0,0L71.9,64L56.6,44L35.2,70.5h67.3L92.8,59.3z M92.8,59.3l-0.5-0.6l-0.5-0.5l-5.5-6.5l-7.3,8.7l-1.2,1.4l-0.3,0.4l-3.7,4.4
			l-1.3-1.7l0,0L71.9,64L56.6,44L35.2,70.5h67.3L92.8,59.3z M97.7,99.5c-0.8-0.8-1.8-1.2-3-1.2H14.6c-2.7,0-4.8-2.2-4.8-4.8V30.7
			c0-2.3-1.9-4.2-4.2-4.2c-2.3,0-4.2,1.9-4.2,4.2v66.4c0,5.3,4.3,9.5,9.5,9.5h83.5c2.4,0,4.5-2,4.4-4.4
			C98.8,101.1,98.3,100.2,97.7,99.5z M92.8,59.3l-0.5-0.6l-0.5-0.5l-5.5-6.5l-7.3,8.7l-1.2,1.4l-0.3,0.4l-3.7,4.4l-1.3-1.7l0,0
			L71.9,64L56.6,44L35.2,70.5h67.3L92.8,59.3z"/>
		<path style="fill:#0B2B53;" d="M92.8,59.3l-0.5-0.6H92c-5.1,0-9.8,1.1-14.1,3.1l-0.3,0.4l-3.7,4.4l-1.3-1.7l0,0c-2.3,1.6-4.3,3.5-6.1,5.6h36
			L92.8,59.3z M110.2,64.1v12.8c0,1.8-1.2,3-3,3H60.9c-1.1,2.8-1.8,5.8-2.1,8.9H109c5.4,0,9.5-4.2,9.5-9.5v-7.4
			C116.2,68.8,113.4,66.2,110.2,64.1z M97.7,99.5c-0.8-0.8-1.8-1.2-3-1.2H59.3c0.6,2.9,1.5,5.7,2.8,8.3h32.4c2.4,0,4.5-2,4.4-4.4
			C98.8,101.1,98.3,100.2,97.7,99.5z"/>
		<path style="fill:#08203F;" d="M94.7,108.1H11c-6.1,0-11-4.9-11-11l0-66.2c0-3,2.2-5.6,5.1-5.9c3.4-0.3,6.2,2.3,6.2,5.6v62.8
			c0,1.8,1.5,3.3,3.3,3.3l79.8,0c3,0,5.6,2.2,5.9,5.1C100.7,105.2,98,108.1,94.7,108.1z M5.1,28C3.8,28.3,3,29.5,3,30.8
			c0,8,0,48.8,0,66.3c0,4.4,3.6,8,8,8l83.6,0c1.3,0,2.5-0.9,2.7-2.1c0.3-1.7-1-3.2-2.6-3.2H14.6c-3.5,0-6.3-2.8-6.3-6.3V30.7
			C8.3,29,6.8,27.7,5.1,28z M109,90.3H28.6c-6.2,0-11-4.8-11-11l0-69C18.3,4.6,23.3,0,28.6,0h39.9c1.8,0,3.5,1,4.3,2.5l7.8,12.6
			c0.3,0.6,0.9,1,1.6,1h26.7c2.9-0.3,5.6,0.6,7.6,2.4c2.2,2,3.5,4.9,3.5,8v52.8C120,85.4,115.2,90.3,109,90.3z M20.6,10.5v68.8
			c0,4.5,3.5,8,8,8H109c4.5,0,8-3.5,8-8V26.5c0-2.3-0.9-4.4-2.5-5.8c-1.5-1.3-3.4-1.9-5.4-1.7l-0.2,0H82.2c-1.8,0-3.5-1-4.3-2.5
			L70.2,3.9c-0.3-0.6-0.9-1-1.6-1H28.6C24.8,3,21.1,6.4,20.6,10.5z M107.2,81.4H31c-2.6,0-4.5-1.9-4.5-4.5V12.8
			c0-2.1,1.9-4.5,4.5-4.5h32.1c1.8,0,3.5,1,4.3,2.5l7.8,12.6c0.1,0.3,0.3,0.5,0.5,0.6c0.1,0,0.2,0.1,0.5,0l0.3-0.2h30.7
			c2.6,0,4.5,1.8,4.5,4.5v48.6C111.7,79.5,109.8,81.4,107.2,81.4z M31,11.3c-0.9,0-1.5,1.1-1.5,1.5v64.1c0,1,0.5,1.5,1.5,1.5h76.2
			c1,0,1.5-0.5,1.5-1.5V28.3c0-1-0.5-1.5-1.5-1.5H77.1c-0.9,0.3-1.8,0.3-2.6,0c-0.8-0.4-1.5-1-2-1.9l-7.8-12.6c-0.3-0.6-0.9-1-1.6-1
			H31z M105.7,72H32.1l24.6-30.5l17.3,22.7l12.4-14.8L105.7,72z M38.3,69.1h60.9L86.4,54L73.8,69L56.6,46.4L38.3,69.1z"/>
	</g>
	<g>
		<path style="fill:#E5E5E5;" d="M92,65.5c14.6,0,26.5,11.9,26.5,26.5s-11.9,26.5-26.5,26.5S65.5,106.6,65.5,92S77.3,65.5,92,65.5z"/>
		<path style="fill:#08203F;" d="M92,120c-15.5,0-28-12.6-28-28s12.6-28,28-28s28,12.5,28,28S107.4,120,92,120z M92,67c-13.8,0-25,11.2-25,25
			s11.2,25,25,25s25-11.2,25-25S105.8,67,92,67z"/>
		<path style="fill:#08203F;" d="M109.9,92c0,1.3-1.1,2.5-2.5,2.5H94.5v13c0,1.3-1.1,2.5-2.5,2.5c-1.4,0-2.5-1.1-2.5-2.5v-13H76.6
			c-1.3,0-2.5-1.1-2.5-2.5c0-1.4,1.1-2.5,2.5-2.5h13V76.6c0-1.3,1.1-2.5,2.5-2.5c1.4,0,2.5,1.1,2.5,2.5v13h13
			C108.8,89.5,109.9,90.7,109.9,92z"/>
	</g>
</g>
</svg>
