<?xml version="1.0" encoding="utf-8"?>
<!-- Generator: Adobe Illustrator 22.1.0, SVG Export Plug-In . SVG Version: 6.00 Build 0)  -->
<svg version="1.1" id="Layer_1" xmlns="http://www.w3.org/2000/svg" xmlns:xlink="http://www.w3.org/1999/xlink" x="0px" y="0px"
	 viewBox="0 0 24 24" style="enable-background:new 0 0 24 24;" xml:space="preserve">
<style type="text/css">
	.st0{fill:none;}
	.st1{fill:#F9F9F9;}
</style>
<g id="release" transform="translate(-20 -274)">
	<g id="release-2" transform="translate(0 37)">
		<g id="rocket" transform="translate(20 237)">
			<g id="Group_679" transform="translate(0 0.1)">
				<path class="st0" d="M0-0.1h24v24H0V-0.1z"/>
				<path class="st1" d="M23.1,1.2H4C3.6,1.2,3.2,1.5,3.2,2v2.3H0.8C0.3,4.3,0,4.8,0,5.1v15c0,1.3,1.1,2.4,2.4,2.4h19.2
					c1.3,0,2.4-1.1,2.4-2.4V2C23.9,1.6,23.6,1.2,23.1,1.2z M22.4,2.7V20c0,0.5-0.4,0.9-0.9,0.9H4.6c0.1-0.3,0.2-0.6,0.2-0.9V2.7
					H22.4z M3.2,7.4H2.4C2,7.4,1.6,7.8,1.6,8.3v2.4c0,0.4,0.3,0.8,0.8,0.8h0.9v1.2H2.4c-0.4,0-0.8,0.3-0.8,0.8
					c0,0.4,0.3,0.8,0.8,0.8h0.9v1.2H2.4c-0.4,0-0.8,0.3-0.8,0.8c0,0.4,0.3,0.8,0.8,0.8h0.9v1.2H2.4c-0.4,0-0.8,0.3-0.8,0.8
					c0,0.4,0.3,0.8,0.8,0.8h0.9v0.7c0,0.5-0.4,0.9-0.9,0.9s-0.9-0.4-0.9-0.9V5.8h1.7C3.2,5.8,3.2,7.4,3.2,7.4z M3.2,8.9v0.9H3.1
					L3.2,8.9L3.2,8.9z M19.9,5.9c-0.4-0.4-1-0.4-1.4,0l-4.9,4.9L8.8,5.9c-0.4-0.4-1-0.4-1.4,0s-0.4,1,0,1.4l4.9,4.9l-4.9,4.9
					c-0.4,0.4-0.4,1,0,1.4s1,0.4,1.4,0l4.9-4.9l4.9,4.9c0.4,0.4,1,0.4,1.4,0s0.4-1,0-1.4L15,12.3l4.9-4.9
					C20.3,6.9,20.3,6.3,19.9,5.9z"/>
			</g>
		</g>
	</g>
</g>
</svg>
