<?xml version="1.0" encoding="utf-8"?>
<!-- Generator: Adobe Illustrator 22.1.0, SVG Export Plug-In . SVG Version: 6.00 Build 0)  -->
<svg version="1.1" id="Layer_1" xmlns="http://www.w3.org/2000/svg" xmlns:xlink="http://www.w3.org/1999/xlink" x="0px" y="0px"
	 viewBox="0 0 355 275" style="enable-background:new 0 0 355 275;" xml:space="preserve">
<style type="text/css">
	.st0{fill:#2F2445;}
	.st1{fill:#C9C9C9;}
</style>
<g id="_3._Better_Communicate" transform="translate(0 5.023)">
	<path class="st0" d="M80.1,226.5L80,267c0,1.7-1.7,3.1-3.8,3c-2.1-0.1-3.8-1.5-3.8-3.2l0.1-40.6c0-0.1,0-0.1,0-0.2
		c0.1-1.6,1.8-2.8,3.8-2.8C78.2,223.3,80.1,224.8,80.1,226.5z M45.6,223.6c-1.8-0.8-4-0.2-5.1,1.4l-21.9,36.5
		c-0.2,0.4-0.4,0.9-0.4,1.3c0.1,1.3,0.9,2.4,2.2,2.8c1.8,0.8,4,0.2,5.1-1.4l21.9-36.5C48.3,226.2,47.5,224.3,45.6,223.6z M112,225
		c-1.2-1.6-3.3-2.2-5.1-1.4c-1.2,0.4-2.1,1.5-2.2,2.8h0c0,0.5,0.1,0.9,0.4,1.3l21.9,36.5c1.2,1.6,3.3,2.2,5.1,1.4
		c1.9-0.7,2.7-2.6,1.8-4.1L112,225z M350,53.9c-2.8,0-5,2.2-5,5c0,16.8-5,29.9-14.7,39c-18,16.7-46.6,14.8-46.9,14.8
		c-0.1,0-0.3,0-0.4,0c0,0,0,0-0.1,0c-25.8,0-44.1-9.2-54.3-27.4c-7.8-13.9-7.9-28.1-7.9-28.3c0-0.2,0-0.3,0-0.5
		c-3.4-34.8-24.2-49.7-41.2-56c-17-6.4-33.2-5.5-35.4-5.3c-34.6,0.1-52.6,18.5-61.7,34c-6.2,10.6-9,21.1-10.3,27.5H27.3
		c-2.6,0-4.8,2.1-4.8,4.8c0,2.6,2.1,4.8,4.8,4.8h1.3c-8.5,44.1-13.8,89.3-22.2,133.4H4.8c-2.6,0-4.8,2.1-4.8,4.8c0,0,0,0,0,0
		c0,2.6,2.1,4.8,4.8,4.8h142.7c2.6,0,4.8-2.1,4.8-4.8c0-2.6-2.1-4.8-4.8-4.8h-1.5c-8.5-44.1-13.8-89.3-22.2-133.4h1.3
		c2.6,0,4.8-2.1,4.8-4.8c0-2.6-2.1-4.8-4.8-4.8H82.4c1.3-5.7,3.8-14.1,8.7-22.4c11.3-19.3,29.2-29.1,53.3-29.1c0.1,0,0.3,0,0.4,0
		c0.2,0,15.4-1.2,31.2,4.7c20.7,7.7,32.3,23.7,34.7,47.4c0,3.1,0.9,28,19.2,46.3c12.6,12.7,30.4,19.1,52.8,19.2
		c0.5,0,1.9,0.1,3.8,0.1c9.5,0,33.4-1.7,50.4-17.5c11.9-11.1,18-26.7,18-46.4C355,56.2,352.8,53.9,350,53.9z"/>
	<path class="st1" d="M104.8,117.6c2.2,0,4,1.8,4,4s-1.8,4-4,4c-2.2,0-4-1.8-4-4C100.8,119.4,102.6,117.6,104.8,117.6
		C104.8,117.6,104.8,117.6,104.8,117.6z M48.1,117.6c2.2,0,4,1.8,4,4c0,2.2-1.8,4-4,4s-4-1.8-4-4c0-1.1,0.4-2.1,1.2-2.8
		C46,118,47,117.6,48.1,117.6z M76.4,148.5c-5.5,0-10-2.1-10.9-5c-0.2-0.7,0.1-1.4,0.8-1.6c0.7-0.2,1.4,0.1,1.6,0.8c0,0,0,0,0,0.1
		c0.5,1.5,3.8,3.2,8.5,3.2s8-1.7,8.5-3.2c0.2-0.7,0.9-1.1,1.5-0.9s1.1,0.9,0.9,1.5c0,0,0,0,0,0.1C86.5,146.4,82,148.5,76.4,148.5z"
		/>
</g>
</svg>
