<?xml version="1.0" encoding="utf-8"?>
<!-- Generator: Adobe Illustrator 22.1.0, SVG Export Plug-In . SVG Version: 6.00 Build 0)  -->
<svg version="1.1" id="Layer_1" xmlns="http://www.w3.org/2000/svg" xmlns:xlink="http://www.w3.org/1999/xlink" x="0px" y="0px"
	 viewBox="0 0 350 350" style="enable-background:new 0 0 350 350;" xml:space="preserve">
<style type="text/css">
	.st0{fill:none;}
	.st1{fill:#08203F;}
	.st2{fill:#FFFFFF;}
	.st3{fill:#E5E5E5;}
</style>
<g>
	<path class="st0" d="M0,0h350v350H0V0z"/>
	<g>
		<path class="st1" d="M197.5,198.9v105.5c0,3.2-2.6,5.8-5.8,5.8H35.8c-1.5,0-3,0.6-4.1,1.7L9.9,333.7c-3.6,3.6-9.9,1.1-9.9-4.1
			v-19.4V198.9c0-3.2,2.6-5.8,5.8-5.8h185.9C194.9,193.2,197.5,195.7,197.5,198.9z"/>
		<path class="st2" d="M131.5,238.4c2.5,0,4.6,2.1,4.6,4.6s-2.1,4.6-4.6,4.6s-4.6-2.1-4.6-4.6S129,238.4,131.5,238.4L131.5,238.4z
			 M66,238.4c2.5,0,4.6,2.1,4.6,4.6s-2.1,4.6-4.6,4.6c-2.5,0-4.6-2.1-4.6-4.6c0-1.3,0.5-2.4,1.4-3.2C63.6,238.8,64.7,238.4,66,238.4
			z M98.7,274.1c-6.4,0-11.6-2.4-12.6-5.8c-0.2-0.8,0.1-1.6,0.9-1.8c0.8-0.2,1.6,0.1,1.8,0.9c0,0,0,0,0,0.1c0.6,1.7,4.4,3.7,9.8,3.7
			c5.4,0,9.2-2,9.8-3.7c0.2-0.8,1-1.3,1.7-1c0.7,0.2,1.3,1,1,1.7c0,0,0,0,0,0.1C110.4,271.6,105.2,274.1,98.7,274.1z"/>
		<path class="st3" d="M343.3,172.3c3.6,3.3,1.4,9.3-3.5,9.5h-73.4c-46.2,0-83.6-37.4-83.6-83.6c0-46.2,37.4-83.6,83.6-83.6
			S350,52,350,98.2c0,24.8-10.8,47.1-28,62.4L343.3,172.3z"/>
		<path class="st1" d="M239.7,91.5c0,2.4-2,4.4-4.4,4.4c-2.4,0-4.4-2-4.4-4.4c0-2.4,2-4.4,4.4-4.4l0,0
			C237.7,87.2,239.7,89.1,239.7,91.5z M301.9,91.5c0,2.4-2,4.4-4.4,4.4c-2.4,0-4.4-2-4.4-4.4c0-2.4,2-4.4,4.4-4.4l0,0
			C299.9,87.2,301.9,89.1,301.9,91.5z M278.3,115.5c-0.5,3.1-2.7,9.9-12,9.9c-9.3,0-11.5-6.8-12-9.9c-0.1-0.7,0.4-1.5,1.1-1.6
			c0.1,0,0.1,0,0.2,0H277c0.8,0,1.4,0.6,1.4,1.4C278.3,115.3,278.3,115.4,278.3,115.5L278.3,115.5z"/>
	</g>
</g>
</svg>
