<svg xmlns="http://www.w3.org/2000/svg" viewBox="0 0 498.21 453.11"><defs><style>.cls-1{fill:#616e7d;}.cls-2{fill:#aad4c8;}.cls-3{fill:#82bfab;}.cls-4{fill:#fff;}</style></defs><title>Asset 1</title><g id="Layer_2" data-name="Layer 2"><g id="Object"><path class="cls-1" d="M0,422.21a30.9,30.9,0,0,0,30.89,30.9H467.33a30.9,30.9,0,0,0,30.88-30.9V166.66H0Zm259.63-56.37a18.06,18.06,0,0,1,1-4.67,6,6,0,0,1,1.54-2.52,3.16,3.16,0,0,1,2.07-.73,10.82,10.82,0,0,1,4.52,1.69,77.57,77.57,0,0,0,8,3.78,79.83,79.83,0,0,0,12.05,3.78,74.27,74.27,0,0,0,17,1.7,63.5,63.5,0,0,0,15.62-1.78,30.71,30.71,0,0,0,11.91-5.7,26.24,26.24,0,0,0,7.56-9.84,34.43,34.43,0,0,0,2.65-14.21,34.08,34.08,0,0,0-2.21-12.66,22.79,22.79,0,0,0-7-9.4,31.64,31.64,0,0,0-12.29-5.78,75.46,75.46,0,0,0-18.36-1.93,123.75,123.75,0,0,0-15.61.9,106.42,106.42,0,0,1-13.25.88c-2.86,0-4.91-.71-6.15-2.15s-1.84-4.07-1.84-7.91V216.08c0-4,.74-6.78,2.28-8.51s4-2.59,7.33-2.59h90.76a4.13,4.13,0,0,1,2.52.88,6.82,6.82,0,0,1,2,2.82,19.31,19.31,0,0,1,1.18,5.11,71.58,71.58,0,0,1,.36,7.62q0,8.88-1.54,12.88c-1,2.66-2.55,4-4.52,4h-68.1v41c3.45-.4,6.88-.64,10.29-.74s7-.15,10.73-.15a95.84,95.84,0,0,1,27.6,3.63,55.23,55.23,0,0,1,20.29,10.66,45.08,45.08,0,0,1,12.51,17.47q4.29,10.43,4.29,24.2a68,68,0,0,1-5.39,27.77,56.9,56.9,0,0,1-15.26,20.57,68.15,68.15,0,0,1-23.69,12.81A100.31,100.31,0,0,1,309.8,400a122.67,122.67,0,0,1-16.87-1.11A120.15,120.15,0,0,1,278.58,396a84.11,84.11,0,0,1-10.45-3.41,21.52,21.52,0,0,1-5.32-2.82,7,7,0,0,1-1.86-2.44,14.86,14.86,0,0,1-.95-3.18,32.65,32.65,0,0,1-.54-4.67q-.12-2.81-.12-6.65A69.61,69.61,0,0,1,259.63,365.84ZM113.48,241a15.31,15.31,0,0,1,.76-3.93,7.13,7.13,0,0,1,1.63-2.66,19.24,19.24,0,0,1,2.8-2.22l41.15-26.65a6.51,6.51,0,0,1,1.88-1,15.07,15.07,0,0,1,2.88-.6c1.17-.14,2.73-.24,4.65-.29s4.43-.07,7.5-.07q5.61,0,9.09.22a25,25,0,0,1,5.26.74,4,4,0,0,1,2.37,1.41,3.86,3.86,0,0,1,.58,2.22V366.5h31.25a4,4,0,0,1,2.44.81,6.32,6.32,0,0,1,1.91,2.59,15.62,15.62,0,0,1,1.2,4.67,59.31,59.31,0,0,1,.37,7.18,46.71,46.71,0,0,1-.44,7,17,17,0,0,1-1.26,4.59,6.25,6.25,0,0,1-1.87,2.44,3.86,3.86,0,0,1-2.35.75H119.56a3.7,3.7,0,0,1-2.2-.75,6.14,6.14,0,0,1-1.86-2.44,17,17,0,0,1-1.26-4.59,46.42,46.42,0,0,1-.46-7,59.06,59.06,0,0,1,.38-7.18,16.25,16.25,0,0,1,1.2-4.67,6.71,6.71,0,0,1,1.84-2.59,3.71,3.71,0,0,1,2.36-.81h35.69V241.84l-30.8,17a22.38,22.38,0,0,1-5.55,2,3.62,3.62,0,0,1-3.4-.88,7.87,7.87,0,0,1-1.72-4.37,65.43,65.43,0,0,1-.43-8.73C113.35,244.51,113.4,242.55,113.48,241Z"/><rect class="cls-2" y="137.2" width="498.21" height="18.3"/><path class="cls-2" d="M51.22,49.25H30.89A30.9,30.9,0,0,0,0,80.14v35.91H498.21V80.14a30.9,30.9,0,0,0-30.88-30.89H414.89V89.7a13.67,13.67,0,0,1-13.67,13.67H372.43A13.67,13.67,0,0,1,358.75,89.7V49.25H139.46V89.7a13.67,13.67,0,0,1-13.67,13.67H97A13.67,13.67,0,0,1,83.32,89.7V49.25Z"/><rect class="cls-3" y="116.05" width="498.21" height="21.15"/><rect class="cls-1" x="96.99" y="13.67" width="28.8" height="76.03"/><path class="cls-4" d="M97,0A13.67,13.67,0,0,0,83.32,13.67v76A13.67,13.67,0,0,0,97,103.37h28.8A13.67,13.67,0,0,0,139.46,89.7v-76A13.67,13.67,0,0,0,125.79,0Zm28.8,89.7H97v-76h28.8Z"/><rect class="cls-1" x="372.43" y="13.67" width="28.8" height="76.03"/><path class="cls-4" d="M372.43,0a13.67,13.67,0,0,0-13.68,13.67v76a13.67,13.67,0,0,0,13.68,13.67h28.79A13.67,13.67,0,0,0,414.89,89.7v-76A13.67,13.67,0,0,0,401.22,0Zm28.79,89.7H372.43v-76h28.79Z"/><path class="cls-4" d="M119.56,366.5a3.71,3.71,0,0,0-2.36.81,6.71,6.71,0,0,0-1.84,2.59,16.25,16.25,0,0,0-1.2,4.67,59.06,59.06,0,0,0-.38,7.18,46.42,46.42,0,0,0,.46,7,17,17,0,0,0,1.26,4.59,6.14,6.14,0,0,0,1.86,2.44,3.7,3.7,0,0,0,2.2.75H225.28a3.86,3.86,0,0,0,2.35-.75,6.25,6.25,0,0,0,1.87-2.44,17,17,0,0,0,1.26-4.59,46.71,46.71,0,0,0,.44-7,59.31,59.31,0,0,0-.37-7.18,15.62,15.62,0,0,0-1.2-4.67,6.32,6.32,0,0,0-1.91-2.59,4,4,0,0,0-2.44-.81H194V208.24a3.86,3.86,0,0,0-.58-2.22,4,4,0,0,0-2.37-1.41,25,25,0,0,0-5.26-.74q-3.48-.23-9.09-.22c-3.07,0-5.56,0-7.5.07s-3.48.15-4.65.29a15.07,15.07,0,0,0-2.88.6,6.51,6.51,0,0,0-1.88,1l-41.15,26.65a19.24,19.24,0,0,0-2.8,2.22,7.13,7.13,0,0,0-1.63,2.66,15.31,15.31,0,0,0-.76,3.93c-.08,1.52-.13,3.48-.13,5.85a65.43,65.43,0,0,0,.43,8.73A7.87,7.87,0,0,0,115.5,260a3.62,3.62,0,0,0,3.4.88,22.38,22.38,0,0,0,5.55-2l30.8-17V366.5Z"/><path class="cls-4" d="M333.35,361.39a30.71,30.71,0,0,1-11.91,5.7,63.5,63.5,0,0,1-15.62,1.78,74.27,74.27,0,0,1-17-1.7,79.83,79.83,0,0,1-12.05-3.78,77.57,77.57,0,0,1-8-3.78,10.82,10.82,0,0,0-4.52-1.69,3.16,3.16,0,0,0-2.07.73,6,6,0,0,0-1.54,2.52,18.06,18.06,0,0,0-1,4.67,69.61,69.61,0,0,0-.29,7q0,3.84.12,6.65a32.65,32.65,0,0,0,.54,4.67,14.86,14.86,0,0,0,.95,3.18,7,7,0,0,0,1.86,2.44,21.52,21.52,0,0,0,5.32,2.82A84.11,84.11,0,0,0,278.58,396a120.15,120.15,0,0,0,14.35,2.81A122.67,122.67,0,0,0,309.8,400a100.31,100.31,0,0,0,30.73-4.44,68.15,68.15,0,0,0,23.69-12.81,56.9,56.9,0,0,0,15.26-20.57,68,68,0,0,0,5.39-27.77q0-13.75-4.29-24.2a45.08,45.08,0,0,0-12.51-17.47A55.23,55.23,0,0,0,347.78,282a95.84,95.84,0,0,0-27.6-3.63q-5.62,0-10.73.15c-3.41.1-6.84.34-10.29.74v-41h68.1c2,0,3.48-1.34,4.52-4s1.54-7,1.54-12.88a71.58,71.58,0,0,0-.36-7.62,19.31,19.31,0,0,0-1.18-5.11,6.82,6.82,0,0,0-2-2.82,4.13,4.13,0,0,0-2.52-.88H276.5c-3.35,0-5.79.87-7.33,2.59s-2.28,4.56-2.28,8.51v83.21c0,3.84.61,6.49,1.84,7.91s3.29,2.15,6.15,2.15a106.42,106.42,0,0,0,13.25-.88,123.75,123.75,0,0,1,15.61-.9,75.46,75.46,0,0,1,18.36,1.93,31.64,31.64,0,0,1,12.29,5.78,22.79,22.79,0,0,1,7,9.4,34.08,34.08,0,0,1,2.21,12.66,34.43,34.43,0,0,1-2.65,14.21A26.24,26.24,0,0,1,333.35,361.39Z"/></g></g></svg>