<?xml version="1.0" encoding="utf-8"?>
<!-- Generator: Adobe Illustrator 22.1.0, SVG Export Plug-In . SVG Version: 6.00 Build 0)  -->
<svg version="1.1" id="Layer_1" xmlns="http://www.w3.org/2000/svg" xmlns:xlink="http://www.w3.org/1999/xlink" x="0px" y="0px"
	 viewBox="0 0 16 18" style="enable-background:new 0 0 16 18;" xml:space="preserve">
<style type="text/css">
	.st0{fill:#6A6A6A;}
</style>
<g id="calendar-multiselect" transform="translate(315 33)">
	<path id="Path_1033" class="st0" d="M-300.9-16.9v-9.7h-12.3v9.9h12.3 M-303.5-33h1.8v1.8h0.9c1,0,1.8,0.8,1.8,1.8l0,0v12.5
		c0,1-0.8,1.8-1.8,1.8l0,0h-12.4c-1,0-1.8-0.8-1.8-1.8l0,0v-12.6c0-1,0.8-1.8,1.8-1.8c0,0,0,0,0.1,0h0.9V-33h1.8v1.8h7L-303.5-33
		 M-311.5-25h1.8v1.8h-1.8V-25 M-304.4-25h1.8v1.8h-1.8V-25 M-308-21.4h1.8v1.8h-1.8V-21.4 M-304.4-21.4h1.8v1.8h-1.8V-21.4z"/>
</g>
</svg>
