<?xml version="1.0" encoding="utf-8"?>
<!-- Generator: Adobe Illustrator 22.1.0, SVG Export Plug-In . SVG Version: 6.00 Build 0)  -->
<svg version="1.1" id="Layer_1" xmlns="http://www.w3.org/2000/svg" xmlns:xlink="http://www.w3.org/1999/xlink" x="0px" y="0px"
	 viewBox="0 0 20 20" style="enable-background:new 0 0 20 20;" xml:space="preserve">
<style type="text/css">
	.st0{fill:none;}
	.st1{fill:#232323;}
</style>
<g id="calendar-multiselect" transform="translate(315 33)">
	<path class="st0" d="M-315-33h20v20h-20V-33z"/>
	<path id="Path_1033" class="st1" d="M-298.9-16v-9.6h-12.3v9.8h12.3 M-301.5-31.9h1.8v1.8h0.9c1,0,1.8,0.8,1.8,1.8c0,0,0,0,0,0
		v12.4c0,1-0.8,1.8-1.8,1.8c0,0,0,0,0,0h-12.4c-1,0-1.8-0.8-1.8-1.8c0,0,0,0,0,0v-12.5c0-1,0.8-1.8,1.8-1.8c0,0,0,0,0.1,0h0.9v-1.7
		h1.8v1.8h7v-1.8 M-309.5-24h1.8v1.8h-1.8V-24 M-302.4-24h1.8v1.8h-1.8V-24 M-306-20.4h1.8v1.8h-1.8V-20.4 M-302.4-20.4h1.8v1.8
		h-1.8V-20.4z"/>
</g>
</svg>
