<?xml version="1.0" encoding="utf-8"?>
<!-- Generator: Adobe Illustrator 22.1.0, SVG Export Plug-In . SVG Version: 6.00 Build 0)  -->
<svg version="1.1" id="Layer_1" xmlns="http://www.w3.org/2000/svg" xmlns:xlink="http://www.w3.org/1999/xlink" x="0px" y="0px"
	 viewBox="0 0 15 15" style="enable-background:new 0 0 15 15;" xml:space="preserve">
<path id="CAS_logo" transform="translate(-750.957 -387.551)" d="M760.2,402.5l1.8-1.8c0,0,0.1-0.1,0.1-0.1c0.1,0,0.1,0,0.2,0
	c0.1,0,0.2,0,0.3,0.1c0.1,0.1,0.1,0.2,0.1,0.3v1.5h-0.4v-0.7h-0.7l-0.7,0.7H760.2z M762.3,401.2
	C762.3,401.2,762.3,401.2,762.3,401.2C762.2,401.2,762.2,401.2,762.3,401.2L762.3,401.2L762.3,401.2L762.3,401.2L762.3,401.2l-0.1,0
	l-0.2,0.2h0.3L762.3,401.2z M764.4,401.8h-1c-0.2,0-0.3-0.1-0.4-0.2c-0.1-0.1-0.2-0.3-0.2-0.4c0-0.2,0.1-0.3,0.2-0.4
	c0.1-0.1,0.3-0.2,0.4-0.2h1.6v0.4h-1.6c0,0-0.1,0-0.1,0c0,0,0,0.1,0,0.1c0,0,0,0.1,0,0.1c0,0,0.1,0,0.1,0h1c0.2,0,0.3,0.1,0.4,0.2
	c0.1,0.1,0.2,0.3,0.2,0.4c0,0.2-0.1,0.3-0.2,0.4c-0.1,0.1-0.3,0.2-0.4,0.2h-1.6v-0.4h1.6c0,0,0.1,0,0.1,0c0,0,0-0.1,0-0.1
	c0,0,0-0.1,0-0.1C764.5,401.8,764.5,401.8,764.4,401.8z M759.2,401.1c-0.2,0-0.4,0-0.6,0c-3.4,0-6.1-2.7-6.2-6c0-3.4,2.6-6.1,6-6.2
	c0,0,0.1,0,0.1,0c0.2,0,0.4,0,0.6,0v-1.4c-0.2,0-0.4,0-0.6,0c-4.1,0-7.5,3.3-7.6,7.4c0,4.1,3.3,7.5,7.4,7.6c0.1,0,0.1,0,0.2,0
	c0.2,0,0.4,0,0.6,0L759.2,401.1L759.2,401.1z M761.8,395.7c-0.4,1.8-2.1,3-4,2.7c-1.8-0.4-3-2.2-2.7-4c0.4-1.8,2.1-3,4-2.7
	c1.3,0.3,2.3,1.3,2.6,2.6h4.2c-0.3-3-2.4-5.6-5.3-6.4v1.5c1.7,0.6,3,2,3.6,3.6h-1.5c-1.2-2.3-4-3.3-6.3-2.1s-3.3,4-2.1,6.3
	s4,3.3,6.3,2.1c1-0.5,1.7-1.3,2.2-2.2h1.5c-0.3,0.9-0.9,1.8-1.6,2.4h1.9c0.8-1.1,1.3-2.4,1.4-3.8h-1.4"/>
</svg>
