<?xml version="1.0" encoding="utf-8"?>
<!-- Generator: Adobe Illustrator 22.1.0, SVG Export Plug-In . SVG Version: 6.00 Build 0)  -->
<svg version="1.1" id="Layer_1" xmlns="http://www.w3.org/2000/svg" xmlns:xlink="http://www.w3.org/1999/xlink" x="0px" y="0px"
	 viewBox="0 0 14 14" style="enable-background:new 0 0 14 14;" xml:space="preserve">
<style type="text/css">
	.st0{fill:#E5E5E5;}
	.st1{opacity:0.5;fill:#232323;enable-background:new    ;}
</style>
<g>
	<path class="st0" d="M7,0c3.9,0,7,3.1,7,7s-3.1,7-7,7s-7-3.1-7-7S3.1,0,7,0z"/>
	<path class="st1" d="M9.9,9.2c0.2,0.2,0.2,0.5,0,0.7s-0.5,0.2-0.7,0L7,7.7L4.8,9.9c-0.2,0.2-0.5,0.2-0.7,0s-0.2-0.5,0-0.7L6.3,7
		L4.1,4.8c-0.2-0.2-0.2-0.5,0-0.7s0.5-0.2,0.7,0L7,6.3l2.2-2.2c0.2-0.2,0.5-0.2,0.7,0s0.2,0.5,0,0.7L7.7,7L9.9,9.2z"/>
</g>
</svg>
