<?xml version="1.0" encoding="utf-8"?>
<!-- Generator: Adobe Illustrator 22.1.0, SVG Export Plug-In . SVG Version: 6.00 Build 0)  -->
<svg version="1.1" id="Layer_1" xmlns="http://www.w3.org/2000/svg" xmlns:xlink="http://www.w3.org/1999/xlink" x="0px" y="0px"
	 viewBox="0 0 20 20" style="enable-background:new 0 0 20 20;" xml:space="preserve">
<style type="text/css">
	.st0{fill:none;}
	.st1{fill:#6A6A6A;}
</style>
<g id="dark-cancel-icon" transform="translate(-1515 -904)">
	<g id="cancel-icon" transform="translate(1518 907)">
		<path class="st0" d="M-3-3h20v20H-3V-3z"/>
		<path class="st1" d="M13.7,12.1c0.4,0.5,0.4,1.2-0.1,1.6c0,0,0,0,0,0c-0.4,0.4-1.1,0.4-1.5,0L7,8.6l-5.1,5.1
			c-0.5,0.4-1.1,0.4-1.6,0c-0.4-0.5-0.4-1.1,0-1.6L5.4,7L0.3,1.9c-0.4-0.5-0.4-1.1,0-1.6c0.5-0.4,1.1-0.4,1.6,0L7,5.4l5.1-5.1
			c0.5-0.4,1.1-0.4,1.6,0c0.4,0.5,0.4,1.1,0,1.6L8.6,7L13.7,12.1z"/>
	</g>
</g>
</svg>
