<?xml version="1.0" encoding="utf-8"?>
<!-- Generator: Adobe Illustrator 22.1.0, SVG Export Plug-In . SVG Version: 6.00 Build 0)  -->
<svg version="1.1" id="Layer_1" xmlns="http://www.w3.org/2000/svg" xmlns:xlink="http://www.w3.org/1999/xlink" x="0px" y="0px"
	 viewBox="0 0 20 20" style="enable-background:new 0 0 20 20;" xml:space="preserve">
<g>
	<path d="M12.2,0L3,0C1.3,0,0,1.3,0,3l0,14c0,1.7,1.3,3,3,3h14c1.7,0,3-1.3,3-3V7.7L12.2,0z M1,3c0-1.1,0.9-2,2-2h9.2v3.7
		c0,1.7,1.3,3,3,3H19V17c0,1.1-0.9,2-2,2H3c-1.1,0-2-0.9-2-2V3z M10.1,6.8h-7c-0.3,0-0.5-0.2-0.5-0.5l0,0c0-0.3,0.2-0.5,0.5-0.5h7
		c0.3,0,0.5,0.2,0.5,0.5l0,0C10.6,6.6,10.4,6.8,10.1,6.8z M16.9,10.1H3.1c-0.3,0-0.5-0.2-0.5-0.5l0,0c0-0.3,0.2-0.5,0.5-0.5h13.8
		c0.3,0,0.5,0.2,0.5,0.5l0,0C17.4,9.8,17.2,10.1,16.9,10.1z M16.9,13.3H3.1c-0.3,0-0.5-0.2-0.5-0.5l0,0c0-0.3,0.2-0.5,0.5-0.5h13.8
		c0.3,0,0.5,0.2,0.5,0.5l0,0C17.4,13.1,17.2,13.3,16.9,13.3z M16.9,16.6H3.1c-0.3,0-0.5-0.2-0.5-0.5l0,0c0-0.3,0.2-0.5,0.5-0.5h13.8
		c0.3,0,0.5,0.2,0.5,0.5l0,0C17.4,16.4,17.2,16.6,16.9,16.6z"/>
</g>
</svg>
