<?xml version="1.0" encoding="utf-8"?>
<!-- Generator: Adobe Illustrator 22.1.0, SVG Export Plug-In . SVG Version: 6.00 Build 0)  -->
<svg version="1.1" id="Layer_1" xmlns="http://www.w3.org/2000/svg" xmlns:xlink="http://www.w3.org/1999/xlink" x="0px" y="0px"
	 viewBox="0 0 250 250" style="enable-background:new 0 0 250 250;" xml:space="preserve">
<style type="text/css">
	.st0{display:none;}
	.st1{display:inline;fill:#FFFFFF;}
	.st2{display:inline;}
	.st3{display:inline;fill:#8559DA;}
	.st4{display:inline;fill:#512DA8;}
	.st5{display:inline;fill:#C7C7C7;}
	.st6{display:inline;fill:#FFFFFF;stroke:#000000;stroke-width:2;stroke-miterlimit:10;}
	.st7{fill:#FFFFFF;}
	.st8{fill:#FAFAFA;}
	.st9{fill:#C7C7C7;}
	.st10{fill:#8559DA;}
	.st11{fill:#512DA8;}
	.st12{fill:#311B92;}
	.st13{display:inline;fill:#C7C7C7;stroke:#000000;stroke-miterlimit:10;}
	.st14{display:inline;opacity:0.5;enable-background:new    ;}
	.st15{fill:none;}
	.st16{opacity:0.3;fill:#C7C7C7;enable-background:new    ;}
</style>
<g class="st0">
	<path class="st1" d="M95.2,68.4c-0.3,0.3-0.5,0.6-0.7,0.9C88.6,76.6,83.7,86,79.8,96.1c-1.8,4.7-3.4,9.4-4.8,14.2
		c-0.2,0.7-0.4,1.4-0.6,2c-0.9,3.3-1.7,6.5-2.4,9.7c-0.3,1.3-0.5,2.6-0.8,3.9s-0.5,2.6-0.7,3.8c-0.2,1.3-0.4,2.5-0.6,3.7
		c-0.7,4.9-1.1,9.4-1.1,13.4v9.7h58.7l0.1-9.7c0-0.4,0-0.8,0-1.3c0-0.3,0-0.7,0-1s0-0.7,0.1-1c0.2-3.7,0.5-7.3,0.9-10.7
		c0-0.3,0.1-0.7,0.1-1s0.1-0.7,0.1-1c0-0.2,0-0.3,0.1-0.4c0.4-3.1,0.9-6.2,1.4-9.1c0,0,0,0,0-0.1c1.9-10.3,4.5-19.2,7.3-26.7
		c0.2-0.5,0.4-1,0.6-1.5c0.4-0.9,0.7-1.8,1-2.7c0.2-0.4,0.4-0.9,0.5-1.3c0.2-0.5,0.4-1,0.6-1.5c0.7-1.6,1.3-3,2-4.4
		c0.2-0.4,0.4-0.7,0.5-1.1c0.1-0.3,0.2-0.5,0.3-0.7c0-0.1,0.1-0.2,0.2-0.3c1-2.1,2-3.9,2.9-5.5c0.2-0.4,0.5-0.8,0.7-1.3
		c1.5-2.6,2.7-4.3,3.3-5.3l0,0c0.3-0.5,0.5-0.8,0.6-0.8H95.2V68.4z"/>
	<path class="st2" d="M151.6,69C151.5,69,151.5,69,151.6,69l-0.7-0.6v-1H94.7l-0.3,0.4c-0.1,0.2-0.2,0.3-0.4,0.5
		c-6,7.5-11.2,17.4-15.4,28c-2.3,5.8-4.2,11.9-5.8,18c-0.2,0.9-0.4,1.7-0.7,2.6c-0.3,1-0.5,2-0.7,2.9c-0.4,1.8-0.8,3.6-1.1,5.4
		c-0.2,1.2-0.4,2.4-0.6,3.6c0,0.3-0.1,0.5-0.1,0.8c-0.2,1.1-0.4,2.2-0.5,3.3c-0.7,5.1-1.1,10-1.2,14.3v10.7h60.6l0.1-10.6
		c0-0.7,0-1.3,0.1-2c0-0.2,0-0.4,0-0.7c0.2-3.9,0.5-7.7,0.9-11.3c0.1-0.7,0.2-1.3,0.2-2c0-0.1,0-0.2,0-0.3c0.4-3,0.8-6,1.4-8.8
		c0,0,0,0,0-0.1c1-5.2,2.1-10,3.3-14.4c0.3-1.1,0.6-2.3,1-3.3l1.7-5.2v-0.1l0.7-2c0.2-0.4,0.3-0.8,0.5-1.3c0.9-2.4,1.8-4.7,2.7-6.9
		c0.2-0.4,0.3-0.7,0.5-1.1s0.3-0.8,0.5-1.2l1.5-3.3c0-0.1,0.1-0.2,0.2-0.3c0-0.1,0.1-0.1,0.1-0.2c0.1-0.2,0.2-0.4,0.3-0.6
		s0.3-0.5,0.4-0.7c3-6.2,5.6-10.1,6.6-11.6v-0.1C151.5,69.3,151.6,69.1,151.6,69L151.6,69z M69.8,155.6V147c0-2.2,0.1-4.5,0.3-6.9
		c0.2-2.1,0.4-4.2,0.7-6.4c0.1-0.4,0.1-0.9,0.2-1.3c0.2-1.1,0.3-2.1,0.5-3.2c0.1-0.8,0.3-1.5,0.4-2.3c0.1-0.5,0.2-0.9,0.3-1.4
		c0.5-2.6,1.1-5.3,1.7-7.9c0.4-1.8,0.9-3.6,1.4-5.5c1.5-5.5,3.4-11,5.5-16.2c3.8-9.6,8.5-18.6,14-25.6c0.2-0.3,0.5-0.6,0.7-0.9
		c0,0,0-0.1,0.1-0.1h53.3c-0.6,0.9-1.3,2.1-2.4,3.9c-0.5,0.8-1,1.8-1.6,2.8c-0.8,1.4-1.6,3-2.5,4.9c0,0.1-0.1,0.2-0.1,0.2
		c-0.2,0.3-0.3,0.7-0.5,1c0,0,0,0.1-0.1,0.1c-0.1,0.3-0.3,0.6-0.4,0.9c0,0,0,0.1-0.1,0.1c-0.6,1.3-1.3,2.7-1.9,4.3
		c-0.5,1.2-1,2.5-1.5,3.7c-0.3,0.7-0.6,1.5-0.9,2.3c0,0.1-0.1,0.2-0.1,0.3c-3.5,9.4-7.1,22-9,37.1c-0.1,0.3-0.1,0.7-0.1,1
		c-0.1,0.3-0.1,0.7-0.1,1c-0.4,3.4-0.7,7-0.9,10.7c0,0.3,0,0.7-0.1,1c0,0.3,0,0.7,0,1c0,0.4,0,0.8,0,1.2l-0.1,8.7L69.8,155.6
		L69.8,155.6z"/>
	<path class="st1" d="M108.3,44v8.5h74.9V44H108.3z"/>
	<path class="st2" d="M107.3,43v10.5h76.9V43H107.3z M182.2,51.5h-72.9V45h72.9V51.5z"/>
	<path class="st1" d="M177.3,44v8.5h5.9V44H177.3z"/>
	<path class="st2" d="M176.3,43v10.5h7.9V43H176.3z M182.2,51.5h-3.9V45h3.9V51.5z"/>
	<path class="st1" d="M83,132v12.7h44.7l0.1-0.7v-0.3l1.5-10.7l0.1-1H83z"/>
	<path class="st2" d="M82,131v14.7h46.6l0.1-0.7v-0.2l0.1-0.7l1.7-11.9l0.2-1.2L82,131L82,131z M84,143.7V133h44.4l-1.5,10.7H84z"/>
	<path class="st1" d="M83,144.7l-1,0.8l-12,10.1l-1.2,1h58.9v-11.9L83,144.7L83,144.7z"/>
	<path class="st2" d="M82.7,143.7l-0.6,0.5l-12.2,10.2l-1,0.8l-1,0.8l-1.7,1.5h62.6v-13.9L82.7,143.7L82.7,143.7z M83.4,145.7h43.3
		v9.9H71.6L83.4,145.7z"/>
	<path class="st1" d="M100.3,82.2L100.3,82.2c-0.1,0.2-0.3,0.5-0.7,1.1c-1.1,1.7-3.3,5.4-5.8,10.5c-4.4,9-9.5,22.3-10.7,37.2
		c0,0.3-0.1,0.7-0.1,1h46.5l0.3-1l0.1-0.3l0.1-0.3l0,0l0.4-1.5c0.2-2.1,0.5-4.1,0.7-6c0-0.3,0.1-0.7,0.1-1c0,0,0,0,0-0.1
		c1.4-10.1,3.2-17.8,5.4-24.4c0-0.1,0-0.1,0.1-0.2c0.3-0.9,0.6-1.7,0.9-2.5c0.2-0.5,0.4-1,0.6-1.5c0.3-0.9,0.7-1.8,1-2.7
		c0.2-0.4,0.4-0.9,0.5-1.3c0.2-0.5,0.4-1,0.6-1.5c0.6-1.5,1.3-2.9,2-4.3l0,0c0,0,0,0,0-0.1l0,0c0.2-0.3,0.3-0.7,0.5-1v-0.1H100.3z"
		/>
	<path class="st2" d="M99.7,81.2l-0.3,0.4c0,0-0.1,0.2-0.3,0.5c-0.9,1.4-3.6,5.7-6.6,12c-4.3,9.1-9.3,22.3-10.4,36.9
		c0,0.3-0.1,0.6-0.1,0.9v0.2l-0.1,0.9h48.3l0.2-0.8l0.9-3V129c1.3-13.1,3.4-22.6,5.8-30.2v-0.1c2-6.2,4.2-11.1,6.4-15.7
		c0-0.1,0.1-0.2,0.2-0.3c0-0.1,0.1-0.1,0.1-0.2v-1.3C143.8,81.2,99.7,81.2,99.7,81.2z M84.1,131c1.2-15.1,6.6-28.6,11-37.5
		c2.6-5.2,4.8-8.8,5.7-10.2l0.1-0.1h40.6c0,0,0,0.1-0.1,0.1c-0.1,0.3-0.3,0.7-0.5,1c-0.3,0.6-0.5,1.2-0.8,1.8
		c-0.2,0.5-0.4,1-0.6,1.5c-0.5,1.2-1,2.5-1.5,3.7c-0.3,0.7-0.6,1.5-0.9,2.3c0,0.1-0.1,0.2-0.1,0.3c-0.4,1.1-0.8,2.2-1.1,3.3
		c0,0.1-0.1,0.2-0.1,0.2c-2.2,6.8-4,14.4-5.3,24c0,0,0,0,0,0.1c-0.1,0.4-0.1,0.9-0.2,1.3c-0.3,1.9-0.5,3.9-0.7,6l-0.4,1.5l-0.1,0.4
		l-0.1,0.4H84.1V131z"/>
	<path class="st1" d="M95.2,68.4l0.4,1v0.1l4.3,11.7l0.4,1v0.1h42.5l0.1-0.1l0.4-0.7l0.2-0.3l0.1-0.2l6.8-11.9l0,0l0.4-0.7v-0.1
		L95.2,68.4L95.2,68.4z"/>
	<path class="st2" d="M93.7,67.4l0.3,0.7v0.1l0.4,1v0.1l0.4,1v0.1l4.3,11.8l0.4,1.2l0,0h43.8l0.5-0.9l0.5-0.9l0.1-0.2l6.6-11.6v-0.1
		l0.5-0.7c0,0,0,0,0-0.1l0,0l0,0l0,0l0,0l0.9-1.6L93.7,67.4L93.7,67.4z M96.6,69.4H149l-6.4,11.2l-0.2,0.4l-0.2,0.4h-41.3v-0.1
		L96.6,69.4z"/>
	<path class="st1" d="M105,51c-3.7,0-6.8,3-6.8,3C85.7,65.8,76.9,81.3,71,97.2c-6.5,17.7-9.3,35.8-9.5,49.8v94.5
		c0.3,0,0.7,0.1,1,0.1c32.4,2.1,54.1-33.3,70.8-41.7c0.3-0.2,0.7-0.3,1-0.5V147c0-0.5,0-0.9,0-1.4s0-0.9,0-1.4
		c0.3-6.9,1.4-14.8,3-23.2l1.3-2.2l34.7-60.4l2.9-4.9l0,0l0.6-1l0.3-0.5l0.1-0.2l0.2-0.3l0.3-0.5L105,51L105,51z M127.7,147
		l-0.1,9.7H68.8V147c0-4,0.4-8.5,1.1-13.4c0.2-1.2,0.4-2.5,0.6-3.7c0.2-1.3,0.4-2.5,0.7-3.8s0.5-2.6,0.8-3.9
		c0.7-3.2,1.5-6.4,2.4-9.7c0.2-0.7,0.4-1.4,0.6-2c1.4-4.8,3-9.5,4.8-14.2c3.9-10.1,8.9-19.6,14.7-26.9c0.2-0.3,0.4-0.5,0.7-0.8h55.7
		c0,0,0,0,0,0.1c-0.3,0.4-1.7,2.4-3.7,6c-0.2,0.4-0.5,0.8-0.7,1.3c-0.9,1.6-1.8,3.4-2.8,5.4c0,0,0,0.1-0.1,0.2
		c-0.2,0.4-0.4,0.7-0.5,1.1c-0.2,0.3-0.3,0.7-0.5,1c0,0,0,0,0,0.1l0,0c-1.8,3.9-3.8,8.5-5.6,13.8c0,0.1,0,0.1-0.1,0.2
		c-2.5,7.3-4.9,15.8-6.6,25.4c-0.4,2.4-0.8,4.9-1.1,7.4c0,0.3-0.1,0.5-0.1,0.8s-0.1,0.7-0.1,1s-0.1,0.7-0.1,1
		c-0.1,0.5-0.1,1.1-0.2,1.6c-0.3,2.9-0.5,6-0.7,9.1c0,0.1,0,0.2,0,0.3c0,0.6,0,1.2-0.1,1.7C127.8,146.1,127.7,146.6,127.7,147z"/>
	<path class="st2" d="M94.6,67.4l-0.3,0.4c-0.1,0.1-0.2,0.2-0.3,0.4c-6,7.5-11.3,17.4-15.4,28.1c-2.3,5.8-4.2,11.9-5.8,17.9
		c-0.2,0.9-0.4,1.7-0.7,2.6c-0.3,1-0.5,2-0.7,2.9c-0.4,1.8-0.8,3.6-1.1,5.4c-0.2,1.2-0.4,2.4-0.6,3.6c0,0.3-0.1,0.5-0.1,0.8
		c-0.2,1.1-0.4,2.2-0.5,3.3c-0.7,5.1-1.1,10-1.2,14.3v10.7h60.8l0.1-10.6c0-1,0.1-2,0.1-2.9c0.2-3.5,0.4-6.6,0.7-9.4
		c0.1-0.6,0.1-1.1,0.2-1.7c0.1-0.7,0.2-1.3,0.2-2c0-0.2,0-0.4,0.1-0.6l0,0c0.3-2.6,0.7-5.1,1.1-7.5c1-5.6,2.2-10.8,3.5-15.5
		c0.3-1.1,0.6-2.3,1-3.3l1.7-5.2V99l0.7-2c0.2-0.4,0.3-0.8,0.5-1.3c0.9-2.5,1.8-4.8,2.7-6.9c0.2-0.4,0.3-0.7,0.5-1.1
		s0.3-0.8,0.5-1.2l1.5-3.3c0-0.1,0.1-0.2,0.2-0.3c0-0.1,0.1-0.1,0.1-0.2c0.1-0.2,0.2-0.4,0.3-0.6s0.2-0.3,0.3-0.5
		c3.7-7.5,6.6-11.8,7.1-12.4c0,0,0,0,0-0.1l0,0l0,0l0,0l0,0l1.1-1.6H94.6V67.4z M126.7,147l-0.1,8.7H69.8V147c0-2.2,0.1-4.5,0.3-6.9
		c0.2-2.1,0.4-4.2,0.7-6.4c0.1-0.4,0.1-0.9,0.2-1.3c0.2-1.1,0.3-2.1,0.5-3.2c0.1-0.8,0.3-1.5,0.4-2.3c0.1-0.5,0.2-0.9,0.3-1.4
		c0.5-2.6,1.1-5.3,1.7-7.9c0.4-1.8,0.9-3.6,1.4-5.5c1.5-5.5,3.3-11,5.4-16.2c3.8-9.7,8.5-18.7,14-25.7c0.2-0.3,0.5-0.6,0.7-0.9h53.3
		c-0.6,0.9-1.4,2.2-2.3,3.9c-0.5,0.8-1,1.8-1.6,2.8c-0.7,1.3-1.5,2.8-2.3,4.5c-0.1,0.2-0.2,0.4-0.3,0.6s-0.2,0.5-0.3,0.7
		c0,0.1-0.1,0.2-0.1,0.3c0,0,0,0.1-0.1,0.1c-0.1,0.3-0.3,0.6-0.4,0.9c0,0,0,0.1-0.1,0.1c-0.1,0.3-0.3,0.7-0.5,1
		c-0.3,0.6-0.5,1.2-0.8,1.8c-1.4,3.2-2.9,6.9-4.3,11c0,0.1-0.1,0.2-0.1,0.2c-3.2,9.2-6.1,20.5-7.8,33.6c0,0.3-0.1,0.7-0.1,1
		s-0.1,0.7-0.1,1c-0.1,0.5-0.1,1-0.2,1.5c-0.3,2.8-0.5,5.8-0.7,9.2c0,0.3,0,0.7,0,1s0,0.7,0,1C126.7,146.1,126.7,146.5,126.7,147z
		 M94.6,67.4l-0.3,0.4c-0.1,0.1-0.2,0.2-0.3,0.4c-6,7.5-11.3,17.4-15.4,28.1c-2.3,5.8-4.2,11.9-5.8,17.9c-0.2,0.9-0.4,1.7-0.7,2.6
		c-0.3,1-0.5,2-0.7,2.9c-0.4,1.8-0.8,3.6-1.1,5.4c-0.2,1.2-0.4,2.4-0.6,3.6c0,0.3-0.1,0.5-0.1,0.8c-0.2,1.1-0.4,2.2-0.5,3.3
		c-0.7,5.1-1.1,10-1.2,14.3v10.7h60.8l0.1-10.6c0-1,0.1-2,0.1-2.9c0.2-3.5,0.4-6.6,0.7-9.4c0.1-0.6,0.1-1.1,0.2-1.7
		c0.1-0.7,0.2-1.3,0.2-2c0-0.2,0-0.4,0.1-0.6l0,0c0.3-2.6,0.7-5.1,1.1-7.5c1-5.6,2.2-10.8,3.5-15.5c0.3-1.1,0.6-2.3,1-3.3l1.7-5.2
		V99l0.7-2c0.2-0.4,0.3-0.8,0.5-1.3c0.9-2.5,1.8-4.8,2.7-6.9c0.2-0.4,0.3-0.7,0.5-1.1s0.3-0.8,0.5-1.2l1.5-3.3
		c0-0.1,0.1-0.2,0.2-0.3c0-0.1,0.1-0.1,0.1-0.2c0.1-0.2,0.2-0.4,0.3-0.6s0.2-0.3,0.3-0.5c3.7-7.5,6.6-11.8,7.1-12.4c0,0,0,0,0-0.1
		l0,0l0,0l0,0l0,0l1.1-1.6H94.6V67.4z M126.7,147l-0.1,8.7H69.8V147c0-2.2,0.1-4.5,0.3-6.9c0.2-2.1,0.4-4.2,0.7-6.4
		c0.1-0.4,0.1-0.9,0.2-1.3c0.2-1.1,0.3-2.1,0.5-3.2c0.1-0.8,0.3-1.5,0.4-2.3c0.1-0.5,0.2-0.9,0.3-1.4c0.5-2.6,1.1-5.3,1.7-7.9
		c0.4-1.8,0.9-3.6,1.4-5.5c1.5-5.5,3.3-11,5.4-16.2c3.8-9.7,8.5-18.7,14-25.7c0.2-0.3,0.5-0.6,0.7-0.9h53.3
		c-0.6,0.9-1.4,2.2-2.3,3.9c-0.5,0.8-1,1.8-1.6,2.8c-0.7,1.3-1.5,2.8-2.3,4.5c-0.1,0.2-0.2,0.4-0.3,0.6s-0.2,0.5-0.3,0.7
		c0,0.1-0.1,0.2-0.1,0.3c0,0,0,0.1-0.1,0.1c-0.1,0.3-0.3,0.6-0.4,0.9c0,0,0,0.1-0.1,0.1c-0.1,0.3-0.3,0.7-0.5,1
		c-0.3,0.6-0.5,1.2-0.8,1.8c-1.4,3.2-2.9,6.9-4.3,11c0,0.1-0.1,0.2-0.1,0.2c-3.2,9.2-6.1,20.5-7.8,33.6c0,0.3-0.1,0.7-0.1,1
		s-0.1,0.7-0.1,1c-0.1,0.5-0.1,1-0.2,1.5c-0.3,2.8-0.5,5.8-0.7,9.2c0,0.3,0,0.7,0,1s0,0.7,0,1C126.7,146.1,126.7,146.5,126.7,147z
		 M94.6,67.4l-0.3,0.4c-0.1,0.1-0.2,0.2-0.3,0.4c-6,7.5-11.3,17.4-15.4,28.1l0,0c0.4,0,0.7-0.1,1.1-0.1l0,0c0.4,0,0.7-0.1,1.1-0.1
		c3.8-9.7,8.5-18.7,14-25.7c0.2-0.3,0.5-0.6,0.7-0.9h26.3c0.2-0.3,0.4-0.7,0.6-1s0.4-0.7,0.5-1H94.6V67.4z M105,50
		c-4.1,0-7.4,3.1-7.5,3.2C85.2,64.9,76.1,80.7,70,97.3c-6.2,17-9.3,34.7-9.5,49.7v94.4c0.3,0,0.7,0.1,1,0.1s0.7,0.1,1,0.1V147
		c0.2-15.1,3.3-33,9.7-50c6-15.9,14.8-31.1,26.7-42.3c0,0,2.8-2.7,6.1-2.7h71l-0.2,0.3l-0.1,0.2l-0.6,1l-2.6,4.4l-33.1,57.6l-1.7,3
		l-1.2,2.1l-0.1,0.1v0.2c-1.6,8.3-2.5,15.7-2.9,22c0,0.4,0,0.8-0.1,1.3c0,0.4,0,0.9,0,1.3c0,0.5,0,1.1,0,1.6v52.8
		c0.3-0.2,0.7-0.3,1-0.5s0.7-0.3,1-0.4v-52c0-0.5,0-1,0-1.5c0.2-6.7,1.2-14.8,3-24.1l35.9-62.5l3.3-5.4l0.6-1l0.3-0.6l0.3-0.4
		l0.3-0.5l0.4-1l0,0H105z M94.6,67.4l-0.3,0.4c-0.1,0.1-0.2,0.2-0.3,0.4c-6,7.5-11.3,17.4-15.4,28.1l0,0c0.4,0,0.7-0.1,1.1-0.1l0,0
		c0.4,0,0.7-0.1,1.1-0.1c3.8-9.7,8.5-18.7,14-25.7c0.2-0.3,0.5-0.6,0.7-0.9h26.3c0.2-0.3,0.4-0.7,0.6-1s0.4-0.7,0.5-1H94.6V67.4z
		 M94.6,67.4l-0.3,0.4c-0.1,0.1-0.2,0.2-0.3,0.4c-6,7.5-11.3,17.4-15.4,28.1c-2.3,5.8-4.2,11.9-5.8,17.9c-0.2,0.9-0.4,1.7-0.7,2.6
		c-0.3,1-0.5,2-0.7,2.9c-0.4,1.8-0.8,3.6-1.1,5.4c-0.2,1.2-0.4,2.4-0.6,3.6c0,0.3-0.1,0.5-0.1,0.8c-0.2,1.1-0.4,2.2-0.5,3.3
		c-0.7,5.1-1.1,10-1.2,14.3v10.7h60.8l0.1-10.6c0-1,0.1-2,0.1-2.9c0.2-3.5,0.4-6.6,0.7-9.4c0.1-0.6,0.1-1.1,0.2-1.7
		c0.1-0.7,0.2-1.3,0.2-2c0-0.2,0-0.4,0.1-0.6l0,0c0.3-2.6,0.7-5.1,1.1-7.5c1-5.6,2.2-10.8,3.5-15.5c0.3-1.1,0.6-2.3,1-3.3l1.7-5.2
		V99l0.7-2c0.2-0.4,0.3-0.8,0.5-1.3c0.9-2.5,1.8-4.8,2.7-6.9c0.2-0.4,0.3-0.7,0.5-1.1s0.3-0.8,0.5-1.2l1.5-3.3
		c0-0.1,0.1-0.2,0.2-0.3c0-0.1,0.1-0.1,0.1-0.2c0.1-0.2,0.2-0.4,0.3-0.6s0.2-0.3,0.3-0.5c3.7-7.5,6.6-11.8,7.1-12.4c0,0,0,0,0-0.1
		l0,0l0,0l0,0l0,0l1.1-1.6H94.6V67.4z M126.7,147l-0.1,8.7H69.8V147c0-2.2,0.1-4.5,0.3-6.9c0.2-2.1,0.4-4.2,0.7-6.4
		c0.1-0.4,0.1-0.9,0.2-1.3c0.2-1.1,0.3-2.1,0.5-3.2c0.1-0.8,0.3-1.5,0.4-2.3c0.1-0.5,0.2-0.9,0.3-1.4c0.5-2.6,1.1-5.3,1.7-7.9
		c0.4-1.8,0.9-3.6,1.4-5.5c1.5-5.5,3.3-11,5.4-16.2c3.8-9.7,8.5-18.7,14-25.7c0.2-0.3,0.5-0.6,0.7-0.9h53.3
		c-0.6,0.9-1.4,2.2-2.3,3.9c-0.5,0.8-1,1.8-1.6,2.8c-0.7,1.3-1.5,2.8-2.3,4.5c-0.1,0.2-0.2,0.4-0.3,0.6s-0.2,0.5-0.3,0.7
		c0,0.1-0.1,0.2-0.1,0.3c0,0,0,0.1-0.1,0.1c-0.1,0.3-0.3,0.6-0.4,0.9c0,0,0,0.1-0.1,0.1c-0.1,0.3-0.3,0.7-0.5,1
		c-0.3,0.6-0.5,1.2-0.8,1.8c-1.4,3.2-2.9,6.9-4.3,11c0,0.1-0.1,0.2-0.1,0.2c-3.2,9.2-6.1,20.5-7.8,33.6c0,0.3-0.1,0.7-0.1,1
		s-0.1,0.7-0.1,1c-0.1,0.5-0.1,1-0.2,1.5c-0.3,2.8-0.5,5.8-0.7,9.2c0,0.3,0,0.7,0,1s0,0.7,0,1C126.7,146.1,126.7,146.5,126.7,147z"
		/>
	<path class="st1" d="M184.2,53.1c-0.3-0.2-0.6-0.5-1-0.7c-0.6-0.4-1.3-0.7-2-0.9c-0.7-0.3-1.5-0.4-2.3-0.5c-0.2,0-0.4-0.1-0.6-0.1
		c-0.1,0-0.3,0-0.4,0c-0.2,0-0.4,0-0.6,0c-0.2,0-0.4,0.1-0.6,0.1c-0.1,0-0.3,0-0.4,0.1c-0.4,0.1-0.9,0.3-1.3,0.4
		c-0.1,0-0.2,0.1-0.2,0.1c-0.3,0.1-0.7,0.3-1,0.4c-0.3,0.2-0.6,0.3-0.8,0.5c-0.6,0.4-1.1,0.7-1.4,1c-0.4,0.3-0.5,0.5-0.5,0.5
		c-18.2,17.1-28.5,42-33.4,64.5c-2,9.2-3,18-3.3,25.7c0,0.5,0,0.9,0,1.4s0,1,0,1.4v52.3c0.3-0.2,0.7-0.3,1-0.4
		c2.2-0.8,4.3-1.1,6.3-0.7c22.6,4.3,34.5,21.8,45.9,34.2c0.3,0.4,0.7,0.7,1,1.1V61.8C188.5,58.2,186.8,55,184.2,53.1z"/>
	<path class="st2" d="M177.2,51.9h0.1v-0.2L177.2,51.9z M184.2,51.8c-0.3-0.2-0.6-0.4-1-0.6c-0.3-0.2-0.6-0.3-1-0.5
		c-0.8-0.4-1.8-0.6-2.7-0.8c-0.1,0-0.1,0-0.2,0c-0.3,0-0.7-0.1-1-0.1c-0.1,0-0.3,0-0.4,0c-0.2,0-0.4,0-0.6,0c-0.3,0-0.5,0.1-0.7,0.1
		c-0.1,0-0.2,0-0.3,0.1c-0.7,0.1-1.3,0.3-1.9,0.6c-0.3,0.1-0.6,0.2-0.8,0.4c-0.3,0.2-0.6,0.3-0.9,0.5c-0.3,0.2-0.6,0.4-0.9,0.5
		s-0.5,0.3-0.6,0.5c-0.6,0.4-0.9,0.7-0.9,0.8c-0.1,0.1-0.2,0.2-0.3,0.3c-23.8,22.6-35.3,60.3-36.7,89.3c0,0.4,0,0.8-0.1,1.3
		c0,0.4,0,0.9,0,1.3c0,0.5,0,1.1,0,1.6v52.8c0.3-0.2,0.7-0.3,1-0.5s0.7-0.3,1-0.4v-52c0-0.5,0-1,0-1.5c0.2-8.3,1.3-17.4,3.3-26.7
		c0.2-1.1,0.5-2.2,0.8-3.3c5.3-22.2,15.9-45.2,32.4-60.8c0,0,0.6-0.6,1.5-1.2c0.5-0.3,1.2-0.7,1.9-1c0,0,0,0,0.1,0
		c0.2-0.1,0.4-0.1,0.6-0.2c0.2,0,0.3-0.1,0.5-0.1c0.3-0.1,0.6-0.2,0.9-0.2h0.1c0.2,0,0.4,0,0.5,0c0.2,0,0.4,0,0.5,0
		c0.9,0.1,1.8,0.3,2.7,0.6c0.7,0.3,1.4,0.6,2,1c2.7,1.7,4.5,4.8,4.5,8.3v170.6c0.3,0.4,0.7,0.7,1,1.1c0.3,0.4,0.7,0.7,1,1V61.8
		C189.5,57.6,187.4,53.9,184.2,51.8z"/>
	<path class="st3" d="M100.3,17.9V44h88.2V17.9H100.3z"/>
	<path class="st2" d="M99.3,16.9V45h90.2V16.9H99.3z M187.5,43h-86.3V18.9h86.3V43z"/>
	<path class="st4" d="M173.8,17.9v26.2h14.7V17.9H173.8z"/>
	<path class="st2" d="M172.8,16.9v28.2h16.7V16.9H172.8z M174.8,18.9h12.7v24.2h-12.8V18.9H174.8z"/>
	<path class="st2" d="M167.3,124.6h-11.9c-0.5,0-0.9,0.5-0.9,0.9v0.7c0,0.5,0.4,0.9,0.9,0.9h11.9c0.6,0,0.9-0.5,0.9-0.9v-0.7
		C168.2,125.1,167.8,124.6,167.3,124.6z M176.4,118.9h-20.9c-0.5,0-0.9,0.5-0.9,0.9v0.7c0,0.5,0.5,0.9,0.9,0.9h20.9
		c0.5,0,0.9-0.3,0.9-0.9v-0.7C177.3,119.3,176.9,118.9,176.4,118.9z M176.4,113.1h-20.9c-0.5,0-0.9,0.5-0.9,0.9v0.7
		c0,0.4,0.5,0.9,0.9,0.9h20.9c0.5,0,0.9-0.3,0.9-0.9V114C177.3,113.5,176.9,113.1,176.4,113.1z"/>
	<path class="st2" d="M93.6,152.9h-2.8l-1.4,1.1l-0.9,0.1v0.7h4l2.4-1.9v-0.7L93.6,152.9z"/>
	<path class="st5" d="M90.7,152.2l-2.3,1.9h4l2.4-1.9H90.7z"/>
	<path class="st2" d="M99.6,152.9h-3l-1.4,1.1l-0.9,0.1v0.7h4.2l2.4-1.9v-0.7L99.6,152.9z"/>
	<path class="st5" d="M96.8,152.2l-2.4,1.9h4.1l2.4-1.9H96.8z"/>
	<path class="st2" d="M105.5,152.9h-3l-1.4,1.1l-0.9,0.1v0.7h4l2.4-1.9v-0.7L105.5,152.9z"/>
	<path class="st5" d="M102.5,152.2l-2.3,1.9h4l2.4-1.9H102.5z"/>
	<path class="st2" d="M92.3,150.8v0.8h4l2.4-1.9v-0.8L92.3,150.8z"/>
	<path class="st5" d="M94.6,148.9l-2.3,1.9h4l2.4-1.9H94.6z"/>
	<path class="st2" d="M98.3,150.8v0.8h4l2.4-1.9v-0.8L98.3,150.8z"/>
	<path class="st5" d="M100.6,148.9l-2.3,1.9h4l2.4-1.9H100.6z"/>
	<path class="st2" d="M104.1,150.8v0.8h4l2.4-1.9v-0.8L104.1,150.8z"/>
	<path class="st5" d="M106.4,148.9l-2.3,1.9h4l2.4-1.9H106.4z"/>
	<path class="st2" d="M102.4,145.7l-1.1,0.6h-2.8l-1.4,1.1l-0.9,0.1v0.7h4l2.4-1.9v-0.7L102.4,145.7z"/>
	<path class="st5" d="M98.6,145.6l-0.1,0.1l-2.3,1.8h3.9l2.3-1.8l0.1-0.1H98.6z"/>
	<path class="st2" d="M108.4,145.7l-1,0.6h-3l-1.4,1.1l-0.9,0.1v0.7h4l2.4-1.9L108.4,145.7L108.4,145.7z"/>
	<path class="st5" d="M104.5,145.6l-0.1,0.1l-2.2,1.8h3.9l2.3-1.8l0.1-0.1H104.5z"/>
	<path class="st2" d="M114.3,145.7l-1.1,0.6h-2.9l-1.4,1.1l-0.9,0.1v0.7h4.1l2.4-1.9v-0.7L114.3,145.7z"/>
	<path class="st5" d="M110.4,145.6l-0.1,0.1l-2.3,1.8h4.1l2.3-1.8l0.1-0.1H110.4z"/>
	<path class="st6" d="M123.2,136.3H92.6c-0.6,0-1.1,0.2-1.5,0.6s-0.6,0.9-0.6,1.5c0,1.2,0.9,2.1,2.1,2.1h30.6c0.6,0,1.1-0.2,1.5-0.6
		s0.6-0.9,0.6-1.5C125.3,137.3,124.4,136.3,123.2,136.3z"/>
	<path class="st4" d="M130.5,105.6c-0.7-1.1-1.8-1.7-3-1.7h-31c-1.6,0-3,1.1-3.5,2.8c-0.4,1.3-0.2,2.7,0.5,3.8
		c0.7,1.1,1.8,1.7,3,1.7h31c1.6,0,3-1.1,3.5-2.8C131.4,108.1,131.2,106.7,130.5,105.6z"/>
	<path class="st1" d="M124.8,107.8l-0.3-0.9l-1.6,0.6l0.1-1.8h-0.9l0.1,1.8l-1.6-0.6l-0.3,0.9l1.6,0.5l-1,1.4l0.8,0.6l0.9-1.5
		l0.9,1.5l0.8-0.6l-1-1.4L124.8,107.8z M117.5,107.8l-0.2-0.9l-1.6,0.6l0.1-1.8h-0.9l0.1,1.8l-1.6-0.6l-0.3,0.9l1.6,0.5l-1.1,1.4
		l0.8,0.6l0.9-1.5l0.9,1.5l0.8-0.6l-1-1.4L117.5,107.8z M110.4,107.8l-0.2-0.9l-1.6,0.6l0.1-1.8h-0.9l0.1,1.8l-1.6-0.6l-0.3,0.9
		l1.6,0.5l-1.1,1.4l0.8,0.6l0.9-1.5l0.9,1.5l0.8-0.6l-1-1.4L110.4,107.8z M103.1,107.8l-0.2-0.9l-1.6,0.6l0.1-1.8h-0.9l0.1,1.8
		l-1.6-0.6l-0.3,0.9l1.6,0.5l-1,1.5l0.8,0.6l0.8-1.6l0.9,1.5l0.8-0.6l-1-1.4L103.1,107.8z"/>
	<path class="st1" d="M162.6,29c-0.3-0.1-0.7-0.2-1-0.3c-0.3-0.1-0.7-0.3-1-0.4s-0.7-0.3-1-0.5c-0.3-0.1-0.7-0.2-1-0.4
		c-0.3-0.1-0.7-0.1-1-0.1s-0.6,0.1-0.9,0.2c-0.2,0.1-0.6,0.2-0.8,0.5c-0.2,0.2-0.5,0.5-0.7,0.7s-0.5,0.6-0.6,0.8l1.4,0.9
		c0,0,0.1,0,0.1-0.1c0.1,0,0.2-0.1,0.2-0.2s0.1-0.2,0.2-0.3c0.1-0.1,0.2-0.2,0.3-0.3c0.1-0.1,0.2-0.1,0.3-0.2s0.3-0.1,0.5-0.1
		s0.4,0,0.8,0.1c0.3,0.1,0.6,0.2,0.9,0.3c0.2,0.2,0.6,0.3,0.9,0.4c0.3,0.1,0.8,0.2,1.1,0.3c-0.6,0.2-1,0.5-1.6,0.7s-1.1,0.3-1.7,0.6
		c-0.6,0.2-1.1,0.3-1.7,0.5c-0.6,0.1-1.1,0.1-1.7,0.1h-1.7c0-0.3,0-0.7-0.1-1c0-0.3-0.1-0.6-0.2-0.9c-0.1-0.2-0.3-0.6-0.5-0.8
		c-0.2-0.2-0.3-0.4-0.6-0.7c-0.6-0.6-1.3-0.9-1.9-0.9c-0.3,0-0.6,0.1-0.9,0.2c-0.2,0.1-0.6,0.3-0.8,0.7c-0.1,0.2-0.2,0.3-0.3,0.6
		c-0.1,0.2-0.1,0.5-0.2,0.7c-0.1,0.2-0.1,0.5-0.2,0.7c-0.1,0.2-0.1,0.5-0.1,0.7s0.1,0.6,0.1,0.8s0.1,0.5,0.3,0.7
		c0.3,0.2,0.6,0.5,1,0.7c0.5,0.2,0.9,0.3,1.4,0.3h1.4c0,0.3-0.2,0.6-0.5,0.9c-0.2,0.3-0.6,0.7-0.9,0.9c-0.3,0.2-0.8,0.5-1.4,0.7
		c-0.6,0.2-1.1,0.5-1.8,0.6l0.5,1.7c0.7-0.1,1.3-0.3,1.9-0.6c0.7-0.3,1.3-0.6,1.7-1c0.6-0.3,1-0.8,1.4-1.4c0.3-0.6,0.7-1.1,0.8-1.8
		h1.7c0.9,0,1.8-0.1,2.6-0.3c0.9-0.1,1.6-0.5,2.4-0.7c0.8-0.2,1.5-0.6,2.2-0.9c0.7-0.3,1.2-0.6,1.9-0.9l0.1-1.7
		C163.5,29.2,163,29.1,162.6,29z M150.4,32.1c-0.2,0-0.3-0.1-0.6-0.1c-0.1-0.1-0.3-0.1-0.5-0.2l-0.3-0.3c-0.1-0.1-0.1-0.2-0.1-0.5
		s0-0.3,0.1-0.6c0-0.2,0.1-0.5,0.2-0.6c0.1-0.1,0.2-0.2,0.3-0.3c0.1-0.1,0.2-0.1,0.3-0.1s0.2,0,0.3,0.1c0,0.1,0.1,0.1,0.2,0.2
		c0.1,0.1,0.2,0.3,0.3,0.5s0.2,0.3,0.3,0.6c0.1,0.2,0.1,0.5,0.2,0.7c0,0.2,0.1,0.4,0.1,0.7h-0.8V32.1z M157.5,23.8l-1.3,1.3l1.3,1.3
		l1.2-1.3L157.5,23.8z M145.7,30.6c0-0.4-0.1-0.9-0.5-1.4c-0.1-0.1-0.1-0.3-0.2-0.4c-0.2-0.3-0.4-0.6-0.7-0.8
		c-0.3-0.5-0.7-0.8-1.1-1.1c-0.5-0.3-0.8-0.7-1.3-0.9l-1,1.5c0.2,0.1,0.5,0.4,0.7,0.5c0.2,0.2,0.5,0.5,0.8,0.7
		c0.2,0.2,0.5,0.5,0.7,0.7s0.5,0.5,0.6,0.8c0.1,0.1,0.2,0.2,0.3,0.3c0.1,0.1,0.1,0.2,0.2,0.3c0.1,0.2,0.1,0.5,0.1,0.7
		s-0.1,0.3-0.2,0.4c-0.1,0.1-0.3,0.2-0.5,0.2s-0.3,0.1-0.6,0.1h-0.5c-0.2,0-0.5,0-0.7-0.1c-0.2,0-0.5-0.1-0.8-0.2
		c-0.2-0.1-0.5-0.2-0.8-0.3c-0.2-0.1-0.4-0.2-0.6-0.3l-0.7,1.7c0.2,0.1,0.5,0.2,0.8,0.5c0.2,0.1,0.6,0.2,0.9,0.3
		c0.3,0.1,0.5,0.2,0.8,0.2c0,0,0,0,0.1,0c0.3,0.1,0.6,0.1,0.9,0.1c0.6,0,1,0,1.5-0.2c0.5-0.1,0.8-0.3,1.1-0.7
		c0.3-0.3,0.5-0.7,0.6-1.1C145.8,31.5,145.8,31.1,145.7,30.6z M138.3,30.5c-0.1-0.2-0.5-0.9-0.5-1.3c-0.1-0.3-0.2-0.7-0.3-0.9
		c-0.1-0.3-0.2-0.6-0.3-0.8l-1.6,0.8c0.1,0.1,0.1,0.2,0.2,0.5c0.1,0.2,0.2,0.3,0.2,0.6c0,0.2,0.2,0.5,0.2,0.7s0.1,0.5,0.2,0.7
		c0,0.2,0.1,0.3,0.1,0.6c0,0.2,0,0.3-0.1,0.5c-0.1,0.1-0.2,0.2-0.5,0.3c-0.2,0.1-0.3,0.1-0.6,0.2c-0.2,0-0.5,0.1-0.7,0.1h-1.7
		c-0.2,0-0.3,0-0.6-0.1c-0.1-0.1-0.3-0.2-0.5-0.5c-0.1-0.2-0.3-0.4-0.5-0.8c-0.1-0.3-0.3-0.8-0.4-1.4l-1.6,0.7
		c0.1,0.2,0.1,0.3,0.2,0.6c0.1,0.2,0.2,0.5,0.2,0.7c0.1,0.2,0.1,0.5,0.2,0.8c0.1,0.2,0.1,0.6,0.1,0.8v0.2c0,0.3,0,0.6-0.1,0.8
		s-0.2,0.6-0.5,0.8c-0.2,0.2-0.4,0.4-0.7,0.8c-0.2,0.2-0.6,0.5-0.8,0.7s-0.6,0.5-0.9,0.6c-0.3,0.2-0.7,0.3-0.9,0.6l0.8,1.6
		c0.6-0.3,1.1-0.6,1.7-1c0.6-0.5,1-0.8,1.5-1.3s0.8-0.9,1.1-1.5s0.5-1,0.6-1.6c0.1,0.1,0.2,0.1,0.3,0.1s0.2,0.1,0.3,0.1s0.2,0,0.2,0
		c0.1,0,0.1,0,0.1,0h2.7c0.2,0,0.3,0,0.5-0.1c0.5-0.1,0.8-0.3,1.1-0.6c0.3-0.2,0.6-0.6,0.7-1c0.1-0.3,0.2-0.7,0.2-1.1
		C138.5,31.1,138.5,30.7,138.3,30.5z M135.4,37.1l-1,1l1,1l1-1L135.4,37.1z M136.7,34.9l-1.1,1.1l1.1,1.1l1.1-1.1L136.7,34.9z
		 M134.1,34.9L133,36l1.1,1.1l1.1-1.1L134.1,34.9z M126.9,30.6c-0.1-0.4-0.3-0.9-0.6-1.4c-0.2-0.5-0.6-0.9-0.9-1.3
		c-0.3-0.5-0.7-0.8-1.1-1.1c-0.4-0.3-0.8-0.7-1.2-0.9l-1,1.5c0.2,0.1,0.4,0.4,0.7,0.5c0.2,0.2,0.4,0.5,0.8,0.7l0.7,0.7
		c0.2,0.2,0.5,0.5,0.6,0.8c0.2,0.2,0.3,0.5,0.5,0.7c0.1,0.2,0.1,0.5,0.1,0.7s-0.1,0.3-0.2,0.4s-0.3,0.2-0.5,0.2s-0.4,0.1-0.6,0.1
		h-0.5c-0.2,0-0.5,0-0.7-0.1c-0.2,0-0.5-0.1-0.8-0.2c-0.2-0.1-0.5-0.2-0.8-0.3c-0.2-0.1-0.5-0.2-0.6-0.3l-0.7,1.7
		c0.2,0.1,0.5,0.2,0.8,0.5c0.2,0.1,0.6,0.2,0.9,0.3s0.6,0.2,0.9,0.2c0.3,0.1,0.6,0.1,0.9,0.1c0.6,0,1,0,1.5-0.2
		c0.4-0.1,0.8-0.3,1.1-0.7c0.3-0.3,0.5-0.7,0.6-1.1C127,31.5,127,31.1,126.9,30.6z M118.9,23.2l-1.8,0.5c0.1,1.5,0.2,3.2,0.3,5
		c0,1.4,0,3.2-0.1,5.2l1.8-0.2c0.1-1.4,0.1-3.3,0.1-5.7C119.3,26.5,119.2,24.9,118.9,23.2z M115.8,31.9c0-0.2-0.1-0.4-0.1-0.6
		s-0.1-0.5-0.1-0.6c-0.1-0.5-0.2-0.9-0.5-1.2l-1.7,0.6c0.1,0.2,0.1,0.5,0.2,0.7s0.2,0.6,0.2,0.8c0.1,0.2,0.1,0.6,0.2,0.8
		s0.1,0.6,0.1,0.8s0,0.6-0.1,0.8s-0.2,0.6-0.5,0.8c-0.2,0.2-0.3,0.5-0.6,0.8c-0.2,0.3-0.5,0.5-0.8,0.7s-0.6,0.4-0.9,0.6
		c-0.3,0.2-0.7,0.3-0.9,0.6l0.8,1.6c0.5-0.2,0.8-0.5,1.1-0.7c0.3-0.2,0.8-0.6,1.1-0.8c0.3-0.3,0.7-0.6,1-0.9c0.3-0.3,0.6-0.7,0.8-1
		c0.2-0.3,0.3-0.7,0.6-1.1c0.1-0.3,0.2-0.8,0.2-1.1v-0.6C115.8,32.3,115.8,32.1,115.8,31.9z M114.1,25.4l-1.2,1.3l1.2,1.3l1.3-1.3
		L114.1,25.4z"/>
</g>
<g class="st0">
	<path class="st5" d="M16.7,210.9h216c1.1,0,2-0.9,2-2v-166c0-1.1-0.9-2-2-2h-216c-1.1,0-2,0.9-2,2v166
		C14.7,210,15.6,210.9,16.7,210.9z"/>
	<path class="st13" d="M164.7,40.9h68c1.1,0,2,0.9,2,2v118h-70V40.9z"/>
	<path class="st13" d="M14.7,160.9h150v-120h-148c-1.1,0-2,0.9-2,2C14.7,42.9,14.7,160.9,14.7,160.9z"/>
	<path class="st13" d="M234.7,160.9h-220v48c0,1.1,0.9,2,2,2h216c1.1,0,2-0.9,2-2V160.9z"/>
	<rect x="45.6" y="53" class="st4" width="87.8" height="80"/>
	<path class="st14" d="M147.4,53h-14v80h14c1.1,0,2-0.9,2-2V55C149.4,53.9,148.5,53,147.4,53z"/>
	<path class="st14" d="M45.6,53h-14c-1.1,0-2,0.9-2,2v76c0,1.1,0.9,2,2,2h14V53z"/>
	<path class="st14" d="M176.7,65h46c1.1,0,2-0.9,2-2v-8c0-1.1-0.9-2-2-2h-46c-1.1,0-2,0.9-2,2v8C174.7,64.1,175.6,65,176.7,65z"/>
	<path class="st14" d="M176.7,133h46c1.1,0,2-0.9,2-2v-8c0-1.1-0.9-2-2-2h-46c-1.1,0-2,0.9-2,2v8C174.7,132.1,175.6,133,176.7,133z"
		/>
	<path class="st14" d="M176.7,99h46c1.1,0,2-0.9,2-2v-8c0-1.1-0.9-2-2-2h-46c-1.1,0-2,0.9-2,2v8C174.7,98.1,175.6,99,176.7,99z"/>
	<path class="st14" d="M46.7,153h86c1.1,0,2-0.9,2-2v-8c0-1.1-0.9-2-2-2h-86c-1.1,0-2,0.9-2,2v8C44.7,152.1,45.6,153,46.7,153z"/>
	<path class="st1" d="M146.5,79.5h-10c-0.6,0-1-0.4-1-1v-4c0-0.6,0.4-1,1-1h10c0.6,0,1,0.4,1,1v4C147.5,79.1,147.1,79.5,146.5,79.5z
		"/>
	<path class="st1" d="M146.5,90.5h-10c-0.6,0-1-0.4-1-1v-4c0-0.6,0.4-1,1-1h10c0.6,0,1,0.4,1,1v4C147.5,90.1,147.1,90.5,146.5,90.5z
		"/>
	<path class="st1" d="M146.5,101.5h-10c-0.6,0-1-0.4-1-1v-4c0-0.6,0.4-1,1-1h10c0.6,0,1,0.4,1,1v4
		C147.5,101.1,147.1,101.5,146.5,101.5z"/>
	<path class="st1" d="M146.5,112.5h-10c-0.6,0-1-0.4-1-1v-4c0-0.6,0.4-1,1-1h10c0.6,0,1,0.4,1,1v4
		C147.5,112.1,147.1,112.5,146.5,112.5z"/>
	<path class="st1" d="M42.6,79.5h-10c-0.6,0-1-0.4-1-1v-4c0-0.6,0.4-1,1-1h10c0.6,0,1,0.4,1,1v4C43.6,79.1,43.2,79.5,42.6,79.5z"/>
	<path class="st1" d="M42.6,90.5h-10c-0.6,0-1-0.4-1-1v-4c0-0.6,0.4-1,1-1h10c0.6,0,1,0.4,1,1v4C43.6,90.1,43.2,90.5,42.6,90.5z"/>
	<path class="st1" d="M42.6,101.5h-10c-0.6,0-1-0.4-1-1v-4c0-0.6,0.4-1,1-1h10c0.6,0,1,0.4,1,1v4C43.6,101.1,43.2,101.5,42.6,101.5z
		"/>
	<path class="st1" d="M42.6,112.5h-10c-0.6,0-1-0.4-1-1v-4c0-0.6,0.4-1,1-1h10c0.6,0,1,0.4,1,1v4C43.6,112.1,43.2,112.5,42.6,112.5z
		"/>
	<path class="st1" d="M51.5,149h76c1.1,0,2-0.9,2-2l0,0c0-1.1-0.9-2-2-2h-76c-1.1,0-2,0.9-2,2l0,0C49.5,148.1,50.4,149,51.5,149z"/>
	<path class="st1" d="M181.7,61h36c1.1,0,2-0.9,2-2l0,0c0-1.1-0.9-2-2-2h-36c-1.1,0-2,0.9-2,2l0,0C179.7,60.1,180.6,61,181.7,61z"/>
	<path class="st1" d="M181.7,129h36c1.1,0,2-0.9,2-2l0,0c0-1.1-0.9-2-2-2h-36c-1.1,0-2,0.9-2,2l0,0C179.7,128.1,180.6,129,181.7,129
		z"/>
	<path class="st1" d="M181.7,95h36c1.1,0,2-0.9,2-2l0,0c0-1.1-0.9-2-2-2h-36c-1.1,0-2,0.9-2,2l0,0C179.7,94.1,180.6,95,181.7,95z"/>
	<path class="st14" d="M56.4,205.9h66c1.1,0,2-0.9,2-2v-36c0-1.1-0.9-2-2-2h-66c-1.1,0-2,0.9-2,2v36C54.4,205,55.3,205.9,56.4,205.9
		z"/>
	<path class="st1" d="M70.4,176.9h-10c-0.6,0-1-0.4-1-1v-4c0-0.6,0.4-1,1-1h10c0.6,0,1,0.4,1,1v4C71.4,176.4,70.9,176.9,70.4,176.9z
		"/>
	<path class="st1" d="M70.4,184.9h-10c-0.6,0-1-0.4-1-1v-4c0-0.6,0.4-1,1-1h10c0.6,0,1,0.4,1,1v4C71.4,184.4,70.9,184.9,70.4,184.9z
		"/>
	<path class="st1" d="M70.4,192.9h-10c-0.6,0-1-0.4-1-1v-4c0-0.6,0.4-1,1-1h10c0.6,0,1,0.4,1,1v4C71.4,192.4,70.9,192.9,70.4,192.9z
		"/>
	<path class="st1" d="M70.4,200.9h-10c-0.6,0-1-0.4-1-1v-4c0-0.6,0.4-1,1-1h10c0.6,0,1,0.4,1,1v4C71.4,200.4,70.9,200.9,70.4,200.9z
		"/>
	<path class="st1" d="M84.4,176.9h-10c-0.6,0-1-0.4-1-1v-4c0-0.6,0.4-1,1-1h10c0.6,0,1,0.4,1,1v4C85.4,176.4,84.9,176.9,84.4,176.9z
		"/>
	<path class="st1" d="M84.4,184.9h-10c-0.6,0-1-0.4-1-1v-4c0-0.6,0.4-1,1-1h10c0.6,0,1,0.4,1,1v4C85.4,184.4,84.9,184.9,84.4,184.9z
		"/>
	<path class="st1" d="M84.4,192.9h-10c-0.6,0-1-0.4-1-1v-4c0-0.6,0.4-1,1-1h10c0.6,0,1,0.4,1,1v4C85.4,192.4,84.9,192.9,84.4,192.9z
		"/>
	<path class="st1" d="M84.4,200.9h-10c-0.6,0-1-0.4-1-1v-4c0-0.6,0.4-1,1-1h10c0.6,0,1,0.4,1,1v4C85.4,200.4,84.9,200.9,84.4,200.9z
		"/>
	<path class="st1" d="M98.4,176.9h-10c-0.6,0-1-0.4-1-1v-4c0-0.6,0.4-1,1-1h10c0.6,0,1,0.4,1,1v4C99.4,176.4,98.9,176.9,98.4,176.9z
		"/>
	<path class="st1" d="M98.4,184.9h-10c-0.6,0-1-0.4-1-1v-4c0-0.6,0.4-1,1-1h10c0.6,0,1,0.4,1,1v4C99.4,184.4,98.9,184.9,98.4,184.9z
		"/>
	<path class="st1" d="M98.4,192.9h-10c-0.6,0-1-0.4-1-1v-4c0-0.6,0.4-1,1-1h10c0.6,0,1,0.4,1,1v4C99.4,192.4,98.9,192.9,98.4,192.9z
		"/>
	<path class="st1" d="M98.4,200.9h-10c-0.6,0-1-0.4-1-1v-4c0-0.6,0.4-1,1-1h10c0.6,0,1,0.4,1,1v4C99.4,200.4,98.9,200.9,98.4,200.9z
		"/>
	<path class="st1" d="M118.4,200.9h-13c-0.6,0-1-0.4-1-1v-4c0-0.6,0.4-1,1-1h13c0.6,0,1,0.4,1,1v4
		C119.4,200.4,118.9,200.9,118.4,200.9z"/>
	<path class="st14" d="M117.4,196.9h-11c-0.3,0-0.5-0.2-0.5-0.5l0,0c0-0.3,0.2-0.5,0.5-0.5h11c0.3,0,0.5,0.2,0.5,0.5l0,0
		C117.9,196.6,117.6,196.9,117.4,196.9z"/>
	<path class="st1" d="M118.4,192.9h-13c-0.6,0-1-0.4-1-1v-4c0-0.6,0.4-1,1-1h13c0.6,0,1,0.4,1,1v4
		C119.4,192.4,118.9,192.9,118.4,192.9z"/>
	<path class="st14" d="M117.4,188.9h-11c-0.3,0-0.5-0.2-0.5-0.5l0,0c0-0.3,0.2-0.5,0.5-0.5h11c0.3,0,0.5,0.2,0.5,0.5l0,0
		C117.9,188.6,117.6,188.9,117.4,188.9z"/>
	<path class="st1" d="M118.4,184.9h-13c-0.6,0-1-0.4-1-1v-4c0-0.6,0.4-1,1-1h13c0.6,0,1,0.4,1,1v4
		C119.4,184.4,118.9,184.9,118.4,184.9z"/>
	<path class="st14" d="M117.4,180.9h-11c-0.3,0-0.5-0.2-0.5-0.5l0,0c0-0.3,0.2-0.5,0.5-0.5h11c0.3,0,0.5,0.2,0.5,0.5l0,0
		C117.9,180.6,117.6,180.9,117.4,180.9z"/>
	<path class="st1" d="M118.4,176.9h-13c-0.6,0-1-0.4-1-1v-4c0-0.6,0.4-1,1-1h13c0.6,0,1,0.4,1,1v4
		C119.4,176.4,118.9,176.9,118.4,176.9z"/>
	<path class="st14" d="M117.4,172.9h-11c-0.3,0-0.5-0.2-0.5-0.5l0,0c0-0.3,0.2-0.5,0.5-0.5h11c0.3,0,0.5,0.2,0.5,0.5l0,0
		C117.9,172.6,117.6,172.9,117.4,172.9z"/>
	<g class="st2">
		<path class="st7" d="M75.3,79.7c0,0-0.1,0-0.2,0s-0.1,0-0.2,0s-0.2,0-0.3-0.1c-0.1,0-0.2-0.1-0.3-0.1c0,0.4-0.2,0.9-0.4,1.3
			c-0.2,0.4-0.5,0.8-0.8,1.1c-0.3,0.4-0.7,0.7-1.1,1s-0.8,0.5-1.3,0.8l-0.6-1.2c0.2-0.1,0.5-0.3,0.7-0.4s0.5-0.3,0.7-0.5
			s0.4-0.3,0.6-0.5s0.4-0.4,0.5-0.6s0.3-0.4,0.3-0.6c0.1-0.2,0.1-0.4,0.1-0.6v-0.1v-0.1l0,0c0-0.2-0.1-0.4-0.1-0.6
			c-0.1-0.2-0.1-0.4-0.2-0.6s-0.1-0.4-0.2-0.5s0-0.4-0.1-0.6l1.3-0.5c0.1,0.4,0.3,0.7,0.4,1s0.2,0.5,0.4,0.6
			c0.1,0.2,0.2,0.3,0.4,0.3c0.1,0.1,0.3,0.1,0.4,0.1l0,0c0.1,0,0.2,0,0.3,0.1c0.1,0,0.2,0.1,0.2,0.1c0.1,0.1,0.1,0.1,0.1,0.2
			S76,78.9,76,79c0,0.1,0,0.2-0.1,0.3s-0.1,0.2-0.1,0.2c-0.1,0.1-0.1,0.1-0.2,0.1S75.3,79.7,75.3,79.7z M74,74.1l-1,1l-1-1l1-1
			L74,74.1z"/>
		<path class="st7" d="M74.6,79c0-0.1,0-0.2,0.1-0.3s0.1-0.1,0.1-0.2c0.1-0.1,0.1-0.1,0.2-0.1s0.2-0.1,0.3-0.1c0.3,0,0.5,0,0.7-0.1
			s0.4-0.2,0.5-0.4c0.1-0.2,0.3-0.3,0.4-0.5s0.2-0.4,0.3-0.6c0.1-0.2,0.2-0.4,0.3-0.5c0.1-0.2,0.2-0.3,0.3-0.5
			c0.2-0.2,0.4-0.4,0.6-0.5s0.4-0.2,0.7-0.2c0.3,0,0.5,0.1,0.8,0.2c0.2,0.1,0.5,0.3,0.6,0.5s0.3,0.4,0.4,0.6s0.2,0.5,0.2,0.7l0,0
			c0,0.1,0,0.3,0,0.4c0,0.2,0,0.4,0,0.5c0,0.2-0.1,0.3-0.1,0.5c-0.1,0.3-0.3,0.5-0.4,0.7s-0.4,0.3-0.6,0.4c-0.1,0-0.2,0-0.2,0
			c-0.1,0-0.2,0-0.2,0c-0.1,0-0.3,0-0.5-0.1c-0.2,0-0.3-0.1-0.5-0.1c-0.1,0-0.2-0.1-0.2-0.1s-0.2-0.1-0.3-0.1c-0.5,0-0.6,0-0.6-0.1
			c-0.1-0.1-0.2-0.1-0.3-0.2c-0.1,0.1-0.3,0.3-0.4,0.4s-0.3,0.2-0.5,0.3c-0.2,0.1-0.3,0.1-0.5,0.2c-0.2,0-0.4,0.1-0.6,0.1
			c-0.1,0-0.2,0-0.3-0.1c-0.1,0-0.1-0.1-0.2-0.1c-0.1-0.1-0.1-0.1-0.1-0.2S74.6,79.1,74.6,79z M78,77.8c0.1,0.1,0.2,0.2,0.4,0.2
			c0.1,0.1,0.3,0.1,0.4,0.2s0.3,0.1,0.4,0.1s0.2,0,0.3,0h0.1c0,0,0.1,0,0.1-0.1l0.1-0.1c0-0.1,0.1-0.1,0.1-0.2s0-0.2,0-0.3
			c0,0,0-0.1,0-0.2s-0.1-0.2-0.1-0.3s-0.1-0.2-0.1-0.3c-0.1-0.1-0.1-0.2-0.2-0.3c-0.1-0.1-0.2-0.1-0.3-0.2s-0.2-0.1-0.3-0.1
			c-0.1,0-0.2,0.1-0.3,0.2c-0.1,0.2-0.2,0.4-0.4,0.7L78,77.8z"/>
		<path class="st7" d="M84,76.2c0.1,0.3,0.2,0.7,0.3,1c0,0.1,0.1,0.3,0.1,0.5s0.1,0.3,0.1,0.5s0.1,0.3,0.1,0.5s0,0.3,0,0.4
			c0,0.3,0,0.6-0.1,0.9s-0.2,0.6-0.4,0.9c-0.2,0.3-0.4,0.5-0.6,0.8s-0.5,0.5-0.8,0.7s-0.6,0.4-0.9,0.6s-0.6,0.4-0.9,0.5l-0.6-1.2
			c0.2-0.1,0.5-0.3,0.7-0.4s0.5-0.3,0.7-0.5s0.4-0.3,0.6-0.5s0.3-0.4,0.5-0.6c0.1-0.2,0.2-0.4,0.3-0.6c0.1-0.2,0.1-0.4,0.1-0.6
			s0-0.4-0.1-0.6c0-0.2-0.1-0.4-0.2-0.7c-0.1-0.2-0.1-0.4-0.2-0.6s-0.1-0.4-0.2-0.5L84,76.2z"/>
		<path class="st7" d="M89.2,77.6c0.1,0.1,0.3,0.2,0.5,0.3s0.4,0.2,0.6,0.2c0.2,0.1,0.4,0.1,0.6,0.2c0.2,0,0.4,0.1,0.5,0.1
			s0.2,0,0.4,0c0.1,0,0.3,0,0.4-0.1c0.1,0,0.3-0.1,0.4-0.2s0.2-0.2,0.2-0.4c0-0.1,0-0.3-0.1-0.5s-0.2-0.4-0.3-0.6s-0.3-0.4-0.5-0.6
			s-0.4-0.4-0.6-0.6s-0.4-0.3-0.6-0.5s-0.4-0.3-0.5-0.4l0.8-1.2c0.3,0.2,0.6,0.5,0.9,0.7c0.3,0.3,0.6,0.6,0.9,0.9s0.5,0.6,0.7,1
			c0.2,0.3,0.3,0.7,0.4,1c0.1,0.4,0.1,0.7,0,1.1c-0.1,0.3-0.2,0.6-0.5,0.8s-0.5,0.4-0.9,0.5c-0.3,0.1-0.7,0.2-1.2,0.2
			c-0.2,0-0.5,0-0.7-0.1c-0.2,0-0.5-0.1-0.7-0.2s-0.4-0.2-0.7-0.3s-0.4-0.2-0.6-0.3L89.2,77.6z"/>
		<path class="st7" d="M94.5,82c0.5-0.1,1-0.2,1.4-0.4c0.4-0.2,0.8-0.4,1.1-0.6c0.3-0.2,0.5-0.4,0.7-0.7c0.2-0.2,0.3-0.5,0.4-0.7
			c-0.1,0-0.2,0-0.3,0c-0.1,0-0.2,0-0.3,0c-0.1,0-0.2,0-0.3,0c-0.1,0-0.2,0-0.2,0c-0.4,0-0.7-0.1-1-0.2s-0.6-0.3-0.7-0.6
			c-0.1-0.2-0.2-0.4-0.3-0.6c-0.1-0.2-0.1-0.4-0.1-0.6s0-0.4,0-0.5c0-0.2,0.1-0.4,0.1-0.5c0.1-0.2,0.1-0.3,0.2-0.5s0.2-0.3,0.3-0.4
			c0.2-0.2,0.4-0.4,0.6-0.5s0.5-0.2,0.7-0.2c0.5,0,1,0.2,1.5,0.7c0.2,0.2,0.3,0.4,0.4,0.6s0.2,0.5,0.3,0.7c0.1,0.3,0.2,0.5,0.2,0.8
			s0.1,0.6,0.1,0.8c0,0.1,0,0.2,0,0.3s0,0.2,0,0.3c-0.1,0.6-0.2,1.1-0.5,1.6s-0.6,0.9-1,1.2s-0.9,0.6-1.4,0.9
			c-0.5,0.2-1.1,0.4-1.6,0.5L94.5,82z M96.9,76.3c-0.1,0-0.2,0-0.3,0.1c-0.1,0.1-0.2,0.2-0.3,0.3s-0.2,0.3-0.2,0.4
			C96,77.2,96,77.4,96,77.5s0,0.3,0.1,0.4s0.2,0.2,0.3,0.2c0.1,0.1,0.2,0.1,0.4,0.1c0.1,0,0.3,0.1,0.4,0.1s0.2,0,0.2,0s0.2,0,0.3,0
			s0.2,0,0.3,0s0.2,0,0.3,0c0-0.2-0.1-0.4-0.1-0.6s-0.1-0.3-0.2-0.5c-0.1-0.1-0.2-0.3-0.2-0.4c-0.1-0.1-0.2-0.2-0.2-0.3l0,0
			c-0.1-0.1-0.1-0.1-0.2-0.2C97.1,76.3,97,76.3,96.9,76.3z"/>
		<path class="st7" d="M102.5,76.2c0.1,0.3,0.2,0.7,0.3,1c0,0.1,0.1,0.3,0.1,0.5s0.1,0.3,0.1,0.5s0.1,0.3,0.1,0.5s0,0.3,0,0.4
			c0,0.3,0,0.6-0.1,0.9s-0.2,0.6-0.4,0.9c-0.2,0.3-0.4,0.5-0.6,0.8s-0.5,0.5-0.8,0.7s-0.6,0.4-0.9,0.6s-0.6,0.4-0.9,0.5l-0.6-1.2
			c0.2-0.1,0.5-0.3,0.7-0.4s0.5-0.3,0.7-0.5s0.4-0.3,0.6-0.5s0.3-0.4,0.5-0.6c0.1-0.2,0.2-0.4,0.3-0.6c0.1-0.2,0.1-0.4,0.1-0.6
			s0-0.4-0.1-0.6c0-0.2-0.1-0.4-0.2-0.7c-0.1-0.2-0.1-0.4-0.2-0.6s-0.1-0.4-0.2-0.5L102.5,76.2z"/>
		<path class="st7" d="M103.7,82c0.5-0.1,1-0.2,1.4-0.4c0.4-0.2,0.8-0.4,1.1-0.6c0.3-0.2,0.5-0.4,0.7-0.7c0.2-0.2,0.3-0.5,0.4-0.7
			c-0.1,0-0.2,0-0.3,0s-0.2,0-0.3,0s-0.2,0-0.3,0c-0.1,0-0.2,0-0.2,0c-0.4,0-0.7-0.1-1-0.2s-0.6-0.3-0.7-0.6
			c-0.1-0.2-0.2-0.4-0.3-0.6c-0.1-0.2-0.1-0.4-0.1-0.6s0-0.4,0-0.5c0-0.2,0.1-0.4,0.1-0.5c0.1-0.2,0.1-0.3,0.2-0.5s0.2-0.3,0.3-0.4
			c0.2-0.2,0.4-0.4,0.6-0.5s0.5-0.2,0.7-0.2c0.5,0,1,0.2,1.5,0.7c0.2,0.2,0.3,0.4,0.4,0.6s0.2,0.5,0.3,0.7c0.1,0.3,0.2,0.5,0.2,0.8
			s0.1,0.6,0.1,0.8c0,0.1,0,0.2,0,0.3c0,0.1,0,0.2,0,0.3c-0.1,0.6-0.2,1.1-0.5,1.6s-0.6,0.9-1,1.2c-0.4,0.4-0.9,0.6-1.4,0.9
			c-0.5,0.2-1.1,0.4-1.6,0.5L103.7,82z M106.1,76.3c-0.1,0-0.2,0-0.3,0.1c-0.1,0.1-0.2,0.2-0.3,0.3c-0.1,0.1-0.2,0.3-0.2,0.4
			c-0.1,0.1-0.1,0.3-0.1,0.4s0,0.3,0.1,0.4s0.2,0.2,0.3,0.2c0.1,0.1,0.2,0.1,0.4,0.1c0.1,0,0.3,0.1,0.4,0.1s0.2,0,0.2,0
			c0.1,0,0.2,0,0.3,0s0.2,0,0.3,0s0.2,0,0.3,0c0-0.2-0.1-0.4-0.1-0.6c-0.1-0.2-0.1-0.3-0.2-0.5c-0.1-0.1-0.2-0.3-0.2-0.4
			c-0.1-0.1-0.2-0.2-0.2-0.3l0,0c-0.1-0.1-0.1-0.1-0.2-0.2C106.3,76.3,106.2,76.3,106.1,76.3z"/>
	</g>
	<path class="st1" d="M61.2,112.9h56.9c4.2,0,7.7-3.4,7.7-7.7l0,0c0-4.2-3.4-7.7-7.7-7.7H61.2c-4.2,0-7.7,3.4-7.7,7.7l0,0
		C53.5,109.4,56.9,112.9,61.2,112.9z"/>
	<path class="st2" d="M71.7,105.6l-2.4-0.7l0.4-1.3l2.4,0.9l-0.1-2.7h1.4l-0.1,2.7l2.3-0.9l0.4,1.3l-2.4,0.7l1.6,2.1l-1.1,0.8
		l-1.4-2.3l-1.4,2.2l-1.1-0.8L71.7,105.6z M83,105.6l-2.4-0.7l0.4-1.3l2.4,0.9l-0.1-2.7h1.4l-0.1,2.7l2.3-0.9l0.4,1.3l-2.4,0.7
		l1.6,2.1l-1.1,0.8l-1.4-2.3l-1.4,2.2l-1.1-0.8L83,105.6z M94.3,105.6l-2.4-0.7l0.4-1.3l2.4,0.9l-0.1-2.7H96l-0.1,2.7l2.3-0.9
		l0.4,1.3l-2.4,0.7l1.6,2.1l-1.1,0.8l-1.4-2.3l-1.4,2.2l-1.1-0.8L94.3,105.6z M105.6,105.6l-2.4-0.7l0.4-1.3l2.4,0.9l-0.1-2.7h1.4
		l-0.1,2.7l2.3-0.9l0.4,1.3l-2.4,0.7l1.6,2.1l-1.1,0.8l-1.4-2.3l-1.4,2.2l-1.1-0.8L105.6,105.6z"/>
	<path class="st5" d="M217.2,93.3h-35.1c-0.1,0-0.3-0.1-0.3-0.3s0.1-0.3,0.3-0.3h35.1c0.1,0,0.3,0.1,0.3,0.3S217.3,93.3,217.2,93.3z
		"/>
	<path class="st4" d="M186,113.4V93h27.3v20.3c0,1.1-0.9,2-2,2H188C186.9,115.4,186,114.5,186,113.4z"/>
	<path class="st1" d="M198.4,111.4v-9c0-0.3,0.2-0.5,0.5-0.5l0,0c0.3,0,0.5,0.2,0.5,0.5v9c0,0.3-0.2,0.5-0.5,0.5l0,0
		C198.6,111.9,198.4,111.7,198.4,111.4z M198.9,98L198.9,98c0.3,0,0.5-0.2,0.5-0.5V93h-1v4.5C198.4,97.8,198.6,98,198.9,98z
		 M206.1,111.9h4.3c0.6,0,1-0.4,1-1v-4.3c0-0.6-0.4-1-1-1h-4.3c-0.6,0-1,0.4-1,1v4.3C205.1,111.4,205.5,111.9,206.1,111.9z
		 M188,110.9c0,0.6,0.4,1,1,1h5.1c0.6,0,1-0.4,1-1V93H188V110.9z"/>
</g>
<g>
	<path class="st15" d="M0,0h250v250H0V0z"/>
	<path class="st16" d="M185,221.1c-32.6,17.6-99.1,26.6-141.9,8.8C-17.4,204.5-4.5,138.3,23,113.4c33-30,67.1-13.3,88.5-26.4
		c21.2-13,39.7-86.7,87.5-75.4c41.3,9.7,53.9,57,50.4,96.9C244.9,158.9,218.7,202.9,185,221.1z"/>
	<g>
		<path class="st11" d="M67,230V20c0-2.8,2.2-5,5-5h106c2.8,0,5,2.2,5,5v210c0,2.8-2.2,5-5,5H72C69.2,235,67,232.8,67,230z"/>
		<path class="st7" d="M74,200.7v-160c0-2.8,2.2-5,5-5h92c2.8,0,5,2.2,5,5v160c0,2.8-2.2,5-5,5H79C76.2,205.7,74,203.5,74,200.7z"/>
		<path class="st7" d="M117,226.2v-11.9c0-1.1,0.9-2.1,2.1-2.1H131c1.1,0,2.1,0.9,2.1,2.1v11.9c0,1.1-0.9,2.1-2.1,2.1h-11.9
			C117.9,228.2,117,227.3,117,226.2z"/>
		<path class="st7" d="M104,26.6L104,26.6c0-0.6,0.4-1,1-1h40c0.6,0,1,0.4,1,1l0,0c0,0.6-0.4,1-1,1h-40
			C104.4,27.6,104,27.2,104,26.6z"/>
		<g>
			<path class="st8" d="M74,125.7h34v20H74V125.7z"/>
			<path class="st8" d="M74,145.7h34v20H74V145.7z"/>
			<path class="st8" d="M74,165.7h34v20H74V165.7z"/>
			<path class="st8" d="M74,185.7h34v20H79c-2.8,0-5-2.2-5-5V185.7z"/>
			<path class="st8" d="M108,125.7h34v20h-34V125.7z"/>
			<path class="st8" d="M108,145.7h34v20h-34V145.7z"/>
			<path class="st8" d="M108,165.7h34v20h-34V165.7z"/>
			<path class="st8" d="M108,185.7h34v20h-34V185.7z"/>
			<path class="st8" d="M142,185.7h34v15c0,2.8-2.2,5-5,5h-29V185.7z"/>
			<path class="st8" d="M142,165.7h34v20h-34V165.7z"/>
			<path class="st8" d="M142,145.7h34v20h-34V145.7z"/>
			<path class="st8" d="M142,125.7h34v20h-34V125.7z"/>
			<path class="st9" d="M107.5,125.7h1v80h-1V125.7z"/>
			<path class="st9" d="M141.5,125.7h1v80h-1V125.7z"/>
			<path class="st9" d="M74,146.2v-1h102v1H74z"/>
			<path class="st9" d="M74,166.2v-1h102v1H74z"/>
			<path class="st9" d="M74,186.2v-1h102v1H74z"/>
			<path d="M90.7,140.4c0-0.5,0-1,0-1.5s0-1,0-1.5s-0.1-1-0.1-1.5s-0.1-1-0.2-1.4c-0.1-0.5-0.2-0.9-0.3-1.3
				c-0.1-0.4-0.3-0.8-0.4-1.1l1.5-0.9c0.2,0.3,0.4,0.6,0.5,1s0.2,0.7,0.3,1.1c0.1,0.4,0.2,0.7,0.2,1.1c0.1,0.4,0.1,0.8,0.2,1.2
				c0,0.3,0.1,0.6,0.1,1s0,0.7,0.1,1.1c0,0.4,0,0.7,0,1.1c0,0.4,0,0.7,0,1v0.2v0.5h-1.9V140.4z"/>
			<path d="M127.8,131.1c0,0.3,0.1,0.5,0.1,0.8c0,0.2,0,0.4,0,0.6c0,0.4,0,0.7-0.2,1.1c-0.1,0.4-0.3,0.7-0.6,1.1
				c-0.2,0.3-0.5,0.5-0.8,0.6s-0.6,0.2-1,0.2c-0.1,0-0.2,0-0.3,0c-0.1,0-0.2,0-0.3,0c0,0.4,0.1,0.8,0.1,1.2s0,0.8,0.1,1.3
				c0,0.4,0,0.8,0,1.3s0,0.8,0,1.2h-1.8c0-0.6,0-1.3,0-1.9c0-0.7,0-1.3-0.1-1.9s-0.1-1.2-0.2-1.7s-0.2-1-0.4-1.5l0,0l0.1-0.5v-0.1
				l0,0v-0.1l0,0c0-0.1-0.1-0.2-0.1-0.3c-0.1-0.1-0.1-0.3-0.3-0.5l1.5-0.9c0.1,0.1,0.1,0.2,0.2,0.3s0.1,0.2,0.1,0.3s0.1,0.2,0.1,0.2
				c0,0.1,0.1,0.1,0.1,0.2l0.2,0.4c0.1,0.2,0.1,0.3,0.2,0.4c0.1,0.1,0.2,0.3,0.3,0.4c0.1,0.1,0.2,0.2,0.3,0.2
				c0.1,0.1,0.3,0.1,0.4,0.1c0.2,0,0.4-0.1,0.5-0.1c0.1-0.1,0.2-0.2,0.2-0.3s0.1-0.3,0.1-0.4c0-0.2,0-0.3,0-0.5c0-0.1,0-0.3,0-0.4
				c0-0.1,0-0.3-0.1-0.5L127.8,131.1z"/>
			<path d="M162.8,131.1c0,0.2,0.1,0.5,0.1,0.6c0,0.2,0.1,0.3,0.1,0.5s0,0.3,0,0.4s0,0.2,0,0.3c0,0.4,0,0.7-0.1,1s-0.2,0.5-0.4,0.8
				c-0.2,0.2-0.4,0.4-0.6,0.5c-0.2,0.1-0.5,0.2-0.8,0.2c-0.1,0-0.2,0-0.3,0s-0.2,0-0.3-0.1s-0.2-0.1-0.4-0.2s-0.2-0.2-0.3-0.3
				c-0.2,0.2-0.4,0.4-0.6,0.5c-0.2,0.1-0.5,0.2-0.8,0.2c-0.1,0-0.1,0-0.2,0c-0.1,0-0.1,0-0.2,0c0,0.4,0.1,0.7,0.1,1.2
				c0,0.4,0,0.8,0.1,1.3s0,0.8,0,1.3c0,0.4,0,0.8,0,1.2h-1.8c0-0.1,0-0.2,0-0.3s0-0.2,0-0.4c0-0.1,0-0.2,0-0.4c0-0.1,0-0.2,0-0.3
				c0-0.3,0-0.7,0-1.1c0-0.4,0-0.8-0.1-1.2c0-0.4-0.1-0.8-0.1-1.2c-0.1-0.4-0.1-0.8-0.2-1.2c-0.1-0.4-0.2-0.8-0.3-1.1
				c-0.1-0.4-0.3-0.7-0.5-1l1.6-0.9c0.1,0.2,0.2,0.3,0.3,0.5s0.2,0.3,0.2,0.5l0.2,0.5c0.1,0.2,0.2,0.3,0.2,0.5
				c0.1,0.1,0.1,0.2,0.2,0.3c0.1,0.1,0.1,0.1,0.2,0.2c0.1,0,0.2,0,0.3,0s0.2,0,0.3-0.1s0.1-0.1,0.2-0.2c0-0.1,0.1-0.2,0.1-0.3
				s0-0.2,0-0.4c0-0.1,0-0.3,0-0.4c0-0.1,0-0.3,0-0.4v-0.2l1.6-0.2c0,0,0,0.1,0,0.2s0,0.1,0,0.2c0,0.2,0,0.4,0.1,0.6
				c0,0.2,0.1,0.4,0.1,0.6c0.1,0.2,0.1,0.3,0.2,0.5c0.1,0.1,0.2,0.2,0.3,0.2s0.1,0,0.2-0.1c0,0,0.1-0.1,0.1-0.2c0-0.1,0-0.1,0-0.2
				c0-0.1,0-0.2,0-0.2c0-0.1,0-0.1,0-0.2c0-0.1,0-0.1,0-0.2c0-0.1,0-0.2-0.1-0.4c0-0.2-0.1-0.4-0.1-0.6L162.8,131.1z"/>
			<path d="M92,156.2c-0.3,0-0.5,0-0.8-0.1c-0.3,0-0.5-0.1-0.8-0.3c0,0.4,0.1,0.8,0.1,1.2s0,0.8,0.1,1.1c0,0.4,0,0.7,0,1.1
				c0,0.3,0,0.7,0,1h-1.8c0-0.8,0-1.5,0-2.3s-0.1-1.5-0.2-2.2s-0.2-1.3-0.4-2c-0.2-0.6-0.4-1.2-0.7-1.7l1.5-0.9
				c0.1,0.2,0.2,0.4,0.3,0.6s0.2,0.4,0.3,0.5c0.1-0.2,0.3-0.3,0.4-0.5s0.3-0.3,0.5-0.4c0.2-0.1,0.4-0.2,0.6-0.3s0.4-0.1,0.6-0.1
				c0.1,0,0.1,0,0.2,0s0.1,0,0.2,0c0.2,0,0.3,0,0.5,0s0.3,0.1,0.5,0.1c0.2,0.1,0.3,0.1,0.5,0.2c0.2,0.1,0.3,0.2,0.5,0.4l-0.9,1.4
				c0,0,0,0-0.1-0.1c-0.1,0-0.2-0.1-0.3-0.2s-0.3-0.1-0.4-0.1c-0.2,0-0.3-0.1-0.5-0.1c-0.1,0-0.2,0-0.3,0.1c-0.1,0-0.2,0.1-0.3,0.1
				c-0.1,0-0.2,0.1-0.3,0.2c-0.1,0.1-0.2,0.1-0.3,0.2c-0.1,0.1-0.1,0.1-0.2,0.2c0,0.1-0.1,0.1,0,0.2l0,0c0,0.1,0.1,0.2,0.2,0.3
				s0.2,0.1,0.4,0.2s0.3,0.1,0.5,0.1s0.3,0,0.5,0c0.1,0,0.3,0,0.4,0c0.2,0,0.3-0.1,0.5-0.1s0.3-0.1,0.5-0.2s0.3-0.1,0.4-0.2l0.7,1.4
				c-0.4,0.3-0.9,0.6-1.3,0.7C92.8,156.2,92.4,156.2,92,156.2z"/>
			<path d="M126.3,160.5c-0.3,0-0.5-0.1-0.8-0.2c-0.2-0.1-0.4-0.3-0.6-0.4c-0.2,0.2-0.4,0.3-0.6,0.4c-0.2,0.1-0.5,0.2-0.8,0.2
				s-0.6-0.1-0.8-0.2c-0.2-0.1-0.5-0.3-0.6-0.5c-0.2-0.2-0.3-0.4-0.4-0.7s-0.2-0.5-0.2-0.7c0-0.1,0-0.2,0-0.3s0-0.2,0-0.3
				c0-0.2,0-0.4,0-0.6c0-0.2,0.1-0.4,0.1-0.7c0.1-0.3,0.2-0.6,0.3-0.9c0.1-0.3,0.2-0.6,0.4-0.9c0.2-0.3,0.3-0.7,0.6-1
				c0.2-0.4,0.4-0.7,0.7-1.2l-0.1-0.1l-0.1-0.1l1.2-1.2l0.1,0.1c0,0,0.1,0.1,0.2,0.2c0.1,0.1,0.1,0.1,0.2,0.2
				c0.1,0.1,0.1,0.1,0.1,0.1l0,0c0,0,0,0,0.1,0.1c0,0,0,0,0.1,0.1c0.3,0.3,0.6,0.6,0.9,0.8s0.6,0.6,0.8,0.9c0.4,0.5,0.7,0.9,1,1.5
				c0.3,0.5,0.5,1,0.7,1.5c0.1,0.2,0.1,0.4,0.1,0.6c0,0.2,0,0.4,0,0.6c0,0.4,0,0.7-0.1,1s-0.2,0.6-0.4,0.9c-0.2,0.3-0.4,0.5-0.7,0.7
				C127.1,160.4,126.7,160.5,126.3,160.5L126.3,160.5z M125.7,156.8c0,0.2,0,0.3,0,0.5s0,0.4,0.1,0.6c0,0.2,0.1,0.4,0.2,0.5
				s0.2,0.2,0.3,0.2c0.1,0,0.2-0.1,0.3-0.1c0.1-0.1,0.2-0.2,0.3-0.3c0.1-0.1,0.1-0.2,0.2-0.3c0-0.1,0.1-0.2,0.1-0.4
				c0-0.1,0-0.3,0-0.4c0-0.1,0-0.2-0.1-0.3l0,0c-0.1-0.3-0.3-0.7-0.4-1c-0.2-0.3-0.4-0.6-0.6-0.9c-0.2-0.3-0.4-0.5-0.7-0.8
				c-0.2-0.2-0.4-0.5-0.6-0.7l-0.1-0.1c-0.2,0.2-0.3,0.5-0.5,0.8s-0.3,0.6-0.5,0.8s-0.3,0.6-0.4,0.8c-0.1,0.3-0.2,0.5-0.3,0.8
				c0,0.2-0.1,0.3-0.1,0.5s0,0.4,0,0.5s0,0.2,0.1,0.4s0.1,0.2,0.1,0.3c0.1,0.1,0.1,0.1,0.2,0.2s0.2,0.1,0.3,0.1c0,0,0.1,0,0.2,0
				s0.1-0.1,0.2-0.1c0.1-0.1,0.1-0.1,0.2-0.2c0.1-0.1,0.1-0.2,0.1-0.3s0.1-0.3,0.1-0.4c0-0.1,0-0.3,0.1-0.4c0-0.1,0-0.1,0-0.2
				s0-0.2,0-0.2L125.7,156.8z"/>
			<path d="M155.9,159.8c0,0,0-0.1,0.1-0.3s0.2-0.4,0.3-0.6c0.1-0.2,0.3-0.5,0.4-0.8s0.3-0.6,0.5-0.9c0.2-0.3,0.3-0.5,0.5-0.7
				s0.3-0.4,0.5-0.6c-0.2-0.1-0.5-0.1-0.7-0.3c-0.2-0.1-0.4-0.3-0.5-0.5c-0.2-0.2-0.3-0.4-0.4-0.6c-0.1-0.2-0.1-0.5-0.1-0.7
				s0-0.4,0.1-0.6c0-0.2,0.1-0.4,0.2-0.5c0.1-0.2,0.2-0.3,0.3-0.5s0.3-0.3,0.4-0.4c0.3-0.2,0.6-0.4,0.9-0.5s0.7-0.2,1.1-0.2
				c0.3,0,0.6,0.1,0.9,0.2s0.6,0.3,1,0.4l-0.8,1.3c-0.1-0.1-0.2-0.1-0.3-0.1s-0.2,0-0.3-0.1c-0.1,0-0.2,0-0.3,0s-0.2,0-0.2,0h0
				c-0.1,0-0.2,0-0.3,0s-0.2,0-0.3,0.1s-0.2,0.1-0.3,0.1s-0.1,0.1-0.2,0.1l0,0c-0.1,0.1-0.2,0.2-0.3,0.3s-0.1,0.2-0.1,0.3
				s0.1,0.3,0.2,0.4c0.1,0.1,0.3,0.2,0.6,0.2h0.1h0.1c0.2,0,0.4,0,0.5,0s0.4-0.1,0.6-0.1c0.2,0,0.4-0.1,0.6-0.1s0.4-0.1,0.6-0.2
				l0.6,1.5l-0.6,0.3c-0.4,0.2-0.8,0.4-1.1,0.6s-0.6,0.5-0.9,0.8c-0.3,0.3-0.5,0.6-0.7,0.9s-0.4,0.6-0.6,0.9
				c-0.2,0.3-0.3,0.5-0.4,0.7c-0.1,0.2-0.2,0.4-0.2,0.5l0,0l0,0l0,0L155.9,159.8z"/>
			<path d="M90.2,180.4c0-0.6,0-1.2-0.1-1.7s-0.2-1.1-0.3-1.6c-0.1-0.5-0.3-1-0.4-1.4c-0.2-0.4-0.4-0.9-0.6-1.3
				c-0.2-0.4-0.4-0.8-0.6-1.2s-0.5-0.8-0.7-1.1l1.5-0.9c0.3,0.5,0.5,0.9,0.7,1.4s0.4,0.9,0.6,1.4s0.3,0.9,0.5,1.4
				c0.1,0.4,0.3,0.9,0.4,1.3c0.1-0.3,0.2-0.7,0.3-1s0.2-0.7,0.3-1.1s0.2-0.7,0.3-1c0.1-0.3,0.2-0.6,0.3-0.9c0.1-0.3,0.2-0.6,0.3-0.8
				c0.1-0.2,0.2-0.4,0.3-0.6l1.5,0.9c-0.1,0.2-0.3,0.5-0.4,0.8s-0.3,0.6-0.4,0.9c-0.1,0.3-0.3,0.7-0.4,1s-0.3,0.7-0.4,1.1
				c-0.3,0.9-0.5,1.7-0.7,2.4c-0.2,0.8-0.2,1.5-0.3,2.1L90.2,180.4L90.2,180.4z"/>
			<path d="M127.2,180.3c-0.1-0.2-0.2-0.4-0.3-0.6c-0.1-0.2-0.2-0.5-0.4-0.8c-0.1-0.3-0.2-0.6-0.4-0.9c-0.1-0.3-0.2-0.6-0.4-1
				c-0.1-0.3-0.2-0.7-0.3-1s-0.2-0.7-0.3-1c-0.1,0.4-0.3,0.8-0.4,1.3c-0.2,0.4-0.3,0.9-0.5,1.3c-0.2,0.4-0.4,0.9-0.6,1.3
				c-0.2,0.4-0.5,0.9-0.7,1.3l-1.5-0.9c0.3-0.5,0.7-1.1,1-1.7c0.3-0.6,0.6-1.2,0.9-1.9s0.5-1.4,0.6-2.2c0.2-0.8,0.2-1.6,0.2-2.5h1.9
				c0,0.4,0.1,0.9,0.1,1.4c0.1,0.5,0.2,1,0.3,1.5s0.3,1,0.5,1.6c0.2,0.5,0.4,1,0.6,1.5s0.4,0.9,0.6,1.3c0.2,0.4,0.4,0.8,0.6,1
				L127.2,180.3z"/>
			<path d="M161.7,179.8L161.7,179.8l-1.3,0.9v-0.1c-0.4-0.8-0.8-2.3-1-4.5c-0.1,0-0.2,0-0.3,0c-0.4,0-0.9-0.1-1.2-0.2
				c-0.5-0.2-0.9-0.5-1.3-0.9c-0.3-0.4-0.4-0.8-0.3-1.4c0-0.5,0.2-1,0.4-1.5s0.5-0.8,0.9-1.1s0.7-0.4,1.1-0.4c0.6,0,1.1,0.2,1.5,0.6
				c0.5,0.5,0.8,1.3,0.9,2.3c0,0.3,0.1,0.7,0.1,1c0,0.1,0,0.3,0,0.4c0,0.1,0,0.1,0,0.2v0.1v0.1l0,0c0,0.1,0,0.1,0,0.1
				c0,0.7,0.1,1.4,0.2,2.2c0.1,0.5,0.2,0.9,0.3,1.3C161.7,179.5,161.8,179.7,161.7,179.8L161.7,179.8z M159.6,174.2
				c0-0.3,0-0.6-0.2-1c-0.2-0.5-0.5-0.7-0.8-0.7s-0.6,0.2-0.8,0.6c-0.1,0.1-0.2,0.3-0.2,0.4c0,0.1,0,0.3,0,0.3
				c0.1,0.2,0.4,0.4,0.9,0.4C158.9,174.3,159.3,174.3,159.6,174.2z"/>
			<path d="M122.8,195.7c0-0.3,0.1-0.6,0.2-0.8c0.1-0.3,0.3-0.5,0.5-0.7s0.4-0.3,0.7-0.5c0.3-0.1,0.5-0.2,0.8-0.2s0.6,0.1,0.8,0.2
				c0.3,0.1,0.5,0.3,0.7,0.5s0.3,0.4,0.5,0.7c0.1,0.3,0.2,0.5,0.2,0.8s-0.1,0.6-0.2,0.8c-0.1,0.3-0.3,0.5-0.5,0.7s-0.4,0.3-0.7,0.5
				c-0.3,0.1-0.5,0.2-0.8,0.2s-0.6-0.1-0.8-0.2c-0.3-0.1-0.5-0.3-0.7-0.5s-0.3-0.4-0.5-0.7C122.9,196.3,122.8,196,122.8,195.7z
				 M124.1,195.7c0,0.1,0,0.2,0.1,0.3s0.1,0.2,0.2,0.3s0.2,0.1,0.3,0.2c0.1,0,0.2,0.1,0.3,0.1c0.1,0,0.2,0,0.3-0.1
				c0.1,0,0.2-0.1,0.3-0.2c0.1-0.1,0.1-0.2,0.2-0.3s0.1-0.2,0.1-0.3s0-0.2-0.1-0.3s-0.1-0.2-0.2-0.3s-0.2-0.1-0.3-0.2
				s-0.2-0.1-0.3-0.1c-0.1,0-0.2,0-0.3,0.1s-0.2,0.1-0.3,0.2c-0.1,0.1-0.1,0.2-0.2,0.3S124.1,195.6,124.1,195.7z"/>
			<path d="M166.2,192.1v7.3h-10.6l-3.6-3.6l3.6-3.6L166.2,192.1L166.2,192.1z"/>
			<path class="st8" d="M163,197.5c0.1,0.1,0.1,0.3,0,0.4c0,0-0.1,0.1-0.2,0.1c-0.1,0-0.1,0-0.2-0.1l-1.8-1.8l-1.8,1.8
				c0,0-0.1,0.1-0.2,0.1c-0.1,0-0.1,0-0.2-0.1c-0.1-0.1-0.1-0.3,0-0.4l1.8-1.8l-1.8-1.8c-0.1-0.1-0.1-0.3,0-0.4
				c0.1-0.1,0.3-0.1,0.4,0l1.8,1.8l1.8-1.8c0.1-0.1,0.3-0.1,0.4,0c0.1,0.1,0.1,0.3,0,0.4l-1.8,1.8L163,197.5z"/>
		</g>
		<g>
			<path d="M169.9,72.3c0.6,0,1,0.4,1,1v12.1c0,0.6-0.4,1-1,1H80.1c-0.6,0-1-0.4-1-1V73.3c0-0.6,0.4-1,1-1H169.9L169.9,72.3z
				 M169.9,71.3H80.1c-1.1,0-2,0.9-2,2v12.1c0,1.1,0.9,2,2,2h89.8c1.1,0,2-0.9,2-2V73.3C171.9,72.2,171,71.3,169.9,71.3L169.9,71.3z
				"/>
			<path d="M158,80.1c0,0.1,0,0.3,0,0.4c0,0.2,0,0.4,0,0.6s-0.1,0.4-0.2,0.5s-0.2,0.3-0.3,0.5s-0.3,0.3-0.5,0.4s-0.4,0.2-0.6,0.2
				s-0.5,0.1-0.8,0.1s-0.6-0.1-0.8-0.1c-0.2-0.1-0.4-0.2-0.6-0.3c-0.1-0.1-0.2-0.2-0.3-0.3s-0.1-0.2-0.2-0.4s-0.1-0.3-0.1-0.4
				s0-0.3,0-0.4c0-0.3,0-0.6,0.1-1c0.1-0.3,0.2-0.6,0.4-0.9l0.6,0.4c0,0.1-0.1,0.1-0.1,0.2c-0.1,0.1-0.1,0.2-0.2,0.3
				s-0.1,0.3-0.1,0.4s-0.1,0.3-0.1,0.5s0,0.3,0.1,0.5c0.1,0.1,0.2,0.3,0.3,0.4s0.3,0.2,0.5,0.2c0.2,0.1,0.4,0.1,0.5,0.1
				c0.2,0,0.4,0,0.6-0.1s0.4-0.2,0.5-0.3s0.3-0.3,0.4-0.4c0.1-0.2,0.1-0.3,0.1-0.5c0-0.1,0-0.2,0-0.3s-0.1-0.2-0.1-0.3
				c0-0.1-0.1-0.2-0.1-0.3s-0.1-0.2-0.1-0.3c0-0.1-0.1-0.2-0.1-0.2v-0.1l0.7-0.4c0,0,0,0,0,0.1s0.1,0.1,0.1,0.2s0.1,0.2,0.1,0.3
				s0.1,0.3,0.1,0.4C157.9,79.8,157.9,80,158,80.1z M156.4,78.6l-0.6-0.6l-0.6,0.6l0.6,0.6L156.4,78.6z M159.5,80.5
				c0-0.6,0-1.5,0-2.6c0-0.7-0.1-1.4-0.2-2.2l-0.8,0.3c0.1,0.7,0.1,1.4,0.2,2.2c0,0.6,0,1.4-0.1,2.4L159.5,80.5z M166.2,75.8
				l-0.8,0.3c0.1,0.7,0.1,1.4,0.2,2.2c0,0.6,0,1.4-0.1,2.4l0.8-0.1c0-0.6,0-1.5,0-2.6C166.3,77.3,166.3,76.6,166.2,75.8z
				 M162.8,80.6c0.1,0,0.2,0,0.3,0s0.2,0,0.3,0s0.2,0,0.2,0c0.2-0.1,0.4-0.1,0.5-0.3s0.2-0.3,0.3-0.4c0.1-0.2,0.1-0.3,0.1-0.5
				c0-0.1,0-0.2,0-0.4s-0.1-0.3-0.1-0.4s-0.1-0.3-0.1-0.4c-0.1-0.1-0.1-0.3-0.2-0.4l-0.7,0.3c0,0.1,0.1,0.1,0.1,0.2s0.1,0.2,0.1,0.3
				c0,0.1,0.1,0.2,0.1,0.3c0,0.1,0.1,0.2,0.1,0.3s0,0.2,0,0.2c0,0.1,0,0.1,0,0.2s-0.1,0.1-0.2,0.1c-0.1,0-0.2,0.1-0.3,0.1
				s-0.2,0-0.3,0s-0.2,0-0.3,0h-0.2h-0.2l0,0c-0.1,0-0.2,0-0.2-0.1c-0.1,0-0.1-0.1-0.2-0.2s-0.1-0.2-0.2-0.4
				c-0.1-0.2-0.1-0.4-0.2-0.6l-0.7,0.3c0,0.1,0.1,0.2,0.1,0.3c0,0.1,0.1,0.2,0.1,0.3c0,0.1,0.1,0.2,0.1,0.3s0.1,0.2,0.1,0.3l0,0
				c0,0,0,0,0,0.1s0,0,0,0.1s0,0.3-0.1,0.4c0,0.1-0.1,0.2-0.2,0.4c-0.1,0.1-0.2,0.2-0.3,0.3c-0.1,0.1-0.2,0.2-0.4,0.3
				c-0.1,0.1-0.3,0.2-0.4,0.3c-0.1,0.1-0.3,0.2-0.4,0.2l0.3,0.7c0.3-0.1,0.5-0.3,0.8-0.4c0.2-0.2,0.5-0.4,0.7-0.6s0.4-0.4,0.5-0.7
				c0.1-0.2,0.2-0.5,0.2-0.7c0.1,0,0.1,0.1,0.2,0.1l0,0l0,0c0,0,0.1,0,0.2,0l0,0L162.8,80.6C162.6,80.7,162.7,80.6,162.8,80.6z
				 M163.5,81.6l0.5,0.5l0.5-0.5l-0.5-0.5L163.5,81.6z M162.3,81.6l0.5,0.5l0.5-0.5l-0.5-0.5L162.3,81.6z"/>
		</g>
		<g>
			<path d="M169.9,92.1c0.6,0,1,0.4,1,1v12.1c0,0.6-0.4,1-1,1H80.1c-0.6,0-1-0.4-1-1V93.1c0-0.6,0.4-1,1-1H169.9L169.9,92.1z
				 M169.9,91.1H80.1c-1.1,0-2,0.9-2,2v12.1c0,1.1,0.9,2,2,2h89.8c1.1,0,2-0.9,2-2V93.1C171.9,92,171,91.1,169.9,91.1L169.9,91.1z"
				/>
			<path d="M86.8,98.9h1.4v0.8h-1.4v1.6h-0.9v-1.6h-1.4v-0.8h1.4v-1.5h0.9V98.9z M91.6,100.3c0.2,0.5,0.3,0.9,0.4,1.1l-0.5,0.5
				l-0.1-0.1c-0.2-0.2-0.3-0.6-0.5-1.1c-0.1-0.5-0.2-1-0.2-1.4c-0.7,0-1.2-0.1-1.5-0.5c-0.2-0.2-0.3-0.5-0.3-0.9
				c0-0.3,0.1-0.5,0.2-0.7s0.3-0.4,0.5-0.6c0.2-0.1,0.4-0.2,0.6-0.2c0.3,0,0.6,0.1,0.8,0.3c0.2,0.2,0.4,0.6,0.4,1.1
				c0,0.2,0,0.4,0,0.7c0,0.1,0,0.2,0,0.3v0.1V99l0,0l0,0C91.5,99.4,91.5,99.8,91.6,100.3z M90.7,98.3L90.7,98.3L90.7,98.3
				c0-0.1,0-0.2,0-0.2c0-0.1,0-0.3-0.1-0.4c-0.1-0.3-0.2-0.5-0.5-0.5c-0.2,0-0.4,0.1-0.5,0.4c0,0.1-0.1,0.2-0.1,0.3
				c0,0.1,0,0.2,0,0.2c0.1,0.1,0.3,0.2,0.5,0.2h0.1C90.5,98.4,90.6,98.4,90.7,98.3C90.7,98.4,90.7,98.4,90.7,98.3z M96.3,100.8
				c-0.1-0.2-0.2-0.5-0.3-0.8s-0.2-0.6-0.3-0.9c-0.1-0.3-0.2-0.6-0.3-0.9s-0.1-0.6-0.2-0.9c0-0.3-0.1-0.5-0.1-0.8h-0.9
				c0,0.5,0,1-0.1,1.4s-0.2,0.9-0.4,1.2c-0.1,0.4-0.3,0.8-0.5,1.1c-0.2,0.3-0.4,0.7-0.6,1l0.7,0.4c0.2-0.3,0.3-0.5,0.5-0.8
				c0.1-0.2,0.3-0.5,0.4-0.7s0.2-0.5,0.3-0.7s0.2-0.5,0.2-0.7c0.1,0.3,0.2,0.6,0.3,0.9c0.1,0.3,0.2,0.6,0.3,0.8
				c0.1,0.3,0.2,0.5,0.3,0.7s0.2,0.4,0.3,0.5l0.7-0.4C96.5,101.2,96.4,101,96.3,100.8z"/>
		</g>
		<path d="M99.5,57.7c-0.1-0.1-0.3-0.2-0.4-0.3l-0.6,0.7l0.1,0.1c0,0,0,0,0.1,0.1c0,0,0.1,0,0.1,0.1c0,0-0.1,0.1-0.2,0.2
			c-0.1,0.1-0.1,0.1-0.2,0.2c-0.4,0.5-0.6,0.9-0.6,1.4c0,0.3,0.1,0.5,0.2,0.7s0.3,0.3,0.5,0.5c0.1,0,0.2,0.1,0.3,0.1
			c0.1,0,0.2,0,0.2,0.1c0.1,0,0.1,0,0.2,0h0.1c0,0,0.1,0,0.2,0s0.1,0,0.2,0s0.2,0,0.2-0.1c0.1,0,0.2-0.1,0.2-0.1
			c0.2-0.1,0.4-0.3,0.5-0.5s0.2-0.4,0.2-0.7c0-0.5-0.3-1.1-0.9-1.8C99.8,58,99.6,57.8,99.5,57.7z M100.1,60c0,0.1,0,0.1-0.1,0.2
			c0,0.1-0.1,0.1-0.2,0.1s-0.2,0.1-0.2,0.1c-0.1,0-0.2,0-0.3,0c-0.1,0-0.1,0-0.2,0s-0.2,0-0.2-0.1c-0.1,0-0.1-0.1-0.2-0.1
			c0-0.1-0.1-0.1-0.1-0.2c0-0.1,0-0.2,0.1-0.3s0.1-0.2,0.2-0.3s0.1-0.2,0.2-0.3s0.1-0.2,0.2-0.3c0.1,0.1,0.2,0.2,0.3,0.3
			c0.1,0.1,0.2,0.2,0.3,0.3s0.1,0.2,0.2,0.3C100.1,59.9,100.1,59.9,100.1,60z M101.6,61.3c0.1-1.1,0.1-2,0.1-2.7
			c0-0.9-0.1-1.8-0.2-2.6l0.9-0.3c0.1,0.9,0.2,1.7,0.2,2.5c0,1.2,0,2.2-0.1,2.9L101.6,61.3z M114.7,58.9c-0.1-0.1-0.2-0.2-0.3-0.3
			c-0.1-0.1-0.2-0.2-0.3-0.2c-0.1-0.1-0.3-0.1-0.4-0.2c-0.2-0.1-0.4-0.2-0.6-0.3c-0.1,0-0.2-0.1-0.3-0.2c-0.1-0.1-0.2-0.1-0.4-0.2
			c-0.1-0.1-0.2-0.1-0.3-0.2c-0.1-0.1-0.2-0.1-0.3-0.1c-0.1,0-0.2-0.1-0.2-0.1c-0.1,0-0.1,0-0.1,0l-0.5,0.8h0.1h0.1c0,0,0,0,0.1,0
			c-0.1,0.1-0.2,0.2-0.3,0.3c-0.1,0.1-0.2,0.2-0.2,0.3c-0.1,0.1-0.1,0.2-0.1,0.4c0,0.1,0,0.3,0,0.4c0,0.2,0,0.4,0.1,0.5
			c0.1,0.2,0.1,0.3,0.3,0.5c-0.2,0-0.3,0-0.5,0c-0.1,0-0.2,0-0.3,0l0,0l0,0c-0.3,0-0.4-0.1-0.5-0.4c0-0.1,0-0.2,0-0.2v-0.1l0,0l0,0
			l0,0l0,0l0,0l0,0l0,0c0-0.4-0.2-0.8-0.5-1c-0.2-0.2-0.5-0.3-0.8-0.3s-0.5,0.1-0.7,0.3c-0.2,0.1-0.3,0.4-0.4,0.6c0,0,0,0.1-0.1,0.2
			c-0.1,0.2-0.1,0.3-0.2,0.4c-0.1,0.1-0.2,0.3-0.2,0.4c-0.2,0.2-0.4,0.4-0.7,0.4l0,0l0,0c-0.1,0-0.2,0-0.3-0.1
			c-0.1,0-0.2-0.1-0.2-0.2s-0.2-0.2-0.2-0.4s-0.2-0.4-0.3-0.7l-0.8,0.3c0,0.1,0.1,0.2,0.1,0.3s0.1,0.2,0.1,0.4
			c0,0.1,0.1,0.3,0.1,0.4s0.1,0.3,0.1,0.4l0,0c0,0,0,0,0,0.1s0,0,0,0.1s0,0.3-0.1,0.4c-0.1,0.1-0.1,0.3-0.2,0.4
			c-0.1,0.1-0.2,0.3-0.3,0.4c-0.1,0.1-0.3,0.2-0.4,0.3s-0.3,0.2-0.5,0.3s-0.3,0.2-0.5,0.3l0.4,0.8c0.3-0.1,0.6-0.3,0.9-0.5
			s0.5-0.4,0.8-0.6s0.4-0.5,0.6-0.8c0.1-0.3,0.2-0.5,0.3-0.8c0.1,0,0.1,0.1,0.2,0.1s0.1,0,0.2,0s0.1,0,0.1,0s0,0,0.1,0l0,0
			c0.3,0,0.7-0.1,0.9-0.3c0.1-0.1,0.2-0.2,0.3-0.3c0.1,0.1,0.3,0.2,0.5,0.3s0.3,0.1,0.5,0.2c0.2,0.1,0.3,0.1,0.5,0.1
			c0.3,0,0.5-0.1,0.7-0.3l0.1-0.1l0.1,0.1c0.1,0.2,0.4,0.2,0.7,0.3c0,0,0,0,0.1,0l0,0l0,0l0,0l0,0c0.2,0,0.3,0,0.5,0s0.3,0,0.5,0
			s0.3,0,0.4-0.1c0.1,0,0.3-0.1,0.4-0.1s0.2,0.1,0.3,0.1s0.2,0.1,0.4,0.1c0.1,0,0.2,0,0.4,0c0.1,0,0.2,0,0.3,0c0.1,0,0.2,0,0.3,0
			c0.1,0,0.2,0,0.3,0s0.2,0,0.3-0.1s0.2-0.1,0.2-0.1c0.2-0.1,0.4-0.3,0.5-0.5s0.2-0.4,0.2-0.7c0-0.2,0-0.3-0.1-0.5
			C114.9,59.2,114.8,59.1,114.7,58.9z M108.6,60.5C108.6,60.5,108.5,60.5,108.6,60.5c-0.2,0-0.5-0.1-1.1-0.5v-0.1l0,0v-0.1
			c0-0.1,0.1-0.2,0.1-0.3c0.1-0.3,0.3-0.4,0.3-0.5c0.1,0,0.3,0,0.4,0.1s0.2,0.2,0.3,0.3c0.1,0.2,0.1,0.3,0.1,0.5
			C108.8,60.3,108.8,60.4,108.6,60.5z M112.5,59.6c0,0.1-0.1,0.2-0.2,0.3s-0.1,0.1-0.2,0.2c-0.1,0-0.2,0.1-0.3,0.1
			c-0.1,0-0.1-0.1-0.2-0.1s-0.1-0.1-0.2-0.2c0-0.1-0.1-0.1-0.1-0.2c0-0.1-0.1-0.1-0.1-0.2c0-0.1,0-0.2,0-0.3s0.1-0.2,0.2-0.3
			s0.1-0.2,0.2-0.2s0.2-0.1,0.3-0.1c0.1,0,0.1,0,0.2,0.1s0.1,0.1,0.2,0.2c0.1,0.1,0.1,0.1,0.2,0.2s0.1,0.1,0.1,0.2
			C112.6,59.3,112.6,59.5,112.5,59.6z M114.2,60.1c-0.1,0.1-0.1,0.1-0.2,0.2c-0.1,0.1-0.2,0.1-0.3,0.1c-0.1,0-0.3,0.1-0.4,0.1h-0.1
			h-0.1c0.1-0.2,0.2-0.4,0.3-0.6c0.1-0.2,0.1-0.4,0.1-0.6v-0.1v-0.1c0.1,0.1,0.2,0.1,0.3,0.2c0.1,0.1,0.2,0.1,0.3,0.2
			s0.1,0.2,0.2,0.2c0,0.1,0.1,0.2,0.1,0.2C114.3,59.9,114.2,60,114.2,60.1z M120.2,59.9l-0.7-0.7l0.7-0.7l0.7,0.7L120.2,59.9z
			 M125.3,57.2l-0.7-0.7l0.7-0.7l0.7,0.7L125.3,57.2z M130.2,57.5l-0.6-0.6l0.6-0.6l0.6,0.6L130.2,57.5z M131.8,58.9
			c0-0.2-0.1-0.3-0.2-0.5c-0.1-0.2-0.1-0.3-0.2-0.4l-0.8,0.4c0,0.1,0.1,0.1,0.1,0.2c0,0.1,0.1,0.2,0.1,0.3s0.1,0.2,0.1,0.3
			s0.1,0.2,0.1,0.3s0,0.2,0,0.3s0,0.2-0.1,0.2c0,0.1-0.1,0.1-0.2,0.2c-0.1,0-0.2,0.1-0.3,0.1s-0.2,0-0.4,0c-0.1,0-0.2,0-0.4,0h-0.2
			h-0.3c-0.1,0-0.2,0-0.3-0.1c-0.1,0-0.1-0.1-0.2-0.1c0-0.1-0.1-0.1-0.1-0.2c0-0.1,0-0.1,0-0.2c0-0.3,0-0.7,0-1s0-0.6,0-1
			s0-0.8,0-1.1s0-0.6-0.1-0.9l-0.9,0.1c0,0.2,0,0.5,0.1,0.8c0,0.3,0,0.7,0,1c0,0.2,0,0.4,0,0.7c0,0.2,0,0.4,0,0.6c0,0.2,0,0.3,0,0.5
			c0,0.1,0,0.2,0,0.3l0,0c0,0.1,0,0.1,0,0.2s0,0.1,0,0.2v0.1c0,0,0,0.1-0.1,0.1l0,0c0,0,0,0-0.1,0h-0.1c0,0-0.1,0-0.2,0h-0.3
			c-0.1,0-0.1,0-0.2,0s-0.1,0-0.2,0s-0.1,0-0.2,0s-0.1,0-0.2,0c0.1-0.1,0.2-0.3,0.3-0.5c0.1-0.2,0.1-0.3,0.1-0.5s0-0.4-0.1-0.6
			c-0.1-0.2-0.2-0.3-0.3-0.5s-0.3-0.3-0.4-0.3s-0.3-0.1-0.5-0.1s-0.4,0-0.5,0.1c-0.2,0.1-0.3,0.2-0.5,0.4c-0.1,0.2-0.2,0.3-0.3,0.5
			c-0.1,0.2-0.1,0.4-0.1,0.6c0,0.1,0,0.2,0.1,0.3c0,0.1,0.1,0.2,0.1,0.3s0.1,0.1,0.2,0.2s0.1,0.1,0.2,0.1c-0.1,0-0.1,0-0.2,0
			s-0.2,0-0.2,0c-0.1,0-0.2,0-0.3,0c-0.1,0-0.2,0-0.3,0l0,0l0,0c-0.1,0-0.2,0-0.2,0c-0.1,0-0.2,0-0.3-0.1c-0.1-0.1-0.2-0.1-0.3-0.2
			c-0.1-0.1-0.2-0.3-0.3-0.5l-0.3-0.6l-0.8,0.5c0.1,0.2,0.2,0.4,0.3,0.6c0.1,0.2,0.2,0.4,0.2,0.6c0.1,0.2,0.1,0.4,0.1,0.6
			s0,0.4-0.1,0.5c-0.1,0.2-0.2,0.3-0.3,0.4s-0.3,0.2-0.4,0.3c-0.2,0.1-0.3,0.1-0.5,0.2c-0.2,0-0.4,0.1-0.6,0.1l0,0c0,0,0,0-0.1,0
			c-0.2,0-0.3,0-0.5-0.1c-0.1,0-0.3-0.1-0.4-0.2c-0.1-0.1-0.2-0.1-0.3-0.2c-0.1-0.1-0.1-0.2-0.2-0.2c0-0.1-0.1-0.2-0.1-0.2
			c0-0.1,0-0.1-0.1-0.2c0-0.2,0-0.3,0-0.5s0.1-0.3,0.1-0.5c0.1-0.2,0.1-0.3,0.2-0.5s0.1-0.3,0.2-0.4l-0.7-0.5
			c-0.1,0.2-0.2,0.4-0.3,0.6c-0.1,0.2-0.1,0.3-0.2,0.5s-0.1,0.3-0.1,0.5s0,0.4,0,0.6c0,0.3,0.1,0.7,0.2,1s0.3,0.6,0.5,0.8
			s0.4,0.3,0.7,0.4c0.3,0.1,0.6,0.1,1,0.1c0.2,0,0.3,0,0.5,0s0.3,0,0.4-0.1c0.1,0,0.3-0.1,0.4-0.1c0.1-0.1,0.2-0.1,0.4-0.2l0,0
			c0.2-0.1,0.3-0.2,0.5-0.4s0.2-0.3,0.3-0.5c0.1-0.2,0.1-0.4,0.2-0.6c0-0.2,0.1-0.4,0-0.6c0.2,0.1,0.5,0.1,0.7,0.1l0,0l0,0l0,0
			c0.2,0,0.3,0,0.5,0s0.4,0,0.5-0.1c0.2,0,0.3-0.1,0.5-0.1c0.1,0,0.2-0.1,0.3-0.1c0.1,0.1,0.3,0.1,0.4,0.2s0.3,0.1,0.4,0.1
			s0.1,0,0.2,0s0.2,0,0.3,0c0.1,0,0.2,0,0.3,0c0.1,0,0.2,0,0.2,0l0,0l0,0l0,0l0,0h0.4c0.1,0,0.2,0,0.3,0s0.2,0,0.2,0
			c0.1,0,0.2-0.1,0.2-0.1c0.1,0,0.1-0.1,0.2-0.2c0.1,0.1,0.2,0.2,0.4,0.3c0.1,0,0.2,0,0.3,0l0,0c0.1,0,0.1,0,0.2,0l0,0h0.5
			c0.1,0,0.1,0,0.2,0s0.2,0,0.3,0s0.2,0,0.3,0s0.2,0,0.3,0c0.2-0.1,0.4-0.2,0.6-0.3c0.2-0.1,0.3-0.3,0.4-0.5
			c0.1-0.2,0.1-0.4,0.1-0.6c0-0.1,0-0.3,0-0.4C131.9,59.3,131.8,59.1,131.8,58.9z M125.8,59.7c0,0.1-0.1,0.1-0.1,0.2
			c-0.1,0.1-0.1,0.1-0.2,0.2s-0.1,0.1-0.2,0.1l0,0l0,0c-0.1,0-0.2-0.1-0.3-0.1s-0.2-0.1-0.2-0.2c-0.1-0.1-0.1-0.1-0.2-0.2
			s-0.1-0.1-0.1-0.2c0-0.1,0-0.2,0.1-0.3c0-0.1,0.1-0.2,0.2-0.2c0.1-0.1,0.1-0.1,0.2-0.1s0.1-0.1,0.2-0.1s0.1,0,0.2,0.1
			c0.1,0,0.1,0.1,0.2,0.2c0.1,0.1,0.1,0.1,0.1,0.2C125.7,59.4,125.8,59.5,125.8,59.7C125.9,59.5,125.8,59.6,125.8,59.7z M131.5,56.3
			l0.6,0.6l-0.6,0.6l-0.6-0.6L131.5,56.3z M137.6,60c0-0.5-0.3-1.1-0.9-1.8c-0.2-0.2-0.4-0.4-0.5-0.5s-0.3-0.2-0.4-0.3l-0.6,0.7
			l0.1,0.1c0,0,0,0,0.1,0.1c0,0,0.1,0,0.1,0.1c0,0-0.1,0.1-0.2,0.2c-0.1,0.1-0.1,0.1-0.2,0.2c-0.4,0.5-0.6,0.9-0.6,1.4
			c0,0.3,0.1,0.5,0.2,0.7s0.3,0.3,0.5,0.5c0.1,0,0.2,0.1,0.3,0.1s0.2,0,0.2,0.1c0.1,0,0.1,0,0.2,0h0.1c0,0,0.1,0,0.2,0
			c0.1,0,0.1,0,0.2,0c0.1,0,0.2,0,0.2-0.1c0.1,0,0.2-0.1,0.2-0.1c0.2-0.1,0.4-0.3,0.5-0.5C137.5,60.5,137.6,60.3,137.6,60z
			 M136.8,60.2c0,0.1-0.1,0.1-0.2,0.1c-0.1,0-0.2,0.1-0.2,0.1c-0.1,0-0.2,0-0.3,0s-0.1,0-0.2,0c-0.1,0-0.2,0-0.2-0.1
			c-0.1,0-0.1-0.1-0.2-0.1c0-0.1-0.1-0.1-0.1-0.2c0-0.1,0-0.2,0.1-0.3s0.1-0.2,0.2-0.3s0.1-0.2,0.2-0.3s0.1-0.2,0.2-0.3
			c0.1,0.1,0.2,0.2,0.3,0.3s0.2,0.2,0.3,0.3s0.1,0.2,0.2,0.3c0,0.1,0.1,0.2,0.1,0.2C136.8,60.1,136.8,60.2,136.8,60.2z M140.1,60.6
			c0,0.1,0,0.2,0,0.3c0,0.2,0,0.4-0.1,0.6c-0.1,0.2-0.2,0.4-0.3,0.6c-0.1,0.2-0.2,0.4-0.4,0.5s-0.3,0.3-0.5,0.5
			c-0.2,0.1-0.4,0.3-0.6,0.4c-0.2,0.1-0.4,0.2-0.6,0.3l-0.4-0.8c0.2-0.1,0.3-0.2,0.5-0.3s0.3-0.2,0.5-0.3c0.1-0.1,0.3-0.2,0.4-0.4
			s0.2-0.3,0.3-0.4c0.1-0.1,0.2-0.3,0.2-0.4c0.1-0.1,0.1-0.3,0.1-0.4c0-0.1,0-0.3,0-0.4s-0.1-0.3-0.1-0.4c0-0.1-0.1-0.3-0.1-0.4
			c0-0.1-0.1-0.2-0.1-0.3l0.9-0.3c0.1,0.2,0.1,0.4,0.2,0.7c0,0.1,0.1,0.2,0.1,0.3s0,0.2,0.1,0.3C140.1,60.4,140.1,60.5,140.1,60.6z
			 M150,57.2l0.6-0.6l0.6,0.6l-0.6,0.6L150,57.2z M150,56.7l-0.5-0.5l0.5-0.5l0.5,0.5L150,56.7z M149.3,57.8l-0.6-0.6l0.6-0.6
			l0.6,0.6L149.3,57.8z M152.2,59.5c0-0.1-0.1-0.3-0.1-0.4c0-0.1-0.1-0.3-0.1-0.4s-0.1-0.2-0.1-0.3s-0.1-0.2-0.1-0.2l-0.1-0.1
			l-0.7,0.4c0,0.1,0.1,0.2,0.1,0.3c0.1,0.1,0.1,0.3,0.2,0.4c0,0.1,0.1,0.3,0.1,0.4c0,0.1,0,0.3,0,0.4c0,0.2-0.1,0.3-0.2,0.4
			s-0.2,0.1-0.4,0.1c-0.1,0-0.2,0-0.2-0.1c-0.1,0-0.1-0.1-0.1-0.1s-0.1-0.1-0.1-0.2c0-0.1,0-0.1,0-0.2c0-0.1,0-0.2,0-0.3
			s0-0.2,0-0.3s0-0.2,0-0.2c0-0.1,0-0.2,0-0.2l-0.8-0.2c0,0.1,0,0.2-0.1,0.3c0,0.1-0.1,0.2-0.1,0.4c0,0.1-0.1,0.3-0.1,0.4
			s-0.1,0.2-0.2,0.3c-0.1,0.1-0.1,0.2-0.2,0.2c-0.1,0.1-0.2,0.1-0.3,0.1s-0.2,0-0.2-0.1s-0.1-0.1-0.1-0.2c0-0.1,0-0.2,0-0.3
			s0-0.2,0.1-0.3c0-0.1,0.1-0.2,0.1-0.3s0.1-0.2,0.1-0.2l-0.9-0.2c0,0.1-0.1,0.2-0.1,0.3s-0.1,0.2-0.1,0.4s-0.1,0.2-0.2,0.4
			c-0.1,0.1-0.1,0.2-0.2,0.3s-0.2,0.2-0.3,0.2c-0.1,0.1-0.2,0.1-0.4,0.1l0,0l0,0c-0.3,0-0.4-0.1-0.5-0.4c0-0.1,0-0.2,0-0.2v-0.1l0,0
			l0,0l0,0l0,0l0,0l0,0l0,0c0-0.4-0.2-0.8-0.5-1c-0.2-0.2-0.5-0.3-0.8-0.3s-0.5,0.1-0.7,0.3c-0.2,0.1-0.3,0.4-0.4,0.6
			c0,0,0,0.1-0.1,0.2c-0.1,0.2-0.1,0.3-0.2,0.4c-0.1,0.1-0.2,0.3-0.2,0.4c-0.2,0.2-0.4,0.4-0.7,0.4l0,0l0,0c-0.3,0-0.4,0-0.5-0.1
			c0,0-0.1-0.1-0.1-0.2c0-0.1,0-0.2,0-0.2c0-0.1,0-0.1,0-0.2c0-0.1,0-0.1,0-0.2s0-0.1,0-0.2c0-0.1,0-0.2,0-0.2c0-0.1,0-0.1,0-0.2
			c0-0.1,0-0.1,0-0.2c0-0.1,0-0.1,0-0.2c0-0.1,0-0.1,0-0.2c0-0.2,0-0.4,0-0.6c0-0.2,0-0.4,0-0.7s0-0.4,0-0.6s0-0.4-0.1-0.5l-0.9,0.3
			c0,0.1,0,0.2,0.1,0.4c0,0.1,0,0.3,0,0.5s0,0.3,0,0.5s0,0.3,0,0.5s0,0.3,0,0.5s0,0.3,0,0.5s0,0.5,0,0.6c0,0.2,0,0.3,0,0.4
			c0,0.1,0,0.1,0,0.2c0,0.1,0,0.2,0,0.3s0.1,0.2,0.1,0.3s0.1,0.2,0.2,0.3c0.1,0.1,0.3,0.2,0.5,0.3s0.4,0.1,0.7,0.1l0,0
			c0.3,0,0.7-0.1,0.9-0.3c0.1-0.1,0.2-0.2,0.3-0.3c0.1,0.1,0.3,0.2,0.5,0.3s0.3,0.1,0.5,0.2c0.2,0.1,0.3,0.1,0.5,0.1
			c0.3,0,0.5-0.1,0.7-0.3l0.1-0.1l0.1,0.1c0.2,0.2,0.4,0.3,0.8,0.3l0,0h0.1c0.2,0,0.3,0,0.4,0c0.1,0,0.2-0.1,0.3-0.1
			s0.2-0.1,0.2-0.2c0.1-0.1,0.1-0.1,0.2-0.2c0.1,0.1,0.1,0.1,0.2,0.2c0.1,0.1,0.1,0.1,0.2,0.2s0.2,0.1,0.3,0.1s0.2,0,0.3,0
			s0.3,0,0.4,0c0.1,0,0.2-0.1,0.3-0.1s0.2-0.1,0.2-0.2s0.1-0.1,0.2-0.2c0,0.1,0.1,0.1,0.2,0.2c0.1,0.1,0.1,0.1,0.2,0.2
			s0.2,0.1,0.3,0.1s0.2,0,0.3,0c0.2,0,0.5,0,0.6-0.1c0.2-0.1,0.3-0.2,0.5-0.3c0.1-0.1,0.2-0.3,0.3-0.4c0.1-0.2,0.1-0.4,0.1-0.6
			C152.3,59.8,152.3,59.7,152.2,59.5z M145.3,60.5C145.2,60.5,145.2,60.5,145.3,60.5c-0.2,0-0.5-0.1-1.1-0.5v-0.1l0,0v-0.1
			c0-0.1,0.1-0.2,0.1-0.3c0.1-0.3,0.3-0.4,0.3-0.5c0.1,0,0.3,0,0.4,0.1c0.1,0.1,0.2,0.2,0.3,0.3c0.1,0.2,0.1,0.3,0.1,0.5
			C145.5,60.3,145.4,60.4,145.3,60.5z"/>
	</g>
</g>
</svg>
