<?xml version="1.0" encoding="utf-8"?>
<!-- Generator: Adobe Illustrator 22.1.0, SVG Export Plug-In . SVG Version: 6.00 Build 0)  -->
<svg version="1.1" id="Capa_1" xmlns="http://www.w3.org/2000/svg" xmlns:xlink="http://www.w3.org/1999/xlink" x="0px" y="0px"
	 viewBox="0 0 30 20" style="enable-background:new 0 0 30 20;" xml:space="preserve">
<style type="text/css">
	.st0{fill:#010002;}
</style>
<g>
	<path class="st0" d="M0,2v16c0,1.1,0.9,2,2,2h26c1.1,0,2-0.9,2-2V2c0-1.1-0.9-2-2-2H2C0.9,0,0,0.9,0,2z M14.6,12L2.7,1.5h24.6
		L15.4,12C15.2,12.2,14.8,12.2,14.6,12z M10.1,10l-8.6,7.6V2.4L10.1,10z M11.2,11l2.5,2.2c0.8,0.7,1.9,0.7,2.6,0l2.5-2.2l8.5,7.5
		H2.7L11.2,11z M19.9,10l8.6-7.6v15.2L19.9,10z"/>
</g>
</svg>
