<svg id="Layer_1" data-name="Layer 1" xmlns="http://www.w3.org/2000/svg" viewBox="0 0 180 126"><title>empty-project-list-illus</title><path d="M139.48,66.66H133.2V55.38a4.92,4.92,0,0,0-4.91-4.9H83.72l-9-12.59H40.91A4.93,4.93,0,0,0,36,42.8v78.56h0a4.47,4.47,0,0,0,.93,2.82A4.62,4.62,0,0,0,40.63,126h80.55a4.57,4.57,0,0,0,4.41-3.25L144,72.32V72C144,68.91,142.09,66.66,139.48,66.66ZM39.6,42.8a1.32,1.32,0,0,1,1.31-1.32h32l9,12.59h46.41a1.32,1.32,0,0,1,1.31,1.31V66.66H58.91a3.67,3.67,0,0,0-.75.07,4.54,4.54,0,0,0-3.66,3.18L39.6,110.54Zm82.57,78.85a1,1,0,0,1-1,.75H40.63a1,1,0,0,1-.81-.39,1,1,0,0,1-.24-.74L57.94,71a1,1,0,0,1,1-.75h80.57c.69,0,.87,1,.9,1.47Z"/><path d="M107.48,84.48a2.7,2.7,0,1,1-2.7,2.69A2.69,2.69,0,0,1,107.48,84.48Z"/><path d="M78.73,84.48A2.7,2.7,0,1,1,76,87.17,2.69,2.69,0,0,1,78.73,84.48Z"/><path d="M78.73,84.48A2.7,2.7,0,1,1,76,87.17,2.69,2.69,0,0,1,78.73,84.48Z"/><path d="M49.8,1.35A1.35,1.35,0,1,1,48.45,2.7,1.35,1.35,0,0,1,49.8,1.35M49.8,0a2.7,2.7,0,1,0,2.7,2.7A2.7,2.7,0,0,0,49.8,0Z"/><path d="M178.2,100.55a.9.9,0,1,1-.9.9.9.9,0,0,1,.9-.9m0-.9a1.8,1.8,0,1,0,1.8,1.8,1.8,1.8,0,0,0-1.8-1.8Z"/><path d="M95.07,39.17a.9.9,0,1,1-.9.9.9.9,0,0,1,.9-.9m0-.9a1.8,1.8,0,1,0,1.8,1.8,1.81,1.81,0,0,0-1.8-1.8Z"/><path d="M23.4,53.41a.9.9,0,1,1-.9.9.9.9,0,0,1,.9-.9m0-.9a1.8,1.8,0,1,0,1.8,1.8,1.81,1.81,0,0,0-1.8-1.8Z"/><path d="M129.6,35.58a2.25,2.25,0,1,1-2.25,2.25,2.25,2.25,0,0,1,2.25-2.25m0-2.25a4.5,4.5,0,1,0,4.5,4.5,4.49,4.49,0,0,0-4.5-4.5Z"/><path d="M93.1,107.3c-4.16,0-7.52-1.56-8.18-3.79a.94.94,0,1,1,1.81-.53c.35,1.17,2.88,2.43,6.37,2.43s6-1.26,6.38-2.43a.94.94,0,0,1,1.81.53C100.63,105.74,97.26,107.3,93.1,107.3Z"/><path d="M167.73,37.83a.62.62,0,0,1-.62.62h-1.46V39.9a.62.62,0,0,1-.62.62.62.62,0,0,1-.62-.62V38.45H163a.63.63,0,0,1,0-1.25h1.46V35.75a.62.62,0,0,1,.62-.62.62.62,0,0,1,.62.62V37.2h1.46A.63.63,0,0,1,167.73,37.83Z"/><path d="M97.6,20a1,1,0,0,1-1,1H94.14v2.43a1,1,0,0,1-2.07,0V21H89.64a1,1,0,1,1,0-2.07h2.43V16.55a1,1,0,1,1,2.07,0V19h2.43A1,1,0,0,1,97.6,20Z"/><path d="M13.92,87.17a.42.42,0,0,1-.42.42h-1v1a.42.42,0,0,1-.83,0v-1h-1a.42.42,0,0,1,0-.83h1v-1a.42.42,0,0,1,.83,0v1h1A.42.42,0,0,1,13.92,87.17Z"/><path d="M156.57,77.75a.42.42,0,0,1-.42.41h-1v1a.42.42,0,0,1-.83,0v-1h-1a.42.42,0,0,1,0-.83h1v-1a.42.42,0,0,1,.83,0v1h1A.42.42,0,0,1,156.57,77.75Z"/><path d="M5.4,14.4a.62.62,0,0,1-.62.62H3.32v1.45a.62.62,0,0,1-1.24,0V15H.62a.63.63,0,0,1,0-1.25H2.08V12.32a.62.62,0,1,1,1.24,0v1.45H4.78A.63.63,0,0,1,5.4,14.4Z"/></svg>