<svg xmlns="http://www.w3.org/2000/svg" viewBox="0 0 143.62 143.62"><defs><style>.cls-1{fill:#afafaf;}.cls-2{fill:#395196;}.cls-3{fill:#fff;}</style></defs><title>Asset 5</title><g id="Layer_2" data-name="Layer 2"><g id="OBJECTS"><path id="_Path_" data-name="&lt;Path&gt;" class="cls-1" d="M143.62,71.8a71.81,71.81,0,1,0-71.81,71.82A71.81,71.81,0,0,0,143.62,71.8Z"/><path id="_Path_2" data-name="&lt;Path&gt;" class="cls-2" d="M143.62,71.8a71.81,71.81,0,1,0-71.81,71.82A71.81,71.81,0,0,0,143.62,71.8Z"/><path id="_Path_3" data-name="&lt;Path&gt;" class="cls-3" d="M78.14,54.8V48c0-3.32,2.21-4.09,3.76-4.09h9.54V29.34L78.3,29.29c-14.59,0-17.9,10.87-17.9,17.82V54.8H52v17h8.51v42.53h17V71.81H90.1l1.56-17Z"/></g></g></svg>