<?xml version="1.0" encoding="utf-8"?>
<!-- Generator: Adobe Illustrator 22.1.0, SVG Export Plug-In . SVG Version: 6.00 Build 0)  -->
<svg version="1.1" id="Layer_1" xmlns="http://www.w3.org/2000/svg" xmlns:xlink="http://www.w3.org/1999/xlink" x="0px" y="0px"
	 viewBox="0 0 106 100" style="enable-background:new 0 0 106 100;" xml:space="preserve">
<g>
	<path d="M102.9,11.2L102.9,11.2L102.9,11.2c-0.1,0-0.1,0-0.1,0c-0.7-0.3-1.4-0.5-2.1-0.5h-8.8V3.6c0-2-1.6-3.6-3.5-3.6h-7.1
		c-2,0-3.5,1.6-3.5,3.6v7.1H28.3V3.6c0-2-1.6-3.6-3.5-3.6h-7.1c-2,0-3.5,1.6-3.5,3.6v7.1H5.3c-2.9,0-5.3,2.4-5.3,5.4v28.6
		c0,3,2.4,5.4,5.3,5.4h8.8v35.7h-3.5c-2,0-3.5,1.6-3.5,3.6v7.1c0,2,1.6,3.6,3.5,3.6h21.2c2,0,3.5-1.6,3.5-3.6v-7.1
		c0-2-1.6-3.6-3.5-3.6h-3.5V50h49.5v35.7h-3.5c-2,0-3.5,1.6-3.5,3.6v7.1c0,2,1.6,3.6,3.5,3.6h21.2c2,0,3.5-1.6,3.5-3.6v-7.1
		c0-2-1.6-3.6-3.5-3.6h-3.5V50h8.8c2.9,0,5.3-2.4,5.3-5.4V16.1C106,14,104.8,12.1,102.9,11.2z M52,46.4l31.8-32.1h14.4L66.4,46.4H52
		z M81.3,3.6h7.1v7.1h-7.1V3.6z M25.8,46.4H13.1l31.8-32.1h12.7L25.8,46.4z M17.7,3.6h7.1v7.1h-7.1V3.6z M5.3,14.3h13.4L3.5,29.6
		V16.1C3.5,15.1,4.3,14.3,5.3,14.3z M5.3,46.4c-1,0-1.8-0.8-1.8-1.8v-10l20.2-20.4h16.2L8.1,46.4H5.3z M31.8,96.4H10.6v-7.1h21.2
		V96.4z M17.7,85.7V50h7.1v35.7H17.7z M30.8,46.4l31.8-32.1h16.2L47,46.4H30.8z M102.2,15.2c0,0.1,0.1,0.1,0.1,0.2
		c0,0,0,0.1,0.1,0.1c0,0.2,0.1,0.3,0.1,0.5v15.3l-14.9,15H71.4L102.2,15.2z M95.4,96.4H74.2v-7.1h21.2V96.4z M88.3,85.7h-7.1V50h7.1
		V85.7z M100.7,46.4h-8.1l9.9-10v8.2C102.5,45.6,101.7,46.4,100.7,46.4z"/>
</g>
</svg>
