<?xml version="1.0" encoding="utf-8"?>
<!-- Generator: Adobe Illustrator 22.1.0, SVG Export Plug-In . SVG Version: 6.00 Build 0)  -->
<svg version="1.1" id="Layer_1" xmlns="http://www.w3.org/2000/svg" xmlns:xlink="http://www.w3.org/1999/xlink" x="0px" y="0px"
	 viewBox="0 0 30 30" style="enable-background:new 0 0 30 30;" xml:space="preserve" fill="#000000">
<g>
	<path d="M14.4,8.4H4.3c-0.6,0-1,0.4-1,1c0,0.6,0.4,1,1,1h10c0.6,0,1.1-0.4,1.1-1C15.4,8.8,15,8.4,14.4,8.4z M25.8,13.3H4.3
		c-0.6,0-1,0.4-1,1c0,0.6,0.4,1,1,1h21.4c0.6,0,1.1-0.4,1.1-1C26.8,13.7,26.4,13.3,25.8,13.3z M25.8,18.2H4.3c-0.6,0-1,0.4-1,1
		c0,0.6,0.4,1,1,1h21.4c0.6,0,1.1-0.4,1.1-1C26.8,18.6,26.4,18.2,25.8,18.2z M25.8,23.1H4.3c-0.6,0-1,0.4-1,1c0,0.6,0.4,1,1,1h21.4
		c0.6,0,1.1-0.4,1.1-1C26.8,23.5,26.4,23.1,25.8,23.1z M14.4,8.4H4.3c-0.6,0-1,0.4-1,1c0,0.6,0.4,1,1,1h10c0.6,0,1.1-0.4,1.1-1
		C15.4,8.8,15,8.4,14.4,8.4z M25.8,23.1H4.3c-0.6,0-1,0.4-1,1c0,0.6,0.4,1,1,1h21.4c0.6,0,1.1-0.4,1.1-1
		C26.8,23.5,26.4,23.1,25.8,23.1z M25.8,18.2H4.3c-0.6,0-1,0.4-1,1c0,0.6,0.4,1,1,1h21.4c0.6,0,1.1-0.4,1.1-1
		C26.8,18.6,26.4,18.2,25.8,18.2z M25.8,13.3H4.3c-0.6,0-1,0.4-1,1c0,0.6,0.4,1,1,1h21.4c0.6,0,1.1-0.4,1.1-1
		C26.8,13.7,26.4,13.3,25.8,13.3z M4.3,15.3h21.4c0.6,0,1.1-0.4,1.1-1c0-0.6-0.4-1-1-1H4.3c-0.6,0-1,0.4-1,1
		C3.3,14.9,3.7,15.3,4.3,15.3z M25.8,18.2H4.3c-0.6,0-1,0.4-1,1c0,0.6,0.4,1,1,1h21.4c0.6,0,1.1-0.4,1.1-1
		C26.8,18.6,26.4,18.2,25.8,18.2z M25.8,23.1H4.3c-0.6,0-1,0.4-1,1c0,0.6,0.4,1,1,1h21.4c0.6,0,1.1-0.4,1.1-1
		C26.8,23.5,26.4,23.1,25.8,23.1z M4.3,10.4h10c0.6,0,1.1-0.4,1.1-1c0-0.6-0.4-1-1-1H4.3c-0.6,0-1,0.4-1,1C3.3,10,3.7,10.4,4.3,10.4
		z M25.8,13.3H4.3c-0.6,0-1,0.4-1,1c0,0.6,0.4,1,1,1h21.4c0.6,0,1.1-0.4,1.1-1C26.8,13.7,26.4,13.3,25.8,13.3z M25.8,18.2H4.3
		c-0.6,0-1,0.4-1,1c0,0.6,0.4,1,1,1h21.4c0.6,0,1.1-0.4,1.1-1C26.8,18.6,26.4,18.2,25.8,18.2z M25.8,23.1H4.3c-0.6,0-1,0.4-1,1
		c0,0.6,0.4,1,1,1h21.4c0.6,0,1.1-0.4,1.1-1C26.8,23.5,26.4,23.1,25.8,23.1z M14.4,8.4H4.3c-0.6,0-1,0.4-1,1c0,0.6,0.4,1,1,1h10
		c0.6,0,1.1-0.4,1.1-1C15.4,8.8,15,8.4,14.4,8.4z M18.4,0H5C2.2,0,0,2.2,0,5v20c0,2.8,2.2,5,5,5h20c2.8,0,5-2.2,5-5V11.6L18.4,0z
		 M29,25c0,2.2-1.8,4-4,4H5c-2.2,0-4-1.8-4-4V5c0-2.2,1.8-4,4-4h13.4v5.6c0,2.8,2.2,5,5,5H29V25z"/>
</g>
</svg>
