<?xml version="1.0" encoding="utf-8"?>
<!-- Generator: Adobe Illustrator 22.1.0, SVG Export Plug-In . SVG Version: 6.00 Build 0)  -->
<svg version="1.1" id="Layer_1" xmlns="http://www.w3.org/2000/svg" xmlns:xlink="http://www.w3.org/1999/xlink" x="0px" y="0px"
	 viewBox="0 0 20 20" style="enable-background:new 0 0 20 20;" xml:space="preserve">
<style type="text/css">
	.st0{fill:#232323;}
	.st1{fill:#FFFFFF;}
</style>
<g>
	<path class="st0" d="M4,0h12c2.2,0,4,1.8,4,4v12c0,2.2-1.8,4-4,4H4c-2.2,0-4-1.8-4-4V4C0,1.8,1.8,0,4,0z"/>
	<path id="GuestIconEye" transform="translate(497.006 166)" class="st1" d="M-485.1-156c0,1-0.8,1.9-1.9,1.9s-1.9-0.8-1.9-1.9
		c0-1,0.8-1.9,1.9-1.9C-486-157.9-485.1-157-485.1-156C-485.1-156-485.1-156-485.1-156z M-481.2-156.5L-481.2-156.5
		c-0.7-0.8-2.9-3.5-5.8-3.5s-5.4,2.9-5.8,3.5c-0.2,0.3-0.2,0.8,0,1.1c0.4,0.6,2.8,3.4,5.8,3.4s5.2-2.6,5.8-3.5
		c0.1-0.2,0.2-0.3,0.2-0.5C-481-156.2-481.1-156.4-481.2-156.5z M-487-153.6c-1.8,0-3.4-1.5-4.1-2.4c0.6-0.6,2.3-2.4,4.1-2.4
		s3.4,1.6,4.1,2.4C-483.4-155.4-485.1-153.6-487-153.6z"/>
</g>
</svg>
