<?xml version="1.0" encoding="utf-8"?>
<!-- Generator: Adobe Illustrator 22.1.0, SVG Export Plug-In . SVG Version: 6.00 Build 0)  -->
<svg version="1.1" id="Capa_1" xmlns="http://www.w3.org/2000/svg" xmlns:xlink="http://www.w3.org/1999/xlink" x="0px" y="0px"
	 viewBox="0 0 20 20" style="enable-background:new 0 0 20 20;" xml:space="preserve">
<style type="text/css">
	.st0{fill:none;}
</style>
<g>
	<path class="st0" d="M0,0h20v20H0V0z"/>
	<path d="M4.3,8.4C4.1,8.2,4,8,4,7.8s0.1-0.4,0.2-0.6c0.5-0.5,1.2-0.8,1.9-0.8c0.7,0,1.4,0.3,1.9,0.8c0.3,0.3,0.3,0.8,0,1.1
		C7.9,8.5,7.7,8.6,7.5,8.6c-0.2,0-0.4-0.1-0.6-0.2C6.5,8,5.8,8,5.4,8.4C5.1,8.7,4.6,8.7,4.3,8.4z M13.1,8.4c0.4-0.4,1.1-0.4,1.5,0
		c0.1,0.1,0.3,0.2,0.6,0.2c0.2,0,0.4-0.1,0.6-0.2c0.3-0.3,0.3-0.8,0-1.1c-0.5-0.5-1.2-0.8-1.9-0.8S12.5,6.8,12,7.3
		c-0.3,0.3-0.3,0.8,0,1.1C12.3,8.7,12.8,8.7,13.1,8.4z M20,10c0,2.7-1,5.2-2.9,7.1C15.2,19,12.7,20,10,20s-5.2-1-7.1-2.9
		C1,15.2,0,12.7,0,10s1-5.2,2.9-7.1C4.8,1,7.3,0,10,0s5.2,1,7.1,2.9C19,4.8,20,7.3,20,10z M18.4,10c0-4.7-3.8-8.4-8.4-8.4
		c-4.7,0-8.4,3.8-8.4,8.4c0,4.7,3.8,8.4,8.4,8.4C14.7,18.4,18.4,14.7,18.4,10z M16,11c0,3.3-2.7,6-6,6s-6-2.7-6-6
		c0-0.4,0.3-0.8,0.8-0.8h10.3C15.6,10.2,16,10.6,16,11z M5.7,11.8c0.4,2.1,2.2,3.6,4.3,3.6c2.1,0,4-1.5,4.3-3.6H5.7z"/>
</g>
</svg>
