<?xml version="1.0" encoding="utf-8"?>
<!-- Generator: Adobe Illustrator 22.1.0, SVG Export Plug-In . SVG Version: 6.00 Build 0)  -->
<svg version="1.1" id="Capa_1" xmlns="http://www.w3.org/2000/svg" xmlns:xlink="http://www.w3.org/1999/xlink" x="0px" y="0px"
	 viewBox="0 0 15 15" style="enable-background:new 0 0 15 15;" xml:space="preserve">
<g>
	<path d="M8.3,10.7v1C8.3,11.9,8.1,12,8,12H7c-0.1,0-0.3-0.1-0.3-0.3v-1c0-0.1,0.1-0.3,0.3-0.3h1C8.2,10.4,8.3,10.5,8.3,10.7z"/>
	<path d="M10.4,5.3c-0.4-1.6-2-2.6-3.6-2.2C5.4,3.4,4.5,4.6,4.5,6H6c0.1-0.8,0.8-1.4,1.6-1.4C8.5,4.7,9.1,5.4,9,6.3
		C8.8,7,8.2,7.5,7.4,7.5C7,7.5,6.8,7.8,6.8,8.2l0,0v1.6h1.5V8.9C9.8,8.5,10.8,6.9,10.4,5.3z"/>
	<path d="M7.5,0C3.4,0,0,3.4,0,7.5S3.4,15,7.5,15S15,11.6,15,7.5S11.6,0,7.5,0z M7.5,13.6c-3.4,0-6.1-2.8-6.1-6.1s2.8-6.1,6.1-6.1
		c3.4,0,6.1,2.8,6.1,6.1C13.6,10.9,10.9,13.6,7.5,13.6z"/>
</g>
</svg>
