<?xml version="1.0" encoding="utf-8"?>
<!-- Generator: Adobe Illustrator 22.1.0, SVG Export Plug-In . SVG Version: 6.00 Build 0)  -->
<svg version="1.1" id="Layer_1" xmlns="http://www.w3.org/2000/svg" xmlns:xlink="http://www.w3.org/1999/xlink" x="0px" y="0px"
	 viewBox="0 0 30 30" style="enable-background:new 0 0 30 30;" xml:space="preserve" fill="#000000">
<g>
	<path d="M8,5.1c-1.1,0-2,0.9-2,2c0,1.1,0.9,2,2,2s2-0.9,2-2C10,6,9.1,5.1,8,5.1z M8,5.1c-1.1,0-2,0.9-2,2c0,1.1,0.9,2,2,2
		s2-0.9,2-2C10,6,9.1,5.1,8,5.1z M25,0H5C2.2,0,0,2.2,0,5v20c0,2.8,2.2,5,5,5h20c2.8,0,5-2.2,5-5V5C30,2.2,27.8,0,25,0z M8,3.1
		c2.2,0,4,1.8,4,4c0,2.2-1.8,4-4,4s-4-1.8-4-4C4,4.9,5.8,3.1,8,3.1z M29.5,24.6c-0.4,0.4-1,0.4-1.4,0l-8.2-8.9l-4.4,4l1.9,1.7
		c0.4,0.4,0.4,1,0.1,1.4c-0.4,0.4-1,0.4-1.4,0.1L14,21l-1.4-1.3l-2.2-2l-8,8.8c-0.2,0.2-0.5,0.3-0.7,0.3S1.2,26.7,1,26.6
		c-0.4-0.4-0.4-1-0.1-1.4l8.7-9.6c0.2-0.2,0.4-0.3,0.7-0.3s0.5,0.1,0.7,0.3l3,2.8l5.3-4.7c0.4-0.4,1-0.3,1.4,0.1l8.8,9.6
		C29.9,23.6,29.9,24.3,29.5,24.6z M8,9.1c1.1,0,2-0.9,2-2c0-1.1-0.9-2-2-2S6,6,6,7.1C6,8.2,6.9,9.1,8,9.1z M8,5.1c-1.1,0-2,0.9-2,2
		c0,1.1,0.9,2,2,2s2-0.9,2-2C10,6,9.1,5.1,8,5.1z M8,5.1c-1.1,0-2,0.9-2,2c0,1.1,0.9,2,2,2s2-0.9,2-2C10,6,9.1,5.1,8,5.1z"/>
</g>
</svg>
