<?xml version="1.0" encoding="utf-8"?>
<!-- Generator: Adobe Illustrator 22.1.0, SVG Export Plug-In . SVG Version: 6.00 Build 0)  -->
<svg version="1.1" id="Capa_1" xmlns="http://www.w3.org/2000/svg" xmlns:xlink="http://www.w3.org/1999/xlink" x="0px" y="0px"
	 viewBox="0 0 30 45" style="enable-background:new 0 0 30 45;" xml:space="preserve" fill="#000000">
<g>
	<path d="M26.6,1.8c-0.2-0.1-0.5-0.3-0.8-0.3c-0.3,0-0.6,0.1-0.8,0.5l-3.6,5.7l-3-3.2c-0.2-0.1-0.5-0.3-0.8-0.3
		c-0.3,0-0.5,0.2-0.7,0.5l-2.7,4.5l-3.2-8.4c0-0.5-0.3-0.8-0.8-0.8C10,0,9.5,0.1,9.4,0.5L6.8,5L5.6,1.5C5.4,1.2,5.1,0.9,4.8,0.9
		c-0.3,0-0.6,0-0.9,0.3C1.4,4.2,0,8.1,0,12.2c0,6.2,2.6,9.6,4.2,11.8c0.8,1.1,1.4,1.9,1.4,2.4v2.1c0,1.5,0.8,2.9,1.8,3.4v6.4
		c0,1.1,0.5,2.1,1.1,2.9l2.1,2.3c0.9,0.9,2.1,1.5,3.3,1.5h2.6c1.2,0,2.4-0.6,3.3-1.5l1.8-1.9c0.8-0.8,1.1-1.8,1.1-2.9v-6.5
		c1.1-0.8,1.8-1.9,1.8-3.4v-2.1c0-0.6,0.6-1.5,1.4-2.4C27.5,22,30,18.6,30,12.5C30,8.4,28.8,4.8,26.6,1.8z M18.3,42
		c-0.6,0.6-1.2,0.9-2,0.9h-2.6c-0.8,0-1.5-0.3-2-0.9l-1.1-1.2h8.6L18.3,42z M20.7,38.6c0,0.1,0,0.1,0,0.3H9.6c0-0.2,0-0.2,0-0.3
		v-1.8h11.3L20.7,38.6L20.7,38.6z M20.7,34.8H9.5v-2.1h11.3V34.8z M24.3,22.8c-1.1,1.4-1.8,2.4-1.8,3.8v2.1c0,1.2-0.9,2.1-1.8,2.1
		H9.5c-1.1,0-1.8-0.9-1.8-2.1v-2.1c0-1.3-0.8-2.4-1.8-3.8c-1.7-2.3-3.8-5.1-3.8-10.7c0-3,0.9-5.8,2.6-8.4L6,7.4C6.2,7.7,6.5,8,6.8,8
		s0.8-0.2,0.9-0.5L10.4,3l3.2,8.4c0.2,0.3,0.5,0.6,0.8,0.6s0.8-0.2,0.9-0.5l2.9-4.8l3,3.2c0.2,0.2,0.5,0.3,0.8,0.3
		c0.3,0,0.6-0.2,0.8-0.5l3.6-5.5c1.5,2.4,2.3,5.1,2.3,8.1C28.2,17.7,26,20.7,24.3,22.8z"/>
</g>
</svg>
