<?xml version="1.0" encoding="utf-8"?>
<!-- Generator: Adobe Illustrator 22.1.0, SVG Export Plug-In . SVG Version: 6.00 Build 0)  -->
<svg version="1.1" id="Layer_1" xmlns="http://www.w3.org/2000/svg" xmlns:xlink="http://www.w3.org/1999/xlink" x="0px" y="0px"
	 viewBox="0 0 144 28" style="enable-background:new 0 0 144 28;" xml:space="preserve">
<style type="text/css">
	.st0{fill:#232323;}
	.st1{fill:#232323;enable-background:new    ;}
</style>
<g>
	<path id="MaestroLogo" transform="translate(286.869 43.265)" class="st0" d="M-257.7-29.7L-261-25c-0.2,0.3-0.7,0.4-1,0.2
		c-0.1,0-0.1-0.1-0.2-0.2l-5-6.8l0,0l-12,16.3c-0.1,0.2-0.4,0.3-0.6,0.3h-6.3c-0.3,0-0.7-0.2-0.7-0.5c0-0.1,0-0.3,0.1-0.4l18.9-26.8
		c0.3-0.3,0.7-0.4,1.1-0.1c0.1,0,0.1,0.1,0.1,0.1l8.9,12.6C-257.6-30.1-257.6-29.9-257.7-29.7z M-247.4-15.3c0.3,0,0.6-0.3,0.6-0.6
		c0-0.1,0-0.2-0.1-0.3l-7.4-12.7c-0.2-0.4-0.8-0.6-1.2-0.4c-0.2,0.1-0.3,0.2-0.4,0.4l-1.2,2l-3.2,5.5l-3.1,5.3
		c-0.2,0.3-0.1,0.6,0.2,0.8c0.1,0,0.2,0.1,0.3,0.1h5.2c0.2,0,0.4-0.1,0.5-0.3l0.3-0.5l1.8-3l0,0l2.1,3.4c0.1,0.2,0.3,0.3,0.5,0.3
		L-247.4-15.3z"/>
	<path id="MAESTRO" transform="translate(352.869 83.264)" class="st1" d="M50.2,14.3l3.4,10h0.1l3.5-10h3.5v13.5H58v-4l0.3-6
		l-0.1,0l-3.6,10h-1.8l-3.6-10l-0.1,0l0.3,5.9v4h-2.7V14.3H50.2z M72.4,24.9h-4.7l-0.9,2.9H64l4.6-13.5h2.8L76,27.8h-2.7L72.4,24.9z
		 M68.3,22.8h3.4L70,17.5H70L68.3,22.8z M87.5,21.9h-5.6v3.8h6.5v2.1h-9.3V14.3h9.2v2.1h-6.5v3.4h5.6V21.9z M99.3,24.3
		c0-0.5-0.2-0.9-0.6-1.3c-0.4-0.3-1-0.6-1.9-0.9c-1.6-0.5-2.8-1-3.6-1.7c-0.8-0.6-1.2-1.5-1.2-2.6c0-1.1,0.5-2,1.4-2.7
		c0.9-0.7,2.1-1.1,3.6-1.1c1.5,0,2.7,0.4,3.6,1.2c0.9,0.8,1.4,1.8,1.4,2.9l0,0.1h-2.6c0-0.6-0.2-1.1-0.6-1.5c-0.4-0.4-1-0.6-1.8-0.6
		c-0.7,0-1.3,0.2-1.7,0.5c-0.4,0.3-0.6,0.7-0.6,1.2c0,0.5,0.2,0.8,0.6,1.1c0.4,0.3,1.2,0.6,2.2,0.9c1.5,0.4,2.6,1,3.4,1.6
		c0.8,0.7,1.2,1.6,1.2,2.7c0,1.2-0.5,2.1-1.4,2.7s-2.1,1-3.6,1c-1.5,0-2.8-0.4-3.9-1.1s-1.6-1.8-1.6-3.2l0-0.1h2.6
		c0,0.8,0.2,1.4,0.7,1.8c0.5,0.4,1.2,0.6,2.1,0.6c0.7,0,1.3-0.2,1.7-0.5C99.1,25.2,99.3,24.8,99.3,24.3z M115.3,16.4h-3.8v11.4h-2.7
		V16.4h-3.8v-2.1h10.3V16.4z M121.4,22.4v5.4h-2.7V14.3h5.1c1.5,0,2.7,0.4,3.6,1.1c0.9,0.7,1.3,1.7,1.3,2.9c0,0.7-0.2,1.3-0.5,1.8
		c-0.4,0.5-0.9,0.9-1.6,1.2c0.8,0.2,1.4,0.6,1.7,1.2s0.5,1.2,0.5,2v1c0,0.4,0.1,0.8,0.2,1.2c0.1,0.4,0.3,0.7,0.5,0.9v0.2h-2.8
		c-0.2-0.2-0.4-0.5-0.5-1c-0.1-0.5-0.1-0.9-0.1-1.3v-1c0-0.7-0.2-1.2-0.6-1.6s-0.9-0.6-1.6-0.6H121.4z M121.4,20.3h2.3
		c0.8,0,1.3-0.2,1.7-0.5c0.4-0.3,0.6-0.8,0.6-1.4c0-0.6-0.2-1.1-0.6-1.5c-0.4-0.4-0.9-0.5-1.7-0.5h-2.4V20.3z M144,22.3
		c0,1.7-0.5,3-1.6,4.1S140,28,138.3,28c-1.7,0-3-0.5-4.1-1.6s-1.6-2.5-1.6-4.1v-2.4c0-1.7,0.5-3,1.6-4.1c1-1.1,2.4-1.6,4.1-1.6
		c1.7,0,3,0.5,4.1,1.6c1.1,1.1,1.6,2.5,1.6,4.1V22.3z M141.3,19.8c0-1.1-0.3-1.9-0.8-2.6s-1.2-1-2.2-1s-1.6,0.3-2.1,1
		c-0.5,0.7-0.8,1.5-0.8,2.6v2.5c0,1.1,0.3,1.9,0.8,2.6c0.5,0.7,1.2,1,2.1,1c0.9,0,1.7-0.3,2.2-1c0.5-0.7,0.8-1.5,0.8-2.6V19.8z"/>
</g>
</svg>
