<?xml version="1.0" encoding="utf-8"?>
<!-- Generator: Adobe Illustrator 22.1.0, SVG Export Plug-In . SVG Version: 6.00 Build 0)  -->
<svg version="1.1" id="Layer_1" xmlns="http://www.w3.org/2000/svg" xmlns:xlink="http://www.w3.org/1999/xlink" x="0px" y="0px"
	 viewBox="0 0 15 15" style="enable-background:new 0 0 15 15;" xml:space="preserve">
<g>
	<path d="M0,7.4 M0,7.4l2.5-2.5c0.3-0.3,0.7-0.3,1,0c0.3,0.3,0.3,0.7,0,1L2.7,6.7h8.4c0.4,0,0.7,0.3,0.7,0.7c0,0.4-0.3,0.7-0.7,0.7
		H2.7L3.5,9c0.3,0.3,0.3,0.7,0,1c-0.3,0.3-0.7,0.3-1,0L0,7.4z"/>
	<path d="M15,0.7v13.6c0,0.4-0.3,0.7-0.7,0.7H5.4c-0.4,0-0.7-0.3-0.7-0.7v-4c0-0.4,0.3-0.7,0.7-0.7s0.7,0.3,0.7,0.7v3.3h7.5V1.4H6.1
		v3.3c0,0.4-0.3,0.7-0.7,0.7S4.7,5.1,4.7,4.7v-4C4.7,0.3,5,0,5.4,0h8.9C14.7,0,15,0.3,15,0.7z"/>
</g>
</svg>
