<?xml version="1.0" encoding="utf-8"?>
<!-- Generator: Adobe Illustrator 22.1.0, SVG Export Plug-In . SVG Version: 6.00 Build 0)  -->
<svg version="1.1" id="MaestroLogo" xmlns="http://www.w3.org/2000/svg" xmlns:xlink="http://www.w3.org/1999/xlink" x="0px"
	 y="0px" viewBox="0 0 47 34" style="enable-background:new 0 0 47 34;" xml:space="preserve">
<style type="text/css">
	.st0{fill:#463B5B;}
	.st1{fill:#5E5375;}
</style>
<g>
	<path class="st0" d="M22.7,0c0.4,0,0.7,0.4,0.7,0.4l10.3,15.3c0.2,0.2,0.2,0.5,0,0.8l-3.8,5.7c-0.3,0.4-0.8,0.5-1.2,0.2
		c-0.1-0.1-0.2-0.1-0.2-0.2l-5.8-8.3l0,0L8.9,33.5c-0.2,0.3-0.5,0.4-0.7,0.4H0.8c-0.4,0-0.8-0.3-0.8-0.7c0-0.2,0-0.3,0.1-0.5
		L21.9,0.3C21.9,0.3,22.2,0,22.7,0z"/>
	<path class="st1" d="M46.3,34c0.4,0,0.7-0.3,0.7-0.7c0-0.1,0-0.2-0.1-0.3l-9.1-15.5c-0.3-0.5-1-0.7-1.5-0.4
		c-0.2,0.1-0.3,0.2-0.4,0.4l-1.4,2.4l-3.9,6.6l-3.8,6.4c-0.2,0.3-0.1,0.8,0.2,1c0.1,0.1,0.2,0.1,0.3,0.1h6.3c0.2,0,0.5-0.1,0.6-0.3
		l0.3-0.6l2.2-3.6l0,0l2.5,4.2c0.1,0.2,0.3,0.3,0.6,0.3H46.3z"/>
</g>
</svg>
