<?xml version="1.0" encoding="utf-8"?>
<!-- Generator: Adobe Illustrator 22.1.0, SVG Export Plug-In . SVG Version: 6.00 Build 0)  -->
<svg version="1.1" id="Layer_1" xmlns="http://www.w3.org/2000/svg" xmlns:xlink="http://www.w3.org/1999/xlink" x="0px" y="0px"
	 viewBox="0 0 180 130" style="enable-background:new 0 0 180 130;" xml:space="preserve">
<style type="text/css">
	.st0{fill:#463B5B;}
	.st1{fill:#5E5375;}
</style>
<g>
	<path class="st0" d="M86.9,0c1.5,0,2.7,1.5,2.7,1.5l39.4,58.7c0.8,0.8,0.8,1.9,0,3.1l-14.6,21.9c-1.1,1.5-3.1,1.9-4.6,0.8
		c-0.4-0.4-0.8-0.4-0.8-0.8L86.9,53.3l0,0l-52.9,75.2c-0.8,1.2-1.9,1.5-2.7,1.5H3.1c-1.5,0-3.1-1.2-3.1-2.7c0-0.8,0-1.2,0.4-1.9
		L83.9,1.2C83.9,1.2,85,0,86.9,0z"/>
	<path class="st1" d="M177.3,130c1.5,0,2.7-1.1,2.7-2.7c0-0.4,0-0.8-0.4-1.1l-34.9-59.4c-1.1-1.9-3.8-2.7-5.7-1.5
		c-0.8,0.4-1.1,0.8-1.5,1.5l-5.4,9.2l-14.9,25.3l-14.6,24.5c-0.8,1.1-0.4,3.1,0.8,3.8c0.4,0.4,0.8,0.4,1.1,0.4h24.1
		c0.8,0,1.9-0.4,2.3-1.1l1.1-2.3l8.4-13.8l0,0l9.6,16.1c0.4,0.8,1.1,1.1,2.3,1.1H177.3z"/>
</g>
</svg>
