<?xml version="1.0" encoding="utf-8"?>
<!-- Generator: Adobe Illustrator 22.1.0, SVG Export Plug-In . SVG Version: 6.00 Build 0)  -->
<svg version="1.1" id="Layer_1" xmlns="http://www.w3.org/2000/svg" xmlns:xlink="http://www.w3.org/1999/xlink" x="0px" y="0px"
	 viewBox="0 0 40 28" style="enable-background:new 0 0 40 28;" xml:space="preserve">
<style type="text/css">
	.st0{fill:#FFFFFF;}
</style>
<g>
	<path id="Union_2" class="st0" d="M33.2,28c-0.2,0-0.4-0.1-0.6-0.3l-2.5-3.6l-2.2,3.2l-0.3,0.5c-0.1,0.1-0.3,0.2-0.5,0.2h-6.2
		c-0.4,0-0.7-0.3-0.7-0.6c0-0.1,0-0.2,0.1-0.3l3.7-5.6l3.8-5.8l1.4-2.1c0.3-0.5,1-0.6,1.5-0.3c0.1,0.1,0.3,0.2,0.3,0.3l8.9,13.5
		c0.2,0.3,0.1,0.7-0.2,0.8c0,0.1-0.1,0.1-0.3,0.1H33.2z M0.7,28C0.3,28,0,27.7,0,27.4c0-0.1,0-0.2,0.1-0.3L17.7,0.3
		c0.2-0.3,0.6-0.4,0.9-0.2c0.1,0.1,0.2,0.1,0.2,0.2l8.3,12.6c0.1,0.2,0.1,0.5,0,0.6l-3.1,4.7c-0.2,0.3-0.6,0.4-0.9,0.2
		c-0.1-0.1-0.2-0.1-0.2-0.2l-4.7-6.8L7.1,27.7C7,27.9,6.8,28,6.5,28H0.7z"/>
</g>
</svg>
