<?xml version="1.0" encoding="utf-8"?>
<!-- Generator: Adobe Illustrator 22.1.0, SVG Export Plug-In . SVG Version: 6.00 Build 0)  -->
<svg version="1.1" id="Layer_1" xmlns="http://www.w3.org/2000/svg" xmlns:xlink="http://www.w3.org/1999/xlink" x="0px" y="0px"
	 viewBox="0 0 20 20" style="enable-background:new 0 0 20 20;" xml:space="preserve" fill="#000000">
<g>
	<path d="M16,0H4C1.8,0,0,1.8,0,4v12c0,2.2,1.8,4,4,4h12c2.2,0,4-1.8,4-4V4C20,1.8,18.2,0,16,0z M12.3,14.5l-1.8,1.4
		c-0.3,0.2-0.8,0.2-1.1,0l-1.8-1.4C7.1,14.2,6.9,13.6,7,13l1.6-5.9L7.7,6C7.2,5.3,7.6,4,8.4,4h3.3c0.8,0,1.2,1.3,0.6,2l-0.9,1.1
		L13,13C13.1,13.5,12.9,14.1,12.3,14.5z M11.6,5.5L11,6.4H9L8.4,5.5C8.2,5.3,8.2,5.2,8.2,5c0-0.1,0-0.2,0.1-0.3h3.3
		c0.1,0.1,0.1,0.2,0.1,0.3C11.7,5.2,11.7,5.3,11.6,5.5z"/>
</g>
</svg>
