<?xml version="1.0" encoding="utf-8"?>
<!-- Generator: Adobe Illustrator 22.1.0, SVG Export Plug-In . SVG Version: 6.00 Build 0)  -->
<svg version="1.1" id="Layer_1" xmlns="http://www.w3.org/2000/svg" xmlns:xlink="http://www.w3.org/1999/xlink" x="0px" y="0px"
	 viewBox="0 0 64 64" style="enable-background:new 0 0 64 64;" xml:space="preserve">
<g>
	<path d="M48,32c-9,0-16,7-16,16s7,16,16,16s16-7,16-16S57,32,48,32z M58.2,49.6c0,0.3-0.3,0.6-0.6,0.6h-7v7c0,0.3-0.3,0.6-0.6,0.6
		h-3.5c-0.3,0-0.6-0.3-0.6-0.6v-7h-7.4c-0.3,0-0.6-0.3-0.6-0.6v-3.5c0-0.3,0.3-0.6,0.6-0.6h7v-7c0-0.3,0.3-0.6,0.6-0.6h3.5
		c0.3,0,0.6,0.3,0.6,0.6v7h7.4c0.3,0,0.6,0.3,0.6,0.6V49.6z M28.8,49.3H9c-1.3,0-2.2,1-2.2,2.2c0,1.3,1,2.2,2.2,2.2h20.5
		C29.1,52.5,28.8,50.6,28.8,49.3z M9,38.7c-1.3,0-2.2,1-2.2,2.2s1,2.2,2.2,2.2h21.1c0.3-1.9,1.3-3.2,1.9-4.5H9z M44.2,0H25L0,24.6
		v28.5C0,59.2,4.8,64,10.6,64h25.3c-1-0.6-1.6-1.3-2.2-2.2h-23c-4.8,0-8.6-3.8-8.6-8.6V24.6h12.2c1.3,0,2.6-0.3,3.5-0.6
		c4.2-1.3,7.4-5.4,7.4-9.9V2.2h19.2c4.8,0,8.6,3.8,8.6,8.6v19.5c0.6,0.3,1.6,0.3,2.2,0.6V10.6C54.7,4.8,49.9,0,44.2,0z M45.4,17.9
		H33.3c-1.3,0-2.2,1-2.2,2.2s1,2.2,2.2,2.2h12.2c1.3,0,2.2-1,2.2-2.2S46.7,17.9,45.4,17.9z M45.4,28.5H9c-1.3,0-2.2,1-2.2,2.2
		S7.7,33,9,33h28.8c1-0.6,1.9-1,2.9-1.6c1.6-0.6,3.5-1.3,5.4-1.3h1.3C47.4,28.8,46.4,28.5,45.4,28.5z"/>
</g>
</svg>
