<?xml version="1.0" encoding="utf-8"?>
<!-- Generator: Adobe Illustrator 22.1.0, SVG Export Plug-In . SVG Version: 6.00 Build 0)  -->
<svg version="1.1" id="new-project" xmlns="http://www.w3.org/2000/svg" xmlns:xlink="http://www.w3.org/1999/xlink" x="0px" y="0px"
	 viewBox="0 0 120 120" style="enable-background:new 0 0 120 120;" xml:space="preserve">
<g>
	<path fill="none" d="M0,0h120v120H0V0z"/>
	<g>
		<path fill="#E5E5E5" d="M97.7,38.5V108c0,6.6-5.4,12-12,12H12c-6.6,0-12-5.4-12-12V15C0,6.7,6.7,0,15,0h43.6L97.7,38.5z"/>
		<path style="fill:#C9C9C9;" d="M89.4,60c-17.7,0-32,13.7-32,30.6c0,13.9,9.7,25.6,23,29.4h4.5c7.1,0,12.9-5.5,12.9-12.3V61
			C95,60.3,92.3,60,89.4,60z"/>
		<path fill="#08203F" d="M58.6,0H15C6.7,0,0,6.7,0,15v93c0,6.6,5.4,12,12,12h73.7c6.6,0,12-5.4,12-12V38.5L58.6,0z M94.7,107
			c0,5.5-4.5,10-10,10H13c-5.5,0-10-4.5-10-10V17C3,9.3,9.3,3,17,3h40.6v26.4c0,5.5,4.5,10,10,10h27L94.7,107L94.7,107z"/>
		<path fill="#08203F" d="M84.6,79.6c0,1.2-1,2-2.5,2H15.5c-1.5,0-2.5-0.8-2.5-2s1-2,2.5-2h66.6C83.6,77.6,84.6,78.4,84.6,79.6z"/>
		<path fill="#08203F" d="M84.6,96c0,1.2-1,2-2.5,2H15.5C14,98,13,97.2,13,96s1-2,2.5-2h66.6C83.6,94,84.6,94.8,84.6,96z"/>
		<path fill="#08203F" d="M15.5,44.9h66.6c1.5,0,2.5,0.8,2.5,2c0,0.8-1,2-2.5,2H15.5c-1.5,0-2.5-0.8-2.5-2S14,44.9,15.5,44.9z"/>
		<path fill="#08203F" d="M84.6,63.3c0,1.2-1,2-2.5,2H15.5c-1.5,0-2.5-0.8-2.5-2c0-1.2,1-2,2.5-2h66.6C83.6,61.3,84.6,62.1,84.6,63.3z"
			/>
		<path fill="#08203F" d="M13,30.5c0-1.2,0.9-2,2.3-2h29.5c1.4,0,2.3,0.8,2.3,2s-0.9,2-2.3,2H15.3C13.9,32.5,13,31.7,13,30.5z"/>
		<g>
			<path fill="#194173" d="M91.8,65.1c14.7,0,26.7,12,26.7,26.7s-12,26.7-26.7,26.7s-26.7-12-26.7-26.7S77,65.1,91.8,65.1z"/>
			<path fill="#08203F" d="M91.8,120c-15.6,0-28.2-12.7-28.2-28.2s12.7-28.2,28.2-28.2S120,76.2,120,91.8S107.3,120,91.8,120z
				 M91.8,66.6c-13.9,0-25.2,11.3-25.2,25.2S77.9,117,91.8,117S117,105.7,117,91.8S105.7,66.6,91.8,66.6z"/>
			<path fill="#08203F" d="M109.8,91.8c0,1.3-1.1,2.5-2.5,2.5h-13v13.1c0,1.3-1.1,2.5-2.5,2.5s-2.5-1.1-2.5-2.5V94.3h-13
				c-1.3,0-2.5-1.1-2.5-2.5s1.1-2.5,2.5-2.5h13.1v-13c0-1.3,1.1-2.5,2.5-2.5s2.5,1.1,2.5,2.5v13.1h13.1
				C108.7,89.3,109.8,90.5,109.8,91.8z"/>
		</g>
	</g>
</g>
</svg>
