<?xml version="1.0" encoding="utf-8"?>
<!-- Generator: Adobe Illustrator 22.1.0, SVG Export Plug-In . SVG Version: 6.00 Build 0)  -->
<svg version="1.1" id="Layer_1" xmlns="http://www.w3.org/2000/svg" xmlns:xlink="http://www.w3.org/1999/xlink" x="0px" y="0px"
	 viewBox="0 0 120 120" style="enable-background:new 0 0 120 120;" xml:space="preserve">
<style type="text/css">
	.st0{fill:none;}
	.st1{fill:#E5E5E5;}
	.st2{fill:#C9C9C9;}
	.st3{fill:#08203F;}
	.st4{fill:#194173;}
</style>
<g>
	<path class="st0" d="M0,0h120v120H0V0z"/>
	<g>
		<path class="st1" d="M97.7,38.5V108c0,6.6-5.4,12-12,12H12c-6.6,0-12-5.4-12-12V15C0,6.7,6.7,0,15,0h43.6L97.7,38.5z"/>
		<path class="st2" d="M89.8,60c-16.9,0-30.6,13.7-30.6,30.6c0,13.9,9.2,25.6,21.9,29.4h4.3c6.8,0,12.3-5.5,12.3-12.3V61
			C95.2,60.3,92.5,60,89.8,60z"/>
		<path class="st3" d="M58.6,0H15C6.7,0,0,6.7,0,15v93c0,6.6,5.4,12,12,12h73.7c6.6,0,12-5.4,12-12V38.5L58.6,0z M94.7,107
			c0,5.5-4.5,10-10,10H13c-5.5,0-10-4.5-10-10V17C3,9.3,9.3,3,17,3h40.6v26.4c0,5.5,4.5,10,10,10h27V107z"/>
		<path class="st3" d="M84.6,79.6c0,1.2-1,2-2.5,2H15.5c-1.5,0-2.5-0.8-2.5-2c0-1.2,1-2,2.5-2h66.6C83.6,77.6,84.6,78.4,84.6,79.6z"
			/>
		<path class="st3" d="M84.6,96c0,1.2-1,2-2.5,2H15.5C14,98,13,97.2,13,96c0-1.2,1-2,2.5-2h66.6C83.6,94,84.6,94.8,84.6,96z"/>
		<path class="st3" d="M15.5,44.9h66.6c1.5,0,2.5,0.8,2.5,2c0,0.8-1,2-2.5,2H15.5c-1.5,0-2.5-0.8-2.5-2C13,45.7,14,44.9,15.5,44.9z"
			/>
		<path class="st3" d="M84.6,63.3c0,1.2-1,2-2.5,2H15.5c-1.5,0-2.5-0.8-2.5-2c0-1.2,1-2,2.5-2h66.6C83.6,61.3,84.6,62.1,84.6,63.3z"
			/>
		<path class="st3" d="M13,30.5c0-1.2,0.9-2,2.3-2h29.5c1.4,0,2.3,0.8,2.3,2c0,1.2-0.9,2-2.3,2H15.3C13.9,32.5,13,31.7,13,30.5z"/>
		<g>
			<path class="st4" d="M91.8,65.1c14.7,0,26.7,12,26.7,26.7s-12,26.7-26.7,26.7s-26.7-12-26.7-26.7S77,65.1,91.8,65.1z"/>
			<path class="st3" d="M91.8,120c-15.6,0-28.2-12.7-28.2-28.2s12.7-28.2,28.2-28.2S120,76.2,120,91.8S107.3,120,91.8,120z
				 M91.8,66.6c-13.9,0-25.2,11.3-25.2,25.2S77.9,117,91.8,117S117,105.7,117,91.8S105.7,66.6,91.8,66.6z"/>
			<path class="st3" d="M91.8,109c-0.8,0-1.5-0.7-1.5-1.5V76.1c0-0.8,0.7-1.5,1.5-1.5s1.5,0.7,1.5,1.5v31.4
				C93.3,108.3,92.6,109,91.8,109z"/>
			<path class="st3" d="M107.5,93.3H76.1c-0.8,0-1.5-0.7-1.5-1.5s0.7-1.5,1.5-1.5h31.4c0.8,0,1.5,0.7,1.5,1.5S108.3,93.3,107.5,93.3
				z"/>
		</g>
	</g>
</g>
</svg>
