<svg id="Layer_1" data-name="Layer 1" xmlns="http://www.w3.org/2000/svg" viewBox="0 0 550.5 310.5"><defs><style>.cls-1{fill:#5e5375;}.cls-2{fill:#463b5b;}.cls-3{fill:#fff;}.cls-4{fill:#2f2445;}.cls-5{fill:#c9c9c9;}.cls-6{fill:#e5e5e5;}</style></defs><title>new-project-illustration-2</title><g id="Grass_3" data-name="Grass 3"><path class="cls-1" d="M62.82,294.13c-2.63-9.38,1.62-24.88,15.14-27.68a6,6,0,0,1,2.46.25,20.93,20.93,0,0,1,29.4-11.38,31.28,31.28,0,0,1,43.71-9.53V309.5H77.44S65.44,305.88,62.82,294.13Z"/><path class="cls-2" d="M92.41,291.85a9.12,9.12,0,0,1,6.87-15.12,9.35,9.35,0,0,1,3,.49,7.21,7.21,0,0,1,12.33-1.05,1,1,0,0,1-1.63,1.16,5.2,5.2,0,0,0-9.19,1.5,1,1,0,0,1-1.39.6,7.21,7.21,0,0,0-3.1-.7,7.12,7.12,0,0,0-5.36,11.8,1,1,0,0,1-.1,1.41,1,1,0,0,1-.66.25A1,1,0,0,1,92.41,291.85Z"/></g><g id="Brower_bar" data-name="Brower bar"><path class="cls-3" d="M131.19,109.5a10,10,0,0,1,10-10h240a10,10,0,0,1,10,10v200h-260Z"/><path class="cls-4" d="M392.19,310.5h-262v-201a11,11,0,0,1,11-11h240a11,11,0,0,1,11,11Zm-260-2h258v-199a9,9,0,0,0-9-9h-240a9,9,0,0,0-9,9Z"/><path class="cls-4" d="M391.19,118.17h-260v2h260Z"/><g id="Button_bar" data-name="Button bar"><path class="cls-1" d="M153.87,104.5a5,5,0,1,1-5,5A5,5,0,0,1,153.87,104.5Z"/><path class="cls-2" d="M172.51,104.5a5,5,0,1,1-5,5A5,5,0,0,1,172.51,104.5Z"/><path class="cls-4" d="M191.14,104.5a5,5,0,1,1-5,5A5,5,0,0,1,191.14,104.5Z"/></g><g id="Search_bar" data-name="Search bar"><path class="cls-4" d="M368.51,115.5h-40a6,6,0,0,1,0-12h8.59a1,1,0,0,1,0,2h-8.59a4,4,0,0,0,0,8h40a4,4,0,0,0,0-8H342.06a1,1,0,0,1,0-2h26.45a6,6,0,0,1,0,12Z"/><path class="cls-4" d="M313.29,112.78l-1.57-1.45a4.46,4.46,0,0,0,.68-2.35,4.53,4.53,0,1,0-2.08,3.78l1.61,1.49a1,1,0,1,0,1.36-1.47ZM305.4,109a2.5,2.5,0,1,1,4.3,1.73l-.07.05,0,0a2.46,2.46,0,0,1-1.7.68A2.5,2.5,0,0,1,305.4,109Z"/></g><g id="Arrow_bar" data-name="Arrow bar"><path class="cls-4" d="M215.07,113.86a1,1,0,0,1-.71-.29l-3.88-3.88a1,1,0,0,1,0-1.42l3.88-3.88a1,1,0,0,1,1.42,1.42L212.6,109l3.18,3.18a1,1,0,0,1,0,1.41A1,1,0,0,1,215.07,113.86Z"/><path class="cls-4" d="M229.39,113.86a1,1,0,0,1-.71-.29,1,1,0,0,1,0-1.41l3.18-3.18-3.18-3.17a1,1,0,1,1,1.42-1.42l3.88,3.88a1,1,0,0,1,0,1.42l-3.88,3.88A1,1,0,0,1,229.39,113.86Z"/></g></g><g id="Dashed_line" data-name="Dashed line"><path class="cls-4" d="M462.38,188.44l-3,3a1,1,0,0,1-.71.29,1,1,0,0,1-.71-.29,1,1,0,0,1,0-1.42l2.29-2.29L458,185.44a1,1,0,1,1,1.42-1.42l3,3A1,1,0,0,1,462.38,188.44Zm-144.3,31.29,2.3-2.29A1,1,0,0,0,319,216l-3,3a1,1,0,0,0,0,1.42l3,3a1,1,0,0,0,.71.29,1,1,0,0,0,.71-.29,1,1,0,0,0,0-1.42Zm110.59-33h-5a1,1,0,0,0,0,2h5a1,1,0,0,0,0-2Zm-10,0h-5a1,1,0,0,0,0,2h5a1,1,0,0,0,0-2Zm-10,0h-5a1,1,0,0,0,0,2h5a1,1,0,0,0,0-2Zm-15,2h5a1,1,0,0,0,0-2h-5a1,1,0,0,0,0,2Zm66-1a1,1,0,0,0-1-1h-5a1,1,0,0,0,0,2h5A1,1,0,0,0,459.67,187.73Zm-21-1h-5a1,1,0,0,0,0,2h5a1,1,0,0,0,0-2Zm10,0h-5a1,1,0,0,0,0,2h5a1,1,0,0,0,0-2Zm-94,32h-5a1,1,0,0,0,0,2h5a1,1,0,0,0,0-2Zm10,0h-5a1,1,0,0,0,0,2h5a1,1,0,0,0,0-2Zm-30,0h-5a1,1,0,0,0,0,2h5a1,1,0,0,0,0-2Zm40,0h-5a1,1,0,0,0,0,2h5a1,1,0,0,0,0-2Zm-50,0h-5a1,1,0,0,0,0,2h5a1,1,0,0,0,0-2Zm20,0h-5a1,1,0,0,0,0,2h5a1,1,0,0,0,0-2Zm40,0h-5a1,1,0,0,0,0,2h5a1,1,0,0,0,0-2ZM379,190.24a1,1,0,0,0,.58-.19,7,7,0,0,1,4.1-1.32h5a1,1,0,0,0,0-2h-5a9,9,0,0,0-5.27,1.7,1,1,0,0,0,.59,1.81Zm21.94,18.35a1,1,0,0,0,.9.56,1,1,0,0,0,.89-1.45,9.08,9.08,0,0,0-3.88-3.95,1,1,0,0,0-1.35.42,1,1,0,0,0,.42,1.35A7.1,7.1,0,0,1,400.93,208.59Zm1.8,3.43a1,1,0,0,0-1.15.83,6.94,6.94,0,0,1-2,3.83,1,1,0,0,0,.71,1.71,1,1,0,0,0,.7-.3,8.91,8.91,0,0,0,2.52-4.92A1,1,0,0,0,402.73,212Zm-26.34-19.77a1,1,0,0,0-1.26.64,9,9,0,0,0-.05,5.53,1,1,0,0,0,.95.7.79.79,0,0,0,.3-.05,1,1,0,0,0,.65-1.25,7,7,0,0,1-.31-2.09,7.15,7.15,0,0,1,.35-2.21A1,1,0,0,0,376.39,192.25Zm7.13,12.48a1,1,0,0,0,0-2,7,7,0,0,1-4.07-1.4,1,1,0,0,0-1.2,1.6,9,9,0,0,0,5.24,1.8Zm11-1a1,1,0,0,0-1-1h-5a1,1,0,0,0,0,2h5A1,1,0,0,0,394.52,203.73Zm1.27,14.91a6.8,6.8,0,0,1-1.1.09h-5a1,1,0,0,0,0,2h5a9.7,9.7,0,0,0,1.42-.11,1,1,0,0,0-.32-2Z"/></g><g id="Background"><path class="cls-5" d="M32.5,200a2.5,2.5,0,1,1-2.5,2.5A2.5,2.5,0,0,1,32.5,200Z"/><path class="cls-5" d="M144.5,0A2.5,2.5,0,1,1,142,2.5,2.5,2.5,0,0,1,144.5,0Z"/><path class="cls-5" d="M312.5,47a2.5,2.5,0,1,1-2.5,2.5A2.5,2.5,0,0,1,312.5,47Z"/><path class="cls-5" d="M432.5,82a2.5,2.5,0,1,1-2.5,2.5A2.5,2.5,0,0,1,432.5,82Z"/><path class="cls-5" d="M477.5,114.5a.86.86,0,0,1-.86.86h-3.28v3.28a.86.86,0,0,1-1.72,0v-3.28h-3.28a.86.86,0,0,1,0-1.72h3.28v-3.28a.86.86,0,0,1,1.72,0v3.28h3.28A.86.86,0,0,1,477.5,114.5Z"/><path class="cls-5" d="M80,54.5a1.29,1.29,0,0,1-1.29,1.29H73.79v4.92a1.29,1.29,0,1,1-2.58,0V55.79H66.29a1.29,1.29,0,0,1,0-2.58h4.92V48.29a1.29,1.29,0,0,1,2.58,0v4.92h4.92A1.29,1.29,0,0,1,80,54.5Z"/><path class="cls-5" d="M72.08,160.58a.85.85,0,0,1-.86.86H67.94v3.29a.86.86,0,0,1-1.72,0v-3.29H62.94a.86.86,0,1,1,0-1.71h3.28v-3.29a.86.86,0,1,1,1.72,0v3.29h3.28A.85.85,0,0,1,72.08,160.58Z"/><path class="cls-5" d="M237.5,32.5a.86.86,0,0,1-.86.86h-3.28v3.28a.86.86,0,1,1-1.72,0V33.36h-3.28a.86.86,0,0,1,0-1.72h3.28V28.36a.86.86,0,0,1,1.72,0v3.28h3.28A.86.86,0,0,1,237.5,32.5Z"/><path class="cls-5" d="M12.17,107.5a12.14,12.14,0,0,1,11,7,8.12,8.12,0,0,1,3.81-1,7.94,7.94,0,0,1,8,7.89v.08H.17a11.64,11.64,0,0,1-.17-2A12.1,12.1,0,0,1,12.17,107.5Z"/><path class="cls-5" d="M420,51.53a11.64,11.64,0,0,1-.17,2H385v-.08a7.94,7.94,0,0,1,8-7.89,8.12,8.12,0,0,1,3.81.95A12.19,12.19,0,0,1,420,51.53Z"/></g><g id="Grass_1" data-name="Grass 1"><path class="cls-2" d="M479.38,279.07V309.5H391.19V245.79a31.28,31.28,0,0,1,43.71,9.53,20.93,20.93,0,0,1,29.4,11.38,11.73,11.73,0,0,1,2.46-.25A12.62,12.62,0,0,1,479.38,279.07Z"/><path class="cls-1" d="M427.56,285.19a1,1,0,0,1-.66-.25,1,1,0,0,1-.1-1.41,7.12,7.12,0,0,0-5.36-11.8,7.21,7.21,0,0,0-3.1.7,1,1,0,0,1-1.39-.6,5.2,5.2,0,0,0-9.19-1.5,1,1,0,0,1-1.63-1.16,7.21,7.21,0,0,1,12.33,1.05,9.35,9.35,0,0,1,3-.49,9.12,9.12,0,0,1,6.87,15.12A1,1,0,0,1,427.56,285.19Z"/></g><g id="Grass_2" data-name="Grass 2"><path class="cls-4" d="M515.6,301.71a7.79,7.79,0,0,1-7.79,7.79H477.57l1.5-1.36a109.68,109.68,0,0,0,10.1-10.54c11.45-5.27,18.9-4,18.9-4a7.79,7.79,0,0,1,7.52,7.64Z"/><path class="cls-4" d="M419.4,309.5s7.92-21.5,39.34,0Z"/><path class="cls-1" d="M474.07,309.5H451.49c-21-22.88-12.31-33.37-12.31-33.37,1.39-2.25,3.39-3.51,6.12-4.53,0,0,13-5.2,23.34,20.22a96.7,96.7,0,0,1,3.2,9.22c.22.7.42,1.41.63,2.15Q473.29,306.16,474.07,309.5Z"/><path class="cls-4" d="M462.55,309.5c-.38-1.89-4.06-18.26-14.88-25.67a1,1,0,1,1,1.14-1.66c12.12,8.31,15.6,26.38,15.75,27.15a1.1,1.1,0,0,1,0,.18Z"/><path class="cls-1" d="M489.17,297.6a109.68,109.68,0,0,1-10.1,10.54l-1.5,1.36h-3.5c-.25-1.08-.5-2.12-.76-3.14s-.56-2.15-.84-3.17c-.21-.74-.41-1.45-.63-2.15a96.7,96.7,0,0,0-3.2-9.22c17.24-31.5,28-23.25,29-22.36l.08.07a7.34,7.34,0,0,1,2.73,5.73S500.69,283.7,489.17,297.6Z"/><path class="cls-4" d="M489.7,281.45,473,302.84a1,1,0,0,1-.51.35c-.21-.74-.41-1.45-.63-2.15l16.28-20.82a1,1,0,0,1,1.4-.18A1,1,0,0,1,489.7,281.45Z"/><path class="cls-1" d="M502,305l-19.91,4.53h-4.48l1.5-1.36L501.52,303A1,1,0,1,1,502,305Z"/></g><g id="divide_earth" data-name="divide earth"><path class="cls-4" d="M527.13,310.5h-483a1,1,0,1,1,0-2h483a1,1,0,0,1,0,2Z"/><path class="cls-4" d="M37.65,310.5H33.13a1,1,0,1,1,0-2h4.52a1,1,0,0,1,0,2Z"/><path class="cls-4" d="M27.06,310.5H24.77a1,1,0,1,1,0-2h2.29a1,1,0,1,1,0,2Z"/></g><g id="Chat_1" data-name="Chat 1"><path class="cls-5" d="M202.32,175V144.25a7,7,0,0,1,7-7h116a7,7,0,0,1,7,7v16a7,7,0,0,1-7,7H211.2Z"/><path class="cls-5" d="M217.07,147.38h0a2,2,0,0,1,2-2h76a2,2,0,0,1,2,2h0a2,2,0,0,1-2,2h-76A2,2,0,0,1,217.07,147.38Zm2,12.37h96a2,2,0,0,0,2-2h0a2,2,0,0,0-2-2h-96a2,2,0,0,0-2,2h0A2,2,0,0,0,219.07,159.75Z"/></g><g id="Chat_1-2" data-name="Chat 1"><path class="cls-6" d="M206.44,171.37V140.62a7,7,0,0,1,7-7h116a7,7,0,0,1,7,7v16a7,7,0,0,1-7,7H215.31Z"/><path class="cls-1" d="M221.19,143.75h0a2,2,0,0,1,2-2h76a2,2,0,0,1,2,2h0a2,2,0,0,1-2,2h-76A2,2,0,0,1,221.19,143.75Zm2,12.37h96a2,2,0,0,0,2-2h0a2,2,0,0,0-2-2h-96a2,2,0,0,0-2,2h0A2,2,0,0,0,223.19,156.12Z"/></g><g id="Description"><path class="cls-4" d="M202.44,294.33v-51a7,7,0,0,1,7-7h146a7,7,0,0,1,7,7v51a7,7,0,0,1-7,7h-146A7,7,0,0,1,202.44,294.33Z"/><path class="cls-4" d="M308.44,248.77h-52a2,2,0,0,1-2-2h0a2,2,0,0,1,2-2h52a2,2,0,0,1,2,2h0A2,2,0,0,1,308.44,248.77ZM352.92,258h0a1.5,1.5,0,0,0-1.5-1.5h-138A1.5,1.5,0,0,0,212,258h0a1.5,1.5,0,0,0,1.5,1.5h138A1.5,1.5,0,0,0,352.92,258Zm0,11.11h0a1.5,1.5,0,0,0-1.5-1.5h-138a1.5,1.5,0,0,0-1.5,1.5h0a1.5,1.5,0,0,0,1.5,1.5h138A1.5,1.5,0,0,0,352.92,269.11Zm0,11.1h0a1.5,1.5,0,0,0-1.5-1.5h-138a1.5,1.5,0,0,0-1.5,1.5h0a1.5,1.5,0,0,0,1.5,1.5h138A1.5,1.5,0,0,0,352.92,280.21Zm0,11.1h0a1.5,1.5,0,0,0-1.5-1.5h-138a1.5,1.5,0,0,0-1.5,1.5h0a1.5,1.5,0,0,0,1.5,1.5h138A1.5,1.5,0,0,0,352.92,291.31Z"/></g><g id="Description-2" data-name="Description"><path class="cls-2" d="M206.44,290V239a7,7,0,0,1,7-7h146a7,7,0,0,1,7,7v51a7,7,0,0,1-7,7h-146A7,7,0,0,1,206.44,290Z"/><path class="cls-6" d="M312.44,244.44h-52a2,2,0,0,1-2-2h0a2,2,0,0,1,2-2h52a2,2,0,0,1,2,2h0A2,2,0,0,1,312.44,244.44Zm44.48,9.23h0a1.5,1.5,0,0,0-1.5-1.5h-138a1.5,1.5,0,0,0-1.5,1.5h0a1.5,1.5,0,0,0,1.5,1.5h138A1.5,1.5,0,0,0,356.92,253.67Zm0,11.1h0a1.5,1.5,0,0,0-1.5-1.5h-138a1.5,1.5,0,0,0-1.5,1.5h0a1.5,1.5,0,0,0,1.5,1.5h138A1.5,1.5,0,0,0,356.92,264.77Zm0,11.11h0a1.5,1.5,0,0,0-1.5-1.5h-138a1.5,1.5,0,0,0-1.5,1.5h0a1.5,1.5,0,0,0,1.5,1.5h138A1.5,1.5,0,0,0,356.92,275.88Zm0,11.1h0a1.5,1.5,0,0,0-1.5-1.5h-138A1.5,1.5,0,0,0,216,287h0a1.5,1.5,0,0,0,1.5,1.5h138A1.5,1.5,0,0,0,356.92,287Z"/></g><g id="Chat_2" data-name="Chat 2"><path class="cls-2" d="M322.56,207.31H232.44a7,7,0,0,1-7-7v-16a7,7,0,0,1,7-7h92a7,7,0,0,1,7,7v30.75Z"/><path class="cls-2" d="M295.19,189.19h-52a2,2,0,0,1-2-2h0a2,2,0,0,1,2-2h52a2,2,0,0,1,2,2h0A2,2,0,0,1,295.19,189.19Zm22,8.37h0a2,2,0,0,0-2-2h-72a2,2,0,0,0-2,2h0a2,2,0,0,0,2,2h72A2,2,0,0,0,317.19,197.56Z"/></g><g id="Chat_2-2" data-name="Chat 2"><path class="cls-1" d="M326.56,203.63H236.44a7,7,0,0,1-7-7v-16a7,7,0,0,1,7-7h92a7,7,0,0,1,7,7v30.75Z"/><path class="cls-4" d="M299.19,185.5h-52a2,2,0,0,1-2-2h0a2,2,0,0,1,2-2h52a2,2,0,0,1,2,2h0A2,2,0,0,1,299.19,185.5Zm22,8.38h0a2,2,0,0,0-2-2h-72a2,2,0,0,0-2,2h0a2,2,0,0,0,2,2h72A2,2,0,0,0,321.19,193.88Z"/></g><g id="Calender"><path class="cls-2" d="M76.44,278.31v-76a7,7,0,0,1,7-7h86a7,7,0,0,1,7,7v76a7,7,0,0,1-7,7h-86A7,7,0,0,1,76.44,278.31Z"/><path class="cls-4" d="M83.44,195.31h86a7,7,0,0,1,7,7v18h-100v-18A7,7,0,0,1,83.44,195.31Z"/><path class="cls-2" d="M147.5,206.19v-20a2.5,2.5,0,0,1,2.5-2.5h0a2.5,2.5,0,0,1,2.5,2.5v20a2.5,2.5,0,0,1-2.5,2.5h0A2.5,2.5,0,0,1,147.5,206.19Zm-47.13,0v-20a2.5,2.5,0,0,1,2.5-2.5h0a2.49,2.49,0,0,1,2.49,2.5v20a2.49,2.49,0,0,1-2.49,2.5h0A2.5,2.5,0,0,1,100.37,206.19Z"/><path class="cls-5" d="M83.94,239V228a2,2,0,0,1,2-2h11a2,2,0,0,1,2,2v11a2,2,0,0,1-2,2h-11A2,2,0,0,1,83.94,239Zm25.33,2h11a2,2,0,0,0,2-2V228a2,2,0,0,0-2-2h-11a2,2,0,0,0-2,2v11A2,2,0,0,0,109.27,241Zm23.33,0h11a2,2,0,0,0,2-2V228a2,2,0,0,0-2-2h-11a2,2,0,0,0-2,2v11A2,2,0,0,0,132.6,241Zm23.34,0h11a2,2,0,0,0,2-2V228a2,2,0,0,0-2-2h-11a2,2,0,0,0-2,2v11A2,2,0,0,0,155.94,241Zm-72,17.17v-11a2,2,0,0,1,2-2h11a2,2,0,0,1,2,2v11a2,2,0,0,1-2,2h-11A2,2,0,0,1,83.94,258.17Zm25.33,2h11a2,2,0,0,0,2-2v-11a2,2,0,0,0-2-2h-11a2,2,0,0,0-2,2v11A2,2,0,0,0,109.27,260.17Zm23.33,0h11a2,2,0,0,0,2-2v-11a2,2,0,0,0-2-2h-11a2,2,0,0,0-2,2v11A2,2,0,0,0,132.6,260.17Zm23.34,0h11a2,2,0,0,0,2-2v-11a2,2,0,0,0-2-2h-11a2,2,0,0,0-2,2v11A2,2,0,0,0,155.94,260.17Zm-72,17.16v-11a2,2,0,0,1,2-2h11a2,2,0,0,1,2,2v11a2,2,0,0,1-2,2h-11A2,2,0,0,1,83.94,277.33Zm25.33,2h11a2,2,0,0,0,2-2v-11a2,2,0,0,0-2-2h-11a2,2,0,0,0-2,2v11A2,2,0,0,0,109.27,279.33Zm23.33,0h11a2,2,0,0,0,2-2v-11a2,2,0,0,0-2-2h-11a2,2,0,0,0-2,2v11A2,2,0,0,0,132.6,279.33Zm23.34,0h11a2,2,0,0,0,2-2v-11a2,2,0,0,0-2-2h-11a2,2,0,0,0-2,2v11A2,2,0,0,0,155.94,279.33Z"/></g><g id="Attach_tick" data-name="Attach tick"><path class="cls-5" d="M174.19,181.23a22.5,22.5,0,1,1-22.5,22.5A22.5,22.5,0,0,1,174.19,181.23Z"/><path class="cls-2" d="M174.19,213a2.51,2.51,0,0,1-1.72-.68l-10-9.45a2.5,2.5,0,1,1,3.43-3.63l8.36,7.89,24.92-21.7a2.5,2.5,0,1,1,3.29,3.77L175.83,212.4A2.49,2.49,0,0,1,174.19,213Z"/></g><g id="Attach_plus" data-name="Attach plus"><path class="cls-5" d="M126.44,74.5a40,40,0,1,1-40,40A40,40,0,0,1,126.44,74.5Z"/><path class="cls-6" d="M126.44,80.21A34.29,34.29,0,1,1,92.15,114.5,34.29,34.29,0,0,1,126.44,80.21Z"/><path class="cls-1" d="M146.44,114.5a3.44,3.44,0,0,1-3.43,3.43H129.87v13.14a3.43,3.43,0,0,1-6.86,0V117.93H109.87a3.43,3.43,0,0,1,0-6.86H123V97.93a3.43,3.43,0,0,1,6.86,0v13.14H143A3.44,3.44,0,0,1,146.44,114.5Z"/></g><g id="Pencil"><path class="cls-1" d="M413.44,136.18l-10-12.13,5.92-4.89a7.86,7.86,0,0,1,11.07,1.06h0a7.86,7.86,0,0,1-1,11.07Z"/><path class="cls-2" d="M399.43,127.34l10,12.13-43.87,36.25-10-12.13Z"/><path class="cls-4" d="M403.28,123.89l10.28,12.44a.71.71,0,0,1-.12,1l-2.87,2.37a.71.71,0,0,1-1-.06L399.3,127.18a.7.7,0,0,1,.12-1l2.88-2.37A.68.68,0,0,1,403.28,123.89Z"/><path class="cls-5" d="M365.58,175.72l-11.8,3.78-4.16-5,5.93-10.88Z"/><path class="cls-4" d="M353.78,179.5l-5.29,1.57a1.2,1.2,0,0,1-1.41-1.71l2.54-4.89Z"/><path class="cls-4" d="M400.8,129l1.27,1.54L358.2,166.79l-1.28-1.54Zm-40.87,39.89,1.27,1.54,43.88-36.25-1.28-1.55Zm3,3.63,1.28,1.55,43.87-36.26-1.27-1.54Z"/></g><g id="Manager_Avatar" data-name="Manager Avatar"><path class="cls-1" d="M480.5,205.66c0-22.09,15.67-40,35-40s35,17.91,35,40Z"/><path class="cls-4" d="M521.9,198.14l-6.4,5.7-6.4-5.7,3.94-20.8h.29a1.21,1.21,0,0,1-1.14-.77l-1.65-4.13a1.23,1.23,0,0,1,1.14-1.68h7.64a1.22,1.22,0,0,1,1.16,1.62l-1.41,4.13a1.23,1.23,0,0,1-1.16.83H518Z"/><path class="cls-5" d="M533,154.84a17.49,17.49,0,0,1-34,5.74,25.09,25.09,0,0,0,20.9-22.67A17.5,17.5,0,0,1,533,154.84Z"/><path class="cls-4" d="M499,160.58a17.45,17.45,0,0,1,16.51-23.24,17.67,17.67,0,0,1,4.39.57A25.09,25.09,0,0,1,499,160.58Z"/></g></svg>