<?xml version="1.0" encoding="utf-8"?>
<!-- Generator: Adobe Illustrator 22.1.0, SVG Export Plug-In . SVG Version: 6.00 Build 0)  -->
<svg version="1.1" id="Layer_1" xmlns="http://www.w3.org/2000/svg" xmlns:xlink="http://www.w3.org/1999/xlink" x="0px" y="0px"
	 viewBox="0 0 120 120" style="enable-background:new 0 0 120 120;" xml:space="preserve">
<style type="text/css">
	.st0{fill:none;}
	.st1{fill:#194173;}
	.st2{fill:#08203F;}
	.st3{fill:#0B2B53;}
	.st4{fill:#E5E5E5;}
</style>
<g>
	<path class="st0" d="M0,0h120v120H0V0z"/>
	<g>
		<path class="st1" d="M78.5,119.1c-20.8,0-38.1-15.6-40.3-36.2C38.1,81.5,38,80,38,78.5c0-0.5,0-0.9,0-1.4
			c0.7-21.2,17.9-38.4,39.2-39.1c0.4,0,0.9,0,1.3,0c1.8,0,3.5,0.1,5.2,0.3c20.1,2.6,35.3,19.8,35.3,40.2c0,11.1-4.6,21.7-12.6,29.4
			l9,5l0.1,0.1c1.1,1,1.4,2.4,0.9,3.8c-0.5,1.4-1.7,2.3-3.2,2.3h0H78.5z"/>
		<path class="st2" d="M78.5,39c1.7,0,3.4,0.1,5.1,0.3c19.5,2.5,34.5,19.1,34.5,39.2c0,11.7-5.1,22.3-13.3,29.6l10.1,5.5
			c1.7,1.6,0.7,4.4-1.7,4.5H78.5c-20.5,0-37.3-15.5-39.4-35.4C39,81.4,39,80,39,78.5c0-0.4,0-0.9,0-1.3C39.7,56.4,56.4,39.7,77.3,39
			C77.7,39,78.1,39,78.5,39 M78.5,37.1c-0.4,0-0.9,0-1.4,0c-21.7,0.7-39.3,18.3-40,40c0,0.5,0,1,0,1.4c0,1.5,0.1,3,0.2,4.4
			c2.2,21.1,19.9,37,41.2,37h34.7c1.9-0.1,3.5-1.2,4.1-2.9c0.6-1.7,0.2-3.6-1.2-4.8l-0.2-0.2l-0.2-0.1l-7.8-4.3
			c7.6-7.7,12-18.2,12-29.1c0-20.8-15.5-38.5-36.1-41.1C82.2,37.2,80.4,37.1,78.5,37.1L78.5,37.1z"/>
		<path class="st3" d="M83.8,43.2c0,21.9-17.7,39.6-39.6,39.6h-5.1C39,81.4,39,80,39,78.5c0-0.4,0-0.9,0-1.3
			C59.8,76.6,76.6,59.8,77.3,39c0.4,0,0.9,0,1.3,0c1.7,0,3.4,0.1,5.1,0.3C83.8,40.6,83.8,41.9,83.8,43.2z"/>
		<path class="st2" d="M66.7,80.6c0,2.8-2.2,5-5,5c-2.8,0-5-2.2-5-5c0-2.8,2.2-5,5-5C64.4,75.6,66.7,77.9,66.7,80.6z"/>
		<path class="st2" d="M85.1,80.6c0,2.8-2.2,5-5,5c-2.8,0-5-2.2-5-5c0-2.8,2.2-5,5-5C82.8,75.6,85.1,77.9,85.1,80.6z"/>
		<path class="st2" d="M103.5,80.6c0,2.8-2.2,5-5,5c-2.8,0-5-2.2-5-5c0-2.8,2.2-5,5-5C101.2,75.6,103.5,77.9,103.5,80.6z"/>
	</g>
	<g>
		<path class="st4" d="M80.1,40.5c0,21.9-17.7,39.6-39.6,39.6H5.8c-2.3-0.1-3.4-2.9-1.7-4.5l10.1-5.5C6.1,62.8,0.9,52.3,0.9,40.5
			c0-21.9,17.7-39.6,39.6-39.6C51.7,0.9,61.8,5.6,69,13C75.9,20.1,80.1,29.8,80.1,40.5z"/>
		<path class="st2" d="M40.5,81H5.8c-1.5-0.1-2.7-1-3.2-2.3c-0.5-1.4-0.1-2.8,0.9-3.8l0.2-0.1l8.9-4.9C4.6,62.2,0,51.6,0,40.5
			C0,18.2,18.2,0,40.5,0C51.6,0,62,4.4,69.6,12.3C77,19.9,81,29.9,81,40.5C81,62.9,62.9,81,40.5,81z M4.7,76.4
			c-0.4,0.5-0.6,1.1-0.4,1.7c0.2,0.7,0.8,1.1,1.5,1.1h34.7c21.3,0,38.6-17.3,38.6-38.6c0-10.1-3.9-19.6-10.9-26.9
			C61,6.1,51.1,1.9,40.5,1.9C19.2,1.9,1.9,19.2,1.9,40.5c0,11,4.7,21.5,12.9,28.9l1,0.9L4.7,76.4z"/>
		<path class="st2" d="M55.3,35.3c1.1,0,2.1,0.9,2.1,2.1s-0.9,2.1-2.1,2.1s-2.1-0.9-2.1-2.1S54.1,35.3,55.3,35.3L55.3,35.3z
			 M25.8,35.3c1.1,0,2.1,0.9,2.1,2.1s-0.9,2.1-2.1,2.1s-2.1-0.9-2.1-2.1c0-0.6,0.2-1.1,0.6-1.4C24.7,35.4,25.2,35.3,25.8,35.3z
			 M46.1,50.5C46.1,50.5,46.1,50.5,46.1,50.5c0.1,0.4-0.1,0.7-0.5,0.8c-0.3,0.1-0.7-0.1-0.8-0.5c-0.3-0.8-2-1.7-4.4-1.7
			c-2.4,0-4.1,0.9-4.4,1.7c0,0,0,0,0,0c-0.1,0.4-0.5,0.5-0.8,0.4c-0.4-0.1-0.5-0.5-0.4-0.8c0.5-1.5,2.8-2.6,5.7-2.6
			C43.4,47.9,45.8,49,46.1,50.5z"/>
	</g>
</g>
</svg>
