<?xml version="1.0" encoding="utf-8"?>
<!-- Generator: Adobe Illustrator 22.1.0, SVG Export Plug-In . SVG Version: 6.00 Build 0)  -->
<svg version="1.1" id="Layer_1" xmlns="http://www.w3.org/2000/svg" xmlns:xlink="http://www.w3.org/1999/xlink" x="0px" y="0px"
	 viewBox="0 0 120 120" style="enable-background:new 0 0 120 120;" xml:space="preserve">
<style type="text/css">
	.st0{fill:none;}
	.st1{fill:#194173;}
	.st2{fill:#0B2B53;}
	.st3{fill:#08203F;}
	.st4{fill:#E5E5E5;}
</style>
<g>
	<path class="st0" d="M0,0h120v120H0V0z"/>
	<g>
		<path class="st1" d="M114.9,112.3l-9-5c8-7.7,12.6-18.3,12.6-29.4c0-19.6-14-36.2-32.8-39.8c-0.8-0.2-1.6-0.3-2.5-0.4
			c-1.7-0.2-3.4-0.3-5.2-0.3h-1.3c-21.3,0.7-38.5,17.9-39.2,39.1v1.4c0,1.5,0.1,3,0.2,4.4c0.1,0.9,0.2,1.8,0.4,2.7
			c3.4,19.3,20,33.5,39.9,33.5h34.7c1.5,0,2.7-0.9,3.2-2.3c0.5-1.4,0.2-2.8-0.9-3.8L114.9,112.3z"/>
		<path class="st2" d="M85.7,38.1c-0.8-0.2-1.6-0.3-2.5-0.4c-1.7-0.2-3.4-0.3-5.2-0.3h-1.3c-21.3,0.7-38.5,17.9-39.2,39.1v1.4
			c0,1.5,0.1,3,0.2,4.4c0.1,0.9,0.2,1.8,0.4,2.7h8.6c21.9,0,39.6-17.7,39.6-39.6C86.3,42.9,86.1,40.5,85.7,38.1z"/>
		<path class="st3" d="M112.7,120H78c-21.5,0-39.5-16.1-41.8-37.5c-0.1-1.6-0.2-3-0.2-4.6v-1.4c0.7-22.1,18.6-39.9,40.7-40.6l1.3,0
			c1.8,0,3.6,0.1,5.4,0.3c20.9,2.7,36.6,20.6,36.6,41.7c0,10.7-4.2,21.2-11.6,29l7.5,4.1l0.2,0.2c1.5,1.3,2,3.4,1.3,5.4
			C116.6,118.7,114.8,120,112.7,120z M76.7,38.9c-20.4,0.7-37,17.2-37.7,37.6l0,1.4c0,1.4,0.1,2.8,0.2,4.3C41.3,102,58,117,78,117
			h34.7c0.8,0,1.5-0.5,1.8-1.3c0.2-0.6,0.3-1.5-0.5-2.2l-10.6-5.9l1.5-1.4c7.7-7.4,12.1-17.7,12.1-28.3c0-19.6-14.6-36.2-34-38.7
			c-1.6-0.2-3.3-0.3-5-0.3H76.7z"/>
		<path class="st3" d="M66.2,80c0,2.8-2.2,5-5,5c-2.8,0-5-2.2-5-5s2.2-5,5-5C63.9,75,66.2,77.3,66.2,80z"/>
		<path class="st3" d="M84.6,80c0,2.8-2.2,5-5,5s-5-2.2-5-5s2.2-5,5-5C82.3,75,84.6,77.3,84.6,80z"/>
		<path class="st3" d="M103,80c0,2.8-2.2,5-5,5s-5-2.2-5-5s2.2-5,5-5C100.7,75,103,77.3,103,80z"/>
	</g>
	<g>
		<path class="st4" d="M80.7,41.1C80.7,63,63,80.7,41.1,80.7H6.4c-2.3-0.1-3.4-2.9-1.7-4.5l10.1-5.5C6.7,63.4,1.5,52.9,1.5,41.1
			c0-21.9,17.7-39.6,39.6-39.6c11.2,0,21.3,4.7,28.5,12.1C76.5,20.7,80.7,30.4,80.7,41.1z"/>
		<path class="st3" d="M41.1,82.2H6.4c-1.7-0.1-3.2-1.1-3.8-2.7c-0.6-1.6-0.2-3.3,1-4.4L4,74.9l8.3-4.5C4.4,62.6,0,52,0,41.1
			C0,18.4,18.4,0,41.1,0c11.2,0,21.7,4.5,29.6,12.6c7.4,7.6,11.5,17.8,11.5,28.5C82.2,63.8,63.8,82.2,41.1,82.2z M5.6,77.4
			c-0.4,0.4-0.2,0.9-0.2,1.1c0.1,0.2,0.3,0.7,1,0.7l34.6,0c21,0,38.1-17.1,38.1-38.1c0-10-3.8-19.4-10.7-26.5
			C61.2,7.1,51.5,3,41.1,3C20.1,3,3,20.1,3,41.1c0,10.8,4.7,21.2,12.8,28.5l1.6,1.4L5.6,77.4z"/>
		<path class="st3" d="M59.3,34c1.4,0,2.6,1.1,2.6,2.6c0,1.5-1.1,2.6-2.6,2.6c-1.5,0-2.6-1.1-2.6-2.6C56.7,35.1,57.8,34,59.3,34
			L59.3,34z M22.9,34c1.4,0,2.6,1.1,2.6,2.6c0,1.5-1.1,2.6-2.6,2.6c-1.5,0-2.6-1.1-2.6-2.6c0-0.7,0.2-1.4,0.7-1.7
			C21.6,34.2,22.2,34,22.9,34z M48,52.8L48,52.8c0.1,0.5-0.1,0.9-0.6,1c-0.4,0.1-0.9-0.1-1-0.6c-0.4-1-2.5-2.1-5.4-2.1
			c-3,0-5.1,1.1-5.4,2.1l0,0c-0.1,0.5-0.6,0.6-1,0.5c-0.5-0.1-0.6-0.6-0.5-1c0.6-1.8,3.5-3.2,7-3.2C44.6,49.6,47.6,50.9,48,52.8z"/>
	</g>
</g>
</svg>
