<?xml version="1.0" encoding="utf-8"?>
<!-- Generator: Adobe Illustrator 22.1.0, SVG Export Plug-In . SVG Version: 6.00 Build 0)  -->
<svg version="1.1" id="Layer_1" xmlns="http://www.w3.org/2000/svg" xmlns:xlink="http://www.w3.org/1999/xlink" x="0px" y="0px"
	 viewBox="0 0 80 67" style="enable-background:new 0 0 80 67;" xml:space="preserve">
<style type="text/css">
	.st0{fill:#232323;}
</style>
<path class="st0" d="M80,58.1V27.8c0.1-0.9-0.6-1.7-1.6-1.8c-0.1,0-0.1,0-0.2,0h-29V1.8c0.1-0.9-0.6-1.7-1.6-1.8c-0.1,0-0.1,0-0.2,0
	H1.8C0.8,0,0.1,0.7,0,1.6c0,0.1,0,0.1,0,0.2v39c-0.1,0.9,0.6,1.7,1.6,1.8c0.1,0,0.1,0,0.2,0h6.7l7,7.1l7-7.1h8.3v15.6
	c-0.1,0.9,0.6,1.7,1.6,1.8c0.1,0,0.1,0,0.2,0h25.1l7,7.1l7-7.1h6.5c0.9,0.1,1.7-0.7,1.8-1.6C80,58.3,80,58.2,80,58.1z M21.1,39
	L20,40.1l-4.6,4.6l-4.6-4.6L9.8,39H3.5V3.5h42.2v22.5H32.5c-0.9-0.1-1.7,0.7-1.8,1.6c0,0.1,0,0.1,0,0.2V39H21.1z M45.7,29.6V39H34.3
	v-9.4H45.7z M76.5,56.4h-6.2l-1.1,1.1L64.7,62l-4.6-4.6l-1.1-1.1H34.3V42.5h13.2c0.9,0.1,1.7-0.7,1.8-1.6c0-0.1,0-0.1,0-0.2V29.6
	h27.3L76.5,56.4z"/>
</svg>
