<?xml version="1.0" encoding="utf-8"?>
<!-- Generator: Adobe Illustrator 22.1.0, SVG Export Plug-In . SVG Version: 6.00 Build 0)  -->
<svg version="1.1" id="Layer_1" xmlns="http://www.w3.org/2000/svg" xmlns:xlink="http://www.w3.org/1999/xlink" x="0px" y="0px"
	 viewBox="0 0 15 15" style="enable-background:new 0 0 15 15;" xml:space="preserve" fill="#000000">
<g>
	<path d="M7.5,1.5c3.3,0,6,2.7,6,6s-2.7,6-6,6s-6-2.7-6-6S4.2,1.5,7.5,1.5 M7.5,0C3.4,0,0,3.4,0,7.5S3.4,15,7.5,15S15,11.6,15,7.5
		S11.6,0,7.5,0z M6.8,9.3v-6c0-0.4,0.3-0.8,0.7-0.8l0,0c0.4,0,0.8,0.3,0.8,0.8v6c0,0.4-0.3,0.8-0.8,0.8l0,0C7.1,10,6.8,9.7,6.8,9.3z
		 M7.6,10.8c0.4,0,0.8,0.3,0.8,0.8c0,0.4-0.3,0.8-0.8,0.8S6.8,12,6.8,11.6C6.8,11.1,7.1,10.8,7.6,10.8z"/>
</g>
</svg>
