<?xml version="1.0" encoding="utf-8"?>
<!-- Generator: Adobe Illustrator 22.1.0, SVG Export Plug-In . SVG Version: 6.00 Build 0)  -->
<svg version="1.1" id="Layer_1" xmlns="http://www.w3.org/2000/svg" xmlns:xlink="http://www.w3.org/1999/xlink" x="0px" y="0px"
	 viewBox="0 0 20 24" style="enable-background:new 0 0 20 24;" xml:space="preserve">
<g>
	<path id="NotificationIcon" d="M15.4,18H4.8v-7.8c0-1.4,0.6-2.8,1.6-3.8S8.7,4.9,10.1,5c1.4,0,2.7,0.5,3.7,1.5s1.6,2.4,1.6,3.8
		L15.4,18L15.4,18z M17.8,16.8v-6.6c0-3.6-2.4-6.7-5.9-7.6V1.9c0.1-1-0.7-1.8-1.7-1.9S8.4,0.7,8.3,1.7c0,0.1,0,0.1,0,0.2v0.8
		c-3.5,0.9-5.9,4-5.9,7.6v6.6L0,19.2v1.2h20v-1.2L17.8,16.8z M10.1,24c0.6,0,1.2-0.2,1.7-0.7s0.7-1.1,0.7-1.7H7.7
		c0,0.6,0.3,1.3,0.7,1.7C8.9,23.8,9.5,24,10.1,24z"/>
</g>
</svg>
