<?xml version="1.0" encoding="utf-8"?>
<!-- Generator: Adobe Illustrator 22.1.0, SVG Export Plug-In . SVG Version: 6.00 Build 0)  -->
<svg version="1.1" id="Layer_1" xmlns="http://www.w3.org/2000/svg" xmlns:xlink="http://www.w3.org/1999/xlink" x="0px" y="0px"
	 viewBox="0 0 17 20" style="enable-background:new 0 0 17 20;" xml:space="preserve">
<g>
	<path d="M6.1,17.2h4.9v0.4c0,0.6-0.2,1.2-0.7,1.7C9.8,19.8,9.2,20,8.5,20c-0.7,0-1.3-0.2-1.7-0.7c-0.5-0.6-0.7-1.1-0.7-1.7V17.2z
		 M17,15.7v1H0v-1l2-2V8.3c0-2.9,2-5.4,5-6.1l0,0V1.4c0-0.4,0.2-0.8,0.5-1C7.8,0.1,8.2,0,8.6,0c0.3,0,0.7,0.2,1,0.4
		C9.9,0.8,10,1.1,10,1.5l0,0.7c2.9,0.7,5,3.2,5,6.1v5.4L17,15.7z M13,14.7V8.3c0-1.2-0.5-2.3-1.3-3.2c-0.8-0.8-2-1.2-3.2-1.2
		C7.4,3.9,6.2,4.3,5.3,5.2C4.4,6.1,4,7.2,4,8.3v6.4H13z"/>
</g>
</svg>
