<svg xmlns="http://www.w3.org/2000/svg" width="96" height="80" viewBox="0 0 96 80">
  <path id="Path_919" data-name="Path 919" d="M110.721,108.256c-1.621.781-3.567-.39-4.8-2.407-19.195-30.836-64.717-30.836-83.912,0a4.492,4.492,0,0,1-4.8,2.407c-1.621-.781-1.621-3.188-.389-5.2,21.594-34.479,72.694-34.479,94.288,0C112.278,105,112.278,107.866,110.721,108.256ZM42.372,49.708A21.6,21.6,0,1,1,63.967,70.98,21.4,21.4,0,0,1,42.372,49.708Zm6.42,0A15.174,15.174,0,1,0,63.967,34.485,15.218,15.218,0,0,0,48.792,49.708Z" transform="translate(-15.942 -28.5)" fill="#c9c9c9"/>
</svg>
