<svg xmlns="http://www.w3.org/2000/svg" width="113.023" height="93.932" viewBox="0 0 113.023 93.932">
  <path id="Path_919" data-name="Path 919" d="M127.528,122.145c-1.909.917-4.2-.458-5.65-2.826-22.6-36.205-76.193-36.205-98.792,0a5.293,5.293,0,0,1-5.65,2.826c-1.909-.917-1.909-3.743-.458-6.111,25.423-40.483,85.584-40.483,111.007,0C129.36,118.326,129.36,121.687,127.528,122.145ZM47.059,53.4A25.164,25.164,0,0,1,72.483,28.5c14.124,0,25.423,11.3,25.423,24.9a25.427,25.427,0,0,1-50.847,0Zm7.558,0A17.865,17.865,0,1,0,72.483,35.527,17.892,17.892,0,0,0,54.618,53.4Z" transform="translate(-15.942 -28.5)" fill="#c9c9c9"/>
</svg>
