<?xml version="1.0" encoding="utf-8"?>
<!-- Generator: Adobe Illustrator 22.1.0, SVG Export Plug-In . SVG Version: 6.00 Build 0)  -->
<svg version="1.1" id="Layer_1" xmlns="http://www.w3.org/2000/svg" xmlns:xlink="http://www.w3.org/1999/xlink" x="0px" y="0px"
	 viewBox="0 0 14 14" style="enable-background:new 0 0 14 14;" xml:space="preserve" fill="#000000">
<g>
	<path id="radio-button-maestro" transform="translate(-1250 -151)" d="M1257,165c-3.9,0-7-3.1-7-7c0-3.9,3.1-7,7-7c3.9,0,7,3.1,7,7
		C1264,161.9,1260.9,165,1257,165z M1257,153c-2.8,0-5,2.2-5,5s2.2,5,5,5s5-2.2,5-5S1259.8,153,1257,153z M1257,155c1.7,0,3,1.3,3,3
		s-1.3,3-3,3s-3-1.3-3-3S1255.3,155,1257,155z"/>
</g>
</svg>
