<?xml version="1.0" encoding="utf-8"?>
<!-- Generator: Adobe Illustrator 22.1.0, SVG Export Plug-In . SVG Version: 6.00 Build 0)  -->
<svg version="1.1" id="Layer_1" xmlns="http://www.w3.org/2000/svg" xmlns:xlink="http://www.w3.org/1999/xlink" x="0px" y="0px"
	 viewBox="0 0 30 30" style="enable-background:new 0 0 30 30;" xml:space="preserve">
<style type="text/css">
	.st0{fill:none;}
</style>
<g>
	<path class="st0" d="M0,0h30v30H0V0z"/>
	<path d="M22.1,7.9C20.2,6.1,17.8,5,15,5C9.5,5,5,9.5,5,15s4.5,10,10,10c4.7,0,8.6-3.2,9.7-7.5h-2.6c-1,2.9-3.8,5-7.1,5
		c-4.1,0-7.5-3.4-7.5-7.5s3.4-7.5,7.5-7.5c2.1,0,3.9,0.9,5.3,2.2l-4,4H25V5L22.1,7.9z"/>
</g>
</svg>
