<?xml version="1.0" encoding="utf-8"?>
<!-- Generator: Adobe Illustrator 22.1.0, SVG Export Plug-In . SVG Version: 6.00 Build 0)  -->
<svg version="1.1" id="Layer_1" focusable="false" xmlns="http://www.w3.org/2000/svg" xmlns:xlink="http://www.w3.org/1999/xlink"
	 x="0px" y="0px" viewBox="0 0 16 16" style="enable-background:new 0 0 16 16;" xml:space="preserve">
<path d="M14.5,10h1.2c-0.9,3.5-4.1,6-7.8,6c-2.1,0-4-0.8-5.5-2.2l-0.6-0.6l-0.6,0.6L0,15l0-4.8l4.8,0l-1.5,1.5l-0.6,0.6L3.4,13
	c1.3,1.2,2.9,1.8,4.7,1.8C11,14.8,13.7,12.8,14.5,10z M14.1,2.8l-0.6-0.6C12,0.8,10.1,0,8,0C4.3,0,1.1,2.5,0.2,6h1.2
	C2.3,3.2,5,1.2,8,1.2c1.7,0,3.4,0.7,4.7,1.8l0.6,0.6l-0.6,0.6l-1.5,1.5l4.8,0L16,1l-1.3,1.3L14.1,2.8z"/>
</svg>
