<?xml version="1.0" encoding="utf-8"?>
<!-- Generator: Adobe Illustrator 22.1.0, SVG Export Plug-In . SVG Version: 6.00 Build 0)  -->
<svg version="1.1" id="Layer_1" xmlns="http://www.w3.org/2000/svg" xmlns:xlink="http://www.w3.org/1999/xlink" x="0px" y="0px"
	 viewBox="0 0 20 20" style="enable-background:new 0 0 20 20;" xml:space="preserve">
<style type="text/css">
	.st0{fill:#232323;}
	.st1{fill:#FFFFFF;}
</style>
<g>
	<path class="st0" d="M4,0h12c2.2,0,4,1.8,4,4v12c0,2.2-1.8,4-4,4H4c-2.2,0-4-1.8-4-4V4C0,1.8,1.8,0,4,0z"/>
	<path id="ResourceIconDevice" class="st1" d="M15.2,5H4.8C4.4,5,4,5.3,4,5.8v6.7c0,0.4,0.4,0.8,0.8,0.8h3.4v0.4
		c0,0.4-0.3,0.7-0.7,0.7l0,0H6.7c-0.2,0-0.4,0.2-0.4,0.4s0.2,0.4,0.4,0.4h6.5c0.2,0,0.4-0.2,0.4-0.4s-0.2-0.4-0.4-0.4h-0.8
		c-0.4,0-0.7-0.3-0.7-0.7l0,0v-0.4h3.4c0.4,0,0.8-0.3,0.8-0.8l0,0V5.8C16,5.3,15.6,5,15.2,5z M11.2,14.2H8.9C9,14,9.1,13.8,9,13.5
		v-0.4h2v0.4C11,13.8,11,14,11.2,14.2L11.2,14.2z M15.2,12.4H4.8v-1.2h10.4V12.4z M15.2,10.4H4.7V5.7h10.4L15.2,10.4z M10,11.4
		c0.2,0,0.4,0.2,0.4,0.4s-0.2,0.4-0.4,0.4c-0.2,0-0.4-0.2-0.4-0.4l0,0C9.6,11.6,9.8,11.5,10,11.4z M10.6,6.8c-0.1-0.1-0.3-0.1-0.4,0
		l-2,2C8.1,8.9,8.1,9.1,8.3,9.2c0.1,0.1,0.2,0.1,0.3,0l2-2C10.7,7.1,10.7,6.9,10.6,6.8z M11.7,7.9c-0.1-0.1-0.3-0.1-0.4,0l-0.8,0.8
		c-0.1,0.1-0.1,0.3,0,0.4c0.1,0.1,0.3,0.1,0.4,0l0.8-0.8C11.9,8.2,11.9,8,11.7,7.9z"/>
</g>
</svg>
