<?xml version="1.0" encoding="utf-8"?>
<!-- Generator: Adobe Illustrator 22.1.0, SVG Export Plug-In . SVG Version: 6.00 Build 0)  -->
<svg version="1.1" id="Layer_1" xmlns="http://www.w3.org/2000/svg" xmlns:xlink="http://www.w3.org/1999/xlink" x="0px" y="0px"
	 viewBox="0 0 14 14" style="enable-background:new 0 0 14 14;" xml:space="preserve">
<style type="text/css">
	.st0{fill:#F9F9F9;}
</style>
<g>
	<path class="st0" d="M13.8,3.2l-2.9-2.9C10.7,0.1,10.5,0,10.4,0H0.7C0.3,0,0,0.3,0,0.7l0,0v12.6C0,13.7,0.3,14,0.7,14l0,0h12.6
		c0.4,0,0.7-0.3,0.7-0.7l0,0V3.6C14,3.5,13.9,3.3,13.8,3.2z M3.9,1.4h3.6v1.1H3.9V1.4z M10.1,8.1v4.5H3.9V8.1H10.1z M12.6,12.6h-1.1
		V7.4c0-0.4-0.3-0.7-0.7-0.7H3.2C2.8,6.7,2.5,7,2.5,7.4v5.2H1.4V1.4h1.1v1.8c0,0.4,0.3,0.7,0.7,0.7l0,0h5C8.6,4,9,3.7,9,3.3
		c0,0,0,0,0-0.1V1.4h1.1l2.5,2.5V12.6z"/>
</g>
</svg>
