<?xml version="1.0" encoding="utf-8"?>
<!-- Generator: Adobe Illustrator 22.1.0, SVG Export Plug-In . SVG Version: 6.00 Build 0)  -->
<svg version="1.1" id="Layer_1" xmlns="http://www.w3.org/2000/svg" xmlns:xlink="http://www.w3.org/1999/xlink" x="0px" y="0px"
	 viewBox="0 0 20 20" style="enable-background:new 0 0 20 20;" xml:space="preserve">
<style type="text/css">
	.st0{fill:#FFFFFF;}
</style>
<g>
	<path class="st0" d="M18.8,7.7l-1.2-0.2c-0.1-0.4-0.3-0.7-0.5-1.1l0.7-1c0.4-0.6,0.3-1.4-0.2-1.9l-1.2-1.2c-0.3-0.3-0.6-0.4-1-0.4
		c0,0,0,0,0,0c-0.3,0-0.6,0.1-0.8,0.3l-1,0.7c-0.4-0.2-0.7-0.3-1.1-0.5l-0.2-1.2C12.1,0.5,11.5,0,10.8,0c0,0,0,0,0,0H9.1
		c0,0,0,0,0,0C8.4,0,7.8,0.5,7.7,1.2L7.5,2.5C7.1,2.6,6.7,2.7,6.4,2.9l-1-0.7C4.8,1.8,4,1.8,3.5,2.3L2.3,3.6
		C1.8,4.1,1.7,4.8,2.1,5.4l0.7,1C2.7,6.8,2.5,7.2,2.4,7.6L1.2,7.8C0.5,7.9,0,8.5,0,9.2v1.7c0,0.7,0.5,1.3,1.2,1.4l1.2,0.2
		c0.1,0.4,0.3,0.7,0.5,1.1l-0.7,1c-0.4,0.6-0.3,1.4,0.2,1.9l1.2,1.2c0.3,0.3,0.7,0.4,1,0.4c0.3,0,0.6-0.1,0.8-0.3l1-0.7
		c0.3,0.2,0.7,0.3,1.1,0.4l0.2,1.2C7.8,19.5,8.4,20,9.1,20c0,0,0,0,0,0h1.7c0,0,0,0,0,0c0.7,0,1.3-0.5,1.4-1.2l0.2-1.2
		c0.4-0.1,0.7-0.3,1.1-0.5l1,0.7c0.2,0.2,0.5,0.3,0.8,0.3c0,0,0,0,0,0c0.4,0,0.8-0.2,1-0.4l1.2-1.2c0.5-0.5,0.6-1.3,0.2-1.9l-0.7-1
		c0.2-0.4,0.3-0.7,0.5-1.1l1.2-0.2c0.7-0.1,1.2-0.7,1.2-1.4V9.1C20,8.4,19.5,7.8,18.8,7.7z M18.4,10.7L16.8,11
		c-0.3,0.1-0.6,0.3-0.6,0.6c-0.1,0.6-0.4,1.1-0.7,1.6c-0.2,0.3-0.1,0.6,0,0.9l0.9,1.3l-1,1.1l-1.3-0.9c-0.3-0.2-0.6-0.2-0.9,0
		c-0.5,0.3-1.1,0.5-1.6,0.7c-0.3,0.1-0.5,0.3-0.6,0.6l-0.3,1.6H9.3L9,16.8c-0.1-0.3-0.3-0.6-0.6-0.6c-0.6-0.1-1.1-0.4-1.6-0.7
		c-0.1-0.1-0.3-0.1-0.4-0.1c-0.2,0-0.3,0-0.5,0.1l-1.3,0.9l-1.1-1l0.9-1.3c0.2-0.3,0.2-0.6,0-0.9c-0.3-0.5-0.5-1.1-0.7-1.6
		c-0.1-0.3-0.3-0.5-0.6-0.6l-1.6-0.3V9.3L3.2,9C3.5,9,3.7,8.8,3.8,8.4C4,7.9,4.2,7.3,4.5,6.8c0.2-0.3,0.1-0.6,0-0.9L3.5,4.6l1-1.1
		l1.3,0.9c0.3,0.2,0.6,0.2,0.9,0C7.2,4.2,7.8,4,8.4,3.8C8.7,3.8,8.9,3.5,9,3.2l0.3-1.6h1.5L11,3.2c0.1,0.3,0.3,0.6,0.6,0.6
		c0.6,0.1,1.2,0.4,1.7,0.7c0.3,0.2,0.6,0.1,0.9,0l1.3-0.9l1.1,1.1l-0.9,1.3c-0.2,0.3-0.2,0.6,0,0.9c0.3,0.5,0.5,1.1,0.7,1.6
		c0.1,0.3,0.3,0.5,0.6,0.6l1.6,0.3v1.2l0,0L18.4,10.7z M10,5.7c-2.4,0-4.3,1.9-4.3,4.3c0,2.4,1.9,4.3,4.3,4.3c2.4,0,4.3-1.9,4.3-4.3
		C14.3,7.6,12.4,5.7,10,5.7z M12.8,10c0,1.5-1.2,2.8-2.8,2.8S7.2,11.5,7.2,10S8.5,7.2,10,7.2S12.8,8.5,12.8,10z"/>
</g>
</svg>
