<?xml version="1.0" encoding="utf-8"?>
<!-- Generator: Adobe Illustrator 22.1.0, SVG Export Plug-In . SVG Version: 6.00 Build 0)  -->
<svg version="1.1" id="Layer_1" xmlns="http://www.w3.org/2000/svg" xmlns:xlink="http://www.w3.org/1999/xlink" x="0px" y="0px"
	 viewBox="0 0 350 330" style="enable-background:new 0 0 350 330;" xml:space="preserve">
<style type="text/css">
	.st0{fill:#28203D;}
	.st1{opacity:0.5;fill:#C9C9C9;enable-background:new    ;}
	.st2{fill:#2F2445;}
	.st3{fill:#C9C9C9;}
</style>
<g>
	<path class="st0" d="M0,313.5V60.9c0-8.9,7.3-16.1,16.2-16.1h103.5c3.8,0,7.5,1.9,9.7,5l25.6,35.7H299c8.9,0,16.1,7.2,16.2,16.1
		V138c0,6.6-5.3,11.9-11.9,11.9H74.3l-0.4,0.1c-1,0.1-1.8,0.7-2.2,1.6c0,0.1,0,0.1,0,0.2l-47.1,166c-1.5,5.2-3.6,12.7-8.9,12.3
		C-0.7,328.8,0,313.5,0,313.5z"/>
	<path class="st1" d="M32.8,39.6h215.4c9,0,16.3,7.3,16.3,16.3v255.5c0,9-7.3,16.3-16.3,16.3H32.8c-9,0-16.3-7.3-16.3-16.3V56
		C16.5,46.9,23.8,39.6,32.8,39.6z"/>
	<path class="st1" d="M40.3,56.4h44.9c4,0,7.3,3.3,7.3,7.3v44.8c0,4-3.3,7.3-7.3,7.3H40.3c-4,0-7.3-3.3-7.3-7.3V63.7
		C32.9,59.7,36.2,56.4,40.3,56.4z M119.2,56.4H246c1.8,0,3.2,1.4,3.2,3.2l0,0c0,1.8-1.4,3.2-3.2,3.2H119.2c-1.8,0-3.2-1.4-3.2-3.2
		l0,0C116,57.8,117.4,56.4,119.2,56.4z M119.2,82.9H246c1.8,0,3.2,1.4,3.2,3.2l0,0c0,1.8-1.4,3.2-3.2,3.2H119.2
		c-1.8,0-3.2-1.4-3.2-3.2l0,0C116,84.3,117.4,82.9,119.2,82.9z M119.2,109.4H246c1.8,0,3.2,1.4,3.2,3.2l0,0c0,1.8-1.4,3.2-3.2,3.2
		H119.2c-1.8,0-3.2-1.4-3.2-3.2l0,0C116,110.8,117.4,109.4,119.2,109.4z M36.2,135.9H246c1.8,0,3.2,1.4,3.2,3.2l0,0
		c0,1.8-1.4,3.2-3.2,3.2H36.2c-1.8,0-3.2-1.4-3.2-3.2l0,0C32.9,137.3,34.4,135.9,36.2,135.9z M36.2,162.4H246c1.8,0,3.2,1.4,3.2,3.2
		l0,0c0,1.8-1.4,3.2-3.2,3.2H36.2c-1.8,0-3.2-1.4-3.2-3.2l0,0C32.9,163.8,34.4,162.4,36.2,162.4z M36.2,188.9H246
		c1.8,0,3.2,1.4,3.2,3.2l0,0c0,1.8-1.4,3.2-3.2,3.2H36.2c-1.8,0-3.2-1.4-3.2-3.2l0,0C32.9,190.3,34.4,188.9,36.2,188.9z M36.2,215.4
		H246c1.8,0,3.2,1.4,3.2,3.2l0,0c0,1.8-1.4,3.2-3.2,3.2H36.2c-1.8,0-3.2-1.4-3.2-3.2l0,0C32.9,216.8,34.4,215.4,36.2,215.4z
		 M36.2,241.9H246c1.8,0,3.2,1.4,3.2,3.2l0,0c0,1.8-1.4,3.2-3.2,3.2H36.2c-1.8,0-3.2-1.4-3.2-3.2l0,0
		C32.9,243.3,34.4,241.9,36.2,241.9z M35.6,268.3h209.8c1.8,0,3.2,1.4,3.2,3.2l0,0c0,1.8-1.4,3.2-3.2,3.2H35.6
		c-1.8,0-3.2-1.4-3.2-3.2l0,0C32.4,269.8,33.8,268.3,35.6,268.3z"/>
	<path class="st1" d="M43.3,313.5V16.3c0-9,7.3-16.3,16.3-16.3c0,0,0,0,0,0H275c9,0,16.3,7.3,16.3,16.3v297.2
		c0,9-7.3,16.3-16.3,16.3H59.6C50.6,329.9,43.3,322.5,43.3,313.5z"/>
	<path class="st1" d="M35.6,294.8h209.8c1.8,0,3.2,1.4,3.2,3.2l0,0c0,1.8-1.4,3.2-3.2,3.2H35.6c-1.8,0-3.2-1.4-3.2-3.2l0,0
		C32.4,296.3,33.8,294.8,35.6,294.8z M59.7,68.9V24.1c0-4,3.3-7.3,7.3-7.3H112c4,0,7.3,3.3,7.3,7.3v44.8c0,4.1-3.3,7.3-7.3,7.3
		c0,0,0,0,0,0H67.1C63,76.2,59.7,72.9,59.7,68.9L59.7,68.9z M276,20L276,20c0-1.8-1.4-3.2-3.2-3.2H146c-1.8,0-3.2,1.4-3.2,3.2
		c0,0,0,0,0,0l0,0c0,1.8,1.5,3.2,3.2,3.2h126.8C274.6,23.2,276,21.8,276,20z M276,46.5L276,46.5c0-1.8-1.4-3.2-3.2-3.2H146
		c-1.8,0-3.2,1.4-3.2,3.2l0,0c0,1.8,1.4,3.2,3.2,3.2h126.8C274.6,49.7,276,48.3,276,46.5L276,46.5z M276,73L276,73
		c0-1.8-1.4-3.2-3.2-3.2H146c-1.8,0-3.2,1.4-3.2,3.2l0,0c0,1.8,1.4,3.2,3.2,3.2c0,0,0,0,0,0h126.8C274.6,76.2,276,74.8,276,73
		L276,73z M276,99.5L276,99.5c0-1.8-1.4-3.2-3.2-3.2H63c-1.8,0-3.2,1.4-3.2,3.2l0,0c0,1.8,1.4,3.2,3.2,3.2h209.8
		C274.6,102.7,276,101.2,276,99.5L276,99.5z M276,126L276,126c0-1.8-1.4-3.2-3.2-3.2H63c-1.8,0-3.2,1.4-3.2,3.2c0,0,0,0,0,0l0,0
		c0,1.8,1.5,3.2,3.2,3.2c0,0,0,0,0,0h209.8C274.6,129.2,276,127.7,276,126L276,126z M276,152.5L276,152.5c0-1.8-1.4-3.2-3.2-3.2H63
		c-1.8,0-3.2,1.4-3.2,3.2l0,0c0,1.8,1.4,3.2,3.2,3.2h209.8C274.6,155.7,276,154.2,276,152.5L276,152.5z M276,179L276,179
		c0-1.8-1.4-3.2-3.2-3.2H63c-1.8,0-3.2,1.4-3.2,3.2c0,0,0,0,0,0l0,0c0,1.8,1.4,3.2,3.2,3.2c0,0,0,0,0,0h209.8
		C274.6,182.2,276,180.7,276,179L276,179z M276,205.5L276,205.5c0-1.8-1.4-3.2-3.2-3.2H63c-1.8,0-3.2,1.4-3.2,3.2l0,0
		c0,1.8,1.4,3.2,3.2,3.2h209.8C274.6,208.7,276,207.2,276,205.5L276,205.5z M275.5,231.9L275.5,231.9c0-1.8-1.4-3.2-3.2-3.2H62.4
		c-1.8,0-3.2,1.4-3.2,3.2l0,0c0,1.8,1.4,3.2,3.2,3.2h209.8C274,235.2,275.4,233.7,275.5,231.9L275.5,231.9z M275.5,258.4
		L275.5,258.4c0-1.8-1.4-3.2-3.2-3.2H62.4c-1.8,0-3.2,1.4-3.2,3.2l0,0c0,1.8,1.4,3.2,3.2,3.2h209.8
		C274,261.7,275.4,260.2,275.5,258.4L275.5,258.4z M275.5,284.9L275.5,284.9c0-1.8-1.4-3.2-3.2-3.2H62.4c-1.8,0-3.2,1.4-3.2,3.2l0,0
		c0,1.8,1.4,3.2,3.2,3.2h209.8C274,288.2,275.4,286.7,275.5,284.9L275.5,284.9z M275.5,311.4L275.5,311.4c0-1.8-1.4-3.2-3.2-3.2
		H62.4c-1.8,0-3.2,1.4-3.2,3.2l0,0c0,1.8,1.4,3.2,3.2,3.2h209.8C274,314.6,275.4,313.2,275.5,311.4L275.5,311.4z"/>
	<path class="st2" d="M60,148.3c2-6.4,7.8-10.7,14.5-10.7h260.7c6.8,0,14,4.9,14.8,15.8l-59.5,166c-2,6.3-7.9,10.5-14.5,10.5H15.3
		c-4.7,0-9.1-2.1-11.9-5.8c-2.8-3.4-3.9-7.8-3.1-12.2L60,148.3z"/>
	<path class="st3" d="M240.4,204.2c0,4.8-3.9,8.7-8.7,8.8c-4.8,0-8.7-3.9-8.8-8.7c0-4.8,3.9-8.7,8.7-8.8c0,0,0,0,0,0
		C236.4,195.5,240.4,199.4,240.4,204.2z M147.3,204.2c0,4.8-3.9,8.7-8.7,8.8c-4.8,0-8.7-3.9-8.8-8.7c0-4.8,3.9-8.7,8.7-8.8
		c0,0,0,0,0,0C143.4,195.5,147.3,199.4,147.3,204.2z M211.4,256.5c-1.1,6.9-5.9,21.7-26.3,21.7s-25.1-14.8-26.3-21.7
		c-0.3-1.6,0.8-3.2,2.5-3.4c0.2,0,0.3,0,0.5,0h46.6c1.7,0,3,1.4,3,3C211.4,256.2,211.4,256.4,211.4,256.5L211.4,256.5z"/>
</g>
</svg>
