<?xml version="1.0" encoding="utf-8"?>
<!-- Generator: Adobe Illustrator 22.1.0, SVG Export Plug-In . SVG Version: 6.00 Build 0)  -->
<svg version="1.1" id="Layer_1" xmlns="http://www.w3.org/2000/svg" xmlns:xlink="http://www.w3.org/1999/xlink" x="0px" y="0px"
	 viewBox="0 0 350 350" style="enable-background:new 0 0 350 350;" xml:space="preserve">
<style type="text/css">
	.st0{fill:none;}
	.st1{fill:#08203F;}
	.st2{opacity:0.5;fill:#FFFFFF;enable-background:new    ;}
	.st3{opacity:0.5;fill:#C9C9C9;enable-background:new    ;}
	.st4{fill:#194173;}
	.st5{fill:#FFFFFF;}
</style>
<g id="_1._Transparency" transform="translate(0.03)">
	<rect x="0" class="st0" width="350" height="350"/>
	<g id="_2">
		<path class="st1" d="M0,323.5V70.9c0-8.9,7.3-16.1,16.2-16.1h103.5c3.8,0,7.5,1.9,9.7,5l25.6,35.7H299c8.9,0,16.1,7.2,16.2,16.1
			V148c0,6.6-5.3,11.9-11.9,11.9H74.3l-0.4,0.1c-1,0.1-1.8,0.7-2.2,1.6c0,0.1,0,0.1,0,0.2l-47.1,166c-1.5,5.2-3.6,12.7-8.9,12.3
			C-0.7,338.8,0,323.5,0,323.5z"/>
		<path class="st2" d="M32.8,49.6h215.4c9,0,16.3,7.3,16.3,16.3v255.5c0,9-7.3,16.3-16.3,16.3H32.8c-9,0-16.3-7.3-16.3-16.3V66
			C16.5,56.9,23.8,49.6,32.8,49.6z"/>
		<path class="st3" d="M40.2,66.4h44.9c4,0,7.3,3.3,7.3,7.3v44.8c0,4-3.3,7.3-7.3,7.3H40.2c-4,0-7.3-3.3-7.3-7.3V73.7
			C32.9,69.7,36.2,66.4,40.2,66.4z M119.2,66.4H246c1.8,0,3.2,1.4,3.2,3.2l0,0c0,1.8-1.4,3.2-3.2,3.2H119.2c-1.8,0-3.2-1.4-3.2-3.2
			l0,0C115.9,67.8,117.4,66.4,119.2,66.4z M119.2,92.9H246c1.8,0,3.2,1.4,3.2,3.2l0,0c0,1.8-1.4,3.2-3.2,3.2H119.2
			c-1.8,0-3.2-1.4-3.2-3.2l0,0C115.9,94.3,117.4,92.9,119.2,92.9z M119.2,119.4H246c1.8,0,3.2,1.4,3.2,3.2l0,0
			c0,1.8-1.4,3.2-3.2,3.2H119.2c-1.8,0-3.2-1.4-3.2-3.2l0,0C115.9,120.8,117.4,119.4,119.2,119.4z M36.1,145.9H246
			c1.8,0,3.2,1.4,3.2,3.2l0,0c0,1.8-1.4,3.2-3.2,3.2H36.1c-1.8,0-3.2-1.4-3.2-3.2l0,0C32.9,147.3,34.4,145.9,36.1,145.9z
			 M36.1,172.4H246c1.8,0,3.2,1.4,3.2,3.2l0,0c0,1.8-1.4,3.2-3.2,3.2H36.1c-1.8,0-3.2-1.4-3.2-3.2l0,0
			C32.9,173.8,34.4,172.4,36.1,172.4z M36.1,198.9H246c1.8,0,3.2,1.4,3.2,3.2l0,0c0,1.8-1.4,3.2-3.2,3.2H36.1
			c-1.8,0-3.2-1.4-3.2-3.2l0,0C32.9,200.3,34.4,198.9,36.1,198.9z M36.1,225.4H246c1.8,0,3.2,1.4,3.2,3.2l0,0c0,1.8-1.4,3.2-3.2,3.2
			H36.1c-1.8,0-3.2-1.4-3.2-3.2l0,0C32.9,226.8,34.4,225.4,36.1,225.4z M36.1,251.9H246c1.8,0,3.2,1.4,3.2,3.2l0,0
			c0,1.8-1.4,3.2-3.2,3.2H36.1c-1.8,0-3.2-1.4-3.2-3.2l0,0C32.9,253.3,34.4,251.9,36.1,251.9z M35.5,278.3h209.8
			c1.8,0,3.2,1.4,3.2,3.2l0,0c0,1.8-1.4,3.2-3.2,3.2H35.5c-1.8,0-3.2-1.4-3.2-3.2l0,0C32.3,279.8,33.8,278.3,35.5,278.3z
			 M35.5,304.8h209.8c1.8,0,3.2,1.4,3.2,3.2l0,0c0,1.8-1.4,3.2-3.2,3.2H35.5c-1.8,0-3.2-1.4-3.2-3.2l0,0
			C32.3,306.3,33.8,304.8,35.5,304.8z"/>
		<path class="st3" d="M43.2,323.5V26.3c0-9,7.3-16.3,16.3-16.3c0,0,0,0,0,0h215.4c9,0,16.3,7.3,16.3,16.3v297.2
			c0,9-7.3,16.3-16.3,16.3H59.6C50.6,339.9,43.3,332.5,43.2,323.5z"/>
		<path id="Path_802" class="st2" d="M59.7,78.9V34.1c0-4,3.3-7.3,7.3-7.3H112c4,0,7.3,3.3,7.3,7.3v44.8c0,4.1-3.3,7.3-7.3,7.3
			c0,0,0,0,0,0H67C63,86.2,59.7,82.9,59.7,78.9L59.7,78.9z M276,30L276,30c0-1.8-1.4-3.2-3.2-3.2H146c-1.8,0-3.2,1.4-3.2,3.2
			c0,0,0,0,0,0l0,0c0,1.8,1.5,3.2,3.2,3.2h126.8C274.6,33.2,276,31.8,276,30z M276,56.5L276,56.5c0-1.8-1.4-3.2-3.2-3.2H146
			c-1.8,0-3.2,1.4-3.2,3.2l0,0c0,1.8,1.4,3.2,3.2,3.2h126.8C274.6,59.7,276,58.3,276,56.5L276,56.5z M276,83L276,83
			c0-1.8-1.4-3.2-3.2-3.2H146c-1.8,0-3.2,1.4-3.2,3.2l0,0c0,1.8,1.4,3.2,3.2,3.2c0,0,0,0,0,0h126.8C274.6,86.2,276,84.8,276,83
			L276,83z M276,109.5L276,109.5c0-1.8-1.4-3.2-3.2-3.2H63c-1.8,0-3.2,1.4-3.2,3.2l0,0c0,1.8,1.4,3.2,3.2,3.2h209.8
			C274.6,112.7,276,111.2,276,109.5L276,109.5z M276,136L276,136c0-1.8-1.4-3.2-3.2-3.2H63c-1.8,0-3.2,1.4-3.2,3.2c0,0,0,0,0,0l0,0
			c0,1.8,1.5,3.2,3.2,3.2c0,0,0,0,0,0h209.8C274.6,139.2,276,137.7,276,136L276,136z M276,162.5L276,162.5c0-1.8-1.4-3.2-3.2-3.2H63
			c-1.8,0-3.2,1.4-3.2,3.2l0,0c0,1.8,1.4,3.2,3.2,3.2h209.8C274.6,165.7,276,164.2,276,162.5L276,162.5z M276,189L276,189
			c0-1.8-1.4-3.2-3.2-3.2H63c-1.8,0-3.2,1.4-3.2,3.2c0,0,0,0,0,0l0,0c0,1.8,1.4,3.2,3.2,3.2c0,0,0,0,0,0h209.8
			C274.6,192.2,276,190.7,276,189L276,189z M276,215.5L276,215.5c0-1.8-1.4-3.2-3.2-3.2H63c-1.8,0-3.2,1.4-3.2,3.2l0,0
			c0,1.8,1.4,3.2,3.2,3.2h209.8C274.6,218.7,276,217.2,276,215.5L276,215.5z M275.4,241.9L275.4,241.9c0-1.8-1.4-3.2-3.2-3.2H62.4
			c-1.8,0-3.2,1.4-3.2,3.2l0,0c0,1.8,1.4,3.2,3.2,3.2h209.9C274,245.2,275.4,243.7,275.4,241.9L275.4,241.9z M275.4,268.4
			L275.4,268.4c0-1.8-1.4-3.2-3.2-3.2H62.4c-1.8,0-3.2,1.4-3.2,3.2l0,0c0,1.8,1.4,3.2,3.2,3.2h209.9
			C274,271.7,275.4,270.2,275.4,268.4L275.4,268.4z M275.4,294.9L275.4,294.9c0-1.8-1.4-3.2-3.2-3.2H62.4c-1.8,0-3.2,1.4-3.2,3.2
			l0,0c0,1.8,1.4,3.2,3.2,3.2h209.9C274,298.2,275.4,296.7,275.4,294.9L275.4,294.9z M275.4,321.4L275.4,321.4
			c0-1.8-1.4-3.2-3.2-3.2H62.4c-1.8,0-3.2,1.4-3.2,3.2l0,0c0,1.8,1.4,3.2,3.2,3.2h209.9C274,324.6,275.4,323.2,275.4,321.4
			L275.4,321.4z"/>
		<path class="st4" d="M59.9,158.3c2-6.4,7.8-10.7,14.5-10.7h260.7c6.8,0,14,4.9,14.8,15.8l-59.5,166c-2,6.3-7.9,10.5-14.5,10.5
			H15.3c-4.7,0-9.1-2.1-11.9-5.8c-2.8-3.4-3.9-7.8-3.1-12.2L59.9,158.3z"/>
		<path class="st5" d="M240.3,214.2c0,4.8-3.9,8.7-8.7,8.8c-4.8,0-8.7-3.9-8.8-8.7c0-4.8,3.9-8.7,8.7-8.8c0,0,0,0,0,0
			C236.4,205.5,240.3,209.4,240.3,214.2z"/>
		<path class="st5" d="M147.3,214.2c0,4.8-3.9,8.7-8.7,8.8c-4.8,0-8.7-3.9-8.8-8.7c0-4.8,3.9-8.7,8.7-8.8c0,0,0,0,0,0
			C143.4,205.5,147.3,209.4,147.3,214.2z"/>
		<path class="st5" d="M211.4,266.5c-1.1,6.9-5.9,21.7-26.3,21.7s-25.1-14.8-26.3-21.7c-0.3-1.6,0.8-3.2,2.5-3.4c0.2,0,0.3,0,0.5,0
			h46.6c1.7,0,3,1.4,3,3C211.4,266.2,211.4,266.4,211.4,266.5L211.4,266.5z"/>
	</g>
</g>
</svg>
