<?xml version="1.0" encoding="utf-8"?>
<!-- Generator: Adobe Illustrator 22.1.0, SVG Export Plug-In . SVG Version: 6.00 Build 0)  -->
<svg version="1.1" id="file-icon" xmlns="http://www.w3.org/2000/svg" xmlns:xlink="http://www.w3.org/1999/xlink" x="0px" y="0px"
	 viewBox="0 0 64 64" style="enable-background:new 0 0 64 64;" xml:space="preserve">
<g>
	<path d="M42.3,25.4H11.2c-1.1,0-1.8,0.7-1.8,1.8c0,1.1,0.7,1.8,1.8,1.8h25.9c0.3-0.5,0.9-0.8,1.5-0.9c0.5-0.1,1.1,0.1,1.5,0.3l0,0
		l1,0.6h1.1c1.1,0,1.8-0.7,2-1.8V27C44.1,26.1,43.2,25.4,42.3,25.4z M37.7,37.7H11.2c-1.1,0-1.8,0.7-1.8,1.8c0,1.1,0.7,1.8,1.8,1.8
		h26.9L37.7,37.7z M39.3,50H11.2c-1.1,0-1.8,0.7-1.8,1.8c0,1.1,0.7,1.8,1.8,1.8h28.6L39.3,50z M22,14.9H11c-0.9,0-1.6,0.9-1.6,1.8
		v0.2c0,0.9,0.9,1.6,1.8,1.6h10.7c1.1,0,2-0.7,2-1.8v-0.2C23.8,15.6,22.9,14.9,22,14.9z M39.3,50H11.2c-1.1,0-1.8,0.7-1.8,1.8
		c0,1.1,0.7,1.8,1.8,1.8h28.6L39.3,50z M37.7,37.7H11.2c-1.1,0-1.8,0.7-1.8,1.8c0,1.1,0.7,1.8,1.8,1.8h26.9L37.7,37.7z M42.3,25.4
		H11.2c-1.1,0-1.8,0.7-1.8,1.8c0,1.1,0.7,1.8,1.8,1.8h25.9c0.3-0.5,0.9-0.8,1.5-0.9c0.5-0.1,1.1,0.1,1.5,0.3l0,0l1,0.6h1.1
		c1.1,0,1.8-0.7,2-1.8V27C44.1,26.1,43.2,25.4,42.3,25.4z M22,14.9H11c-0.9,0-1.6,0.9-1.6,1.8v0.2c0,0.9,0.9,1.6,1.8,1.6h10.7
		c1.1,0,2-0.7,2-1.8v-0.2C23.8,15.6,22.9,14.9,22,14.9z M22,14.9H11c-0.9,0-1.6,0.9-1.6,1.8v0.2c0,0.9,0.9,1.6,1.8,1.6h10.7
		c1.1,0,2-0.7,2-1.8v-0.2C23.8,15.6,22.9,14.9,22,14.9z M42.3,25.4H11.2c-1.1,0-1.8,0.7-1.8,1.8c0,1.1,0.7,1.8,1.8,1.8h25.9
		c0.3-0.5,0.9-0.8,1.5-0.9c0.5-0.1,1.1,0.1,1.5,0.3l0,0l1,0.6h1.1c1.1,0,1.8-0.7,2-1.8V27C44.1,26.1,43.2,25.4,42.3,25.4z
		 M37.7,37.7H11.2c-1.1,0-1.8,0.7-1.8,1.8c0,1.1,0.7,1.8,1.8,1.8h26.9L37.7,37.7z M39.3,50H11.2c-1.1,0-1.8,0.7-1.8,1.8
		c0,1.1,0.7,1.8,1.8,1.8h28.6L39.3,50z M49.9,59.6c-0.5,0.7-1.2,1.2-1.9,1.6l-2.6,2.7c2.1-0.2,4.1-1.3,5.5-2.8L49.9,59.6z
		 M51.6,18.8L34.5,1.8L32.7,0H8.9C4.1,0,0,3.9,0,8.7v46.4C0,59.9,3.9,64,8.7,64h32.7c-0.1-0.2-0.2-0.4-0.2-0.7L41,62.2H8.9
		c-3.9,0-7.1-3.2-7.1-7.1V8.9C1.8,5,5,1.8,8.9,1.8h23.8v10c0,4.8,3.9,8.9,8.7,8.9h10.1v15l1.8,1.1V20.6L51.6,18.8z M41.6,17.1
		c-2.8,0-5.3-2.3-5.3-5.2V8.5l8.5,8.5H41.6z M22,14.9H11c-0.9,0-1.6,0.9-1.6,1.8v0.2c0,0.9,0.9,1.6,1.8,1.6h10.7c1.1,0,2-0.7,2-1.8
		v-0.2C23.8,15.6,22.9,14.9,22,14.9z M42.3,25.4H11.2c-1.1,0-1.8,0.7-1.8,1.8c0,1.1,0.7,1.8,1.8,1.8h25.9c0.3-0.5,0.9-0.8,1.5-0.9
		c0.5-0.1,1.1,0.1,1.5,0.3l0,0l1,0.6h1.1c1.1,0,1.8-0.7,2-1.8V27C44.1,26.1,43.2,25.4,42.3,25.4z M37.7,37.7H11.2
		c-1.1,0-1.8,0.7-1.8,1.8c0,1.1,0.7,1.8,1.8,1.8h26.9L37.7,37.7z M39.3,50H11.2c-1.1,0-1.8,0.7-1.8,1.8c0,1.1,0.7,1.8,1.8,1.8h28.6
		L39.3,50z M39.3,50H11.2c-1.1,0-1.8,0.7-1.8,1.8c0,1.1,0.7,1.8,1.8,1.8h28.6L39.3,50z M37.7,37.7H11.2c-1.1,0-1.8,0.7-1.8,1.8
		c0,1.1,0.7,1.8,1.8,1.8h26.9L37.7,37.7z M42.3,25.4H11.2c-1.1,0-1.8,0.7-1.8,1.8c0,1.1,0.7,1.8,1.8,1.8h25.9
		c0.3-0.5,0.9-0.8,1.5-0.9c0.5-0.1,1.1,0.1,1.5,0.3l0,0l1,0.6h1.1c1.1,0,1.8-0.7,2-1.8V27C44.1,26.1,43.2,25.4,42.3,25.4z M22,14.9
		H11c-0.9,0-1.6,0.9-1.6,1.8v0.2c0,0.9,0.9,1.6,1.8,1.6h10.7c1.1,0,2-0.7,2-1.8v-0.2C23.8,15.6,22.9,14.9,22,14.9z M56.4,63.7
		c-0.8,0.5-1.8,0.3-2.3-0.5l-4.7-7.3l-3.7,3.9c-0.2,0.3-0.6,0.4-1,0.5c-0.9,0.1-1.8-0.5-1.9-1.4l-3.4-24.8c-0.1-0.9,0.5-1.8,1.4-1.9
		c0.4-0.1,0.8,0,1.1,0.2l0,0l21.1,13.3c0.8,0.5,1,1.5,0.5,2.3c-0.2,0.3-0.5,0.6-0.9,0.7l-5.1,1.7l4.7,7.3c0.5,0.8,0.3,1.8-0.5,2.3
		L56.4,63.7z"/>
</g>
</svg>
