<?xml version="1.0" encoding="utf-8"?>
<!-- Generator: Adobe Illustrator 22.1.0, SVG Export Plug-In . SVG Version: 6.00 Build 0)  -->
<svg version="1.1" id="file-icon" xmlns="http://www.w3.org/2000/svg" xmlns:xlink="http://www.w3.org/1999/xlink" x="0px" y="0px"
	 viewBox="0 0 120 120" style="enable-background:new 0 0 120 120;" xml:space="preserve">
<g>
	<g>
		<path fill="#E5E5E5" d="M97.7,38.5V108c0,1.8-0.4,3.5-1.1,5c-1.9,4.1-6.1,7-10.9,7H12c-6.6,0-12-5.4-12-12V15C0,6.7,6.7,0,15,0h43.6
			L97.7,38.5z"/>
		<path fill="#C9C9C9" d="M77.5,57.4C76.8,57,75.9,56.7,75,57c-2.1,0.2-3.4,2.3-3.2,4.3l7.8,55.7c0.2,1.5,1.4,2.6,2.8,3
			c0.5,0.1,1,0.2,1.6,0.1c0.2,0,0.3-0.1,0.5-0.1c0.8-0.2,1.4-0.5,1.8-1l8.5-8.8l1.8,2.8c0.7-1.5,1.1-3.2,1.1-5V69.8L77.5,57.4z"/>
		<path fill="#08203F" d="M58.6,0H15C6.7,0,0,6.7,0,15v93c0,6.6,5.4,12,12,12h73.7c6.6,0,12-5.4,12-12V38.5L58.6,0z M94.7,107
			c0,5.5-4.5,10-10,10H13c-5.5,0-10-4.5-10-10V17C3,9.3,9.3,3,17,3h40.6v26.4c0,5.5,4.5,10,10,10h27L94.7,107L94.7,107z"/>
		<path fill="#08203F" d="M84.6,79.6c0,1.2-1,2-2.5,2H15.5c-1.5,0-2.5-0.8-2.5-2s1-2,2.5-2h66.6C83.6,77.6,84.6,78.4,84.6,79.6z"/>
		<path fill="#08203F" d="M84.6,96c0,1.2-1,2-2.5,2H15.5C14,98,13,97.2,13,96s1-2,2.5-2h66.6C83.6,94,84.6,94.8,84.6,96z"/>
		<path fill="#08203F" d="M15.5,44.9h66.6c1.5,0,2.5,0.8,2.5,2c0,0.8-1,2-2.5,2H15.5c-1.5,0-2.5-0.8-2.5-2S14,44.9,15.5,44.9z"/>
		<path fill="#08203F" d="M84.6,63.3c0,1.2-1,2-2.5,2H15.5c-1.5,0-2.5-0.8-2.5-2c0-1.2,1-2,2.5-2h66.6C83.6,61.3,84.6,62.1,84.6,63.3z"
			/>
		<path fill="#08203F" d="M13,30.5c0-1.2,0.9-2,2.3-2h29.5c1.4,0,2.3,0.8,2.3,2s-0.9,2-2.3,2H15.3C13.9,32.5,13,31.7,13,30.5z"/>
	</g>
	<g>
		<path fill="#194173" d="M106.1,118.1c-1.3,0.8-3,0.5-3.8-0.8l-7.8-12.2l-6.2,6.5c-0.3,0.5-1,0.7-1.7,0.8c-1.5,0.2-3-0.8-3.2-2.3
			l-5.7-41.4c-0.2-1.5,0.8-3,2.3-3.2c0.7-0.2,1.3,0,1.8,0.3l0,0l35.4,22.2c1.3,0.8,1.7,2.5,0.8,3.8c-0.3,0.5-0.8,1-1.5,1.2l-8.5,2.8
			l7.8,12.2c0.8,1.3,0.5,3-0.8,3.8L106.1,118.1z"/>
		<path fill="#08203F" d="M104.5,120c-1.4,0-2.7-0.7-3.5-2l-6.8-10.6l-4.8,5.1c-0.7,0.9-1.7,1.1-2.4,1.3l-0.2,0
			c-2.4,0.3-4.5-1.4-4.8-3.6l-5.7-41.3c-0.3-2.4,1.3-4.5,3.5-4.8c1-0.2,2,0,2.9,0.6L118,86.8c1,0.6,1.7,1.6,1.9,2.7
			c0.2,1.1,0,2.2-0.6,3.2c-0.6,0.9-1.4,1.6-2.3,1.8l-6.7,2.2l6.8,10.6c0.6,1,0.8,2.1,0.6,3.2c-0.2,1.1-0.9,2.1-1.9,2.7l-9,6.2
			C106.1,119.8,105.3,120,104.5,120z M94.6,102.7l8.9,13.8c0.4,0.6,1.1,0.8,1.8,0.4l9-6.2c0.4-0.2,0.6-0.5,0.6-0.8
			c0.1-0.3,0-0.7-0.2-1l-8.9-13.8l10.4-3.5c0.2,0,0.4-0.3,0.6-0.6c0.2-0.3,0.3-0.7,0.2-1c-0.1-0.3-0.3-0.6-0.6-0.8L81.1,67.1
			c-0.2-0.2-0.5-0.2-0.7-0.2l-0.2,0c-0.6,0.1-1.1,0.8-1,1.5l5.7,41.3c0.1,0.6,0.7,1.1,1.5,1.1c0.3-0.1,0.6-0.2,0.7-0.2l0.1-0.1
			L94.6,102.7z"/>
	</g>
</g>
</svg>
