<?xml version="1.0" encoding="utf-8"?>
<!-- Generator: Adobe Illustrator 22.1.0, SVG Export Plug-In . SVG Version: 6.00 Build 0)  -->
<svg version="1.1" id="Layer_1" xmlns="http://www.w3.org/2000/svg" xmlns:xlink="http://www.w3.org/1999/xlink" x="0px" y="0px"
	 viewBox="0 0 10 9" style="enable-background:new 0 0 10 9;" xml:space="preserve">
<g>
	<path d="M9,0C8.4,0,8,0.4,8,1v3.3C8,4.2,8,4.1,7.9,4C7.8,3.9,7.7,3.7,7.5,3.6L1.6,0.2C1.1-0.2,0.3-0.1,0.1,0.5C0,0.7,0,0.9,0,1.1
		v6.8c0,0.4,0.1,0.8,0.5,0.9C0.7,9,0.9,9,1.1,9c0.2,0,0.3-0.1,0.5-0.2l5.9-3.3C7.8,5.4,7.9,5.2,8,4.9V8c0,0.6,0.4,1,1,1s1-0.4,1-1V1
		C10,0.4,9.6,0,9,0z M1.5,7.1V2L6,4.5L1.5,7.1z"/>
</g>
</svg>
