<?xml version="1.0" encoding="utf-8"?>
<!-- Generator: Adobe Illustrator 22.1.0, SVG Export Plug-In . SVG Version: 6.00 Build 0)  -->
<svg version="1.1" id="Layer_1" xmlns="http://www.w3.org/2000/svg" xmlns:xlink="http://www.w3.org/1999/xlink" x="0px" y="0px"
	 viewBox="0 0 35 25" style="enable-background:new 0 0 35 25;" xml:space="preserve">
<style type="text/css">
	.st0{fill:#463B5B;}
	.st1{fill:#FFFFFF;}
</style>
<g>
	<path class="st0" d="M0,20V5c0-2.8,2.2-5,5-5h25c2.8,0,5,2.2,5,5v15c0,2.8-2.2,5-5,5H5C2.2,25,0,22.8,0,20z"/>
	<path class="st1" d="M21.8,11.4l-7.3-4C13.8,7,13,7.2,12.7,7.9c-0.1,0.2-0.2,0.4-0.2,0.6v7.9c0,0.5,0.2,0.9,0.6,1.1
		c0.2,0.1,0.4,0.2,0.7,0.2c0.2,0,0.4-0.1,0.6-0.2l7.3-3.9c0.7-0.4,0.9-1.2,0.5-1.8C22.2,11.7,22,11.5,21.8,11.4L21.8,11.4z
		 M14.4,15.5V9.5l5.5,3L14.4,15.5z"/>
</g>
</svg>
