<?xml version="1.0" encoding="utf-8"?>
<!-- Generator: Adobe Illustrator 22.1.0, SVG Export Plug-In . SVG Version: 6.00 Build 0)  -->
<svg version="1.1" id="Layer_1" xmlns="http://www.w3.org/2000/svg" xmlns:xlink="http://www.w3.org/1999/xlink" x="0px" y="0px"
	 viewBox="0 0 12 11" style="enable-background:new 0 0 12 11;" xml:space="preserve">
<g>
	<path d="M8,0.7v1c1.7,0.4,3,2,3,3.8c0,1.8-1.3,3.4-3,3.8v1c2.3-0.4,4-2.4,4-4.8C12,3.1,10.3,1.1,8,0.7z"/>
	<path d="M8,2.8v0.8c0.9,0.2,1.6,1,1.6,1.9S8.9,7.3,8,7.5v0.8c1.3-0.2,2.3-1.3,2.3-2.7S9.3,3,8,2.8z"/>
	<path d="M7.2,0.8v9.5c0,0.3-0.1,0.5-0.4,0.7C6.7,11,6.6,11,6.4,11c-0.1,0-0.3,0-0.4-0.1c0,0,0,0,0,0l-3.2-3H0.2
		c-0.1,0-0.1,0-0.2-0.1C0,7.8,0,7.7,0,7.6V3.1C0,3,0.1,2.9,0.2,2.9h2.5L6,0.1c0,0,0,0,0,0C6.3,0,6.6,0,6.8,0.1
		C7,0.2,7.2,0.5,7.2,0.8z"/>
</g>
</svg>
