<?xml version="1.0" encoding="utf-8"?>
<!-- Generator: Adobe Illustrator 22.1.0, SVG Export Plug-In . SVG Version: 6.00 Build 0)  -->
<svg version="1.1" id="Layer_1" xmlns="http://www.w3.org/2000/svg" xmlns:xlink="http://www.w3.org/1999/xlink" x="0px" y="0px"
	 viewBox="0 0 24 24" style="enable-background:new 0 0 24 24;" xml:space="preserve">
<g>
	<path d="M12,1.5c5.8,0,10.5,4.7,10.5,10.5S17.8,22.5,12,22.5S1.5,17.8,1.5,12S6.2,1.5,12,1.5 M12,0C5.4,0,0,5.4,0,12s5.4,12,12,12
		s12-5.4,12-12S18.6,0,12,0L12,0z M11.3,19.1V8.6c0-0.4,0.3-0.7,0.7-0.7h0c0.4,0,0.7,0.3,0.7,0.7v10.5c0,0.4-0.3,0.8-0.7,0.8h0
		C11.6,19.9,11.3,19.6,11.3,19.1z M12,4.1c-0.4,0-0.8,0.3-0.8,0.8s0.3,0.8,0.8,0.8s0.8-0.3,0.8-0.8S12.4,4.1,12,4.1z"/>
</g>
</svg>
