<?xml version="1.0" encoding="utf-8"?>
<!-- Generator: Adobe Illustrator 21.1.0, SVG Export Plug-In . SVG Version: 6.00 Build 0)  -->
<svg version="1.1" id="Layer_1" xmlns="http://www.w3.org/2000/svg" xmlns:xlink="http://www.w3.org/1999/xlink" x="0px" y="0px"
	 viewBox="0 0 146.9 147.1" style="enable-background:new 0 0 146.9 147.1;" xml:space="preserve">
<style type="text/css">
	.st0{fill:#1999D5;}
	.st1{fill:#F8FBFD;}
	.st2{fill:#2AA2DB;}
	.st3{fill:#1A9BD8;}
</style>
<g>
	<path class="st0" d="M73.5,147.1c-40.6,0-73.4-32.8-73.5-73.4C-0.1,32.9,32.9,0,73.6,0c40.5,0,73.3,33,73.3,73.6
		C146.9,114.2,114.1,147.1,73.5,147.1z M96.7,55.5c0.3,0.1,0.6,0.3,0.8,0.4c0,1.2,0,2.4,0,3.7c0,19.4,0.1,38.7-0.1,58.1
		c0,3.2,0.9,4.1,4,3.9c3-0.3,6-0.3,9,0c3,0.3,3.7-0.9,3.7-3.8C114,89.9,114.1,62,114,34.1c0-0.9,0.3-2-1.1-4
		c-3.1,3.7-6.1,7.3-9,10.8c-0.3-0.2-0.7-0.5-1-0.7c0-4.6,0-9.1,0-14.2c-1.3,1.3-2.2,2.1-3.1,2.9c-8,8-16,15.8-23.8,23.9
		c-2.1,2.2-3.3,2-5.3-0.1c-6.8-7.1-13.9-14-20.8-21c-1.8-1.8-3.5-3.7-5.3-5.6c-0.3,0.1-0.6,0.3-0.9,0.4c0,4.6,0,9.2,0,13.8
		c-0.3,0.2-0.6,0.3-1,0.5c-3.1-3.3-6.3-6.6-9.4-9.8c-0.3,0.3-0.4,0.3-0.4,0.4c0,29.2-0.1,58.5-0.1,87.7c0,2,0.9,2.2,2.5,2.2
		c3.4-0.1,6.8-0.2,10.1,0c3.1,0.3,4-0.7,4-3.9c-0.2-19.5-0.1-39-0.1-58.5c0-1.3-0.4-2.6,0.4-3.8c7.2,7.1,14.3,13.9,21.2,21
		c1.9,2,2.9,2.2,4.9,0.1C82.7,69.3,89.8,62.4,96.7,55.5z"/>
	<path class="st1" d="M96.7,55.5c-7,7-14,13.9-20.8,21c-2,2.1-3,1.9-4.9-0.1c-6.9-7.1-14-13.9-21.2-21c-0.7,1.1-0.4,2.5-0.4,3.8
		c0,19.5-0.1,39,0.1,58.5c0,3.2-0.8,4.1-4,3.9c-3.4-0.3-6.7-0.1-10.1,0c-1.6,0-2.5-0.2-2.5-2.2C32.9,90,32.9,60.8,33,31.5
		c0-0.1,0.1-0.2,0.4-0.4c3.1,3.3,6.2,6.5,9.4,9.8c0.3-0.2,0.6-0.3,1-0.5c0-4.6,0-9.2,0-13.8c0.3-0.1,0.6-0.3,0.9-0.4
		c1.8,1.9,3.5,3.8,5.3,5.6c7,7,14,13.9,20.8,21c2,2.1,3.1,2.3,5.3,0.1c7.8-8.1,15.8-16,23.8-23.9c0.9-0.9,1.8-1.7,3.1-2.9
		c0,5.1,0,9.7,0,14.2c0.3,0.2,0.7,0.5,1,0.7c3-3.5,5.9-7.1,9-10.8c1.4,2,1.1,3,1.1,4c0,27.9,0,55.7,0.1,83.6c0,2.9-0.6,4-3.7,3.8
		c-3-0.3-6-0.3-9,0c-3.1,0.3-4-0.7-4-3.9c0.2-19.4,0.1-38.7,0.1-58.1c0-1.2,0-2.4,0-3.7C97.3,55.7,97,55.6,96.7,55.5z M38.3,44
		c0,6.9,0,13.2,0,19.5c0,16.4,0,32.7,0,49.1c0,2.1,0,3.5,2.8,3.5c2.7,0,3-1.3,3-3.5C44,93.3,43.9,74,44.1,54.6
		C44.2,49.9,42.7,46.7,38.3,44z M108.1,44.3c-2.3,2.3-5.3,3.7-5.3,7.8c0.1,20.1,0.1,40.2,0,60.3c0,2.2,0,3.8,3.1,3.7
		c3,0,2.7-1.6,2.7-3.6c0-21.9,0-43.7,0-65.6C108.6,46.2,109,45.3,108.1,44.3z M49.7,39.3c-0.6,7.3-0.6,7.3,3.7,11.6
		c5.8,5.8,11.7,11.6,17.4,17.6c1.9,2,3.1,2.4,5.2,0.1C82,62.3,88,56.1,94.3,50.3c3.4-3.1,3.7-6.3,2.9-10.7c-1.2,1.1-2.1,1.8-2.9,2.7
		c-6,6-12.1,11.9-18,18.1c-2.2,2.3-3.3,2.7-5.7,0.1C64,53.4,57,46.6,49.7,39.3z"/>
	<path class="st2" d="M38.3,44c4.4,2.7,5.9,5.9,5.9,10.6C43.9,74,44,93.3,44.1,112.7c0,2.2-0.2,3.4-3,3.5c-2.9,0-2.8-1.4-2.8-3.5
		c0-16.4,0-32.7,0-49.1C38.3,57.2,38.3,50.9,38.3,44z"/>
	<path class="st2" d="M108.1,44.3c0.9,1,0.5,1.9,0.5,2.7c0,21.9,0,43.7,0,65.6c0,2,0.3,3.6-2.7,3.6c-3,0-3.1-1.5-3.1-3.7
		c0-20.1,0.1-40.2,0-60.3C102.8,47.9,105.8,46.6,108.1,44.3z"/>
	<path class="st3" d="M49.7,39.3c7.4,7.4,14.3,14.1,21,21.2c2.4,2.5,3.6,2.2,5.7-0.1c5.8-6.2,11.9-12.1,18-18.1
		c0.8-0.8,1.8-1.6,2.9-2.7c0.7,4.4,0.5,7.7-2.9,10.7C88,56.1,82,62.3,76,68.6c-2.1,2.3-3.3,1.9-5.2-0.1c-5.7-6-11.6-11.7-17.4-17.6
		C49,46.6,49,46.6,49.7,39.3z"/>
</g>
</svg>
