<svg xmlns="http://www.w3.org/2000/svg" viewBox="0 0 370 410"><defs><style>.cls-1{isolation:isolate;}.cls-2,.cls-3{fill:#2f2445;}.cls-3{opacity:0.5;mix-blend-mode:multiply;}.cls-4{fill:none;}.cls-5{fill:#463b5b;}.cls-6{fill:#e5e5e5;}.cls-7{fill:#c9c9c9;}</style></defs><title>Asset 7</title><g class="cls-1"><g id="Layer_2" data-name="Layer 2"><g id="Layer_4" data-name="Layer 4"><g id="_6" data-name="6"><path class="cls-2" d="M218.33,20.77,206.58,49.68s-1.09,23.57-2.33,31.42c-.62,3.93-2.81,6-5.05,6.75s-4.57.13-5.46-1.4c-1.79-3-1.08-8.56-1.25-19.27a68.83,68.83,0,0,1,.54-9.94,34.43,34.43,0,0,1,1.43-6.67C198.91,39.69,218.33,20.24,218.33,20.77Z"/><path class="cls-3" d="M218.33,20.77,206.58,49.68s-1.09,23.57-2.33,31.42c-.62,3.93-2.81,6-5.05,6.75A66.48,66.48,0,0,1,193,57.24a34.43,34.43,0,0,1,1.43-6.67C198.91,39.69,218.33,20.24,218.33,20.77Z"/><path class="cls-2" d="M235.27,41.62s-4.16,3.89-7.63,7.64c-2.14,2.29-4,4.55-4.49,5.79-1.26,3.27-1.78,2.93-1.6,10.17.09,3.34.4,6.37.61,9a27.25,27.25,0,0,1-.08,7.84c-.36,1.61-2,2.55-3.89,2.71a8.81,8.81,0,0,1-1,0A6.65,6.65,0,0,1,211,80.54c-1.79-5.34-3.4-20.83-3.4-21.87s8.74-13.08,8.74-13.08l10-4.83Z"/><path class="cls-3" d="M222.08,82.1c-.36,1.61-2,2.55-3.89,2.71a2.06,2.06,0,0,1,0-.26c-.4-4.38,2.19-8.19,4-10.29A27.25,27.25,0,0,1,222.08,82.1Z"/><path class="cls-3" d="M235.27,41.62s-4.16,3.89-7.63,7.64a18.89,18.89,0,0,0-6.63,1s-5.46,9.87-7.25,11.54c0,0,2.73,14.72,3.4,23A6.65,6.65,0,0,1,211,80.54c-1.79-5.34-3.4-20.83-3.4-21.87s8.74-13.08,8.74-13.08l10-4.83Z"/><path class="cls-4" d="M233.52,48.05A27.65,27.65,0,0,0,231,45.8c-1.1-.86-1.89-1.36-1.89-1.36S221,46,218.71,48.38l6.22-1.12A16.23,16.23,0,0,1,233.52,48.05Z"/><path class="cls-5" d="M40.43,235.23h0a3.21,3.21,0,0,0,3.73,2.6l206.09-37.05a3.22,3.22,0,0,0-1.14-6.34L43,231.5A3.22,3.22,0,0,0,40.43,235.23Z"/><path class="cls-5" d="M243.5,144.92a3.22,3.22,0,0,0-3.73-2.6L33.68,179.37a3.22,3.22,0,0,0,1.13,6.34L240.9,148.65A3.22,3.22,0,0,0,243.5,144.92Z"/><path class="cls-5" d="M244.44,168.38,38.35,205.44a3.22,3.22,0,0,0,1.14,6.33l206.08-37.06a3.22,3.22,0,0,0-1.13-6.33Z"/><path class="cls-5" d="M45.1,261.3a3.22,3.22,0,0,0,3.73,2.6l206.09-37.06a3.22,3.22,0,1,0-1.13-6.33L47.7,257.56A3.23,3.23,0,0,0,45.1,261.3Z"/><path class="cls-5" d="M67.9,391.72a3.22,3.22,0,0,0,3.73,2.59l206.09-37.05a3.22,3.22,0,1,0-1.13-6.33L70.5,388A3.22,3.22,0,0,0,67.9,391.72Z"/><path class="cls-5" d="M63.23,365.65a3.21,3.21,0,0,0,3.73,2.6L273.05,331.2a3.22,3.22,0,0,0,2.59-3.74h0a3.21,3.21,0,0,0-3.73-2.6L65.82,361.92A3.21,3.21,0,0,0,63.23,365.65Z"/><path class="cls-5" d="M49.78,287.36a3.21,3.21,0,0,0,3.73,2.6L259.6,252.9a3.21,3.21,0,0,0,2.59-3.73h0a3.21,3.21,0,0,0-3.73-2.6L52.37,283.63A3.2,3.2,0,0,0,49.78,287.36Z"/><path class="cls-5" d="M53.88,313.53a3.2,3.2,0,0,0,3.73,2.59L263.7,279.07a3.22,3.22,0,1,0-1.13-6.33L56.48,309.79A3.22,3.22,0,0,0,53.88,313.53Z"/><path class="cls-5" d="M58.55,339.59a3.23,3.23,0,0,0,3.74,2.6l206.08-37.06a3.22,3.22,0,0,0-1.13-6.33L61.15,335.85A3.23,3.23,0,0,0,58.55,339.59Z"/><path class="cls-5" d="M103.26,116.32a3.21,3.21,0,0,0,3.73,2.6l124.56-22.4a3.21,3.21,0,0,0,1.19-5.85c-4.39,3.82-8.38,6.15-10.78,5.18-1.33-.54-2.14-1.9-2.52-3.68L105.85,112.59A3.21,3.21,0,0,0,103.26,116.32Z"/><path class="cls-5" d="M111.66,145l124.57-22.39a3.22,3.22,0,0,0-1.14-6.34l-124.56,22.4a3.22,3.22,0,1,0,1.13,6.33Z"/><path class="cls-5" d="M34.18,158.92,78.24,151a7.33,7.33,0,0,0,5.91-8.5l-7.9-44a7.33,7.33,0,0,0-8.5-5.92l-44,7.93a7.31,7.31,0,0,0-5.91,8.5l7.89,44A7.33,7.33,0,0,0,34.18,158.92Z"/><path class="cls-6" d="M296.27,352.76l-49.66-277c-.32.35-.62.69-.89,1a114.85,114.85,0,0,1-13,13.85,3.21,3.21,0,0,1-1.19,5.85L107,118.92a3.22,3.22,0,0,1-1.14-6.33L219.44,92.17a20,20,0,0,1,3-13.7,9,9,0,0,1,1-1.18c4.08-4.09,12-14.64,13.59-20.57a7.78,7.78,0,0,0,.19-.85,4.14,4.14,0,0,0,.06-.7,6.1,6.1,0,0,0-.31-2.06,13.59,13.59,0,0,0-3.4-5.06,16.23,16.23,0,0,0-8.59-.79l-6.22,1.12-20.47,3.68L13.42,85.29A16.31,16.31,0,0,0,.26,104.24L52.68,396.56A16.3,16.3,0,0,0,71.6,409.74l211.51-38A16.31,16.31,0,0,0,296.27,352.76ZM110.53,138.65l124.56-22.4a3.22,3.22,0,0,1,1.14,6.34L111.66,145a3.22,3.22,0,1,1-1.13-6.33Zm-9.35-52.13,97.16-17.47,13.09-2.35,14.32-2.57a3.22,3.22,0,1,1,1.13,6.33l-14.46,2.6-12.33,2.22L102.31,92.86a3.22,3.22,0,0,1-1.13-6.34ZM25.68,153l-7.89-44a7.31,7.31,0,0,1,5.91-8.5l44.05-7.93a7.33,7.33,0,0,1,8.5,5.92l7.9,44a7.33,7.33,0,0,1-5.91,8.5l-44.06,7.93A7.33,7.33,0,0,1,25.68,153Zm5.4,30.11a3.23,3.23,0,0,1,2.6-3.74l206.09-37.05a3.22,3.22,0,1,1,1.13,6.33L34.81,185.71A3.22,3.22,0,0,1,31.08,183.11Zm4.68,26.06a3.2,3.2,0,0,1,2.59-3.73l206.09-37.06a3.22,3.22,0,0,1,1.13,6.33L39.49,211.77A3.21,3.21,0,0,1,35.76,209.17Zm4.67,26.06h0A3.22,3.22,0,0,1,43,231.5l206.09-37.06a3.22,3.22,0,0,1,1.14,6.34L44.16,237.83A3.21,3.21,0,0,1,40.43,235.23ZM45.1,261.3a3.23,3.23,0,0,1,2.6-3.74l206.09-37.05a3.22,3.22,0,1,1,1.13,6.33L48.83,263.9A3.22,3.22,0,0,1,45.1,261.3Zm4.68,26.06a3.2,3.2,0,0,1,2.59-3.73l206.09-37.06a3.21,3.21,0,0,1,3.73,2.6h0a3.21,3.21,0,0,1-2.59,3.73L53.51,290A3.21,3.21,0,0,1,49.78,287.36Zm4.1,26.17a3.22,3.22,0,0,1,2.6-3.74l206.09-37.05a3.22,3.22,0,1,1,1.13,6.33L57.61,316.12A3.2,3.2,0,0,1,53.88,313.53Zm4.67,26.06a3.23,3.23,0,0,1,2.6-3.74L267.24,298.8a3.22,3.22,0,0,1,1.13,6.33L62.29,342.19A3.23,3.23,0,0,1,58.55,339.59Zm4.68,26.06a3.21,3.21,0,0,1,2.59-3.73l206.09-37.06a3.22,3.22,0,0,1,1.14,6.34L67,368.25A3.21,3.21,0,0,1,63.23,365.65Zm214.49-8.39L71.63,394.31A3.22,3.22,0,1,1,70.5,388l206.09-37.05a3.22,3.22,0,1,1,1.13,6.33Z"/><path class="cls-2" d="M296.59.18C285.65-.77,269,2.09,252.38,7.8s-33,10.23-35.89,13.08a46.78,46.78,0,0,0-4,5.61s0,0,0,0c-4.52,7-11.27,18.66-14.26,25.55l20.47-3.68c2.32-2.39,10.38-3.94,10.38-3.94s.79.5,1.89,1.36a27.65,27.65,0,0,1,2.54,2.25,13.59,13.59,0,0,1,3.4,5.06l1.68-2L242,47a21.36,21.36,0,0,1-2.14,5.4A31.55,31.55,0,0,1,237,56.72c-1.57,5.93-9.51,16.48-13.59,20.57a9,9,0,0,0-1,1.18,20,20,0,0,0-3,13.7c.38,1.78,1.19,3.14,2.52,3.68,2.4,1,6.39-1.36,10.78-5.18a114.85,114.85,0,0,0,13-13.85c.27-.34.57-.68.89-1,9.06-9.93,35.44-23.83,40.95-40.39,0,0,2.6-3.89,9-4.44a14.25,14.25,0,0,0-5.36,3.85A18.12,18.12,0,0,1,298,37.3c.94.53,2.31,1.43,4,2.59,5.27-11.25,15.33-25.45,19.18-30.7C311.28,4.66,301.28.58,296.59.18Z"/><path class="cls-5" d="M229.48,66.73a3.22,3.22,0,0,0-3.73-2.6L211.43,66.7l-13.09,2.35L101.18,86.52a3.22,3.22,0,0,0,1.13,6.34l97.78-17.58,12.33-2.22,14.46-2.6A3.22,3.22,0,0,0,229.48,66.73Z"/><path class="cls-2" d="M321.17,9.19c-3.85,5.25-13.91,19.45-19.18,30.7,1.74,1.2,3.8,2.69,6,4.34l15.74-33.84C322.91,10,322,9.58,321.17,9.19Z"/><path class="cls-3" d="M321.17,9.19c-3.85,5.25-13.91,19.45-19.18,30.7,1.74,1.2,3.8,2.69,6,4.34l15.74-33.84C322.91,10,322,9.58,321.17,9.19Z"/><path class="cls-2" d="M238.6,51.11l-1.68,2a6.1,6.1,0,0,1,.31,2.06,4.14,4.14,0,0,1-.06.7,7.78,7.78,0,0,1-.19.85,31.55,31.55,0,0,0,2.92-4.32A21.36,21.36,0,0,0,242,47Z"/><path class="cls-3" d="M238.6,51.11l-1.68,2a6.1,6.1,0,0,1,.31,2.06,4.14,4.14,0,0,1-.06.7,7.78,7.78,0,0,1-.19.85,31.55,31.55,0,0,0,2.92-4.32A21.36,21.36,0,0,0,242,47Z"/><path class="cls-2" d="M296.53,31c-6.37.55-9,4.44-9,4.44s1.06-.88,3.61-.59A14.25,14.25,0,0,1,296.53,31Z"/><path class="cls-3" d="M296.53,31c-6.37.55-9,4.44-9,4.44s1.06-.88,3.61-.59A14.25,14.25,0,0,1,296.53,31Z"/><polygon class="cls-6" points="326.46 4.6 323.77 10.39 308.03 44.23 303.09 54.86 312.57 61.02 317.05 51 333.17 14.88 335.38 9.94 326.46 4.6"/><path class="cls-7" d="M336.5,7.43l-1.12,2.51-2.21,4.94L317.05,51l-4.48,10-2.15,4.82,6.78,4.36a5.2,5.2,0,0,1-.13-1.25,5.7,5.7,0,1,1,6.91,5.6l6.24,4a5.57,5.57,0,0,1-.34-2,5.7,5.7,0,1,1,6.17,5.71l7.2,4.62L370,27.38Z"/><path class="cls-2" d="M322.79,63.26A5.71,5.71,0,0,0,317.07,69a5.2,5.2,0,0,0,.13,1.25,5.71,5.71,0,0,0,5.55,4.48,5.58,5.58,0,0,0,1.23-.13,5.71,5.71,0,0,0-1.19-11.29Z"/><path class="cls-2" d="M335.6,70.92a5.7,5.7,0,0,0-5.72,5.69,5.57,5.57,0,0,0,.34,2,5.7,5.7,0,0,0,5.34,3.77l.49,0a5.71,5.71,0,0,0-.45-11.4Z"/></g><path class="cls-7" d="M67.27,114.45a2.53,2.53,0,1,1-2.06,2.93A2.54,2.54,0,0,1,67.27,114.45Z"/><path class="cls-7" d="M31.8,120.61a2.53,2.53,0,1,1-2.07,2.93A2.53,2.53,0,0,1,31.8,120.61Z"/><path class="cls-7" d="M52.87,136.84c-3.45.6-6.48-.21-7.35-2a.8.8,0,0,1,1.43-.71c.46.93,2.75,1.61,5.65,1.11s4.85-1.92,5-3a.81.81,0,0,1,.89-.7.8.8,0,0,1,.7.88C58.92,134.45,56.34,136.24,52.87,136.84Z"/></g></g></g></svg>