<svg id="Group_1" data-name="Group 1" xmlns="http://www.w3.org/2000/svg" viewBox="0 0 46 46">
  <defs>
    <style>
      .cls-1 {
        fill: #fff;
      }

      .cls-2 {
        fill: #232323;
        opacity: 0.5;
      }
    </style>
  </defs>
  <path id="Path_1" data-name="Path 1" class="cls-1" d="M38.333,0H7.667A7.67,7.67,0,0,0,0,7.667V38.333a7.616,7.616,0,0,0,.889,3.573c.016.015,0,.015,0,.015l.276.46a7.275,7.275,0,0,0,1.948,2.1A7.361,7.361,0,0,0,5.045,45.54,7.793,7.793,0,0,0,7.667,46H38.333a7.793,7.793,0,0,0,2.622-.46,7.361,7.361,0,0,0,1.932-1.058,7.275,7.275,0,0,0,1.948-2.1l.276-.46s-.016,0,0-.015A7.616,7.616,0,0,0,46,38.333V7.667A7.67,7.67,0,0,0,38.333,0Z"/>
  <path id="Path_2" data-name="Path 2" class="cls-2" d="M23,24.235a8.951,8.951,0,1,1,8.952-8.95A8.96,8.96,0,0,1,23,24.235ZM23,9.281a6,6,0,1,0,6,6A6.01,6.01,0,0,0,23,9.281ZM3.625,39.338a1.469,1.469,0,0,0,2.149-.322,20.582,20.582,0,0,1,34.452,0,1.469,1.469,0,0,0,2.149.322h0a1.474,1.474,0,0,0,.332-1.944,23.567,23.567,0,0,0-39.414,0,1.474,1.474,0,0,0,.332,1.944Z"/>
</svg>
