<svg xmlns="http://www.w3.org/2000/svg" viewBox="0 0 268.11 375"><defs><style>.cls-1{fill:#2f2445;}.cls-2{fill:#e5e5e5;}.cls-3{fill:#c9c9c9;}</style></defs><title>Asset 4</title><g id="Layer_2" data-name="Layer 2"><g id="_2._Accountability" data-name="2. Accountability"><g id="_4" data-name="4"><path class="cls-1" d="M0,351V48.7a24,24,0,0,1,24-24H244.14a24,24,0,0,1,24,24V351a24,24,0,0,1-24,24H24A24,24,0,0,1,0,351Z"/><rect class="cls-2" x="9.93" y="34.65" width="248.25" height="330.42" rx="16.33" ry="16.33"/><path class="cls-3" d="M36.74,94.7V79.54a3.12,3.12,0,0,1,3.12-3.12H55a3.12,3.12,0,0,1,3.12,3.12V94.7A3.12,3.12,0,0,1,55,97.82H39.86A3.12,3.12,0,0,1,36.74,94.7Z"/><path class="cls-3" d="M225,84.36H84a3.23,3.23,0,0,1-3.22-3.23h0A3.22,3.22,0,0,1,84,77.91H225a3.23,3.23,0,0,1,3.23,3.22h0A3.23,3.23,0,0,1,225,84.36Zm-67.65,8.75h0a3.22,3.22,0,0,0-3.22-3.23H84a3.22,3.22,0,0,0-3.22,3.23h0A3.22,3.22,0,0,0,84,96.33h70.14A3.22,3.22,0,0,0,157.31,93.11Z"/><path class="cls-3" d="M36.74,151.08V135.91a3.12,3.12,0,0,1,3.12-3.12H55a3.12,3.12,0,0,1,3.12,3.12v15.17A3.12,3.12,0,0,1,55,154.19H39.86A3.12,3.12,0,0,1,36.74,151.08Z"/><path class="cls-3" d="M225,140.73H84a3.22,3.22,0,0,1-3.22-3.22h0A3.22,3.22,0,0,1,84,134.28H225a3.23,3.23,0,0,1,3.23,3.23h0A3.23,3.23,0,0,1,225,140.73Zm-67.65,8.75h0a3.23,3.23,0,0,0-3.22-3.23H84a3.23,3.23,0,0,0-3.22,3.23h0A3.22,3.22,0,0,0,84,152.7h70.14A3.22,3.22,0,0,0,157.31,149.48Z"/><path class="cls-3" d="M35.75,207.45V192.28a3.11,3.11,0,0,1,3.11-3.11H54.05a3.11,3.11,0,0,1,3.11,3.11v15.17a3.11,3.11,0,0,1-3.11,3.11H38.86A3.11,3.11,0,0,1,35.75,207.45Z"/><path class="cls-3" d="M224,197.1H83a3.22,3.22,0,0,1-3.22-3.22h0A3.23,3.23,0,0,1,83,190.65H224a3.23,3.23,0,0,1,3.22,3.23h0A3.22,3.22,0,0,1,224,197.1Zm-67.65,8.75h0a3.22,3.22,0,0,0-3.23-3.22H83a3.22,3.22,0,0,0-3.22,3.22h0A3.23,3.23,0,0,0,83,209.08h70.13A3.23,3.23,0,0,0,156.32,205.85Z"/><path class="cls-3" d="M36.08,263.82V248.66a3.11,3.11,0,0,1,3.12-3.12H54.38a3.11,3.11,0,0,1,3.11,3.12v15.16a3.12,3.12,0,0,1-3.11,3.12H39.2A3.12,3.12,0,0,1,36.08,263.82Z"/><path class="cls-3" d="M224.3,253.48h-141a3.23,3.23,0,0,1-3.22-3.23h0A3.22,3.22,0,0,1,83.29,247h141a3.23,3.23,0,0,1,3.23,3.22h0A3.23,3.23,0,0,1,224.3,253.48Zm-67.65,8.74h0a3.22,3.22,0,0,0-3.22-3.22H83.29a3.22,3.22,0,0,0-3.22,3.22h0a3.22,3.22,0,0,0,3.22,3.23h70.14A3.22,3.22,0,0,0,156.65,262.22Z"/><path class="cls-3" d="M38.33,320.19V305a3.12,3.12,0,0,1,3.12-3.12H56.63A3.12,3.12,0,0,1,59.75,305v15.16a3.12,3.12,0,0,1-3.12,3.12H41.45A3.12,3.12,0,0,1,38.33,320.19Z"/><path class="cls-3" d="M226.55,309.85h-141a3.22,3.22,0,0,1-3.22-3.22h0a3.22,3.22,0,0,1,3.22-3.23h141a3.23,3.23,0,0,1,3.23,3.23h0A3.23,3.23,0,0,1,226.55,309.85ZM158.9,318.6h0a3.23,3.23,0,0,0-3.22-3.23H85.54a3.23,3.23,0,0,0-3.22,3.23h0a3.22,3.22,0,0,0,3.22,3.22h70.14A3.22,3.22,0,0,0,158.9,318.6Z"/><path class="cls-1" d="M186.61,11.1h-41.4a11.16,11.16,0,0,0-22.32,0H81.5a7.74,7.74,0,0,0-7.74,7.74V40.92a7.75,7.75,0,0,0,7.74,7.74H186.61a7.75,7.75,0,0,0,7.74-7.74V18.84A7.74,7.74,0,0,0,186.61,11.1Zm-52.56,5.17a5.12,5.12,0,1,1,5.13-5.12A5.12,5.12,0,0,1,134.05,16.27Z"/><path class="cls-3" d="M155.22,20.94a3,3,0,1,1-3,3A3,3,0,0,1,155.22,20.94Z"/><path class="cls-3" d="M112.89,20.94a3,3,0,1,1-3,3A3,3,0,0,1,112.89,20.94Z"/><path class="cls-3" d="M134.05,38.81c-4.13,0-7.47-1.54-8.13-3.76a.94.94,0,0,1,1.8-.53c.35,1.16,2.86,2.42,6.33,2.42s6-1.26,6.33-2.42a1,1,0,0,1,1.17-.63.93.93,0,0,1,.63,1.16C141.53,37.27,138.18,38.81,134.05,38.81Z"/><path class="cls-1" d="M130.1,179.28l16.31,23.19-66.93,47L63.16,226.32Zm36.43-4.4-4.29-6.1c-3-4.31-9.47-5.43-14.25-2.48l-11.34,8L153,197.45l11.78-8.27C168.82,186.34,170.25,180.16,166.53,174.88ZM46.67,254.72c-.41.88-.3,1.7.93,1.76l24.78-1.58L56.06,231.71Z"/><path class="cls-1" d="M48.32,93.72A2.51,2.51,0,0,1,46.51,93l-6.7-7.07a2.48,2.48,0,0,1,3.61-3.41l5,5.3L64,73.65a2.48,2.48,0,0,1,3.33,3.68L50,93.08A2.46,2.46,0,0,1,48.32,93.72Z"/><path class="cls-1" d="M48.32,150.1a2.48,2.48,0,0,1-1.81-.78l-6.7-7.07a2.48,2.48,0,0,1,3.61-3.41l5,5.31L64,130a2.48,2.48,0,1,1,3.33,3.67L50,149.45A2.47,2.47,0,0,1,48.32,150.1Z"/><path class="cls-1" d="M48.32,205.85a2.51,2.51,0,0,1-1.81-.77L39.81,198a2.48,2.48,0,0,1,3.61-3.41l5,5.3L64,185.78a2.48,2.48,0,0,1,3.33,3.68L50,205.21A2.46,2.46,0,0,1,48.32,205.85Z"/></g></g></g></svg>