<svg id="Layer_1" data-name="Layer 1" xmlns="http://www.w3.org/2000/svg" viewBox="0 0 10 12"><title>AdminIconShield</title><path d="M9.85.15A.48.48,0,0,0,9.5,0H.5A.48.48,0,0,0,.15.15.48.48,0,0,0,0,.5v6A3.59,3.59,0,0,0,.26,7.83,5,5,0,0,0,.91,9a7.23,7.23,0,0,0,.92,1,10.74,10.74,0,0,0,1,.8q.45.32.95.61l.7.39L4.8,12a.46.46,0,0,0,.41,0l.33-.16.7-.39q.49-.28.95-.61a10.74,10.74,0,0,0,1-.8,7.24,7.24,0,0,0,.92-1,5,5,0,0,0,.65-1.17A3.59,3.59,0,0,0,10,6.5V.5A.48.48,0,0,0,9.85.15ZM8.5,6.5q0,1.38-1.84,2.81A11,11,0,0,1,5,10.38V1.5H8.5Z"/></svg>