<?xml version="1.0" encoding="utf-8"?>
<!-- Generator: Adobe Illustrator 21.1.0, SVG Export Plug-In . SVG Version: 6.00 Build 0)  -->
<svg version="1.1" id="Layer_1" xmlns="http://www.w3.org/2000/svg" xmlns:xlink="http://www.w3.org/1999/xlink" x="0px" y="0px"
	 viewBox="0 0 16 16" style="enable-background:new 0 0 16 16;" xml:space="preserve">
<style type="text/css">
	.st0{fill:#232323;}
	.st1{fill:#FFFFFF;}
</style>
<g id="Admin_Icon_Shield_Group" transform="translate(9889.563 1191.813)">
	<path class="st0" d="M-9873.6-1187.8v8c0,2.2-1.8,4-4,4h-8c-2.2,0-4-1.8-4-4v-8c0-2.2,1.8-4,4-4h8
		C-9875.4-1191.8-9873.6-1190-9873.6-1187.8z"/>
	<path id="AdminIconShield-2" class="st1" d="M-9877.9-1188.7c-0.1-0.1-0.2-0.1-0.3-0.1h-7c-0.1,0-0.2,0-0.3,0.1s-0.1,0.2-0.1,0.3
		v4.7c0,0.4,0.1,0.7,0.2,1c0.1,0.3,0.3,0.6,0.5,0.9s0.5,0.5,0.7,0.8c0.2,0.2,0.5,0.4,0.8,0.6c0.2,0.2,0.5,0.3,0.7,0.5l0.5,0.3
		l0.3,0.2c0.1,0.1,0.2,0.1,0.3,0l0.3-0.1l0.5-0.3c0.3-0.1,0.5-0.3,0.7-0.5c0.3-0.2,0.5-0.4,0.8-0.6s0.5-0.5,0.7-0.8s0.4-0.6,0.5-0.9
		s0.2-0.7,0.2-1.1v-4.7C-9877.7-1188.5-9877.8-1188.6-9877.9-1188.7z M-9878.9-1183.7c-0.1,0.9-0.6,1.7-1.4,2.2
		c-0.4,0.3-0.8,0.6-1.3,0.8v-6.9h2.7V-1183.7z"/>
</g>
</svg>
