<?xml version="1.0" encoding="utf-8"?>
<!-- Generator: Adobe Illustrator 22.1.0, SVG Export Plug-In . SVG Version: 6.00 Build 0)  -->
<svg version="1.1" id="Layer_1" xmlns="http://www.w3.org/2000/svg" xmlns:xlink="http://www.w3.org/1999/xlink" x="0px" y="0px"
	 viewBox="0 0 10 10" style="enable-background:new 0 0 10 10;" xml:space="preserve">
<style type="text/css">
	.st0{fill:#232323;}
	.st1{fill:#FFFFFF;}
</style>
<g>
	<path class="st0" d="M0-5h10c2.8,0,5,2.2,5,5v10c0,2.8-2.2,5-5,5H0c-2.8,0-5-2.2-5-5V0C-5-2.8-2.8-5,0-5z"/>
	<path id="AdminIconShield-2" class="st1" d="M8.9,0.1C8.8,0,8.7,0,8.6,0H1.4C1.3,0,1.2,0,1.1,0.1C1,0.2,1,0.3,1,0.4v5
		c0,0.4,0.1,0.8,0.2,1.1c0.1,0.3,0.3,0.7,0.5,1C1.9,7.8,2.2,8,2.5,8.3C2.7,8.5,3,8.8,3.3,9C3.5,9.1,3.7,9.3,4,9.5l0.6,0.3L4.8,10
		C4.9,10,5.1,10,5.2,10l0.3-0.1L6,9.5C6.2,9.4,6.5,9.2,6.7,9C7,8.8,7.3,8.6,7.5,8.3c0.3-0.3,0.5-0.5,0.7-0.8c0.2-0.3,0.4-0.6,0.5-1
		C8.9,6.2,9,5.8,9,5.4v-5C9,0.3,9,0.2,8.9,0.1z M7.8,5.4c-0.1,1-0.7,1.8-1.5,2.3C5.9,8.1,5.5,8.4,5,8.6V1.2h2.8V5.4z"/>
</g>
</svg>
