<?xml version="1.0" encoding="utf-8"?>
<!-- Generator: Adobe Illustrator 21.1.0, SVG Export Plug-In . SVG Version: 6.00 Build 0)  -->
<svg version="1.1" id="Layer_1" xmlns="http://www.w3.org/2000/svg" xmlns:xlink="http://www.w3.org/1999/xlink" x="0px" y="0px"
	 viewBox="0 0 14.6 15.1" style="enable-background:new 0 0 14.6 15.1;" xml:space="preserve">
<style type="text/css">
	.st0{fill:#BCBCCB;}
	.st1{fill:#FFC06A;}
</style>
<g>
	<path class="st0" d="M4.9,13.5c0.1,1,0.8,1.7,1.7,1.6c0.8,0.1,1.5-0.6,1.6-1.6H4.9z M12.2,11.1h-0.4c-0.6-0.5-1.1-1.4-1.2-2.4V7.3
		C8.7,6.9,7.3,5.2,7.3,3.2c0-0.3,0-0.6,0.1-0.8C7.1,2.3,6.8,2.3,6.5,2.3c-2.3,0-4.1,1.8-4.1,4v2.4c-0.1,1-0.6,1.9-1.2,2.4H0.8
		c-0.5,0-0.8,0.3-0.8,0.8s0.3,0.8,0.8,0.8h11.4c0.5,0,0.8-0.3,0.8-0.8S12.7,11.1,12.2,11.1z"/>
	<path class="st1" d="M11.4,0c1.8,0,3.2,1.4,3.2,3.2s-1.4,3.2-3.2,3.2S8.3,5,8.3,3.2S9.6,0,11.4,0z"/>
</g>
</svg>
