<?xml version="1.0" encoding="utf-8"?>
<!-- Generator: Adobe Illustrator 21.1.0, SVG Export Plug-In . SVG Version: 6.00 Build 0)  -->
<svg version="1.1" id="Layer_1" xmlns="http://www.w3.org/2000/svg" xmlns:xlink="http://www.w3.org/1999/xlink" x="0px" y="0px"
	 viewBox="0 0 13 12.8" style="enable-background:new 0 0 13 12.8;" xml:space="preserve">
<style type="text/css">
	.st0{fill:#BCBCCB;}
	.st1{display:none;fill:#FFC06A;}
	.st2{display:none;fill:none;stroke:#FFFFFF;stroke-width:2;}
</style>
<path class="st0" d="M4.9,11.2h3.3c-0.1,1-0.8,1.7-1.6,1.6C5.7,12.9,5,12.2,4.9,11.2z M0.8,10.4C0.3,10.4,0,10.1,0,9.6
	s0.3-0.8,0.8-0.8h0.4c0.6-0.5,1.1-1.4,1.2-2.4V4c0-2.2,1.8-4,4.1-4s4.1,1.8,4.1,4v2.4c0.1,1,0.6,1.9,1.2,2.4h0.4
	c0.5,0,0.8,0.3,0.8,0.8c0,0.5-0.3,0.8-0.8,0.8H0.8z"/>
<path class="st1" d="M11.2-4c1.8,0,3.2,1.4,3.2,3.2S13,2.4,11.2,2.4S8,1,8-0.8S9.4-4,11.2-4z"/>
<path class="st2" d="M11.2-5c2.3,0,4.2,1.9,4.2,4.2s-1.9,4.2-4.2,4.2S7,1.5,7-0.8S8.9-5,11.2-5z"/>
</svg>
