<?xml version="1.0" encoding="utf-8"?>
<!-- Generator: Adobe Illustrator 22.1.0, SVG Export Plug-In . SVG Version: 6.00 Build 0)  -->
<svg version="1.1" id="Layer_1" xmlns="http://www.w3.org/2000/svg" xmlns:xlink="http://www.w3.org/1999/xlink" x="0px" y="0px"
	 viewBox="0 0 12 14" style="enable-background:new 0 0 12 14;" xml:space="preserve" fill="#000">
<g>
	<path d="M11.3,12.6C10.9,9.9,9.5,7.8,7.8,7c1.8-0.8,3.1-2.9,3.5-5.6c0.4,0,0.7-0.3,0.7-0.7S11.7,0,11.4,0l0,0h-0.1H0.8H0.6l0,0
		C0.3,0,0,0.3,0,0.7s0.3,0.7,0.7,0.7C1.1,4.1,2.5,6.2,4.2,7c-1.8,0.8-3.1,2.9-3.5,5.6c-0.4,0-0.7,0.3-0.7,0.7S0.3,14,0.6,14l0,0h0.1
		h10.5h0.1l0,0c0.3-0.1,0.6-0.4,0.6-0.7C12,12.9,11.7,12.6,11.3,12.6z M1.8,12.6c0.4-2.7,2-4.8,3.9-5V6.4c-1.9-0.2-3.5-2.2-3.9-5
		h8.5c-0.4,2.7-2,4.8-3.9,5v1.2c1.9,0.2,3.5,2.2,3.9,5H1.8z M9.1,11.9H2.9l3.1-3C7.7,8.8,9.1,10.1,9.1,11.9z"/>
</g>
</svg>
