<svg id="Layer_1" data-name="Layer 1" xmlns="http://www.w3.org/2000/svg" viewBox="0 0 30 30"><defs><style>.cls-1{fill:#232323;}</style></defs><title>AttachIcon</title><path class="cls-1" d="M18.18.38a1.39,1.39,0,0,1,.05,2L4.37,17.1a6.05,6.05,0,0,0,.24,8.49A5.93,5.93,0,0,0,13,25.35L26.12,11.41l.13-.14A3.72,3.72,0,0,0,26.11,6a3.65,3.65,0,0,0-5.18.14l-.13.14L7.7,20.27h0a1.4,1.4,0,0,0,.05,2,1.37,1.37,0,0,0,1.94-.05l9.2-9.8a1.37,1.37,0,0,1,1.94-.05,1.39,1.39,0,0,1,.05,2l-9.2,9.8a1.39,1.39,0,0,1-.21.18,4.09,4.09,0,0,1-5.62,0,4.18,4.18,0,0,1-.33-5.65l.06-.08.11-.14h0L18.79,4.43l.13-.14A6.39,6.39,0,0,1,28,4a6.51,6.51,0,0,1,.25,9.14l-.13.14L15,27.26a8.67,8.67,0,0,1-12.31.34,8.85,8.85,0,0,1-.35-12.4h0L16.23.43A1.37,1.37,0,0,1,18.18.38Z" transform="translate(0 0)"/></svg>