<?xml version="1.0" encoding="utf-8"?>
<!-- Generator: Adobe Illustrator 22.1.0, SVG Export Plug-In . SVG Version: 6.00 Build 0)  -->
<svg version="1.1" id="Layer_1" xmlns="http://www.w3.org/2000/svg" xmlns:xlink="http://www.w3.org/1999/xlink" x="0px" y="0px"
	 viewBox="0 0 30 30" style="enable-background:new 0 0 30 30;" xml:space="preserve" fill="#000">
<g>
	<title>AttachIcon</title>
	<path d="M18.2,0.4c0.6,0.5,0.6,1.4,0.1,2c0,0,0,0,0,0L4.4,17.1c-2.3,2.4-2.1,6.2,0.2,8.5c2.4,2.3,6.1,2.1,8.4-0.2c0,0,0,0,0,0
		l13.1-13.9l0.1-0.1c1.4-1.5,1.4-3.8-0.1-5.3c0,0,0,0,0,0c-1.5-1.4-3.8-1.3-5.2,0.1c0,0,0,0,0,0l-0.1,0.1l-13.1,14l0,0
		c-0.5,0.6-0.5,1.4,0,2c0,0,0,0,0,0c0.5,0.5,1.4,0.5,1.9,0c0,0,0,0,0,0l9.2-9.8c0.5-0.5,1.4-0.6,1.9-0.1c0,0,0,0,0,0
		c0.6,0.5,0.6,1.4,0.1,2c0,0,0,0,0,0l-9.2,9.8c-0.1,0.1-0.1,0.1-0.2,0.2c-1.6,1.5-4,1.5-5.6,0c-1.6-1.5-1.7-4-0.3-5.6l0.1-0.1
		l0.1-0.1l0,0L18.8,4.4l0.1-0.1c2.4-2.6,6.4-2.7,9-0.3c0,0,0,0,0,0c2.6,2.5,2.7,6.5,0.3,9.1l-0.1,0.1L15,27.3
		c-3.3,3.5-8.8,3.7-12.3,0.4c0,0,0,0-0.1-0.1c-3.5-3.3-3.6-8.9-0.3-12.4l0,0L16.2,0.4C16.7-0.1,17.6-0.2,18.2,0.4
		C18.2,0.4,18.2,0.4,18.2,0.4z"/>
</g>
</svg>
