<svg xmlns="http://www.w3.org/2000/svg" viewBox="0 0 723.58 356.21"><defs><style>.cls-1{fill:#2f2445;}.cls-2{fill:#c9c9c9;}.cls-3{fill:none;stroke:#2f2445;stroke-linecap:round;stroke-linejoin:round;stroke-width:10px;}</style></defs><title>Asset 5</title><g id="Layer_2" data-name="Layer 2"><g id="_3._Better_Communicate" data-name="3. Better Communicate"><path class="cls-1" d="M135.7,299.51a4,4,0,0,1,2.83-3.62c2.48-1,5.47-.13,6.67,1.87l28.5,47.37c1.2,2,.16,4.4-2.32,5.36s-5.48.13-6.68-1.87l-28.5-47.37A3.35,3.35,0,0,1,135.7,299.51Z"/><path class="cls-1" d="M23.55,346.87a3.35,3.35,0,0,1,.5-1.74l28.5-47.37c1.2-2,4.19-2.83,6.67-1.87s3.53,3.36,2.33,5.36l-28.5,47.37c-1.2,2-4.19,2.83-6.68,1.87A4,4,0,0,1,23.55,346.87Z"/><path class="cls-1" d="M94,299.08c.18-2.08,2.35-3.67,5-3.59s5,2,5,4.18l-.12,52.67c0,2.21-2.25,4-5,3.86s-5-1.95-5-4.17l.12-52.68C93.94,299.26,94,299.17,94,299.08Z"/><path class="cls-1" d="M191.54,264.48h-2c-11-57.26-17.9-116-28.89-173.26h1.65a6.21,6.21,0,1,0,0-12.42H35.46a6.21,6.21,0,0,0,0,12.42h1.65c-11,57.25-17.92,116-28.89,173.26h-2A6.21,6.21,0,0,0,0,270.69H0a6.21,6.21,0,0,0,6.21,6.21H191.54a6.21,6.21,0,0,0,6.21-6.21h0A6.21,6.21,0,0,0,191.54,264.48Z"/><path class="cls-2" d="M136.15,158a5.18,5.18,0,1,1-5.19,5.18A5.19,5.19,0,0,1,136.15,158Z"/><path class="cls-2" d="M62.44,158a5.18,5.18,0,1,1-5.19,5.18A5.18,5.18,0,0,1,62.44,158Z"/><path class="cls-2" d="M99.28,198.15c-7.19,0-13-2.69-14.14-6.54a1.63,1.63,0,1,1,3.13-.93c.6,2,5,4.21,11,4.21s10.44-2.18,11-4.21a1.63,1.63,0,0,1,3.13.93C112.31,195.46,106.48,198.15,99.28,198.15Z"/><path class="cls-1" d="M719.56,141.33a4.05,4.05,0,0,1,3.62,2.82c1,2.49.13,5.48-1.87,6.68l-47.37,28.5c-2,1.2-4.4.16-5.36-2.33s-.13-5.47,1.87-6.67l47.37-28.5A3.32,3.32,0,0,1,719.56,141.33Z"/><path class="cls-1" d="M672.19,29.18a3.38,3.38,0,0,1,1.75.5l47.37,28.5c2,1.2,2.83,4.19,1.87,6.67s-3.37,3.53-5.36,2.33l-47.37-28.5c-2-1.2-2.84-4.19-1.87-6.68A4,4,0,0,1,672.19,29.18Z"/><path class="cls-1" d="M720,99.58c2.09.18,3.68,2.35,3.59,5s-2,5-4.17,5l-52.67-.12c-2.21,0-4-2.25-3.87-5s2-5,4.18-5l52.67.12Z"/><path class="cls-1" d="M631.85,11.84v2c-57.26,11-116,17.91-173.26,28.9V41.09a6.21,6.21,0,0,0-12.42,0V167.92a6.21,6.21,0,0,0,12.42,0v-1.65c57.26,11,116,17.92,173.26,28.89v2a6.21,6.21,0,0,0,6.21,6.21h0a6.21,6.21,0,0,0,6.21-6.21V11.84a6.21,6.21,0,0,0-6.21-6.21h0A6.21,6.21,0,0,0,631.85,11.84Z"/><path class="cls-2" d="M584.88,82.31a5.18,5.18,0,1,1-5.19,5.18A5.18,5.18,0,0,1,584.88,82.31Z"/><path class="cls-2" d="M511.16,82.31A5.18,5.18,0,1,1,506,87.49,5.18,5.18,0,0,1,511.16,82.31Z"/><path class="cls-2" d="M562.05,115c-.61,3.74-3.18,11.74-14.21,11.74s-13.6-8-14.2-11.74a1.62,1.62,0,0,1,1.6-1.88h25.2A1.63,1.63,0,0,1,562.05,115Z"/><path class="cls-3" d="M99,87.16s7.25-82,88.58-82c0,0,84.84-7.33,92.67,73.82,0,0-.34,78.94,87.33,78.89,0,0,87.09,6.67,87.09-76.33"/></g></g></svg>