<?xml version="1.0" encoding="utf-8"?>
<!-- Generator: Adobe Illustrator 22.1.0, SVG Export Plug-In . SVG Version: 6.00 Build 0)  -->
<svg version="1.1" id="Layer_1" xmlns="http://www.w3.org/2000/svg" xmlns:xlink="http://www.w3.org/1999/xlink" x="0px" y="0px"
	 viewBox="0 0 20 20" style="enable-background:new 0 0 20 20;" xml:space="preserve">
<style type="text/css">
	.st0{fill:none;}
</style>
<g>
	<path class="st0" d="M0,0h20v20H0V0z"/>
	<path d="M16.2,17.1V7.3H3.8v9.8H16.2 M13.6,1.1h1.8v1.8h0.9c1,0,1.8,0.8,1.8,1.8v12.4c0,1-0.8,1.8-1.8,1.8H3.8
		c-1,0-1.8-0.8-1.8-1.8V4.7c0-1,0.8-1.8,1.8-1.8h0.9V1.1h1.8v1.8h7.1V1.1 M5.6,9.1h1.8v1.8H5.6V9.1 M12.7,9.1h1.8v1.8h-1.8V9.1
		 M9.1,12.7h1.8v1.8H9.1V12.7 M12.7,12.7h1.8v1.8h-1.8V12.7z"/>
</g>
</svg>
