<?xml version="1.0" encoding="utf-8"?>
<!-- Generator: Adobe Illustrator 21.1.0, SVG Export Plug-In . SVG Version: 6.00 Build 0)  -->
<svg version="1.1" id="Layer_1" xmlns="http://www.w3.org/2000/svg" xmlns:xlink="http://www.w3.org/1999/xlink" x="0px" y="0px"
	 viewBox="0 0 16.5 13.2" style="enable-background:new 0 0 16.5 13.2;" xml:space="preserve">
<style type="text/css">
	.st0{fill:#BCBCCB;}
</style>
<path id="Chat_Icon" class="st0" d="M11.5,11.3c-0.4,0.1-0.9,0.1-1.3,0.1c-1.3,0-2.6-0.3-3.8-0.8c0.1,0,0.2,0,0.3,0
	c4.2,0,7.6-2.1,8.4-4.9c0.7,0.5,1.1,1.3,1.1,2.1c0,0.8-0.4,1.5-1,2h0V13L11.5,11.3z M1.2,6.9c-0.6-0.6-1-1.5-1-2.3
	c0-2.4,2.9-4.4,6.5-4.4s6.5,2,6.5,4.4S10.3,9,6.7,9c-1,0-1.9-0.1-2.8-0.4L1.2,9.8V6.9z"/>
</svg>
