<?xml version="1.0" encoding="utf-8"?>
<!-- Generator: Adobe Illustrator 22.1.0, SVG Export Plug-In . SVG Version: 6.00 Build 0)  -->
<svg version="1.1" id="Layer_1" xmlns="http://www.w3.org/2000/svg" xmlns:xlink="http://www.w3.org/1999/xlink" x="0px" y="0px"
	 viewBox="0 0 14 14" style="enable-background:new 0 0 14 14;" xml:space="preserve">
<style type="text/css">
	.st0{fill:#A63E5D;}
	.st1{fill:#FFFFFF;}
</style>
<g>
	<path class="st0" d="M3,0h8c1.7,0,3,1.3,3,3v8c0,1.7-1.3,3-3,3H3c-1.7,0-3-1.3-3-3V3C0,1.3,1.3,0,3,0z"/>
	<path class="st1" d="M2,7.3c0-0.4,0.3-0.7,0.7-0.7c0.1,0,0.3,0,0.4,0.1l2.1,1.8L11,4.1c0.1,0,0.2-0.1,0.3-0.1C11.7,4,12,4.3,12,4.7
		c0,0.2-0.1,0.4-0.3,0.5L5.5,9.9C5.4,10,5.3,10,5.1,10C5,10,4.8,10,4.7,9.9L2.2,7.8C2.1,7.6,2,7.5,2,7.3z"/>
</g>
</svg>
