<?xml version="1.0" encoding="utf-8"?>
<!-- Generator: Adobe Illustrator 22.1.0, SVG Export Plug-In . SVG Version: 6.00 Build 0)  -->
<svg version="1.1" id="Layer_1" xmlns="http://www.w3.org/2000/svg" xmlns:xlink="http://www.w3.org/1999/xlink" x="0px" y="0px"
	 viewBox="0 0 14 14" style="enable-background:new 0 0 14 14;" xml:space="preserve">
<style type="text/css">
	.st0{fill:#E5E5E5;}
	.st1{opacity:0.5;fill:#232323;enable-background:new    ;}
</style>
<g id="clean-search-icon" transform="translate(-1851 -509)">
	<path class="st0" d="M1858,509c3.9,0,7,3.1,7,7s-3.1,7-7,7s-7-3.1-7-7S1854.1,509,1858,509z"/>
	<path class="st1" d="M1860.9,518.2c0.2,0.2,0.2,0.5,0,0.7c-0.2,0.2-0.5,0.2-0.7,0l-2.2-2.2l-2.2,2.2c-0.2,0.2-0.5,0.2-0.7,0
		c-0.2-0.2-0.2-0.5,0-0.7l2.2-2.2l-2.2-2.2c-0.2-0.2-0.2-0.5,0-0.7c0.2-0.2,0.5-0.2,0.7,0l2.2,2.2l2.2-2.2c0.2-0.2,0.5-0.2,0.7,0
		c0.2,0.2,0.2,0.5,0,0.7l-2.2,2.2L1860.9,518.2z"/>
</g>
</svg>
