<?xml version="1.0" encoding="utf-8"?>
<!-- Generator: Adobe Illustrator 22.1.0, SVG Export Plug-In . SVG Version: 6.00 Build 0)  -->
<svg version="1.1" id="Capa_1" xmlns="http://www.w3.org/2000/svg" xmlns:xlink="http://www.w3.org/1999/xlink" x="0px" y="0px"
	 viewBox="0 0 40 40" style="enable-background:new 0 0 40 40;" xml:space="preserve">
<g>
	<path d="M31.3,9H8.8C6.7,9,5,10.6,5,12.7v14.7c0,2,1.7,3.7,3.8,3.7h22.5c2.1,0,3.8-1.6,3.8-3.7V12.7C35,10.6,33.3,9,31.3,9z
		 M32.2,10.8L20,20L7.8,10.8H32.2z M6.9,27.3V12.7l8.4,6.4L7,27.9C6.9,27.7,6.9,27.5,6.9,27.3z M8.3,29.1l8.5-8.8l3.2,2.4l3.1-2.4
		l8.6,8.8C31.5,29.1,8.5,29.1,8.3,29.1z M33,27.9l-8.3-8.8l8.4-6.4v14.7C33.1,27.5,33.1,27.7,33,27.9z"/>
</g>
</svg>
