<?xml version="1.0" encoding="utf-8"?>
<!-- Generator: Adobe Illustrator 22.1.0, SVG Export Plug-In . SVG Version: 6.00 Build 0)  -->
<svg version="1.1" id="Layer_1" xmlns="http://www.w3.org/2000/svg" xmlns:xlink="http://www.w3.org/1999/xlink" x="0px" y="0px"
	 viewBox="0 0 14 14" style="enable-background:new 0 0 14 14;" xml:space="preserve">
<g>
	<path d="M8.6,0H3.4C1.5,0,0,1.5,0,3.4v5.1C0,10.5,1.5,12,3.4,12h2v-1.3h-2c-1.2,0-2.1-1-2.1-2.1c0,0,0,0,0,0V3.4
		c0-1.2,1-2.1,2.1-2.1l0,0h5.1c1.2,0,2.1,1,2.1,2.1l0,0v2.7H12V3.4C12,1.5,10.5,0,8.6,0z M14,10.5c0,0.4-0.3,0.6-0.6,0.6
		c0,0,0,0,0,0h-2.2v2.2c0,0.4-0.3,0.6-0.6,0.6c-0.4,0-0.6-0.3-0.6-0.6v-2.2H7.6c-0.4,0-0.6-0.3-0.6-0.6s0.3-0.6,0.6-0.6c0,0,0,0,0,0
		h2.2V7.6c0-0.4,0.3-0.6,0.6-0.6c0.4,0,0.6,0.3,0.6,0.6v2.2h2.2C13.7,9.9,14,10.1,14,10.5C14,10.5,14,10.5,14,10.5z"/>
</g>
</svg>
