<svg id="Layer_1" data-name="Layer 1" xmlns="http://www.w3.org/2000/svg" viewBox="0 0 18 20"><title>create-at-icon</title><path d="M14.51,0H2A2,2,0,0,0,0,2V16.46a2,2,0,0,0,2,2h9.67A4.7,4.7,0,0,1,8.21,17H2a.5.5,0,0,1-.5-.5V2A.5.5,0,0,1,2,1.5H14.51A.51.51,0,0,1,15,2v8.25a4.73,4.73,0,0,1,1.45,3.42,4.8,4.8,0,0,1-4.79,4.79h2.84a2,2,0,0,0,2-2V2A2,2,0,0,0,14.51,0Zm-.63,12.92H12.42V11.47a.75.75,0,0,0-1.5,0v1.45H9.46a.75.75,0,0,0,0,1.5h1.46v1.46a.75.75,0,1,0,1.5,0V14.42h1.46a.75.75,0,0,0,0-1.5Zm0,0H12.42V11.47a.75.75,0,0,0-1.5,0v1.45H9.46a.75.75,0,0,0,0,1.5h1.46v1.46a.75.75,0,1,0,1.5,0V14.42h1.46a.75.75,0,0,0,0-1.5Zm2.63-3.31A5.87,5.87,0,0,0,15,8.3a6.26,6.26,0,0,0-3.34-1,6.34,6.34,0,0,0-6.33,6.33A6.27,6.27,0,0,0,6.27,17a6,6,0,0,0,1.28,1.5A6.26,6.26,0,0,0,11.67,20,6.34,6.34,0,0,0,18,13.67,6.26,6.26,0,0,0,16.51,9.61ZM8.21,17a4.68,4.68,0,0,1-1.33-3.29,4.8,4.8,0,0,1,4.79-4.79,4.81,4.81,0,0,1,4.79,4.79,4.8,4.8,0,0,1-4.79,4.79A4.7,4.7,0,0,1,8.21,17Zm5.67-4H12.42V11.47a.75.75,0,0,0-1.5,0v1.45H9.46a.75.75,0,0,0,0,1.5h1.46v1.46a.75.75,0,1,0,1.5,0V14.42h1.46a.75.75,0,0,0,0-1.5ZM12.42,5.34H4.09a.75.75,0,1,1,0-1.5h8.33a.75.75,0,0,1,0,1.5ZM7,7.68a.75.75,0,0,0-.75-.75H4.09a.75.75,0,1,0,0,1.5H6.21A.75.75,0,0,0,7,7.68ZM5,10.76A.75.75,0,0,0,4.21,10H4.09a.75.75,0,0,0,0,1.5h.13A.75.75,0,0,0,5,10.76Z"/></svg>