<?xml version="1.0" encoding="utf-8"?>
<!-- Generator: Adobe Illustrator 22.1.0, SVG Export Plug-In . SVG Version: 6.00 Build 0)  -->
<svg version="1.1" id="Layer_1" xmlns="http://www.w3.org/2000/svg" xmlns:xlink="http://www.w3.org/1999/xlink" x="0px" y="0px"
	 viewBox="0 0 70 20" style="enable-background:new 0 0 70 20;" xml:space="preserve">
<style type="text/css">
	.st0{fill:#232323;}
</style>
<g>
	<path class="st0" d="M67,20H3c-1.7,0-3-1.3-3-3V3c0-1.7,1.3-3,3-3h64c1.7,0,3,1.3,3,3v14C70,18.7,68.7,20,67,20z M3,1
		C1.9,1,1,1.9,1,3v14c0,1.1,0.9,2,2,2h64c1.1,0,2-0.9,2-2V3c0-1.1-0.9-2-2-2H3z M17.2,12.3L17.2,12.3c0,0.8-0.3,1.5-0.8,2
		S15,15.1,14,15.1c-1,0-1.8-0.3-2.4-1s-0.9-1.6-0.9-2.6V10c0-1.1,0.3-1.9,0.9-2.6s1.4-1,2.4-1s1.7,0.3,2.3,0.8s0.8,1.2,0.8,2l0,0
		h-1.1c0-0.6-0.2-1.1-0.5-1.4S14.7,7.3,14,7.3c-0.6,0-1.2,0.3-1.5,0.8c-0.4,0.5-0.6,1.2-0.6,1.9v1.5c0,0.8,0.2,1.4,0.6,1.9
		c0.4,0.5,0.9,0.8,1.5,0.8c0.6,0,1.1-0.2,1.5-0.5s0.5-0.8,0.5-1.4H17.2z M21.5,9.7l-0.6,0c-0.3,0-0.6,0.1-0.8,0.2s-0.4,0.3-0.5,0.6
		V15h-1.2V8.7h1l0.1,0.9c0.2-0.3,0.4-0.6,0.7-0.8s0.6-0.3,0.9-0.3c0.1,0,0.2,0,0.2,0s0.1,0,0.2,0L21.5,9.7z M25.2,15.1
		c-0.9,0-1.6-0.3-2.1-0.9s-0.8-1.4-0.8-2.3v-0.3c0-0.9,0.3-1.7,0.8-2.3s1.2-0.9,1.9-0.9c0.9,0,1.5,0.3,1.9,0.8s0.7,1.2,0.7,2.1v0.7
		h-4.1l0,0c0,0.6,0.2,1.1,0.5,1.5s0.7,0.6,1.2,0.6c0.4,0,0.7-0.1,1-0.2s0.5-0.3,0.8-0.5l0.5,0.8c-0.2,0.2-0.5,0.4-0.9,0.6
		C26.1,15,25.7,15.1,25.2,15.1z M25,9.5c-0.4,0-0.7,0.2-1,0.5s-0.4,0.7-0.5,1.2l0,0h2.9V11c0-0.5-0.1-0.8-0.4-1.1
		C25.8,9.6,25.5,9.5,25,9.5z M32.8,15c0-0.2-0.1-0.4-0.1-0.5s0-0.3,0-0.4c-0.2,0.3-0.5,0.6-0.8,0.8s-0.7,0.3-1.1,0.3
		c-0.7,0-1.2-0.2-1.5-0.5s-0.5-0.8-0.5-1.4c0-0.6,0.2-1.1,0.7-1.4s1.2-0.5,2-0.5h1.3v-0.6c0-0.4-0.1-0.7-0.3-0.9s-0.5-0.3-1-0.3
		c-0.4,0-0.7,0.1-0.9,0.3s-0.3,0.4-0.3,0.7H29l0,0c0-0.5,0.2-0.9,0.7-1.3s1.1-0.6,1.8-0.6c0.7,0,1.3,0.2,1.7,0.5s0.7,0.9,0.7,1.6
		v3.1c0,0.2,0,0.4,0,0.7s0.1,0.4,0.1,0.6H32.8z M30.8,14.2c0.4,0,0.8-0.1,1.1-0.3s0.6-0.5,0.7-0.7v-1h-1.3c-0.5,0-0.8,0.1-1.1,0.4
		s-0.4,0.5-0.4,0.8c0,0.3,0.1,0.5,0.3,0.7C30.2,14.1,30.5,14.2,30.8,14.2z M37,7.1v1.5h1.2v0.9H37v3.8c0,0.3,0.1,0.5,0.2,0.6
		s0.3,0.2,0.5,0.2c0.1,0,0.1,0,0.2,0s0.2,0,0.2-0.1l0.2,0.8C38.2,15,38,15,37.9,15.1s-0.3,0.1-0.5,0.1c-0.5,0-0.8-0.1-1.1-0.4
		s-0.4-0.7-0.4-1.3V9.5h-1V8.7h1V7.1H37z M42.2,15.1c-0.9,0-1.6-0.3-2.1-0.9s-0.8-1.4-0.8-2.3v-0.3c0-0.9,0.3-1.7,0.8-2.3
		s1.2-0.9,1.9-0.9c0.9,0,1.5,0.3,1.9,0.8s0.7,1.2,0.7,2.1v0.7h-4.1l0,0c0,0.6,0.2,1.1,0.5,1.5s0.7,0.6,1.2,0.6c0.4,0,0.7-0.1,1-0.2
		s0.5-0.3,0.8-0.5l0.5,0.8c-0.2,0.2-0.5,0.4-0.9,0.6C43.2,15,42.8,15.1,42.2,15.1z M42.1,9.5c-0.4,0-0.7,0.2-1,0.5s-0.4,0.7-0.5,1.2
		l0,0h2.9V11c0-0.5-0.1-0.8-0.4-1.1C42.9,9.6,42.5,9.5,42.1,9.5z M53.8,12.8h-3.6L49.4,15h-1.2l3.3-8.5h1l3.2,8.5h-1.2L53.8,12.8z
		 M50.6,11.8h2.9L52,8h0L50.6,11.8z M58.1,7.1v1.5h1.2v0.9h-1.2v3.8c0,0.3,0.1,0.5,0.2,0.6s0.3,0.2,0.5,0.2c0.1,0,0.1,0,0.2,0
		s0.2,0,0.2-0.1l0.2,0.8C59.3,15,59.2,15,59,15.1s-0.3,0.1-0.5,0.1c-0.5,0-0.8-0.1-1.1-0.4S57,14,57,13.4V9.5h-1V8.7h1V7.1H58.1z"/>
</g>
</svg>
