<?xml version="1.0" encoding="utf-8"?>
<!-- Generator: Adobe Illustrator 21.1.0, SVG Export Plug-In . SVG Version: 6.00 Build 0)  -->
<svg version="1.1" id="Layer_1" xmlns="http://www.w3.org/2000/svg" xmlns:xlink="http://www.w3.org/1999/xlink" x="0px" y="0px"
	 viewBox="0 0 18 20" style="enable-background:new 0 0 18 20;" xml:space="preserve">
<path d="M16,18H2V7h14 M16,2h-1V0h-2v2H5V0H3v2H2C0.9,2,0,2.9,0,4v14c0,1.1,0.9,2,2,2h14c1.1,0,2-0.9,2-2V4C18,2.9,17.1,2,16,2
	 M6.3,16l2.4-2.4l2.4,2.4l1.1-1.1l-2.4-2.4l2.4-2.4L11.2,9l-2.4,2.4L6.3,9l-1.1,1.1l2.4,2.4l-2.4,2.4L6.3,16z"/>
</svg>
