<?xml version="1.0" encoding="utf-8"?>
<!-- Generator: Adobe Illustrator 22.1.0, SVG Export Plug-In . SVG Version: 6.00 Build 0)  -->
<svg version="1.1" id="Layer_1" xmlns="http://www.w3.org/2000/svg" xmlns:xlink="http://www.w3.org/1999/xlink" x="0px" y="0px"
	 viewBox="0 0 20 20" style="enable-background:new 0 0 20 20;" xml:space="preserve">
<g>
	<path id="dark-rocket" transform="translate(-100 -22)" d="M103.7,36.4L100,40v2h2l3.6-3.7L103.7,36.4z M100,36.1V38l3.4-3.3
		l-1.7-0.3L100,36.1z M119.4,22c-2.6,0-9.1,2.4-12.7,6.9l-2.6,0.5l-4,4l4.4,0.9c-0.1,0.8,0.2,1.7,0.9,2.2c0.5,0.7,1.4,1,2.2,0.9
		l0.9,4.4l4-4l0.5-2.6c4.6-3.5,7-10,7-12.6V22H119.4z M112,34.3l-0.2,0.1l-0.5,2.7l-2,2l-0.6-3.1h-0.5c-1.2,0-1.2,0-1.8-0.6
		c-0.6-0.6-0.6-0.6-0.6-1.8v-0.5l-3.1-0.6l2-2l2.7-0.5l0.1-0.2c2.8-3.4,6.8-5.7,11.1-6.5C117.8,27.6,115.5,31.6,112,34.3z M104,42
		h1.9l1.7-1.6l-0.3-1.7L104,42z M112.2,32c1.2,0,2.2-1,2.2-2.2s-1-2.2-2.2-2.2s-2.2,1-2.2,2.2c-0.1,1.2,0.8,2.1,2,2.2
		C112.1,32,112.1,32,112.2,32z M112.2,28.8c0.5,0,0.9,0.4,0.9,0.9c0,0.5-0.4,0.9-0.9,0.9c-0.5,0-0.9-0.4-0.9-0.9c0,0,0,0,0,0
		C111.2,29.2,111.6,28.8,112.2,28.8z"/>
</g>
</svg>
