<?xml version="1.0" encoding="utf-8"?>
<!-- Generator: Adobe Illustrator 22.1.0, SVG Export Plug-In . SVG Version: 6.00 Build 0)  -->
<svg version="1.1" id="Layer_1" xmlns="http://www.w3.org/2000/svg" xmlns:xlink="http://www.w3.org/1999/xlink" x="0px" y="0px"
	 viewBox="0 0 14 14" style="enable-background:new 0 0 14 14;" xml:space="preserve" fill="#000000">
<g>
	<path d="M7,0C3.1,0,0,3.1,0,7s3.1,7,7,7s7-3.1,7-7S10.9,0,7,0z M7.5,12v-0.8c0-0.3-0.2-0.5-0.5-0.5s-0.5,0.2-0.5,0.5V12
		C4.1,11.8,2.3,9.9,2,7.5h0.8c0.3,0,0.5-0.2,0.5-0.5S3.1,6.5,2.8,6.5H2C2.3,4.1,4.1,2.3,6.5,2v0.8c0,0.3,0.2,0.5,0.5,0.5
		s0.5-0.2,0.5-0.5V2c2.4,0.2,4.3,2.1,4.5,4.5h-0.8c-0.3,0-0.5,0.2-0.5,0.5s0.2,0.5,0.5,0.5H12C11.8,9.9,9.9,11.8,7.5,12z M9.8,8.9
		c0.2,0.2,0.2,0.6,0,0.9s-0.6,0.2-0.9,0L7,7.9L5.1,9.8C4.9,10,4.5,10,4.2,9.8S4,9.2,4.2,8.9L6.1,7L4.2,5.1C4,4.9,4,4.5,4.2,4.2
		s0.6-0.2,0.9,0L7,6.1l1.9-1.9C9.1,4,9.5,4,9.8,4.2s0.2,0.6,0,0.9L7.9,7L9.8,8.9z"/>
</g>
</svg>
