<?xml version="1.0" encoding="utf-8"?>
<!-- Generator: Adobe Illustrator 22.1.0, SVG Export Plug-In . SVG Version: 6.00 Build 0)  -->
<svg version="1.1" id="Layer_1" xmlns="http://www.w3.org/2000/svg" xmlns:xlink="http://www.w3.org/1999/xlink" x="0px" y="0px"
	 viewBox="0 0 15.3 10" style="enable-background:new 0 0 15.3 10;" xml:space="preserve">
<style type="text/css">
	.st0{fill:#232323;}
</style>
<g>
	<path class="st0" d="M15.2,0.5C15,0.2,14.7,0.1,14.5,0c-0.3,0-0.6,0.1-0.8,0.2L7.3,5.5L5.7,6.8L4.8,7.6l-3.2-3L1.5,4.5
		C1.1,4.2,0.6,4.3,0.3,4.7c-0.3,0.4-0.3,1,0,1.5l3.9,3.6C4.4,9.9,4.6,10,4.8,10C5,10,5.3,9.9,5.4,9.8l1.8-1.5L8.8,7L15,1.9
		C15.4,1.5,15.4,0.9,15.2,0.5z"/>
</g>
</svg>
