<svg id="Layer_1" data-name="Layer 1" xmlns="http://www.w3.org/2000/svg" viewBox="0 0 18 20"><title>description-icon</title><path d="M18,7.67h0L10.33,0H2A2,2,0,0,0,0,2V18a2,2,0,0,0,2,2H16a2,2,0,0,0,2-2V7.67Zm-6.17-4,2.55,2.55h-2a.5.5,0,0,1-.5-.5ZM16.5,18a.5.5,0,0,1-.5.5H2a.5.5,0,0,1-.5-.5V2A.5.5,0,0,1,2,1.5h8.33V5.67a2,2,0,0,0,2,2H16.5ZM7.85,6.48h-4a.75.75,0,0,1,0-1.5h4a.75.75,0,0,1,0,1.5Zm2.38,2.89a.75.75,0,0,0-.75-.75H3.85a.75.75,0,0,0,0,1.5H9.47A.75.75,0,0,0,10.22,9.37ZM14.9,13a.75.75,0,0,0-.75-.75H3.85a.75.75,0,0,0,0,1.5h10.3A.75.75,0,0,0,14.9,13Z" transform="translate(0)"/></svg>