<?xml version="1.0" encoding="utf-8"?>
<!-- Generator: Adobe Illustrator 22.1.0, SVG Export Plug-In . SVG Version: 6.00 Build 0)  -->
<svg version="1.1" id="Layer_1" xmlns="http://www.w3.org/2000/svg" xmlns:xlink="http://www.w3.org/1999/xlink" x="0px" y="0px"
	 viewBox="0 0 20 20" style="enable-background:new 0 0 20 20;" xml:space="preserve" fill="#000">
<g>
	<path d="M11.8,10.3h-9c-0.4,0-0.7-0.3-0.7-0.7c0-0.4,0.3-0.7,0.7-0.7h11.4c0.3,0,0.6,0.1,0.6,0.5c-0.1,0-0.3,0-0.4,0
		c-0.6,0-1.2,0.2-1.7,0.4C12.4,10,12.1,10.1,11.8,10.3z M3.3,19.3c-1.5,0-2.7-1.2-2.7-2.7V7.7h3.8c0.4,0,0.8-0.1,1.1-0.2
		c1.3-0.4,2.3-1.7,2.3-3.1V0.7h6c1.5,0,2.7,1.2,2.7,2.7v6.1c0.2,0.1,0.5,0.1,0.7,0.2V3.3C17.1,1.5,15.6,0,13.8,0h-6L0,7.7v8.9
		C0,18.5,1.5,20,3.3,20h7.9c-0.3-0.2-0.5-0.4-0.7-0.7H3.3z M20,15c0,2.8-2.2,5-5,5s-5-2.2-5-5c0-0.6,0.1-1.2,0.3-1.7
		c0.1-0.3,0.2-0.5,0.3-0.7C11.4,11,13.1,10,15,10C17.8,10,20,12.2,20,15z M15.8,14.3c0-0.1-0.1-0.2-0.2-0.2h-1.1
		c-0.1,0-0.2,0.1-0.2,0.2v3.6c0,0.1,0.1,0.2,0.2,0.2h1.1c0.1,0,0.2-0.1,0.2-0.2V14.3z M15.8,12.6c0-0.5-0.3-0.8-0.8-0.8
		s-0.8,0.4-0.8,0.8c0,0.5,0.4,0.8,0.8,0.8S15.8,13.1,15.8,12.6z M14.2,5.6h-3.8c-0.4,0-0.7,0.3-0.7,0.7C9.7,6.7,10,7,10.4,7h3.8
		c0.4,0,0.7-0.3,0.7-0.7C14.9,5.9,14.6,5.6,14.2,5.6z M2.1,16.1c0,0.4,0.3,0.7,0.7,0.7h6.4c-0.1-0.4-0.2-1-0.2-1.4H2.8
		C2.4,15.4,2.1,15.7,2.1,16.1z M10,12.1H2.8c-0.4,0-0.7,0.3-0.7,0.7s0.3,0.7,0.7,0.7h6.6C9.5,12.9,9.8,12.5,10,12.1z"/>
</g>
</svg>
