<svg id="Layer_1" data-name="Layer 1" xmlns="http://www.w3.org/2000/svg" viewBox="0 0 18 20"><title>DueDateIcon</title><path d="M13.94,16.08a.73.73,0,0,1-.42-.13L10.79,14V11.5a.75.75,0,1,1,1.49,0v1.72l2.08,1.47a.78.78,0,0,1,.19,1.07A.74.74,0,0,1,13.94,16.08Zm2.49-6.69a6.2,6.2,0,0,0-1.87-1.48,6,6,0,0,0-2.76-.67,6.3,6.3,0,0,0-6.19,6.38,6.56,6.56,0,0,0,.6,2.74,6.46,6.46,0,0,0,1.58,2.12,6.09,6.09,0,0,0,4,1.52A6.3,6.3,0,0,0,18,13.62,6.43,6.43,0,0,0,16.43,9.39ZM11.8,18.46a4.65,4.65,0,0,1-3.87-2.11,4.89,4.89,0,0,1-.83-2.74,4.78,4.78,0,0,1,4.7-4.84,4.51,4.51,0,0,1,2.76.94,4.79,4.79,0,0,1,1.87,3.08,4.65,4.65,0,0,1,0,1.66A4.75,4.75,0,0,1,11.8,18.46ZM14.19,1.83h-12A2.27,2.27,0,0,0,0,4.13v12a2.28,2.28,0,0,0,2.24,2.31h12a2.28,2.28,0,0,0,2.24-2.31V14.45a4.75,4.75,0,0,1-4.63,4,4.65,4.65,0,0,1-3.87-2.11H1.87v-10h12.7V9.71a4.79,4.79,0,0,1,1.87,3.08V4.13A2.27,2.27,0,0,0,14.19,1.83ZM12.7,0h0a.9.9,0,0,1,.9.9v.93H11.8V.9A.9.9,0,0,1,12.7,0ZM2.84,1.83H4.63V.9a.9.9,0,0,0-.9-.9h0a.9.9,0,0,0-.9.9Z"/></svg>