<?xml version="1.0" encoding="utf-8"?>
<!-- Generator: Adobe Illustrator 22.1.0, SVG Export Plug-In . SVG Version: 6.00 Build 0)  -->
<svg version="1.1" id="Layer_1" xmlns="http://www.w3.org/2000/svg" xmlns:xlink="http://www.w3.org/1999/xlink" x="0px" y="0px"
	 viewBox="0 0 68 20" style="enable-background:new 0 0 68 20;" xml:space="preserve">
<style type="text/css">
	.st0{fill:#232323;}
</style>
<g>
	<path class="st0" d="M65,20H3c-1.7,0-3-1.3-3-3V3c0-1.7,1.3-3,3-3h62c1.7,0,3,1.3,3,3v14C68,18.7,66.7,20,65,20z M3,1
		C1.9,1,1,1.9,1,3v14c0,1.1,0.9,2,2,2h62c1.1,0,2-0.9,2-2V3c0-1.1-0.9-2-2-2H3z M10.9,14.5V6h2.6c1.1,0,2,0.3,2.7,1s1,1.6,1,2.7v1.2
		c0,1.1-0.3,2-1,2.7s-1.6,1-2.7,1H10.9z M12.1,6.9v6.7h1.5c0.8,0,1.4-0.3,1.9-0.8c0.5-0.5,0.7-1.2,0.7-2V9.6c0-0.8-0.2-1.5-0.7-2
		c-0.5-0.5-1.1-0.8-1.9-0.8H12.1z M22.6,13.6c-0.2,0.3-0.5,0.6-0.8,0.8s-0.7,0.3-1.1,0.3c-0.7,0-1.2-0.2-1.6-0.7s-0.6-1.1-0.6-2.1
		V8.2h1.2v3.8c0,0.7,0.1,1.1,0.3,1.4s0.5,0.4,0.9,0.4c0.4,0,0.7-0.1,1-0.2s0.5-0.4,0.6-0.7V8.2h1.2v6.3h-1L22.6,13.6z M28.1,14.6
		c-0.9,0-1.6-0.3-2.1-0.9s-0.8-1.4-0.8-2.3v-0.3c0-0.9,0.3-1.7,0.8-2.3s1.2-0.9,1.9-0.9c0.9,0,1.5,0.3,1.9,0.8s0.7,1.2,0.7,2.1v0.7
		h-4.1l0,0c0,0.6,0.2,1.1,0.5,1.5s0.7,0.6,1.2,0.6c0.4,0,0.7-0.1,1-0.2s0.5-0.3,0.8-0.5l0.5,0.8c-0.2,0.2-0.5,0.4-0.9,0.6
		C29,14.6,28.6,14.6,28.1,14.6z M27.9,9c-0.4,0-0.7,0.2-1,0.5s-0.4,0.7-0.5,1.2l0,0h2.9v-0.2c0-0.5-0.1-0.8-0.4-1.1
		C28.7,9.1,28.4,9,27.9,9z M34,11.4h-2.9v-0.9H34V11.4z M34.8,11.5c0-1,0.2-1.8,0.7-2.5s1-0.9,1.8-0.9c0.4,0,0.7,0.1,1,0.2
		s0.5,0.3,0.7,0.6V5.4h1.2v9.1h-0.9l-0.1-0.8c-0.2,0.3-0.5,0.5-0.8,0.7s-0.7,0.2-1,0.2c-0.8,0-1.4-0.3-1.8-0.8s-0.7-1.3-0.7-2.2
		V11.5z M36,11.6c0,0.6,0.1,1.2,0.4,1.5s0.7,0.6,1.2,0.6c0.3,0,0.6-0.1,0.9-0.2s0.4-0.4,0.6-0.7v-3c-0.1-0.3-0.3-0.5-0.6-0.6
		S37.9,9,37.6,9c-0.6,0-1,0.2-1.2,0.7S36,10.7,36,11.5V11.6z M45.8,14.5c0-0.2-0.1-0.4-0.1-0.5s0-0.3,0-0.4
		c-0.2,0.3-0.5,0.6-0.8,0.8s-0.7,0.3-1.1,0.3c-0.7,0-1.2-0.2-1.5-0.5s-0.5-0.8-0.5-1.4c0-0.6,0.2-1.1,0.7-1.4s1.2-0.5,2-0.5h1.3
		v-0.6c0-0.4-0.1-0.7-0.3-0.9S44.8,9,44.3,9c-0.4,0-0.7,0.1-0.9,0.3s-0.3,0.4-0.3,0.7H42l0,0c0-0.5,0.2-0.9,0.7-1.3s1.1-0.6,1.8-0.6
		c0.7,0,1.3,0.2,1.7,0.5s0.7,0.9,0.7,1.6v3.1c0,0.2,0,0.4,0,0.7s0.1,0.4,0.1,0.6H45.8z M43.9,13.7c0.4,0,0.8-0.1,1.1-0.3
		s0.6-0.5,0.7-0.7v-1h-1.3c-0.5,0-0.8,0.1-1.1,0.4s-0.4,0.5-0.4,0.8c0,0.3,0.1,0.5,0.3,0.7C43.3,13.6,43.5,13.7,43.9,13.7z M50,6.6
		v1.5h1.2V9H50v3.8c0,0.3,0.1,0.5,0.2,0.6s0.3,0.2,0.5,0.2c0.1,0,0.1,0,0.2,0s0.2,0,0.2-0.1l0.2,0.8c-0.1,0.1-0.2,0.1-0.4,0.2
		s-0.3,0.1-0.5,0.1c-0.5,0-0.8-0.1-1.1-0.4s-0.4-0.7-0.4-1.3V9h-1V8.2h1V6.6H50z M55.3,14.6c-0.9,0-1.6-0.3-2.1-0.9
		s-0.8-1.4-0.8-2.3v-0.3c0-0.9,0.3-1.7,0.8-2.3s1.2-0.9,1.9-0.9c0.9,0,1.5,0.3,1.9,0.8s0.7,1.2,0.7,2.1v0.7h-4.1l0,0
		c0,0.6,0.2,1.1,0.5,1.5s0.7,0.6,1.2,0.6c0.4,0,0.7-0.1,1-0.2s0.5-0.3,0.8-0.5l0.5,0.8c-0.2,0.2-0.5,0.4-0.9,0.6
		C56.2,14.6,55.8,14.6,55.3,14.6z M55.1,9c-0.4,0-0.7,0.2-1,0.5s-0.4,0.7-0.5,1.2l0,0h2.9v-0.2c0-0.5-0.1-0.8-0.4-1.1
		C55.9,9.1,55.6,9,55.1,9z"/>
</g>
</svg>
