<?xml version="1.0" encoding="utf-8"?>
<!-- Generator: Adobe Illustrator 21.1.0, SVG Export Plug-In . SVG Version: 6.00 Build 0)  -->
<svg version="1.1" id="Layer_1" xmlns="http://www.w3.org/2000/svg" xmlns:xlink="http://www.w3.org/1999/xlink" x="0px" y="0px"
	 viewBox="0 0 20 22" style="enable-background:new 0 0 20 22;" xml:space="preserve">
<path d="M12,12h1.5v2.8l2.4,1.4l-0.8,1.3L12,15.7V12 M16,7H2v11h4.7C6.2,17.1,6,16.1,6,15c0-3.9,3.1-7,7-7c1.1,0,2.1,0.2,3,0.7V7
	 M2,20c-1.1,0-2-0.9-2-2V4c0-1.1,0.9-2,2-2h1V0h2v2h8V0h2v2h1c1.1,0,2,0.9,2,2v6.1c1.2,1.3,2,3,2,4.9c0,3.9-3.1,7-7,7
	c-1.9,0-3.6-0.8-4.9-2H2 M13,10.1c-2.7,0-4.9,2.2-4.9,4.9l0,0c0,2.7,2.2,4.9,4.9,4.9c2.7,0,4.9-2.2,4.9-4.9l0,0
	C17.9,12.3,15.7,10.1,13,10.1z"/>
</svg>
