<?xml version="1.0" encoding="utf-8"?>
<!-- Generator: Adobe Illustrator 22.1.0, SVG Export Plug-In . SVG Version: 6.00 Build 0)  -->
<svg version="1.1" id="Layer_1" xmlns="http://www.w3.org/2000/svg" xmlns:xlink="http://www.w3.org/1999/xlink" x="0px" y="0px"
	 viewBox="0 0 30 30" style="enable-background:new 0 0 30 30;" xml:space="preserve" fill="#000">
<g>
	<path d="M25,30H5c-2.8,0-5-2.2-5-5V5c0-2.8,2.2-5,5-5h20c2.8,0,5,2.2,5,5v20C30,27.8,27.8,30,25,30z M5,1C2.8,1,1,2.8,1,5v20
		c0,2.2,1.8,4,4,4h20c2.2,0,4-1.8,4-4V5c0-2.2-1.8-4-4-4H5z M19.2,9.2l-1.8-1l0,0c-0.8-0.3-1.8,0-2.2,0.8l0,0l-5,7.9
		c-0.1,0.2-0.2,0.5-0.2,0.7v4c0,0.2,0.2,0.5,0.4,0.5c0.1,0,0.2,0,0.3-0.1l3.5-2.2c0.2-0.1,0.4-0.3,0.5-0.5l5.1-7.9l0,0
		C20.2,10.6,20,9.6,19.2,9.2L19.2,9.2z M12.8,19.1l-1,0.5c-0.2,0.1-0.3,0-0.3-0.2l-0.1-1.1c0-0.3,0.1-0.5,0.2-0.8l4.7-7.3
		c0.2-0.3,0.5-0.4,0.8-0.3l0.9,0.5c0.3,0.1,0.3,0.5,0.2,0.8l-4.7,7.3C13.3,18.7,13.1,18.9,12.8,19.1z"/>
</g>
</svg>
