<?xml version="1.0" encoding="utf-8"?>
<!-- Generator: Adobe Illustrator 22.1.0, SVG Export Plug-In . SVG Version: 6.00 Build 0)  -->
<svg version="1.1" id="Layer_1" xmlns="http://www.w3.org/2000/svg" xmlns:xlink="http://www.w3.org/1999/xlink" x="0px" y="0px"
	 viewBox="0 0 10 14" style="enable-background:new 0 0 10 14;" xml:space="preserve">
<path d="M9.2,1.1l-1.8-1l0,0c-0.7-0.4-1.7,0-2.2,0.8l0,0L0.2,8.8C0.1,9,0,9.3,0,9.5l0,4c0,0.4,0.4,0.6,0.7,0.4l3.5-2.2
	c0.2-0.1,0.4-0.3,0.5-0.5l5.1-7.9v0C10.2,2.5,10,1.5,9.2,1.1L9.2,1.1z M2.8,11l-1,0.5c-0.2,0.1-0.3,0-0.3-0.2l-0.1-1.1
	c0-0.3,0.1-0.5,0.2-0.8l4.7-7.3c0.2-0.3,0.5-0.4,0.8-0.3l0.9,0.5c0.3,0.1,0.3,0.5,0.2,0.8l-4.7,7.3C3.2,10.7,3,10.9,2.8,11z"/>
</svg>
