<?xml version="1.0" encoding="utf-8"?>
<!-- Generator: Adobe Illustrator 22.1.0, SVG Export Plug-In . SVG Version: 6.00 Build 0)  -->
<svg version="1.1" id="Layer_1" xmlns="http://www.w3.org/2000/svg" xmlns:xlink="http://www.w3.org/1999/xlink" x="0px" y="0px"
	 viewBox="0 0 20 20" style="enable-background:new 0 0 20 20;" xml:space="preserve">
<style type="text/css">
	.st0{fill:none;}
	.st1{fill:#6A6A6A;}
</style>
<g id="edit-chat-maestro" transform="translate(-650 -179)">
	<path class="st0" d="M650,179h20v20h-20V179z"/>
	<path id="Path_643" class="st1" d="M662.4,182.3l4.1,4.1l-10.3,10.3l-4.1-4.1L662.4,182.3z M669.6,181.3l-1.8-1.8
		c-0.7-0.7-1.8-0.7-2.6,0l-1.7,1.7l4.1,4.1l2-2c0.6-0.4,0.7-1.3,0.2-1.8C669.7,181.4,669.6,181.4,669.6,181.3L669.6,181.3z
		 M650,198.4c-0.1,0.3,0.1,0.5,0.4,0.6c0.1,0,0.1,0,0.2,0l4.5-1.1l-4.1-4.1L650,198.4z"/>
</g>
</svg>
