<?xml version="1.0" encoding="utf-8"?>
<!-- Generator: Adobe Illustrator 22.1.0, SVG Export Plug-In . SVG Version: 6.00 Build 0)  -->
<svg version="1.1" id="Layer_1" xmlns="http://www.w3.org/2000/svg" xmlns:xlink="http://www.w3.org/1999/xlink" x="0px" y="0px"
	 viewBox="0 0 30 30" style="enable-background:new 0 0 30 30;" xml:space="preserve" fill="#000">
<g>
	<path transform="translate(-240 -1025)" d="M258.2,1036.2l-4.7,7.3c-0.2,0.2-0.4,0.4-0.7,0.6l-1,0.5
		c-0.2,0.1-0.3,0-0.3-0.2l-0.1-1.1c0-0.3,0.1-0.5,0.2-0.8l4.7-7.3c0.2-0.3,0.5-0.4,0.8-0.3l0.9,0.5
		C258.3,1035.5,258.3,1035.9,258.2,1036.2z M270,1030v20c0,2.8-2.2,5-5,5h-20c-2.8,0-5-2.2-5-5v-20c0-2.8,2.2-5,5-5h20
		C267.8,1025,270,1027.2,270,1030z M260,1035.6c0-0.6-0.3-1.1-0.8-1.4l-1.8-1c-0.2-0.1-0.4-0.1-0.6-0.1c-0.6,0-1.3,0.3-1.6,0.9
		l-5,7.9c-0.1,0.2-0.2,0.5-0.2,0.7v4c0,0.2,0.2,0.5,0.4,0.5c0.1,0,0.2,0,0.3-0.1l3.5-2.2c0.2-0.1,0.4-0.3,0.5-0.5l5.1-7.9
		C259.9,1036.1,260,1035.8,260,1035.6z"/>
</g>
</svg>
