<?xml version="1.0" encoding="utf-8"?>
<!-- Generator: Adobe Illustrator 22.1.0, SVG Export Plug-In . SVG Version: 6.00 Build 0)  -->
<svg version="1.1" id="Layer_1" xmlns="http://www.w3.org/2000/svg" xmlns:xlink="http://www.w3.org/1999/xlink" x="0px" y="0px"
	 viewBox="0 0 24 24" style="enable-background:new 0 0 24 24;" xml:space="preserve">
<path d="M19,11.4V21c0,1.1-0.9,2-2,2H3c-1.1,0-2-0.9-2-2V7c0-1.1,0.9-2,2-2h10.8V4H3C1.3,4,0,5.3,0,7v14c0,1.7,1.3,3,3,3h14
	c1.7,0,3-1.3,3-3v-9.6H19z M21.6,1c0.1,0,0.2,0,0.2,0.1l1,0.9c0.2,0.1,0.2,0.4,0,0.6l-3.6,3.9l-1,1.1l-5.3,5.8
	c-0.4,0.4-0.8,0.7-1.3,0.9l0,0L11,14.6l-0.7,0.2l0.1-0.7l0.1-0.4c0.1-0.6,0.4-1.1,0.8-1.6l5.8-6.4l0.9-1l3.2-3.5
	C21.3,1.1,21.5,1,21.6,1 M21.6,0c-0.4,0-0.8,0.2-1.1,0.5L17.3,4l-0.9,1l-5.8,6.4c-0.5,0.6-0.9,1.3-1,2.1l-0.1,0.4l-0.1,0.8l-0.1,0.5
	c-0.1,0.4,0.2,0.7,0.6,0.7c0.1,0,0.1,0,0.2,0l0.3-0.1l1-0.3l0,0l0.4-0.1c0.8-0.2,1.4-0.6,2-1.2L19,8.4l1-1.1l3.6-3.9
	c0.5-0.6,0.5-1.5,0-2l-1-0.9C22.3,0.1,21.9,0,21.6,0L21.6,0z"/>
</svg>
