<?xml version="1.0" encoding="utf-8"?>
<!-- Generator: Adobe Illustrator 22.1.0, SVG Export Plug-In . SVG Version: 6.00 Build 0)  -->
<svg version="1.1" id="Layer_1" xmlns="http://www.w3.org/2000/svg" xmlns:xlink="http://www.w3.org/1999/xlink" x="0px" y="0px"
	 viewBox="0 0 1274 500" style="enable-background:new 0 0 1274 500;" xml:space="preserve">
<style type="text/css">
	.st0{opacity:0.5;fill:#E5E5E5;}
</style>
<g>
	<path class="st0" d="M360.3,500c-27.6,0-50-22.4-50-50s22.4-50,50-50h33.3c27.6,0,50-22.4,50-50s-22.4-50-50-50H224
		c-27.6,0-50-22.4-50-50s22.4-50,50-50h166c27.6,0,50-22.4,50-50s-22.4-50-50-50h-92c-27.6,0-50-22.4-50-50s22.4-50,50-50h758
		c27.6,0,50,22.4,50,50s-22.4,50-50,50H866c-27.6,0-50,22.4-50,50s22.4,50,50,50h146c27.6,0,50,22.4,50,50s-22.4,50-50,50h-85
		c-27.6,0-50,22.4-50,50s22.4,50,50,50h177c27.6,0,50,22.4,50,50s-22.4,50-50,50H360.3 M1226.1,300c26.5,0,47.9-22.4,47.9-50
		s-21.5-50-47.9-50h-84.1c-26.5,0-47.9,22.4-47.9,50s21.5,50,47.9,50H1226.1z M178.4,500c27.9,0,50.6-22.4,50.6-50s-22.6-50-50.6-50
		H89.6C61.6,400,39,422.4,39,450s22.6,50,50.6,50H178.4z M132.1,100c26.5,0,47.9-22.4,47.9-50S158.5,0,132.1,0H47.9
		C21.5,0,0,22.4,0,50s21.5,50,47.9,50H132.1z"/>
</g>
</svg>
