<?xml version="1.0" encoding="utf-8"?>
<!-- Generator: Adobe Illustrator 22.1.0, SVG Export Plug-In . SVG Version: 6.00 Build 0)  -->
<svg version="1.1" id="Layer_1" xmlns="http://www.w3.org/2000/svg" xmlns:xlink="http://www.w3.org/1999/xlink" x="0px" y="0px"
	 viewBox="0 0 36 36" style="enable-background:new 0 0 36 36;" xml:space="preserve">
<style type="text/css">
	.st0{fill:#5E5375;}
	.st1{fill:#FFFFFF;}
</style>
<g>
	<path class="st0" d="M28,31H8c-2.8,0-5-2.2-5-5V6c0-2.8,2.2-5,5-5h20c2.8,0,5,2.2,5,5v20C33,28.8,30.8,31,28,31z"/>
	<path class="st1" d="M23.4,5.8l4.8,4.8h-1.8c-1.7,0-3-1.3-3-3L23.4,5.8 M21.4,1v6.6c0,2.8,2.2,5,5,5H33L21.4,1z M28.7,26.1H7.3
		c-0.6,0-1-0.4-1-1s0.4-1,1-1h21.5c0.6,0,1,0.4,1,1S29.3,26.1,28.7,26.1z M28.7,21.2H7.3c-0.6,0-1-0.4-1-1s0.4-1,1-1h21.5
		c0.6,0,1,0.4,1,1S29.3,21.2,28.7,21.2z M28.7,16.3H7.3c-0.6,0-1-0.4-1-1s0.4-1,1-1h21.5c0.6,0,1,0.4,1,1S29.3,16.3,28.7,16.3z
		 M17.3,11.4H7.3c-0.6,0-1-0.4-1-1s0.4-1,1-1h10.1c0.6,0,1,0.4,1,1S17.9,11.4,17.3,11.4z"/>
</g>
</svg>
