<?xml version="1.0" encoding="utf-8"?>
<!-- Generator: Adobe Illustrator 22.1.0, SVG Export Plug-In . SVG Version: 6.00 Build 0)  -->
<svg version="1.1" id="Layer_1" xmlns="http://www.w3.org/2000/svg" xmlns:xlink="http://www.w3.org/1999/xlink" x="0px" y="0px"
	 viewBox="0 0 30 30" style="enable-background:new 0 0 30 30;" xml:space="preserve">
<g>
	<path d="M29,10.6V25c0,2.2-1.8,4-4,4H5c-2.2,0-4-1.8-4-4V5c0-2.2,1.8-4,4-4h14.4l-1-1H5C2.2,0,0,2.2,0,5v20c0,2.8,2.2,5,5,5h20
		c2.8,0,5-2.2,5-5V11.6L29,10.6z M18.4,0v6.6c0,2.8,2.2,5,5,5H30L18.4,0z M23.4,9.6c-1.7,0-3-1.3-3-3V4.8l4.8,4.8H23.4z M25.7,25.1
		H4.3c-0.6,0-1-0.4-1-1s0.4-1,1-1h21.5c0.6,0,1,0.4,1,1S26.3,25.1,25.7,25.1z M25.7,20.2H4.3c-0.6,0-1-0.4-1-1s0.4-1,1-1h21.5
		c0.6,0,1,0.4,1,1S26.3,20.2,25.7,20.2z M25.7,15.3H4.3c-0.6,0-1-0.4-1-1s0.4-1,1-1h21.5c0.6,0,1,0.4,1,1S26.3,15.3,25.7,15.3z
		 M14.3,10.4H4.3c-0.6,0-1-0.4-1-1s0.4-1,1-1h10.1c0.6,0,1,0.4,1,1S14.9,10.4,14.3,10.4z"/>
</g>
</svg>
