<?xml version="1.0" encoding="utf-8"?>
<!-- Generator: Adobe Illustrator 22.1.0, SVG Export Plug-In . SVG Version: 6.00 Build 0)  -->
<svg version="1.1" id="Layer_1" xmlns="http://www.w3.org/2000/svg" xmlns:xlink="http://www.w3.org/1999/xlink" x="0px" y="0px"
	 viewBox="0 0 30 30" style="enable-background:new 0 0 30 30;" xml:space="preserve" fill="#000">
<g>
	<path d="M20.4,6.6V4.8l4.8,4.8h-1.8C21.7,9.6,20.4,8.3,20.4,6.6z M25,0h-6.6L30,11.6V5C30,2.2,27.8,0,25,0z M30,11.6V25
		c0,2.8-2.2,5-5,5H5c-2.8,0-5-2.2-5-5V5c0-2.8,2.2-5,5-5h13.4v6.6c0,2.8,2.2,5,5,5H30z M3.3,9.4c0,0.6,0.4,1,1,1h10
		c0.6,0,1.1-0.4,1.1-1c0-0.6-0.4-1-1-1H4.3C3.7,8.4,3.3,8.8,3.3,9.4z M26.8,24.1c0-0.6-0.4-1-1-1H4.3c-0.6,0-1,0.4-1,1
		c0,0.6,0.4,1,1,1h21.4C26.3,25.1,26.8,24.7,26.8,24.1z M26.8,19.2c0-0.6-0.4-1-1-1H4.3c-0.6,0-1,0.4-1,1c0,0.6,0.4,1,1,1h21.4
		C26.3,20.2,26.8,19.8,26.8,19.2z M26.8,14.3c0-0.6-0.4-1-1-1H4.3c-0.6,0-1,0.4-1,1c0,0.6,0.4,1,1,1h21.4
		C26.3,15.3,26.8,14.9,26.8,14.3z"/>
</g>
</svg>
