<svg id="Layer_1" data-name="Layer 1" xmlns="http://www.w3.org/2000/svg" viewBox="0 0 30 30"><defs><style>.cls-1{fill:#fff;}</style></defs><title>FileIcon</title><path class="cls-1" d="M25,30H5a5,5,0,0,1-5-5V5A5,5,0,0,1,5,0H25a5,5,0,0,1,5,5V25A5,5,0,0,1,25,30Z" transform="translate(0 0)"/><path d="M20.37,4.83l4.8,4.8h-1.8a3,3,0,0,1-3-3V4.83M18.37,0V6.63a5,5,0,0,0,5,5H30L18.37,0Z" transform="translate(0 0)"/><path d="M25.73,25.13H4.27a1,1,0,0,1,0-2H25.73a1,1,0,1,1,0,2Zm0-4.9H4.27a1,1,0,0,1,0-2H25.73a1,1,0,0,1,0,2Zm0-4.9H4.27a1,1,0,0,1,0-2H25.73a1,1,0,0,1,0,2Zm-11.4-4.9H4.27a1,1,0,0,1,0-2H14.33a1,1,0,0,1,0,2Z" transform="translate(0 0)"/></svg>