<?xml version="1.0" encoding="utf-8"?>
<!-- Generator: Adobe Illustrator 22.1.0, SVG Export Plug-In . SVG Version: 6.00 Build 0)  -->
<svg version="1.1" id="Layer_1" xmlns="http://www.w3.org/2000/svg" xmlns:xlink="http://www.w3.org/1999/xlink" x="0px" y="0px"
	 viewBox="0 0 30 30" style="enable-background:new 0 0 30 30;" xml:space="preserve">
<style type="text/css">
	.st0{fill:#FFFFFF;}
	.st1{fill:#5E5375;}
</style>
<g>
	<path class="st0" d="M30,5v20c0,2.8-2.2,5-5,5H5c-2.8,0-5-2.2-5-5V5c0-2.8,2.2-5,5-5h20C27.8,0,30,2.2,30,5z"/>
	<path class="st1" d="M25,0H5C2.2,0,0,2.2,0,5v20c0,2.8,2.2,5,5,5h20c2.8,0,5-2.2,5-5V5C30,2.2,27.8,0,25,0z M29,25c0,2.2-1.8,4-4,4
		H5c-2.2,0-4-1.8-4-4V5c0-2.2,1.8-4,4-4h20c2.2,0,4,1.8,4,4V25z"/>
	<path class="st1" d="M21.9,8.4C21.8,8.2,21.5,8,21.2,8H8.8C8.5,8,8.2,8.2,8.1,8.4C8,8.7,8,9,8.1,9.2l4.7,5.5v6.5
		c0,0.3,0.1,0.5,0.4,0.6c0.1,0.1,0.3,0.1,0.4,0.1c0.1,0,0.2,0,0.4-0.1l2.7-1.3c0.3-0.1,0.4-0.4,0.4-0.6v-5.2l4.7-5.5
		C22,9,22.1,8.7,21.9,8.4z M14.2,14l-3.8-4.6h9.2L15.8,14c-0.1,0.1-0.2,0.3-0.1,0.5v5L14.4,20v-5.5C14.4,14.3,14.4,14.2,14.2,14z"/>
</g>
</svg>
