<?xml version="1.0" encoding="utf-8"?>
<!-- Generator: Adobe Illustrator 22.1.0, SVG Export Plug-In . SVG Version: 6.00 Build 0)  -->
<svg version="1.1" id="Layer_1" xmlns="http://www.w3.org/2000/svg" xmlns:xlink="http://www.w3.org/1999/xlink" x="0px" y="0px"
	 viewBox="0 0 30 30" style="enable-background:new 0 0 30 30;" xml:space="preserve" fill="#000">
<g>
	<path d="M10.4,9.4h9.2L15.8,14c-0.1,0.1-0.1,0.2-0.1,0.5v5L14.4,20v-5.5c0-0.2,0-0.3-0.2-0.5L10.4,9.4z M30,5v20c0,2.8-2.2,5-5,5H5
		c-2.8,0-5-2.2-5-5V5c0-2.8,2.2-5,5-5h20C27.8,0,30,2.2,30,5z M14,21.8l2.7-1.3c0.3-0.1,0.4-0.4,0.4-0.6v-5.2l4.7-5.5
		C22,9,22.1,8.7,21.9,8.4C21.7,8.1,21.5,8,21.2,8H8.8C8.5,8,8.2,8.2,8.1,8.4C8,8.7,8,9,8.1,9.2l4.7,5.5v6.5c0,0.3,0.1,0.4,0.4,0.6
		C13.7,22,14,21.8,14,21.8z"/>
</g>
</svg>
