<?xml version="1.0" encoding="utf-8"?>
<!-- Generator: Adobe Illustrator 21.1.0, SVG Export Plug-In . SVG Version: 6.00 Build 0)  -->
<svg version="1.1" id="Layer_1" xmlns="http://www.w3.org/2000/svg" xmlns:xlink="http://www.w3.org/1999/xlink" x="0px" y="0px"
	 viewBox="0 0 524 511.1" style="enable-background:new 0 0 524 511.1;" xml:space="preserve">
<style type="text/css">
	.st0{fill:#171715;}
</style>
<path class="st0" d="M108,376.7c-2.2-4-5.5-6.3-10-7l0.1,0.1c-0.2-1.4-0.8-2-2.1-1l0.1,0.2c-4.5-4.6-10.4-4.3-16.1-4.9
	c-2.1-0.2-4.3,0.4-6.4,0.9c-4.5,1.3-5.4,4-2.6,7.7c1.9,2.6,4.4,4.6,7.1,6.2c13.3,7.9,22.7,19.6,27.7,33.7
	c10,28.5,37.2,41.4,67.9,39.6c6.3-0.4,12.6-0.8,18.8-2.4c3.6-0.9,4.4,0.4,4.4,3.9c-0.1,14,0.1,28,0.1,42c0,12.3-8.1,18.1-19.9,14.1
	c-38.7-13.3-72.6-34.5-101.3-63.6c-39.2-39.8-63.2-87.5-72.6-142.6C2.1,297,2.5,290.2,0,283.8c0-14.3,0-28.7,0-43
	c1.7-0.8,0.9-2.3,1.1-3.5c1.5-14.1,3.7-28,7.4-41.7C45,59.2,178.2-22.8,316.8,5.6C422.7,27.3,506,116.4,521.2,223.8
	c0.8,6,0.6,12.1,2.8,17.9c0,14,0,28,0,42c-2.5,5-1.9,10.6-2.7,15.8c-13.9,85.3-58.7,149.2-133.5,192.1
	c-12.6,7.2-25.9,12.7-39.5,17.7c-10.8,4-21.9,0.4-21.4-14.8c0.7-23,0.3-46,0.4-69c0-13.2-2.3-25.8-8.9-37.4
	c-2.1-3.8-5.1-6.8-8.1-10.7c9.6-1.4,18.8-2.6,27.9-4.8c24.6-5.8,47-15.7,63.9-35.3c13.4-15.6,20.7-34,24.1-54
	c3.4-20.1,4.8-40.3,0.1-60.5c-3.6-15.7-10.8-29.6-21.3-41.8c-2-2.3-2.4-4.1-1.5-7c6.6-21.4,4.6-42.4-2.9-63.1c-1.1-3-3.2-3-5.5-3
	c-9.1-0.1-17.8,2.2-26.2,5.4c-13.2,4.9-25.4,11.7-37,19.4c-2.8,1.9-5.3,2.4-8.7,1.6c-40.7-10.2-81.4-10.2-122.1,0
	c-3.4,0.9-5.9,0.3-8.7-1.5c-15.7-10.2-31.8-19.7-50.4-23.2c-20.5-3.8-17.3-3.5-21.9,13.3c-4.8,17.4-4.9,34.9,0.9,52.1
	c0.7,2.1,0.5,3.6-1,5.4c-21.6,24.5-27.2,53.7-24.3,85.2c1.7,19.2,5.6,37.8,14.9,55c14.5,26.9,38.1,41.9,66.7,50.1
	c10.2,3,20.7,5,31.3,6.3c1.6,0.2,3.2,0.6,5.4,1c-9.3,9.5-13.9,20.6-15.8,33.1c-0.3,2.1-2,2.4-3.5,3c-13.3,5.2-26.9,7.5-41.6,3.5
	c1.5,3,2.4,5.6-1.1,6.7c-3.5,1.1-6.4-0.1-8-3.2c-1.2-2.3,0.1-3.7,2.5-4.1c0.8-0.1,2.3,0.6,2.3-0.8c0-1-1.3-1.3-2.3-1.3
	c-10.8-4.5-17.9-12.8-24-22.3c-2.9-4.6-5.5-9.4-10.1-12.6l0.1,0.1c-0.4-0.5-0.7-1.1-1.1-1.6c0-0.2-0.2-0.4-0.4-0.4
	C109.6,377.5,109.5,375.3,108,376.7L108,376.7z M129.2,407.7c-1.9,0-3.1,0.8-3.4,2.8c-0.3,2.9,2.9,6.6,6,6.7
	c2.2,0.1,3.4-0.9,3.7-3.1C135.8,411.4,132.2,407.7,129.2,407.7z M176,424.4c0-2.9-2.5-3.6-5-3.7c-2.8-0.1-5.7,0.5-5.9,3.8
	c-0.2,3.3,2.8,3.5,5.2,4.2C172.9,428.1,176,428,176,424.4z M197.7,424.1c0-2.8-2.6-3.5-5.1-3.4c-2.8,0.2-5.6,1.1-5.8,4.3
	c-0.2,3,2.4,3.5,4.9,3.7C194.5,428.3,197.6,427.5,197.7,424.1z M112.9,393.4c0.1,3.4,1.8,5.7,5.3,6.2c2.1,0.3,3-1.3,2.9-3.2
	c-0.2-3.2-1.9-5.2-5-6C114,390.4,112.8,391.3,112.9,393.4z M108,376.6C108,376.6,108,376.7,108,376.6c-1.8,1.3-5.5,1.3-3.3,5.2
	c1.1,2,2.6,3.5,5.1,3.2c3.5-0.5,0.9-3.8,2.3-5.3l0.1,0.1c-1.3,0-2.2-0.1-1.1-1.6c0-0.2-0.2-0.4-0.4-0.4
	C109.1,378.9,108.5,377.8,108,376.6z M98.1,369.7c-1.3,0.8-1.6-0.3-2.1-1l0.1,0.2c-1.9,0-4.4-1-4.8,1.8c-0.3,2.3,1.9,3.4,3.9,3.6
	C99.1,374.7,97.8,371.6,98.1,369.7L98.1,369.7z M146.2,416.8c0.8-0.1,2.3,0.6,2.3-0.8c0-1-1.3-1.3-2.3-1.3
	C146.5,415.4,147.4,416,146.2,416.8z"/>
</svg>
