<?xml version="1.0" encoding="utf-8"?>
<!-- Generator: Adobe Illustrator 21.1.0, SVG Export Plug-In . SVG Version: 6.00 Build 0)  -->
<svg version="1.1" id="Layer_1" xmlns="http://www.w3.org/2000/svg" xmlns:xlink="http://www.w3.org/1999/xlink" x="0px" y="0px"
	 viewBox="0 0 524 513.7" style="enable-background:new 0 0 524 513.7;" xml:space="preserve">
<style type="text/css">
	.st0{fill:#3E3E3E;}
</style>
<path class="st0" d="M524,286.5c-2.5,5-1.9,10.6-2.8,16c-13.8,84.4-57.9,147.9-131.7,191c-13.3,7.7-27.3,13.8-41.8,18.8
	c-12.8,4.4-20.8-1.1-20.8-14.5c0-23.5,0.1-47,0.2-70.5c0-11.7-2.1-22.8-7.3-33.4c-2.4-4.8-5.7-8.9-9.7-13.5c6.4-1,12.3-1.9,18.1-2.9
	c14.8-2.6,29.2-6.7,42.7-13.5c22.9-11.5,39.4-29,48.2-53.1c10.6-29.1,13.5-59,5.9-89.3c-3.3-13.3-9.6-25.2-18.5-35.6
	c-3.4-3.9-3.7-7.2-2.3-12c5.7-20.3,3.5-40.2-3.5-59.8c-1-2.7-2.8-3.4-5.3-3.5c-7.3-0.2-14.2,1.4-21.1,3.5
	c-15.4,4.8-29.4,12.6-42.7,21.4c-2.7,1.8-5.1,2.3-8.3,1.5c-40.9-10.3-81.7-10.3-122.6,0c-3,0.8-5.3,0.4-7.9-1.3
	c-15.7-10.2-31.8-19.8-50.4-23.4c-20.9-4-17.8-3.4-22.6,13.8c-4.6,17-4.6,34.3,0.9,51.2c0.7,2,0.8,3.6-0.8,5.5
	c-21.2,24.1-27.2,52.7-24.6,83.8c1.5,18.2,4.9,36,13,52.5c14.3,29.3,38.8,45.6,69.3,54.3c11.5,3.3,23.4,5.1,36.2,7
	c-4.5,4.7-8,9.4-10.4,14.6c-1.9,4.1-4,8.3-4.3,12.7c-0.4,6.7-4.2,9.2-10,10.9c-11.7,3.4-23.4,5-36.1,1.6c1.4,3.3,1.7,5.9-1.9,6.8
	c-3,0.7-5.7-0.4-7.3-3c-1.8-2.9,0.8-3.9,2.7-5.1c-0.8-1.8-2.5-2.2-3.9-3.1c-9.4-5.4-15.8-13.5-21.5-22.5
	c-8.8-13.9-20.6-23.8-37.5-26.5c-3.4-0.5-6.7-0.1-9.9,0.8c-4.6,1.3-5.4,4-2.6,7.8c1.9,2.6,4.4,4.6,7.1,6.2
	c13.3,7.9,22.7,19.6,27.7,33.8c9.6,27.1,35.1,40.9,66.6,39.6c6.5-0.3,13-0.7,19.3-2.3c4.1-1,5.2,0.5,5.1,4.5
	c-0.1,13.7,0.1,27.3,0.1,41c0,12.7-8.1,18.4-20.2,14.2c-29.6-10.2-56.6-25.1-80.7-45.1c-50.7-42.2-81.6-95.9-92.9-160.8
	c-1.2-7-1-14.2-3.2-21c0-14,0-28,0-42c1.3-9.1,0.9-18.4,2.2-27.4c2.9-19.4,9-37.9,16.7-55.9C29,136.5,42.4,115,58.8,95.2
	c20.9-25.1,45.7-45.5,74.2-61.6c29.4-16.6,60.8-27,94.2-31.3c42.4-5.5,83.7-1.2,124,13.1c39.1,13.9,73.1,36.1,101.7,66.1
	c35.1,36.8,58.3,80.1,68.2,130.1c1.9,9.5,1.7,19.3,2.4,28.9c0.1,1.3-0.4,2.7,0.5,3.9C524,258.5,524,272.5,524,286.5z M175.9,427.3
	c-0.1-3.2-2.8-3.8-5.4-3.8c-2.6,0-5.3,0.8-5.3,3.9c0,3.2,2.9,3.5,5.6,4C172.9,430.7,175.9,430.6,175.9,427.3z M197.6,426.9
	c0.2-2.6-2.2-3.5-4.6-3.4c-3,0.1-5.9,0.8-6.1,4.4c-0.1,2.7,2.3,3.3,4.6,3.5C194.3,431.1,197.4,430.3,197.6,426.9z M135.5,416.6
	c-0.5-3.5-2.7-5.6-6.2-6c-2.2-0.2-3.5,1.1-3.3,3.3c0.4,3.6,2.7,5.4,5.9,6.1C134.3,419.9,135.7,418.7,135.5,416.6z M116,393.3
	c-2.1-0.2-3.1,1-3,3c0.2,3.2,1.8,5.4,5,5.9c2,0.3,2.9-1.2,3.1-3.6C120.5,396.2,119.3,393.7,116,393.3z M106.6,380.3
	c-1.8,0-2.8,1.3-2.4,3c0.6,2.4,2.1,4.2,4.8,4.4c1.8,0.1,2.7-1,2.7-3.1C110.9,382.3,109.6,380.3,106.6,380.3z M93.6,371.5
	c-1.3,0-2.5,0.6-2.3,2c0.2,2.4,2.1,3.3,4.2,3.5c1.5,0.1,2.6-0.6,2.6-2.5C97.5,372.4,95.8,371.5,93.6,371.5z"/>
</svg>
