<?xml version="1.0" encoding="utf-8"?>
<!-- Generator: Adobe Illustrator 21.1.0, SVG Export Plug-In . SVG Version: 6.00 Build 0)  -->
<svg version="1.1" id="Layer_1" xmlns="http://www.w3.org/2000/svg" xmlns:xlink="http://www.w3.org/1999/xlink" x="0px" y="0px"
	 viewBox="0 0 895.7 916.3" style="enable-background:new 0 0 895.7 916.3;" xml:space="preserve">
<style type="text/css">
	.st0{fill:#85878A;}
	.st1{fill:#939597;}
	.st2{fill:#87898C;}
	.st3{fill:#C2C4C6;}
</style>
<g>
	<path class="st0" d="M444.1,0c9.7,0,19.4,0,29.1,0c53,2,104.3,12.4,153.5,32.2c47.7,19.2,90.8,45.8,130,79c3.2,2.8,2.7,4.1,0.1,6.8
		c-42.2,42.1-84.4,84.3-126.5,126.5c-2.8,2.9-4.5,2.5-7.3,0.2c-38.8-30.6-82.7-49.4-131.7-55.4C360.1,173.5,241.9,252,201.7,370.7
		c-0.2,0.5-0.4,0.9-0.5,1.4c-1.5,0.1-2.4-1-3.4-1.8c-50.2-38.4-100.4-76.8-150.6-115.1c8.7-19.4,19.6-37.4,31.6-54.8
		c64-92.8,150.4-154.5,259.1-184.7C372.5,6,408,1.1,444.1,0z"/>
	<path class="st1" d="M472.2,916.3c-9.4,0-18.7,0-28.1,0c-47-1.6-92.9-9.7-137.3-25.2c-53.9-18.8-102.6-46.6-146-83.6
		c-46-39.1-82.7-85.6-110.4-139.2c-1.4-2.6-3.2-5.1-3.5-8.2c0.8-0.2,1.7-0.3,2.3-0.7c14.5-11.1,29-22.2,43.5-33.3
		c24.4-18.7,48.7-37.4,73-56.2c11.5-8.9,23-17.9,34.5-26.9c3.2,7.8,6,15.8,9.6,23.5c39.9,86.8,106.9,140,200.6,158.3
		c47,9.2,93.8,4.8,139.8-8.5c21.6-6.2,41.7-15.5,60.8-27.3c0.6,0.7,1.2,1.6,1.9,2.2c13.9,10.7,27.8,21.4,41.7,32.1
		c22.1,17.1,44.2,34.2,66.3,51.4c11.9,9.2,23.6,18.6,35.5,27.9c-13.6,13.6-28.8,25.2-44.5,36.1c-55.9,38.8-117.7,62.6-184.9,72.7
		C508.7,914,490.5,915.6,472.2,916.3z"/>
	<path class="st2" d="M756.3,802.4c-11.8-9.3-23.6-18.7-35.5-27.9c-22.1-17.2-44.1-34.3-66.3-51.4c-13.9-10.7-27.8-21.4-41.7-32.1
		c-0.8-0.6-1.3-1.5-1.9-2.2c18.9-12.7,36.1-27.2,50.4-45.1c20.8-25.9,34-55.3,41.6-87.5c1-4.1-0.9-4.2-4.1-4.2
		c-51.3,0.1-102.7,0-154,0c-27.2,0-54.3-0.1-81.5,0.1c-4,0-5.4-0.7-5.3-5.1c0.2-55.8,0.2-111.7,0-167.5c0-4.1,1-5.3,5.2-5.3
		c139,0.1,278,0.1,417,0.1c3.3,0,5.2,0.3,6.1,4.4c9,39.6,11.1,79.5,8,120c-3.4,45-11.5,88.8-26.3,131.4
		c-22.5,64.8-58,121.3-107.6,168.8C759.2,800.3,758.1,801.9,756.3,802.4z"/>
	<path class="st3" d="M200.2,542.9c-11.5,9-23,18-34.5,26.9c-24.3,18.8-48.7,37.5-73,56.2c-14.5,11.1-29,22.3-43.5,33.3
		c-0.6,0.5-1.5,0.5-2.3,0.7c-5.1-7.3-8-15.6-11.4-23.7c-13.5-31.9-23.1-65.1-29-99.2c-2.8-16-4.5-32.2-5.6-48.4
		c-1.1-15.8-1.1-31.6-0.7-47.4c1.1-38.8,7.4-76.9,18.3-114.2c6.6-22.7,15.3-44.6,25.2-66.1c1-2.1,2.2-4.1,3.3-6.1
		c50.2,38.4,100.4,76.8,150.6,115.1c1,0.8,1.9,1.9,3.4,1.8c-5.4,16.6-9.6,33.5-11.6,50.8c-1.9,16.8-2.9,33.6-1.8,50.7
		c1.5,23,5.5,45.4,12.3,67.3C200.3,541.5,200.2,542.2,200.2,542.9z"/>
</g>
</svg>
