<svg id="Layer_1" data-name="Layer 1" xmlns="http://www.w3.org/2000/svg" viewBox="0 0 896.03 916.67"><defs><style>.cls-1{fill:#e94335;}.cls-2{fill:#34a753;}.cls-3{fill:#4285f3;}.cls-4{fill:#fabb05;}</style></defs><title>Google.logo</title><path class="cls-1" d="M47.19,255.63c4.88-12.25,11.61-23.55,18.5-34.7q94-152.05,265.39-203.1C380.06,3.34,430.32-2.05,481.27.69,585.47,6.3,676.9,44.11,756.48,111.28c3.11,2.62,3.5,3.95.39,7q-63.29,62.93-126.24,126.2c-2.81,2.82-4.39,3.06-7.62.51q-60.13-47.31-136.25-55.8C362.48,175.64,244.6,249.64,203,367.53c-.66,1.88-1.5,3.69-2.26,5.53Z"/><path class="cls-2" d="M200.7,543.33c11.21,32.75,27.35,62.77,49.84,89.18,43.2,50.73,97.54,82.41,163.41,92.92,58.9,9.4,116,2.26,170.76-22.07,9.13-4.06,17.72-9.13,26.32-14.18a15.07,15.07,0,0,0,1.39,1.4q42.37,32.89,84.74,65.76,29.74,23.09,59.45,46.23c-20.7,20-43.77,36.91-68.4,51.68a431.69,431.69,0,0,1-176.46,59.29c-103.51,11.45-200.5-8.58-290-62.08C146.1,806.23,88.63,743.69,48.64,665.12A40.63,40.63,0,0,1,47,661c1.34-1,2.71-1.93,4-2.94Z"/><path class="cls-3" d="M756.61,802.58q-29.73-23.12-59.45-46.23-42.36-32.89-84.74-65.76a15.07,15.07,0,0,1-1.39-1.4c12.82-9,25.34-18.3,36.41-29.48,28.64-28.92,46.4-63.65,55.57-103.07,1.12-4.79-1.61-4.26-4.54-4.25q-116.72,0-233.44,0c-6.8,0-6.8,0-6.8-6.92q0-82.48-.09-165c0-4.3.72-5.91,5.59-5.91q208.2.22,416.4,0c4.14,0,5.58,1.13,6.48,5.27,6.37,29.35,10.05,59,9.35,89-1.58,67.4-13.44,132.69-40.68,194.74a418.72,418.72,0,0,1-95.51,136.55A32.1,32.1,0,0,1,756.61,802.58Z"/><path class="cls-4" d="M200.7,543.33,51.08,658c-1.32,1-2.69,2-4,2.94-6.51-11.25-11.25-23.32-15.95-35.38A452.88,452.88,0,0,1,1,488.71C-4,408.48,10.33,332,44.9,259.36c.62-1.31.92-2.86,2.29-3.73L200.7,373.06c-3.68,13.63-7.47,27.2-9.73,41.18a274.07,274.07,0,0,0,8.66,125.26C200,540.77,200.35,542.06,200.7,543.33Z"/></svg>