<?xml version="1.0" encoding="utf-8"?>
<!-- Generator: Adobe Illustrator 21.1.0, SVG Export Plug-In . SVG Version: 6.00 Build 0)  -->
<svg version="1.1" id="Layer_1" xmlns="http://www.w3.org/2000/svg" xmlns:xlink="http://www.w3.org/1999/xlink" x="0px" y="0px"
	 viewBox="0 0 16 16" style="enable-background:new 0 0 16 16;" xml:space="preserve">
<style type="text/css">
	.st0{fill:#232323;}
	.st1{fill:#FFFFFF;}
</style>
<g id="Manager_Icon_Tie_Group" transform="translate(9525 1562)">
	<path class="st0" d="M-9521-1562h8c2.2,0,4,1.8,4,4v8c0,2.2-1.8,4-4,4h-8c-2.2,0-4-1.8-4-4v-8C-9525-1560.2-9523.2-1562-9521-1562z
		"/>
	<path id="GuestIconEye" transform="translate(3.2 4.8)" class="st1" d="M-9518.7-1558.8c0,0.8-0.7,1.5-1.5,1.5s-1.5-0.7-1.5-1.5
		c0-0.8,0.7-1.5,1.5-1.5l0,0C-9519.4-1560.3-9518.7-1559.6-9518.7-1558.8z M-9515.5-1559.2L-9515.5-1559.2c-0.5-0.7-2.3-2.8-4.7-2.8
		s-4.3,2.3-4.7,2.8c-0.2,0.3-0.2,0.6,0,0.9c0.4,0.5,2.3,2.8,4.7,2.8c2.4,0,4.2-2.1,4.7-2.8c0.1-0.1,0.1-0.3,0.1-0.4
		C-9515.4-1558.9-9515.4-1559.1-9515.5-1559.2z M-9520.2-1556.9c-1.3-0.2-2.5-0.9-3.3-1.9c0.4-0.5,1.8-1.9,3.3-1.9
		c1.3,0.2,2.5,0.8,3.3,1.9C-9517.3-1558.3-9518.7-1556.9-9520.2-1556.9z"/>
</g>
</svg>
