<svg id="Layer_1" data-name="Layer 1" xmlns="http://www.w3.org/2000/svg" viewBox="0 0 30 30"><defs><style>.cls-1{fill:#fff;}.cls-2{fill:#232323;}</style></defs><title>image-icon</title><path class="cls-1" d="M25,30H5a5,5,0,0,1-5-5V5A5,5,0,0,1,5,0H25a5,5,0,0,1,5,5V25A5,5,0,0,1,25,30Z"/><path class="cls-2" d="M8,11.12a4,4,0,1,1,4-4A4,4,0,0,1,8,11.12Zm0-6a2,2,0,1,0,2,2A2,2,0,0,0,8,5.12ZM29.5,24.63a1,1,0,0,1-.68.27,1,1,0,0,1-.74-.32l-8.17-8.86-4.42,4,1.94,1.77a1,1,0,1,1-1.34,1.47L14,21l-1.44-1.32-2.16-2-8,8.83a1,1,0,0,1-.74.33A1,1,0,0,1,1,26.62a1,1,0,0,1-.07-1.41l8.65-9.58a1.07,1.07,0,0,1,.69-.33,1,1,0,0,1,.72.26l3,2.75,5.32-4.74a1,1,0,0,1,1.4.07l8.84,9.58A1,1,0,0,1,29.5,24.63Z"/></svg>