<?xml version="1.0" encoding="utf-8"?>
<!-- Generator: Adobe Illustrator 21.1.0, SVG Export Plug-In . SVG Version: 6.00 Build 0)  -->
<svg version="1.1" id="Layer_1" xmlns="http://www.w3.org/2000/svg" xmlns:xlink="http://www.w3.org/1999/xlink" x="0px" y="0px"
	 viewBox="0 0 15 15" style="enable-background:new 0 0 15 15;" xml:space="preserve">
<style type="text/css">
	.st0{fill:none;}
</style>
<g>
	<path class="st0" d="M15,15H0V0h15V15z"/>
	<path d="M7.8,8.7c-0.1,0-0.2,0-0.3-0.1l0,0c-0.1,0-0.2-0.1-0.2-0.2L5.8,7.1C5.5,6.8,5.5,6.3,5.8,6c0.3-0.3,0.8-0.3,1.1,0l0,0
		l0.9,0.9l4.9-4.8c0.3-0.3,0.8-0.3,1.1,0s0.3,0.8,0,1.1L8.3,8.5C8.3,8.6,8.2,8.6,8.1,8.7l0,0C8,8.7,7.9,8.7,7.8,8.7z M14.8,5.9
		c-0.1-0.6-0.7-0.9-1.2-0.8c-0.6,0.1-0.9,0.7-0.8,1.2C12.9,6.5,13,6.8,13,7h-1c-0.3,0-0.5,0.2-0.5,0.5C11.5,7.8,11.7,8,12,8h1
		c-0.2,2.7-2.3,4.8-5,5v-1c0-0.3-0.2-0.5-0.5-0.5C7.2,11.5,7,11.7,7,12v1c-2.7-0.2-4.8-2.3-5-5h1c0.3,0,0.5-0.2,0.5-0.5
		C3.5,7.2,3.3,7,3,7H2c0.2-2.7,2.3-4.8,5-5v1c0,0.3,0.2,0.5,0.5,0.5C7.8,3.5,8,3.3,8,3V2c0.7,0.1,1.4,0.3,2,0.6
		c0.5,0.3,1.1,0.2,1.4-0.2c0.3-0.5,0.2-1.1-0.2-1.4c-0.1,0-0.1-0.1-0.2-0.1C7.3-1.1,2.7,0.4,0.8,4.1s-0.5,8.2,3.2,10.1
		s8.2,0.5,10.1-3.2C15,9.4,15.2,7.6,14.8,5.9L14.8,5.9z"/>
</g>
</svg>
