<svg id="Layer_1" data-name="Layer 1" xmlns="http://www.w3.org/2000/svg" viewBox="0 0 15 15"><title>in-progress-ontime</title><path d="M7.79,8.73a.7.7,0,0,1-.29-.06h0a.76.76,0,0,1-.23-.15L5.81,7.08A.75.75,0,0,1,6.86,6l.94.92,4.85-4.77A.75.75,0,0,1,13.7,3.23L8.32,8.52a.75.75,0,0,1-.22.15h0A.74.74,0,0,1,7.79,8.73Zm7-2.82a1,1,0,0,0-2,.42A5.59,5.59,0,0,1,13,7H12a.5.5,0,0,0,0,1h1a5.51,5.51,0,0,1-5,5V12a.5.5,0,0,0-1,0v1A5.51,5.51,0,0,1,2,8H3A.5.5,0,0,0,3,7H2A5.51,5.51,0,0,1,7,2V3A.5.5,0,0,0,8,3V2a5.42,5.42,0,0,1,2,.58A1,1,0,1,0,10.94.83a7.49,7.49,0,1,0,3.89,5.08Z"/></svg>