<?xml version="1.0" encoding="utf-8"?>
<!-- Generator: Adobe Illustrator 21.1.0, SVG Export Plug-In . SVG Version: 6.00 Build 0)  -->
<svg version="1.1" id="Layer_1" xmlns="http://www.w3.org/2000/svg" xmlns:xlink="http://www.w3.org/1999/xlink" x="0px" y="0px"
	 viewBox="0 0 15 15" style="enable-background:new 0 0 15 15;" xml:space="preserve">
<style type="text/css">
	.st0{fill:none;}
</style>
<g>
	<path class="st0" d="M15,15H0V0h15V15z"/>
	<path d="M14.3,14H0.8c-0.3,0-0.5-0.2-0.6-0.4c-0.1-0.2-0.1-0.5,0-0.8L6.9,1.4c0.2-0.4,0.7-0.5,1-0.2C8,1.2,8.1,1.3,8.1,1.4
		l6.8,11.4c0.1,0.2,0.1,0.5,0,0.8C14.8,13.8,14.5,14,14.3,14z M2.1,12.4h10.8L7.5,3.3L2.1,12.4z M7.5,10.4c-0.4,0-0.8-0.3-0.8-0.7V6
		c0-0.4,0.3-0.7,0.8-0.7S8.3,5.6,8.3,6v3.6C8.3,10,7.9,10.4,7.5,10.4z M7.5,10.6c0.4,0,0.7,0.3,0.7,0.7c0,0.4-0.3,0.7-0.7,0.7
		c-0.4,0-0.7-0.3-0.7-0.7l0,0C6.8,10.9,7.1,10.6,7.5,10.6L7.5,10.6z"/>
</g>
</svg>
