<?xml version="1.0" encoding="utf-8"?>
<!-- Generator: Adobe Illustrator 21.1.0, SVG Export Plug-In . SVG Version: 6.00 Build 0)  -->
<svg version="1.1" id="Layer_1" xmlns="http://www.w3.org/2000/svg" xmlns:xlink="http://www.w3.org/1999/xlink" x="0px" y="0px"
	 viewBox="0 0 15 15" style="enable-background:new 0 0 15 15;" xml:space="preserve">
<style type="text/css">
	.st0{fill:none;}
</style>
<g>
	<path d="M14,8.8V8.7c-0.2-2.2-1.4-3.6-2.4-4.8s-1.7-2-1.7-3.2c0-0.3-0.2-0.5-0.4-0.6C9.3,0,9.1,0,8.9,0.1C7.3,1,6.1,2.5,5.5,4.3
		C5.3,5.2,5.1,6.1,5.1,7C4.6,6.6,4.2,6,4,5.3c0-0.2-0.2-0.4-0.4-0.5c-0.2-0.1-0.4-0.1-0.6,0C3,4.9,1.1,5.7,1,9c0,0.1,0,0.2,0,0.3
		C1,12.4,3.9,15,7.5,15S14,12.4,14,9.3C14,9.2,14,9,14,8.8L14,8.8z M9.3,12.2c-0.1,1-0.9,1.7-1.7,1.6c-0.9,0.1-1.6-0.6-1.7-1.6v-0.1
		c0-0.1,0-0.2,0-0.3c0.3,0.3,0.6,0.4,1,0.4c0.3,0,0.6-0.2,0.7-0.6c0-0.4,0-0.9,0.1-1.3C7.7,10,7.8,9.8,7.9,9.6
		c0.2,0.3,0.3,0.5,0.5,0.8c0.4,0.4,0.7,1,0.8,1.6V12.2z M10.4,13c0.1-0.3,0.1-0.5,0.1-0.8c0-0.1,0-0.2,0-0.3
		c-0.1-0.9-0.5-1.7-1.1-2.3C9.1,9.2,8.9,8.8,8.9,8.4c0-0.3-0.2-0.5-0.4-0.6C8.3,7.8,8,7.8,7.8,7.9C7.1,8.3,6.6,9,6.3,9.9
		c0,0,0,0.1,0,0.1C6.3,10,6.2,9.9,6.1,9.9c-0.2-0.1-0.4-0.1-0.6,0c-0.7,0.4-1.1,1.2-1.1,2.1v0.2c0,0.3,0,0.6,0.1,0.8
		c-1.3-0.6-2.2-2.1-2.3-3.7c0-0.1,0-0.2,0-0.2c0-0.9,0.2-1.8,0.7-2.5c0.5,1.2,1.6,1.9,2.7,1.9c0.3,0,0.6-0.2,0.6-0.6
		c0-1.1,0.1-2.1,0.3-3.1c0.4-1.2,1.1-2.2,2-2.9c0.4,1.1,1,2.1,1.8,2.8c1,1.1,2,2.3,2.1,4.2V9c0,0.1,0,0.2,0,0.3
		C12.6,10.9,11.7,12.3,10.4,13L10.4,13z"/>
	<path class="st0" d="M0,0h15v15H0V0z"/>
</g>
</svg>
