<svg id="Layer_1" data-name="Layer 1" xmlns="http://www.w3.org/2000/svg" viewBox="0 0 15 15"><title>in-progress-at-risk</title><path d="M15,8.84V8.7c-.23-2.25-1.59-3.63-2.8-4.85s-1.92-2-1.92-3.23A.62.62,0,0,0,9.81.06a.91.91,0,0,0-.74,0A8.3,8.3,0,0,0,5.19,4.34,9.42,9.42,0,0,0,4.77,7,2.63,2.63,0,0,1,3.48,5.31a.63.63,0,0,0-.41-.46.94.94,0,0,0-.64,0C2.34,4.88.13,5.71,0,9c0,.11,0,.22,0,.33C0,12.44,3.36,15,7.5,15S15,12.44,15,9.3a3.25,3.25,0,0,0,0-.44ZM9.52,12.17a1.85,1.85,0,0,1-2,1.6,1.85,1.85,0,0,1-2-1.61v-.1a1.52,1.52,0,0,1,0-.3,1.87,1.87,0,0,0,1.17.38.7.7,0,0,0,.76-.62,4.23,4.23,0,0,1,.14-1.27A1.84,1.84,0,0,1,8,9.59a5.77,5.77,0,0,0,.63.76A2.79,2.79,0,0,1,9.52,12Zm1.36.82a2.33,2.33,0,0,0,.15-.82,1.57,1.57,0,0,0,0-.28A3.8,3.8,0,0,0,9.78,9.6c-.4-.43-.71-.76-.71-1.2a.62.62,0,0,0-.44-.56.93.93,0,0,0-.75.05,4,4,0,0,0-1.76,2,.56.56,0,0,0,0,.12.72.72,0,0,0-.21-.12.89.89,0,0,0-.66,0A2.2,2.2,0,0,0,4,12v.16a2.33,2.33,0,0,0,.15.82A4.32,4.32,0,0,1,1.51,9.28a2.26,2.26,0,0,1,0-.25,3.89,3.89,0,0,1,.85-2.51,3.43,3.43,0,0,0,3.15,1.9.7.7,0,0,0,.75-.62,10,10,0,0,1,.37-3.13,6.6,6.6,0,0,1,2.27-2.9A7.65,7.65,0,0,0,11,4.62c1.12,1.14,2.28,2.31,2.46,4.18l0,.17a3.25,3.25,0,0,1,0,.33A4.32,4.32,0,0,1,10.88,13Z"/></svg>