<svg id="Layer_1" data-name="Layer 1" xmlns="http://www.w3.org/2000/svg" viewBox="0 0 15 15"><title>InProgressOntime</title><path d="M7.5,15A7.5,7.5,0,1,1,10.94.83,1,1,0,1,1,10,2.61,5.44,5.44,0,0,0,7.5,2,5.5,5.5,0,1,0,13,7.5a5.59,5.59,0,0,0-.12-1.17,1,1,0,0,1,2-.42A7.51,7.51,0,0,1,7.5,15Z"/><path d="M7.79,8.73a.7.7,0,0,1-.29-.06h0a.76.76,0,0,1-.23-.15L5.81,7.08A.75.75,0,0,1,6.86,6l.94.92,4.85-4.77A.75.75,0,0,1,13.7,3.23L8.32,8.52a.75.75,0,0,1-.22.15h0A.74.74,0,0,1,7.79,8.73Z"/><path d="M7.5,14.5A.5.5,0,0,1,7,14V12a.5.5,0,0,1,1,0v2A.5.5,0,0,1,7.5,14.5ZM14,8H12a.5.5,0,0,1,0-1h2a.5.5,0,0,1,0,1ZM3,8H1A.5.5,0,0,1,1,7H3A.5.5,0,0,1,3,8ZM7.5,3.5A.5.5,0,0,1,7,3V1A.5.5,0,0,1,8,1V3A.5.5,0,0,1,7.5,3.5Z"/></svg>