<?xml version="1.0" encoding="utf-8"?>
<!-- Generator: Adobe Illustrator 21.1.0, SVG Export Plug-In . SVG Version: 6.00 Build 0)  -->
<svg version="1.1" id="Layer_1" xmlns="http://www.w3.org/2000/svg" xmlns:xlink="http://www.w3.org/1999/xlink" x="0px" y="0px"
	 viewBox="0 0 40 40" style="enable-background:new 0 0 40 40;" xml:space="preserve">
<g>
	<path d="M17.4,20c-2.7,0-5.4,0-8.2,0C8,20,7,19.7,6,19c-1.7-1.3-3.4-2.5-5.1-3.8c-1.2-0.9-1.1-2.3,0.2-3c7-4,14-8,20.9-11.9
		c0.6-0.3,1.1-0.3,1.7,0c5.1,3,10.2,6,15.3,9c1.3,0.8,1.4,2.2,0.2,3c-3.3,2.3-6.6,4.5-9.9,6.7c-1.1,0.7-2.3,1-3.6,1
		C22.8,20,20.1,20,17.4,20L17.4,20z M4.1,13.9c1.3,0.9,2.5,1.8,3.7,2.6c0.5,0.4,1.2,0.4,1.8,0.2c1.3-0.3,2.5-1,3.5-2
		c1-0.9,1.8-1.8,2.7-2.8c0.7-0.7,1.4-0.7,2.1,0c0.2,0.2,0.3,0.4,0.5,0.6c1.3,1.4,2.6,2.6,4.2,3.5c2,1.1,4,1.2,5.9-0.2
		c1.9-1.3,3.8-2.5,5.7-3.8c0.5-0.3,1-0.7,1.5-1.1c-0.2-0.1-0.3-0.2-0.4-0.3C31.2,8.2,27.1,5.8,23,3.4c-0.3-0.2-0.5-0.1-0.7,0.1
		C17.2,6.4,12.1,9.3,7,12.2C6.1,12.8,5.2,13.3,4.1,13.9z M0,20.1c0-0.5,0.7-1.5,1.4-1.5c0.1,0,0.3,0.1,0.4,0.2
		c4.9,3.5,9.7,7.1,14.6,10.7c0.4,0.3,0.6,0.3,1,0c6.5-4.3,13-8.5,19.4-12.7c0.3-0.2,0.6-0.4,0.9-0.6c0.7-0.5,1-0.5,1.7,0.1
		c0.7,0.7,0.7,1.9,0,2.5c-0.1,0.1-0.2,0.2-0.4,0.3c-4,2.6-8,5.2-12,7.8c-3,2-6.1,4-9.2,6c-0.7,0.5-1.3,0.5-2-0.1
		c-5-3.6-10-7.2-14.9-10.9C0.4,21.5,0,21.1,0,20.1z M0,26.7c0-0.7,0.5-1.5,1.2-1.6c0.1,0,0.3,0.1,0.5,0.2c4.2,3.1,8.5,6.3,12.7,9.4
		c0.7,0.5,1.4,1.1,2.1,1.6c0.3,0.2,0.5,0.2,0.8,0c5.9-4,11.9-8.1,17.8-12.1c1-0.7,1.9-1.3,2.9-1.9c0.4-0.3,0.6-0.3,1,0
		c1.1,0.7,1.2,2.1,0.1,2.9c-1.9,1.3-3.8,2.6-5.8,3.9c-5.2,3.5-10.3,7-15.5,10.5c-0.8,0.5-1.4,0.5-2.1-0.1c-5-3.8-9.9-7.6-14.9-11.4
		C0.4,27.8,0,27.4,0,26.7z"/>
</g>
</svg>
