<?xml version="1.0" encoding="utf-8"?>
<!-- Generator: Adobe Illustrator 21.1.0, SVG Export Plug-In . SVG Version: 6.00 Build 0)  -->
<svg version="1.1" id="Capa_1" xmlns="http://www.w3.org/2000/svg" xmlns:xlink="http://www.w3.org/1999/xlink" x="0px" y="0px"
	 viewBox="0 0 40 40" style="enable-background:new 0 0 40 40;" xml:space="preserve">
<g>
	<path d="M12.8,36.1H7c-1.9,0-3.5-1.6-3.5-3.5V7c0-2,1.6-3.5,3.5-3.5h21.4c1.9,0,3.5,1.6,3.5,3.5v8.7c0,1,0.8,1.7,1.7,1.7
		s1.7-0.8,1.7-1.7V7c0-3.8-3.1-7-7-7H7C3.1,0,0,3.1,0,7v25.6c0,3.8,3.1,7,7,7h5.8c1,0,1.7-0.8,1.7-1.7S13.8,36.1,12.8,36.1z
		 M38.5,20.7c-2-2-5.4-2-7.4,0l-9.6,9.5c-0.2,0.2-0.4,0.5-0.4,0.7L19,37.8c-0.2,0.6,0,1.3,0.4,1.7c0.3,0.3,0.8,0.5,1.2,0.5
		c0.2,0,0.3,0,0.5-0.1l7-1.9c0.3-0.1,0.6-0.2,0.8-0.4l9.6-9.5C40.5,26,40.5,22.7,38.5,20.7z M26.8,34.8l-3.5,1l1-3.4l6.5-6.4
		l2.5,2.5L26.8,34.8z M36,25.6l-0.3,0.3l-2.5-2.5l0.3-0.3c0.7-0.7,1.8-0.7,2.5,0C36.7,23.8,36.7,24.9,36,25.6z M28.4,19.1
		c0-1-0.8-1.7-1.7-1.7h-18c-1,0-1.7,0.8-1.7,1.7c0,1,0.8,1.7,1.7,1.7h18C27.6,20.9,28.4,20.1,28.4,19.1z M8.7,24.3
		c-1,0-1.7,0.8-1.7,1.7s0.8,1.7,1.7,1.7h10.9c1,0,1.7-0.8,1.7-1.7s-0.8-1.7-1.7-1.7H8.7z M26.7,10.4h-18c-1,0-1.7,0.8-1.7,1.7
		s0.8,1.7,1.7,1.7h18c1,0,1.7-0.8,1.7-1.7S27.6,10.4,26.7,10.4z"/>
</g>
</svg>
