<?xml version="1.0" encoding="utf-8"?>
<!-- Generator: Adobe Illustrator 22.1.0, SVG Export Plug-In . SVG Version: 6.00 Build 0)  -->
<svg version="1.1" id="Layer_1" xmlns="http://www.w3.org/2000/svg" xmlns:xlink="http://www.w3.org/1999/xlink" x="0px" y="0px"
	 viewBox="0 0 12 20" style="enable-background:new 0 0 12 20;" xml:space="preserve">
<g>
	<path d="M10.5,9.9c0.3-3.6-1.1-7.1-4-9.7c-0.3-0.2-0.7-0.2-1,0c-2.9,2.5-4.3,6.1-4,9.7c-1,1-1.5,2.3-1.5,3.6c0,1.4,0.6,2.7,1.7,3.7
		c0.1,0.1,0.3,0.2,0.5,0.2c0.1,0,0.3,0,0.4-0.1c0.2-0.1,0.4-0.4,0.3-0.7l0-0.2c0-0.2-0.1-0.4-0.1-0.6c0-0.5,0.2-1,0.5-1.5
		c0,0,0.1,0,0.1,0h5.3c0,0,0.1,0,0.1,0c0.3,0.4,0.5,1,0.5,1.5c0,0.2,0,0.3-0.1,0.5c0,0.1,0,0.2,0,0.3c-0.1,0.3,0.1,0.6,0.3,0.7
		c0.3,0.1,0.7,0.1,0.9-0.1c1.1-1,1.7-2.3,1.7-3.7C12,12.1,11.5,10.8,10.5,9.9z M2.4,13.2C2,13.6,1.7,14,1.6,14.5
		c-0.1-0.3-0.1-0.7-0.1-1c0-0.6,0.2-1.2,0.5-1.8C2,12.1,2.2,12.8,2.4,13.2z M4.4,3.7c0.4-0.7,1-1.4,1.6-2.1c0.6,0.6,1.2,1.3,1.6,2.1
		H4.4z M8.2,13H3.8c-1.2-2.5-1.2-5.4-0.1-8h4.6C9.4,7.6,9.4,10.5,8.2,13z M10.6,13.4c0,0.3,0,0.7-0.1,1c-0.2-0.5-0.4-0.9-0.8-1.3
		c0.2-0.4,0.4-1,0.5-1.5C10.4,12.2,10.6,12.8,10.6,13.4z M4.8,16.2v2.1c0,0.4-0.3,0.7-0.7,0.7s-0.7-0.3-0.7-0.7v-2.1
		c0-0.4,0.3-0.7,0.7-0.7S4.8,15.8,4.8,16.2z M6.7,15c0,0,0,0.1,0,0.2v4.2c0,0.1,0,0.1,0,0.2C6.6,19.8,6.3,20,6,20
		c-0.3,0-0.6-0.2-0.7-0.5c0,0,0-0.1,0-0.2v-4.2c0-0.1,0-0.1,0-0.2c0-0.1,0.1-0.2,0.2-0.3C5.9,14.4,6.5,14.5,6.7,15z M8.4,15.7
		c0.1,0.1,0.2,0.3,0.2,0.4v2.1c0,0.4-0.3,0.7-0.7,0.7c-0.4,0-0.7-0.3-0.7-0.7v-2.1c0-0.4,0.3-0.7,0.7-0.7
		C8.1,15.5,8.3,15.6,8.4,15.7z"/>
</g>
</svg>
