<?xml version="1.0" encoding="utf-8"?>
<!-- Generator: Adobe Illustrator 22.1.0, SVG Export Plug-In . SVG Version: 6.00 Build 0)  -->
<svg version="1.1" id="Layer_1" xmlns="http://www.w3.org/2000/svg" xmlns:xlink="http://www.w3.org/1999/xlink" x="0px" y="0px"
	 viewBox="0 0 14 24" style="enable-background:new 0 0 14 24;" xml:space="preserve">
<g>
	<path d="M12.1,0c0.4,0,0.8,0.2,1.2,0.5c0.7,0.6,0.7,1.6,0.1,2.3c0,0-0.1,0.1-0.1,0.1L4.4,12l9.1,9.1c0.7,0.6,0.7,1.6,0.1,2.3
		c0,0-0.1,0.1-0.1,0.1c-0.7,0.7-1.8,0.7-2.5,0c0,0,0,0,0,0L0.5,13.2c-0.6-0.7-0.6-1.7,0-2.4L10.9,0.5C11.2,0.2,11.6,0,12.1,0z"/>
</g>
</svg>
