<?xml version="1.0" encoding="utf-8"?>
<!-- Generator: Adobe Illustrator 22.1.0, SVG Export Plug-In . SVG Version: 6.00 Build 0)  -->
<svg version="1.1" id="Capa_1" xmlns="http://www.w3.org/2000/svg" xmlns:xlink="http://www.w3.org/1999/xlink" x="0px" y="0px"
	 viewBox="0 0 40 40" style="enable-background:new 0 0 40 40;" xml:space="preserve">
<g>
	<path d="M27.7,6.2C27.6,6.1,27.4,6,27.2,6c-0.2,0-0.4,0.1-0.5,0.3l-2.4,3.8l-2-2.1c-0.1-0.1-0.3-0.2-0.5-0.2
		c-0.2,0-0.4,0.1-0.5,0.3l-1.8,3l-2.1-5.6C17.4,5.2,17.2,5,16.9,5c-0.2,0-0.5,0.1-0.6,0.3l-1.8,3L13.7,6c-0.1-0.2-0.3-0.4-0.5-0.4
		s-0.4,0-0.6,0.2c-1.7,2-2.6,4.6-2.6,7.3c0,4.1,1.7,6.4,2.8,7.9c0.5,0.7,0.9,1.3,0.9,1.6v1.4c0,1,0.5,1.9,1.2,2.3v4.3
		c0,0.7,0.3,1.4,0.7,1.9L17,34c0.6,0.6,1.4,1,2.2,1h1.7c0.8,0,1.6-0.4,2.2-1l1.2-1.3c0.5-0.5,0.7-1.2,0.7-1.9v-4.3
		c0.7-0.5,1.2-1.3,1.2-2.3v-1.4c0-0.4,0.4-1,0.9-1.6c1.1-1.5,2.8-3.8,2.8-7.9C30,10.6,29.2,8.2,27.7,6.2z M22.2,33
		c-0.4,0.4-0.8,0.6-1.3,0.6h-1.7c-0.5,0-1-0.2-1.3-0.6l-0.7-0.8h5.7L22.2,33z M23.8,30.7c0,0.1,0,0.1,0,0.2h-7.4c0-0.1,0-0.1,0-0.2
		v-1.2h7.5V30.7L23.8,30.7z M23.8,28.2h-7.5v-1.4h7.5V28.2z M26.2,20.2c-0.7,0.9-1.2,1.6-1.2,2.5v1.4c0,0.8-0.6,1.4-1.2,1.4h-7.5
		c-0.7,0-1.2-0.6-1.2-1.4v-1.4c0-0.9-0.5-1.6-1.2-2.5c-1.1-1.5-2.5-3.4-2.5-7.1c0-2,0.6-3.9,1.7-5.6l0.9,2.4
		c0.1,0.2,0.3,0.4,0.5,0.4c0.2,0,0.5-0.1,0.6-0.3l1.8-3l2.1,5.6c0.1,0.2,0.3,0.4,0.5,0.4c0.2,0,0.5-0.1,0.6-0.3L22,9.5l2,2.1
		c0.1,0.1,0.3,0.2,0.5,0.2c0.2,0,0.4-0.1,0.5-0.3l2.4-3.7c1,1.6,1.5,3.4,1.5,5.4C28.8,16.8,27.3,18.8,26.2,20.2z"/>
</g>
</svg>
