<?xml version="1.0" encoding="utf-8"?>
<!-- Generator: Adobe Illustrator 22.1.0, SVG Export Plug-In . SVG Version: 6.00 Build 0)  -->
<svg version="1.1" id="Capa_1" xmlns="http://www.w3.org/2000/svg" xmlns:xlink="http://www.w3.org/1999/xlink" x="0px" y="0px"
	 viewBox="0 0 40 40" style="enable-background:new 0 0 40 40;" xml:space="preserve">
<style type="text/css">
	.st0{fill:#FFFFFF;}
</style>
<g>
	<path class="st0" d="M17.9,33.2c0.3,0.3,0.8,0.5,1.3,0.5h1.7c0.5,0,0.9-0.2,1.3-0.5l0.7-0.7h-5.7L17.9,33.2z"/>
	<path class="st0" d="M16.3,31.2C16.3,31.2,16.3,31.2,16.3,31.2l7.4,0.1l0.1-0.1v-1.1h-7.5V31.2z"/>
	<path class="st0" d="M26.6,9.3c-1.5-1.9-3.9-3.1-6.5-3.1c-2.5,0-4.7,1.1-6.3,2.8c-1.2,1.3-2,3-2.3,4.8c-0.1,0.5-0.1,1-0.1,1.5
		c0,3.3,1.4,5.1,2.5,6.4c0.7,0.8,1.2,1.4,1.2,2.2v1.2c0,0.6,0.5,1.2,1.2,1.2h7.5c0.6,0,1.2-0.5,1.2-1.2v-1.2c0-0.7,0.5-1.4,1.2-2.2
		c1.1-1.3,2.6-3.1,2.6-6.4c0-0.9-0.1-1.8-0.4-2.6C28,11.4,27.4,10.3,26.6,9.3z"/>
	<rect x="16.3" y="27.7" class="st0" width="7.5" height="1.2"/>
	<path d="M29.9,13.9C29.2,8.9,25.1,5,20,5c-5.5,0-10,4.6-10,10.3c0,0.4,0,0.9,0.1,1.3c0.3,2.9,1.8,4.7,2.8,5.9
		c0.5,0.6,0.9,1.1,0.9,1.5v1.2c0,0.9,0.5,1.7,1.2,2.1v3.9c0,0.6,0.3,1.3,0.7,1.7l1.2,1.2c0.6,0.6,1.4,0.9,2.2,0.9h1.7
		c0.8,0,1.6-0.3,2.2-0.9l1.2-1.2c0.5-0.5,0.7-1.1,0.7-1.7v-3.9c0.7-0.4,1.2-1.2,1.2-2.1V24c0-0.3,0.4-0.9,0.9-1.5
		c1.1-1.4,2.8-3.4,2.8-7.1C30,14.8,30,14.4,29.9,13.9z M22.2,33.2c-0.4,0.3-0.8,0.5-1.3,0.5h-1.7c-0.5,0-1-0.2-1.3-0.5l-0.7-0.7h5.7
		L22.2,33.2z M23.8,31.2L23.8,31.2l-7.5,0.1c0-0.1,0-0.1,0-0.1v-1.1h7.5V31.2z M23.8,28.9h-7.5v-1.2h7.5V28.9z M26.2,21.7
		c-0.7,0.8-1.2,1.5-1.2,2.2v1.2c0,0.7-0.6,1.2-1.2,1.2h-7.5c-0.7,0-1.2-0.6-1.2-1.2v-1.2c0-0.8-0.5-1.4-1.2-2.2
		c-1.1-1.3-2.5-3.1-2.5-6.4c0-0.5,0-1,0.1-1.5c0.3-1.8,1.1-3.5,2.3-4.8c1.6-1.7,3.8-2.8,6.3-2.8c2.6,0,5,1.2,6.5,3.1
		c0.8,1,1.4,2.1,1.8,3.4c0.3,0.8,0.4,1.7,0.4,2.6C28.8,18.6,27.3,20.4,26.2,21.7z"/>
</g>
</svg>
