<?xml version="1.0" encoding="utf-8"?>
<!-- Generator: Adobe Illustrator 22.1.0, SVG Export Plug-In . SVG Version: 6.00 Build 0)  -->
<svg version="1.1" id="Capa_1" xmlns="http://www.w3.org/2000/svg" xmlns:xlink="http://www.w3.org/1999/xlink" x="0px" y="0px"
	 viewBox="0 0 30 45" style="enable-background:new 0 0 30 45;" xml:space="preserve">
<style type="text/css">
	.st0{fill:#D2A448;}
	.st1{fill:#232323;}
</style>
<g>
	<path class="st0" d="M30,15.5c0,5.5-2.5,8.5-4.2,10.6c-0.8,1-1.4,1.9-1.4,2.3v1.8c0,1.3-0.7,2.5-1.8,3.1v0.2h-15v-0.2
		c-1-0.5-1.8-1.8-1.8-3.1v-1.8c0-0.6-0.6-1.4-1.4-2.3c-1.5-1.8-3.7-4.4-4.2-8.8C0,16.8,0,16,0,15.4C0,6.9,6.8,0,15,0
		c7.7,0,13.8,5.8,14.9,13.3C30.1,14.1,30.1,14.7,30,15.5z"/>
	<path class="st1" d="M29.9,13.3C28.8,5.8,22.7,0,15,0C6.8,0,0,6.9,0,15.4c0,0.6,0,1.4,0.2,1.9c0.5,4.4,2.7,7,4.2,8.8
		c0.8,0.9,1.4,1.7,1.4,2.3v1.8c0,1.3,0.8,2.6,1.8,3.1v5.8c0,0.9,0.5,2,1.1,2.6l1.8,1.8c0.9,0.9,2.1,1.4,3.3,1.4h2.6
		c1.2,0,2.4-0.4,3.3-1.4l1.8-1.8c0.8-0.8,1.1-1.7,1.1-2.6v-5.8c1.1-0.6,1.8-1.8,1.8-3.1v-1.8c0-0.4,0.6-1.3,1.4-2.3
		C27.5,24,30,21,30,15.5C30.1,14.7,30.1,14.1,29.9,13.3z M18.3,42.3c-0.6,0.5-1.2,0.8-2,0.8h-2.6c-0.8,0-1.5-0.3-2-0.8l-1.1-1h8.6
		L18.3,42.3z M20.8,39.3L20.8,39.3L9.5,39.4c0-0.2,0-0.2,0-0.2v-1.7h11.3V39.3z M20.8,35.8H9.5V34h11.3V35.8z M24.3,25
		c-1.1,1.2-1.8,2.3-1.8,3.3v1.8c0,1.1-0.9,1.8-1.8,1.8H9.5c-1.1,0-1.8-0.9-1.8-1.8v-1.8c0-1.2-0.8-2.1-1.8-3.3
		c-1.7-1.9-3.8-4.6-3.8-9.6c0-0.8,0-1.5,0.2-2.3C2.7,10.5,3.9,8,5.7,6c2.4-2.5,5.7-4.2,9.5-4.2c3.9,0,7.5,1.8,9.8,4.6
		c1.2,1.5,2.1,3.2,2.7,5.1c0.5,1.2,0.6,2.6,0.6,3.9C28.2,20.4,26,23.1,24.3,25z"/>
</g>
</svg>
