<?xml version="1.0" encoding="utf-8"?>
<!-- Generator: Adobe Illustrator 22.1.0, SVG Export Plug-In . SVG Version: 6.00 Build 0)  -->
<svg version="1.1" id="Layer_1" xmlns="http://www.w3.org/2000/svg" xmlns:xlink="http://www.w3.org/1999/xlink" x="0px" y="0px"
	 viewBox="0 0 30 30" style="enable-background:new 0 0 30 30;" xml:space="preserve">
<g>
	<path d="M16.7,22.7L11.5,28c-1.3,1.3-3,2-4.8,2S3.3,29.3,2,28c-1.3-1.3-2-3-2-4.8c0-1.7,0.7-3.5,2-4.8l6.6-6.6
		c0.3-0.4,0.8-0.7,1.2-1c2.2-1.3,5-1.3,7.1,0.1c0.4,0.3,0.8,0.6,1.1,0.9c0.3,0.4,0.5,0.8,0.5,1.2c0,0.4-0.2,0.8-0.5,1.1l0,0
		c-0.6,0.6-1.6,0.6-2.2,0c-1.4-1.4-3.8-1.4-5.1,0l-6.6,6.6C3.4,21.4,3,22.3,3,23.3c0,0.9,0.4,1.9,1.1,2.6c1.4,1.4,3.4,1.6,5.1,0
		l4-3.9C14.8,23,16.7,22.7,16.7,22.7z M16.8,8.1l3.9-3.9c1.4-1.4,3.7-1.4,5.1,0s1.4,3.7,0,5.1l-6.6,6.6c-1.7,1.7-3.2,1.7-5.1,0
		c-0.6-0.6-1.6-0.6-2.2,0c-0.6,0.6-0.6,1.6,0,2.2s1.2,1,1.9,1.4l0.9,0.4c3.7,1.7,6.7-1.7,6.7-1.7l6.6-6.6c1.3-1.3,2-3,2-4.8
		C30,5,29.3,3.3,28,2c-2.6-2.6-6.9-2.6-9.5,0l-5.4,5.4C15.1,7.2,16.8,8.1,16.8,8.1z"/>
</g>
</svg>
