<?xml version="1.0" encoding="utf-8"?>
<!-- Generator: Adobe Illustrator 21.1.0, SVG Export Plug-In . SVG Version: 6.00 Build 0)  -->
<svg version="1.1" id="Layer_1" xmlns="http://www.w3.org/2000/svg" xmlns:xlink="http://www.w3.org/1999/xlink" x="0px" y="0px"
	 viewBox="0 0 180 134" style="enable-background:new 0 0 180 134;" xml:space="preserve">
<style type="text/css">
	.st0{display:none;}
	.st1{display:inline;fill:#463B5B;}
	.st2{display:inline;fill:#7F798F;}
	.st3{fill:#463B5B;}
	.st4{fill:#7F798F;}
</style>
<g class="st0">
	<path class="st1" d="M13.9,134.4c-4.2,0-8.3,0-12.5,0c-1.5,0-3.5,0.7-4.2-0.6c-1-1.6,0.9-3,1.7-4.4c13-21,26-41.9,39-62.8
		c13.6-22.1,27.3-44.1,41-66.2C82-4.5,82-4.5,85.2,0.5c12.7,20.4,25.2,40.8,38,61.1c1.9,3.1,2.2,5.3,0.1,8.5
		c-4.6,6.7-8.9,13.7-13.2,20.6c-1.8,3-3.1,2.7-4.8-0.1C98.7,80,92.1,69.7,85.5,59.3c-3.4-5.4-3.5-5.4-6.8-0.2
		c-14.7,23.2-29.5,46.4-44,69.7c-2.6,4.2-5.3,6.4-10.3,5.7C20.9,134.1,17.4,134.4,13.9,134.4z"/>
	<path class="st2" d="M138.2,109.9c-4.8,7.5-9.2,14.4-13.4,21.3c-1.3,2.2-2.8,3.4-5.5,3.3c-9.2-0.2-18.3-0.1-27.5,0
		c-2.8,0-4.3-0.2-2.2-3.4c15.9-24.8,31.7-49.7,47.4-74.6c1.4-2.2,2.3-3,4-0.2c15.5,25.3,31,50.5,46.5,75.8c0.3,0.5,0.4,1.2,0.8,2.4
		c-11.2,0-21.9,0-32.7,0c-2.3,0-3-1.8-3.9-3.4C147.3,124.2,143,117.4,138.2,109.9z"/>
</g>
<g>
	<path class="st3" d="M121.8,64.9L108,87.3c-1.2,1.9-3.9,1.9-5,0L82,54.6v0l-50,78c-0.5,0.9-1.5,1.4-2.5,1.4H3
		c-2.3,0-3.8-2.6-2.5-4.5l79-128.1c1.2-1.9,3.9-1.9,5.1,0l37.3,60.4C122.4,62.8,122.4,64,121.8,64.9z"/>
	<path class="st4" d="M177,134c2.3,0,3.8-2.6,2.5-4.5l-40-64.8c-1.9-3.1-6.5-3.1-8.4,0l-6.2,10l-17.1,27.8l-16.7,27
		c-1.2,2,0.2,4.5,2.5,4.5h27.9c1,0,2-0.5,2.5-1.4l1.5-2.4l9.7-15.1v0l11.2,17.5c0.5,0.9,1.5,1.4,2.5,1.4H177z"/>
</g>
</svg>
