<?xml version="1.0" encoding="utf-8"?>
<!-- Generator: Adobe Illustrator 22.1.0, SVG Export Plug-In . SVG Version: 6.00 Build 0)  -->
<svg version="1.1" id="Layer_1" xmlns="http://www.w3.org/2000/svg" xmlns:xlink="http://www.w3.org/1999/xlink" x="0px" y="0px"
	 viewBox="0 0 160 34" style="enable-background:new 0 0 160 34;" xml:space="preserve">
<style type="text/css">
	.st0{fill:#C9C9C9;}
	.st1{fill:#FFFFFF;}
	.st2{enable-background:new    ;}
</style>
<g>
	<g>
		<path class="st0" d="M33.5,16.4l-3.8,5.7c-0.3,0.4-0.8,0.5-1.2,0.2c-0.1-0.1-0.2-0.1-0.2-0.2l-5.8-8.3l0,0L8.8,33.6
			C8.6,33.8,8.4,34,8.1,34H0.8C0.4,34,0,33.7,0,33.3c0-0.2,0-0.3,0.1-0.5L22,0.4c0.3-0.4,0.8-0.5,1.2-0.2c0.1,0.1,0.1,0.1,0.2,0.2
			l10.3,15.3C33.7,15.8,33.6,16.1,33.5,16.4z"/>
		<path class="st1" d="M45.9,34c0.4,0,0.7-0.3,0.7-0.7c0-0.1,0-0.2-0.1-0.3l-9.1-15.5c-0.3-0.5-1-0.7-1.5-0.4
			c-0.2,0.1-0.3,0.2-0.4,0.4l-1.4,2.4l-3.9,6.6l-3.8,6.4c-0.2,0.3-0.1,0.8,0.2,1c0.1,0.1,0.2,0.1,0.3,0.1h6.3c0.2,0,0.5-0.1,0.6-0.3
			l0.3-0.6l2.2-3.6l0,0l2.5,4.2c0.1,0.2,0.3,0.3,0.6,0.3H45.9z"/>
	</g>
	<g class="st2">
		<path class="st1" d="M61.2,19.5L64.8,30h0.1l3.7-10.5h3.7v14.2h-2.9v-4.2l0.3-6.3h-0.1l-3.7,10.5H64l-3.8-10.5h-0.1l0.3,6.2v4.3
			h-2.9V19.5H61.2z"/>
		<path class="st1" d="M84.6,30.6h-5l-1,3.1h-2.9l4.9-14.2h2.9l4.9,14.2h-2.9L84.6,30.6z M80.3,28.4h3.6l-1.8-5.6H82L80.3,28.4z"/>
		<path class="st1" d="M100.5,27.4h-5.9v4.1h6.9v2.2h-9.7V19.5h9.7v2.2h-6.9v3.6h5.9V27.4z"/>
		<path class="st1" d="M112.9,30c0-0.5-0.2-1-0.6-1.3s-1.1-0.6-2-0.9c-1.7-0.5-3-1.1-3.8-1.7s-1.3-1.6-1.3-2.8s0.5-2.1,1.5-2.9
			c1-0.7,2.3-1.1,3.8-1.1c1.6,0,2.8,0.4,3.8,1.2s1.5,1.9,1.4,3.1v0.1h-2.8c0-0.7-0.2-1.2-0.7-1.6s-1.1-0.6-1.9-0.6s-1.4,0.2-1.8,0.5
			s-0.6,0.8-0.6,1.3s0.2,0.9,0.7,1.2s1.2,0.6,2.3,1c1.6,0.4,2.8,1,3.6,1.7s1.2,1.7,1.2,2.8c0,1.2-0.5,2.2-1.4,2.9s-2.2,1.1-3.8,1.1
			c-1.5,0-2.9-0.4-4.1-1.2s-1.7-1.9-1.7-3.4v-0.1h2.8c0,0.8,0.3,1.5,0.8,1.9s1.2,0.6,2.2,0.6c0.8,0,1.4-0.2,1.8-0.5
			S112.9,30.5,112.9,30z"/>
		<path class="st1" d="M129.8,21.7h-4v12h-2.9v-12h-4v-2.2h10.9V21.7z"/>
		<path class="st1" d="M136.2,28v5.7h-2.9V19.5h5.4c1.6,0,2.9,0.4,3.8,1.1s1.4,1.8,1.4,3.1c0,0.7-0.2,1.4-0.6,1.9s-0.9,1-1.7,1.3
			c0.8,0.2,1.4,0.7,1.8,1.2s0.6,1.3,0.6,2.1v1c0,0.4,0.1,0.8,0.2,1.2s0.3,0.8,0.6,1v0.3h-2.9c-0.3-0.2-0.4-0.6-0.5-1s-0.1-1-0.1-1.4
			v-1c0-0.7-0.2-1.3-0.6-1.7s-0.9-0.6-1.6-0.6H136.2z M136.2,25.8h2.5c0.8,0,1.4-0.2,1.8-0.5s0.6-0.8,0.6-1.5s-0.2-1.2-0.6-1.6
			s-1-0.6-1.7-0.6h-2.6V25.8z"/>
		<path class="st1" d="M160,27.9c0,1.7-0.6,3.2-1.7,4.3s-2.5,1.7-4.3,1.7s-3.2-0.6-4.3-1.7s-1.6-2.6-1.6-4.3v-2.6
			c0-1.7,0.5-3.2,1.6-4.3s2.5-1.7,4.3-1.7s3.2,0.6,4.3,1.7s1.7,2.6,1.7,4.3V27.9z M157.2,25.3c0-1.1-0.3-2-0.8-2.7s-1.3-1.1-2.3-1.1
			s-1.7,0.4-2.3,1.1s-0.8,1.6-0.8,2.7v2.6c0,1.1,0.3,2,0.8,2.8s1.3,1.1,2.3,1.1s1.7-0.4,2.3-1.1s0.8-1.6,0.8-2.8V25.3z"/>
	</g>
</g>
</svg>
