<?xml version="1.0" encoding="utf-8"?>
<!-- Generator: Adobe Illustrator 22.1.0, SVG Export Plug-In . SVG Version: 6.00 Build 0)  -->
<svg version="1.1" id="Layer_1" xmlns="http://www.w3.org/2000/svg" xmlns:xlink="http://www.w3.org/1999/xlink" x="0px" y="0px"
	 viewBox="0 0 20 20" style="enable-background:new 0 0 20 20;" xml:space="preserve">
<g>
	<path d="M14.8,6.3l-1.2-1.2c-0.6-0.6-1.7-0.6-2.3,0L0.5,16c-0.6,0.6-0.6,1.7,0,2.3l1.2,1.2c0.1,0.1,0.5,0.5,1,0.5
		c0.4,0,0.9-0.2,1.1-0.5l11-10.9C15.4,8,15.4,6.9,14.8,6.3z M10.5,10.1l-7.8,7.8L2,17.2l7.9-7.8L10.5,10.1z M12.6,6.8l0.6,0.6
		l-1.2,1.2L11.3,8L12.6,6.8z M20,15.1c0,0.6-0.4,1-1,1h-1v1c0,0.6-0.4,1-1,1s-1-0.4-1-1v-1h-1c-0.6,0-1-0.4-1-1s0.4-1,1-1h1v-1
		c0-0.6,0.4-1,1-1s1,0.4,1,1v1h1C19.6,14.1,20,14.5,20,15.1z M7.7,4.9c0,0.6-0.4,1-1,1h-1v1c0,0.6-0.4,1-1,1s-1-0.4-1-1v-1h-1
		c-0.6,0-1-0.4-1-1s0.4-1,1-1h1v-1c0-0.6,0.4-1,1-1s1,0.4,1,1v1h1C7.2,3.9,7.7,4.4,7.7,4.9z M20,3c0,0.6-0.4,1-1,1h-1v1
		c0,0.6-0.4,1-1,1s-1-0.4-1-1V4h-1c-0.6,0-1-0.4-1-1s0.4-1,1-1h1V1c0-0.6,0.4-1,1-1s1,0.4,1,1v1h1C19.6,2,20,2.4,20,3z"/>
</g>
</svg>
