<?xml version="1.0" encoding="utf-8"?>
<!-- Generator: Adobe Illustrator 22.1.0, SVG Export Plug-In . SVG Version: 6.00 Build 0)  -->
<svg version="1.1" id="Layer_1" xmlns="http://www.w3.org/2000/svg" xmlns:xlink="http://www.w3.org/1999/xlink" x="0px" y="0px"
	 viewBox="0 0 24 24" style="enable-background:new 0 0 24 24;" xml:space="preserve">
<g>
	<path d="M0.5,19.7c-0.6,0.6-0.6,1.7,0,2.3L2,23.5C2.3,23.8,2.7,24,3.1,24c0.4,0,0.8-0.2,1.1-0.5L18.9,8.9c0.6-0.6,0.6-1.7,0-2.3
		l-1.5-1.5c-0.6-0.6-1.7-0.6-2.3,0L0.5,19.7z M3.2,22.5c0,0-0.1,0-0.2,0l-1.5-1.5c0,0,0-0.1,0-0.2L12.7,9.6l1.7,1.7L3.2,22.5z
		 M17.9,7.8l-2.4,2.4l-1.7-1.7l2.4-2.4h0.2l1.5,1.5C17.9,7.7,17.9,7.8,17.9,7.8z M19.3,3.5c-0.4,0-0.8-0.3-0.8-0.8S18.8,2,19.3,2
		h1.3V0.8c0-0.4,0.3-0.8,0.8-0.8S22,0.3,22,0.8V2h1.3C23.7,2,24,2.3,24,2.8s-0.3,0.8-0.8,0.8H22v1.3c0,0.4-0.3,0.8-0.8,0.8
		s-0.8-0.3-0.8-0.8V3.5H19.3z M8.8,4.2H7.5V3c0-0.4-0.3-0.8-0.8-0.8S6,2.6,6,3v1.3H4.8C4.4,4.2,4,4.6,4,5s0.3,0.8,0.8,0.8H6V7
		c0,0.4,0.3,0.8,0.8,0.8S7.5,7.4,7.5,7V5.7h1.3c0.4,0,0.8-0.3,0.8-0.8S9.2,4.2,8.8,4.2z M22.1,14.8h-1.3v-1.3c0-0.4-0.3-0.8-0.8-0.8
		s-0.8,0.3-0.8,0.8v1.3h-1.3c-0.4,0-0.8,0.3-0.8,0.8s0.3,0.8,0.8,0.8h1.3v1.3c0,0.4,0.3,0.8,0.8,0.8s0.8-0.3,0.8-0.8v-1.3h1.3
		c0.4,0,0.8-0.3,0.8-0.8S22.5,14.8,22.1,14.8z"/>
</g>
</svg>
