<?xml version="1.0" encoding="utf-8"?>
<!-- Generator: Adobe Illustrator 22.1.0, SVG Export Plug-In . SVG Version: 6.00 Build 0)  -->
<svg version="1.1" id="Layer_1" xmlns="http://www.w3.org/2000/svg" xmlns:xlink="http://www.w3.org/1999/xlink" x="0px" y="0px"
	 viewBox="0 0 20 20" style="enable-background:new 0 0 20 20;" xml:space="preserve">
<style type="text/css">
	.st0{fill:#232323;}
	.st1{fill:#FFFFFF;}
</style>
<g>
	<path class="st0" d="M4,0h12c2.2,0,4,1.8,4,4v12c0,2.2-1.8,4-4,4H4c-2.2,0-4-1.8-4-4V4C0,1.8,1.8,0,4,0z"/>
	<path class="st1" d="M13,13l-1.6-5.9L12.3,6c0.6-0.7,0.2-2-0.6-2l0,0H8.4C7.6,4,7.2,5.3,7.7,6l0.9,1.1L7,13
		c-0.1,0.6,0.1,1.2,0.6,1.5l1.8,1.4c0.3,0.2,0.8,0.2,1.1,0l1.8-1.4C12.9,14.1,13.1,13.5,13,13z M8.2,5c0-0.1,0-0.2,0.1-0.3h3.3
		c0.1,0.1,0.1,0.2,0.1,0.3c0,0.2,0,0.3-0.1,0.5L11,6.4H9L8.4,5.5C8.2,5.3,8.2,5.2,8.2,5z"/>
</g>
</svg>
