<?xml version="1.0" encoding="utf-8"?>
<!-- Generator: Adobe Illustrator 21.1.0, SVG Export Plug-In . SVG Version: 6.00 Build 0)  -->
<svg version="1.1" id="Layer_1" xmlns="http://www.w3.org/2000/svg" xmlns:xlink="http://www.w3.org/1999/xlink" x="0px" y="0px"
	 viewBox="0 0 16 16" style="enable-background:new 0 0 16 16;" xml:space="preserve">
<style type="text/css">
	.st0{fill:#232323;}
	.st1{fill:#FFFFFF;}
</style>
<g id="Manager_Icon_Tie_Group" transform="translate(9525 1382)">
	<path class="st0" d="M-9521-1382h8c2.2,0,4,1.8,4,4v8c0,2.2-1.8,4-4,4h-8c-2.2,0-4-1.8-4-4v-8C-9525-1380.2-9523.2-1382-9521-1382z
		"/>
	<path class="st1" d="M-9515.6-1378.2c0.1,0.1,0.1,0.1,0.1,0.2c0,0.1,0,0.3-0.1,0.4l-0.6,0.7h-1.6l-0.5-0.7
		c-0.1-0.1-0.1-0.3-0.1-0.4c0-0.1,0-0.1,0.1-0.2H-9515.6 M-9515.6-1378.8h-2.7c-0.6,0-1,1-0.5,1.6l0.7,0.9h2.3l0.7-0.9
		C-9514.7-1377.8-9515-1378.8-9515.6-1378.8L-9515.6-1378.8z M-9514.6-1371.6c0.1,0.4-0.1,0.9-0.5,1.1l-1.5,1.1
		c-0.3,0.2-0.6,0.2-0.9,0l-1.5-1.1c-0.4-0.2-0.6-0.7-0.5-1.2l1.3-4.7h2.3L-9514.6-1371.6z"/>
</g>
</svg>
