<svg id="Layer_1" data-name="Layer 1" xmlns="http://www.w3.org/2000/svg" viewBox="0 0 20 20"><title>member-notification-icon</title><path d="M17,1a2,2,0,0,1,2,2V17a2,2,0,0,1-2,2H3a2,2,0,0,1-2-2V3A2,2,0,0,1,3,1H17m0-1H3A3,3,0,0,0,0,3V17a3,3,0,0,0,3,3H17a3,3,0,0,0,3-3V3a3,3,0,0,0-3-3Z"/><path d="M10,10.49A3.59,3.59,0,1,1,13.58,6.9h0A3.6,3.6,0,0,1,10,10.49Zm0-6A2.41,2.41,0,1,0,12.4,6.9h0A2.41,2.41,0,0,0,10,4.49ZM2.22,16.56a.59.59,0,0,0,.83-.09l0,0a8.28,8.28,0,0,1,13.82,0,.59.59,0,0,0,.82.16l0,0h0a.59.59,0,0,0,.14-.78,9.46,9.46,0,0,0-15.82,0,.59.59,0,0,0,.14.78Z"/></svg>