<svg id="Layer_1" data-name="Layer 1" xmlns="http://www.w3.org/2000/svg" viewBox="0 0 30 30"><defs><style>.cls-1{fill:#fff;}</style></defs><title>MemberIcon</title><path class="cls-1" d="M25,0H5A5,5,0,0,0,0,5V25a5,5,0,0,0,.58,2.33s0,0,0,0l.18.3A4.75,4.75,0,0,0,2,29a4.82,4.82,0,0,0,1.26.69A5.08,5.08,0,0,0,5,30H25a5.08,5.08,0,0,0,1.71-.3A4.82,4.82,0,0,0,28,29a4.75,4.75,0,0,0,1.27-1.37l.18-.3s0,0,0,0A5,5,0,0,0,30,25V5A5,5,0,0,0,25,0Z"/><path d="M15,16.57a6.07,6.07,0,1,1,6.07-6.07A6.08,6.08,0,0,1,15,16.57ZM15,6.43a4.07,4.07,0,1,0,4.07,4.07A4.08,4.08,0,0,0,15,6.43Z"/><path d="M1.86,26.82a1,1,0,0,0,1.46-.22,14,14,0,0,1,23.37,0,1,1,0,0,0,1.46.22h0a1,1,0,0,0,.23-1.32,16,16,0,0,0-26.74,0,1,1,0,0,0,.23,1.32Z"/></svg>