<?xml version="1.0" encoding="utf-8"?>
<!-- Generator: Adobe Illustrator 22.1.0, SVG Export Plug-In . SVG Version: 6.00 Build 0)  -->
<svg version="1.1" id="Layer_1" xmlns="http://www.w3.org/2000/svg" xmlns:xlink="http://www.w3.org/1999/xlink" x="0px" y="0px"
	 viewBox="0 0 46 46" style="enable-background:new 0 0 46 46;" xml:space="preserve" fill="#000">
<g>
	<path d="M38.3,2c3.2,0,5.7,2.5,5.8,5.7v30.5v0.1l0,0.1c0.1,0.8-0.1,1.7-0.5,2.5l-0.2,0.4c-0.4,0.6-0.9,1.2-1.5,1.6l0,0l0,0
		c-0.4,0.3-0.8,0.5-1.3,0.8c-0.8,0.3-1.4,0.4-2,0.4H7.7c-0.5,0-1-0.1-1.5-0.2c-0.2,0-0.4-0.1-0.7-0.1c-0.5-0.2-0.8-0.4-1.1-0.7
		c-0.7-0.6-1.2-1.1-1.5-1.6L2.6,41C2.2,40.3,2,39.3,2,38.4V7.7C2,4.5,4.5,2,7.7,2H38.3 M38.3,0H7.7C3.4,0,0,3.4,0,7.7v30.7
		c0,1.2,0.3,2.5,0.9,3.6l0.3,0.5c0.5,0.8,1.2,1.5,1.9,2.1c0.6,0.5,1.2,0.8,1.9,1.1C5.9,45.8,6.8,46,7.7,46h30.7
		c0.9,0,1.8-0.2,2.7-0.5c0.7-0.3,1.3-0.6,1.9-1.1c0.8-0.6,1.4-1.3,2-2.1l0.3-0.5c0.6-1.1,0.9-2.3,0.8-3.6V7.7C46,3.4,42.6,0,38.3,0
		L38.3,0z M23,24.2c-5,0-9-4-9-9s4-9,9-9s9,4,9,9S28,24.2,23,24.2z M23,9.2c-3.3,0-6,2.7-6,6s2.7,6,6,6s6-2.7,6-6S26.3,9.3,23,9.2
		L23,9.2z M3.6,39.3c0.6,0.5,1.6,0.4,2.1-0.2L5.8,39c6.2-9.5,19-12.2,28.5-6c2.4,1.6,4.4,3.6,6,6c0.5,0.7,1.4,0.9,2,0.4l0.1-0.1l0,0
		c0.6-0.5,0.7-1.3,0.3-1.9c-7.1-10.9-21.8-13.9-32.6-6.8c-2.7,1.8-5,4.1-6.8,6.8C2.9,38,3,38.9,3.6,39.3L3.6,39.3z"/>
</g>
</svg>
