<svg id="Layer_1" data-name="Layer 1" xmlns="http://www.w3.org/2000/svg" viewBox="0 0 342 280"><defs><style>.cls-1{opacity:0.3;}.cls-2{fill:#5e5375;}.cls-3{fill:#fff;}.cls-4{fill:#463b5b;}.cls-5{fill:#bebebe;}.cls-6{fill:#2f2445;}</style></defs><title>new-project-illustration-01</title><g class="cls-1"><path class="cls-2" d="M16,0V199.92H342V0ZM336.94,194.86H21.06V5.06H336.94Z"/><path class="cls-2" d="M77,19.39h1.29V180.53H77Zm80.07,0h1.29V180.53h-1.29Zm80.06,0h1.29V180.53h-1.29Zm80.31,20.66v1.29h-277V40.05Z"/><path class="cls-2" d="M44.63,58.08H68.69a.92.92,0,0,1,.92.92v.52a.92.92,0,0,1-.92.92H44.63a.92.92,0,0,1-.92-.92V59A.92.92,0,0,1,44.63,58.08Zm4.74,7.85H64a.92.92,0,0,1,.92.92v.52a.92.92,0,0,1-.92.92H49.37a.92.92,0,0,1-.92-.92v-.52A.92.92,0,0,1,49.37,65.93Z"/><path class="cls-2" d="M44.63,104.84H68.69a.92.92,0,0,1,.92.92v.52a.92.92,0,0,1-.92.92H44.63a.92.92,0,0,1-.92-.92v-.52A.92.92,0,0,1,44.63,104.84Zm0,7.85H68.69a.92.92,0,0,1,.92.92v.52a.92.92,0,0,1-.92.92H44.63a.92.92,0,0,1-.92-.92v-.52A.92.92,0,0,1,44.63,112.69Z"/><path class="cls-2" d="M51.15,151.61h11a.92.92,0,0,1,.92.92v.52a.92.92,0,0,1-.92.92h-11a.92.92,0,0,1-.92-.92v-.52A.92.92,0,0,1,51.15,151.61Zm-6.52,7.84H68.69a.92.92,0,0,1,.92.92v.52a.92.92,0,0,1-.92.92H44.63a.92.92,0,0,1-.92-.92v-.52A.92.92,0,0,1,44.63,159.45Z"/><path class="cls-2" d="M142.45,34.13H93.53a.92.92,0,0,1-.92-.92v-.52a.92.92,0,0,1,.92-.92h48.92a.92.92,0,0,1,.92.92v.52A.92.92,0,0,1,142.45,34.13Zm-6.71-7.83h-35.5a.92.92,0,0,1-.92-.92v-.52a.92.92,0,0,1,.92-.92h35.5a.92.92,0,0,1,.92.92v.52A.92.92,0,0,1,135.74,26.3Z"/><path class="cls-2" d="M257.25,23.93h48.92a.92.92,0,0,1,.92.92v.52a.92.92,0,0,1-.92.92H257.25a.92.92,0,0,1-.92-.92v-.52A.92.92,0,0,1,257.25,23.93ZM264,31.78h35.5a.92.92,0,0,1,.92.92v.52a.92.92,0,0,1-.92.92H264a.92.92,0,0,1-.92-.92V32.7A.92.92,0,0,1,264,31.78Z"/><path class="cls-2" d="M230.71,34.13h-63.9a.92.92,0,0,1-.92-.92v-.52a.92.92,0,0,1,.92-.92h63.9a.92.92,0,0,1,.92.92v.52A.92.92,0,0,1,230.71,34.13ZM192.66,26.3H172.8a.92.92,0,0,1-.92-.92v-.52a.92.92,0,0,1,.92-.92h19.86a.92.92,0,0,1,.92.92v.52A.92.92,0,0,1,192.66,26.3Zm32.06,0H204.86a.92.92,0,0,1-.92-.92v-.52a.92.92,0,0,1,.92-.92h19.86a.92.92,0,0,1,.92.92v.52A.92.92,0,0,1,224.72,26.3Z"/><path class="cls-2" d="M115.16,122.51H93.78V101.13h21.38Zm-20.38-1h19.38V102.13H94.78Z"/><path class="cls-2" d="M148.8,167H127.42V145.6H148.8Zm-20.38-1H147.8V146.6H128.42Z"/><path class="cls-2" d="M207.05,69.45h20.38V89.83H207.05Z"/><path class="cls-3" d="M211.83,73.64h10.81a.25.25,0,0,1,.25.25V74a.25.25,0,0,1-.25.25H211.83a.25.25,0,0,1-.25-.25v-.14A.25.25,0,0,1,211.83,73.64Zm0,3.61h10.81a.25.25,0,0,1,.25.25v.14a.25.25,0,0,1-.25.25H211.83a.25.25,0,0,1-.25-.25V77.5A.25.25,0,0,1,211.83,77.25Zm0,3.6h10.81a.25.25,0,0,1,.25.25v.14a.25.25,0,0,1-.25.25H211.83a.25.25,0,0,1-.25-.25V81.1A.25.25,0,0,1,211.83,80.85Zm0,3.61h10.81a.25.25,0,0,1,.25.25v.14a.25.25,0,0,1-.25.25H211.83a.25.25,0,0,1-.25-.25v-.14A.25.25,0,0,1,211.83,84.46Z"/><path class="cls-2" d="M195.75,156.72l-21.1-3.45,3.44-21.1,21.1,3.45Zm-19.95-4.27,19.12,3.12,3.13-19.13-19.13-3.12Z"/><path class="cls-2" d="M299.09,102.65,278,99.21l3.44-21.1,21.11,3.44Zm-19.95-4.27,19.13,3.12,3.12-19.12-19.13-3.13Z"/><path class="cls-2" d="M271.1,129.5l-3.65-21.07,21.07-3.65,3.65,21.07Zm-2.49-20.25,3.3,19.09L291,125l-3.31-19.1Z"/><path class="cls-2" d="M292.73,163l-19.3-9.21,9.22-19.3,19.29,9.21Zm-18-9.69,17.49,8.35,8.35-17.49-17.49-8.35Z"/><path class="cls-2" d="M129.57,78.93H108.19V57.55h21.38Zm-20.38-1h19.38V58.55H109.19Z"/><path class="cls-2" d="M113.48,62.58h10.81a.25.25,0,0,1,.25.25V63a.25.25,0,0,1-.25.25H113.48a.25.25,0,0,1-.25-.25v-.14A.25.25,0,0,1,113.48,62.58Zm0,3.56h10.81a.25.25,0,0,1,.25.25v.14a.25.25,0,0,1-.25.25H113.48a.25.25,0,0,1-.25-.25v-.14A.25.25,0,0,1,113.48,66.14Zm0,3.56h10.81a.25.25,0,0,1,.25.25v.14a.25.25,0,0,1-.25.25H113.48a.25.25,0,0,1-.25-.25V70A.25.25,0,0,1,113.48,69.7Zm0,3.56h10.81a.25.25,0,0,1,.25.25v.14a.25.25,0,0,1-.25.25H113.48a.25.25,0,0,1-.25-.25v-.14A.25.25,0,0,1,113.48,73.26Z"/><path class="cls-2" d="M133.21,103.65h9.58a.5.5,0,0,1,.5.5v.29a.5.5,0,0,1-.5.5h-9.58a.5.5,0,0,1-.5-.5v-.29A.5.5,0,0,1,133.21,103.65Zm-5.45,4.87h20.7a.25.25,0,0,1,.25.25v.14a.25.25,0,0,1-.25.25h-20.7a.25.25,0,0,1-.25-.25v-.14A.25.25,0,0,1,127.76,108.52Zm0,3.6h20.7a.25.25,0,0,1,.25.25v.14a.25.25,0,0,1-.25.25h-20.7a.25.25,0,0,1-.25-.25v-.14A.25.25,0,0,1,127.76,112.12Zm0,3.61h20.7a.25.25,0,0,1,.25.25v.14a.25.25,0,0,1-.25.25h-20.7a.25.25,0,0,1-.25-.25V116A.25.25,0,0,1,127.76,115.73Zm0,3.6h20.7a.25.25,0,0,1,.25.25v.14a.25.25,0,0,1-.25.25h-20.7a.25.25,0,0,1-.25-.25v-.14A.25.25,0,0,1,127.76,119.33Z"/><path class="cls-2" d="M99.59,148.13h9.58a.5.5,0,0,1,.5.5v.29a.5.5,0,0,1-.5.5H99.59a.5.5,0,0,1-.5-.5v-.29A.5.5,0,0,1,99.59,148.13ZM94.13,153h20.7a.25.25,0,0,1,.25.25v.14a.25.25,0,0,1-.25.25H94.13a.25.25,0,0,1-.25-.25v-.14A.25.25,0,0,1,94.13,153Zm0,3.6h20.7a.25.25,0,0,1,.25.25V157a.25.25,0,0,1-.25.25H94.13a.25.25,0,0,1-.25-.25v-.14A.25.25,0,0,1,94.13,156.59Zm0,3.61h20.7a.25.25,0,0,1,.25.25v.14a.25.25,0,0,1-.25.25H94.13a.25.25,0,0,1-.25-.25v-.14A.25.25,0,0,1,94.13,160.2Zm0,3.6h20.7a.25.25,0,0,1,.25.25v.14a.25.25,0,0,1-.25.25H94.13a.25.25,0,0,1-.25-.25v-.14A.25.25,0,0,1,94.13,163.8Z"/><path class="cls-2" d="M125.5,52.2c-8.89-.28-22.88-.28-25.26,10.67-1.93,8.88,1.21,20.12,11.3,22,9,1.66,21.88-.88,25.2-10.7,3.54-10.5-6.84-19.77-15.4-23.44-.88-.38-1.65.92-.76,1.3,7.49,3.21,15.91,9.94,15.19,19.06-.78,9.86-12.2,13-20.47,12.61-11.17-.58-16.3-10.78-13.47-21.12,2.6-9.5,15.83-9.13,23.67-8.88a.75.75,0,0,0,0-1.5Z"/><path class="cls-2" d="M141.5,56.79c.5-1.21,2.89-2.43,4.1-1.27A3.06,3.06,0,0,1,146,59c-.3.61-.7,1.18-1,1.76a15.91,15.91,0,0,0-2.18,5.79c-.16,1,1.29,1.35,1.45.4.51-3.08,2.33-5.12,3.41-7.92a3.81,3.81,0,0,0-.54-4.27c-2.23-2.21-5.9-1-7,1.65-.37.89,1.08,1.28,1.45.4Zm1.34,13.36a.52.52,0,0,1,.21.4c0,.16-.08.06-.09.09h-.05V71c0,.09,0,0,0,0H143a.33.33,0,0,1-.3-.23c.33.9,1.78.51,1.45-.4a1.32,1.32,0,0,0-1.69-.8l-.23.11a1.29,1.29,0,0,0-.55,1.74,1.31,1.31,0,0,0,.27.35,1.61,1.61,0,0,0,2.27-.11,1.87,1.87,0,0,0-.26-2.52c-.71-.66-1.77.4-1.06,1.06Z"/><path class="cls-2" d="M184.72,91.61c7.57,0,12,7.9,13.42,14.46,1.51,6.9-.63,12.9-4.94,18.25-.6.74.45,1.81,1.06,1.06,5.09-6.31,7.21-13.31,4.92-21.31-1.93-6.75-6.75-13.92-14.46-14a.75.75,0,1,0,0,1.5Zm6.09,27.78a38.33,38.33,0,0,1-1,8.33.76.76,0,0,0,.55.93l.17,0a34.83,34.83,0,0,0,6.15-1.2.75.75,0,1,0-.4-1.45,32.18,32.18,0,0,1-5.75,1.15l.73,1a40.7,40.7,0,0,0,1.05-8.73.75.75,0,0,0-1.5,0Z"/><path class="cls-2" d="M258.54,54.67v18.7a.75.75,0,0,0,1.5,0V54.67a.75.75,0,0,0-1.5,0Zm.73,25.8c0-.08.09-.12.14-.17-.27.29.15-.08.13,0,0-.09-.44-.44-.09-.45a.75.75,0,1,0,0,1.5c1.41,0,2-2.14.43-2.51a1.74,1.74,0,0,0-2.06,1.32,1.8,1.8,0,0,0,0,.73.75.75,0,1,0,1.45-.4Z"/><path class="cls-2" d="M171.52,88.32l-5.84-20.57,20.56-5.84,5.85,20.56Zm-4.61-19.88,5.3,18.64,18.64-5.3-5.3-18.64Z"/><path class="cls-2" d="M173.81,83.48l-2.07-7.27,8.7-2.48L182.51,81ZM173,76.9l1.52,5.34,6.77-1.92L179.75,75Z"/><path class="cls-2" d="M177.35,76.6l7.74-2.19,1.79,6.31-7.73,2.19Z"/><path class="cls-2" d="M176.79,79l-3.08-10.85,9.85-2.81,3.08,10.86Zm-1.85-10.17,2.54,8.94,7.93-2.25-2.54-8.94Z"/><path class="cls-2" d="M192.26,57.33c3.4-1.89,6.92-3,10.84-2.42,4.25.61,5.32,2.94,7.28,6.24a.75.75,0,0,0,1.3-.76h0c-2.14-3.59-3.26-6-7.66-6.88s-8.66.38-12.51,2.53a.76.76,0,0,0-.17,1.05A.75.75,0,0,0,192.26,57.33Zm15.49,5.13a7.51,7.51,0,0,1,3.62,2.81.76.76,0,0,0,1,.24.78.78,0,0,0,.32-.42,26.24,26.24,0,0,0,1.1-4.27c.16-.94-1.28-1.35-1.45-.4a25.26,25.26,0,0,1-1.1,4.27l1.38-.18A9.23,9.23,0,0,0,208.15,61c-.92-.32-1.31,1.13-.4,1.44Z"/><path class="cls-2" d="M142.5,127.64c-.12,3.42-.07,6.84.12,10.25a.75.75,0,1,0,1.5,0c-.19-3.41-.24-6.83-.12-10.25A.75.75,0,1,0,142.5,127.64Zm-2.77,10.65a10,10,0,0,1,3.43,2.7.75.75,0,0,0,1.06,0,10.59,10.59,0,0,1,2.6-2.3c.86-.43.11-1.73-.76-1.3a11.73,11.73,0,0,0-2.9,2.54h1.06a11.22,11.22,0,0,0-3.73-2.93c-.86-.44-1.62.85-.76,1.29Z"/><path class="cls-2" d="M133.9,140.71a92.15,92.15,0,0,0,.21-10.77.75.75,0,1,0-1.5,0,92.15,92.15,0,0,1-.21,10.77C132.33,141.71,133.83,141.71,133.9,140.71Zm-3.75-10.44A15.3,15.3,0,0,0,132,128.8a12.48,12.48,0,0,0,.86-.92s.59-.8.62-.8l0-.1a3.12,3.12,0,0,0,.23.49,4.26,4.26,0,0,0,.5.75,4.36,4.36,0,0,0,1.61,1.24c.87.4,1.63-.89.76-1.3a4,4,0,0,1-1.87-2.07,1.28,1.28,0,0,0-1.23-.81c-.72.06-1.05.79-1.44,1.29a10.83,10.83,0,0,1-2.61,2.4c-.79.54,0,1.84.76,1.3Z"/><path class="cls-2" d="M103.7,126.36c-.11,3.42-.07,6.83.12,10.25.05,1,1.55,1,1.5,0-.19-3.42-.23-6.83-.12-10.25A.75.75,0,1,0,103.7,126.36ZM100.93,137a10.17,10.17,0,0,1,3.44,2.7.75.75,0,0,0,1.06,0,10.45,10.45,0,0,1,2.57-2.3c.87-.43.11-1.72-.75-1.29a11.73,11.73,0,0,0-2.9,2.54h1.06a11.16,11.16,0,0,0-3.74-2.94c-.86-.43-1.62.86-.76,1.3Z"/><path class="cls-2" d="M311.67,72.55c-5.27-4.5-13.6-3.75-20.06-2.79-7.09,1.06-13.47,4.13-17.79,10-11,15-12.06,36.93-12,54.76,0,9.47,1.54,17.71,5.87,26.19,3.56,7,7.56,11,15.7,10.91,18.11-.21,22.34-20.47,23-35,.57-12.26.38-24.59.43-36.86s-.2-24.28-2.15-36.29c-.15-.95-1.6-.55-1.44.4,2.71,16.7,2.13,33.72,2,50.58-.13,15.6,2.23,35.57-7.78,48.79-5.32,7-18,10.31-24.55,3.07-5.67-6.28-8.73-16.33-9.38-24.56-1.19-15.2,0-31.83,4.61-46.41C271,86.18,275.52,76.68,285,73c6.76-2.62,19.61-4.44,25.56.65.73.62,1.79-.43,1.06-1.06Z"/></g><path class="cls-4" d="M116.31,96.6l1.09,5.64c0,.13.49.15,1,0h0c.54-.1,1-.29.94-.42l-1.09-5.64-1-.44a.19.19,0,0,0-.15,0Z"/><path class="cls-5" d="M69.37,90.64a6.38,6.38,0,0,1-4.07.17L63.56,98.2a4,4,0,0,1-3.93,3.11H52.25l-1.7,1.94L47.27,107l-10-2.27,5.85-2.8c3.72-.13,4.85-2.12,4.85-4.52,0-3.79-2.84-8.58-2.84-8.58A3.13,3.13,0,0,1,43.39,85a3.08,3.08,0,0,1,2.09-2,3.12,3.12,0,0,1,4,2.59c.46,1.91,1.77,1.76,1.77,1.76,2.77,0,2.66-3.79,1.34-5.61-4.66-8.08,10.26-8.08,10.26-8.08a28.33,28.33,0,0,0,6.7,16.27.48.48,0,0,1-.09.66Z"/><path class="cls-6" d="M62.82,73.63s-14.92,0-10.26,8.08c1.32,1.82,1.43,5.61-1.34,5.61,0,0-1.31.15-1.77-1.76a3.11,3.11,0,0,0-4-2.59,3.08,3.08,0,0,0-2.09,2,3.14,3.14,0,0,0,1.79,3.82S48,93.62,48,97.41c0,2.4-1.13,4.39-4.85,4.52-8-3.83-10.65-20.22-10.65-20.22C29.55,61.19,48.05,64,48.05,64a15.13,15.13,0,0,0,12.44-3.73c6.69-5.76,10.11-1.08,10.11-1.08C75.58,65.54,62.82,73.63,62.82,73.63Z"/><path class="cls-6" d="M43.85,269.56l18,9.95a.26.26,0,0,1,.08.36.25.25,0,0,1-.19.12H35.29s-3.1-.65-1.49-4.22l3.52-6.22Z"/><path class="cls-6" d="M12.89,250.72l.3,20.06a.25.25,0,0,1-.27.25.27.27,0,0,1-.21-.12L1.44,251.25s-4-5.53,1.25-6.52l7.15.21Z"/><path class="cls-6" d="M59.5,162.24l-4,.52v-.08L42.94,106H43l4.28.79.28,1.29h0l7.32,33.18Z"/><path class="cls-6" d="M72.45,123.55,70.94,140a44.59,44.59,0,0,1-16.06,1.28c-1.08-.13-2.17-.3-3.25-.52l3.87,21.88v.08l3.32,18.78-1.48.09L33,183l-14.31.83c-11.41-69,18.66-79.15,18.66-79.15L42.94,106H43l4.28,1s.08.41.28,1.1h0C48.77,112.14,54.14,125.25,72.45,123.55Z"/><path class="cls-5" d="M116,110.32S95.48,133.78,70.94,140l1.51-16.49c8.13-.75,18.79-4.41,32.78-13.08l1.35-.83,1.19-.77c1.57-1,3.18-2.08,4.81-3.21l.74,1Zm0,0-2.69-3.66-.74-1c.19-.34.43-.87.69-1.46.73-1.66,1.54-3.83,1.54-3.83,1.2-4.68,2-1.05,2-1.05.47,2.44,1.49,2.23,1.49,2.23,1-.08.59-2,.4-3.16,0-.22.12-.41.33-.34C131.41,102.14,116,110.32,116,110.32Z"/><path class="cls-4" d="M58.43,231.53,12.89,250.72l-3.05-5.78S46.19,225.24,43.08,217L33,183l24.39-1.41,1.48-.09,1.52,10.67,3,21S66.87,228,58.43,231.53Z"/><path class="cls-5" d="M60.36,192.21l-1.52-10.67-3.32-18.78,4-.52,2.25,11.25,2.16,14C65,192.21,60.36,192.21,60.36,192.21Z"/><path class="cls-2" d="M47.27,182.21l-3.42,87.35H37.32L18.66,183.87Z"/><path class="cls-4" d="M235.87,162.35l-16,57.28,5.59,2.73,21.77-53Z"/><path class="cls-2" d="M235.47,153.34l-9.76,25.45a13.7,13.7,0,0,0-.11,4.82s.37,4.06,6.07,7.58a20.14,20.14,0,0,0,4.74,1.8l13.87,24.89,22.33-15.15-8.51-15.28L243,149.58l-7.53,3.76,7.53-3.76"/><path class="cls-4" d="M210.29,271.94,199.83,280H190.9a.43.43,0,0,1-.17-.82l8.05-3.61,7.7-11.35h3.46ZM208.8,280a.11.11,0,1,0,.22,0l1.27-8.06-3.92,3Z"/><path class="cls-4" d="M304.15,257.55l5.09-2.27a.11.11,0,1,0,0-.22l-7.95-1.27-7.73.34v3.47l11.35,7.7,3.61,8.05a.43.43,0,0,0,.82-.17v-8.93Z"/><path class="cls-4" d="M224.1,261.14a10.92,10.92,0,0,1,.93-1.49l25.25-41.77,22.33-15.15.94,1.68s13.05,18.16,2.72,28L247.08,261.6l46.45-7.47v3.47l-53.78,21.68a11.71,11.71,0,0,1-1.64.45h0a12.23,12.23,0,0,1-2.56.27,12.88,12.88,0,0,1-11.42-18.86"/><path class="cls-6" d="M195.64,218.62v-.13l-.46-1.68c-.85-3.93-1.5-12.78,10.48-11.67l41.46,7,3.2,5.73-9.84,16.27-30.15-9.8L210,264.21h-3.47l-10.83-45.59v-.11h0"/><path class="cls-6" d="M223.58,114.73l7.36,13.2a2.54,2.54,0,0,1,4,2.13h0a2.51,2.51,0,0,1-1.5,2.31l9.52,17.09,21.18,38c14.13-9.81.77-18.31.77-18.31-5.63-2-5.33-6.68-5.33-6.68C261.8,149.69,248,149.58,248,149.58c-5-6,1.89-10.22,1.89-10.22s9.48-6.74,1.28-22.69c0,0-8.74-16.26-27.58-1.94"/><path class="cls-4" d="M243,149.58l-7.53,3.76L231,145.91c-7.79,2.43-9.31-8.07-9.31-8.07a5.8,5.8,0,0,1-3,.35.94.94,0,0,1-.84-1,1.12,1.12,0,0,1,.14-.4c1.41-2.42,1.2-6.7,1.2-6.7-2.75-12.9,4.45-15.33,4.45-15.33l7.36,13.2a2.54,2.54,0,0,1,4,2.13h0a2.51,2.51,0,0,1-1.5,2.31Z"/><path class="cls-4" d="M245,173.08c-.37.32-30.19,21.29-30.19,21.29s-2.89,2.84-8.12-1.23L185,165.89l0,0s-4.31-4.25-5.19-8.12c-.15-.64.52-1.6,2,1.95-.12-.42-1.92-5.57-1.18-5.88s1.72,4.22,1.93,4.07-1-4.85-.71-5c0,0,.81-1.63,2.36,4.44-.11-.62-.81-4.29.14-4.56.31-.08,1.46,4.24,1.46,4.24s.5,5.31,2.35.16c0,0,2-3.94,1.06,2.44l-.62,4.65,0,0L208,182.23c4.63,3.59,8,.25,8,.25l19.86-20.12a4.94,4.94,0,0,1,.84-.6,7,7,0,0,1,8.3,11.32Z"/></svg>