<?xml version="1.0" encoding="utf-8"?>
<!-- Generator: Adobe Illustrator 22.1.0, SVG Export Plug-In . SVG Version: 6.00 Build 0)  -->
<svg version="1.1" id="Layer_1" xmlns="http://www.w3.org/2000/svg" xmlns:xlink="http://www.w3.org/1999/xlink" x="0px" y="0px"
	 viewBox="0 0 30 30" style="enable-background:new 0 0 30 30;" xml:space="preserve">
<style type="text/css">
	.st0{fill:#FFFFFF;}
	.st1{fill:#5E5375;}
</style>
<g>
	<path class="st0" d="M5,0h20c2.8,0,5,2.2,5,5v20c0,2.8-2.2,5-5,5H5c-2.8,0-5-2.2-5-5V5C0,2.2,2.2,0,5,0z"/>
	<path class="st1" d="M25,30H5c-2.8,0-5-2.2-5-5V5c0-2.8,2.2-5,5-5h20c2.8,0,5,2.2,5,5v20C30,27.8,27.8,30,25,30z M5,1
		C2.8,1,1,2.8,1,5v20c0,2.2,1.8,4,4,4h20c2.2,0,4-1.8,4-4V5c0-2.2-1.8-4-4-4H5z"/>
	<path class="st1" d="M22,15.5c0,0.6-0.4,1-1,1h-5.4v5.7c-0.1,0.5-0.6,0.9-1.1,0.8c-0.4-0.1-0.7-0.4-0.8-0.8v-5.7H8.2
		c-0.4,0.1-0.8-0.1-1-0.4c-0.2-0.4-0.2-0.8,0-1.2c0.2-0.3,0.6-0.5,1-0.4h5.4V8.8c0.1-0.5,0.6-0.9,1.1-0.8c0.4,0.1,0.7,0.4,0.8,0.8
		v5.7H21C21.6,14.5,22,15,22,15.5z"/>
</g>
</svg>
