<?xml version="1.0" encoding="utf-8"?>
<!-- Generator: Adobe Illustrator 22.1.0, SVG Export Plug-In . SVG Version: 6.00 Build 0)  -->
<svg version="1.1" id="Layer_1" xmlns="http://www.w3.org/2000/svg" xmlns:xlink="http://www.w3.org/1999/xlink" x="0px" y="0px"
	 viewBox="0 0 20 20" style="enable-background:new 0 0 20 20;" xml:space="preserve">
<g>
	<path d="M15,10c-2.8,0-5,2.2-5,5s2.2,5,5,5s5-2.2,5-5S17.8,10,15,10z M18.2,15.5c0,0.1-0.1,0.2-0.2,0.2h-2.2v2.2
		c0,0.1-0.1,0.2-0.2,0.2h-1.1c-0.1,0-0.2-0.1-0.2-0.2v-2.2H12c-0.1,0-0.2-0.1-0.2-0.2v-1.1c0-0.1,0.1-0.2,0.2-0.2h2.2V12
		c0-0.1,0.1-0.2,0.2-0.2h1.1c0.1,0,0.2,0.1,0.2,0.2v2.2H18c0.1,0,0.2,0.1,0.2,0.2V15.5z M9,15.4H2.8c-0.4,0-0.7,0.3-0.7,0.7
		c0,0.4,0.3,0.7,0.7,0.7h6.4C9.1,16.4,9,15.8,9,15.4z M2.8,12.1c-0.4,0-0.7,0.3-0.7,0.7s0.3,0.7,0.7,0.7h6.6c0.1-0.6,0.4-1,0.6-1.4
		H2.8z M13.8,0h-6L0,7.7v8.9C0,18.5,1.5,20,3.3,20h7.9c-0.3-0.2-0.5-0.4-0.7-0.7H3.3c-1.5,0-2.7-1.2-2.7-2.7V7.7h3.8
		c0.4,0,0.8-0.1,1.1-0.2c1.3-0.4,2.3-1.7,2.3-3.1V0.7h6c1.5,0,2.7,1.2,2.7,2.7v6.1c0.2,0.1,0.5,0.1,0.7,0.2V3.3
		C17.1,1.5,15.6,0,13.8,0z M14.2,5.6h-3.8c-0.4,0-0.7,0.3-0.7,0.7C9.7,6.7,10,7,10.4,7h3.8c0.4,0,0.7-0.3,0.7-0.7
		C14.9,5.9,14.6,5.6,14.2,5.6z M14.2,8.9H2.8c-0.4,0-0.7,0.3-0.7,0.7s0.3,0.7,0.7,0.7h9c0.3-0.2,0.6-0.3,0.9-0.5
		c0.5-0.2,1.1-0.4,1.7-0.4h0.4C14.8,9,14.5,8.9,14.2,8.9z"/>
</g>
</svg>
