<?xml version="1.0" encoding="utf-8"?>
<!-- Generator: Adobe Illustrator 22.1.0, SVG Export Plug-In . SVG Version: 6.00 Build 0)  -->
<svg version="1.1" id="Layer_1" xmlns="http://www.w3.org/2000/svg" xmlns:xlink="http://www.w3.org/1999/xlink" x="0px" y="0px"
	 viewBox="0 0 30 30" style="enable-background:new 0 0 30 30;" xml:space="preserve">
<style type="text/css">
	.st0{fill:#FFFFFF;}
	.st1{fill:#5E5375;}
</style>
<g id="new-project-plus" transform="translate(-240 -1025)">
	<path class="st0" d="M245,1025h20c2.8,0,5,2.2,5,5v20c0,2.8-2.2,5-5,5h-20c-2.8,0-5-2.2-5-5v-20C240,1027.2,242.2,1025,245,1025z"
		/>
	<path class="st1" d="M265,1055h-20c-2.8,0-5-2.2-5-5v-20c0-2.8,2.2-5,5-5h20c2.8,0,5,2.2,5,5v20C270,1052.8,267.8,1055,265,1055z
		 M245,1026c-2.2,0-4,1.8-4,4v20c0,2.2,1.8,4,4,4h20c2.2,0,4-1.8,4-4v-20c0-2.2-1.8-4-4-4H245z"/>
	<path class="st1" d="M262,1040c0,0.5-0.4,1-0.9,1H256v5.3c-0.1,0.5-0.6,0.8-1.1,0.7c-0.4-0.1-0.6-0.4-0.7-0.7v-5.3h-5.1
		c-0.4,0.1-0.8-0.1-1-0.4c-0.2-0.3-0.2-0.8,0-1.1c0.2-0.3,0.6-0.5,1-0.4h5.1v-5.3c0.1-0.5,0.6-0.8,1.1-0.7c0.4,0.1,0.6,0.4,0.7,0.7
		v5.3h5.1C261.6,1039.1,262,1039.5,262,1040z"/>
</g>
</svg>
