<?xml version="1.0" encoding="utf-8"?>
<!-- Generator: Adobe Illustrator 22.1.0, SVG Export Plug-In . SVG Version: 6.00 Build 0)  -->
<svg version="1.1" id="Layer_1" xmlns="http://www.w3.org/2000/svg" xmlns:xlink="http://www.w3.org/1999/xlink" x="0px" y="0px"
	 viewBox="0 0 24 24" style="enable-background:new 0 0 24 24;" xml:space="preserve">
<style type="text/css">
	.st0{fill:none;}
	.st1{fill:#232323;}
</style>
<g>
	<path class="st0" d="M0,0h24v24H0V0z"/>
	<path id="shield-icon" class="st1" d="M20.5,1.5v11.5c0,0.7-0.2,1.4-0.5,2.1c-0.3,0.7-0.6,1.4-1.1,2c-0.5,0.6-1.1,1.2-1.7,1.8
		c-0.6,0.5-1.2,1-1.8,1.5c-0.6,0.4-1.2,0.8-1.8,1.1c-0.6,0.4-1.1,0.6-1.3,0.7l-0.4,0.2l-0.4-0.2l-1.3-0.7c-0.6-0.4-1.2-0.7-1.8-1.1
		c-0.6-0.5-1.2-1-1.8-1.5C6,18.3,5.4,17.7,4.9,17c-0.5-0.6-0.8-1.3-1.1-2c-0.2-0.7-0.4-1.4-0.3-2.1V1.5H20.5 M21,0H3
		C2.7,0,2.5,0.1,2.3,0.3C2.1,0.5,2,0.7,2,1v12c0,0.9,0.2,1.8,0.5,2.6c0.3,0.8,0.8,1.6,1.3,2.3c0.5,0.7,1.2,1.4,1.8,2
		c0.6,0.6,1.3,1.1,2,1.6c0.6,0.4,1.3,0.8,2,1.2l1.4,0.8l0.6,0.4c0.2,0.1,0.6,0.1,0.8,0c0.2,0,0.4-0.2,0.7-0.3
		c0.3-0.1,0.8-0.4,1.4-0.8c0.7-0.4,1.3-0.8,1.9-1.2c0.7-0.5,1.4-1,2-1.6c0.7-0.6,1.3-1.3,1.8-2c0.5-0.7,1-1.5,1.3-2.3
		c0.3-0.9,0.5-1.8,0.5-2.7V1c0-0.3-0.1-0.5-0.3-0.7C21.5,0.1,21.3,0,21,0z"/>
</g>
</svg>
