<?xml version="1.0" encoding="utf-8"?>
<!-- Generator: Adobe Illustrator 22.1.0, SVG Export Plug-In . SVG Version: 6.00 Build 0)  -->
<svg version="1.1" id="Layer_1" xmlns="http://www.w3.org/2000/svg" xmlns:xlink="http://www.w3.org/1999/xlink" x="0px" y="0px"
	 viewBox="0 0 20 20" style="enable-background:new 0 0 20 20;" xml:space="preserve">
<g>
	<path d="M10,4c3.3,0,6,2.7,6,6s-2.7,6-6,6s-6-2.7-6-6S6.7,4,10,4 M10,2.5c-4.1,0-7.5,3.4-7.5,7.5s3.4,7.5,7.5,7.5s7.5-3.4,7.5-7.5
		S14.1,2.5,10,2.5z M9.3,11.8v-6C9.3,5.4,9.6,5,10,5l0,0c0.4,0,0.8,0.3,0.8,0.8v6c0,0.4-0.3,0.8-0.8,0.8l0,0
		C9.6,12.5,9.3,12.2,9.3,11.8z M9.3,14.2c0,0.4,0.3,0.7,0.8,0.7s0.8-0.3,0.8-0.7c0-0.4-0.3-0.8-0.8-0.8S9.3,13.8,9.3,14.2z"/>
</g>
</svg>
