<?xml version="1.0" encoding="utf-8"?>
<!-- Generator: Adobe Illustrator 22.1.0, SVG Export Plug-In . SVG Version: 6.00 Build 0)  -->
<svg version="1.1" id="Layer_1" xmlns="http://www.w3.org/2000/svg" xmlns:xlink="http://www.w3.org/1999/xlink" x="0px" y="0px"
	 viewBox="0 0 24 24" style="enable-background:new 0 0 24 24;" xml:space="preserve">
<style type="text/css">
	.st0{fill:none;}
</style>
<g>
	<rect class="st0" width="24" height="24"/>
	<path d="M19.5,16.9V9.9c0-3.4-2.4-6.4-5.8-7.2l-0.4-0.1V1.4c0-0.4-0.1-0.7-0.3-1C12.8,0.2,12.4,0,12.1,0c-0.7-0.1-1.4,0.5-1.4,1.2
		v1.4l-0.4,0.1C6.8,3.6,4.5,6.5,4.5,9.9v6.9L2,19.3v0.5h20v-0.5L19.5,16.9z M18.1,18.4H5.9V9.9c0-1.6,0.7-3.1,1.8-4.3
		c1.1-1.1,2.7-1.8,4.3-1.7c1.6,0,3.2,0.6,4.3,1.7c1.2,1.2,1.8,2.7,1.8,4.3V18.4z M9.5,21.5h5c0,0.7-0.3,1.3-0.7,1.8
		C13.3,23.8,12.7,24,12,24c-0.7,0-1.3-0.2-1.8-0.7C9.8,22.8,9.5,22.2,9.5,21.5z"/>
</g>
</svg>
