<?xml version="1.0" encoding="utf-8"?>
<!-- Generator: Adobe Illustrator 22.1.0, SVG Export Plug-In . SVG Version: 6.00 Build 0)  -->
<svg version="1.1" id="Layer_1" xmlns="http://www.w3.org/2000/svg" xmlns:xlink="http://www.w3.org/1999/xlink" x="0px" y="0px"
	 viewBox="0 0 20 22" style="enable-background:new 0 0 20 22;" xml:space="preserve" fill="#000">
<g>
	<path d="M15.3,16.5H4.7V9.3c0-2.7,2.4-5,5.2-5l0,0c2.9-0.1,5.2,2.1,5.3,4.9l0,0L15.3,16.5L15.3,16.5z M17.6,15.4V9.3
		c0-3.4-2.5-6.2-5.9-7V1.7C11.7,0.8,11,0,9.9,0S8.2,0.7,8.2,1.7v0.7c-3.4,0.7-5.8,3.6-5.9,7v6.1L0,17.6v1.1h20v-1.1L17.6,15.4z
		 M10,22c1.2,0,2.4-0.9,2.4-2.2l0,0H7.6C7.6,21.1,8.7,22,10,22L10,22z"/>
</g>
</svg>
