<?xml version="1.0" encoding="utf-8"?>
<!-- Generator: Adobe Illustrator 21.1.0, SVG Export Plug-In . SVG Version: 6.00 Build 0)  -->
<svg version="1.1" id="Layer_1" xmlns="http://www.w3.org/2000/svg" xmlns:xlink="http://www.w3.org/1999/xlink" x="0px" y="0px"
	 viewBox="0 0 19.4 18.8" style="enable-background:new 0 0 19.4 18.8;" xml:space="preserve">
<style type="text/css">
	.st0{fill:#BCBCCB;}
	.st1{fill:#FFC06A;}
	.st2{fill:none;stroke:#FFFFFF;stroke-width:2;}
</style>
<path id="Notification_Icon" class="st0" d="M6,17.2h4c-0.1,1-1,1.7-2,1.6C7,18.9,6.1,18.2,6,17.2z M1,16.4c-0.6,0-1-0.3-1-0.8
	s0.4-0.8,1-0.8h0.5c0.8-0.5,1.4-1.4,1.5-2.4V10c0-2.2,2.2-4,5-4s5,1.8,5,4v2.4c0.1,1,0.7,1.9,1.5,2.4H15c0.6,0,1,0.3,1,0.8
	c0,0.5-0.4,0.8-1,0.8L1,16.4z"/>
<path class="st1" d="M14.2,2c1.8,0,3.2,1.4,3.2,3.2S16,8.4,14.2,8.4S11,7,11,5.2S12.4,2,14.2,2z"/>
<path class="st2" d="M14.2,1c2.3,0,4.2,1.9,4.2,4.2s-1.9,4.2-4.2,4.2S10,7.5,10,5.2S11.9,1,14.2,1z"/>
</svg>
