<?xml version="1.0" encoding="utf-8"?>
<!-- Generator: Adobe Illustrator 22.1.0, SVG Export Plug-In . SVG Version: 6.00 Build 0)  -->
<svg version="1.1" id="Layer_1" xmlns="http://www.w3.org/2000/svg" xmlns:xlink="http://www.w3.org/1999/xlink" x="0px" y="0px"
	 viewBox="0 0 25 25" style="enable-background:new 0 0 25 25;" xml:space="preserve">
<style type="text/css">
	.st0{fill:#A63E5D;}
</style>
<g id="Notification_On" transform="translate(-1490 -22)">
	<path id="NotificationIcon" d="M1505.4,41h-10.6v-7.8c0-1.4,0.6-2.8,1.6-3.8c1-1,2.3-1.6,3.7-1.5c1.4,0,2.7,0.5,3.7,1.5
		c1,1,1.6,2.4,1.6,3.8L1505.4,41L1505.4,41z M1507.8,39.8v-6.6c0-3.6-2.4-6.7-5.9-7.6v-0.8c0.1-1-0.7-1.8-1.7-1.9s-1.8,0.7-1.9,1.7
		c0,0.1,0,0.1,0,0.2v0.8c-3.5,0.9-5.9,4-5.9,7.6v6.6l-2.4,2.4v1.2h20v-1.2L1507.8,39.8z M1500.1,47c0.6,0,1.2-0.2,1.7-0.7
		c0.5-0.5,0.7-1.1,0.7-1.7h-4.8c0,0.6,0.3,1.3,0.7,1.7C1498.9,46.8,1499.5,47,1500.1,47z"/>
	<circle id="Notification" class="st0" cx="1508" cy="29" r="7"/>
</g>
</svg>
