<?xml version="1.0" encoding="utf-8"?>
<!-- Generator: Adobe Illustrator 22.1.0, SVG Export Plug-In . SVG Version: 6.00 Build 0)  -->
<svg version="1.1" id="Layer_1" xmlns="http://www.w3.org/2000/svg" xmlns:xlink="http://www.w3.org/1999/xlink" x="0px" y="0px"
	 viewBox="0 0 30 28" style="enable-background:new 0 0 30 28;" xml:space="preserve">
<style type="text/css">
	.st0{fill:#FFFFFF;}
	.st1{fill:#A63E5D;}
</style>
<g>
	<path class="st0" d="M15.3,22.5H4.7v-7.2c0-2.8,2.4-4.9,5.2-4.9l0,0c2.9-0.1,5.2,2.1,5.3,4.9l0,0L15.3,22.5L15.3,22.5z M17.6,21.4v-6.1
		c0-3.4-2.5-6.2-5.9-7V7.7C11.7,6.8,11,6,9.9,6S8.2,6.7,8.2,7.7v0.7c-3.4,0.7-5.8,3.6-5.9,7v6.1L0,23.6v1.1h20v-1.1L17.6,21.4z
		 M10,28c1.2,0,2.4-0.9,2.4-2.2l0,0H7.6C7.6,27.1,8.7,28,10,28L10,28z"/>
	<path class="st1" d="M21,0c5,0,9,4,9,9s-4,9-9,9s-9-4-9-9S16,0,21,0z"/>
</g>
</svg>
