<?xml version="1.0" encoding="utf-8"?>
<!-- Generator: Adobe Illustrator 21.1.0, SVG Export Plug-In . SVG Version: 6.00 Build 0)  -->
<svg version="1.1" id="Layer_1" xmlns="http://www.w3.org/2000/svg" xmlns:xlink="http://www.w3.org/1999/xlink" x="0px" y="0px"
	 viewBox="0 0 31 28" style="enable-background:new 0 0 31 28;" xml:space="preserve">
<style type="text/css">
	.st0{fill:#FFFFFF;}
	.st1{fill:#A63E5D;}
</style>
<g>
	<path class="st0" d="M16.1,22H4.9v-7.8c0-3,2.5-5.4,5.5-5.4l0,0c3-0.1,5.5,2.3,5.6,5.3l0,0V22H16.1z M18.5,20.8v-6.6
		c0-3.7-2.6-6.8-6.2-7.6V5.9c0-1-0.8-1.9-1.9-1.9S8.6,4.8,8.6,5.9v0.8C5,7.5,2.5,10.6,2.4,14.3v6.6L0,23.2v1.2h21v-1.2L18.5,20.8z
		 M10.5,28c1.3,0,2.5-1,2.5-2.4l0,0H8C8,27,9.1,28,10.5,28L10.5,28z"/>
	<path class="st1" d="M22,0c5,0,9,4,9,9s-4,9-9,9s-9-4-9-9S17,0,22,0z"/>
</g>
</svg>
