<?xml version="1.0" encoding="utf-8"?>
<!-- Generator: Adobe Illustrator 21.1.0, SVG Export Plug-In . SVG Version: 6.00 Build 0)  -->
<svg version="1.1" id="Layer_1" xmlns="http://www.w3.org/2000/svg" xmlns:xlink="http://www.w3.org/1999/xlink" x="0px" y="0px"
	 viewBox="0 0 12.4 12.8" style="enable-background:new 0 0 12.4 12.8;" xml:space="preserve">
<style type="text/css">
	.st0{fill:#BCBCCB;}
</style>
<g>
	<path class="st0" d="M4.6,11.2h3.1c0,0.9-0.7,1.6-1.5,1.6C5.3,12.8,4.6,12.1,4.6,11.2z M0.8,10.4C0.4,10.4,0,10.1,0,9.7
		c0,0,0-0.1,0-0.1c0-0.4,0.3-0.8,0.7-0.8c0,0,0.1,0,0.1,0h0.4c0.7-0.6,1.1-1.5,1.2-2.4V4C2.3,1.9,3.9,0.1,6.1,0s3.9,1.6,4,3.7
		c0,0.1,0,0.2,0,0.2v2.4c0.1,0.9,0.5,1.8,1.2,2.4h0.4c0.4,0,0.8,0.3,0.8,0.7c0,0,0,0.1,0,0.1c0,0.4-0.3,0.8-0.7,0.8c0,0-0.1,0-0.1,0
		L0.8,10.4z"/>
</g>
</svg>
