<?xml version="1.0" encoding="utf-8"?>
<!-- Generator: Adobe Illustrator 22.1.0, SVG Export Plug-In . SVG Version: 6.00 Build 0)  -->
<svg version="1.1" id="Layer_1" xmlns="http://www.w3.org/2000/svg" xmlns:xlink="http://www.w3.org/1999/xlink" x="0px" y="0px"
	 viewBox="0 0 20 20" style="enable-background:new 0 0 20 20;" xml:space="preserve">
<g>
	<path d="M8.4,18.9c-0.9-1.3-2.4-2.2-4.1-2.2S1,17.6,0.1,19C0,19.2,0,19.4,0,19.6c0.1,0.2,0.2,0.3,0.3,0.4l0.1,0c0,0,0.1,0,0.1,0
		c0.3,0,0.6-0.2,0.7-0.4C2,18.6,3.1,18,4.3,18c1.2,0,2.3,0.6,2.9,1.5C7.3,19.8,7.6,20,7.8,20C7.9,20,8,20,8,20
		c0.2,0,0.4-0.2,0.4-0.3l0,0C8.6,19.4,8.5,19.1,8.4,18.9z M8.2,19.5L8.2,19.5L8.2,19.5L8.2,19.5z M4.3,16.3c1.2,0,2.2-0.9,2.2-2
		s-1-2-2.2-2s-2.2,0.9-2.2,2S3.1,16.3,4.3,16.3z M4.3,13.5c0.4,0,0.7,0.3,0.7,0.7s-0.3,0.7-0.7,0.7s-0.7-0.3-0.7-0.7
		S3.8,13.5,4.3,13.5z M19.9,18.9c-0.9-1.3-2.4-2.2-4.1-2.2s-3.2,0.8-4.1,2.2c-0.1,0.2-0.2,0.5-0.1,0.6c0.1,0.2,0.2,0.3,0.3,0.4
		l0.1,0c0,0,0.1,0,0.1,0c0.3,0,0.6-0.2,0.7-0.4c0.6-1,1.7-1.6,2.9-1.6c1.2,0,2.3,0.6,2.9,1.5c0.1,0.2,0.4,0.4,0.7,0.4
		c0.1,0,0.2,0,0.2,0c0.2,0,0.4-0.2,0.4-0.3l0,0C20.1,19.4,20,19.1,19.9,18.9z M19.7,19.5L19.7,19.5L19.7,19.5L19.7,19.5z M15.7,16.3
		c1.2,0,2.2-0.9,2.2-2s-1-2-2.2-2s-2.2,0.9-2.2,2S14.6,16.3,15.7,16.3z M15.7,13.5c0.4,0,0.7,0.3,0.7,0.7s-0.3,0.7-0.7,0.7
		S15,14.6,15,14.2S15.3,13.5,15.7,13.5z M14.1,6.8c-0.9-1.3-2.4-2.2-4.1-2.2S6.8,5.4,5.9,6.8C5.8,7,5.7,7.2,5.8,7.4
		C5.8,7.6,6,7.7,6.1,7.8l0.1,0c0,0,0.1,0,0.1,0c0.3,0,0.6-0.2,0.7-0.4c0.6-1,1.7-1.6,2.9-1.6c1.2,0,2.3,0.6,2.9,1.5
		c0.1,0.2,0.4,0.4,0.7,0.4c0.1,0,0.2,0,0.2,0c0.2,0,0.4-0.2,0.4-0.3l0,0C14.3,7.2,14.2,6.9,14.1,6.8z M14,7.4L14,7.4L14,7.4L14,7.4z
		 M10,4.1c1.2,0,2.2-0.9,2.2-2s-1-2-2.2-2S7.8,0.9,7.8,2S8.8,4.1,10,4.1z M10,1.3c0.4,0,0.7,0.3,0.7,0.7S10.4,2.8,10,2.8
		S9.3,2.4,9.3,2S9.6,1.3,10,1.3z M11.5,13.4L10,11.9l-1.5,1.5c-0.4,0.4-1,0.4-1.4,0c-0.4-0.4-0.4-1,0-1.4L9,10.1V8.2
		c0-0.6,0.4-1,1-1c0.6,0,1,0.4,1,1v1.9l1.9,1.9c0.4,0.4,0.4,1,0,1.4C12.6,13.8,12,13.8,11.5,13.4z"/>
</g>
</svg>
