<?xml version="1.0" encoding="utf-8"?>
<!-- Generator: Adobe Illustrator 22.1.0, SVG Export Plug-In . SVG Version: 6.00 Build 0)  -->
<svg version="1.1" id="Layer_1" xmlns="http://www.w3.org/2000/svg" xmlns:xlink="http://www.w3.org/1999/xlink" x="0px" y="0px"
	 viewBox="0 0 20 20" style="enable-background:new 0 0 20 20;" xml:space="preserve">
<g>
	<path d="M8.4,18.9c-0.9-1.3-2.4-2.2-4.1-2.2S1,17.6,0.1,19C0,19.2,0,19.4,0,19.6c0.1,0.2,0.2,0.3,0.3,0.4h0.1h0.1
		c0.3,0,0.6-0.2,0.7-0.4C2,18.6,3.1,18,4.3,18s2.3,0.6,2.9,1.5C7.3,19.8,7.6,20,7.8,20C7.9,20,8,20,8,20c0.2,0,0.4-0.2,0.4-0.3l0,0
		C8.6,19.4,8.5,19.1,8.4,18.9z M8.2,19.5L8.2,19.5L8.2,19.5L8.2,19.5z M4.3,16.3c1.2,0,2.2-0.9,2.2-2s-1-2-2.2-2s-2.2,0.9-2.2,2
		S3.1,16.3,4.3,16.3z M4.3,13.5c0.4,0,0.7,0.3,0.7,0.7s-0.3,0.7-0.7,0.7c-0.4,0-0.7-0.3-0.7-0.7S3.8,13.5,4.3,13.5z M12.1,20
		c0.3,0,0.6-0.2,0.7-0.4c0.6-1,1.7-1.7,2.9-1.7s2.3,0.8,2.9,1.7c0.1,0.2,0.3,0.4,0.7,0.4c0.3,0,0.6-0.3,0.6-0.3l0,0
		c0.2-0.2,0.1-0.4,0-0.6c-0.9-1.3-2.4-2.4-4.1-2.4s-3.2,0.9-4.1,2.3c-0.1,0.2-0.2,0.4-0.1,0.6C11.5,19.6,11.7,20,12.1,20z
		 M19.7,19.7L19.7,19.7L19.7,19.7L19.7,19.7z M15.7,16.3c1.2,0,2.2-0.9,2.2-2s-1-2-2.2-2s-2.2,0.9-2.2,2S14.6,16.3,15.7,16.3z
		 M15.7,13.5c0.4,0,0.7,0.3,0.7,0.7s-0.3,0.7-0.7,0.7S15,14.6,15,14.2S15.3,13.5,15.7,13.5z M6.3,7.7c0.3,0,0.5-0.2,0.7-0.4
		c0.6-1,1.7-1.6,2.9-1.6s2.3,0.6,2.9,1.5c0.1,0.2,0.4,0.4,0.7,0.4c0.1,0,0.2,0,0.2,0c0.2,0,0.4-0.2,0.4-0.3l0,0
		c0.2-0.2,0.1-0.5,0-0.6c-0.9-1.3-2.4-2.2-4.1-2.2S6.8,5.3,5.9,6.7C5.8,6.9,5.7,7.1,5.8,7.3C5.8,7.3,6,7.7,6.3,7.7z M14.1,7.3
		L14.1,7.3L14.1,7.3L14.1,7.3z M10.1,4c1.2,0,2.2-0.9,2.2-2s-1-2-2.2-2S7.9,0.8,7.9,1.9S8.9,4,10.1,4z M10.1,1.2
		c0.4,0,0.7,0.3,0.7,0.7s-0.3,0.8-0.7,0.8c-0.4,0-0.7-0.4-0.7-0.8S9.7,1.2,10.1,1.2z M11.6,13.4l-1.5-1.5l-1.5,1.5
		c-0.4,0.4-1,0.4-1.4,0c-0.4-0.4-0.4-1,0-1.4L9,10.1V8.2c0-0.6,0.4-1,1-1c0.6,0,1,0.4,1,1v1.9L13,12c0.4,0.4,0.4,1,0,1.4
		C12.7,13.8,12.1,13.8,11.6,13.4z"/>
</g>
</svg>
