<?xml version="1.0" encoding="utf-8"?>
<!-- Generator: Adobe Illustrator 22.1.0, SVG Export Plug-In . SVG Version: 6.00 Build 0)  -->
<svg version="1.1" id="Capa_1" xmlns="http://www.w3.org/2000/svg" xmlns:xlink="http://www.w3.org/1999/xlink" x="0px" y="0px"
	 viewBox="0 0 40 40" style="enable-background:new 0 0 40 40;" xml:space="preserve">
<style type="text/css">
	.st0{fill:none;}
</style>
<g>
	<path class="st0" d="M5,5h30v30H5V5z"/>
	<path d="M30,20c0-0.4-0.1-0.8-0.4-1c-0.2-0.2-0.5-0.3-0.8-0.3h-0.8V17c0-0.6-0.5-1.2-1.2-1.2h-0.1V10H13.3v0.6h-1v0.7h-0.9v2.3
		h-0.1c-0.6,0-1.2,0.6-1.2,1.2v14.1c0,0.3,0.1,0.5,0.2,0.7l0.1,0c0.2,0.3,0.6,0.4,0.9,0.4h14.4c0.6,0,1-0.4,1.1-0.8l3.3-9.1V20z
		 M11.3,25.1V14.9V25.1L11.3,25.1z M14.5,18.7v-7.4h11v7.4H14.5z M26.8,18.7v-1.6V18.7L26.8,18.7z M25.5,28.7H11.4l2.5-6.9l0.6-1.7
		l0.1-0.2h14.2L25.5,28.7z M24.5,15.5c0,0.4-0.3,0.6-0.6,0.6h-7.8c-0.3,0-0.6-0.3-0.6-0.6c0-0.4,0.3-0.6,0.6-0.6h7.8
		C24.3,14.9,24.5,15.1,24.5,15.5z M16.1,13.9h3.3c0.4,0,0.6-0.3,0.6-0.7s-0.3-0.7-0.6-0.7h-3.3c-0.4,0-0.6,0.3-0.6,0.7
		S15.8,13.9,16.1,13.9z M23.9,17.1h-7.8c-0.3,0-0.6,0.3-0.6,0.6s0.3,0.6,0.6,0.6h7.8c0.4,0,0.6-0.3,0.6-0.6
		C24.5,17.3,24.3,17.1,23.9,17.1z"/>
</g>
</svg>
