<?xml version="1.0" encoding="utf-8"?>
<!-- Generator: Adobe Illustrator 22.1.0, SVG Export Plug-In . SVG Version: 6.00 Build 0)  -->
<svg version="1.1" id="Layer_1" xmlns="http://www.w3.org/2000/svg" xmlns:xlink="http://www.w3.org/1999/xlink" x="0px" y="0px"
	 viewBox="0 0 681 384.3" style="enable-background:new 0 0 681 384.3;" xml:space="preserve">
<style type="text/css">
	.st0{fill:#FFFFFF;stroke:#C9C9C9;stroke-width:3;}
	.st1{fill:#C9C9C9;}
	.st2{fill:#FFFFFF;stroke:#C9C9C9;stroke-width:2;}
	.st3{fill:#FFFFFF;}
	.st4{fill:#2F2445;}
	.st5{fill:#5E5375;}
	.st6{fill:#463B5B;}
	.st7{fill:#E5E5E5;}
</style>
<g id="project_managment_illustration" transform="translate(-939 -342)">
	<g id="Grass_1" transform="translate(1428.822 642.164)">
		<path id="Path_725" class="st0" d="M105.8,46.1v36.5H0V6.2C17.3-5.2,40.6-0.4,52,16.9c0.2,0.2,0.3,0.5,0.5,0.7
			c12.3-6.4,27.5-1.7,33.9,10.6c0.5,1,1,2,1.4,3.1c1-0.2,2-0.3,3-0.3C99.1,31,105.8,37.8,105.8,46.1
			C105.8,46.1,105.8,46.1,105.8,46.1L105.8,46.1z"/>
		<path id="Path_726" class="st1" d="M43.6,53.5c-0.7,0-1.2-0.5-1.2-1.2c0-0.3,0.1-0.6,0.3-0.8c3.1-3.6,2.7-9-0.8-12.1
			c-1.6-1.4-3.5-2.1-5.6-2.1c-1.3,0-2.6,0.3-3.7,0.8c-0.6,0.3-1.3,0-1.6-0.6c0-0.1,0-0.1-0.1-0.2c-1-3.3-4.5-5.1-7.8-4.1
			c-1.3,0.4-2.4,1.2-3.2,2.3c-0.4,0.5-1.1,0.7-1.7,0.3c-0.5-0.4-0.7-1.1-0.3-1.7c2.8-3.9,8.2-4.8,12.1-2c1.2,0.8,2.1,1.9,2.7,3.2
			c1.2-0.4,2.4-0.6,3.6-0.6c6,0,10.9,4.9,10.9,10.9c0,2.6-1,5.2-2.7,7.2C44.3,53.3,44,53.5,43.6,53.5z"/>
	</g>
	<g id="Grass_3" transform="translate(1034.5 642.164)">
		<path id="Path_702" class="st2" d="M0.9,64.2C-2.3,52.9,2.8,34.3,19.1,31c1-0.1,2,0,3,0.3c4.7-13,19.2-19.8,32.2-15
			c1.1,0.4,2.1,0.8,3.1,1.4C68.3,0,91.5-5.3,109,5.7c0.2,0.2,0.5,0.3,0.7,0.5v76.5H18.4C18.4,82.6,4,78.3,0.9,64.2z"/>
		<path id="Path_703" class="st1" d="M36.4,61.5c-4-4.6-3.5-11.5,1-15.4c2-1.7,4.6-2.7,7.2-2.7c1.2,0,2.4,0.2,3.6,0.6
			c2.1-4.3,7.3-6.1,11.6-4c1.3,0.6,2.4,1.6,3.2,2.7c0.4,0.5,0.3,1.3-0.3,1.7c-0.5,0.4-1.3,0.3-1.7-0.3c-2-2.8-5.9-3.4-8.7-1.4
			c-1.1,0.8-1.9,1.9-2.3,3.2c-0.2,0.6-0.9,1-1.5,0.8c-0.1,0-0.1,0-0.2-0.1c-1.2-0.6-2.4-0.8-3.7-0.8c-4.7,0-8.5,3.8-8.5,8.6
			c0,2.1,0.7,4.1,2.1,5.6c0.4,0.5,0.3,1.3-0.2,1.7C37.6,62,36.8,61.9,36.4,61.5L36.4,61.5z"/>
	</g>
	<g id="Brower_bar" transform="translate(1115.953 471.592)">
		<path id="Path_704" class="st3" d="M1,13.4c0-6.6,5.4-12,12-12h288c6.6,0,12,5.4,12,12v240H1V13.4z"/>
		<path id="Path_705" class="st4" d="M314.4,254.4H0V13.2C0,5.9,5.9,0,13.2,0h288c7.3,0,13.2,5.9,13.2,13.2v0V254.4z M2.4,252H312
			V13.2c0-6-4.8-10.8-10.8-10.8h-288c-6,0-10.8,4.8-10.8,10.8l0,0V252z"/>
		<path id="Path_706" class="st4" d="M313.2,23.6H1.2V26h312V23.6z"/>
		<g id="Button_bar" transform="translate(20.417 7.407)">
			<path id="Path_707" class="st5" d="M5.6,0c3.3,0,6,2.7,6,6s-2.7,6-6,6s-6-2.7-6-6S2.3,0,5.6,0z"/>
			<path id="Path_708" class="st6" d="M26.6,0c3.3,0,6,2.7,6,6s-2.7,6-6,6s-6-2.7-6-6S23.3,0,26.6,0z"/>
			<path id="Path_709" class="st4" d="M46.6,0c3.3,0,6,2.7,6,6s-2.7,6-6,6s-6-2.7-6-6S43.3,0,46.6,0z"/>
		</g>
		<g id="Search_bar" transform="translate(209.047 6.408)">
			<path id="Path_710" class="st4" d="M78.2,14.4h-48c-4,0-7.2-3.2-7.2-7.2c0-4,3.2-7.2,7.2-7.2h10.3c0.7,0,1.2,0.5,1.2,1.2
				c0,0.7-0.5,1.2-1.2,1.2H30.2c-2.7,0-4.8,2.1-4.8,4.8c0,2.7,2.1,4.8,4.8,4.8c0,0,0,0,0,0h48c2.7,0,4.8-2.2,4.8-4.8
				c0-2.6-2.1-4.8-4.8-4.8H46.5c-0.7,0-1.2-0.5-1.2-1.2c0-0.7,0.5-1.2,1.2-1.2l0,0h31.7c4,0,7.2,3.2,7.2,7.2
				C85.4,11.2,82.2,14.4,78.2,14.4z"/>
			<path id="Path_711" class="st4" d="M11.9,11.1l-1.9-1.7c0.5-0.8,0.8-1.8,0.8-2.8c0-3-2.4-5.5-5.4-5.5C2.5,1.1,0,3.5,0,6.5
				c0,3,2.4,5.5,5.4,5.5c1.1,0,2.1-0.3,3-0.9l1.9,1.8c0.5,0.5,1.2,0.4,1.7-0.1C12.5,12.3,12.4,11.6,11.9,11.1L11.9,11.1z M2.5,6.6
				c0-1.7,1.3-3,3-3c1.7,0,3,1.3,3,3c0,0.8-0.3,1.5-0.8,2.1L7.5,8.7l0,0C7,9.3,6.3,9.6,5.5,9.6C3.9,9.6,2.5,8.3,2.5,6.6L2.5,6.6z"/>
		</g>
		<g id="Arrow_bar" transform="translate(87.996 6.715)">
			<path id="Path_712" class="st4" d="M5.9,11.7c-0.3,0-0.6-0.1-0.9-0.3L0.4,6.7c-0.5-0.5-0.5-1.2,0-1.7c0,0,0,0,0,0L5,0.4
				c0.5-0.5,1.2-0.5,1.7,0s0.5,1.2,0,1.7L2.9,5.9l3.8,3.8c0.5,0.4,0.5,1.2,0,1.7C6.5,11.6,6.2,11.7,5.9,11.7L5.9,11.7z"/>
			<path id="Path_713" class="st4" d="M23,11.7c-0.7,0-1.2-0.5-1.2-1.2c0-0.3,0.1-0.6,0.4-0.9L26,5.9l-3.8-3.8
				c-0.5-0.5-0.5-1.2,0-1.7s1.2-0.5,1.7,0L28.6,5c0.5,0.5,0.5,1.2,0,1.7c0,0,0,0,0,0l-4.7,4.7C23.7,11.6,23.4,11.7,23,11.7z"/>
		</g>
	</g>
	<g id="Dashed_line" transform="translate(1338.371 574.063)">
		<path id="Path_714" class="st4" d="M172.2,5.7l-3.5,3.6c-0.5,0.5-1.2,0.5-1.7,0c0,0,0,0,0,0c-0.5-0.5-0.5-1.2,0-1.7l2.7-2.7
			l-2.6-2.7c-0.5-0.5-0.5-1.2,0-1.7c0.4-0.5,1.2-0.5,1.6,0c0,0,0,0,0,0l3.5,3.6C172.7,4.4,172.7,5.2,172.2,5.7L172.2,5.7z M2.8,43.2
			l2.7-2.7c0.4-0.5,0.4-1.2,0-1.6c-0.4-0.5-1.1-0.5-1.6-0.1l-3.5,3.6c-0.5,0.5-0.5,1.2,0,1.7l3.5,3.6c0.5,0.5,1.2,0.5,1.7,0
			c0,0,0,0,0,0c0.5-0.5,0.5-1.2,0-1.7L2.8,43.2z M132.6,3.6h-5.9c-0.7,0-1.2,0.5-1.2,1.2c0,0.7,0.5,1.2,1.2,1.2h5.9
			c0.7,0,1.2-0.5,1.2-1.2C133.8,4.1,133.3,3.6,132.6,3.6z M120.9,3.6H115c-0.7,0-1.2,0.5-1.2,1.2c0,0.7,0.5,1.2,1.2,1.2h5.9
			c0.7,0,1.2-0.5,1.2-1.2C122.1,4.1,121.6,3.6,120.9,3.6z M109.2,3.6h-5.9c-0.7,0-1.2,0.5-1.2,1.2c0,0.7,0.5,1.2,1.2,1.2h5.9
			c0.7,0,1.2-0.5,1.2-1.2C110.4,4.1,109.8,3.6,109.2,3.6z M91.5,6h5.9c0.7,0,1.2-0.5,1.2-1.2c0-0.7-0.5-1.2-1.2-1.2h-5.9
			c-0.7,0-1.2,0.5-1.2,1.2C90.3,5.5,90.9,6,91.5,6z M169,4.8c0-0.7-0.5-1.2-1.2-1.2c0,0,0,0,0,0H162c-0.7,0-1.2,0.5-1.2,1.2
			c0,0.7,0.5,1.2,1.2,1.2h5.9C168.5,6,169,5.5,169,4.8L169,4.8z M144.4,3.6h-5.9c-0.7,0-1.2,0.5-1.2,1.2c0,0.7,0.5,1.2,1.2,1.2h5.9
			c0.7,0,1.2-0.5,1.2-1.2C145.6,4.1,145,3.6,144.4,3.6z M156.1,3.6h-5.9c-0.7,0-1.2,0.5-1.2,1.2c0,0.7,0.5,1.2,1.2,1.2h5.9
			c0.7,0,1.2-0.5,1.2-1.2C157.3,4.1,156.8,3.6,156.1,3.6z M45.8,42h-5.9c-0.7,0-1.2,0.5-1.2,1.2c0,0.7,0.5,1.2,1.2,1.2h5.9
			c0.7,0,1.2-0.5,1.2-1.2C46.9,42.5,46.4,42,45.8,42z M57.5,42h-5.9c-0.7,0-1.2,0.5-1.2,1.2c0,0.7,0.5,1.2,1.2,1.2h5.9
			c0.7,0,1.2-0.5,1.2-1.2C58.7,42.5,58.2,42,57.5,42L57.5,42z M22.3,42h-5.9c-0.7,0-1.2,0.5-1.2,1.2c0,0.7,0.5,1.2,1.2,1.2h5.9
			c0.7,0,1.2-0.5,1.2-1.2C23.5,42.5,22.9,42,22.3,42L22.3,42z M69.2,42h-5.9c-0.7,0-1.2,0.5-1.2,1.2c0,0.7,0.5,1.2,1.2,1.2h5.9
			c0.7,0,1.2-0.5,1.2-1.2C70.4,42.5,69.9,42,69.2,42z M10.5,42H4.7c-0.7,0-1.2,0.5-1.2,1.2c0,0.7,0.5,1.2,1.2,1.2h5.9
			c0.7,0,1.2-0.5,1.2-1.2C11.7,42.5,11.2,42,10.5,42z M34,42h-5.9c-0.7,0-1.2,0.5-1.2,1.2c0,0.7,0.5,1.2,1.2,1.2H34
			c0.7,0,1.2-0.5,1.2-1.2C35.2,42.5,34.7,42,34,42z M81,42h-5.9c-0.7,0-1.2,0.5-1.2,1.2c0,0.7,0.5,1.2,1.2,1.2H81
			c0.7,0,1.2-0.5,1.2-1.2C82.2,42.5,81.6,42,81,42L81,42z M74.3,7.8c0.2,0,0.5-0.1,0.7-0.2c1.4-1,3.1-1.6,4.8-1.6h5.9
			c0.7,0,1.2-0.5,1.2-1.2c0-0.7-0.5-1.2-1.2-1.2h-5.9c-2.2,0-4.4,0.7-6.2,2C73.2,6,73,6.5,73.2,7C73.4,7.5,73.8,7.8,74.3,7.8z
			 M100.1,29.8c0.3,0.6,1,0.8,1.5,0.6c0.2-0.1,0.4-0.3,0.5-0.5c0.2-0.4,0.2-0.8,0-1.2c-1-2-2.6-3.7-4.6-4.7
			c-0.6-0.3-1.3-0.1-1.6,0.5c0,0,0,0,0,0c-0.3,0.6-0.1,1.3,0.5,1.6C98.1,27,99.3,28.3,100.1,29.8L100.1,29.8z M102.2,34
			c-0.3-0.1-0.6,0-0.9,0.2c-0.3,0.2-0.4,0.5-0.5,0.8c-0.3,1.7-1.1,3.4-2.3,4.6c-0.3,0.3-0.4,0.9-0.3,1.3c0.2,0.4,0.6,0.7,1.1,0.7
			c0.3,0,0.6-0.1,0.8-0.4c1.6-1.6,2.6-3.7,3-5.9C103.2,34.7,102.8,34.1,102.2,34L102.2,34z M71.3,10.2C70.7,10,70,10.4,69.8,11
			c0,0,0,0,0,0c-0.7,2.2-0.7,4.5-0.1,6.6c0.1,0.5,0.6,0.8,1.1,0.8c0.1,0,0.2,0,0.4-0.1c0.6-0.2,1-0.9,0.8-1.5
			c-0.2-0.8-0.4-1.7-0.4-2.5c0-0.9,0.1-1.8,0.4-2.7c0.1-0.3,0.1-0.6-0.1-0.9C71.8,10.5,71.6,10.3,71.3,10.2L71.3,10.2z M79.6,25.2
			c0.7,0,1.2-0.5,1.2-1.2c0-0.7-0.5-1.2-1.2-1.2c-1.7,0-3.4-0.6-4.8-1.7c-0.5-0.4-1.2-0.3-1.6,0.2c0,0,0,0,0,0
			c-0.4,0.5-0.3,1.3,0.2,1.7C75.2,24.4,77.4,25.2,79.6,25.2L79.6,25.2z M92.6,24c0-0.7-0.5-1.2-1.2-1.2c0,0,0,0,0,0h-5.9
			c-0.7,0-1.2,0.5-1.2,1.2c0,0.7,0.5,1.2,1.2,1.2h5.9C92,25.2,92.5,24.7,92.6,24L92.6,24z M94,41.9C93.6,42,93.2,42,92.8,42h-5.9
			c-0.7,0-1.2,0.5-1.2,1.2c0,0.7,0.5,1.2,1.2,1.2h5.9c0.6,0,1.1,0,1.7-0.1c0.7-0.1,1.1-0.7,1-1.4C95.3,42.2,94.7,41.8,94,41.9
			C94.1,41.9,94,41.9,94,41.9L94,41.9z"/>
	</g>
	<g id="back_style">
		<path id="Path_715" class="st1" d="M943,604c1.7,0,3,1.3,3,3s-1.3,3-3,3s-3-1.3-3-3S941.3,604,943,604z"/>
		<path id="Path_716" class="st1" d="M1103.2,342c1.7,0,3,1.3,3,3s-1.3,3-3,3s-3-1.3-3-3S1101.6,342,1103.2,342z"/>
		<path id="Path_717" class="st1" d="M1313.6,404.4c1.7,0,3,1.3,3,3s-1.3,3-3,3s-3-1.3-3-3S1311.9,404.4,1313.6,404.4z"/>
		<path id="Path_718" class="st1" d="M1430.4,452.4c1.7,0,3,1.3,3,3s-1.3,3-3,3s-3-1.3-3-3S1428.7,452.4,1430.4,452.4z"/>
		<path id="Path_719" class="st1" d="M1554.4,463.4c0,0.6-0.5,1-1,1l0,0h-3.9v3.9c0,0.6-0.5,1-1,1c-0.6,0-1-0.5-1-1v-3.9h-3.9
			c-0.6,0-1-0.5-1-1c0-0.6,0.5-1,1-1h3.9v-3.9c0-0.6,0.5-1,1-1s1,0.5,1,1c0,0,0,0,0,0v3.9h3.9
			C1553.9,462.4,1554.4,462.8,1554.4,463.4C1554.4,463.4,1554.4,463.4,1554.4,463.4z"/>
		<path id="Path_720" class="st1" d="M1056,419.4c0,0.9-0.7,1.5-1.5,1.5h-5.9v5.9c0,0.9-0.7,1.6-1.5,1.6s-1.6-0.7-1.6-1.6V421h-5.9
			c-0.9,0-1.5-0.7-1.5-1.5c0-0.9,0.7-1.6,1.5-1.6h5.9V412c0-0.9,0.7-1.5,1.6-1.5s1.5,0.7,1.5,1.5v5.9h5.9
			C1055.3,417.9,1056,418.5,1056,419.4C1056,419.4,1056,419.4,1056,419.4z"/>
		<path id="Path_721" class="st1" d="M1020.5,524.7c0,0.6-0.4,1-1,1c0,0,0,0,0,0h-3.9v3.9c0,0.6-0.5,1-1,1s-1-0.5-1-1l0,0v-3.9h-3.9
			c-0.6,0.1-1.1-0.3-1.1-0.9c-0.1-0.6,0.3-1.1,0.9-1.1c0.1,0,0.1,0,0.2,0h3.9v-3.9c0-0.6,0.5-1,1-1s1,0.5,1,1v3.9h3.9
			C1020,523.7,1020.5,524.1,1020.5,524.7C1020.5,524.7,1020.5,524.7,1020.5,524.7L1020.5,524.7z"/>
		<path id="Path_722" class="st1" d="M1197.7,384c0,0.6-0.5,1-1,1h-3.9v3.9c0,0.6-0.5,1-1,1c-0.6,0-1-0.5-1-1V385h-3.9
			c-0.6,0-1-0.5-1-1c0-0.6,0.5-1,1-1c0,0,0,0,0,0h3.9V379c0-0.6,0.5-1,1-1s1,0.5,1,1c0,0,0,0,0,0v3.9h3.9
			C1197.2,383,1197.7,383.4,1197.7,384z"/>
		<path id="Path_723" class="st1" d="M953.6,453c5.7,0,10.8,3.3,13.2,8.4c1.4-0.8,3-1.2,4.6-1.2c5.3,0,9.6,4.2,9.6,9.5c0,0,0,0,0,0
			v0.1h-41.8c-0.1-0.8-0.2-1.6-0.2-2.4C939.1,459.4,945.6,453,953.6,453z"/>
		<path id="Path_724" class="st1" d="M1523.4,387.8c0,0.8-0.1,1.6-0.2,2.4h-41.8v-0.1c0-5.3,4.3-9.5,9.6-9.5c0,0,0,0,0,0
			c1.6,0,3.2,0.4,4.6,1.1c3.5-7.3,12.2-10.4,19.5-6.9C1520.1,377.3,1523.3,382.3,1523.4,387.8z"/>
	</g>
	<g id="Grass_2" transform="translate(1462.675 674.8)">
		<path id="Path_727" class="st4" d="M115.4,40.7c0,5.2-4.2,9.3-9.3,9.3l0,0H69.8l1.8-1.6c4.3-3.9,8.4-8.2,12.1-12.6
			c13.7-6.3,22.7-4.8,22.7-4.8c5,0.2,8.9,4.2,9,9.2L115.4,40.7z"/>
		<path id="Path_728" class="st4" d="M0,50c0,0,9.5-25.8,47.2,0H0z"/>
		<path id="Path_729" class="st5" d="M65.6,50H38.5C13.3,22.5,23.7,10,23.7,10c1.7-2.7,4.1-4.2,7.3-5.4c0,0,15.6-6.2,28,24.3
			c1.5,3.6,2.7,7.3,3.8,11.1c0.3,0.8,0.5,1.7,0.8,2.6C64.3,44.8,65,47.3,65.6,50z"/>
		<path id="Path_730" class="st4" d="M51.8,50c-0.5-2.3-4.9-21.9-17.9-30.8c-0.6-0.4-0.7-1.1-0.3-1.7c0.4-0.6,1.1-0.7,1.7-0.3
			c14.5,10,18.7,31.7,18.9,32.6c0,0.1,0,0.1,0,0.2L51.8,50z"/>
		<path id="Path_731" class="st5" d="M83.7,35.7c-3.8,4.5-7.8,8.7-12.1,12.6L69.8,50h-4.2c-0.3-1.3-0.6-2.5-0.9-3.8s-0.7-2.6-1-3.8
			c-0.3-0.9-0.5-1.7-0.8-2.6c-1.1-3.8-2.4-7.4-3.8-11.1C79.8-9,92.7,0.9,93.9,2L94,2c2.1,1.7,3.3,4.2,3.3,6.9
			C97.3,8.9,97.6,19,83.7,35.7z"/>
		<path id="Path_732" class="st4" d="M84.4,16.3L64.3,42c-0.2,0.2-0.4,0.3-0.6,0.4c-0.3-0.9-0.5-1.7-0.8-2.6l19.5-25
			c0.4-0.5,1.2-0.6,1.7-0.2S84.8,15.8,84.4,16.3C84.4,16.3,84.4,16.3,84.4,16.3L84.4,16.3z"/>
		<path id="Path_733" class="st5" d="M99.1,44.6L75.2,50h-5.4l1.8-1.6l26.9-6.2c0.7-0.2,1.3,0.2,1.5,0.9
			C100.2,43.8,99.8,44.4,99.1,44.6L99.1,44.6L99.1,44.6z"/>
	</g>
	<g id="divide_earth" transform="translate(988.525 723.6)">
		<path id="Path_734" class="st4" d="M603.4,2.4h-579c-0.7,0-1.2-0.5-1.2-1.2c0-0.7,0.5-1.2,1.2-1.2h579c0.7,0,1.2,0.5,1.2,1.2
			C604.6,1.9,604.1,2.4,603.4,2.4z"/>
		<path id="Path_735" class="st4" d="M16.7,2.4h-5.4c-0.7,0-1.2-0.5-1.2-1.2C10,0.5,10.6,0,11.2,0h5.4c0.7,0,1.2,0.5,1.2,1.2
			C17.9,1.9,17.3,2.4,16.7,2.4z"/>
		<path id="Path_736" class="st4" d="M3.9,2.4H1.2C0.5,2.4,0,1.9,0,1.2C0,0.5,0.5,0,1.2,0h2.7c0.7,0,1.2,0.5,1.2,1.2
			C5.1,1.9,4.6,2.4,3.9,2.4z"/>
	</g>
	<g id="Chat_1" transform="translate(1202.493 518.398)">
		<path id="Path_737" class="st1" d="M0,45.3V8.4C0,3.8,3.8,0,8.4,0h139.2c4.6,0,8.4,3.8,8.4,8.4v19.2c0,4.6-3.8,8.4-8.4,8.4H10.7
			L0,45.3z"/>
		<path id="Path_738" class="st1" d="M17.7,12.2L17.7,12.2c0-1.3,1.1-2.4,2.4-2.4h91.2c1.3,0,2.4,1.1,2.4,2.4l0,0
			c0,1.3-1.1,2.4-2.4,2.4H20.1C18.8,14.6,17.7,13.5,17.7,12.2z M20.1,27h115.2c1.3,0,2.4-1.1,2.4-2.4l0,0c0-1.3-1.1-2.4-2.4-2.4
			H20.1c-1.3,0-2.4,1.1-2.4,2.4l0,0C17.7,25.9,18.8,27,20.1,27C20.1,27,20.1,27,20.1,27L20.1,27z"/>
	</g>
	<g id="Chat_1-2" transform="translate(1207.431 514.05)">
		<path id="Path_739" class="st7" d="M0,45.3V8.4C0,3.8,3.8,0,8.4,0h139.2c4.6,0,8.4,3.8,8.4,8.4v19.2c0,4.6-3.8,8.4-8.4,8.4h-137
			L0,45.3z"/>
		<path id="Path_740" class="st5" d="M17.7,12.2L17.7,12.2c0-1.3,1.1-2.4,2.4-2.4h91.2c1.3,0,2.4,1.1,2.4,2.4l0,0
			c0,1.3-1.1,2.4-2.4,2.4H20.1C18.8,14.6,17.7,13.5,17.7,12.2z M20.1,27h115.2c1.3,0,2.4-1.1,2.4-2.4l0,0c0-1.3-1.1-2.4-2.4-2.4
			H20.1c-1.3,0-2.4,1.1-2.4,2.4l0,0C17.7,25.9,18.8,27,20.1,27C20.1,27,20.1,27,20.1,27L20.1,27z"/>
	</g>
	<g id="Description" transform="translate(1202.614 636.993)">
		<path id="Path_741" class="st4" d="M0,69.6V8.4C0,3.8,3.8,0,8.4,0h175.2c4.6,0,8.4,3.8,8.4,8.4v61.2c0,4.6-3.8,8.4-8.4,8.4H8.4
			C3.8,78,0,74.2,0,69.6z"/>
		<path id="Path_742" class="st4" d="M127.2,14.9H64.8c-1.3,0-2.4-1.1-2.4-2.4l0,0c0-1.3,1.1-2.4,2.4-2.4h62.4
			c1.3,0,2.4,1.1,2.4,2.4l0,0C129.6,13.9,128.5,14.9,127.2,14.9z M180.6,26L180.6,26c0-1-0.8-1.8-1.8-1.8H13.2
			c-1,0.1-1.7,0.8-1.7,1.8l0,0c0,1,0.8,1.8,1.8,1.8h165.6C179.8,27.8,180.6,27,180.6,26L180.6,26z M180.6,39.3L180.6,39.3
			c0-1-0.8-1.8-1.8-1.8H13.2c-1,0-1.8,0.8-1.8,1.8l0,0c0,1,0.8,1.8,1.8,1.8h165.6C179.8,41.1,180.6,40.3,180.6,39.3L180.6,39.3z
			 M180.6,52.7L180.6,52.7c0-1-0.8-1.8-1.8-1.8H13.2c-1,0-1.8,0.8-1.8,1.8l0,0c0,1,0.8,1.8,1.8,1.8h165.6
			C179.8,54.5,180.6,53.7,180.6,52.7L180.6,52.7z M180.6,66L180.6,66c0-1-0.8-1.8-1.8-1.8H13.2c-1,0-1.8,0.8-1.8,1.8l0,0
			c0,1,0.8,1.8,1.8,1.8h165.6C179.8,67.8,180.6,67,180.6,66L180.6,66z"/>
	</g>
	<g id="Description-2" transform="translate(1207.408 631.797)">
		<path id="Path_743" class="st6" d="M0,69.6V8.4C0,3.8,3.8,0,8.4,0h175.2c4.6,0,8.4,3.8,8.4,8.4v61.2c0,4.6-3.8,8.4-8.4,8.4H8.4
			C3.8,78,0,74.2,0,69.6z"/>
		<path id="Path_744" class="st7" d="M127.2,14.9H64.8c-1.3,0-2.4-1.1-2.4-2.4l0,0c0-1.3,1.1-2.4,2.4-2.4h62.4
			c1.3,0,2.4,1.1,2.4,2.4l0,0C129.6,13.9,128.5,14.9,127.2,14.9z M180.6,26L180.6,26c0-1-0.8-1.8-1.8-1.8H13.2c-1,0-1.8,0.8-1.8,1.8
			l0,0l0,0c0,1,0.8,1.8,1.8,1.8h165.6C179.8,27.8,180.6,27,180.6,26L180.6,26z M180.6,39.3L180.6,39.3c0-1-0.8-1.8-1.8-1.8H13.2
			c-1,0-1.8,0.8-1.8,1.8l0,0c0,1,0.8,1.8,1.8,1.8h165.6C179.8,41.1,180.6,40.3,180.6,39.3L180.6,39.3z M180.6,52.7L180.6,52.7
			c0-1-0.8-1.8-1.8-1.8H13.2c-1,0-1.8,0.8-1.8,1.8l0,0c0,1,0.8,1.8,1.8,1.8h165.6C179.8,54.5,180.6,53.7,180.6,52.7L180.6,52.7z
			 M180.6,66L180.6,66c0-1-0.8-1.8-1.8-1.8H13.2c-1,0.1-1.7,0.9-1.7,1.8l0,0c0,1,0.8,1.8,1.8,1.8h165.6
			C179.8,67.7,180.6,67,180.6,66L180.6,66z"/>
	</g>
	<g id="Chat_2" transform="translate(1230.222 566.381)">
		<path id="Path_745" class="st6" d="M116.5,36H8.4C3.8,36,0,32.2,0,27.6V8.4C0,3.8,3.8,0,8.4,0h110.4c4.6,0,8.4,3.8,8.4,8.4v36.9
			L116.5,36z"/>
		<path id="Path_746" class="st6" d="M83.7,14.3H21.3c-1.3,0-2.4-1.1-2.4-2.4l0,0c0-1.3,1.1-2.4,2.4-2.4h62.4c1.3,0,2.4,1.1,2.4,2.4
			l0,0C86.1,13.2,85,14.3,83.7,14.3z M110.1,24.3L110.1,24.3c0-1.3-1.1-2.4-2.4-2.4H21.3c-1.3,0-2.4,1.1-2.4,2.4l0,0
			c0,1.3,1.1,2.4,2.4,2.4h86.4C109,26.7,110.1,25.6,110.1,24.3C110.1,24.3,110.1,24.3,110.1,24.3L110.1,24.3z"/>
	</g>
	<g id="Chat_2-2" transform="translate(1235.016 561.973)">
		<path id="Path_747" class="st5" d="M116.5,36H8.4C3.8,36,0,32.2,0,27.6V8.4C0,3.8,3.8,0,8.4,0h110.4c4.6,0,8.4,3.8,8.4,8.4v36.9
			L116.5,36z"/>
		<path id="Path_748" class="st4" d="M83.7,14.2H21.3c-1.3,0-2.4-1.1-2.4-2.4l0,0c0-1.3,1.1-2.4,2.4-2.4h62.4c1.3,0,2.4,1.1,2.4,2.4
			l0,0C86.1,13.2,85,14.2,83.7,14.2z M110.1,24.3L110.1,24.3c0-1.3-1.1-2.4-2.4-2.4H21.3c-1.3,0-2.4,1.1-2.4,2.4l0,0
			c0,1.3,1.1,2.4,2.4,2.4h86.4C109,26.7,110.1,25.6,110.1,24.3C110.1,24.3,110.1,24.3,110.1,24.3L110.1,24.3z"/>
	</g>
	<g id="Calender" transform="translate(1039.731 573.823)">
		<path id="Path_749" class="st6" d="M0,113.5V22.3c0-4.6,3.8-8.4,8.4-8.4h103.2c4.6,0,8.4,3.8,8.4,8.4v91.2c0,4.6-3.8,8.4-8.4,8.4
			H8.4C3.8,121.9,0,118.2,0,113.5z"/>
		<path id="Path_750" class="st4" d="M8.4,13.9h103.2c4.6,0,8.4,3.8,8.4,8.4v21.6H0V22.3C0,17.7,3.8,13.9,8.4,13.9z"/>
		<path id="Path_751" class="st6" d="M85.3,27V3c0-1.7,1.3-3,3-3l0,0c1.7,0,3,1.3,3,3v24c0,1.7-1.3,3-3,3l0,0
			C86.6,30,85.3,28.7,85.3,27z M28.7,27V3c0-1.7,1.3-3,3-3l0,0c1.7,0,3,1.3,3,3c0,0,0,0,0,0v24c0,1.7-1.3,3-3,3c0,0,0,0,0,0l0,0
			C30.1,30,28.7,28.7,28.7,27z"/>
		<path id="Path_752" class="st1" d="M9,66.4V53.2c0-1.3,1.1-2.4,2.4-2.4h13.2c1.3,0,2.4,1.1,2.4,2.4v13.2c0,1.3-1.1,2.4-2.4,2.4
			H11.4C10.1,68.8,9,67.7,9,66.4z M39.4,68.8h13.2c1.3,0,2.4-1.1,2.4-2.4V53.2c0-1.3-1.1-2.4-2.4-2.4H39.4c-1.3,0-2.4,1.1-2.4,2.4
			v13.2C37,67.7,38.1,68.8,39.4,68.8L39.4,68.8z M67.4,68.8h13.2c1.3,0,2.4-1.1,2.4-2.4V53.2c0-1.3-1.1-2.4-2.4-2.4H67.4
			c-1.3,0-2.4,1.1-2.4,2.4v13.2C65,67.7,66.1,68.8,67.4,68.8L67.4,68.8z M95.4,68.8h13.2c1.3,0,2.4-1.1,2.4-2.4V53.2
			c0-1.3-1.1-2.4-2.4-2.4H95.4c-1.3,0-2.4,1.1-2.4,2.4v13.2C93,67.7,94.1,68.8,95.4,68.8L95.4,68.8z M9,89.4V76.2
			c0-1.3,1.1-2.4,2.4-2.4h13.2c1.3,0,2.4,1.1,2.4,2.4v13.2c0,1.3-1.1,2.4-2.4,2.4H11.4C10.1,91.8,9,90.7,9,89.4L9,89.4z M39.4,91.8
			h13.2c1.3,0,2.4-1.1,2.4-2.4V76.2c0-1.3-1.1-2.4-2.4-2.4H39.4c-1.3,0-2.4,1.1-2.4,2.4v13.2C37,90.7,38.1,91.8,39.4,91.8z
			 M67.4,91.8h13.2c1.3,0,2.4-1.1,2.4-2.4V76.2c0-1.3-1.1-2.4-2.4-2.4H67.4c-1.3,0-2.4,1.1-2.4,2.4v13.2
			C65,90.7,66.1,91.8,67.4,91.8L67.4,91.8z M95.4,91.8h13.2c1.3,0,2.4-1.1,2.4-2.4V76.2c0-1.3-1.1-2.4-2.4-2.4H95.4
			c-1.3,0-2.4,1.1-2.4,2.4v13.2C93,90.7,94.1,91.8,95.4,91.8L95.4,91.8z M9,112.4V99.2c0-1.3,1.1-2.4,2.4-2.4h13.2
			c1.3,0,2.4,1.1,2.4,2.4v13.2c0,1.3-1.1,2.4-2.4,2.4H11.4C10.1,114.8,9,113.7,9,112.4z M39.4,114.8h13.2c1.3,0,2.4-1.1,2.4-2.4
			V99.2c0-1.3-1.1-2.4-2.4-2.4H39.4c-1.3,0-2.4,1.1-2.4,2.4v13.2C37,113.7,38.1,114.8,39.4,114.8z M67.4,114.8h13.2
			c1.3,0,2.4-1.1,2.4-2.4V99.2c0-1.3-1.1-2.4-2.4-2.4H67.4c-1.3,0-2.4,1.1-2.4,2.4v13.2C65,113.7,66.1,114.8,67.4,114.8L67.4,114.8z
			 M95.4,114.8h13.2c1.3,0,2.4-1.1,2.4-2.4V99.2c0-1.3-1.1-2.4-2.4-2.4H95.4c-1.3,0-2.4,1.1-2.4,2.4v13.2
			C93,113.7,94.1,114.8,95.4,114.8L95.4,114.8z"/>
	</g>
	<g id="Attach_tick" transform="translate(1129.845 571.066)">
		<path id="Path_753" class="st1" d="M27,0c14.9,0,27,12.1,27,27S41.9,54,27,54S0,41.9,0,27S12.1,0,27,0L27,0z"/>
		<path id="Path_754" class="st6" d="M27,38.1c-0.8,0-1.5-0.3-2.1-0.8L12.9,26c-1.3-1.1-1.4-3-0.3-4.2c1.1-1.3,3-1.4,4.2-0.3
			c0.1,0.1,0.1,0.1,0.2,0.2l10,9.5L57,5c1.2-1.1,3.1-1,4.2,0.3c1.1,1.2,1,3.1-0.3,4.2l0,0L29,37.4C28.4,37.9,27.7,38.1,27,38.1
			L27,38.1z"/>
	</g>
	<g id="Pencil" transform="translate(1375.888 494.546)">
		<path id="Path_758" class="st5" d="M79.8,22.6L67.8,8l7.1-5.9c4-3.3,10-2.8,13.3,1.3c0,0,0,0,0,0l0,0c3.3,4,2.8,9.9-1.2,13.3
			L79.8,22.6z"/>
		<path id="Path_759" class="st6" d="M63,12l12,14.6L22.3,70l-12-14.6L63,12z"/>
		<path id="Path_760" class="st4" d="M67.6,7.8l12.3,14.9c0.3,0.4,0.2,0.9-0.1,1.2c0,0,0,0,0,0l-3.4,2.8c-0.4,0.3-0.9,0.3-1.2-0.1
			l-12.3-15c-0.3-0.4-0.2-0.9,0.1-1.2c0,0,0,0,0,0l3.5-2.8C66.8,7.4,67.3,7.5,67.6,7.8C67.6,7.8,67.6,7.8,67.6,7.8L67.6,7.8z"/>
		<path id="Path_761" class="st1" d="M22.4,70L8.2,74.6l-5-6l7.1-13.1L22.4,70z"/>
		<path id="Path_762" class="st4" d="M8.2,74.6l-6.3,1.9c-0.8,0.2-1.6-0.2-1.8-1C0,75.1,0,74.7,0.2,74.4l3-5.9L8.2,74.6z"/>
		<path id="Path_763" class="st4" d="M64.6,14l1.5,1.8L13.5,59.3L12,57.5L64.6,14z M15.6,61.8l1.5,1.8l52.7-43.5l-1.5-1.9L15.6,61.8
			z M19.2,66.2l1.5,1.9l52.6-43.5l-1.5-1.8L19.2,66.2z"/>
	</g>
	<g id="Manager_Avatar" transform="translate(1535.997 530.466)">
		<path id="Path_764" class="st5" d="M0,82c0-26.5,18.8-48,42-48s42,21.5,42,48H0z"/>
		<path id="Path_765" class="st4" d="M49.7,73L42,79.8L34.3,73l4.7-25h0.3c-0.6,0-1.1-0.4-1.4-0.9l-2-5c-0.3-0.8,0.1-1.6,0.8-1.9
			c0.2-0.1,0.4-0.1,0.5-0.1h9.2c0.8,0,1.5,0.6,1.5,1.5c0,0.2,0,0.3-0.1,0.5l-1.7,5c-0.2,0.6-0.8,1-1.4,1H45L49.7,73z"/>
		<path id="Path_766" class="st1" d="M63,21c0,11.6-9.4,21-21,20.9c-8.9,0-16.8-5.7-19.8-14.1c13.6-2.3,23.9-13.5,25.1-27.2
			C56.5,3.1,63,11.4,63,21z"/>
		<path id="Path_767" class="st4" d="M22.2,27.9C18.4,17,24.1,5,35,1.2C37.3,0.4,39.6,0,42,0c1.8,0,3.5,0.2,5.3,0.7
			C46.1,14.4,35.8,25.6,22.2,27.9L22.2,27.9z"/>
	</g>
</g>
</svg>
