<?xml version="1.0" encoding="utf-8"?>
<!-- Generator: Adobe Illustrator 22.1.0, SVG Export Plug-In . SVG Version: 6.00 Build 0)  -->
<svg version="1.1" id="Capa_1" xmlns="http://www.w3.org/2000/svg" xmlns:xlink="http://www.w3.org/1999/xlink" x="0px" y="0px"
	 viewBox="0 0 40 40" style="enable-background:new 0 0 40 40;" xml:space="preserve" fill="#000">
<g>
	<path d="M40,20c0-0.7-0.2-1.5-0.7-1.9c-0.4-0.4-1-0.7-1.5-0.7h-1.6V14c0-1.3-1.1-2.4-2.4-2.4h-0.2V0H6.5v1.3h-2v1.3H2.6v4.5H2.4
		C1.1,7.1,0,8.2,0,9.5v28.2c0,0.6,0.2,1.1,0.4,1.4l0.1,0.1C0.9,39.7,1.6,40,2.3,40h28.9c1.1,0,2-0.7,2.2-1.6L40,20.2V20z M2.6,30.2
		V9.7V30.2L2.6,30.2z M9,17.4V2.6h22v14.8H9z M33.6,17.4v-3.2V17.4L33.6,17.4z M31.1,37.4H2.7l5-13.7l1.2-3.4L9.1,20h28.3L31.1,37.4
		z M29.1,11c0,0.7-0.5,1.3-1.3,1.3H12.3c-0.7,0-1.3-0.5-1.3-1.3c0-0.7,0.5-1.3,1.3-1.3h15.5C28.5,9.7,29.1,10.2,29.1,11z M12.3,7.7
		h6.5c0.7,0,1.3-0.5,1.3-1.3s-0.5-1.3-1.3-1.3h-6.5c-0.7,0-1.3,0.5-1.3,1.3S11.5,7.7,12.3,7.7z M27.8,14.2H12.3
		c-0.7,0-1.3,0.5-1.3,1.3c0,0.8,0.5,1.3,1.3,1.3h15.5c0.7,0,1.3-0.5,1.3-1.3S28.5,14.2,27.8,14.2z"/>
</g>
</svg>
