<?xml version="1.0" encoding="utf-8"?>
<!-- Generator: Adobe Illustrator 22.1.0, SVG Export Plug-In . SVG Version: 6.00 Build 0)  -->
<svg version="1.1" id="Layer_1" xmlns="http://www.w3.org/2000/svg" xmlns:xlink="http://www.w3.org/1999/xlink" x="0px" y="0px"
	 viewBox="0 0 30 30" style="enable-background:new 0 0 30 30;" xml:space="preserve">
<style type="text/css">
	.st0{fill:none;}
	.st1{fill:#FFFFFF;}
</style>
<g id="project-icon" transform="translate(-20 -214)">
	<path class="st0" d="M20,214h30v30H20V214z"/>
	<path id="Union_6" class="st1" d="M26.2,239c-0.3,0-0.7-0.1-0.9-0.4l-0.1-0.1c-0.1-0.2-0.2-0.5-0.2-0.7v-14.1
		c0-0.7,0.5-1.2,1.2-1.2h0.1v-2.3h0.9v-0.6h1V219h13.6v5.8h0.1c0.7,0,1.2,0.5,1.2,1.2v1.7h0.8c0.3,0,0.6,0.1,0.8,0.4
		c0.2,0.3,0.4,0.6,0.3,0.9v0.1l-3.3,9.1c-0.1,0.5-0.6,0.8-1.1,0.8L26.2,239z M29.5,229.1l-0.6,1.7l-2.5,6.9h14.2l3.1-8.7H29.6
		L29.5,229.1z M26.3,234.1L26.3,234.1z M41.8,227.7L41.8,227.7z M29.5,227.7h11v-7.4h-11V227.7z M31.2,227.4c-0.3,0-0.6-0.2-0.7-0.5
		c0,0,0-0.1,0-0.1c0-0.3,0.3-0.6,0.6-0.6c0,0,0,0,0,0h7.7c0.4,0,0.7,0.3,0.7,0.6s-0.3,0.7-0.6,0.7c0,0,0,0,0,0H31.2z M31.2,225.1
		c-0.4,0-0.6-0.3-0.6-0.7c0-0.4,0.3-0.6,0.6-0.6h7.7c0.4,0,0.6,0.3,0.6,0.7c0,0.4-0.3,0.6-0.6,0.6H31.2z M31.2,222.8
		c-0.3,0-0.6-0.2-0.7-0.5c0,0,0-0.1,0-0.1c0-0.3,0.3-0.6,0.6-0.7c0,0,0,0,0,0h3.3c0.3,0,0.6,0.2,0.7,0.5c0,0,0,0.1,0,0.1
		c0,0.3-0.3,0.6-0.6,0.6c0,0,0,0,0,0H31.2z"/>
</g>
</svg>
