<?xml version="1.0" encoding="utf-8"?>
<!-- Generator: Adobe Illustrator 22.1.0, SVG Export Plug-In . SVG Version: 6.00 Build 0)  -->
<svg version="1.1" id="Capa_1" xmlns="http://www.w3.org/2000/svg" xmlns:xlink="http://www.w3.org/1999/xlink" x="0px" y="0px"
	 viewBox="0 0 15 16" style="enable-background:new 0 0 15 16;" xml:space="preserve">
<g>
	<path d="M1.1,9.4C1.1,9.6,1,9.9,0.8,9.9c0,0-0.1,0-0.1,0c-0.2,0-0.4-0.1-0.4-0.3C-0.4,7,0.4,4.3,2.4,2.5c1.5-1.3,3.4-2,5.4-1.9
		c1.6,0.1,3.1,0.6,4.3,1.6l-0.1-1.8C12,0.2,12.2,0,12.5,0c0.2,0,0.5,0.2,0.5,0.4l0.1,2.9v0c0,0,0,0,0,0v0c0,0.2-0.2,0.4-0.4,0.4
		l-3,0.1c0,0,0,0,0,0c-0.2,0-0.4-0.2-0.5-0.4C9.2,3.2,9.4,3,9.6,3L11.6,3C9.1,1,5.5,1,3.1,3.2C1.3,4.7,0.5,7.1,1.1,9.4z M14.8,6.4
		c-0.1-0.2-0.3-0.4-0.5-0.3c-0.2,0.1-0.4,0.3-0.3,0.5c0.6,2.3-0.2,4.7-2,6.2c-1.2,1.1-2.8,1.6-4.4,1.6c-1.5,0-3-0.5-4.2-1.5l2-0.2
		c0.2,0,0.4-0.2,0.4-0.5c0-0.2-0.2-0.4-0.5-0.4l-3,0.3c-0.2,0-0.4,0.2-0.4,0.5l0.3,2.9c0,0.2,0.2,0.4,0.4,0.4c0,0,0,0,0,0
		c0.2,0,0.4-0.2,0.4-0.5l-0.2-1.8c1.2,1,2.7,1.5,4.3,1.6c0.1,0,0.3,0,0.4,0c1.8,0,3.6-0.7,5-1.9C14.6,11.7,15.4,9,14.8,6.4z"/>
</g>
</svg>
