<svg id="Layer_1" data-name="Layer 1" xmlns="http://www.w3.org/2000/svg" viewBox="0 0 12 10"><title>ResourceIconDevice</title><path d="M11.18,1H.82A.8.8,0,0,0,0,1.77V8.43a.8.8,0,0,0,.82.77H4.25v.37a.7.7,0,0,1-.74.68H2.74a.37.37,0,1,0,0,.75H9.26a.37.37,0,1,0,0-.75H8.49a.7.7,0,0,1-.74-.68V9.21h3.42A.8.8,0,0,0,12,8.43V1.77A.8.8,0,0,0,11.18,1Zm-4,9.25H4.85A1.36,1.36,0,0,0,5,9.58V9.21H7v.37A1.36,1.36,0,0,0,7.15,10.25Zm4.07-1.82a0,0,0,0,1,0,0H.82a0,0,0,0,1,0,0V7.22H11.22Zm0-2H.78V1.77a0,0,0,0,1,0,0H11.18a0,0,0,0,1,0,0Z" transform="translate(0 -1)"/><path d="M6,7.45a.38.38,0,1,1-.37.38A.38.38,0,0,1,6,7.45Z" transform="translate(0 -1)"/><path d="M6.59,2.8a.28.28,0,0,0-.39,0l-2,2a.28.28,0,0,0,.39.39l2-2A.28.28,0,0,0,6.59,2.8ZM7.75,3.93a.28.28,0,0,0-.39,0l-.78.78A.28.28,0,1,0,7,5.1l.78-.78A.28.28,0,0,0,7.75,3.93Z" transform="translate(0 -1)"/></svg>