<?xml version="1.0" encoding="utf-8"?>
<!-- Generator: Adobe Illustrator 21.1.0, SVG Export Plug-In . SVG Version: 6.00 Build 0)  -->
<svg version="1.1" id="Layer_1" xmlns="http://www.w3.org/2000/svg" xmlns:xlink="http://www.w3.org/1999/xlink" x="0px" y="0px"
	 viewBox="0 0 16 16" style="enable-background:new 0 0 16 16;" xml:space="preserve">
<style type="text/css">
	.st0{fill:#232323;}
	.st1{fill:#FFFFFF;}
</style>
<g id="Resource_Icon_Device_Group" transform="translate(9525 1652)">
	<path class="st0" d="M-9521-1652h8c2.2,0,4,1.8,4,4v8c0,2.2-1.8,4-4,4h-8c-2.2,0-4-1.8-4-4v-8C-9525-1650.2-9523.2-1652-9521-1652z
		"/>
	<path id="ResourceIconDevice" transform="translate(3.2 4)" class="st1" d="M-9516.1-1652h-8.3c-0.4,0-0.6,0.3-0.7,0.6v5.3
		c0,0.4,0.3,0.6,0.7,0.6h2.7v0.3c0,0.3-0.3,0.6-0.6,0.5c0,0,0,0,0,0h-0.6c-0.2,0-0.3,0.1-0.3,0.3s0.1,0.3,0.3,0.3h5.2
		c0.2,0,0.3-0.1,0.3-0.3s-0.1-0.3-0.3-0.3h-0.6c-0.3,0-0.6-0.2-0.6-0.5c0,0,0,0,0,0v-0.3h2.7c0.4,0,0.7-0.3,0.7-0.6c0,0,0,0,0,0
		v-5.3C-9515.4-1651.7-9515.7-1652-9516.1-1652z M-9519.3-1644.6h-1.9c0.1-0.2,0.1-0.3,0.1-0.5v-0.3h1.6v0.3
		C-9519.4-1644.9-9519.4-1644.8-9519.3-1644.6L-9519.3-1644.6z M-9516-1646.1h-8.3v-1h8.3L-9516-1646.1z M-9516-1647.7h-8.4v-3.7
		h8.3L-9516-1647.7z M-9520.2-1646.8c0.2,0,0.3,0.1,0.3,0.3c0,0.2-0.1,0.3-0.3,0.3c-0.2,0-0.3-0.1-0.3-0.3
		C-9520.5-1646.7-9520.4-1646.8-9520.2-1646.8L-9520.2-1646.8z M-9519.7-1650.6c-0.1-0.1-0.2-0.1-0.3,0l-1.6,1.6
		c-0.1,0.1-0.1,0.2,0,0.3c0.1,0.1,0.2,0.1,0.3,0l1.6-1.6C-9519.6-1650.3-9519.6-1650.5-9519.7-1650.6z M-9518.8-1649.7
		c-0.1-0.1-0.2-0.1-0.3,0l-0.6,0.6c-0.1,0.1-0.1,0.2,0,0.3c0.1,0.1,0.2,0.1,0.3,0l0.6-0.6
		C-9518.7-1649.4-9518.7-1649.6-9518.8-1649.7L-9518.8-1649.7z"/>
</g>
</svg>
