<?xml version="1.0" encoding="utf-8"?>
<!-- Generator: Adobe Illustrator 22.1.0, SVG Export Plug-In . SVG Version: 6.00 Build 0)  -->
<svg version="1.1" id="Layer_1" xmlns="http://www.w3.org/2000/svg" xmlns:xlink="http://www.w3.org/1999/xlink" x="0px" y="0px"
	 viewBox="0 0 6 10" style="enable-background:new 0 0 6 10;" xml:space="preserve">
<g>
	<path d="M6,4.9c0,0.2,0,0.4-0.2,0.5L5.8,5.6L1.3,9.8C1.1,9.9,1,10,0.8,10c-0.2,0-0.4-0.1-0.5-0.2c-0.3-0.3-0.3-0.7-0.1-1.1l0.1-0.1
		L4.1,5L0.2,1.3C0.1,1.2,0,1,0,0.8c0-0.2,0.1-0.4,0.2-0.6c0.3-0.3,0.7-0.3,1,0l4.5,4.2C5.9,4.6,6,4.8,6,4.9z"/>
</g>
</svg>
