<?xml version="1.0" encoding="utf-8"?>
<!-- Generator: Adobe Illustrator 22.1.0, SVG Export Plug-In . SVG Version: 6.00 Build 0)  -->
<svg version="1.1" id="Layer_1" xmlns="http://www.w3.org/2000/svg" xmlns:xlink="http://www.w3.org/1999/xlink" x="0px" y="0px"
	 viewBox="0 0 14 24" style="enable-background:new 0 0 14 24;" xml:space="preserve">
<g>
	<path d="M1.9,24c-0.4,0-0.9-0.2-1.2-0.5c-0.7-0.6-0.7-1.6-0.1-2.3c0,0,0,0,0,0l0.1-0.1L9.6,12L0.5,2.9c-0.7-0.6-0.7-1.6-0.1-2.3
		c0,0,0,0,0,0l0.1-0.1c0.7-0.7,1.8-0.7,2.5,0c0,0,0,0,0,0l0,0l10.5,10.3c0.6,0.7,0.6,1.7,0,2.4L3.1,23.5C2.8,23.8,2.4,24,1.9,24z"/>
</g>
</svg>
