<?xml version="1.0" encoding="utf-8"?>
<!-- Generator: Adobe Illustrator 22.1.0, SVG Export Plug-In . SVG Version: 6.00 Build 0)  -->
<svg version="1.1" id="Layer_1" xmlns="http://www.w3.org/2000/svg" xmlns:xlink="http://www.w3.org/1999/xlink" x="0px" y="0px"
	 viewBox="0 0 30 30" style="enable-background:new 0 0 30 30;" xml:space="preserve">
<style type="text/css">
	.st0{fill:none;}
</style>
<g>
	<path class="st0" d="M0,0h30v30H0V0z"/>
	<path d="M10.6,21.4L7,25H5v-1.9l3.7-3.6L10.6,21.4z M6.7,17.5L5,19.1v1.9l3.4-3.3L6.7,17.5z M25,5v0.6c0,2.6-2.4,9.1-7,12.6
		l-0.5,2.6l-4,4l-0.9-4.4c-1.1,0-1.4-0.1-2.2-0.9c-0.8-0.8-0.9-1-0.9-2.2l-4.4-0.9l4-4l2.6-0.5c3.5-4.6,10.1-7,12.7-7H25z M23.6,6.3
		c-2.7,0.4-8.2,2.7-11.1,6.6l-0.1,0.2l-2.7,0.5l-2,2l3.1,0.6v0.5c0,1.2,0,1.2,0.6,1.8c0.6,0.6,0.6,0.6,1.8,0.6h0.5l0.6,3l2-2
		l0.5-2.7l0.2-0.1C21,14.4,23.3,9,23.6,6.3z M9,25h2l1.7-1.7l-0.2-1.7L9,25z M14.9,12.8c0-1.2,1-2.2,2.2-2.2c1.2,0,2.2,1,2.2,2.2
		s-1,2.2-2.2,2.2C15.9,15,14.9,14,14.9,12.8z M16.2,12.8c0,0.5,0.4,0.9,0.9,0.9c0.5,0,0.9-0.4,0.9-0.9c0-0.5-0.4-0.9-0.9-0.9
		C16.6,11.8,16.2,12.3,16.2,12.8z"/>
</g>
</svg>
