<?xml version="1.0" encoding="utf-8"?>
<!-- Generator: Adobe Illustrator 22.1.0, SVG Export Plug-In . SVG Version: 6.00 Build 0)  -->
<svg version="1.1" id="Layer_1" xmlns="http://www.w3.org/2000/svg" xmlns:xlink="http://www.w3.org/1999/xlink" x="0px" y="0px"
	 viewBox="0 0 20 20" style="enable-background:new 0 0 20 20;" xml:space="preserve">
<g>
	<path d="M5.6,16.4L2,20H0v-1.9l3.7-3.6L5.6,16.4z M1.7,12.5L0,14.1V16l3.4-3.3L1.7,12.5z M20,0.1v0.6c0,2.6-2.4,9.1-7,12.5
		l-0.5,2.6l-4,4l-0.9-4.4c-1.1,0-1.4-0.1-2.2-0.9s-0.9-1-0.9-2.2l-4.4-0.9l4-4L6.7,7c3.5-4.6,10.1-7,12.7-7L20,0.1L20,0.1z
		 M18.6,1.4C15.9,1.8,10.4,4.1,7.5,8L7.4,8.2L4.7,8.7l-2,2l3.1,0.6v0.5c0,1.2,0,1.2,0.6,1.8C7,14.1,7,14.1,8.2,14.1h0.5l0.6,3l2-2
		l0.5-2.7l0.2-0.1C16,9.5,18.3,4.1,18.6,1.4z M4,20h2l1.7-1.7l-0.2-1.7L4,20z M9.9,7.9c0-1.2,1-2.2,2.2-2.2s2.2,1,2.2,2.2
		s-1,2.2-2.2,2.2S9.9,9.1,9.9,7.9z M11.2,7.9c0,0.5,0.4,0.9,0.9,0.9S13,8.4,13,7.9S12.6,7,12.1,7C11.6,6.9,11.2,7.4,11.2,7.9z"/>
</g>
</svg>
