<?xml version="1.0" encoding="utf-8"?>
<!-- Generator: Adobe Illustrator 22.1.0, SVG Export Plug-In . SVG Version: 6.00 Build 0)  -->
<svg version="1.1" id="Layer_1" xmlns="http://www.w3.org/2000/svg" xmlns:xlink="http://www.w3.org/1999/xlink" x="0px" y="0px"
	 viewBox="0 0 30 30" style="enable-background:new 0 0 30 30;" xml:space="preserve">
<style type="text/css">
	.st0{fill:none;}
	.st1{fill:#FFFFFF;}
</style>
<g id="release" transform="translate(-20 -274)">
	<g id="release-2" transform="translate(0 37)">
		<g id="rocket" transform="translate(20 237)">
			<g id="Group_679" transform="translate(0 0.1)">
				<path class="st0" d="M0-0.1h30v30H0V-0.1z"/>
				<path class="st1" d="M8.1,19.7l-4.1,4v2.2h2.2l4-4.1L8.1,19.7z M4,19.5v2.1l3.7-3.6l-1.9-0.3L4,19.5z M25.3,3.9
					c-2.9,0-10,2.6-14,7.6l-2.9,0.5l-4.4,4.4l4.8,1c-0.1,0.9,0.3,1.8,1,2.4c0.6,0.7,1.5,1.1,2.4,1l1,4.8l4.4-4.4l0.5-2.8
					c5.1-3.8,7.7-11,7.7-13.8V3.9H25.3z M17.2,17.4L17,17.5l-0.6,2.9l-2.2,2.2l-0.7-3.4H13c-1.3,0-1.3,0-2-0.7
					c-0.7-0.7-0.7-0.7-0.7-2v-0.5L7,15.4l2.2-2.2l3-0.5l0.1-0.2c3.1-3.7,7.4-6.3,12.2-7.2C23.6,10.1,21,14.4,17.2,17.4z M8.4,25.8
					h2.1l1.9-1.8L12,22.2L8.4,25.8z M17.4,14.9c1.3,0,2.4-1.1,2.4-2.4s-1.1-2.4-2.4-2.4c-1.3,0-2.4,1.1-2.4,2.4
					c-0.1,1.3,0.9,2.4,2.2,2.4C17.3,14.9,17.3,14.9,17.4,14.9z M17.4,11.4c0.5,0,1,0.4,1,1s-0.4,1-1,1c-0.5,0-1-0.4-1-1c0,0,0,0,0,0
					C16.3,11.9,16.8,11.4,17.4,11.4z"/>
			</g>
		</g>
	</g>
</g>
</svg>
