<?xml version="1.0" encoding="utf-8"?>
<!-- Generator: Adobe Illustrator 22.1.0, SVG Export Plug-In . SVG Version: 6.00 Build 0)  -->
<svg version="1.1" id="Layer_1" xmlns="http://www.w3.org/2000/svg" xmlns:xlink="http://www.w3.org/1999/xlink" x="0px" y="0px"
	 viewBox="0 0 24 24" style="enable-background:new 0 0 24 24;" xml:space="preserve">
<style type="text/css">
	.st0{fill:none;}
	.st1{fill:#FFFFFF;}
</style>
<g id="release" transform="translate(-20 -274)">
	<g id="release-2" transform="translate(0 37)">
		<g id="rocket" transform="translate(20 237)">
			<g id="Group_679" transform="translate(0 0.1)">
				<path class="st0" d="M0-0.1h24v24H0V-0.1z"/>
				<path class="st1" d="M5.1,16.7l-4.1,4v2.2h2.2l4-4.1L5.1,16.7z M1,16.5v2.1L4.7,15l-1.9-0.3L1,16.5z M22.3,0.9
					c-2.9,0-10,2.6-14,7.6L5.4,9L1,13.4l4.8,1c-0.1,0.9,0.3,1.8,1,2.4c0.6,0.7,1.5,1.1,2.4,1l1,4.8l4.4-4.4l0.5-2.8
					c5.1-3.8,7.7-11,7.7-13.8V0.9H22.3z M14.2,14.4L14,14.5l-0.6,2.9l-2.2,2.2l-0.7-3.4H10c-1.3,0-1.3,0-2-0.7s-0.7-0.7-0.7-2V13
					L4,12.4l2.2-2.2l3-0.5l0.1-0.2c3.1-3.7,7.4-6.3,12.2-7.2C20.6,7.1,18,11.4,14.2,14.4z M5.4,22.8h2.1L9.4,21L9,19.2L5.4,22.8z
					 M14.4,11.9c1.3,0,2.4-1.1,2.4-2.4s-1.1-2.4-2.4-2.4S12,8.2,12,9.5c-0.1,1.3,0.9,2.4,2.2,2.4C14.3,11.9,14.3,11.9,14.4,11.9z
					 M14.4,8.4c0.5,0,1,0.4,1,1s-0.4,1-1,1c-0.5,0-1-0.4-1-1l0,0C13.3,8.9,13.8,8.4,14.4,8.4z"/>
			</g>
		</g>
	</g>
</g>
</svg>
