<?xml version="1.0" encoding="utf-8"?>
<!-- Generator: Adobe Illustrator 22.1.0, SVG Export Plug-In . SVG Version: 6.00 Build 0)  -->
<svg version="1.1" id="Layer_1" xmlns="http://www.w3.org/2000/svg" xmlns:xlink="http://www.w3.org/1999/xlink" x="0px" y="0px"
	 viewBox="0 0 30 30" style="enable-background:new 0 0 30 30;" xml:space="preserve" fill="#000">
<title>SearchIcon</title>
<g>
	<path d="M12.1,3c5.1,0,9.1,4.1,9.1,9.1s-4.1,9.1-9.1,9.1S3,17.2,3,12.1c0,0,0,0,0,0C3,7.1,7.1,3,12.1,3 M12.1,0C5.4,0,0,5.4,0,12.1
		s5.4,12.1,12.1,12.1s12.1-5.4,12.1-12.1l0,0C24.3,5.4,18.9,0,12.1,0z M29.5,29.5c-0.6,0.6-1.6,0.6-2.2,0c0,0,0,0,0,0l-6.3-6
		c0.8-0.7,1.6-1.4,2.3-2.2l6.2,6C30.1,27.9,30.2,28.9,29.5,29.5z"/>
</g>
</svg>
