<?xml version="1.0" encoding="utf-8"?>
<!-- Generator: Adobe Illustrator 21.1.0, SVG Export Plug-In . SVG Version: 6.00 Build 0)  -->
<svg version="1.1" id="Layer_1" xmlns="http://www.w3.org/2000/svg" xmlns:xlink="http://www.w3.org/1999/xlink" x="0px" y="0px"
	 viewBox="0 0 16 16" style="enable-background:new 0 0 16 16;" xml:space="preserve">
<style type="text/css">
	.st0{fill:#BCBCCB;}
</style>
<path class="st0" d="M12.7,11.2c0.9-1.2,1.4-2.7,1.4-4.2c0-3.9-3.1-7-7-7.1l0,0C3.2,0,0,3.2,0,7.1s3.2,7.1,7.1,7.1
	c1.5,0,3-0.5,4.2-1.4l3,3c0.4,0.4,1,0.4,1.4,0l0,0c0.4-0.4,0.4-1,0-1.4l0,0L12.7,11.2z M7.1,12C4.3,12.1,2,9.9,2,7.1l0,0
	C2,4.2,4.3,2,7.1,2s5.1,2.3,5.1,5.1C12.2,9.8,9.9,12.1,7.1,12L7.1,12L7.1,12z"/>
</svg>
