<?xml version="1.0" encoding="utf-8"?>
<!-- Generator: Adobe Illustrator 22.1.0, SVG Export Plug-In . SVG Version: 6.00 Build 0)  -->
<svg version="1.1" id="Layer_1" xmlns="http://www.w3.org/2000/svg" xmlns:xlink="http://www.w3.org/1999/xlink" x="0px" y="0px"
	 viewBox="0 0 16 10" style="enable-background:new 0 0 16 10;" xml:space="preserve">
<style type="text/css">
	.st0{fill:#232323;}
</style>
<g>
	<path id="send-icon-tick" transform="translate(0.025)" class="st0" d="M15.8,0.5c-0.2-0.2-0.4-0.4-0.7-0.5c-0.3,0-0.6,0.1-0.8,0.2
		L7.6,5.5L5.9,6.8L5,7.6l-3.4-3L1.5,4.5c-0.4-0.3-1-0.2-1.3,0.2c-0.3,0.5-0.3,1,0,1.5l4.1,3.6C4.5,9.9,4.7,10,5,10
		c0.2,0,0.4-0.1,0.6-0.2l1.9-1.5L9.2,7l6.5-5.1C16,1.5,16.1,1,15.8,0.5z"/>
</g>
</svg>
