<?xml version="1.0" encoding="utf-8"?>
<!-- Generator: Adobe Illustrator 22.1.0, SVG Export Plug-In . SVG Version: 6.00 Build 0)  -->
<svg version="1.1" id="Layer_1" xmlns="http://www.w3.org/2000/svg" xmlns:xlink="http://www.w3.org/1999/xlink" x="0px" y="0px"
	 viewBox="0 0 24 22" style="enable-background:new 0 0 24 22;" xml:space="preserve" fill="#000">
<g>
	<path d="M22.6,8.7L3.2,0.2C2.4-0.2,1.5,0,0.8,0.6c-0.7,0.6-1,1.6-0.7,2.5l1.7,7.2h8.5c0.4,0,0.8,0.3,0.8,0.8s-0.3,0.8-0.8,0.8H1.8
		l-1.7,7.2c-0.2,0.9,0.1,1.8,0.7,2.5c0.7,0.6,1.6,0.8,2.4,0.4l19.3-8.5C23.5,12.9,24,12,24,11C24,10,23.5,9.1,22.6,8.7z"/>
</g>
</svg>
