<?xml version="1.0" encoding="utf-8"?>
<!-- Generator: Adobe Illustrator 22.1.0, SVG Export Plug-In . SVG Version: 6.00 Build 0)  -->
<svg version="1.1" id="Layer_1" xmlns="http://www.w3.org/2000/svg" xmlns:xlink="http://www.w3.org/1999/xlink" x="0px" y="0px"
	 viewBox="0 0 30 30" style="enable-background:new 0 0 30 30;" xml:space="preserve">
<style type="text/css">
	.st0{fill:none;}
	.st1{fill:#FFFFFF;}
</style>
<g id="settings" transform="translate(-30 -998)">
	<g id="setting" transform="translate(10 0)">
		<path class="st0" d="M20,998h30v30H20V998z"/>
		<path id="Union_5" class="st1" d="M34.1,1023c-0.6,0-1.1-0.4-1.2-1l-0.2-1.4c-0.5-0.1-0.9-0.3-1.3-0.5l-1.2,0.8
			c-0.2,0.2-0.5,0.2-0.7,0.2c-0.3,0-0.6-0.1-0.9-0.4l-1.2-1.2c-0.4-0.4-0.5-1.1-0.1-1.6l0.8-1.1c-0.2-0.4-0.4-0.9-0.6-1.4l-1.4-0.2
			c-0.6-0.1-1-0.6-1-1.2v-1.8c0-0.6,0.4-1.1,1-1.2l1.4-0.2c0.1-0.5,0.3-0.9,0.6-1.4l-0.8-1.2c-0.3-0.5-0.3-1.2,0.1-1.6l1.3-1.2
			c0.2-0.2,0.5-0.4,0.9-0.4c0.3,0,0.5,0.1,0.7,0.2l1.2,0.8c0.4-0.2,0.9-0.4,1.4-0.6l0.2-1.4c0.1-0.6,0.6-1,1.2-1h1.8
			c0.6,0,1.1,0.4,1.2,1l0.2,1.4c0.5,0.1,1,0.3,1.4,0.6l1.2-0.8c0.5-0.4,1.2-0.3,1.6,0.1l1.2,1.2c0.4,0.4,0.5,1.1,0.1,1.6l-0.8,1.2
			c0.2,0.4,0.4,0.9,0.6,1.4l1.4,0.2c0.6,0.1,1,0.6,1,1.2v1.8c0,0.6-0.4,1.1-1,1.2l-1.4,0.2c-0.1,0.5-0.3,0.9-0.6,1.4l0.8,1.2
			c0.3,0.5,0.3,1.2-0.1,1.6l-1.2,1.2c-0.4,0.4-1.1,0.5-1.6,0.1l-1.2-0.8c-0.4,0.2-0.9,0.4-1.4,0.6l-0.2,1.4c-0.1,0.6-0.6,1-1.2,1
			H34.1z M31.6,1018.9c0.5,0.3,1.1,0.5,1.7,0.7c0.2,0.1,0.4,0.2,0.4,0.5l0.3,1.8c0,0.1,0.1,0.1,0.1,0.1h1.8c0.1,0,0.1,0,0.1-0.1
			l0.3-1.8c0-0.2,0.2-0.4,0.4-0.5c0.6-0.2,1.2-0.4,1.8-0.7c0.2-0.1,0.4-0.1,0.6,0l1.5,1c0,0,0,0,0.1,0c0,0,0.1,0,0.1,0l1.2-1.2
			c0,0,0-0.1,0-0.1l-1-1.5c-0.1-0.2-0.1-0.4,0-0.6c0.3-0.5,0.6-1.1,0.7-1.7c0.1-0.2,0.2-0.4,0.5-0.4l1.8-0.3c0.1,0,0.1-0.1,0.1-0.1
			l0,0v-1.8c0-0.1,0-0.1-0.1-0.1l-1.8-0.3c-0.2,0-0.4-0.2-0.5-0.4c-0.2-0.6-0.4-1.2-0.7-1.8c-0.1-0.2-0.1-0.4,0-0.6l1-1.4
			c0,0,0-0.1,0-0.1l-1.2-1.2c0,0-0.1,0-0.1,0c0,0,0,0-0.1,0l-1.4,1c-0.2,0.1-0.4,0.1-0.6,0c-0.6-0.3-1.2-0.6-1.8-0.7
			c-0.2-0.1-0.4-0.2-0.4-0.5l-0.3-1.7c0-0.1-0.1-0.1-0.1-0.1h-1.8c-0.1,0-0.1,0-0.1,0.1l-0.3,1.8c0,0.2-0.2,0.4-0.4,0.4
			c-0.6,0.2-1.2,0.4-1.7,0.7c-0.2,0.1-0.4,0.1-0.6,0l-1.4-1c0,0,0,0-0.1,0c0,0-0.1,0-0.1,0l-1.2,1.2c0,0,0,0.1,0,0.1l1,1.5
			c0.1,0.2,0.1,0.4,0,0.6c-0.3,0.5-0.6,1.1-0.7,1.8c-0.1,0.2-0.2,0.4-0.5,0.4l-1.7,0.3c-0.1,0-0.1,0.1-0.1,0.1v1.8
			c0,0.1,0,0.1,0.1,0.1l1.8,0.3c0.2,0,0.4,0.2,0.5,0.4c0.2,0.6,0.4,1.2,0.7,1.7c0.1,0.2,0.1,0.4,0,0.6l-1,1.4c0,0,0,0.1,0,0.1
			l1.2,1.2c0,0,0.1,0,0.1,0c0,0,0,0,0.1,0l1.5-1c0.1-0.1,0.2-0.1,0.3-0.1C31.4,1018.8,31.5,1018.8,31.6,1018.9z M30.8,1013
			c0-2.3,1.9-4.2,4.2-4.2s4.2,1.9,4.2,4.2s-1.9,4.2-4.2,4.2l0,0C32.7,1017.2,30.8,1015.3,30.8,1013L30.8,1013z M31.9,1013
			c0,1.7,1.4,3.1,3.1,3.1s3.1-1.4,3.1-3.1s-1.4-3.1-3.1-3.1C33.3,1009.9,31.9,1011.3,31.9,1013L31.9,1013z"/>
	</g>
</g>
</svg>
