<?xml version="1.0" encoding="utf-8"?>
<!-- Generator: Adobe Illustrator 22.1.0, SVG Export Plug-In . SVG Version: 6.00 Build 0)  -->
<svg version="1.1" id="Layer_1" xmlns="http://www.w3.org/2000/svg" xmlns:xlink="http://www.w3.org/1999/xlink" x="0px" y="0px"
	 viewBox="0 0 15 15" style="enable-background:new 0 0 15 15;" xml:space="preserve">
<g id="settings-profil" transform="translate(0 -0.002)">
	<g id="Group_86" transform="translate(0 0.001)">
		<path id="Path_690" d="M14.2,5.9l-1.1-0.2c-0.1-0.4-0.3-0.7-0.4-1l0.6-0.9c0.3-0.4,0.2-0.9-0.1-1.2l-0.9-0.9
			c-0.2-0.2-0.4-0.3-0.7-0.3c-0.2,0-0.4,0.1-0.5,0.2l-0.9,0.6C9.9,2.1,9.6,1.9,9.2,1.8L9,0.8C9,0.3,8.6,0,8.1,0H6.8
			C6.4,0,6,0.3,5.9,0.8L5.7,1.8C5.4,1.9,5,2.1,4.7,2.3L3.8,1.6C3.5,1.4,3,1.4,2.6,1.7L1.7,2.7C1.4,3,1.3,3.5,1.6,3.9l0.6,0.9
			c-0.2,0.3-0.3,0.7-0.4,1L0.8,6C0.3,6,0,6.4,0,6.9v1.3C0,8.6,0.3,9,0.8,9.1l1.1,0.2c0.1,0.4,0.3,0.7,0.4,1l-0.6,0.9
			c-0.3,0.4-0.2,0.9,0.1,1.2l0.9,0.9c0.2,0.2,0.4,0.3,0.7,0.3c0.2,0,0.4-0.1,0.5-0.2l0.9-0.6c0.3,0.2,0.6,0.3,1,0.4l0.2,1.1
			C6,14.7,6.4,15,6.8,15h1.3c0.5,0,0.8-0.3,0.9-0.8l0.2-1.1c0.4-0.1,0.7-0.3,1-0.4l0.9,0.6c0.2,0.1,0.3,0.2,0.5,0.2l0,0
			c0.2,0,0.5-0.1,0.7-0.3l0.9-0.9c0.3-0.3,0.4-0.8,0.1-1.2l-0.6-0.9c0.2-0.3,0.3-0.7,0.4-1l1.1-0.2C14.7,9,15,8.6,15,8.2V6.8
			C15,6.4,14.7,6,14.2,5.9z M14.2,8.2C14.2,8.2,14.1,8.2,14.2,8.2l-1.4,0.3c-0.2,0-0.3,0.1-0.3,0.3c-0.1,0.5-0.3,0.9-0.5,1.3
			c-0.1,0.1-0.1,0.3,0,0.5l0.8,1.1c0,0,0,0.1,0,0.1l-0.9,0.9c0,0,0,0-0.1,0c0,0,0,0,0,0l-1.1-0.8c-0.1-0.1-0.3-0.1-0.5,0
			c-0.4,0.2-0.9,0.4-1.3,0.5c-0.2,0-0.3,0.2-0.3,0.3l-0.2,1.3c0,0,0,0.1-0.1,0.1H6.8c0,0-0.1,0-0.1-0.1l-0.2-1.3
			c0-0.2-0.1-0.3-0.3-0.3c-0.4-0.1-0.9-0.3-1.3-0.5c-0.1,0-0.1-0.1-0.2-0.1c-0.1,0-0.2,0-0.2,0.1l-1.1,0.8c0,0,0,0,0,0
			c0,0,0,0-0.1,0l-0.9-0.9c0,0,0-0.1,0-0.1l0.8-1.1c0.1-0.1,0.1-0.3,0-0.5C2.9,9.7,2.7,9.3,2.6,8.8c0-0.2-0.2-0.3-0.3-0.3L0.9,8.3
			c0,0-0.1,0-0.1-0.1V6.9c0,0,0-0.1,0.1-0.1l1.3-0.2c0.2,0,0.3-0.2,0.3-0.3c0.1-0.5,0.3-0.9,0.5-1.3c0.1-0.1,0.1-0.3,0-0.5L2.3,3.4
			c0,0,0-0.1,0-0.1l0.9-0.9c0,0,0,0,0.1,0c0,0,0,0,0,0l1.1,0.8c0.1,0.1,0.3,0.1,0.5,0c0.4-0.2,0.8-0.4,1.3-0.5
			c0.2,0,0.3-0.2,0.3-0.3l0.2-1.3c0,0,0-0.1,0.1-0.1h1.3c0,0,0.1,0,0.1,0.1l0.2,1.3c0,0.2,0.2,0.3,0.3,0.3c0.5,0.1,0.9,0.3,1.3,0.6
			c0.1,0.1,0.3,0.1,0.5,0l1.1-0.8c0,0,0,0,0,0c0,0,0,0,0.1,0l0.9,0.9c0,0,0,0.1,0,0.1l-0.8,1.1c-0.1,0.1-0.1,0.3,0,0.5
			c0.2,0.4,0.4,0.9,0.5,1.3c0,0.2,0.2,0.3,0.3,0.3l1.3,0.2c0,0,0.1,0,0.1,0.1L14.2,8.2L14.2,8.2z"/>
		<path id="Path_691" d="M7.5,4.4c-1.7,0-3.1,1.4-3.1,3.1s1.4,3.1,3.1,3.1s3.1-1.4,3.1-3.1C10.6,5.8,9.2,4.4,7.5,4.4z M7.5,9.8
			c-1.3,0-2.3-1-2.3-2.3s1-2.3,2.3-2.3c1.3,0,2.3,1,2.3,2.3c0,0,0,0,0,0C9.8,8.8,8.8,9.8,7.5,9.8L7.5,9.8z"/>
	</g>
</g>
</svg>
