<?xml version="1.0" encoding="utf-8"?>
<!-- Generator: Adobe Illustrator 22.1.0, SVG Export Plug-In . SVG Version: 6.00 Build 0)  -->
<svg version="1.1" id="Layer_1" xmlns="http://www.w3.org/2000/svg" xmlns:xlink="http://www.w3.org/1999/xlink" x="0px" y="0px"
	 viewBox="0 0 30 30" style="enable-background:new 0 0 30 30;" xml:space="preserve">
<style type="text/css">
	.st0{fill:#FFFFFF;}
	.st1{fill:#5E5375;}
</style>
<g>
	<path class="st0" d="M5,0h20c2.8,0,5,2.2,5,5v20c0,2.8-2.2,5-5,5H5c-2.8,0-5-2.2-5-5V5C0,2.2,2.2,0,5,0z"/>
	<path class="st1" d="M25,30H5c-2.8,0-5-2.2-5-5V5c0-2.8,2.2-5,5-5h20c2.8,0,5,2.2,5,5v20C30,27.8,27.8,30,25,30z M5,1
		C2.8,1,1,2.8,1,5v20c0,2.2,1.8,4,4,4h20c2.2,0,4-1.8,4-4V5c0-2.2-1.8-4-4-4H5z"/>
	<path class="st1" d="M16.8,9V8.5c0-0.3-0.2-0.5-0.5-0.5h-9C7,8,6.8,8.2,6.8,8.5V9c0,0.3,0.2,0.5,0.5,0.5h9
		C16.6,9.5,16.8,9.2,16.8,9z M14.4,11.1H7.3c-0.3,0-0.5,0.2-0.5,0.5v0.5c0,0.3,0.2,0.5,0.5,0.5h7.1c0.3,0,0.5-0.2,0.5-0.5v-0.5
		C14.9,11.4,14.7,11.1,14.4,11.1z M12.5,14.3H7.3c-0.3,0-0.5,0.2-0.5,0.5v0.5c0,0.3,0.2,0.5,0.5,0.5h5.2c0.3,0,0.5-0.2,0.5-0.5v-0.5
		C13,14.5,12.7,14.3,12.5,14.3z M10.5,17.4H7.3c-0.3,0-0.5,0.2-0.5,0.5v0.5c0,0.3,0.2,0.5,0.5,0.5h3.2c0.3,0,0.5-0.2,0.5-0.5v-0.5
		C11,17.6,10.8,17.4,10.5,17.4z M8.6,20.5H7.3c-0.3,0-0.5,0.2-0.5,0.5v0.5C6.8,21.8,7,22,7.3,22h1.3c0.3,0,0.5-0.2,0.5-0.5V21
		C9.1,20.8,8.9,20.5,8.6,20.5z M23,18.1l-0.3-0.3c-0.1-0.1-0.2-0.1-0.3-0.1c-0.1,0-0.2,0.1-0.3,0.1l-1.6,1.7V8.5
		c0-0.3-0.2-0.5-0.5-0.5h-0.5C19.2,8,19,8.2,19,8.5v10.9l-1.6-1.7c-0.1-0.1-0.2-0.1-0.3-0.1s-0.2,0.1-0.3,0.1l-0.3,0.3
		c-0.2,0.2-0.2,0.5,0,0.7l3,3.1c0.1,0.1,0.2,0.1,0.3,0.1c0.1,0,0.2,0,0.3-0.1l3-3.1C23.2,18.6,23.2,18.3,23,18.1z"/>
</g>
</svg>
