<?xml version="1.0" encoding="utf-8"?>
<!-- Generator: Adobe Illustrator 22.1.0, SVG Export Plug-In . SVG Version: 6.00 Build 0)  -->
<svg version="1.1" id="Layer_1" xmlns="http://www.w3.org/2000/svg" xmlns:xlink="http://www.w3.org/1999/xlink" x="0px" y="0px"
	 viewBox="0 0 30 30" style="enable-background:new 0 0 30 30;" xml:space="preserve">
<style type="text/css">
	.st0{fill:#FFFFFF;}
	.st1{fill:#5E5375;}
</style>
<g>
	<path class="st0" d="M5,0h20c2.8,0,5,2.2,5,5v20c0,2.8-2.2,5-5,5H5c-2.8,0-5-2.2-5-5V5C0,2.2,2.2,0,5,0z"/>
	<path class="st1" d="M25,30H5c-2.8,0-5-2.2-5-5V5c0-2.8,2.2-5,5-5h20c2.8,0,5,2.2,5,5v20C30,27.8,27.8,30,25,30z M5,1
		C2.8,1,1,2.8,1,5v20c0,2.2,1.8,4,4,4h20c2.2,0,4-1.8,4-4V5c0-2.2-1.8-4-4-4H5z"/>
	<path class="st1" d="M9.5,8h-3C6.2,8,6,8.2,6,8.4c0,0,0,0,0,0.1v2.9C6,11.8,6.2,12,6.5,12h3c0.1,0,0.2,0,0.3-0.1
		c0.1-0.1,0.2-0.2,0.2-0.4v-3C10,8.2,9.8,8,9.5,8C9.5,8,9.5,8,9.5,8z M7,10.9V9h2v1.9H7z M9.5,13h-3C6.2,13,6,13.2,6,13.4
		c0,0,0,0,0,0.1v2.9C6,16.8,6.2,17,6.5,17h3c0.1,0,0.2,0,0.3-0.1c0.1-0.1,0.2-0.2,0.2-0.4v-3C10,13.2,9.8,13,9.5,13
		C9.5,13,9.5,13,9.5,13z M7,15.9V14h2v1.9H7z M9.5,18h-3C6.2,18,6,18.2,6,18.4c0,0,0,0,0,0.1v2.9C6,21.8,6.2,22,6.5,22h3
		c0.1,0,0.2,0,0.3-0.1c0.1-0.1,0.2-0.2,0.2-0.4v-2.9C10,18.2,9.8,18,9.5,18z M7,20.9V19h2v1.9H7z M23.5,8h-11C12.2,8,12,8.2,12,8.4
		c0,0,0,0,0,0.1v2.9c0,0.4,0.2,0.6,0.5,0.6h11c0.1,0,0.2,0,0.3-0.1c0.1-0.1,0.2-0.2,0.2-0.4v-3C24,8.2,23.8,8,23.5,8
		C23.5,8,23.5,8,23.5,8z M13,10.9V9h10v1.9H13z M23.5,13h-11c-0.3,0-0.5,0.2-0.5,0.4c0,0,0,0,0,0.1v2.9c0,0.4,0.2,0.6,0.5,0.6h11
		c0.1,0,0.2,0,0.3-0.1c0.1-0.1,0.2-0.2,0.2-0.4v-3C24,13.2,23.8,13,23.5,13C23.5,13,23.5,13,23.5,13z M13,15.9V14h10v1.9H13z
		 M23.5,18h-11c-0.3,0-0.5,0.2-0.5,0.4c0,0,0,0,0,0.1v2.9c0,0.4,0.2,0.6,0.5,0.6h11c0.1,0,0.2,0,0.3-0.1c0.1-0.1,0.2-0.2,0.2-0.4
		v-2.9C24,18.2,23.8,18,23.5,18z M13,20.9V19h10v1.9H13z"/>
</g>
</svg>
