<?xml version="1.0" encoding="utf-8"?>
<!-- Generator: Adobe Illustrator 22.1.0, SVG Export Plug-In . SVG Version: 6.00 Build 0)  -->
<svg version="1.1" id="Layer_1" xmlns="http://www.w3.org/2000/svg" xmlns:xlink="http://www.w3.org/1999/xlink" x="0px" y="0px"
	 viewBox="0 0 30 30" style="enable-background:new 0 0 30 30;" xml:space="preserve" fill="#000">
<g>
	<path d="M25,0H5C2.2,0,0,2.2,0,5v20c0,2.8,2.2,5,5,5h20c2.8,0,5-2.2,5-5V5C30,2.2,27.8,0,25,0z M9.1,21.5c0,0.3-0.2,0.5-0.5,0.5
		H7.3c-0.3,0-0.5-0.2-0.5-0.5V21c0-0.3,0.2-0.5,0.5-0.5h1.3c0.3,0,0.5,0.3,0.5,0.5V21.5z M11,18.4c0,0.3-0.2,0.5-0.5,0.5H7.3
		c-0.3,0-0.5-0.2-0.5-0.5v-0.5c0-0.3,0.2-0.5,0.5-0.5h3.2c0.3,0,0.5,0.2,0.5,0.5V18.4z M13,15.3c0,0.3-0.2,0.5-0.5,0.5H7.3
		c-0.3,0-0.5-0.2-0.5-0.5v-0.5c0-0.3,0.2-0.5,0.5-0.5h5.2c0.2,0,0.5,0.2,0.5,0.5V15.3z M14.9,12.1c0,0.3-0.2,0.5-0.5,0.5H7.3
		c-0.3,0-0.5-0.2-0.5-0.5v-0.5c0-0.3,0.2-0.5,0.5-0.5h7.1c0.3,0,0.5,0.3,0.5,0.5V12.1z M7.3,9.5C7,9.5,6.8,9.3,6.8,9V8.5
		C6.8,8.2,7,8,7.3,8h9c0.3,0,0.5,0.2,0.5,0.5V9c0,0.2-0.2,0.5-0.5,0.5H7.3z M23.1,18.7l-3,3.1c-0.1,0.1-0.2,0.1-0.3,0.1
		c-0.1,0-0.2,0-0.3-0.1l-3-3.1c-0.2-0.2-0.2-0.5,0-0.7l0.3-0.3c0.1,0,0.2-0.1,0.3-0.1c0.1,0,0.2,0,0.3,0.1l1.6,1.7V8.5
		C19,8.2,19.2,8,19.5,8H20c0.3,0,0.5,0.2,0.5,0.5v11l1.6-1.7c0.1,0,0.2-0.1,0.3-0.1c0.1,0,0.2,0,0.3,0.1l0.3,0.3
		C23.2,18.3,23.2,18.6,23.1,18.7z"/>
</g>
</svg>
