<?xml version="1.0" encoding="utf-8"?>
<!-- Generator: Adobe Illustrator 22.1.0, SVG Export Plug-In . SVG Version: 6.00 Build 0)  -->
<svg version="1.1" id="Layer_1" xmlns="http://www.w3.org/2000/svg" xmlns:xlink="http://www.w3.org/1999/xlink" x="0px" y="0px"
	 viewBox="0 0 56 20" style="enable-background:new 0 0 56 20;" xml:space="preserve">
<style type="text/css">
	.st0{opacity:0.5;fill:#232323;}
</style>
<g>
	<path class="st0" d="M53,20H3c-1.7,0-3-1.3-3-3V3c0-1.7,1.3-3,3-3h50c1.7,0,3,1.3,3,3v14C56,18.7,54.7,20,53,20z M3,1
		C1.9,1,1,1.9,1,3v14c0,1.1,0.9,2,2,2h50c1.1,0,2-0.9,2-2V3c0-1.1-0.9-2-2-2H3z M16,12.9c0-0.4-0.1-0.7-0.4-1
		c-0.3-0.3-0.8-0.5-1.6-0.7c-0.9-0.2-1.6-0.5-2.1-1s-0.8-0.9-0.8-1.6c0-0.7,0.3-1.2,0.8-1.7s1.3-0.7,2.1-0.7c0.9,0,1.7,0.3,2.2,0.8
		s0.8,1.1,0.8,1.8l0,0h-1.1c0-0.5-0.2-0.9-0.5-1.2S14.6,7.3,14,7.3c-0.6,0-1,0.1-1.3,0.4s-0.5,0.6-0.5,1c0,0.4,0.2,0.7,0.5,0.9
		s0.9,0.5,1.6,0.7c0.9,0.2,1.6,0.6,2.1,1s0.7,1,0.7,1.6c0,0.7-0.3,1.2-0.8,1.7s-1.3,0.6-2.2,0.6c-0.9,0-1.6-0.2-2.3-0.7
		s-1-1.1-1-1.9l0,0H12c0,0.5,0.2,1,0.6,1.2s0.9,0.4,1.5,0.4c0.6,0,1-0.1,1.4-0.4C15.8,13.6,16,13.3,16,12.9z M20.1,7.1v1.5h1.2v0.9
		h-1.2v3.8c0,0.3,0.1,0.5,0.2,0.6s0.3,0.2,0.5,0.2c0.1,0,0.1,0,0.2,0s0.2,0,0.2-0.1l0.2,0.8C21.3,15,21.2,15,21,15.1
		s-0.3,0.1-0.5,0.1c-0.5,0-0.8-0.1-1.1-0.4S19,14,19,13.4V9.5h-1V8.7h1V7.1H20.1z M27.7,14.4c0-0.2,0-0.4,0-0.7v-3.1
		c0-0.7-0.2-1.2-0.7-1.6s-1-0.5-1.7-0.5c-0.7,0-1.3,0.2-1.8,0.6s-0.7,0.8-0.7,1.3l0,0h1.1c0-0.3,0.1-0.5,0.3-0.7s0.5-0.3,0.9-0.3
		c0.4,0,0.7,0.1,1,0.3s0.3,0.5,0.3,0.9v0.6h-1.3c-0.8,0-1.5,0.2-2,0.5s-0.7,0.8-0.7,1.4c0,0.6,0.2,1.1,0.5,1.4s0.8,0.5,1.5,0.5
		c0.4,0,0.8-0.1,1.1-0.3s0.6-0.5,0.8-0.8c0,0.1,0,0.3,0,0.4s0.1,0.3,0.1,0.5h1.2C27.8,14.8,27.7,14.6,27.7,14.4z M26.5,13.1
		c-0.1,0.3-0.3,0.5-0.7,0.7s-0.7,0.3-1.1,0.3c-0.3,0-0.6-0.1-0.8-0.2c-0.2-0.2-0.3-0.4-0.3-0.7c0-0.3,0.1-0.6,0.4-0.8
		s0.7-0.4,1.1-0.4h1.3V13.1z M30.9,7.1v1.5h1.2v0.9h-1.2v3.8c0,0.3,0.1,0.5,0.2,0.6s0.3,0.2,0.5,0.2c0.1,0,0.1,0,0.2,0
		s0.2,0,0.2-0.1l0.2,0.8C32,15,31.9,15,31.7,15.1s-0.3,0.1-0.5,0.1c-0.5,0-0.8-0.1-1.1-0.4s-0.4-0.7-0.4-1.3V9.5h-1V8.7h1V7.1H30.9z
		 M37.5,14.1c-0.2,0.3-0.5,0.6-0.8,0.8s-0.7,0.3-1.1,0.3c-0.7,0-1.2-0.2-1.6-0.7s-0.6-1.1-0.6-2.1V8.7h1.2v3.8
		c0,0.7,0.1,1.1,0.3,1.4s0.5,0.4,0.9,0.4c0.4,0,0.7-0.1,1-0.2s0.5-0.4,0.6-0.7V8.7h1.2V15h-1L37.5,14.1z M44,13.3
		c0-0.3-0.1-0.5-0.3-0.6s-0.6-0.3-1.1-0.4c-0.8-0.2-1.3-0.4-1.7-0.7c-0.4-0.3-0.6-0.7-0.6-1.2c0-0.5,0.2-1,0.7-1.3
		c0.4-0.4,1-0.5,1.7-0.5c0.7,0,1.3,0.2,1.8,0.6S45,10,45,10.5l0,0h-1.1c0-0.3-0.1-0.5-0.3-0.7S43,9.5,42.6,9.5
		c-0.4,0-0.7,0.1-0.9,0.3s-0.3,0.4-0.3,0.7c0,0.3,0.1,0.4,0.3,0.6s0.5,0.3,1.1,0.4c0.8,0.2,1.4,0.4,1.8,0.7s0.6,0.7,0.6,1.2
		c0,0.6-0.2,1-0.7,1.4s-1,0.5-1.8,0.5c-0.8,0-1.4-0.2-1.9-0.6s-0.7-0.9-0.7-1.4l0,0h1.1c0,0.4,0.2,0.7,0.5,0.9
		c0.3,0.2,0.6,0.3,1,0.3c0.4,0,0.7-0.1,1-0.2S44,13.6,44,13.3z"/>
</g>
</svg>
