<?xml version="1.0" encoding="utf-8"?>
<!-- Generator: Adobe Illustrator 22.1.0, SVG Export Plug-In . SVG Version: 6.00 Build 0)  -->
<svg version="1.1" id="Layer_1" xmlns="http://www.w3.org/2000/svg" xmlns:xlink="http://www.w3.org/1999/xlink" x="0px" y="0px"
	 viewBox="0 0 30 30" style="enable-background:new 0 0 30 30;" xml:space="preserve">
<style type="text/css">
	.st0{fill:none;}
	.st1{display:none;}
	.st2{display:inline;}
</style>
<path class="st0" d="M0,0h30v30H0V0z"/>
<g class="st1">
	<path class="st2" d="M5,25l10-1.1L25,25l-1-10l1-10L15,6.1L5,5l0.1,1L6,15L5,25z M7.2,15.6h6.3l-7.1,7.1L7.2,15.6z M6.5,7.3
		l7.1,7.1H7.2L6.5,7.3z M14.4,22.7l-7.1,0.8l7.1-7.1V22.7z M14.4,13.5L7.3,6.5l7.1,0.8V13.5z M15.6,7.3l7.1-0.8l-7.1,7.1V7.3z
		 M15.6,22.7v-6.3l7.1,7.1L15.6,22.7z M16.5,15.6h6.3l0.7,7.1L16.5,15.6z M22.8,14.4h-6.3l7.1-7.1L22.8,14.4z"/>
</g>
<image style="display:none;overflow:visible;" width="564" height="485" xlink:href="../Photos/3b5aa25ea831b5b40adeeaca58e5ea49.jpg"  transform="matrix(5.064905e-02 0 0 5.064905e-02 0.717 2.7176)">
</image>
<path d="M14.5,5L5,15.5l9.5,9.5L25,15.8L14.5,5z M13.8,7.5l-0.6,10.1l-6.4-2.4L13.8,7.5z M13.2,18.9l0.5,3.6L8.2,17L13.2,18.9z
	 M15,7.2l8,8.2l-8.6,2.3L15,7.2z M15,23l-0.5-4.1h0l7.4-2L15,23z"/>
<rect x="5" y="5" class="st0" width="20" height="20"/>
</svg>
