<?xml version="1.0" encoding="utf-8"?>
<!-- Generator: Adobe Illustrator 22.1.0, SVG Export Plug-In . SVG Version: 6.00 Build 0)  -->
<svg version="1.1" id="Layer_1" xmlns="http://www.w3.org/2000/svg" xmlns:xlink="http://www.w3.org/1999/xlink" x="0px" y="0px"
	 viewBox="0 0 20 20" style="enable-background:new 0 0 20 20;" xml:space="preserve" fill="#000">
<g>
	<path d="M17,1c1.1,0,2,0.9,2,2v14c0,1.1-0.9,2-2,2H3c-1.1,0-2-0.9-2-2V3c0-1.1,0.9-2,2-2H17 M17,0H3C1.3,0,0,1.3,0,3v14
		c0,1.7,1.3,3,3,3h14c1.7,0,3-1.3,3-3V3C20,1.3,18.7,0,17,0z M11.6,16.5H8.4c0.1,0.9,0.8,1.5,1.7,1.4C10.9,17.8,11.5,17.2,11.6,16.5
		L11.6,16.5z M10,3c0.3,0,0.5,0.2,0.6,0.5c0,0,0,0,0,0v1l0.7,0.2c1.9,0.5,3.2,2.2,3.2,4.2v5l0.3,0.3l0.6,0.6H4.7l0.6-0.6l0.3-0.3v-5
		c0-1.9,1.3-3.7,3.2-4.2l0.7-0.2v-1C9.5,3.2,9.7,3,10,3 M10,2C9.1,2,8.5,2.7,8.4,3.5c0,0,0,0,0,0v0.2C6.1,4.4,4.6,6.5,4.6,8.9v4.6
		L3,15v0.8h14V15l-1.6-1.5V8.9c0-2.4-1.6-4.5-3.9-5.1V3.5C11.5,2.7,10.8,2,10,2z"/>
</g>
</svg>
