<svg id="Layer_1" data-name="Layer 1" xmlns="http://www.w3.org/2000/svg" viewBox="0 0 20 20"><title>system-notification-icon</title><path d="M17,1a2,2,0,0,1,2,2V17a2,2,0,0,1-2,2H3a2,2,0,0,1-2-2V3A2,2,0,0,1,3,1H17m0-1H3A3,3,0,0,0,0,3V17a3,3,0,0,0,3,3H17a3,3,0,0,0,3-3V3a3,3,0,0,0-3-3Z"/><path d="M11.56,16.48H8.44a1.56,1.56,0,0,0,3.11,0Z"/><path d="M10,3a.54.54,0,0,1,.56.52v1l.72.21a4.32,4.32,0,0,1,3.17,4.15v5l.3.29.58.57H4.67l.58-.57.3-.29v-5A4.32,4.32,0,0,1,8.72,4.71l.72-.21v-1A.54.54,0,0,1,10,3m0-1A1.54,1.54,0,0,0,8.44,3.52v.22A5.34,5.34,0,0,0,4.56,8.86v4.57L3,15v.76H17V15l-1.56-1.52V8.86a5.34,5.34,0,0,0-3.89-5.11V3.52A1.54,1.54,0,0,0,10,2Z"/></svg>