<?xml version="1.0" encoding="utf-8"?>
<!-- Generator: Adobe Illustrator 22.1.0, SVG Export Plug-In . SVG Version: 6.00 Build 0)  -->
<svg version="1.1" id="Layer_1" xmlns="http://www.w3.org/2000/svg" xmlns:xlink="http://www.w3.org/1999/xlink" x="0px" y="0px"
	 viewBox="0 0 25 18" style="enable-background:new 0 0 25 18;" xml:space="preserve">
<path d="M24.3,3.3l-14,14.1l-0.1,0.1c-0.8,0.7-1.9,0.6-2.7-0.1l-6.9-7l-0.2-0.2c-0.6-0.8-0.5-1.9,0.2-2.6l0.1-0.1C1.1,7.2,1.6,7,2,7
	c0.5,0,1,0.2,1.4,0.6L9,13.3L21.6,0.6l0.1-0.1c0.8-0.7,1.9-0.6,2.8,0.2c0.1,0,0.2,0.1,0.3,0.3c0,0.1,0.1,0.1,0.1,0.2
	C25.2,1.9,25,2.9,24.3,3.3z"/>
</svg>
