<?xml version="1.0" encoding="utf-8"?>
<!-- Generator: Adobe Illustrator 22.1.0, SVG Export Plug-In . SVG Version: 6.00 Build 0)  -->
<svg version="1.1" id="Layer_1" xmlns="http://www.w3.org/2000/svg" xmlns:xlink="http://www.w3.org/1999/xlink" x="0px" y="0px"
	 viewBox="0 0 44 20" style="enable-background:new 0 0 44 20;" xml:space="preserve">
<style type="text/css">
	.st0{opacity:0.5;fill:#232323;}
</style>
<g>
	<path class="st0" d="M41,20H3c-1.7,0-3-1.3-3-3V3c0-1.7,1.3-3,3-3h38c1.7,0,3,1.3,3,3v14C44,18.7,42.7,20,41,20z M3,1
		C1.9,1,1,1.9,1,3v14c0,1.1,0.9,2,2,2h38c1.1,0,2-0.9,2-2V3c0-1.1-0.9-2-2-2H3z M17.3,7.4h-2.7V15h-1.2V7.4h-2.7V6.5h6.6V7.4z
		 M19.5,7h-1.2V5.9h1.2V7z M19.5,15h-1.2V8.7h1.2V15z M22.8,7.1v1.5H24v0.9h-1.2v3.8c0,0.3,0.1,0.5,0.2,0.6s0.3,0.2,0.5,0.2
		c0.1,0,0.1,0,0.2,0s0.2,0,0.2-0.1l0.2,0.8C24,15,23.9,15,23.7,15.1s-0.3,0.1-0.5,0.1c-0.5,0-0.8-0.1-1.1-0.4
		c-0.3-0.3-0.4-0.7-0.4-1.3V9.5h-1V8.7h1V7.1H22.8z M26.7,15h-1.2V5.9h1.2V15z M31.1,15.1c-0.9,0-1.6-0.3-2.1-0.9s-0.8-1.4-0.8-2.3
		v-0.3c0-0.9,0.3-1.7,0.8-2.3s1.2-0.9,1.9-0.9c0.9,0,1.5,0.3,1.9,0.8s0.7,1.2,0.7,2.1v0.7h-4.1l0,0c0,0.6,0.2,1.1,0.5,1.5
		s0.7,0.6,1.2,0.6c0.4,0,0.7-0.1,1-0.2s0.5-0.3,0.8-0.5l0.5,0.8c-0.2,0.2-0.5,0.4-0.9,0.6C32.1,15,31.7,15.1,31.1,15.1z M30.9,9.5
		c-0.4,0-0.7,0.2-1,0.5s-0.4,0.7-0.5,1.2l0,0h2.9V11c0-0.5-0.1-0.8-0.4-1.1C31.8,9.6,31.4,9.5,30.9,9.5z"/>
</g>
</svg>
