<svg xmlns="http://www.w3.org/2000/svg" viewBox="0 0 350 330"><defs><style>.cls-1{fill:#28203d;}.cls-2,.cls-4{fill:#c9c9c9;}.cls-2{opacity:0.5;}.cls-3{fill:#2f2445;}</style></defs><title>Asset 1</title><g id="Layer_2" data-name="Layer 2"><g id="_1._Transparency" data-name="1. Transparency"><g id="_2" data-name="2"><path class="cls-1" d="M.08,313.56V60.86A16.16,16.16,0,0,1,16.25,44.73H119.7a11.9,11.9,0,0,1,9.68,5l25.56,35.7H299a16.16,16.16,0,0,1,16.16,16.13V138a11.9,11.9,0,0,1-11.91,11.89H74.35l-.38.07a2.87,2.87,0,0,0-2.24,1.62,1.54,1.54,0,0,1,0,.17l-47.11,166c-1.47,5.17-3.63,12.67-8.86,12.31C-.64,328.85.08,313.56.08,313.56Z"/><rect class="cls-2" x="16.52" y="39.63" width="248.04" height="288.23" rx="16.33" ry="16.33"/><rect class="cls-2" x="32.97" y="56.39" width="59.53" height="59.45" rx="7.33" ry="7.33"/><rect class="cls-2" x="115.98" y="56.39" width="133.28" height="6.44" rx="3.22" ry="3.22"/><rect class="cls-2" x="115.98" y="82.9" width="133.28" height="6.44" rx="3.22" ry="3.22"/><rect class="cls-2" x="115.98" y="109.4" width="133.28" height="6.44" rx="3.22" ry="3.22"/><rect class="cls-2" x="32.97" y="135.9" width="216.29" height="6.44" rx="3.22" ry="3.22"/><rect class="cls-2" x="32.97" y="162.4" width="216.29" height="6.44" rx="3.22" ry="3.22"/><rect class="cls-2" x="32.97" y="188.91" width="216.29" height="6.44" rx="3.22" ry="3.22"/><rect class="cls-2" x="32.97" y="215.41" width="216.29" height="6.44" rx="3.22" ry="3.22"/><rect class="cls-2" x="32.97" y="241.91" width="216.29" height="6.44" rx="3.22" ry="3.22"/><rect class="cls-2" x="32.39" y="268.42" width="216.29" height="6.44" rx="3.22" ry="3.22"/><rect class="cls-2" x="32.39" y="294.92" width="216.29" height="6.44" rx="3.22" ry="3.22"/><path class="cls-2" d="M43.31,313.59V16.33A16.33,16.33,0,0,1,59.64,0H275a16.33,16.33,0,0,1,16.33,16.33V313.59A16.34,16.34,0,0,1,275,329.93H59.64A16.34,16.34,0,0,1,43.31,313.59Z"/><path class="cls-2" d="M59.76,68.87V24.09a7.33,7.33,0,0,1,7.33-7.33H112a7.34,7.34,0,0,1,7.34,7.33V68.87A7.34,7.34,0,0,1,112,76.21H67.09A7.34,7.34,0,0,1,59.76,68.87ZM276.05,20h0a3.22,3.22,0,0,0-3.22-3.22H146A3.22,3.22,0,0,0,142.77,20h0A3.22,3.22,0,0,0,146,23.2H272.83A3.22,3.22,0,0,0,276.05,20Zm0,26.5h0a3.23,3.23,0,0,0-3.22-3.22H146a3.22,3.22,0,0,0-3.22,3.22h0A3.22,3.22,0,0,0,146,49.7H272.83A3.22,3.22,0,0,0,276.05,46.48Zm0,26.51h0a3.22,3.22,0,0,0-3.22-3.22H146A3.22,3.22,0,0,0,142.77,73h0A3.22,3.22,0,0,0,146,76.21H272.83A3.22,3.22,0,0,0,276.05,73Zm0,26.5h0a3.22,3.22,0,0,0-3.22-3.22H63a3.22,3.22,0,0,0-3.22,3.22h0A3.22,3.22,0,0,0,63,102.71H272.83A3.22,3.22,0,0,0,276.05,99.49Zm0,26.5h0a3.23,3.23,0,0,0-3.22-3.22H63A3.22,3.22,0,0,0,59.76,126h0A3.22,3.22,0,0,0,63,129.21H272.83A3.22,3.22,0,0,0,276.05,126Zm0,26.51h0a3.22,3.22,0,0,0-3.22-3.22H63a3.22,3.22,0,0,0-3.22,3.22h0A3.22,3.22,0,0,0,63,155.72H272.83A3.23,3.23,0,0,0,276.05,152.5Zm0,26.5h0a3.22,3.22,0,0,0-3.22-3.22H63A3.22,3.22,0,0,0,59.76,179h0A3.22,3.22,0,0,0,63,182.22H272.83A3.22,3.22,0,0,0,276.05,179Zm0,26.5h0a3.22,3.22,0,0,0-3.22-3.22H63a3.22,3.22,0,0,0-3.22,3.22h0A3.22,3.22,0,0,0,63,208.72H272.83A3.22,3.22,0,0,0,276.05,205.5ZM275.47,232h0a3.22,3.22,0,0,0-3.22-3.22H62.4A3.22,3.22,0,0,0,59.18,232h0a3.22,3.22,0,0,0,3.22,3.22H272.25A3.22,3.22,0,0,0,275.47,232Zm0,26.5h0a3.22,3.22,0,0,0-3.22-3.22H62.4a3.22,3.22,0,0,0-3.22,3.22h0a3.22,3.22,0,0,0,3.22,3.22H272.25A3.22,3.22,0,0,0,275.47,258.51Zm0,26.5h0a3.22,3.22,0,0,0-3.22-3.22H62.4A3.22,3.22,0,0,0,59.18,285h0a3.22,3.22,0,0,0,3.22,3.22H272.25A3.22,3.22,0,0,0,275.47,285Zm0,26.5h0a3.22,3.22,0,0,0-3.22-3.22H62.4a3.22,3.22,0,0,0-3.22,3.22h0a3.22,3.22,0,0,0,3.22,3.22H272.25A3.22,3.22,0,0,0,275.47,311.51Z"/><path class="cls-3" d="M60,148.36A15.08,15.08,0,0,1,74.5,137.7H335.21c6.77,0,14,4.87,14.79,15.76l-59.54,166A15.28,15.28,0,0,1,276,330H15.31a15,15,0,0,1-11.94-5.78A15,15,0,0,1,.28,312.06Z"/><path class="cls-4" d="M240.38,204.26a8.74,8.74,0,1,1-8.74-8.72A8.73,8.73,0,0,1,240.38,204.26Z"/><path class="cls-4" d="M147.36,204.26a8.74,8.74,0,1,1-8.74-8.72A8.73,8.73,0,0,1,147.36,204.26Z"/><path class="cls-4" d="M211.42,256.61c-1.12,6.92-5.88,21.73-26.29,21.73S160,263.53,158.85,256.61a3,3,0,0,1,3-3.48h46.63A3,3,0,0,1,211.42,256.61Z"/></g></g></g></svg>