<?xml version="1.0" encoding="utf-8"?>
<!-- Generator: Adobe Illustrator 22.1.0, SVG Export Plug-In . SVG Version: 6.00 Build 0)  -->
<svg version="1.1" id="Layer_1" xmlns="http://www.w3.org/2000/svg" xmlns:xlink="http://www.w3.org/1999/xlink" x="0px" y="0px"
	 viewBox="0 0 24 24" style="enable-background:new 0 0 24 24;" xml:space="preserve">
<style type="text/css">
	.st0{fill:none;}
	.st1{fill:#FFFFFF;}
</style>
<g id="unread" transform="translate(-20 -94)">
	<g id="unread-2" transform="translate(0 8)">
		<path class="st0" d="M20,86h24v24H20V86z"/>
		<path id="Path_997" class="st1" d="M21,91.8v12.3c0,0.8,0.6,1.5,1.5,1.5h19.1c0.8,0,1.5-0.7,1.5-1.5V91.8c0-0.8-0.6-1.5-1.5-1.5
			H22.5C21.6,90.3,21,91,21,91.8z M31.7,99.5l-8.7-8h18l-8.7,8.1C32.1,99.7,31.9,99.7,31.7,99.5z M28.4,98l-6.3,5.9V92.1L28.4,98z
			 M29.2,98.8l1.8,1.7c0.5,0.5,1.3,0.5,1.9,0l0,0l1.8-1.7l6.2,5.8H23L29.2,98.8z M35.6,98l6.3-5.9v11.7L35.6,98z"/>
	</g>
</g>
</svg>
