<?xml version="1.0" encoding="utf-8"?>
<!-- Generator: Adobe Illustrator 22.1.0, SVG Export Plug-In . SVG Version: 6.00 Build 0)  -->
<svg version="1.1" id="Layer_1" xmlns="http://www.w3.org/2000/svg" xmlns:xlink="http://www.w3.org/1999/xlink" x="0px" y="0px"
	 viewBox="0 0 30 30" style="enable-background:new 0 0 30 30;" xml:space="preserve">
<style type="text/css">
	.st0{fill:none;}
	.st1{fill:#FFFFFF;}
</style>
<g id="unread" transform="translate(-20 -94)">
	<g id="unread-2" transform="translate(0 8)">
		<path class="st0" d="M20,86h30v30H20V86z"/>
		<path id="Path_997" class="st1" d="M24,94.8v12.3c0,0.8,0.6,1.5,1.5,1.5h19.1c0.8,0,1.5-0.7,1.5-1.5V94.8c0-0.8-0.6-1.5-1.5-1.5
			H25.5C24.6,93.3,24,94,24,94.8z M34.7,102.5L26,94.5h18l-8.7,8.1C35.1,102.7,34.9,102.7,34.7,102.5z M31.4,101l-6.3,5.9V95.1
			L31.4,101z M32.2,101.8l1.8,1.7c0.5,0.5,1.3,0.5,1.9,0c0,0,0,0,0,0l1.8-1.7l6.2,5.8H26L32.2,101.8z M38.6,101l6.3-5.9v11.7
			L38.6,101z"/>
	</g>
</g>
</svg>
