<?xml version="1.0" encoding="utf-8"?>
<!-- Generator: Adobe Illustrator 22.1.0, SVG Export Plug-In . SVG Version: 6.00 Build 0)  -->
<svg version="1.1" id="file-icon" xmlns="http://www.w3.org/2000/svg" xmlns:xlink="http://www.w3.org/1999/xlink" x="0px" y="0px"
	 viewBox="0 0 67 67" style="enable-background:new 0 0 67 67;" xml:space="preserve">
<g>
	<path d="M44.3,26.6H11.7c-1.1,0-1.9,0.8-1.9,1.9c0,1.1,0.8,1.9,1.9,1.9h27.1c0.3-0.5,0.9-0.9,1.5-0.9c0.5-0.1,1.1,0.1,1.5,0.3l0,0
		l1,0.6h1.2c1.1,0,1.9-0.8,2-1.9v-0.2C46.2,27.4,45.2,26.6,44.3,26.6z M39.4,39.5H11.7c-1.1,0-1.9,0.7-1.9,1.9
		c0,1.1,0.8,1.9,1.9,1.9h28.2L39.4,39.5z M41.2,52.3H11.7c-1.1,0-1.9,0.7-1.9,1.9s0.8,1.9,1.9,1.9h30L41.2,52.3z M23.1,15.6H11.5
		c-0.9,0-1.7,0.9-1.7,1.9v0.2c0,0.9,0.9,1.7,1.9,1.7h11.2c1.1,0,2-0.8,2-1.9v-0.2C24.9,16.4,24,15.6,23.1,15.6z M41.2,52.3H11.7
		c-1.1,0-1.9,0.7-1.9,1.9s0.8,1.9,1.9,1.9h30L41.2,52.3z M39.4,39.5H11.7c-1.1,0-1.9,0.7-1.9,1.9c0,1.1,0.8,1.9,1.9,1.9h28.2
		L39.4,39.5z M44.3,26.6H11.7c-1.1,0-1.9,0.8-1.9,1.9c0,1.1,0.8,1.9,1.9,1.9h27.1c0.3-0.5,0.9-0.9,1.5-0.9c0.5-0.1,1.1,0.1,1.5,0.3
		l0,0l1,0.6h1.2c1.1,0,1.9-0.8,2-1.9v-0.2C46.2,27.4,45.2,26.6,44.3,26.6z M23.1,15.6H11.5c-0.9,0-1.7,0.9-1.7,1.9v0.2
		c0,0.9,0.9,1.7,1.9,1.7h11.2c1.1,0,2-0.8,2-1.9v-0.2C24.9,16.4,24,15.6,23.1,15.6z M23.1,15.6H11.5c-0.9,0-1.7,0.9-1.7,1.9v0.2
		c0,0.9,0.9,1.7,1.9,1.7h11.2c1.1,0,2-0.8,2-1.9v-0.2C24.9,16.4,24,15.6,23.1,15.6z M44.3,26.6H11.7c-1.1,0-1.9,0.8-1.9,1.9
		c0,1.1,0.8,1.9,1.9,1.9h27.1c0.3-0.5,0.9-0.9,1.5-0.9c0.5-0.1,1.1,0.1,1.5,0.3l0,0l1,0.6h1.2c1.1,0,1.9-0.8,2-1.9v-0.2
		C46.2,27.4,45.2,26.6,44.3,26.6z M39.4,39.5H11.7c-1.1,0-1.9,0.7-1.9,1.9c0,1.1,0.8,1.9,1.9,1.9h28.2L39.4,39.5z M41.2,52.3H11.7
		c-1.1,0-1.9,0.7-1.9,1.9s0.8,1.9,1.9,1.9h30L41.2,52.3z M52.3,62.4c-0.5,0.7-1.2,1.3-2,1.7l-2.7,2.8c2.2-0.3,4.2-1.3,5.7-2.9
		L52.3,62.4z M54,19.7L36.1,1.9L34.2,0H9.3C4.3,0,0,4.1,0,9.1v48.6c0,5,4.1,9.3,9.1,9.3h34.2c-0.1-0.2-0.2-0.5-0.2-0.7L43,65.1H9.3
		c-4.1,0-7.5-3.4-7.5-7.5V9.3c0-4.1,3.4-7.5,7.5-7.5h24.9v10.4c0,5,4.1,9.3,9.1,9.3H54v15.7l1.9,1.2V21.6L54,19.7z M43.5,17.9
		c-3,0-5.6-2.4-5.6-5.4V8.9l8.9,8.9H43.5z M23.1,15.6H11.5c-0.9,0-1.7,0.9-1.7,1.9v0.2c0,0.9,0.9,1.7,1.9,1.7h11.2
		c1.1,0,2-0.8,2-1.9v-0.2C24.9,16.4,24,15.6,23.1,15.6z M44.3,26.6H11.7c-1.1,0-1.9,0.8-1.9,1.9c0,1.1,0.8,1.9,1.9,1.9h27.1
		c0.3-0.5,0.9-0.9,1.5-0.9c0.5-0.1,1.1,0.1,1.5,0.3l0,0l1,0.6h1.2c1.1,0,1.9-0.8,2-1.9v-0.2C46.2,27.4,45.2,26.6,44.3,26.6z
		 M39.4,39.5H11.7c-1.1,0-1.9,0.7-1.9,1.9c0,1.1,0.8,1.9,1.9,1.9h28.2L39.4,39.5z M41.2,52.3H11.7c-1.1,0-1.9,0.7-1.9,1.9
		s0.8,1.9,1.9,1.9h30L41.2,52.3z M41.2,52.3H11.7c-1.1,0-1.9,0.7-1.9,1.9s0.8,1.9,1.9,1.9h30L41.2,52.3z M39.4,39.5H11.7
		c-1.1,0-1.9,0.7-1.9,1.9c0,1.1,0.8,1.9,1.9,1.9h28.2L39.4,39.5z M44.3,26.6H11.7c-1.1,0-1.9,0.8-1.9,1.9c0,1.1,0.8,1.9,1.9,1.9
		h27.1c0.3-0.5,0.9-0.9,1.5-0.9c0.5-0.1,1.1,0.1,1.5,0.3l0,0l1,0.6h1.2c1.1,0,1.9-0.8,2-1.9v-0.2C46.2,27.4,45.2,26.6,44.3,26.6z
		 M23.1,15.6H11.5c-0.9,0-1.7,0.9-1.7,1.9v0.2c0,0.9,0.9,1.7,1.9,1.7h11.2c1.1,0,2-0.8,2-1.9v-0.2C24.9,16.4,24,15.6,23.1,15.6z
		 M59.1,66.7c-0.8,0.5-1.9,0.3-2.4-0.5l-4.9-7.7l-3.9,4.1c-0.3,0.3-0.6,0.5-1,0.5c-1,0.1-1.8-0.5-2-1.5l-3.6-25.9
		c-0.1-1,0.5-1.8,1.5-2c0.4-0.1,0.8,0,1.2,0.2l0,0l22.1,13.9c0.8,0.5,1.1,1.6,0.6,2.4c-0.2,0.3-0.6,0.6-0.9,0.7l-5.3,1.8l4.9,7.7
		c0.6,0.8,0.3,1.9-0.5,2.4L59.1,66.7z"/>
</g>
</svg>
