<?xml version="1.0" encoding="utf-8"?>
<!-- Generator: Adobe Illustrator 22.1.0, SVG Export Plug-In . SVG Version: 6.00 Build 0)  -->
<svg version="1.1" id="Layer_1" xmlns="http://www.w3.org/2000/svg" xmlns:xlink="http://www.w3.org/1999/xlink" x="0px" y="0px"
	 viewBox="0 0 10 11" style="enable-background:new 0 0 10 11;" xml:space="preserve">
<g>
	<path d="M0,10V1c0-0.6,0.4-1,1-1h0c0.6,0,1,0.4,1,1v9c0,0.6-0.4,1-1,1h0C0.4,11,0,10.6,0,10z M9,11L9,11c0.6,0,1-0.4,1-1V1
		c0-0.6-0.4-1-1-1h0C8.4,0,8,0.4,8,1v9C8,10.6,8.4,11,9,11z"/>
</g>
</svg>
