<?xml version="1.0" encoding="utf-8"?>
<!-- Generator: Adobe Illustrator 21.1.0, SVG Export Plug-In . SVG Version: 6.00 Build 0)  -->
<svg version="1.1" id="Layer_1" xmlns="http://www.w3.org/2000/svg" xmlns:xlink="http://www.w3.org/1999/xlink" x="0px" y="0px"
	 viewBox="0 0 15.9 10.3" style="enable-background:new 0 0 15.9 10.3;" xml:space="preserve">
<g>
	<path d="M15.4,8.4c-0.3,0-0.5-0.2-0.5-0.5C14.9,4.1,11.8,1,8,1S1,4.1,1,7.9c0,0.3-0.2,0.5-0.5,0.5S0,8.2,0,7.9C0,3.6,3.6,0,7.9,0
		s7.9,3.6,7.9,7.9C15.9,8.2,15.7,8.4,15.4,8.4z M10.9,7.3c0-1.6-1.3-3-3-3c-1.6,0-3,1.3-3,3c0,1.6,1.3,3,3,3S10.9,8.9,10.9,7.3z
		 M9.9,7.3c0,1.1-0.9,2-2,2s-2-0.9-2-2s0.9-2,2-2S9.9,6.2,9.9,7.3z"/>
</g>
</svg>
