<?xml version="1.0" encoding="utf-8"?>
<!-- Generator: Adobe Illustrator 21.1.0, SVG Export Plug-In . SVG Version: 6.00 Build 0)  -->
<svg version="1.1" id="Layer_1" xmlns="http://www.w3.org/2000/svg" xmlns:xlink="http://www.w3.org/1999/xlink" x="0px" y="0px"
	 viewBox="0 0 15.9 10.3" style="enable-background:new 0 0 15.9 10.3;" xml:space="preserve">
<style type="text/css">
	.st0{display:none;}
</style>
<g>
	<path d="M15.4,8.4c-0.3,0-0.5-0.2-0.5-0.5c0-3.8-3.1-6.9-6.9-6.9S1,4.1,1,7.9c0,0.3-0.2,0.5-0.5,0.5S0,8.2,0,7.9C0,3.6,3.6,0,7.9,0
		s7.9,3.6,7.9,7.9C15.9,8.2,15.7,8.4,15.4,8.4z M10.9,7.3c0-1.6-1.3-3-3-3c-1.6,0-3,1.3-3,3c0,1.6,1.3,3,3,3
		C9.6,10.3,10.9,8.9,10.9,7.3z M9.9,7.3c0,1.1-0.9,2-2,2c-1.1,0-2-0.9-2-2c0-1.1,0.9-2,2-2C9,5.3,9.9,6.2,9.9,7.3z"/>
	<path class="st0" d="M15.1,12.2c-0.1,0-0.2,0-0.3-0.1L0.2,0.5C-0.1,0.3-0.1,0,0.1-0.2c0.2-0.2,0.5-0.3,0.7-0.1l14.7,11.6
		c0.2,0.2,0.3,0.5,0.1,0.7C15.4,12.2,15.3,12.2,15.1,12.2z"/>
</g>
</svg>
