<?xml version="1.0" encoding="utf-8"?>
<!-- Generator: Adobe Illustrator 21.1.0, SVG Export Plug-In . SVG Version: 6.00 Build 0)  -->
<svg version="1.1" id="Layer_1" xmlns="http://www.w3.org/2000/svg" xmlns:xlink="http://www.w3.org/1999/xlink" x="0px" y="0px"
	 viewBox="0 0 16 16" style="enable-background:new 0 0 16 16;" xml:space="preserve">
<path d="M8,6C6.3,6,5,7.3,5,9s1.3,3,3,3s3-1.3,3-3S9.7,6,8,6z M8,11c-1.1,0-2-0.9-2-2s0.9-2,2-2s2,0.9,2,2S9.1,11,8,11z M16,9H15
	c-0.2-3.5-3.3-6.2-7-6.2C4.2,2.8,1.2,5.5,1,9H0c0.2-3.9,3.7-7,8-7S15.8,5.1,16,9z"/>
</svg>
