<?xml version="1.0" encoding="utf-8"?>
<!-- Generator: Adobe Illustrator 22.1.0, SVG Export Plug-In . SVG Version: 6.00 Build 0)  -->
<svg version="1.1" id="Layer_1" xmlns="http://www.w3.org/2000/svg" xmlns:xlink="http://www.w3.org/1999/xlink" x="0px" y="0px"
	 viewBox="0 0 20 10" style="enable-background:new 0 0 20 10;" xml:space="preserve">
<g>
	<path d="M13.8,0.2C14,0.1,14.2,0,14.5,0c0.3,0,0.5,0.2,0.7,0.5C15.5,1,15.4,1.6,15,1.9L8.8,7l0.7,0.6l8.9-7.3
		C18.6,0.1,18.9,0,19.1,0c0.3,0,0.5,0.2,0.7,0.5c0.3,0.4,0.2,1-0.2,1.4l-9.5,7.9C9.9,9.9,9.7,10,9.5,10c-0.2,0-0.4,0-0.6-0.2
		L7.2,8.3L5.4,9.8C5.2,10,5,10,4.8,10s-0.4,0-0.6-0.2L0.3,6.1c-0.4-0.4-0.4-1.1,0-1.5c0.6-0.7,1.4-0.1,1.4-0.1l3.2,3L13.8,0.2z"/>
</g>
</svg>
