<?xml version="1.0" encoding="utf-8"?>
<!-- Generator: Adobe Illustrator 21.1.0, SVG Export Plug-In . SVG Version: 6.00 Build 0)  -->
<svg version="1.1" id="Layer_1" xmlns="http://www.w3.org/2000/svg" xmlns:xlink="http://www.w3.org/1999/xlink" x="0px" y="0px"
	 viewBox="0 0 15.9 12.6" style="enable-background:new 0 0 15.9 12.6;" xml:space="preserve">
<g>
	<path d="M15.4,8.8c-0.3,0-0.5-0.2-0.5-0.5c0-3.8-3.1-6.9-6.9-6.9S1,4.5,1,8.3c0,0.3-0.2,0.5-0.5,0.5S0,8.6,0,8.3
		C0,4,3.6,0.4,7.9,0.4s7.9,3.6,7.9,7.9C15.9,8.6,15.7,8.8,15.4,8.8z M10.9,7.7c0-1.6-1.3-3-3-3c-1.6,0-3,1.3-3,3c0,1.6,1.3,3,3,3
		S10.9,9.3,10.9,7.7z M9.9,7.7c0,1.1-0.9,2-2,2s-2-0.9-2-2s0.9-2,2-2S9.9,6.6,9.9,7.7z"/>
	<path d="M15.1,12.6c-0.1,0-0.2,0-0.3-0.1L0.2,0.9c-0.3-0.2-0.3-0.5-0.1-0.7s0.5-0.3,0.7-0.1l14.7,11.6c0.2,0.2,0.3,0.5,0.1,0.7
		C15.4,12.6,15.3,12.6,15.1,12.6z"/>
</g>
</svg>
