<?xml version="1.0" encoding="utf-8"?>
<!-- Generator: Adobe Illustrator 22.1.0, SVG Export Plug-In . SVG Version: 6.00 Build 0)  -->
<svg version="1.1" id="Layer_1" xmlns="http://www.w3.org/2000/svg" xmlns:xlink="http://www.w3.org/1999/xlink" x="0px" y="0px"
	 viewBox="0 0 20 10" style="enable-background:new 0 0 20 10;" xml:space="preserve">
<style type="text/css">
	.st0{fill:#232323;}
</style>
<g>
	<path class="st0" d="M19.6,1.9l-9.5,7.9C9.9,9.9,9.7,10,9.5,10C9.3,10,9,9.9,8.9,9.8L7.2,8.3L5.4,9.8C5.2,9.9,5,10,4.8,10
		c-0.2,0-0.4-0.1-0.6-0.2L0.3,6.1c-0.4-0.4-0.4-1.1,0-1.5c0.3-0.4,0.8-0.4,1.3-0.2l0.1,0.1l3.2,3l0.9-0.7l1.6-1.3l6.4-5.3
		C13.9,0.1,14.2,0,14.5,0c0.3,0,0.5,0.2,0.7,0.5C15.5,1,15.4,1.6,15,1.9L8.8,7l0.7,0.6l8.9-7.3C18.6,0.1,18.9,0,19.1,0
		c0.3,0,0.5,0.2,0.7,0.5C20.1,0.9,20,1.5,19.6,1.9z"/>
</g>
</svg>
